M48
; DRILL file KiCad 10.0.0 date 2026-04-22T13:07:46
; FORMAT={-:-/ absolute / metric / decimal}
; #@! TF.CreationDate,2026-04-22T13:07:46+02:00
; #@! TF.GenerationSoftware,Kicad,Pcbnew,10.0.0
; #@! TF.FileFunction,Plated,1,2,PTH
FMAT,2
METRIC
; #@! TA.AperFunction,Plated,PTH,ViaDrill
T1C0.400
; #@! TA.AperFunction,Plated,PTH,ComponentDrill
T2C0.800
; #@! TA.AperFunction,Plated,PTH,ComponentDrill
T3C1.000
%
G90
G05
T1
X207.7Y-44.8
X214.1Y-34.3
X225.75Y-42.5
X229.3Y-86.8
X230.8Y-76.2
X236.0Y-36.75
T2
X202.67Y-14.8
X203.0Y-26.4
X203.0Y-28.9
X205.25Y-73.92
X205.25Y-84.08
X205.6Y-59.02
X205.6Y-69.18
X208.42Y-20.3
X208.42Y-27.92
X210.2Y-81.32
X210.2Y-91.48
X210.96Y-20.3
X210.96Y-27.92
X212.83Y-14.8
X212.98Y-58.86
X212.98Y-61.4
X212.98Y-63.94
X212.98Y-66.48
X212.98Y-69.02
X212.98Y-71.56
X212.98Y-74.1
X212.98Y-76.64
X213.5Y-20.3
X213.5Y-27.92
X215.65Y-55.9
X215.67Y-17.5
X216.04Y-20.3
X216.04Y-27.92
X218.15Y-55.9
X218.17Y-14.0
X218.58Y-20.3
X218.58Y-27.92
X220.6Y-58.86
X220.6Y-61.4
X220.6Y-63.94
X220.6Y-66.48
X220.6Y-69.02
X220.6Y-71.56
X220.6Y-74.1
X220.6Y-76.64
X221.12Y-20.3
X221.12Y-27.92
X223.66Y-20.3
X223.66Y-27.92
X225.83Y-17.5
X226.2Y-20.3
X226.2Y-27.92
X227.52Y-95.6
X228.33Y-14.0
X232.2Y-27.92
X232.2Y-38.08
X237.68Y-95.6
T3
X202.46Y-46.38
X202.46Y-48.92
X202.46Y-51.46
X202.46Y-54.0
X205.0Y-46.38
X205.0Y-48.92
X205.0Y-51.46
X205.0Y-54.0
X205.46Y-95.5
X206.615Y-2.0
X206.615Y-4.54
X208.0Y-95.5
X209.155Y-2.0
X209.155Y-4.54
X211.695Y-2.0
X211.695Y-4.54
X213.0Y-95.5
X214.235Y-2.0
X214.235Y-4.54
X215.54Y-95.5
X216.775Y-2.0
X216.775Y-4.54
X219.315Y-2.0
X219.315Y-4.54
X219.46Y-90.5
X219.725Y-95.5
X221.855Y-2.0
X221.855Y-4.54
X222.0Y-90.5
X222.265Y-95.5
X224.395Y-2.0
X224.395Y-4.54
X226.111Y-48.514
X226.111Y-51.054
X226.111Y-53.594
X226.111Y-56.134
X226.111Y-58.674
X226.111Y-61.214
X226.111Y-63.754
X226.111Y-66.294
X226.111Y-68.834
X226.111Y-71.374
X226.111Y-73.914
X226.111Y-76.454
X226.111Y-78.994
X226.111Y-81.534
X226.111Y-84.074
X226.111Y-86.614
X226.111Y-89.154
X226.111Y-91.694
X226.935Y-2.0
X226.935Y-4.54
X229.475Y-2.0
X229.475Y-4.54
X232.015Y-2.0
X232.015Y-4.54
X233.654Y-42.565
X233.654Y-45.105
X233.654Y-47.645
X233.654Y-50.185
X233.654Y-52.725
X233.654Y-55.265
X233.654Y-57.805
X233.654Y-60.345
X233.654Y-62.885
X233.654Y-65.425
X233.654Y-67.965
X233.654Y-70.505
X233.654Y-73.045
X233.654Y-75.585
X233.654Y-78.125
X233.654Y-80.665
X233.654Y-83.205
X233.654Y-85.745
X236.194Y-42.565
X236.194Y-45.105
X236.194Y-47.645
X236.194Y-50.185
X236.194Y-52.725
X236.194Y-55.265
X236.194Y-57.805
X236.194Y-60.345
X236.194Y-62.885
X236.194Y-65.425
X236.194Y-67.965
X236.194Y-70.505
X236.194Y-73.045
X236.194Y-75.585
X236.194Y-78.125
X236.194Y-80.665
X236.194Y-83.205
X236.194Y-85.745
X236.93Y-12.625
X236.93Y-15.165
X236.93Y-17.705
X236.93Y-20.245
X236.93Y-22.785
X236.93Y-25.325
X236.93Y-27.865
X236.93Y-30.405
X238.734Y-42.565
X238.734Y-45.105
X238.734Y-47.645
X238.734Y-50.185
X238.734Y-52.725
X238.734Y-55.265
X238.734Y-57.805
X238.734Y-60.345
X238.734Y-62.885
X238.734Y-65.425
X238.734Y-67.965
X238.734Y-70.505
X238.734Y-73.045
X238.734Y-75.585
X238.734Y-78.125
X238.734Y-80.665
X238.734Y-83.205
X238.734Y-85.745
X239.47Y-12.625
X239.47Y-15.165
X239.47Y-17.705
X239.47Y-20.245
X239.47Y-22.785
X239.47Y-25.325
X239.47Y-27.865
X239.47Y-30.405
X241.274Y-42.565
X241.274Y-45.105
X241.274Y-47.645
X241.274Y-50.185
X241.274Y-52.725
X241.274Y-55.265
X241.274Y-57.805
X241.274Y-60.345
X241.274Y-62.885
X241.274Y-65.425
X241.274Y-67.965
X241.274Y-70.505
X241.274Y-73.045
X241.274Y-75.585
X241.274Y-78.125
X241.274Y-80.665
X241.274Y-83.205
X241.274Y-85.745
X242.01Y-12.625
X242.01Y-15.165
X242.01Y-17.705
X242.01Y-20.245
X242.01Y-22.785
X242.01Y-25.325
X242.01Y-27.865
X242.01Y-30.405
X243.814Y-42.565
X243.814Y-45.105
X243.814Y-47.645
X243.814Y-50.185
X243.814Y-52.725
X243.814Y-55.265
X243.814Y-57.805
X243.814Y-60.345
X243.814Y-62.885
X243.814Y-65.425
X243.814Y-67.965
X243.814Y-70.505
X243.814Y-73.045
X243.814Y-75.585
X243.814Y-78.125
X243.814Y-80.665
X243.814Y-83.205
X243.814Y-85.745
X244.55Y-12.625
X244.55Y-15.165
X244.55Y-17.705
X244.55Y-20.245
X244.55Y-22.785
X244.55Y-25.325
X244.55Y-27.865
X244.55Y-30.405
X246.354Y-42.565
X246.354Y-45.105
X246.354Y-47.645
X246.354Y-50.185
X246.354Y-52.725
X246.354Y-55.265
X246.354Y-57.805
X246.354Y-60.345
X246.354Y-62.885
X246.354Y-65.425
X246.354Y-67.965
X246.354Y-70.505
X246.354Y-73.045
X246.354Y-75.585
X246.354Y-78.125
X246.354Y-80.665
X246.354Y-83.205
X246.354Y-85.745
X247.09Y-12.625
X247.09Y-15.165
X247.09Y-17.705
X247.09Y-20.245
X247.09Y-22.785
X247.09Y-25.325
X247.09Y-27.865
X247.09Y-30.405
X248.894Y-42.565
X248.894Y-45.105
X248.894Y-47.645
X248.894Y-50.185
X248.894Y-52.725
X248.894Y-55.265
X248.894Y-57.805
X248.894Y-60.345
X248.894Y-62.885
X248.894Y-65.425
X248.894Y-67.965
X248.894Y-70.505
X248.894Y-73.045
X248.894Y-75.585
X248.894Y-78.125
X248.894Y-80.665
X248.894Y-83.205
X248.894Y-85.745
X249.63Y-12.625
X249.63Y-15.165
X249.63Y-17.705
X249.63Y-20.245
X249.63Y-22.785
X249.63Y-25.325
X249.63Y-27.865
X249.63Y-30.405
X251.434Y-42.565
X251.434Y-45.105
X251.434Y-47.645
X251.434Y-50.185
X251.434Y-52.725
X251.434Y-55.265
X251.434Y-57.805
X251.434Y-60.345
X251.434Y-62.885
X251.434Y-65.425
X251.434Y-67.965
X251.434Y-70.505
X251.434Y-73.045
X251.434Y-75.585
X251.434Y-78.125
X251.434Y-80.665
X251.434Y-83.205
X251.434Y-85.745
X252.17Y-12.625
X252.17Y-15.165
X252.17Y-17.705
X252.17Y-20.245
X252.17Y-22.785
X252.17Y-25.325
X252.17Y-27.865
X252.17Y-30.405
X253.974Y-42.565
X253.974Y-45.105
X253.974Y-47.645
X253.974Y-50.185
X253.974Y-52.725
X253.974Y-55.265
X253.974Y-57.805
X253.974Y-60.345
X253.974Y-62.885
X253.974Y-65.425
X253.974Y-67.965
X253.974Y-70.505
X253.974Y-73.045
X253.974Y-75.585
X253.974Y-78.125
X253.974Y-80.665
X253.974Y-83.205
X253.974Y-85.745
X254.71Y-12.625
X254.71Y-15.165
X254.71Y-17.705
X254.71Y-20.245
X254.71Y-22.785
X254.71Y-25.325
X254.71Y-27.865
X254.71Y-30.405
X256.514Y-42.565
X256.514Y-45.105
X256.514Y-47.645
X256.514Y-50.185
X256.514Y-52.725
X256.514Y-55.265
X256.514Y-57.805
X256.514Y-60.345
X256.514Y-62.885
X256.514Y-65.425
X256.514Y-67.965
X256.514Y-70.505
X256.514Y-73.045
X256.514Y-75.585
X256.514Y-78.125
X256.514Y-80.665
X256.514Y-83.205
X256.514Y-85.745
X257.25Y-12.625
X257.25Y-15.165
X257.25Y-17.705
X257.25Y-20.245
X257.25Y-22.785
X257.25Y-25.325
X257.25Y-27.865
X257.25Y-30.405
X259.054Y-42.565
X259.054Y-45.105
X259.054Y-47.645
X259.054Y-50.185
X259.054Y-52.725
X259.054Y-55.265
X259.054Y-57.805
X259.054Y-60.345
X259.054Y-62.885
X259.054Y-65.425
X259.054Y-67.965
X259.054Y-70.505
X259.054Y-73.045
X259.054Y-75.585
X259.054Y-78.125
X259.054Y-80.665
X259.054Y-83.205
X259.054Y-85.745
X259.79Y-12.625
X259.79Y-15.165
X259.79Y-17.705
X259.79Y-20.245
X259.79Y-22.785
X259.79Y-25.325
X259.79Y-27.865
X259.79Y-30.405
X261.594Y-42.565
X261.594Y-45.105
X261.594Y-47.645
X261.594Y-50.185
X261.594Y-52.725
X261.594Y-55.265
X261.594Y-57.805
X261.594Y-60.345
X261.594Y-62.885
X261.594Y-65.425
X261.594Y-67.965
X261.594Y-70.505
X261.594Y-73.045
X261.594Y-75.585
X261.594Y-78.125
X261.594Y-80.665
X261.594Y-83.205
X261.594Y-85.745
X262.33Y-12.625
X262.33Y-15.165
X262.33Y-17.705
X262.33Y-20.245
X262.33Y-22.785
X262.33Y-25.325
X262.33Y-27.865
X262.33Y-30.405
X264.134Y-42.565
X264.134Y-45.105
X264.134Y-47.645
X264.134Y-50.185
X264.134Y-52.725
X264.134Y-55.265
X264.134Y-57.805
X264.134Y-60.345
X264.134Y-62.885
X264.134Y-65.425
X264.134Y-67.965
X264.134Y-70.505
X264.134Y-73.045
X264.134Y-75.585
X264.134Y-78.125
X264.134Y-80.665
X264.134Y-83.205
X264.134Y-85.745
X264.87Y-12.625
X264.87Y-15.165
X264.87Y-17.705
X264.87Y-20.245
X264.87Y-22.785
X264.87Y-25.325
X264.87Y-27.865
X264.87Y-30.405
X266.674Y-42.565
X266.674Y-45.105
X266.674Y-47.645
X266.674Y-50.185
X266.674Y-52.725
X266.674Y-55.265
X266.674Y-57.805
X266.674Y-60.345
X266.674Y-62.885
X266.674Y-65.425
X266.674Y-67.965
X266.674Y-70.505
X266.674Y-73.045
X266.674Y-75.585
X266.674Y-78.125
X266.674Y-80.665
X266.674Y-83.205
X266.674Y-85.745
X267.88Y-95.461
X267.88Y-98.001
X269.214Y-42.565
X269.214Y-45.105
X269.214Y-47.645
X269.214Y-50.185
X269.214Y-52.725
X269.214Y-55.265
X269.214Y-57.805
X269.214Y-60.345
X269.214Y-62.885
X269.214Y-65.425
X269.214Y-67.965
X269.214Y-70.505
X269.214Y-73.045
X269.214Y-75.585
X269.214Y-78.125
X269.214Y-80.665
X269.214Y-83.205
X269.214Y-85.745
X270.42Y-95.461
X270.42Y-98.001
X271.754Y-42.565
X271.754Y-45.105
X271.754Y-47.645
X271.754Y-50.185
X271.754Y-52.725
X271.754Y-55.265
X271.754Y-57.805
X271.754Y-60.345
X271.754Y-62.885
X271.754Y-65.425
X271.754Y-67.965
X271.754Y-70.505
X271.754Y-73.045
X271.754Y-75.585
X271.754Y-78.125
X271.754Y-80.665
X271.754Y-83.205
X271.754Y-85.745
X272.96Y-95.461
X272.96Y-98.001
X274.294Y-42.565
X274.294Y-45.105
X274.294Y-47.645
X274.294Y-50.185
X274.294Y-52.725
X274.294Y-55.265
X274.294Y-57.805
X274.294Y-60.345
X274.294Y-62.885
X274.294Y-65.425
X274.294Y-67.965
X274.294Y-70.505
X274.294Y-73.045
X274.294Y-75.585
X274.294Y-78.125
X274.294Y-80.665
X274.294Y-83.205
X274.294Y-85.745
X275.5Y-95.461
X275.5Y-98.001
X276.834Y-42.565
X276.834Y-45.105
X276.834Y-47.645
X276.834Y-50.185
X276.834Y-52.725
X276.834Y-55.265
X276.834Y-57.805
X276.834Y-60.345
X276.834Y-62.885
X276.834Y-65.425
X276.834Y-67.965
X276.834Y-70.505
X276.834Y-73.045
X276.834Y-75.585
X276.834Y-78.125
X276.834Y-80.665
X276.834Y-83.205
X276.834Y-85.745
X277.63Y-4.5
X278.04Y-95.461
X278.04Y-98.001
X279.374Y-42.565
X279.374Y-45.105
X279.374Y-47.645
X279.374Y-50.185
X279.374Y-52.725
X279.374Y-55.265
X279.374Y-57.805
X279.374Y-60.345
X279.374Y-62.885
X279.374Y-65.425
X279.374Y-67.965
X279.374Y-70.505
X279.374Y-73.045
X279.374Y-75.585
X279.374Y-78.125
X279.374Y-80.665
X279.374Y-83.205
X279.374Y-85.745
X280.17Y-4.5
X280.58Y-95.461
X280.58Y-98.001
X281.914Y-42.565
X281.914Y-45.105
X281.914Y-47.645
X281.914Y-50.185
X281.914Y-52.725
X281.914Y-55.265
X281.914Y-57.805
X281.914Y-60.345
X281.914Y-62.885
X281.914Y-65.425
X281.914Y-67.965
X281.914Y-70.505
X281.914Y-73.045
X281.914Y-75.585
X281.914Y-78.125
X281.914Y-80.665
X281.914Y-83.205
X281.914Y-85.745
X283.12Y-95.461
X283.12Y-98.001
X285.12Y-4.5
X285.66Y-95.461
X285.66Y-98.001
X287.66Y-4.5
X288.2Y-95.461
X288.2Y-98.001
X290.74Y-95.461
X290.74Y-98.001
X293.28Y-95.461
X293.28Y-98.001
X293.395Y-4.5
X294.46Y-46.38
X294.46Y-48.92
X294.46Y-51.46
X294.46Y-54.0
X295.935Y-4.5
X297.0Y-46.38
X297.0Y-48.92
X297.0Y-51.46
X297.0Y-54.0
M30
