%TF.GenerationSoftware,KiCad,Pcbnew,10.0.0*%
%TF.CreationDate,2026-04-22T13:07:46+02:00*%
%TF.ProjectId,kleingorium,6b6c6569-6e67-46f7-9269-756d2e6b6963,rev?*%
%TF.SameCoordinates,Original*%
%TF.FileFunction,Drillmap*%
%TF.FilePolarity,Positive*%
%FSLAX45Y45*%
G04 Gerber Fmt 4.5, Leading zero omitted, Abs format (unit mm)*
G04 Created by KiCad (PCBNEW 10.0.0) date 2026-04-22 13:07:46*
%MOMM*%
%LPD*%
G01*
G04 APERTURE LIST*
%ADD10C,0.200000*%
%ADD11C,0.050000*%
%ADD12C,0.100000*%
G04 APERTURE END LIST*
D10*
X20000000Y0D02*
X30000000Y0D01*
X30000000Y-10000000D01*
X20000000Y-10000000D01*
X20000000Y0D01*
D11*
X20675000Y-1000000D02*
G75*
G02*
X20325000Y-1000000I-175000J0D01*
G01*
X20325000Y-1000000D02*
G75*
G02*
X20675000Y-1000000I175000J0D01*
G01*
X20675000Y-9000000D02*
G75*
G02*
X20325000Y-9000000I-175000J0D01*
G01*
X20325000Y-9000000D02*
G75*
G02*
X20675000Y-9000000I175000J0D01*
G01*
X29675000Y-1000000D02*
G75*
G02*
X29325000Y-1000000I-175000J0D01*
G01*
X29325000Y-1000000D02*
G75*
G02*
X29675000Y-1000000I175000J0D01*
G01*
X29675000Y-9000000D02*
G75*
G02*
X29325000Y-9000000I-175000J0D01*
G01*
X29325000Y-9000000D02*
G75*
G02*
X29675000Y-9000000I175000J0D01*
G01*
D10*
D12*
X20750000Y-4460000D02*
X20790000Y-4500000D01*
X20790000Y-4460000D02*
X20750000Y-4500000D01*
X21390000Y-3410000D02*
X21430000Y-3450000D01*
X21430000Y-3410000D02*
X21390000Y-3450000D01*
X22555000Y-4230000D02*
X22595000Y-4270000D01*
X22595000Y-4230000D02*
X22555000Y-4270000D01*
X22910000Y-8660000D02*
X22950000Y-8700000D01*
X22950000Y-8660000D02*
X22910000Y-8700000D01*
X23060000Y-7600000D02*
X23100000Y-7640000D01*
X23100000Y-7600000D02*
X23060000Y-7640000D01*
X23580000Y-3655000D02*
X23620000Y-3695000D01*
X23620000Y-3655000D02*
X23580000Y-3695000D01*
X20307000Y-1480000D02*
G75*
G02*
X20227000Y-1480000I-40000J0D01*
G01*
X20227000Y-1480000D02*
G75*
G02*
X20307000Y-1480000I40000J0D01*
G01*
X20340000Y-2640000D02*
G75*
G02*
X20260000Y-2640000I-40000J0D01*
G01*
X20260000Y-2640000D02*
G75*
G02*
X20340000Y-2640000I40000J0D01*
G01*
X20340000Y-2890000D02*
G75*
G02*
X20260000Y-2890000I-40000J0D01*
G01*
X20260000Y-2890000D02*
G75*
G02*
X20340000Y-2890000I40000J0D01*
G01*
X20565000Y-7392000D02*
G75*
G02*
X20485000Y-7392000I-40000J0D01*
G01*
X20485000Y-7392000D02*
G75*
G02*
X20565000Y-7392000I40000J0D01*
G01*
X20565000Y-8408000D02*
G75*
G02*
X20485000Y-8408000I-40000J0D01*
G01*
X20485000Y-8408000D02*
G75*
G02*
X20565000Y-8408000I40000J0D01*
G01*
X20600000Y-5902000D02*
G75*
G02*
X20520000Y-5902000I-40000J0D01*
G01*
X20520000Y-5902000D02*
G75*
G02*
X20600000Y-5902000I40000J0D01*
G01*
X20600000Y-6918000D02*
G75*
G02*
X20520000Y-6918000I-40000J0D01*
G01*
X20520000Y-6918000D02*
G75*
G02*
X20600000Y-6918000I40000J0D01*
G01*
X20882000Y-2030000D02*
G75*
G02*
X20802000Y-2030000I-40000J0D01*
G01*
X20802000Y-2030000D02*
G75*
G02*
X20882000Y-2030000I40000J0D01*
G01*
X20882000Y-2792000D02*
G75*
G02*
X20802000Y-2792000I-40000J0D01*
G01*
X20802000Y-2792000D02*
G75*
G02*
X20882000Y-2792000I40000J0D01*
G01*
X21060000Y-8132000D02*
G75*
G02*
X20980000Y-8132000I-40000J0D01*
G01*
X20980000Y-8132000D02*
G75*
G02*
X21060000Y-8132000I40000J0D01*
G01*
X21060000Y-9148000D02*
G75*
G02*
X20980000Y-9148000I-40000J0D01*
G01*
X20980000Y-9148000D02*
G75*
G02*
X21060000Y-9148000I40000J0D01*
G01*
X21136000Y-2030000D02*
G75*
G02*
X21056000Y-2030000I-40000J0D01*
G01*
X21056000Y-2030000D02*
G75*
G02*
X21136000Y-2030000I40000J0D01*
G01*
X21136000Y-2792000D02*
G75*
G02*
X21056000Y-2792000I-40000J0D01*
G01*
X21056000Y-2792000D02*
G75*
G02*
X21136000Y-2792000I40000J0D01*
G01*
X21323000Y-1480000D02*
G75*
G02*
X21243000Y-1480000I-40000J0D01*
G01*
X21243000Y-1480000D02*
G75*
G02*
X21323000Y-1480000I40000J0D01*
G01*
X21338000Y-5886000D02*
G75*
G02*
X21258000Y-5886000I-40000J0D01*
G01*
X21258000Y-5886000D02*
G75*
G02*
X21338000Y-5886000I40000J0D01*
G01*
X21338000Y-6140000D02*
G75*
G02*
X21258000Y-6140000I-40000J0D01*
G01*
X21258000Y-6140000D02*
G75*
G02*
X21338000Y-6140000I40000J0D01*
G01*
X21338000Y-6394000D02*
G75*
G02*
X21258000Y-6394000I-40000J0D01*
G01*
X21258000Y-6394000D02*
G75*
G02*
X21338000Y-6394000I40000J0D01*
G01*
X21338000Y-6648000D02*
G75*
G02*
X21258000Y-6648000I-40000J0D01*
G01*
X21258000Y-6648000D02*
G75*
G02*
X21338000Y-6648000I40000J0D01*
G01*
X21338000Y-6902000D02*
G75*
G02*
X21258000Y-6902000I-40000J0D01*
G01*
X21258000Y-6902000D02*
G75*
G02*
X21338000Y-6902000I40000J0D01*
G01*
X21338000Y-7156000D02*
G75*
G02*
X21258000Y-7156000I-40000J0D01*
G01*
X21258000Y-7156000D02*
G75*
G02*
X21338000Y-7156000I40000J0D01*
G01*
X21338000Y-7410000D02*
G75*
G02*
X21258000Y-7410000I-40000J0D01*
G01*
X21258000Y-7410000D02*
G75*
G02*
X21338000Y-7410000I40000J0D01*
G01*
X21338000Y-7664000D02*
G75*
G02*
X21258000Y-7664000I-40000J0D01*
G01*
X21258000Y-7664000D02*
G75*
G02*
X21338000Y-7664000I40000J0D01*
G01*
X21390000Y-2030000D02*
G75*
G02*
X21310000Y-2030000I-40000J0D01*
G01*
X21310000Y-2030000D02*
G75*
G02*
X21390000Y-2030000I40000J0D01*
G01*
X21390000Y-2792000D02*
G75*
G02*
X21310000Y-2792000I-40000J0D01*
G01*
X21310000Y-2792000D02*
G75*
G02*
X21390000Y-2792000I40000J0D01*
G01*
X21605000Y-5590000D02*
G75*
G02*
X21525000Y-5590000I-40000J0D01*
G01*
X21525000Y-5590000D02*
G75*
G02*
X21605000Y-5590000I40000J0D01*
G01*
X21607000Y-1750000D02*
G75*
G02*
X21527000Y-1750000I-40000J0D01*
G01*
X21527000Y-1750000D02*
G75*
G02*
X21607000Y-1750000I40000J0D01*
G01*
X21644000Y-2030000D02*
G75*
G02*
X21564000Y-2030000I-40000J0D01*
G01*
X21564000Y-2030000D02*
G75*
G02*
X21644000Y-2030000I40000J0D01*
G01*
X21644000Y-2792000D02*
G75*
G02*
X21564000Y-2792000I-40000J0D01*
G01*
X21564000Y-2792000D02*
G75*
G02*
X21644000Y-2792000I40000J0D01*
G01*
X21855000Y-5590000D02*
G75*
G02*
X21775000Y-5590000I-40000J0D01*
G01*
X21775000Y-5590000D02*
G75*
G02*
X21855000Y-5590000I40000J0D01*
G01*
X21857000Y-1400000D02*
G75*
G02*
X21777000Y-1400000I-40000J0D01*
G01*
X21777000Y-1400000D02*
G75*
G02*
X21857000Y-1400000I40000J0D01*
G01*
X21898000Y-2030000D02*
G75*
G02*
X21818000Y-2030000I-40000J0D01*
G01*
X21818000Y-2030000D02*
G75*
G02*
X21898000Y-2030000I40000J0D01*
G01*
X21898000Y-2792000D02*
G75*
G02*
X21818000Y-2792000I-40000J0D01*
G01*
X21818000Y-2792000D02*
G75*
G02*
X21898000Y-2792000I40000J0D01*
G01*
X22100000Y-5886000D02*
G75*
G02*
X22020000Y-5886000I-40000J0D01*
G01*
X22020000Y-5886000D02*
G75*
G02*
X22100000Y-5886000I40000J0D01*
G01*
X22100000Y-6140000D02*
G75*
G02*
X22020000Y-6140000I-40000J0D01*
G01*
X22020000Y-6140000D02*
G75*
G02*
X22100000Y-6140000I40000J0D01*
G01*
X22100000Y-6394000D02*
G75*
G02*
X22020000Y-6394000I-40000J0D01*
G01*
X22020000Y-6394000D02*
G75*
G02*
X22100000Y-6394000I40000J0D01*
G01*
X22100000Y-6648000D02*
G75*
G02*
X22020000Y-6648000I-40000J0D01*
G01*
X22020000Y-6648000D02*
G75*
G02*
X22100000Y-6648000I40000J0D01*
G01*
X22100000Y-6902000D02*
G75*
G02*
X22020000Y-6902000I-40000J0D01*
G01*
X22020000Y-6902000D02*
G75*
G02*
X22100000Y-6902000I40000J0D01*
G01*
X22100000Y-7156000D02*
G75*
G02*
X22020000Y-7156000I-40000J0D01*
G01*
X22020000Y-7156000D02*
G75*
G02*
X22100000Y-7156000I40000J0D01*
G01*
X22100000Y-7410000D02*
G75*
G02*
X22020000Y-7410000I-40000J0D01*
G01*
X22020000Y-7410000D02*
G75*
G02*
X22100000Y-7410000I40000J0D01*
G01*
X22100000Y-7664000D02*
G75*
G02*
X22020000Y-7664000I-40000J0D01*
G01*
X22020000Y-7664000D02*
G75*
G02*
X22100000Y-7664000I40000J0D01*
G01*
X22152000Y-2030000D02*
G75*
G02*
X22072000Y-2030000I-40000J0D01*
G01*
X22072000Y-2030000D02*
G75*
G02*
X22152000Y-2030000I40000J0D01*
G01*
X22152000Y-2792000D02*
G75*
G02*
X22072000Y-2792000I-40000J0D01*
G01*
X22072000Y-2792000D02*
G75*
G02*
X22152000Y-2792000I40000J0D01*
G01*
X22406000Y-2030000D02*
G75*
G02*
X22326000Y-2030000I-40000J0D01*
G01*
X22326000Y-2030000D02*
G75*
G02*
X22406000Y-2030000I40000J0D01*
G01*
X22406000Y-2792000D02*
G75*
G02*
X22326000Y-2792000I-40000J0D01*
G01*
X22326000Y-2792000D02*
G75*
G02*
X22406000Y-2792000I40000J0D01*
G01*
X22623000Y-1750000D02*
G75*
G02*
X22543000Y-1750000I-40000J0D01*
G01*
X22543000Y-1750000D02*
G75*
G02*
X22623000Y-1750000I40000J0D01*
G01*
X22660000Y-2030000D02*
G75*
G02*
X22580000Y-2030000I-40000J0D01*
G01*
X22580000Y-2030000D02*
G75*
G02*
X22660000Y-2030000I40000J0D01*
G01*
X22660000Y-2792000D02*
G75*
G02*
X22580000Y-2792000I-40000J0D01*
G01*
X22580000Y-2792000D02*
G75*
G02*
X22660000Y-2792000I40000J0D01*
G01*
X22792000Y-9560000D02*
G75*
G02*
X22712000Y-9560000I-40000J0D01*
G01*
X22712000Y-9560000D02*
G75*
G02*
X22792000Y-9560000I40000J0D01*
G01*
X22873000Y-1400000D02*
G75*
G02*
X22793000Y-1400000I-40000J0D01*
G01*
X22793000Y-1400000D02*
G75*
G02*
X22873000Y-1400000I40000J0D01*
G01*
X23260000Y-2792000D02*
G75*
G02*
X23180000Y-2792000I-40000J0D01*
G01*
X23180000Y-2792000D02*
G75*
G02*
X23260000Y-2792000I40000J0D01*
G01*
X23260000Y-3808000D02*
G75*
G02*
X23180000Y-3808000I-40000J0D01*
G01*
X23180000Y-3808000D02*
G75*
G02*
X23260000Y-3808000I40000J0D01*
G01*
X23808000Y-9560000D02*
G75*
G02*
X23728000Y-9560000I-40000J0D01*
G01*
X23728000Y-9560000D02*
G75*
G02*
X23808000Y-9560000I40000J0D01*
G01*
X20246000Y-4588000D02*
X20246000Y-4688000D01*
X20196000Y-4638000D02*
X20296000Y-4638000D01*
X20246000Y-4842000D02*
X20246000Y-4942000D01*
X20196000Y-4892000D02*
X20296000Y-4892000D01*
X20246000Y-5096000D02*
X20246000Y-5196000D01*
X20196000Y-5146000D02*
X20296000Y-5146000D01*
X20246000Y-5350000D02*
X20246000Y-5450000D01*
X20196000Y-5400000D02*
X20296000Y-5400000D01*
X20500000Y-4588000D02*
X20500000Y-4688000D01*
X20450000Y-4638000D02*
X20550000Y-4638000D01*
X20500000Y-4842000D02*
X20500000Y-4942000D01*
X20450000Y-4892000D02*
X20550000Y-4892000D01*
X20500000Y-5096000D02*
X20500000Y-5196000D01*
X20450000Y-5146000D02*
X20550000Y-5146000D01*
X20500000Y-5350000D02*
X20500000Y-5450000D01*
X20450000Y-5400000D02*
X20550000Y-5400000D01*
X20546000Y-9500000D02*
X20546000Y-9600000D01*
X20496000Y-9550000D02*
X20596000Y-9550000D01*
X20661511Y-150000D02*
X20661511Y-250000D01*
X20611511Y-200000D02*
X20711511Y-200000D01*
X20661511Y-404000D02*
X20661511Y-504000D01*
X20611511Y-454000D02*
X20711511Y-454000D01*
X20800000Y-9500000D02*
X20800000Y-9600000D01*
X20750000Y-9550000D02*
X20850000Y-9550000D01*
X20915511Y-150000D02*
X20915511Y-250000D01*
X20865511Y-200000D02*
X20965511Y-200000D01*
X20915511Y-404000D02*
X20915511Y-504000D01*
X20865511Y-454000D02*
X20965511Y-454000D01*
X21169511Y-150000D02*
X21169511Y-250000D01*
X21119511Y-200000D02*
X21219511Y-200000D01*
X21169511Y-404000D02*
X21169511Y-504000D01*
X21119511Y-454000D02*
X21219511Y-454000D01*
X21300000Y-9500000D02*
X21300000Y-9600000D01*
X21250000Y-9550000D02*
X21350000Y-9550000D01*
X21423511Y-150000D02*
X21423511Y-250000D01*
X21373511Y-200000D02*
X21473511Y-200000D01*
X21423511Y-404000D02*
X21423511Y-504000D01*
X21373511Y-454000D02*
X21473511Y-454000D01*
X21554000Y-9500000D02*
X21554000Y-9600000D01*
X21504000Y-9550000D02*
X21604000Y-9550000D01*
X21677511Y-150000D02*
X21677511Y-250000D01*
X21627511Y-200000D02*
X21727511Y-200000D01*
X21677511Y-404000D02*
X21677511Y-504000D01*
X21627511Y-454000D02*
X21727511Y-454000D01*
X21931511Y-150000D02*
X21931511Y-250000D01*
X21881511Y-200000D02*
X21981511Y-200000D01*
X21931511Y-404000D02*
X21931511Y-504000D01*
X21881511Y-454000D02*
X21981511Y-454000D01*
X21946000Y-9000000D02*
X21946000Y-9100000D01*
X21896000Y-9050000D02*
X21996000Y-9050000D01*
X21972500Y-9500000D02*
X21972500Y-9600000D01*
X21922500Y-9550000D02*
X22022500Y-9550000D01*
X22185511Y-150000D02*
X22185511Y-250000D01*
X22135511Y-200000D02*
X22235511Y-200000D01*
X22185511Y-404000D02*
X22185511Y-504000D01*
X22135511Y-454000D02*
X22235511Y-454000D01*
X22200000Y-9000000D02*
X22200000Y-9100000D01*
X22150000Y-9050000D02*
X22250000Y-9050000D01*
X22226500Y-9500000D02*
X22226500Y-9600000D01*
X22176500Y-9550000D02*
X22276500Y-9550000D01*
X22439511Y-150000D02*
X22439511Y-250000D01*
X22389511Y-200000D02*
X22489511Y-200000D01*
X22439511Y-404000D02*
X22439511Y-504000D01*
X22389511Y-454000D02*
X22489511Y-454000D01*
X22611080Y-4801400D02*
X22611080Y-4901400D01*
X22561080Y-4851400D02*
X22661080Y-4851400D01*
X22611080Y-5055400D02*
X22611080Y-5155400D01*
X22561080Y-5105400D02*
X22661080Y-5105400D01*
X22611080Y-5309400D02*
X22611080Y-5409400D01*
X22561080Y-5359400D02*
X22661080Y-5359400D01*
X22611080Y-5563400D02*
X22611080Y-5663400D01*
X22561080Y-5613400D02*
X22661080Y-5613400D01*
X22611080Y-5817400D02*
X22611080Y-5917400D01*
X22561080Y-5867400D02*
X22661080Y-5867400D01*
X22611080Y-6071400D02*
X22611080Y-6171400D01*
X22561080Y-6121400D02*
X22661080Y-6121400D01*
X22611080Y-6325400D02*
X22611080Y-6425400D01*
X22561080Y-6375400D02*
X22661080Y-6375400D01*
X22611080Y-6579400D02*
X22611080Y-6679400D01*
X22561080Y-6629400D02*
X22661080Y-6629400D01*
X22611080Y-6833400D02*
X22611080Y-6933400D01*
X22561080Y-6883400D02*
X22661080Y-6883400D01*
X22611080Y-7087400D02*
X22611080Y-7187400D01*
X22561080Y-7137400D02*
X22661080Y-7137400D01*
X22611080Y-7341400D02*
X22611080Y-7441400D01*
X22561080Y-7391400D02*
X22661080Y-7391400D01*
X22611080Y-7595400D02*
X22611080Y-7695400D01*
X22561080Y-7645400D02*
X22661080Y-7645400D01*
X22611080Y-7849400D02*
X22611080Y-7949400D01*
X22561080Y-7899400D02*
X22661080Y-7899400D01*
X22611080Y-8103400D02*
X22611080Y-8203400D01*
X22561080Y-8153400D02*
X22661080Y-8153400D01*
X22611080Y-8357400D02*
X22611080Y-8457400D01*
X22561080Y-8407400D02*
X22661080Y-8407400D01*
X22611080Y-8611400D02*
X22611080Y-8711400D01*
X22561080Y-8661400D02*
X22661080Y-8661400D01*
X22611080Y-8865400D02*
X22611080Y-8965400D01*
X22561080Y-8915400D02*
X22661080Y-8915400D01*
X22611080Y-9119400D02*
X22611080Y-9219400D01*
X22561080Y-9169400D02*
X22661080Y-9169400D01*
X22693511Y-150000D02*
X22693511Y-250000D01*
X22643511Y-200000D02*
X22743511Y-200000D01*
X22693511Y-404000D02*
X22693511Y-504000D01*
X22643511Y-454000D02*
X22743511Y-454000D01*
X22947511Y-150000D02*
X22947511Y-250000D01*
X22897511Y-200000D02*
X22997511Y-200000D01*
X22947511Y-404000D02*
X22947511Y-504000D01*
X22897511Y-454000D02*
X22997511Y-454000D01*
X23201511Y-150000D02*
X23201511Y-250000D01*
X23151511Y-200000D02*
X23251511Y-200000D01*
X23201511Y-404000D02*
X23201511Y-504000D01*
X23151511Y-454000D02*
X23251511Y-454000D01*
X23365444Y-4206500D02*
X23365444Y-4306500D01*
X23315444Y-4256500D02*
X23415444Y-4256500D01*
X23365444Y-4460500D02*
X23365444Y-4560500D01*
X23315444Y-4510500D02*
X23415444Y-4510500D01*
X23365444Y-4714500D02*
X23365444Y-4814500D01*
X23315444Y-4764500D02*
X23415444Y-4764500D01*
X23365444Y-4968500D02*
X23365444Y-5068500D01*
X23315444Y-5018500D02*
X23415444Y-5018500D01*
X23365444Y-5222500D02*
X23365444Y-5322500D01*
X23315444Y-5272500D02*
X23415444Y-5272500D01*
X23365444Y-5476500D02*
X23365444Y-5576500D01*
X23315444Y-5526500D02*
X23415444Y-5526500D01*
X23365444Y-5730500D02*
X23365444Y-5830500D01*
X23315444Y-5780500D02*
X23415444Y-5780500D01*
X23365444Y-5984500D02*
X23365444Y-6084500D01*
X23315444Y-6034500D02*
X23415444Y-6034500D01*
X23365444Y-6238500D02*
X23365444Y-6338500D01*
X23315444Y-6288500D02*
X23415444Y-6288500D01*
X23365444Y-6492500D02*
X23365444Y-6592500D01*
X23315444Y-6542500D02*
X23415444Y-6542500D01*
X23365444Y-6746500D02*
X23365444Y-6846500D01*
X23315444Y-6796500D02*
X23415444Y-6796500D01*
X23365444Y-7000500D02*
X23365444Y-7100500D01*
X23315444Y-7050500D02*
X23415444Y-7050500D01*
X23365444Y-7254500D02*
X23365444Y-7354500D01*
X23315444Y-7304500D02*
X23415444Y-7304500D01*
X23365444Y-7508500D02*
X23365444Y-7608500D01*
X23315444Y-7558500D02*
X23415444Y-7558500D01*
X23365444Y-7762500D02*
X23365444Y-7862500D01*
X23315444Y-7812500D02*
X23415444Y-7812500D01*
X23365444Y-8016500D02*
X23365444Y-8116500D01*
X23315444Y-8066500D02*
X23415444Y-8066500D01*
X23365444Y-8270500D02*
X23365444Y-8370500D01*
X23315444Y-8320500D02*
X23415444Y-8320500D01*
X23365444Y-8524500D02*
X23365444Y-8624500D01*
X23315444Y-8574500D02*
X23415444Y-8574500D01*
X23619444Y-4206500D02*
X23619444Y-4306500D01*
X23569444Y-4256500D02*
X23669444Y-4256500D01*
X23619444Y-4460500D02*
X23619444Y-4560500D01*
X23569444Y-4510500D02*
X23669444Y-4510500D01*
X23619444Y-4714500D02*
X23619444Y-4814500D01*
X23569444Y-4764500D02*
X23669444Y-4764500D01*
X23619444Y-4968500D02*
X23619444Y-5068500D01*
X23569444Y-5018500D02*
X23669444Y-5018500D01*
X23619444Y-5222500D02*
X23619444Y-5322500D01*
X23569444Y-5272500D02*
X23669444Y-5272500D01*
X23619444Y-5476500D02*
X23619444Y-5576500D01*
X23569444Y-5526500D02*
X23669444Y-5526500D01*
X23619444Y-5730500D02*
X23619444Y-5830500D01*
X23569444Y-5780500D02*
X23669444Y-5780500D01*
X23619444Y-5984500D02*
X23619444Y-6084500D01*
X23569444Y-6034500D02*
X23669444Y-6034500D01*
X23619444Y-6238500D02*
X23619444Y-6338500D01*
X23569444Y-6288500D02*
X23669444Y-6288500D01*
X23619444Y-6492500D02*
X23619444Y-6592500D01*
X23569444Y-6542500D02*
X23669444Y-6542500D01*
X23619444Y-6746500D02*
X23619444Y-6846500D01*
X23569444Y-6796500D02*
X23669444Y-6796500D01*
X23619444Y-7000500D02*
X23619444Y-7100500D01*
X23569444Y-7050500D02*
X23669444Y-7050500D01*
X23619444Y-7254500D02*
X23619444Y-7354500D01*
X23569444Y-7304500D02*
X23669444Y-7304500D01*
X23619444Y-7508500D02*
X23619444Y-7608500D01*
X23569444Y-7558500D02*
X23669444Y-7558500D01*
X23619444Y-7762500D02*
X23619444Y-7862500D01*
X23569444Y-7812500D02*
X23669444Y-7812500D01*
X23619444Y-8016500D02*
X23619444Y-8116500D01*
X23569444Y-8066500D02*
X23669444Y-8066500D01*
X23619444Y-8270500D02*
X23619444Y-8370500D01*
X23569444Y-8320500D02*
X23669444Y-8320500D01*
X23619444Y-8524500D02*
X23619444Y-8624500D01*
X23569444Y-8574500D02*
X23669444Y-8574500D01*
X23693000Y-1212500D02*
X23693000Y-1312500D01*
X23643000Y-1262500D02*
X23743000Y-1262500D01*
X23693000Y-1466500D02*
X23693000Y-1566500D01*
X23643000Y-1516500D02*
X23743000Y-1516500D01*
X23693000Y-1720500D02*
X23693000Y-1820500D01*
X23643000Y-1770500D02*
X23743000Y-1770500D01*
X23693000Y-1974500D02*
X23693000Y-2074500D01*
X23643000Y-2024500D02*
X23743000Y-2024500D01*
X23693000Y-2228500D02*
X23693000Y-2328500D01*
X23643000Y-2278500D02*
X23743000Y-2278500D01*
X23693000Y-2482500D02*
X23693000Y-2582500D01*
X23643000Y-2532500D02*
X23743000Y-2532500D01*
X23693000Y-2736500D02*
X23693000Y-2836500D01*
X23643000Y-2786500D02*
X23743000Y-2786500D01*
X23693000Y-2990500D02*
X23693000Y-3090500D01*
X23643000Y-3040500D02*
X23743000Y-3040500D01*
X23873444Y-4206500D02*
X23873444Y-4306500D01*
X23823444Y-4256500D02*
X23923444Y-4256500D01*
X23873444Y-4460500D02*
X23873444Y-4560500D01*
X23823444Y-4510500D02*
X23923444Y-4510500D01*
X23873444Y-4714500D02*
X23873444Y-4814500D01*
X23823444Y-4764500D02*
X23923444Y-4764500D01*
X23873444Y-4968500D02*
X23873444Y-5068500D01*
X23823444Y-5018500D02*
X23923444Y-5018500D01*
X23873444Y-5222500D02*
X23873444Y-5322500D01*
X23823444Y-5272500D02*
X23923444Y-5272500D01*
X23873444Y-5476500D02*
X23873444Y-5576500D01*
X23823444Y-5526500D02*
X23923444Y-5526500D01*
X23873444Y-5730500D02*
X23873444Y-5830500D01*
X23823444Y-5780500D02*
X23923444Y-5780500D01*
X23873444Y-5984500D02*
X23873444Y-6084500D01*
X23823444Y-6034500D02*
X23923444Y-6034500D01*
X23873444Y-6238500D02*
X23873444Y-6338500D01*
X23823444Y-6288500D02*
X23923444Y-6288500D01*
X23873444Y-6492500D02*
X23873444Y-6592500D01*
X23823444Y-6542500D02*
X23923444Y-6542500D01*
X23873444Y-6746500D02*
X23873444Y-6846500D01*
X23823444Y-6796500D02*
X23923444Y-6796500D01*
X23873444Y-7000500D02*
X23873444Y-7100500D01*
X23823444Y-7050500D02*
X23923444Y-7050500D01*
X23873444Y-7254500D02*
X23873444Y-7354500D01*
X23823444Y-7304500D02*
X23923444Y-7304500D01*
X23873444Y-7508500D02*
X23873444Y-7608500D01*
X23823444Y-7558500D02*
X23923444Y-7558500D01*
X23873444Y-7762500D02*
X23873444Y-7862500D01*
X23823444Y-7812500D02*
X23923444Y-7812500D01*
X23873444Y-8016500D02*
X23873444Y-8116500D01*
X23823444Y-8066500D02*
X23923444Y-8066500D01*
X23873444Y-8270500D02*
X23873444Y-8370500D01*
X23823444Y-8320500D02*
X23923444Y-8320500D01*
X23873444Y-8524500D02*
X23873444Y-8624500D01*
X23823444Y-8574500D02*
X23923444Y-8574500D01*
X23947000Y-1212500D02*
X23947000Y-1312500D01*
X23897000Y-1262500D02*
X23997000Y-1262500D01*
X23947000Y-1466500D02*
X23947000Y-1566500D01*
X23897000Y-1516500D02*
X23997000Y-1516500D01*
X23947000Y-1720500D02*
X23947000Y-1820500D01*
X23897000Y-1770500D02*
X23997000Y-1770500D01*
X23947000Y-1974500D02*
X23947000Y-2074500D01*
X23897000Y-2024500D02*
X23997000Y-2024500D01*
X23947000Y-2228500D02*
X23947000Y-2328500D01*
X23897000Y-2278500D02*
X23997000Y-2278500D01*
X23947000Y-2482500D02*
X23947000Y-2582500D01*
X23897000Y-2532500D02*
X23997000Y-2532500D01*
X23947000Y-2736500D02*
X23947000Y-2836500D01*
X23897000Y-2786500D02*
X23997000Y-2786500D01*
X23947000Y-2990500D02*
X23947000Y-3090500D01*
X23897000Y-3040500D02*
X23997000Y-3040500D01*
X24127444Y-4206500D02*
X24127444Y-4306500D01*
X24077444Y-4256500D02*
X24177444Y-4256500D01*
X24127444Y-4460500D02*
X24127444Y-4560500D01*
X24077444Y-4510500D02*
X24177444Y-4510500D01*
X24127444Y-4714500D02*
X24127444Y-4814500D01*
X24077444Y-4764500D02*
X24177444Y-4764500D01*
X24127444Y-4968500D02*
X24127444Y-5068500D01*
X24077444Y-5018500D02*
X24177444Y-5018500D01*
X24127444Y-5222500D02*
X24127444Y-5322500D01*
X24077444Y-5272500D02*
X24177444Y-5272500D01*
X24127444Y-5476500D02*
X24127444Y-5576500D01*
X24077444Y-5526500D02*
X24177444Y-5526500D01*
X24127444Y-5730500D02*
X24127444Y-5830500D01*
X24077444Y-5780500D02*
X24177444Y-5780500D01*
X24127444Y-5984500D02*
X24127444Y-6084500D01*
X24077444Y-6034500D02*
X24177444Y-6034500D01*
X24127444Y-6238500D02*
X24127444Y-6338500D01*
X24077444Y-6288500D02*
X24177444Y-6288500D01*
X24127444Y-6492500D02*
X24127444Y-6592500D01*
X24077444Y-6542500D02*
X24177444Y-6542500D01*
X24127444Y-6746500D02*
X24127444Y-6846500D01*
X24077444Y-6796500D02*
X24177444Y-6796500D01*
X24127444Y-7000500D02*
X24127444Y-7100500D01*
X24077444Y-7050500D02*
X24177444Y-7050500D01*
X24127444Y-7254500D02*
X24127444Y-7354500D01*
X24077444Y-7304500D02*
X24177444Y-7304500D01*
X24127444Y-7508500D02*
X24127444Y-7608500D01*
X24077444Y-7558500D02*
X24177444Y-7558500D01*
X24127444Y-7762500D02*
X24127444Y-7862500D01*
X24077444Y-7812500D02*
X24177444Y-7812500D01*
X24127444Y-8016500D02*
X24127444Y-8116500D01*
X24077444Y-8066500D02*
X24177444Y-8066500D01*
X24127444Y-8270500D02*
X24127444Y-8370500D01*
X24077444Y-8320500D02*
X24177444Y-8320500D01*
X24127444Y-8524500D02*
X24127444Y-8624500D01*
X24077444Y-8574500D02*
X24177444Y-8574500D01*
X24201000Y-1212500D02*
X24201000Y-1312500D01*
X24151000Y-1262500D02*
X24251000Y-1262500D01*
X24201000Y-1466500D02*
X24201000Y-1566500D01*
X24151000Y-1516500D02*
X24251000Y-1516500D01*
X24201000Y-1720500D02*
X24201000Y-1820500D01*
X24151000Y-1770500D02*
X24251000Y-1770500D01*
X24201000Y-1974500D02*
X24201000Y-2074500D01*
X24151000Y-2024500D02*
X24251000Y-2024500D01*
X24201000Y-2228500D02*
X24201000Y-2328500D01*
X24151000Y-2278500D02*
X24251000Y-2278500D01*
X24201000Y-2482500D02*
X24201000Y-2582500D01*
X24151000Y-2532500D02*
X24251000Y-2532500D01*
X24201000Y-2736500D02*
X24201000Y-2836500D01*
X24151000Y-2786500D02*
X24251000Y-2786500D01*
X24201000Y-2990500D02*
X24201000Y-3090500D01*
X24151000Y-3040500D02*
X24251000Y-3040500D01*
X24381444Y-4206500D02*
X24381444Y-4306500D01*
X24331444Y-4256500D02*
X24431444Y-4256500D01*
X24381444Y-4460500D02*
X24381444Y-4560500D01*
X24331444Y-4510500D02*
X24431444Y-4510500D01*
X24381444Y-4714500D02*
X24381444Y-4814500D01*
X24331444Y-4764500D02*
X24431444Y-4764500D01*
X24381444Y-4968500D02*
X24381444Y-5068500D01*
X24331444Y-5018500D02*
X24431444Y-5018500D01*
X24381444Y-5222500D02*
X24381444Y-5322500D01*
X24331444Y-5272500D02*
X24431444Y-5272500D01*
X24381444Y-5476500D02*
X24381444Y-5576500D01*
X24331444Y-5526500D02*
X24431444Y-5526500D01*
X24381444Y-5730500D02*
X24381444Y-5830500D01*
X24331444Y-5780500D02*
X24431444Y-5780500D01*
X24381444Y-5984500D02*
X24381444Y-6084500D01*
X24331444Y-6034500D02*
X24431444Y-6034500D01*
X24381444Y-6238500D02*
X24381444Y-6338500D01*
X24331444Y-6288500D02*
X24431444Y-6288500D01*
X24381444Y-6492500D02*
X24381444Y-6592500D01*
X24331444Y-6542500D02*
X24431444Y-6542500D01*
X24381444Y-6746500D02*
X24381444Y-6846500D01*
X24331444Y-6796500D02*
X24431444Y-6796500D01*
X24381444Y-7000500D02*
X24381444Y-7100500D01*
X24331444Y-7050500D02*
X24431444Y-7050500D01*
X24381444Y-7254500D02*
X24381444Y-7354500D01*
X24331444Y-7304500D02*
X24431444Y-7304500D01*
X24381444Y-7508500D02*
X24381444Y-7608500D01*
X24331444Y-7558500D02*
X24431444Y-7558500D01*
X24381444Y-7762500D02*
X24381444Y-7862500D01*
X24331444Y-7812500D02*
X24431444Y-7812500D01*
X24381444Y-8016500D02*
X24381444Y-8116500D01*
X24331444Y-8066500D02*
X24431444Y-8066500D01*
X24381444Y-8270500D02*
X24381444Y-8370500D01*
X24331444Y-8320500D02*
X24431444Y-8320500D01*
X24381444Y-8524500D02*
X24381444Y-8624500D01*
X24331444Y-8574500D02*
X24431444Y-8574500D01*
X24455000Y-1212500D02*
X24455000Y-1312500D01*
X24405000Y-1262500D02*
X24505000Y-1262500D01*
X24455000Y-1466500D02*
X24455000Y-1566500D01*
X24405000Y-1516500D02*
X24505000Y-1516500D01*
X24455000Y-1720500D02*
X24455000Y-1820500D01*
X24405000Y-1770500D02*
X24505000Y-1770500D01*
X24455000Y-1974500D02*
X24455000Y-2074500D01*
X24405000Y-2024500D02*
X24505000Y-2024500D01*
X24455000Y-2228500D02*
X24455000Y-2328500D01*
X24405000Y-2278500D02*
X24505000Y-2278500D01*
X24455000Y-2482500D02*
X24455000Y-2582500D01*
X24405000Y-2532500D02*
X24505000Y-2532500D01*
X24455000Y-2736500D02*
X24455000Y-2836500D01*
X24405000Y-2786500D02*
X24505000Y-2786500D01*
X24455000Y-2990500D02*
X24455000Y-3090500D01*
X24405000Y-3040500D02*
X24505000Y-3040500D01*
X24635444Y-4206500D02*
X24635444Y-4306500D01*
X24585444Y-4256500D02*
X24685444Y-4256500D01*
X24635444Y-4460500D02*
X24635444Y-4560500D01*
X24585444Y-4510500D02*
X24685444Y-4510500D01*
X24635444Y-4714500D02*
X24635444Y-4814500D01*
X24585444Y-4764500D02*
X24685444Y-4764500D01*
X24635444Y-4968500D02*
X24635444Y-5068500D01*
X24585444Y-5018500D02*
X24685444Y-5018500D01*
X24635444Y-5222500D02*
X24635444Y-5322500D01*
X24585444Y-5272500D02*
X24685444Y-5272500D01*
X24635444Y-5476500D02*
X24635444Y-5576500D01*
X24585444Y-5526500D02*
X24685444Y-5526500D01*
X24635444Y-5730500D02*
X24635444Y-5830500D01*
X24585444Y-5780500D02*
X24685444Y-5780500D01*
X24635444Y-5984500D02*
X24635444Y-6084500D01*
X24585444Y-6034500D02*
X24685444Y-6034500D01*
X24635444Y-6238500D02*
X24635444Y-6338500D01*
X24585444Y-6288500D02*
X24685444Y-6288500D01*
X24635444Y-6492500D02*
X24635444Y-6592500D01*
X24585444Y-6542500D02*
X24685444Y-6542500D01*
X24635444Y-6746500D02*
X24635444Y-6846500D01*
X24585444Y-6796500D02*
X24685444Y-6796500D01*
X24635444Y-7000500D02*
X24635444Y-7100500D01*
X24585444Y-7050500D02*
X24685444Y-7050500D01*
X24635444Y-7254500D02*
X24635444Y-7354500D01*
X24585444Y-7304500D02*
X24685444Y-7304500D01*
X24635444Y-7508500D02*
X24635444Y-7608500D01*
X24585444Y-7558500D02*
X24685444Y-7558500D01*
X24635444Y-7762500D02*
X24635444Y-7862500D01*
X24585444Y-7812500D02*
X24685444Y-7812500D01*
X24635444Y-8016500D02*
X24635444Y-8116500D01*
X24585444Y-8066500D02*
X24685444Y-8066500D01*
X24635444Y-8270500D02*
X24635444Y-8370500D01*
X24585444Y-8320500D02*
X24685444Y-8320500D01*
X24635444Y-8524500D02*
X24635444Y-8624500D01*
X24585444Y-8574500D02*
X24685444Y-8574500D01*
X24709000Y-1212500D02*
X24709000Y-1312500D01*
X24659000Y-1262500D02*
X24759000Y-1262500D01*
X24709000Y-1466500D02*
X24709000Y-1566500D01*
X24659000Y-1516500D02*
X24759000Y-1516500D01*
X24709000Y-1720500D02*
X24709000Y-1820500D01*
X24659000Y-1770500D02*
X24759000Y-1770500D01*
X24709000Y-1974500D02*
X24709000Y-2074500D01*
X24659000Y-2024500D02*
X24759000Y-2024500D01*
X24709000Y-2228500D02*
X24709000Y-2328500D01*
X24659000Y-2278500D02*
X24759000Y-2278500D01*
X24709000Y-2482500D02*
X24709000Y-2582500D01*
X24659000Y-2532500D02*
X24759000Y-2532500D01*
X24709000Y-2736500D02*
X24709000Y-2836500D01*
X24659000Y-2786500D02*
X24759000Y-2786500D01*
X24709000Y-2990500D02*
X24709000Y-3090500D01*
X24659000Y-3040500D02*
X24759000Y-3040500D01*
X24889444Y-4206500D02*
X24889444Y-4306500D01*
X24839444Y-4256500D02*
X24939444Y-4256500D01*
X24889444Y-4460500D02*
X24889444Y-4560500D01*
X24839444Y-4510500D02*
X24939444Y-4510500D01*
X24889444Y-4714500D02*
X24889444Y-4814500D01*
X24839444Y-4764500D02*
X24939444Y-4764500D01*
X24889444Y-4968500D02*
X24889444Y-5068500D01*
X24839444Y-5018500D02*
X24939444Y-5018500D01*
X24889444Y-5222500D02*
X24889444Y-5322500D01*
X24839444Y-5272500D02*
X24939444Y-5272500D01*
X24889444Y-5476500D02*
X24889444Y-5576500D01*
X24839444Y-5526500D02*
X24939444Y-5526500D01*
X24889444Y-5730500D02*
X24889444Y-5830500D01*
X24839444Y-5780500D02*
X24939444Y-5780500D01*
X24889444Y-5984500D02*
X24889444Y-6084500D01*
X24839444Y-6034500D02*
X24939444Y-6034500D01*
X24889444Y-6238500D02*
X24889444Y-6338500D01*
X24839444Y-6288500D02*
X24939444Y-6288500D01*
X24889444Y-6492500D02*
X24889444Y-6592500D01*
X24839444Y-6542500D02*
X24939444Y-6542500D01*
X24889444Y-6746500D02*
X24889444Y-6846500D01*
X24839444Y-6796500D02*
X24939444Y-6796500D01*
X24889444Y-7000500D02*
X24889444Y-7100500D01*
X24839444Y-7050500D02*
X24939444Y-7050500D01*
X24889444Y-7254500D02*
X24889444Y-7354500D01*
X24839444Y-7304500D02*
X24939444Y-7304500D01*
X24889444Y-7508500D02*
X24889444Y-7608500D01*
X24839444Y-7558500D02*
X24939444Y-7558500D01*
X24889444Y-7762500D02*
X24889444Y-7862500D01*
X24839444Y-7812500D02*
X24939444Y-7812500D01*
X24889444Y-8016500D02*
X24889444Y-8116500D01*
X24839444Y-8066500D02*
X24939444Y-8066500D01*
X24889444Y-8270500D02*
X24889444Y-8370500D01*
X24839444Y-8320500D02*
X24939444Y-8320500D01*
X24889444Y-8524500D02*
X24889444Y-8624500D01*
X24839444Y-8574500D02*
X24939444Y-8574500D01*
X24963000Y-1212500D02*
X24963000Y-1312500D01*
X24913000Y-1262500D02*
X25013000Y-1262500D01*
X24963000Y-1466500D02*
X24963000Y-1566500D01*
X24913000Y-1516500D02*
X25013000Y-1516500D01*
X24963000Y-1720500D02*
X24963000Y-1820500D01*
X24913000Y-1770500D02*
X25013000Y-1770500D01*
X24963000Y-1974500D02*
X24963000Y-2074500D01*
X24913000Y-2024500D02*
X25013000Y-2024500D01*
X24963000Y-2228500D02*
X24963000Y-2328500D01*
X24913000Y-2278500D02*
X25013000Y-2278500D01*
X24963000Y-2482500D02*
X24963000Y-2582500D01*
X24913000Y-2532500D02*
X25013000Y-2532500D01*
X24963000Y-2736500D02*
X24963000Y-2836500D01*
X24913000Y-2786500D02*
X25013000Y-2786500D01*
X24963000Y-2990500D02*
X24963000Y-3090500D01*
X24913000Y-3040500D02*
X25013000Y-3040500D01*
X25143444Y-4206500D02*
X25143444Y-4306500D01*
X25093444Y-4256500D02*
X25193444Y-4256500D01*
X25143444Y-4460500D02*
X25143444Y-4560500D01*
X25093444Y-4510500D02*
X25193444Y-4510500D01*
X25143444Y-4714500D02*
X25143444Y-4814500D01*
X25093444Y-4764500D02*
X25193444Y-4764500D01*
X25143444Y-4968500D02*
X25143444Y-5068500D01*
X25093444Y-5018500D02*
X25193444Y-5018500D01*
X25143444Y-5222500D02*
X25143444Y-5322500D01*
X25093444Y-5272500D02*
X25193444Y-5272500D01*
X25143444Y-5476500D02*
X25143444Y-5576500D01*
X25093444Y-5526500D02*
X25193444Y-5526500D01*
X25143444Y-5730500D02*
X25143444Y-5830500D01*
X25093444Y-5780500D02*
X25193444Y-5780500D01*
X25143444Y-5984500D02*
X25143444Y-6084500D01*
X25093444Y-6034500D02*
X25193444Y-6034500D01*
X25143444Y-6238500D02*
X25143444Y-6338500D01*
X25093444Y-6288500D02*
X25193444Y-6288500D01*
X25143444Y-6492500D02*
X25143444Y-6592500D01*
X25093444Y-6542500D02*
X25193444Y-6542500D01*
X25143444Y-6746500D02*
X25143444Y-6846500D01*
X25093444Y-6796500D02*
X25193444Y-6796500D01*
X25143444Y-7000500D02*
X25143444Y-7100500D01*
X25093444Y-7050500D02*
X25193444Y-7050500D01*
X25143444Y-7254500D02*
X25143444Y-7354500D01*
X25093444Y-7304500D02*
X25193444Y-7304500D01*
X25143444Y-7508500D02*
X25143444Y-7608500D01*
X25093444Y-7558500D02*
X25193444Y-7558500D01*
X25143444Y-7762500D02*
X25143444Y-7862500D01*
X25093444Y-7812500D02*
X25193444Y-7812500D01*
X25143444Y-8016500D02*
X25143444Y-8116500D01*
X25093444Y-8066500D02*
X25193444Y-8066500D01*
X25143444Y-8270500D02*
X25143444Y-8370500D01*
X25093444Y-8320500D02*
X25193444Y-8320500D01*
X25143444Y-8524500D02*
X25143444Y-8624500D01*
X25093444Y-8574500D02*
X25193444Y-8574500D01*
X25217000Y-1212500D02*
X25217000Y-1312500D01*
X25167000Y-1262500D02*
X25267000Y-1262500D01*
X25217000Y-1466500D02*
X25217000Y-1566500D01*
X25167000Y-1516500D02*
X25267000Y-1516500D01*
X25217000Y-1720500D02*
X25217000Y-1820500D01*
X25167000Y-1770500D02*
X25267000Y-1770500D01*
X25217000Y-1974500D02*
X25217000Y-2074500D01*
X25167000Y-2024500D02*
X25267000Y-2024500D01*
X25217000Y-2228500D02*
X25217000Y-2328500D01*
X25167000Y-2278500D02*
X25267000Y-2278500D01*
X25217000Y-2482500D02*
X25217000Y-2582500D01*
X25167000Y-2532500D02*
X25267000Y-2532500D01*
X25217000Y-2736500D02*
X25217000Y-2836500D01*
X25167000Y-2786500D02*
X25267000Y-2786500D01*
X25217000Y-2990500D02*
X25217000Y-3090500D01*
X25167000Y-3040500D02*
X25267000Y-3040500D01*
X25397444Y-4206500D02*
X25397444Y-4306500D01*
X25347444Y-4256500D02*
X25447444Y-4256500D01*
X25397444Y-4460500D02*
X25397444Y-4560500D01*
X25347444Y-4510500D02*
X25447444Y-4510500D01*
X25397444Y-4714500D02*
X25397444Y-4814500D01*
X25347444Y-4764500D02*
X25447444Y-4764500D01*
X25397444Y-4968500D02*
X25397444Y-5068500D01*
X25347444Y-5018500D02*
X25447444Y-5018500D01*
X25397444Y-5222500D02*
X25397444Y-5322500D01*
X25347444Y-5272500D02*
X25447444Y-5272500D01*
X25397444Y-5476500D02*
X25397444Y-5576500D01*
X25347444Y-5526500D02*
X25447444Y-5526500D01*
X25397444Y-5730500D02*
X25397444Y-5830500D01*
X25347444Y-5780500D02*
X25447444Y-5780500D01*
X25397444Y-5984500D02*
X25397444Y-6084500D01*
X25347444Y-6034500D02*
X25447444Y-6034500D01*
X25397444Y-6238500D02*
X25397444Y-6338500D01*
X25347444Y-6288500D02*
X25447444Y-6288500D01*
X25397444Y-6492500D02*
X25397444Y-6592500D01*
X25347444Y-6542500D02*
X25447444Y-6542500D01*
X25397444Y-6746500D02*
X25397444Y-6846500D01*
X25347444Y-6796500D02*
X25447444Y-6796500D01*
X25397444Y-7000500D02*
X25397444Y-7100500D01*
X25347444Y-7050500D02*
X25447444Y-7050500D01*
X25397444Y-7254500D02*
X25397444Y-7354500D01*
X25347444Y-7304500D02*
X25447444Y-7304500D01*
X25397444Y-7508500D02*
X25397444Y-7608500D01*
X25347444Y-7558500D02*
X25447444Y-7558500D01*
X25397444Y-7762500D02*
X25397444Y-7862500D01*
X25347444Y-7812500D02*
X25447444Y-7812500D01*
X25397444Y-8016500D02*
X25397444Y-8116500D01*
X25347444Y-8066500D02*
X25447444Y-8066500D01*
X25397444Y-8270500D02*
X25397444Y-8370500D01*
X25347444Y-8320500D02*
X25447444Y-8320500D01*
X25397444Y-8524500D02*
X25397444Y-8624500D01*
X25347444Y-8574500D02*
X25447444Y-8574500D01*
X25471000Y-1212500D02*
X25471000Y-1312500D01*
X25421000Y-1262500D02*
X25521000Y-1262500D01*
X25471000Y-1466500D02*
X25471000Y-1566500D01*
X25421000Y-1516500D02*
X25521000Y-1516500D01*
X25471000Y-1720500D02*
X25471000Y-1820500D01*
X25421000Y-1770500D02*
X25521000Y-1770500D01*
X25471000Y-1974500D02*
X25471000Y-2074500D01*
X25421000Y-2024500D02*
X25521000Y-2024500D01*
X25471000Y-2228500D02*
X25471000Y-2328500D01*
X25421000Y-2278500D02*
X25521000Y-2278500D01*
X25471000Y-2482500D02*
X25471000Y-2582500D01*
X25421000Y-2532500D02*
X25521000Y-2532500D01*
X25471000Y-2736500D02*
X25471000Y-2836500D01*
X25421000Y-2786500D02*
X25521000Y-2786500D01*
X25471000Y-2990500D02*
X25471000Y-3090500D01*
X25421000Y-3040500D02*
X25521000Y-3040500D01*
X25651444Y-4206500D02*
X25651444Y-4306500D01*
X25601444Y-4256500D02*
X25701444Y-4256500D01*
X25651444Y-4460500D02*
X25651444Y-4560500D01*
X25601444Y-4510500D02*
X25701444Y-4510500D01*
X25651444Y-4714500D02*
X25651444Y-4814500D01*
X25601444Y-4764500D02*
X25701444Y-4764500D01*
X25651444Y-4968500D02*
X25651444Y-5068500D01*
X25601444Y-5018500D02*
X25701444Y-5018500D01*
X25651444Y-5222500D02*
X25651444Y-5322500D01*
X25601444Y-5272500D02*
X25701444Y-5272500D01*
X25651444Y-5476500D02*
X25651444Y-5576500D01*
X25601444Y-5526500D02*
X25701444Y-5526500D01*
X25651444Y-5730500D02*
X25651444Y-5830500D01*
X25601444Y-5780500D02*
X25701444Y-5780500D01*
X25651444Y-5984500D02*
X25651444Y-6084500D01*
X25601444Y-6034500D02*
X25701444Y-6034500D01*
X25651444Y-6238500D02*
X25651444Y-6338500D01*
X25601444Y-6288500D02*
X25701444Y-6288500D01*
X25651444Y-6492500D02*
X25651444Y-6592500D01*
X25601444Y-6542500D02*
X25701444Y-6542500D01*
X25651444Y-6746500D02*
X25651444Y-6846500D01*
X25601444Y-6796500D02*
X25701444Y-6796500D01*
X25651444Y-7000500D02*
X25651444Y-7100500D01*
X25601444Y-7050500D02*
X25701444Y-7050500D01*
X25651444Y-7254500D02*
X25651444Y-7354500D01*
X25601444Y-7304500D02*
X25701444Y-7304500D01*
X25651444Y-7508500D02*
X25651444Y-7608500D01*
X25601444Y-7558500D02*
X25701444Y-7558500D01*
X25651444Y-7762500D02*
X25651444Y-7862500D01*
X25601444Y-7812500D02*
X25701444Y-7812500D01*
X25651444Y-8016500D02*
X25651444Y-8116500D01*
X25601444Y-8066500D02*
X25701444Y-8066500D01*
X25651444Y-8270500D02*
X25651444Y-8370500D01*
X25601444Y-8320500D02*
X25701444Y-8320500D01*
X25651444Y-8524500D02*
X25651444Y-8624500D01*
X25601444Y-8574500D02*
X25701444Y-8574500D01*
X25725000Y-1212500D02*
X25725000Y-1312500D01*
X25675000Y-1262500D02*
X25775000Y-1262500D01*
X25725000Y-1466500D02*
X25725000Y-1566500D01*
X25675000Y-1516500D02*
X25775000Y-1516500D01*
X25725000Y-1720500D02*
X25725000Y-1820500D01*
X25675000Y-1770500D02*
X25775000Y-1770500D01*
X25725000Y-1974500D02*
X25725000Y-2074500D01*
X25675000Y-2024500D02*
X25775000Y-2024500D01*
X25725000Y-2228500D02*
X25725000Y-2328500D01*
X25675000Y-2278500D02*
X25775000Y-2278500D01*
X25725000Y-2482500D02*
X25725000Y-2582500D01*
X25675000Y-2532500D02*
X25775000Y-2532500D01*
X25725000Y-2736500D02*
X25725000Y-2836500D01*
X25675000Y-2786500D02*
X25775000Y-2786500D01*
X25725000Y-2990500D02*
X25725000Y-3090500D01*
X25675000Y-3040500D02*
X25775000Y-3040500D01*
X25905444Y-4206500D02*
X25905444Y-4306500D01*
X25855444Y-4256500D02*
X25955444Y-4256500D01*
X25905444Y-4460500D02*
X25905444Y-4560500D01*
X25855444Y-4510500D02*
X25955444Y-4510500D01*
X25905444Y-4714500D02*
X25905444Y-4814500D01*
X25855444Y-4764500D02*
X25955444Y-4764500D01*
X25905444Y-4968500D02*
X25905444Y-5068500D01*
X25855444Y-5018500D02*
X25955444Y-5018500D01*
X25905444Y-5222500D02*
X25905444Y-5322500D01*
X25855444Y-5272500D02*
X25955444Y-5272500D01*
X25905444Y-5476500D02*
X25905444Y-5576500D01*
X25855444Y-5526500D02*
X25955444Y-5526500D01*
X25905444Y-5730500D02*
X25905444Y-5830500D01*
X25855444Y-5780500D02*
X25955444Y-5780500D01*
X25905444Y-5984500D02*
X25905444Y-6084500D01*
X25855444Y-6034500D02*
X25955444Y-6034500D01*
X25905444Y-6238500D02*
X25905444Y-6338500D01*
X25855444Y-6288500D02*
X25955444Y-6288500D01*
X25905444Y-6492500D02*
X25905444Y-6592500D01*
X25855444Y-6542500D02*
X25955444Y-6542500D01*
X25905444Y-6746500D02*
X25905444Y-6846500D01*
X25855444Y-6796500D02*
X25955444Y-6796500D01*
X25905444Y-7000500D02*
X25905444Y-7100500D01*
X25855444Y-7050500D02*
X25955444Y-7050500D01*
X25905444Y-7254500D02*
X25905444Y-7354500D01*
X25855444Y-7304500D02*
X25955444Y-7304500D01*
X25905444Y-7508500D02*
X25905444Y-7608500D01*
X25855444Y-7558500D02*
X25955444Y-7558500D01*
X25905444Y-7762500D02*
X25905444Y-7862500D01*
X25855444Y-7812500D02*
X25955444Y-7812500D01*
X25905444Y-8016500D02*
X25905444Y-8116500D01*
X25855444Y-8066500D02*
X25955444Y-8066500D01*
X25905444Y-8270500D02*
X25905444Y-8370500D01*
X25855444Y-8320500D02*
X25955444Y-8320500D01*
X25905444Y-8524500D02*
X25905444Y-8624500D01*
X25855444Y-8574500D02*
X25955444Y-8574500D01*
X25979000Y-1212500D02*
X25979000Y-1312500D01*
X25929000Y-1262500D02*
X26029000Y-1262500D01*
X25979000Y-1466500D02*
X25979000Y-1566500D01*
X25929000Y-1516500D02*
X26029000Y-1516500D01*
X25979000Y-1720500D02*
X25979000Y-1820500D01*
X25929000Y-1770500D02*
X26029000Y-1770500D01*
X25979000Y-1974500D02*
X25979000Y-2074500D01*
X25929000Y-2024500D02*
X26029000Y-2024500D01*
X25979000Y-2228500D02*
X25979000Y-2328500D01*
X25929000Y-2278500D02*
X26029000Y-2278500D01*
X25979000Y-2482500D02*
X25979000Y-2582500D01*
X25929000Y-2532500D02*
X26029000Y-2532500D01*
X25979000Y-2736500D02*
X25979000Y-2836500D01*
X25929000Y-2786500D02*
X26029000Y-2786500D01*
X25979000Y-2990500D02*
X25979000Y-3090500D01*
X25929000Y-3040500D02*
X26029000Y-3040500D01*
X26159444Y-4206500D02*
X26159444Y-4306500D01*
X26109444Y-4256500D02*
X26209444Y-4256500D01*
X26159444Y-4460500D02*
X26159444Y-4560500D01*
X26109444Y-4510500D02*
X26209444Y-4510500D01*
X26159444Y-4714500D02*
X26159444Y-4814500D01*
X26109444Y-4764500D02*
X26209444Y-4764500D01*
X26159444Y-4968500D02*
X26159444Y-5068500D01*
X26109444Y-5018500D02*
X26209444Y-5018500D01*
X26159444Y-5222500D02*
X26159444Y-5322500D01*
X26109444Y-5272500D02*
X26209444Y-5272500D01*
X26159444Y-5476500D02*
X26159444Y-5576500D01*
X26109444Y-5526500D02*
X26209444Y-5526500D01*
X26159444Y-5730500D02*
X26159444Y-5830500D01*
X26109444Y-5780500D02*
X26209444Y-5780500D01*
X26159444Y-5984500D02*
X26159444Y-6084500D01*
X26109444Y-6034500D02*
X26209444Y-6034500D01*
X26159444Y-6238500D02*
X26159444Y-6338500D01*
X26109444Y-6288500D02*
X26209444Y-6288500D01*
X26159444Y-6492500D02*
X26159444Y-6592500D01*
X26109444Y-6542500D02*
X26209444Y-6542500D01*
X26159444Y-6746500D02*
X26159444Y-6846500D01*
X26109444Y-6796500D02*
X26209444Y-6796500D01*
X26159444Y-7000500D02*
X26159444Y-7100500D01*
X26109444Y-7050500D02*
X26209444Y-7050500D01*
X26159444Y-7254500D02*
X26159444Y-7354500D01*
X26109444Y-7304500D02*
X26209444Y-7304500D01*
X26159444Y-7508500D02*
X26159444Y-7608500D01*
X26109444Y-7558500D02*
X26209444Y-7558500D01*
X26159444Y-7762500D02*
X26159444Y-7862500D01*
X26109444Y-7812500D02*
X26209444Y-7812500D01*
X26159444Y-8016500D02*
X26159444Y-8116500D01*
X26109444Y-8066500D02*
X26209444Y-8066500D01*
X26159444Y-8270500D02*
X26159444Y-8370500D01*
X26109444Y-8320500D02*
X26209444Y-8320500D01*
X26159444Y-8524500D02*
X26159444Y-8624500D01*
X26109444Y-8574500D02*
X26209444Y-8574500D01*
X26233000Y-1212500D02*
X26233000Y-1312500D01*
X26183000Y-1262500D02*
X26283000Y-1262500D01*
X26233000Y-1466500D02*
X26233000Y-1566500D01*
X26183000Y-1516500D02*
X26283000Y-1516500D01*
X26233000Y-1720500D02*
X26233000Y-1820500D01*
X26183000Y-1770500D02*
X26283000Y-1770500D01*
X26233000Y-1974500D02*
X26233000Y-2074500D01*
X26183000Y-2024500D02*
X26283000Y-2024500D01*
X26233000Y-2228500D02*
X26233000Y-2328500D01*
X26183000Y-2278500D02*
X26283000Y-2278500D01*
X26233000Y-2482500D02*
X26233000Y-2582500D01*
X26183000Y-2532500D02*
X26283000Y-2532500D01*
X26233000Y-2736500D02*
X26233000Y-2836500D01*
X26183000Y-2786500D02*
X26283000Y-2786500D01*
X26233000Y-2990500D02*
X26233000Y-3090500D01*
X26183000Y-3040500D02*
X26283000Y-3040500D01*
X26413444Y-4206500D02*
X26413444Y-4306500D01*
X26363444Y-4256500D02*
X26463444Y-4256500D01*
X26413444Y-4460500D02*
X26413444Y-4560500D01*
X26363444Y-4510500D02*
X26463444Y-4510500D01*
X26413444Y-4714500D02*
X26413444Y-4814500D01*
X26363444Y-4764500D02*
X26463444Y-4764500D01*
X26413444Y-4968500D02*
X26413444Y-5068500D01*
X26363444Y-5018500D02*
X26463444Y-5018500D01*
X26413444Y-5222500D02*
X26413444Y-5322500D01*
X26363444Y-5272500D02*
X26463444Y-5272500D01*
X26413444Y-5476500D02*
X26413444Y-5576500D01*
X26363444Y-5526500D02*
X26463444Y-5526500D01*
X26413444Y-5730500D02*
X26413444Y-5830500D01*
X26363444Y-5780500D02*
X26463444Y-5780500D01*
X26413444Y-5984500D02*
X26413444Y-6084500D01*
X26363444Y-6034500D02*
X26463444Y-6034500D01*
X26413444Y-6238500D02*
X26413444Y-6338500D01*
X26363444Y-6288500D02*
X26463444Y-6288500D01*
X26413444Y-6492500D02*
X26413444Y-6592500D01*
X26363444Y-6542500D02*
X26463444Y-6542500D01*
X26413444Y-6746500D02*
X26413444Y-6846500D01*
X26363444Y-6796500D02*
X26463444Y-6796500D01*
X26413444Y-7000500D02*
X26413444Y-7100500D01*
X26363444Y-7050500D02*
X26463444Y-7050500D01*
X26413444Y-7254500D02*
X26413444Y-7354500D01*
X26363444Y-7304500D02*
X26463444Y-7304500D01*
X26413444Y-7508500D02*
X26413444Y-7608500D01*
X26363444Y-7558500D02*
X26463444Y-7558500D01*
X26413444Y-7762500D02*
X26413444Y-7862500D01*
X26363444Y-7812500D02*
X26463444Y-7812500D01*
X26413444Y-8016500D02*
X26413444Y-8116500D01*
X26363444Y-8066500D02*
X26463444Y-8066500D01*
X26413444Y-8270500D02*
X26413444Y-8370500D01*
X26363444Y-8320500D02*
X26463444Y-8320500D01*
X26413444Y-8524500D02*
X26413444Y-8624500D01*
X26363444Y-8574500D02*
X26463444Y-8574500D01*
X26487000Y-1212500D02*
X26487000Y-1312500D01*
X26437000Y-1262500D02*
X26537000Y-1262500D01*
X26487000Y-1466500D02*
X26487000Y-1566500D01*
X26437000Y-1516500D02*
X26537000Y-1516500D01*
X26487000Y-1720500D02*
X26487000Y-1820500D01*
X26437000Y-1770500D02*
X26537000Y-1770500D01*
X26487000Y-1974500D02*
X26487000Y-2074500D01*
X26437000Y-2024500D02*
X26537000Y-2024500D01*
X26487000Y-2228500D02*
X26487000Y-2328500D01*
X26437000Y-2278500D02*
X26537000Y-2278500D01*
X26487000Y-2482500D02*
X26487000Y-2582500D01*
X26437000Y-2532500D02*
X26537000Y-2532500D01*
X26487000Y-2736500D02*
X26487000Y-2836500D01*
X26437000Y-2786500D02*
X26537000Y-2786500D01*
X26487000Y-2990500D02*
X26487000Y-3090500D01*
X26437000Y-3040500D02*
X26537000Y-3040500D01*
X26667444Y-4206500D02*
X26667444Y-4306500D01*
X26617444Y-4256500D02*
X26717444Y-4256500D01*
X26667444Y-4460500D02*
X26667444Y-4560500D01*
X26617444Y-4510500D02*
X26717444Y-4510500D01*
X26667444Y-4714500D02*
X26667444Y-4814500D01*
X26617444Y-4764500D02*
X26717444Y-4764500D01*
X26667444Y-4968500D02*
X26667444Y-5068500D01*
X26617444Y-5018500D02*
X26717444Y-5018500D01*
X26667444Y-5222500D02*
X26667444Y-5322500D01*
X26617444Y-5272500D02*
X26717444Y-5272500D01*
X26667444Y-5476500D02*
X26667444Y-5576500D01*
X26617444Y-5526500D02*
X26717444Y-5526500D01*
X26667444Y-5730500D02*
X26667444Y-5830500D01*
X26617444Y-5780500D02*
X26717444Y-5780500D01*
X26667444Y-5984500D02*
X26667444Y-6084500D01*
X26617444Y-6034500D02*
X26717444Y-6034500D01*
X26667444Y-6238500D02*
X26667444Y-6338500D01*
X26617444Y-6288500D02*
X26717444Y-6288500D01*
X26667444Y-6492500D02*
X26667444Y-6592500D01*
X26617444Y-6542500D02*
X26717444Y-6542500D01*
X26667444Y-6746500D02*
X26667444Y-6846500D01*
X26617444Y-6796500D02*
X26717444Y-6796500D01*
X26667444Y-7000500D02*
X26667444Y-7100500D01*
X26617444Y-7050500D02*
X26717444Y-7050500D01*
X26667444Y-7254500D02*
X26667444Y-7354500D01*
X26617444Y-7304500D02*
X26717444Y-7304500D01*
X26667444Y-7508500D02*
X26667444Y-7608500D01*
X26617444Y-7558500D02*
X26717444Y-7558500D01*
X26667444Y-7762500D02*
X26667444Y-7862500D01*
X26617444Y-7812500D02*
X26717444Y-7812500D01*
X26667444Y-8016500D02*
X26667444Y-8116500D01*
X26617444Y-8066500D02*
X26717444Y-8066500D01*
X26667444Y-8270500D02*
X26667444Y-8370500D01*
X26617444Y-8320500D02*
X26717444Y-8320500D01*
X26667444Y-8524500D02*
X26667444Y-8624500D01*
X26617444Y-8574500D02*
X26717444Y-8574500D01*
X26788000Y-9496106D02*
X26788000Y-9596106D01*
X26738000Y-9546106D02*
X26838000Y-9546106D01*
X26788000Y-9750106D02*
X26788000Y-9850106D01*
X26738000Y-9800106D02*
X26838000Y-9800106D01*
X26921444Y-4206500D02*
X26921444Y-4306500D01*
X26871444Y-4256500D02*
X26971444Y-4256500D01*
X26921444Y-4460500D02*
X26921444Y-4560500D01*
X26871444Y-4510500D02*
X26971444Y-4510500D01*
X26921444Y-4714500D02*
X26921444Y-4814500D01*
X26871444Y-4764500D02*
X26971444Y-4764500D01*
X26921444Y-4968500D02*
X26921444Y-5068500D01*
X26871444Y-5018500D02*
X26971444Y-5018500D01*
X26921444Y-5222500D02*
X26921444Y-5322500D01*
X26871444Y-5272500D02*
X26971444Y-5272500D01*
X26921444Y-5476500D02*
X26921444Y-5576500D01*
X26871444Y-5526500D02*
X26971444Y-5526500D01*
X26921444Y-5730500D02*
X26921444Y-5830500D01*
X26871444Y-5780500D02*
X26971444Y-5780500D01*
X26921444Y-5984500D02*
X26921444Y-6084500D01*
X26871444Y-6034500D02*
X26971444Y-6034500D01*
X26921444Y-6238500D02*
X26921444Y-6338500D01*
X26871444Y-6288500D02*
X26971444Y-6288500D01*
X26921444Y-6492500D02*
X26921444Y-6592500D01*
X26871444Y-6542500D02*
X26971444Y-6542500D01*
X26921444Y-6746500D02*
X26921444Y-6846500D01*
X26871444Y-6796500D02*
X26971444Y-6796500D01*
X26921444Y-7000500D02*
X26921444Y-7100500D01*
X26871444Y-7050500D02*
X26971444Y-7050500D01*
X26921444Y-7254500D02*
X26921444Y-7354500D01*
X26871444Y-7304500D02*
X26971444Y-7304500D01*
X26921444Y-7508500D02*
X26921444Y-7608500D01*
X26871444Y-7558500D02*
X26971444Y-7558500D01*
X26921444Y-7762500D02*
X26921444Y-7862500D01*
X26871444Y-7812500D02*
X26971444Y-7812500D01*
X26921444Y-8016500D02*
X26921444Y-8116500D01*
X26871444Y-8066500D02*
X26971444Y-8066500D01*
X26921444Y-8270500D02*
X26921444Y-8370500D01*
X26871444Y-8320500D02*
X26971444Y-8320500D01*
X26921444Y-8524500D02*
X26921444Y-8624500D01*
X26871444Y-8574500D02*
X26971444Y-8574500D01*
X27042000Y-9496106D02*
X27042000Y-9596106D01*
X26992000Y-9546106D02*
X27092000Y-9546106D01*
X27042000Y-9750106D02*
X27042000Y-9850106D01*
X26992000Y-9800106D02*
X27092000Y-9800106D01*
X27175444Y-4206500D02*
X27175444Y-4306500D01*
X27125444Y-4256500D02*
X27225444Y-4256500D01*
X27175444Y-4460500D02*
X27175444Y-4560500D01*
X27125444Y-4510500D02*
X27225444Y-4510500D01*
X27175444Y-4714500D02*
X27175444Y-4814500D01*
X27125444Y-4764500D02*
X27225444Y-4764500D01*
X27175444Y-4968500D02*
X27175444Y-5068500D01*
X27125444Y-5018500D02*
X27225444Y-5018500D01*
X27175444Y-5222500D02*
X27175444Y-5322500D01*
X27125444Y-5272500D02*
X27225444Y-5272500D01*
X27175444Y-5476500D02*
X27175444Y-5576500D01*
X27125444Y-5526500D02*
X27225444Y-5526500D01*
X27175444Y-5730500D02*
X27175444Y-5830500D01*
X27125444Y-5780500D02*
X27225444Y-5780500D01*
X27175444Y-5984500D02*
X27175444Y-6084500D01*
X27125444Y-6034500D02*
X27225444Y-6034500D01*
X27175444Y-6238500D02*
X27175444Y-6338500D01*
X27125444Y-6288500D02*
X27225444Y-6288500D01*
X27175444Y-6492500D02*
X27175444Y-6592500D01*
X27125444Y-6542500D02*
X27225444Y-6542500D01*
X27175444Y-6746500D02*
X27175444Y-6846500D01*
X27125444Y-6796500D02*
X27225444Y-6796500D01*
X27175444Y-7000500D02*
X27175444Y-7100500D01*
X27125444Y-7050500D02*
X27225444Y-7050500D01*
X27175444Y-7254500D02*
X27175444Y-7354500D01*
X27125444Y-7304500D02*
X27225444Y-7304500D01*
X27175444Y-7508500D02*
X27175444Y-7608500D01*
X27125444Y-7558500D02*
X27225444Y-7558500D01*
X27175444Y-7762500D02*
X27175444Y-7862500D01*
X27125444Y-7812500D02*
X27225444Y-7812500D01*
X27175444Y-8016500D02*
X27175444Y-8116500D01*
X27125444Y-8066500D02*
X27225444Y-8066500D01*
X27175444Y-8270500D02*
X27175444Y-8370500D01*
X27125444Y-8320500D02*
X27225444Y-8320500D01*
X27175444Y-8524500D02*
X27175444Y-8624500D01*
X27125444Y-8574500D02*
X27225444Y-8574500D01*
X27296000Y-9496106D02*
X27296000Y-9596106D01*
X27246000Y-9546106D02*
X27346000Y-9546106D01*
X27296000Y-9750106D02*
X27296000Y-9850106D01*
X27246000Y-9800106D02*
X27346000Y-9800106D01*
X27429444Y-4206500D02*
X27429444Y-4306500D01*
X27379444Y-4256500D02*
X27479444Y-4256500D01*
X27429444Y-4460500D02*
X27429444Y-4560500D01*
X27379444Y-4510500D02*
X27479444Y-4510500D01*
X27429444Y-4714500D02*
X27429444Y-4814500D01*
X27379444Y-4764500D02*
X27479444Y-4764500D01*
X27429444Y-4968500D02*
X27429444Y-5068500D01*
X27379444Y-5018500D02*
X27479444Y-5018500D01*
X27429444Y-5222500D02*
X27429444Y-5322500D01*
X27379444Y-5272500D02*
X27479444Y-5272500D01*
X27429444Y-5476500D02*
X27429444Y-5576500D01*
X27379444Y-5526500D02*
X27479444Y-5526500D01*
X27429444Y-5730500D02*
X27429444Y-5830500D01*
X27379444Y-5780500D02*
X27479444Y-5780500D01*
X27429444Y-5984500D02*
X27429444Y-6084500D01*
X27379444Y-6034500D02*
X27479444Y-6034500D01*
X27429444Y-6238500D02*
X27429444Y-6338500D01*
X27379444Y-6288500D02*
X27479444Y-6288500D01*
X27429444Y-6492500D02*
X27429444Y-6592500D01*
X27379444Y-6542500D02*
X27479444Y-6542500D01*
X27429444Y-6746500D02*
X27429444Y-6846500D01*
X27379444Y-6796500D02*
X27479444Y-6796500D01*
X27429444Y-7000500D02*
X27429444Y-7100500D01*
X27379444Y-7050500D02*
X27479444Y-7050500D01*
X27429444Y-7254500D02*
X27429444Y-7354500D01*
X27379444Y-7304500D02*
X27479444Y-7304500D01*
X27429444Y-7508500D02*
X27429444Y-7608500D01*
X27379444Y-7558500D02*
X27479444Y-7558500D01*
X27429444Y-7762500D02*
X27429444Y-7862500D01*
X27379444Y-7812500D02*
X27479444Y-7812500D01*
X27429444Y-8016500D02*
X27429444Y-8116500D01*
X27379444Y-8066500D02*
X27479444Y-8066500D01*
X27429444Y-8270500D02*
X27429444Y-8370500D01*
X27379444Y-8320500D02*
X27479444Y-8320500D01*
X27429444Y-8524500D02*
X27429444Y-8624500D01*
X27379444Y-8574500D02*
X27479444Y-8574500D01*
X27550000Y-9496106D02*
X27550000Y-9596106D01*
X27500000Y-9546106D02*
X27600000Y-9546106D01*
X27550000Y-9750106D02*
X27550000Y-9850106D01*
X27500000Y-9800106D02*
X27600000Y-9800106D01*
X27683444Y-4206500D02*
X27683444Y-4306500D01*
X27633444Y-4256500D02*
X27733444Y-4256500D01*
X27683444Y-4460500D02*
X27683444Y-4560500D01*
X27633444Y-4510500D02*
X27733444Y-4510500D01*
X27683444Y-4714500D02*
X27683444Y-4814500D01*
X27633444Y-4764500D02*
X27733444Y-4764500D01*
X27683444Y-4968500D02*
X27683444Y-5068500D01*
X27633444Y-5018500D02*
X27733444Y-5018500D01*
X27683444Y-5222500D02*
X27683444Y-5322500D01*
X27633444Y-5272500D02*
X27733444Y-5272500D01*
X27683444Y-5476500D02*
X27683444Y-5576500D01*
X27633444Y-5526500D02*
X27733444Y-5526500D01*
X27683444Y-5730500D02*
X27683444Y-5830500D01*
X27633444Y-5780500D02*
X27733444Y-5780500D01*
X27683444Y-5984500D02*
X27683444Y-6084500D01*
X27633444Y-6034500D02*
X27733444Y-6034500D01*
X27683444Y-6238500D02*
X27683444Y-6338500D01*
X27633444Y-6288500D02*
X27733444Y-6288500D01*
X27683444Y-6492500D02*
X27683444Y-6592500D01*
X27633444Y-6542500D02*
X27733444Y-6542500D01*
X27683444Y-6746500D02*
X27683444Y-6846500D01*
X27633444Y-6796500D02*
X27733444Y-6796500D01*
X27683444Y-7000500D02*
X27683444Y-7100500D01*
X27633444Y-7050500D02*
X27733444Y-7050500D01*
X27683444Y-7254500D02*
X27683444Y-7354500D01*
X27633444Y-7304500D02*
X27733444Y-7304500D01*
X27683444Y-7508500D02*
X27683444Y-7608500D01*
X27633444Y-7558500D02*
X27733444Y-7558500D01*
X27683444Y-7762500D02*
X27683444Y-7862500D01*
X27633444Y-7812500D02*
X27733444Y-7812500D01*
X27683444Y-8016500D02*
X27683444Y-8116500D01*
X27633444Y-8066500D02*
X27733444Y-8066500D01*
X27683444Y-8270500D02*
X27683444Y-8370500D01*
X27633444Y-8320500D02*
X27733444Y-8320500D01*
X27683444Y-8524500D02*
X27683444Y-8624500D01*
X27633444Y-8574500D02*
X27733444Y-8574500D01*
X27763011Y-400000D02*
X27763011Y-500000D01*
X27713011Y-450000D02*
X27813011Y-450000D01*
X27804000Y-9496106D02*
X27804000Y-9596106D01*
X27754000Y-9546106D02*
X27854000Y-9546106D01*
X27804000Y-9750106D02*
X27804000Y-9850106D01*
X27754000Y-9800106D02*
X27854000Y-9800106D01*
X27937444Y-4206500D02*
X27937444Y-4306500D01*
X27887444Y-4256500D02*
X27987444Y-4256500D01*
X27937444Y-4460500D02*
X27937444Y-4560500D01*
X27887444Y-4510500D02*
X27987444Y-4510500D01*
X27937444Y-4714500D02*
X27937444Y-4814500D01*
X27887444Y-4764500D02*
X27987444Y-4764500D01*
X27937444Y-4968500D02*
X27937444Y-5068500D01*
X27887444Y-5018500D02*
X27987444Y-5018500D01*
X27937444Y-5222500D02*
X27937444Y-5322500D01*
X27887444Y-5272500D02*
X27987444Y-5272500D01*
X27937444Y-5476500D02*
X27937444Y-5576500D01*
X27887444Y-5526500D02*
X27987444Y-5526500D01*
X27937444Y-5730500D02*
X27937444Y-5830500D01*
X27887444Y-5780500D02*
X27987444Y-5780500D01*
X27937444Y-5984500D02*
X27937444Y-6084500D01*
X27887444Y-6034500D02*
X27987444Y-6034500D01*
X27937444Y-6238500D02*
X27937444Y-6338500D01*
X27887444Y-6288500D02*
X27987444Y-6288500D01*
X27937444Y-6492500D02*
X27937444Y-6592500D01*
X27887444Y-6542500D02*
X27987444Y-6542500D01*
X27937444Y-6746500D02*
X27937444Y-6846500D01*
X27887444Y-6796500D02*
X27987444Y-6796500D01*
X27937444Y-7000500D02*
X27937444Y-7100500D01*
X27887444Y-7050500D02*
X27987444Y-7050500D01*
X27937444Y-7254500D02*
X27937444Y-7354500D01*
X27887444Y-7304500D02*
X27987444Y-7304500D01*
X27937444Y-7508500D02*
X27937444Y-7608500D01*
X27887444Y-7558500D02*
X27987444Y-7558500D01*
X27937444Y-7762500D02*
X27937444Y-7862500D01*
X27887444Y-7812500D02*
X27987444Y-7812500D01*
X27937444Y-8016500D02*
X27937444Y-8116500D01*
X27887444Y-8066500D02*
X27987444Y-8066500D01*
X27937444Y-8270500D02*
X27937444Y-8370500D01*
X27887444Y-8320500D02*
X27987444Y-8320500D01*
X27937444Y-8524500D02*
X27937444Y-8624500D01*
X27887444Y-8574500D02*
X27987444Y-8574500D01*
X28017011Y-400000D02*
X28017011Y-500000D01*
X27967011Y-450000D02*
X28067011Y-450000D01*
X28058000Y-9496106D02*
X28058000Y-9596106D01*
X28008000Y-9546106D02*
X28108000Y-9546106D01*
X28058000Y-9750106D02*
X28058000Y-9850106D01*
X28008000Y-9800106D02*
X28108000Y-9800106D01*
X28191444Y-4206500D02*
X28191444Y-4306500D01*
X28141444Y-4256500D02*
X28241444Y-4256500D01*
X28191444Y-4460500D02*
X28191444Y-4560500D01*
X28141444Y-4510500D02*
X28241444Y-4510500D01*
X28191444Y-4714500D02*
X28191444Y-4814500D01*
X28141444Y-4764500D02*
X28241444Y-4764500D01*
X28191444Y-4968500D02*
X28191444Y-5068500D01*
X28141444Y-5018500D02*
X28241444Y-5018500D01*
X28191444Y-5222500D02*
X28191444Y-5322500D01*
X28141444Y-5272500D02*
X28241444Y-5272500D01*
X28191444Y-5476500D02*
X28191444Y-5576500D01*
X28141444Y-5526500D02*
X28241444Y-5526500D01*
X28191444Y-5730500D02*
X28191444Y-5830500D01*
X28141444Y-5780500D02*
X28241444Y-5780500D01*
X28191444Y-5984500D02*
X28191444Y-6084500D01*
X28141444Y-6034500D02*
X28241444Y-6034500D01*
X28191444Y-6238500D02*
X28191444Y-6338500D01*
X28141444Y-6288500D02*
X28241444Y-6288500D01*
X28191444Y-6492500D02*
X28191444Y-6592500D01*
X28141444Y-6542500D02*
X28241444Y-6542500D01*
X28191444Y-6746500D02*
X28191444Y-6846500D01*
X28141444Y-6796500D02*
X28241444Y-6796500D01*
X28191444Y-7000500D02*
X28191444Y-7100500D01*
X28141444Y-7050500D02*
X28241444Y-7050500D01*
X28191444Y-7254500D02*
X28191444Y-7354500D01*
X28141444Y-7304500D02*
X28241444Y-7304500D01*
X28191444Y-7508500D02*
X28191444Y-7608500D01*
X28141444Y-7558500D02*
X28241444Y-7558500D01*
X28191444Y-7762500D02*
X28191444Y-7862500D01*
X28141444Y-7812500D02*
X28241444Y-7812500D01*
X28191444Y-8016500D02*
X28191444Y-8116500D01*
X28141444Y-8066500D02*
X28241444Y-8066500D01*
X28191444Y-8270500D02*
X28191444Y-8370500D01*
X28141444Y-8320500D02*
X28241444Y-8320500D01*
X28191444Y-8524500D02*
X28191444Y-8624500D01*
X28141444Y-8574500D02*
X28241444Y-8574500D01*
X28312000Y-9496106D02*
X28312000Y-9596106D01*
X28262000Y-9546106D02*
X28362000Y-9546106D01*
X28312000Y-9750106D02*
X28312000Y-9850106D01*
X28262000Y-9800106D02*
X28362000Y-9800106D01*
X28512011Y-400000D02*
X28512011Y-500000D01*
X28462011Y-450000D02*
X28562011Y-450000D01*
X28566000Y-9496106D02*
X28566000Y-9596106D01*
X28516000Y-9546106D02*
X28616000Y-9546106D01*
X28566000Y-9750106D02*
X28566000Y-9850106D01*
X28516000Y-9800106D02*
X28616000Y-9800106D01*
X28766011Y-400000D02*
X28766011Y-500000D01*
X28716011Y-450000D02*
X28816011Y-450000D01*
X28820000Y-9496106D02*
X28820000Y-9596106D01*
X28770000Y-9546106D02*
X28870000Y-9546106D01*
X28820000Y-9750106D02*
X28820000Y-9850106D01*
X28770000Y-9800106D02*
X28870000Y-9800106D01*
X29074000Y-9496106D02*
X29074000Y-9596106D01*
X29024000Y-9546106D02*
X29124000Y-9546106D01*
X29074000Y-9750106D02*
X29074000Y-9850106D01*
X29024000Y-9800106D02*
X29124000Y-9800106D01*
X29328000Y-9496106D02*
X29328000Y-9596106D01*
X29278000Y-9546106D02*
X29378000Y-9546106D01*
X29328000Y-9750106D02*
X29328000Y-9850106D01*
X29278000Y-9800106D02*
X29378000Y-9800106D01*
X29339511Y-400000D02*
X29339511Y-500000D01*
X29289511Y-450000D02*
X29389511Y-450000D01*
X29446000Y-4588000D02*
X29446000Y-4688000D01*
X29396000Y-4638000D02*
X29496000Y-4638000D01*
X29446000Y-4842000D02*
X29446000Y-4942000D01*
X29396000Y-4892000D02*
X29496000Y-4892000D01*
X29446000Y-5096000D02*
X29446000Y-5196000D01*
X29396000Y-5146000D02*
X29496000Y-5146000D01*
X29446000Y-5350000D02*
X29446000Y-5450000D01*
X29396000Y-5400000D02*
X29496000Y-5400000D01*
X29593511Y-400000D02*
X29593511Y-500000D01*
X29543511Y-450000D02*
X29643511Y-450000D01*
X29700000Y-4588000D02*
X29700000Y-4688000D01*
X29650000Y-4638000D02*
X29750000Y-4638000D01*
X29700000Y-4842000D02*
X29700000Y-4942000D01*
X29650000Y-4892000D02*
X29750000Y-4892000D01*
X29700000Y-5096000D02*
X29700000Y-5196000D01*
X29650000Y-5146000D02*
X29750000Y-5146000D01*
X29700000Y-5350000D02*
X29700000Y-5450000D01*
X29650000Y-5400000D02*
X29750000Y-5400000D01*
D10*
X20250777Y-10321484D02*
X20250777Y-10121484D01*
X20250777Y-10121484D02*
X20298396Y-10121484D01*
X20298396Y-10121484D02*
X20326967Y-10131008D01*
X20326967Y-10131008D02*
X20346015Y-10150055D01*
X20346015Y-10150055D02*
X20355539Y-10169103D01*
X20355539Y-10169103D02*
X20365063Y-10207198D01*
X20365063Y-10207198D02*
X20365063Y-10235770D01*
X20365063Y-10235770D02*
X20355539Y-10273865D01*
X20355539Y-10273865D02*
X20346015Y-10292912D01*
X20346015Y-10292912D02*
X20326967Y-10311960D01*
X20326967Y-10311960D02*
X20298396Y-10321484D01*
X20298396Y-10321484D02*
X20250777Y-10321484D01*
X20450777Y-10321484D02*
X20450777Y-10188150D01*
X20450777Y-10226246D02*
X20460301Y-10207198D01*
X20460301Y-10207198D02*
X20469824Y-10197674D01*
X20469824Y-10197674D02*
X20488872Y-10188150D01*
X20488872Y-10188150D02*
X20507920Y-10188150D01*
X20574586Y-10321484D02*
X20574586Y-10188150D01*
X20574586Y-10121484D02*
X20565063Y-10131008D01*
X20565063Y-10131008D02*
X20574586Y-10140531D01*
X20574586Y-10140531D02*
X20584110Y-10131008D01*
X20584110Y-10131008D02*
X20574586Y-10121484D01*
X20574586Y-10121484D02*
X20574586Y-10140531D01*
X20698396Y-10321484D02*
X20679348Y-10311960D01*
X20679348Y-10311960D02*
X20669824Y-10292912D01*
X20669824Y-10292912D02*
X20669824Y-10121484D01*
X20803158Y-10321484D02*
X20784110Y-10311960D01*
X20784110Y-10311960D02*
X20774586Y-10292912D01*
X20774586Y-10292912D02*
X20774586Y-10121484D01*
X21031729Y-10321484D02*
X21031729Y-10121484D01*
X21031729Y-10121484D02*
X21098396Y-10264341D01*
X21098396Y-10264341D02*
X21165063Y-10121484D01*
X21165063Y-10121484D02*
X21165063Y-10321484D01*
X21346015Y-10321484D02*
X21346015Y-10216722D01*
X21346015Y-10216722D02*
X21336491Y-10197674D01*
X21336491Y-10197674D02*
X21317444Y-10188150D01*
X21317444Y-10188150D02*
X21279348Y-10188150D01*
X21279348Y-10188150D02*
X21260301Y-10197674D01*
X21346015Y-10311960D02*
X21326967Y-10321484D01*
X21326967Y-10321484D02*
X21279348Y-10321484D01*
X21279348Y-10321484D02*
X21260301Y-10311960D01*
X21260301Y-10311960D02*
X21250777Y-10292912D01*
X21250777Y-10292912D02*
X21250777Y-10273865D01*
X21250777Y-10273865D02*
X21260301Y-10254817D01*
X21260301Y-10254817D02*
X21279348Y-10245293D01*
X21279348Y-10245293D02*
X21326967Y-10245293D01*
X21326967Y-10245293D02*
X21346015Y-10235770D01*
X21441253Y-10188150D02*
X21441253Y-10388150D01*
X21441253Y-10197674D02*
X21460301Y-10188150D01*
X21460301Y-10188150D02*
X21498396Y-10188150D01*
X21498396Y-10188150D02*
X21517444Y-10197674D01*
X21517444Y-10197674D02*
X21526967Y-10207198D01*
X21526967Y-10207198D02*
X21536491Y-10226246D01*
X21536491Y-10226246D02*
X21536491Y-10283389D01*
X21536491Y-10283389D02*
X21526967Y-10302436D01*
X21526967Y-10302436D02*
X21517444Y-10311960D01*
X21517444Y-10311960D02*
X21498396Y-10321484D01*
X21498396Y-10321484D02*
X21460301Y-10321484D01*
X21460301Y-10321484D02*
X21441253Y-10311960D01*
X21622205Y-10302436D02*
X21631729Y-10311960D01*
X21631729Y-10311960D02*
X21622205Y-10321484D01*
X21622205Y-10321484D02*
X21612682Y-10311960D01*
X21612682Y-10311960D02*
X21622205Y-10302436D01*
X21622205Y-10302436D02*
X21622205Y-10321484D01*
X21622205Y-10197674D02*
X21631729Y-10207198D01*
X21631729Y-10207198D02*
X21622205Y-10216722D01*
X21622205Y-10216722D02*
X21612682Y-10207198D01*
X21612682Y-10207198D02*
X21622205Y-10197674D01*
X21622205Y-10197674D02*
X21622205Y-10216722D01*
D12*
X19950000Y-10630000D02*
X19990000Y-10670000D01*
X19990000Y-10630000D02*
X19950000Y-10670000D01*
D10*
X20288872Y-10541484D02*
X20307920Y-10541484D01*
X20307920Y-10541484D02*
X20326967Y-10551008D01*
X20326967Y-10551008D02*
X20336491Y-10560531D01*
X20336491Y-10560531D02*
X20346015Y-10579579D01*
X20346015Y-10579579D02*
X20355539Y-10617674D01*
X20355539Y-10617674D02*
X20355539Y-10665293D01*
X20355539Y-10665293D02*
X20346015Y-10703389D01*
X20346015Y-10703389D02*
X20336491Y-10722436D01*
X20336491Y-10722436D02*
X20326967Y-10731960D01*
X20326967Y-10731960D02*
X20307920Y-10741484D01*
X20307920Y-10741484D02*
X20288872Y-10741484D01*
X20288872Y-10741484D02*
X20269824Y-10731960D01*
X20269824Y-10731960D02*
X20260301Y-10722436D01*
X20260301Y-10722436D02*
X20250777Y-10703389D01*
X20250777Y-10703389D02*
X20241253Y-10665293D01*
X20241253Y-10665293D02*
X20241253Y-10617674D01*
X20241253Y-10617674D02*
X20250777Y-10579579D01*
X20250777Y-10579579D02*
X20260301Y-10560531D01*
X20260301Y-10560531D02*
X20269824Y-10551008D01*
X20269824Y-10551008D02*
X20288872Y-10541484D01*
X20441253Y-10722436D02*
X20450777Y-10731960D01*
X20450777Y-10731960D02*
X20441253Y-10741484D01*
X20441253Y-10741484D02*
X20431729Y-10731960D01*
X20431729Y-10731960D02*
X20441253Y-10722436D01*
X20441253Y-10722436D02*
X20441253Y-10741484D01*
X20622205Y-10608150D02*
X20622205Y-10741484D01*
X20574586Y-10531960D02*
X20526967Y-10674817D01*
X20526967Y-10674817D02*
X20650777Y-10674817D01*
X20765063Y-10541484D02*
X20784110Y-10541484D01*
X20784110Y-10541484D02*
X20803158Y-10551008D01*
X20803158Y-10551008D02*
X20812682Y-10560531D01*
X20812682Y-10560531D02*
X20822205Y-10579579D01*
X20822205Y-10579579D02*
X20831729Y-10617674D01*
X20831729Y-10617674D02*
X20831729Y-10665293D01*
X20831729Y-10665293D02*
X20822205Y-10703389D01*
X20822205Y-10703389D02*
X20812682Y-10722436D01*
X20812682Y-10722436D02*
X20803158Y-10731960D01*
X20803158Y-10731960D02*
X20784110Y-10741484D01*
X20784110Y-10741484D02*
X20765063Y-10741484D01*
X20765063Y-10741484D02*
X20746015Y-10731960D01*
X20746015Y-10731960D02*
X20736491Y-10722436D01*
X20736491Y-10722436D02*
X20726967Y-10703389D01*
X20726967Y-10703389D02*
X20717444Y-10665293D01*
X20717444Y-10665293D02*
X20717444Y-10617674D01*
X20717444Y-10617674D02*
X20726967Y-10579579D01*
X20726967Y-10579579D02*
X20736491Y-10560531D01*
X20736491Y-10560531D02*
X20746015Y-10551008D01*
X20746015Y-10551008D02*
X20765063Y-10541484D01*
X20955539Y-10541484D02*
X20974586Y-10541484D01*
X20974586Y-10541484D02*
X20993634Y-10551008D01*
X20993634Y-10551008D02*
X21003158Y-10560531D01*
X21003158Y-10560531D02*
X21012682Y-10579579D01*
X21012682Y-10579579D02*
X21022205Y-10617674D01*
X21022205Y-10617674D02*
X21022205Y-10665293D01*
X21022205Y-10665293D02*
X21012682Y-10703389D01*
X21012682Y-10703389D02*
X21003158Y-10722436D01*
X21003158Y-10722436D02*
X20993634Y-10731960D01*
X20993634Y-10731960D02*
X20974586Y-10741484D01*
X20974586Y-10741484D02*
X20955539Y-10741484D01*
X20955539Y-10741484D02*
X20936491Y-10731960D01*
X20936491Y-10731960D02*
X20926967Y-10722436D01*
X20926967Y-10722436D02*
X20917444Y-10703389D01*
X20917444Y-10703389D02*
X20907920Y-10665293D01*
X20907920Y-10665293D02*
X20907920Y-10617674D01*
X20907920Y-10617674D02*
X20917444Y-10579579D01*
X20917444Y-10579579D02*
X20926967Y-10560531D01*
X20926967Y-10560531D02*
X20936491Y-10551008D01*
X20936491Y-10551008D02*
X20955539Y-10541484D01*
X21107920Y-10741484D02*
X21107920Y-10608150D01*
X21107920Y-10627198D02*
X21117444Y-10617674D01*
X21117444Y-10617674D02*
X21136491Y-10608150D01*
X21136491Y-10608150D02*
X21165063Y-10608150D01*
X21165063Y-10608150D02*
X21184110Y-10617674D01*
X21184110Y-10617674D02*
X21193634Y-10636722D01*
X21193634Y-10636722D02*
X21193634Y-10741484D01*
X21193634Y-10636722D02*
X21203158Y-10617674D01*
X21203158Y-10617674D02*
X21222205Y-10608150D01*
X21222205Y-10608150D02*
X21250777Y-10608150D01*
X21250777Y-10608150D02*
X21269825Y-10617674D01*
X21269825Y-10617674D02*
X21279348Y-10636722D01*
X21279348Y-10636722D02*
X21279348Y-10741484D01*
X21374586Y-10741484D02*
X21374586Y-10608150D01*
X21374586Y-10627198D02*
X21384110Y-10617674D01*
X21384110Y-10617674D02*
X21403158Y-10608150D01*
X21403158Y-10608150D02*
X21431729Y-10608150D01*
X21431729Y-10608150D02*
X21450777Y-10617674D01*
X21450777Y-10617674D02*
X21460301Y-10636722D01*
X21460301Y-10636722D02*
X21460301Y-10741484D01*
X21460301Y-10636722D02*
X21469825Y-10617674D01*
X21469825Y-10617674D02*
X21488872Y-10608150D01*
X21488872Y-10608150D02*
X21517444Y-10608150D01*
X21517444Y-10608150D02*
X21536491Y-10617674D01*
X21536491Y-10617674D02*
X21546015Y-10636722D01*
X21546015Y-10636722D02*
X21546015Y-10741484D01*
X21936491Y-10531960D02*
X21765063Y-10789103D01*
X22193634Y-10541484D02*
X22212682Y-10541484D01*
X22212682Y-10541484D02*
X22231729Y-10551008D01*
X22231729Y-10551008D02*
X22241253Y-10560531D01*
X22241253Y-10560531D02*
X22250777Y-10579579D01*
X22250777Y-10579579D02*
X22260301Y-10617674D01*
X22260301Y-10617674D02*
X22260301Y-10665293D01*
X22260301Y-10665293D02*
X22250777Y-10703389D01*
X22250777Y-10703389D02*
X22241253Y-10722436D01*
X22241253Y-10722436D02*
X22231729Y-10731960D01*
X22231729Y-10731960D02*
X22212682Y-10741484D01*
X22212682Y-10741484D02*
X22193634Y-10741484D01*
X22193634Y-10741484D02*
X22174587Y-10731960D01*
X22174587Y-10731960D02*
X22165063Y-10722436D01*
X22165063Y-10722436D02*
X22155539Y-10703389D01*
X22155539Y-10703389D02*
X22146015Y-10665293D01*
X22146015Y-10665293D02*
X22146015Y-10617674D01*
X22146015Y-10617674D02*
X22155539Y-10579579D01*
X22155539Y-10579579D02*
X22165063Y-10560531D01*
X22165063Y-10560531D02*
X22174587Y-10551008D01*
X22174587Y-10551008D02*
X22193634Y-10541484D01*
X22346015Y-10722436D02*
X22355539Y-10731960D01*
X22355539Y-10731960D02*
X22346015Y-10741484D01*
X22346015Y-10741484D02*
X22336491Y-10731960D01*
X22336491Y-10731960D02*
X22346015Y-10722436D01*
X22346015Y-10722436D02*
X22346015Y-10741484D01*
X22479348Y-10541484D02*
X22498396Y-10541484D01*
X22498396Y-10541484D02*
X22517444Y-10551008D01*
X22517444Y-10551008D02*
X22526967Y-10560531D01*
X22526967Y-10560531D02*
X22536491Y-10579579D01*
X22536491Y-10579579D02*
X22546015Y-10617674D01*
X22546015Y-10617674D02*
X22546015Y-10665293D01*
X22546015Y-10665293D02*
X22536491Y-10703389D01*
X22536491Y-10703389D02*
X22526967Y-10722436D01*
X22526967Y-10722436D02*
X22517444Y-10731960D01*
X22517444Y-10731960D02*
X22498396Y-10741484D01*
X22498396Y-10741484D02*
X22479348Y-10741484D01*
X22479348Y-10741484D02*
X22460301Y-10731960D01*
X22460301Y-10731960D02*
X22450777Y-10722436D01*
X22450777Y-10722436D02*
X22441253Y-10703389D01*
X22441253Y-10703389D02*
X22431729Y-10665293D01*
X22431729Y-10665293D02*
X22431729Y-10617674D01*
X22431729Y-10617674D02*
X22441253Y-10579579D01*
X22441253Y-10579579D02*
X22450777Y-10560531D01*
X22450777Y-10560531D02*
X22460301Y-10551008D01*
X22460301Y-10551008D02*
X22479348Y-10541484D01*
X22736491Y-10741484D02*
X22622206Y-10741484D01*
X22679348Y-10741484D02*
X22679348Y-10541484D01*
X22679348Y-10541484D02*
X22660301Y-10570055D01*
X22660301Y-10570055D02*
X22641253Y-10589103D01*
X22641253Y-10589103D02*
X22622206Y-10598627D01*
X22917444Y-10541484D02*
X22822206Y-10541484D01*
X22822206Y-10541484D02*
X22812682Y-10636722D01*
X22812682Y-10636722D02*
X22822206Y-10627198D01*
X22822206Y-10627198D02*
X22841253Y-10617674D01*
X22841253Y-10617674D02*
X22888872Y-10617674D01*
X22888872Y-10617674D02*
X22907920Y-10627198D01*
X22907920Y-10627198D02*
X22917444Y-10636722D01*
X22917444Y-10636722D02*
X22926967Y-10655770D01*
X22926967Y-10655770D02*
X22926967Y-10703389D01*
X22926967Y-10703389D02*
X22917444Y-10722436D01*
X22917444Y-10722436D02*
X22907920Y-10731960D01*
X22907920Y-10731960D02*
X22888872Y-10741484D01*
X22888872Y-10741484D02*
X22841253Y-10741484D01*
X22841253Y-10741484D02*
X22822206Y-10731960D01*
X22822206Y-10731960D02*
X22812682Y-10722436D01*
X22993634Y-10541484D02*
X23126967Y-10541484D01*
X23126967Y-10541484D02*
X23041253Y-10741484D01*
X23193634Y-10541484D02*
X23193634Y-10579579D01*
X23269825Y-10541484D02*
X23269825Y-10579579D01*
X23565063Y-10817674D02*
X23555539Y-10808150D01*
X23555539Y-10808150D02*
X23536491Y-10779579D01*
X23536491Y-10779579D02*
X23526968Y-10760531D01*
X23526968Y-10760531D02*
X23517444Y-10731960D01*
X23517444Y-10731960D02*
X23507920Y-10684341D01*
X23507920Y-10684341D02*
X23507920Y-10646246D01*
X23507920Y-10646246D02*
X23517444Y-10598627D01*
X23517444Y-10598627D02*
X23526968Y-10570055D01*
X23526968Y-10570055D02*
X23536491Y-10551008D01*
X23536491Y-10551008D02*
X23555539Y-10522436D01*
X23555539Y-10522436D02*
X23565063Y-10512912D01*
X23726968Y-10541484D02*
X23688872Y-10541484D01*
X23688872Y-10541484D02*
X23669825Y-10551008D01*
X23669825Y-10551008D02*
X23660301Y-10560531D01*
X23660301Y-10560531D02*
X23641253Y-10589103D01*
X23641253Y-10589103D02*
X23631729Y-10627198D01*
X23631729Y-10627198D02*
X23631729Y-10703389D01*
X23631729Y-10703389D02*
X23641253Y-10722436D01*
X23641253Y-10722436D02*
X23650777Y-10731960D01*
X23650777Y-10731960D02*
X23669825Y-10741484D01*
X23669825Y-10741484D02*
X23707920Y-10741484D01*
X23707920Y-10741484D02*
X23726968Y-10731960D01*
X23726968Y-10731960D02*
X23736491Y-10722436D01*
X23736491Y-10722436D02*
X23746015Y-10703389D01*
X23746015Y-10703389D02*
X23746015Y-10655770D01*
X23746015Y-10655770D02*
X23736491Y-10636722D01*
X23736491Y-10636722D02*
X23726968Y-10627198D01*
X23726968Y-10627198D02*
X23707920Y-10617674D01*
X23707920Y-10617674D02*
X23669825Y-10617674D01*
X23669825Y-10617674D02*
X23650777Y-10627198D01*
X23650777Y-10627198D02*
X23641253Y-10636722D01*
X23641253Y-10636722D02*
X23631729Y-10655770D01*
X23984110Y-10741484D02*
X23984110Y-10541484D01*
X24069825Y-10741484D02*
X24069825Y-10636722D01*
X24069825Y-10636722D02*
X24060301Y-10617674D01*
X24060301Y-10617674D02*
X24041253Y-10608150D01*
X24041253Y-10608150D02*
X24012682Y-10608150D01*
X24012682Y-10608150D02*
X23993634Y-10617674D01*
X23993634Y-10617674D02*
X23984110Y-10627198D01*
X24193634Y-10741484D02*
X24174587Y-10731960D01*
X24174587Y-10731960D02*
X24165063Y-10722436D01*
X24165063Y-10722436D02*
X24155539Y-10703389D01*
X24155539Y-10703389D02*
X24155539Y-10646246D01*
X24155539Y-10646246D02*
X24165063Y-10627198D01*
X24165063Y-10627198D02*
X24174587Y-10617674D01*
X24174587Y-10617674D02*
X24193634Y-10608150D01*
X24193634Y-10608150D02*
X24222206Y-10608150D01*
X24222206Y-10608150D02*
X24241253Y-10617674D01*
X24241253Y-10617674D02*
X24250777Y-10627198D01*
X24250777Y-10627198D02*
X24260301Y-10646246D01*
X24260301Y-10646246D02*
X24260301Y-10703389D01*
X24260301Y-10703389D02*
X24250777Y-10722436D01*
X24250777Y-10722436D02*
X24241253Y-10731960D01*
X24241253Y-10731960D02*
X24222206Y-10741484D01*
X24222206Y-10741484D02*
X24193634Y-10741484D01*
X24374587Y-10741484D02*
X24355539Y-10731960D01*
X24355539Y-10731960D02*
X24346015Y-10712912D01*
X24346015Y-10712912D02*
X24346015Y-10541484D01*
X24526968Y-10731960D02*
X24507920Y-10741484D01*
X24507920Y-10741484D02*
X24469825Y-10741484D01*
X24469825Y-10741484D02*
X24450777Y-10731960D01*
X24450777Y-10731960D02*
X24441253Y-10712912D01*
X24441253Y-10712912D02*
X24441253Y-10636722D01*
X24441253Y-10636722D02*
X24450777Y-10617674D01*
X24450777Y-10617674D02*
X24469825Y-10608150D01*
X24469825Y-10608150D02*
X24507920Y-10608150D01*
X24507920Y-10608150D02*
X24526968Y-10617674D01*
X24526968Y-10617674D02*
X24536491Y-10636722D01*
X24536491Y-10636722D02*
X24536491Y-10655770D01*
X24536491Y-10655770D02*
X24441253Y-10674817D01*
X24612682Y-10731960D02*
X24631730Y-10741484D01*
X24631730Y-10741484D02*
X24669825Y-10741484D01*
X24669825Y-10741484D02*
X24688872Y-10731960D01*
X24688872Y-10731960D02*
X24698396Y-10712912D01*
X24698396Y-10712912D02*
X24698396Y-10703389D01*
X24698396Y-10703389D02*
X24688872Y-10684341D01*
X24688872Y-10684341D02*
X24669825Y-10674817D01*
X24669825Y-10674817D02*
X24641253Y-10674817D01*
X24641253Y-10674817D02*
X24622206Y-10665293D01*
X24622206Y-10665293D02*
X24612682Y-10646246D01*
X24612682Y-10646246D02*
X24612682Y-10636722D01*
X24612682Y-10636722D02*
X24622206Y-10617674D01*
X24622206Y-10617674D02*
X24641253Y-10608150D01*
X24641253Y-10608150D02*
X24669825Y-10608150D01*
X24669825Y-10608150D02*
X24688872Y-10617674D01*
X24765063Y-10817674D02*
X24774587Y-10808150D01*
X24774587Y-10808150D02*
X24793634Y-10779579D01*
X24793634Y-10779579D02*
X24803158Y-10760531D01*
X24803158Y-10760531D02*
X24812682Y-10731960D01*
X24812682Y-10731960D02*
X24822206Y-10684341D01*
X24822206Y-10684341D02*
X24822206Y-10646246D01*
X24822206Y-10646246D02*
X24812682Y-10598627D01*
X24812682Y-10598627D02*
X24803158Y-10570055D01*
X24803158Y-10570055D02*
X24793634Y-10551008D01*
X24793634Y-10551008D02*
X24774587Y-10522436D01*
X24774587Y-10522436D02*
X24765063Y-10512912D01*
D12*
X19990000Y-10914000D02*
G75*
G02*
X19910000Y-10914000I-40000J0D01*
G01*
X19910000Y-10914000D02*
G75*
G02*
X19990000Y-10914000I40000J0D01*
G01*
D10*
X20288872Y-10805484D02*
X20307920Y-10805484D01*
X20307920Y-10805484D02*
X20326967Y-10815008D01*
X20326967Y-10815008D02*
X20336491Y-10824531D01*
X20336491Y-10824531D02*
X20346015Y-10843579D01*
X20346015Y-10843579D02*
X20355539Y-10881674D01*
X20355539Y-10881674D02*
X20355539Y-10929293D01*
X20355539Y-10929293D02*
X20346015Y-10967389D01*
X20346015Y-10967389D02*
X20336491Y-10986436D01*
X20336491Y-10986436D02*
X20326967Y-10995960D01*
X20326967Y-10995960D02*
X20307920Y-11005484D01*
X20307920Y-11005484D02*
X20288872Y-11005484D01*
X20288872Y-11005484D02*
X20269824Y-10995960D01*
X20269824Y-10995960D02*
X20260301Y-10986436D01*
X20260301Y-10986436D02*
X20250777Y-10967389D01*
X20250777Y-10967389D02*
X20241253Y-10929293D01*
X20241253Y-10929293D02*
X20241253Y-10881674D01*
X20241253Y-10881674D02*
X20250777Y-10843579D01*
X20250777Y-10843579D02*
X20260301Y-10824531D01*
X20260301Y-10824531D02*
X20269824Y-10815008D01*
X20269824Y-10815008D02*
X20288872Y-10805484D01*
X20441253Y-10986436D02*
X20450777Y-10995960D01*
X20450777Y-10995960D02*
X20441253Y-11005484D01*
X20441253Y-11005484D02*
X20431729Y-10995960D01*
X20431729Y-10995960D02*
X20441253Y-10986436D01*
X20441253Y-10986436D02*
X20441253Y-11005484D01*
X20565063Y-10891198D02*
X20546015Y-10881674D01*
X20546015Y-10881674D02*
X20536491Y-10872150D01*
X20536491Y-10872150D02*
X20526967Y-10853103D01*
X20526967Y-10853103D02*
X20526967Y-10843579D01*
X20526967Y-10843579D02*
X20536491Y-10824531D01*
X20536491Y-10824531D02*
X20546015Y-10815008D01*
X20546015Y-10815008D02*
X20565063Y-10805484D01*
X20565063Y-10805484D02*
X20603158Y-10805484D01*
X20603158Y-10805484D02*
X20622205Y-10815008D01*
X20622205Y-10815008D02*
X20631729Y-10824531D01*
X20631729Y-10824531D02*
X20641253Y-10843579D01*
X20641253Y-10843579D02*
X20641253Y-10853103D01*
X20641253Y-10853103D02*
X20631729Y-10872150D01*
X20631729Y-10872150D02*
X20622205Y-10881674D01*
X20622205Y-10881674D02*
X20603158Y-10891198D01*
X20603158Y-10891198D02*
X20565063Y-10891198D01*
X20565063Y-10891198D02*
X20546015Y-10900722D01*
X20546015Y-10900722D02*
X20536491Y-10910246D01*
X20536491Y-10910246D02*
X20526967Y-10929293D01*
X20526967Y-10929293D02*
X20526967Y-10967389D01*
X20526967Y-10967389D02*
X20536491Y-10986436D01*
X20536491Y-10986436D02*
X20546015Y-10995960D01*
X20546015Y-10995960D02*
X20565063Y-11005484D01*
X20565063Y-11005484D02*
X20603158Y-11005484D01*
X20603158Y-11005484D02*
X20622205Y-10995960D01*
X20622205Y-10995960D02*
X20631729Y-10986436D01*
X20631729Y-10986436D02*
X20641253Y-10967389D01*
X20641253Y-10967389D02*
X20641253Y-10929293D01*
X20641253Y-10929293D02*
X20631729Y-10910246D01*
X20631729Y-10910246D02*
X20622205Y-10900722D01*
X20622205Y-10900722D02*
X20603158Y-10891198D01*
X20765063Y-10805484D02*
X20784110Y-10805484D01*
X20784110Y-10805484D02*
X20803158Y-10815008D01*
X20803158Y-10815008D02*
X20812682Y-10824531D01*
X20812682Y-10824531D02*
X20822205Y-10843579D01*
X20822205Y-10843579D02*
X20831729Y-10881674D01*
X20831729Y-10881674D02*
X20831729Y-10929293D01*
X20831729Y-10929293D02*
X20822205Y-10967389D01*
X20822205Y-10967389D02*
X20812682Y-10986436D01*
X20812682Y-10986436D02*
X20803158Y-10995960D01*
X20803158Y-10995960D02*
X20784110Y-11005484D01*
X20784110Y-11005484D02*
X20765063Y-11005484D01*
X20765063Y-11005484D02*
X20746015Y-10995960D01*
X20746015Y-10995960D02*
X20736491Y-10986436D01*
X20736491Y-10986436D02*
X20726967Y-10967389D01*
X20726967Y-10967389D02*
X20717444Y-10929293D01*
X20717444Y-10929293D02*
X20717444Y-10881674D01*
X20717444Y-10881674D02*
X20726967Y-10843579D01*
X20726967Y-10843579D02*
X20736491Y-10824531D01*
X20736491Y-10824531D02*
X20746015Y-10815008D01*
X20746015Y-10815008D02*
X20765063Y-10805484D01*
X20955539Y-10805484D02*
X20974586Y-10805484D01*
X20974586Y-10805484D02*
X20993634Y-10815008D01*
X20993634Y-10815008D02*
X21003158Y-10824531D01*
X21003158Y-10824531D02*
X21012682Y-10843579D01*
X21012682Y-10843579D02*
X21022205Y-10881674D01*
X21022205Y-10881674D02*
X21022205Y-10929293D01*
X21022205Y-10929293D02*
X21012682Y-10967389D01*
X21012682Y-10967389D02*
X21003158Y-10986436D01*
X21003158Y-10986436D02*
X20993634Y-10995960D01*
X20993634Y-10995960D02*
X20974586Y-11005484D01*
X20974586Y-11005484D02*
X20955539Y-11005484D01*
X20955539Y-11005484D02*
X20936491Y-10995960D01*
X20936491Y-10995960D02*
X20926967Y-10986436D01*
X20926967Y-10986436D02*
X20917444Y-10967389D01*
X20917444Y-10967389D02*
X20907920Y-10929293D01*
X20907920Y-10929293D02*
X20907920Y-10881674D01*
X20907920Y-10881674D02*
X20917444Y-10843579D01*
X20917444Y-10843579D02*
X20926967Y-10824531D01*
X20926967Y-10824531D02*
X20936491Y-10815008D01*
X20936491Y-10815008D02*
X20955539Y-10805484D01*
X21107920Y-11005484D02*
X21107920Y-10872150D01*
X21107920Y-10891198D02*
X21117444Y-10881674D01*
X21117444Y-10881674D02*
X21136491Y-10872150D01*
X21136491Y-10872150D02*
X21165063Y-10872150D01*
X21165063Y-10872150D02*
X21184110Y-10881674D01*
X21184110Y-10881674D02*
X21193634Y-10900722D01*
X21193634Y-10900722D02*
X21193634Y-11005484D01*
X21193634Y-10900722D02*
X21203158Y-10881674D01*
X21203158Y-10881674D02*
X21222205Y-10872150D01*
X21222205Y-10872150D02*
X21250777Y-10872150D01*
X21250777Y-10872150D02*
X21269825Y-10881674D01*
X21269825Y-10881674D02*
X21279348Y-10900722D01*
X21279348Y-10900722D02*
X21279348Y-11005484D01*
X21374586Y-11005484D02*
X21374586Y-10872150D01*
X21374586Y-10891198D02*
X21384110Y-10881674D01*
X21384110Y-10881674D02*
X21403158Y-10872150D01*
X21403158Y-10872150D02*
X21431729Y-10872150D01*
X21431729Y-10872150D02*
X21450777Y-10881674D01*
X21450777Y-10881674D02*
X21460301Y-10900722D01*
X21460301Y-10900722D02*
X21460301Y-11005484D01*
X21460301Y-10900722D02*
X21469825Y-10881674D01*
X21469825Y-10881674D02*
X21488872Y-10872150D01*
X21488872Y-10872150D02*
X21517444Y-10872150D01*
X21517444Y-10872150D02*
X21536491Y-10881674D01*
X21536491Y-10881674D02*
X21546015Y-10900722D01*
X21546015Y-10900722D02*
X21546015Y-11005484D01*
X21936491Y-10795960D02*
X21765063Y-11053103D01*
X22193634Y-10805484D02*
X22212682Y-10805484D01*
X22212682Y-10805484D02*
X22231729Y-10815008D01*
X22231729Y-10815008D02*
X22241253Y-10824531D01*
X22241253Y-10824531D02*
X22250777Y-10843579D01*
X22250777Y-10843579D02*
X22260301Y-10881674D01*
X22260301Y-10881674D02*
X22260301Y-10929293D01*
X22260301Y-10929293D02*
X22250777Y-10967389D01*
X22250777Y-10967389D02*
X22241253Y-10986436D01*
X22241253Y-10986436D02*
X22231729Y-10995960D01*
X22231729Y-10995960D02*
X22212682Y-11005484D01*
X22212682Y-11005484D02*
X22193634Y-11005484D01*
X22193634Y-11005484D02*
X22174587Y-10995960D01*
X22174587Y-10995960D02*
X22165063Y-10986436D01*
X22165063Y-10986436D02*
X22155539Y-10967389D01*
X22155539Y-10967389D02*
X22146015Y-10929293D01*
X22146015Y-10929293D02*
X22146015Y-10881674D01*
X22146015Y-10881674D02*
X22155539Y-10843579D01*
X22155539Y-10843579D02*
X22165063Y-10824531D01*
X22165063Y-10824531D02*
X22174587Y-10815008D01*
X22174587Y-10815008D02*
X22193634Y-10805484D01*
X22346015Y-10986436D02*
X22355539Y-10995960D01*
X22355539Y-10995960D02*
X22346015Y-11005484D01*
X22346015Y-11005484D02*
X22336491Y-10995960D01*
X22336491Y-10995960D02*
X22346015Y-10986436D01*
X22346015Y-10986436D02*
X22346015Y-11005484D01*
X22479348Y-10805484D02*
X22498396Y-10805484D01*
X22498396Y-10805484D02*
X22517444Y-10815008D01*
X22517444Y-10815008D02*
X22526967Y-10824531D01*
X22526967Y-10824531D02*
X22536491Y-10843579D01*
X22536491Y-10843579D02*
X22546015Y-10881674D01*
X22546015Y-10881674D02*
X22546015Y-10929293D01*
X22546015Y-10929293D02*
X22536491Y-10967389D01*
X22536491Y-10967389D02*
X22526967Y-10986436D01*
X22526967Y-10986436D02*
X22517444Y-10995960D01*
X22517444Y-10995960D02*
X22498396Y-11005484D01*
X22498396Y-11005484D02*
X22479348Y-11005484D01*
X22479348Y-11005484D02*
X22460301Y-10995960D01*
X22460301Y-10995960D02*
X22450777Y-10986436D01*
X22450777Y-10986436D02*
X22441253Y-10967389D01*
X22441253Y-10967389D02*
X22431729Y-10929293D01*
X22431729Y-10929293D02*
X22431729Y-10881674D01*
X22431729Y-10881674D02*
X22441253Y-10843579D01*
X22441253Y-10843579D02*
X22450777Y-10824531D01*
X22450777Y-10824531D02*
X22460301Y-10815008D01*
X22460301Y-10815008D02*
X22479348Y-10805484D01*
X22612682Y-10805484D02*
X22736491Y-10805484D01*
X22736491Y-10805484D02*
X22669825Y-10881674D01*
X22669825Y-10881674D02*
X22698396Y-10881674D01*
X22698396Y-10881674D02*
X22717444Y-10891198D01*
X22717444Y-10891198D02*
X22726967Y-10900722D01*
X22726967Y-10900722D02*
X22736491Y-10919770D01*
X22736491Y-10919770D02*
X22736491Y-10967389D01*
X22736491Y-10967389D02*
X22726967Y-10986436D01*
X22726967Y-10986436D02*
X22717444Y-10995960D01*
X22717444Y-10995960D02*
X22698396Y-11005484D01*
X22698396Y-11005484D02*
X22641253Y-11005484D01*
X22641253Y-11005484D02*
X22622206Y-10995960D01*
X22622206Y-10995960D02*
X22612682Y-10986436D01*
X22926967Y-11005484D02*
X22812682Y-11005484D01*
X22869825Y-11005484D02*
X22869825Y-10805484D01*
X22869825Y-10805484D02*
X22850777Y-10834055D01*
X22850777Y-10834055D02*
X22831729Y-10853103D01*
X22831729Y-10853103D02*
X22812682Y-10862627D01*
X23107920Y-10805484D02*
X23012682Y-10805484D01*
X23012682Y-10805484D02*
X23003158Y-10900722D01*
X23003158Y-10900722D02*
X23012682Y-10891198D01*
X23012682Y-10891198D02*
X23031729Y-10881674D01*
X23031729Y-10881674D02*
X23079348Y-10881674D01*
X23079348Y-10881674D02*
X23098396Y-10891198D01*
X23098396Y-10891198D02*
X23107920Y-10900722D01*
X23107920Y-10900722D02*
X23117444Y-10919770D01*
X23117444Y-10919770D02*
X23117444Y-10967389D01*
X23117444Y-10967389D02*
X23107920Y-10986436D01*
X23107920Y-10986436D02*
X23098396Y-10995960D01*
X23098396Y-10995960D02*
X23079348Y-11005484D01*
X23079348Y-11005484D02*
X23031729Y-11005484D01*
X23031729Y-11005484D02*
X23012682Y-10995960D01*
X23012682Y-10995960D02*
X23003158Y-10986436D01*
X23193634Y-10805484D02*
X23193634Y-10843579D01*
X23269825Y-10805484D02*
X23269825Y-10843579D01*
X23565063Y-11081674D02*
X23555539Y-11072150D01*
X23555539Y-11072150D02*
X23536491Y-11043579D01*
X23536491Y-11043579D02*
X23526968Y-11024531D01*
X23526968Y-11024531D02*
X23517444Y-10995960D01*
X23517444Y-10995960D02*
X23507920Y-10948341D01*
X23507920Y-10948341D02*
X23507920Y-10910246D01*
X23507920Y-10910246D02*
X23517444Y-10862627D01*
X23517444Y-10862627D02*
X23526968Y-10834055D01*
X23526968Y-10834055D02*
X23536491Y-10815008D01*
X23536491Y-10815008D02*
X23555539Y-10786436D01*
X23555539Y-10786436D02*
X23565063Y-10776912D01*
X23736491Y-10805484D02*
X23641253Y-10805484D01*
X23641253Y-10805484D02*
X23631729Y-10900722D01*
X23631729Y-10900722D02*
X23641253Y-10891198D01*
X23641253Y-10891198D02*
X23660301Y-10881674D01*
X23660301Y-10881674D02*
X23707920Y-10881674D01*
X23707920Y-10881674D02*
X23726968Y-10891198D01*
X23726968Y-10891198D02*
X23736491Y-10900722D01*
X23736491Y-10900722D02*
X23746015Y-10919770D01*
X23746015Y-10919770D02*
X23746015Y-10967389D01*
X23746015Y-10967389D02*
X23736491Y-10986436D01*
X23736491Y-10986436D02*
X23726968Y-10995960D01*
X23726968Y-10995960D02*
X23707920Y-11005484D01*
X23707920Y-11005484D02*
X23660301Y-11005484D01*
X23660301Y-11005484D02*
X23641253Y-10995960D01*
X23641253Y-10995960D02*
X23631729Y-10986436D01*
X23822206Y-10824531D02*
X23831729Y-10815008D01*
X23831729Y-10815008D02*
X23850777Y-10805484D01*
X23850777Y-10805484D02*
X23898396Y-10805484D01*
X23898396Y-10805484D02*
X23917444Y-10815008D01*
X23917444Y-10815008D02*
X23926968Y-10824531D01*
X23926968Y-10824531D02*
X23936491Y-10843579D01*
X23936491Y-10843579D02*
X23936491Y-10862627D01*
X23936491Y-10862627D02*
X23926968Y-10891198D01*
X23926968Y-10891198D02*
X23812682Y-11005484D01*
X23812682Y-11005484D02*
X23936491Y-11005484D01*
X24174587Y-11005484D02*
X24174587Y-10805484D01*
X24260301Y-11005484D02*
X24260301Y-10900722D01*
X24260301Y-10900722D02*
X24250777Y-10881674D01*
X24250777Y-10881674D02*
X24231730Y-10872150D01*
X24231730Y-10872150D02*
X24203158Y-10872150D01*
X24203158Y-10872150D02*
X24184110Y-10881674D01*
X24184110Y-10881674D02*
X24174587Y-10891198D01*
X24384110Y-11005484D02*
X24365063Y-10995960D01*
X24365063Y-10995960D02*
X24355539Y-10986436D01*
X24355539Y-10986436D02*
X24346015Y-10967389D01*
X24346015Y-10967389D02*
X24346015Y-10910246D01*
X24346015Y-10910246D02*
X24355539Y-10891198D01*
X24355539Y-10891198D02*
X24365063Y-10881674D01*
X24365063Y-10881674D02*
X24384110Y-10872150D01*
X24384110Y-10872150D02*
X24412682Y-10872150D01*
X24412682Y-10872150D02*
X24431730Y-10881674D01*
X24431730Y-10881674D02*
X24441253Y-10891198D01*
X24441253Y-10891198D02*
X24450777Y-10910246D01*
X24450777Y-10910246D02*
X24450777Y-10967389D01*
X24450777Y-10967389D02*
X24441253Y-10986436D01*
X24441253Y-10986436D02*
X24431730Y-10995960D01*
X24431730Y-10995960D02*
X24412682Y-11005484D01*
X24412682Y-11005484D02*
X24384110Y-11005484D01*
X24565063Y-11005484D02*
X24546015Y-10995960D01*
X24546015Y-10995960D02*
X24536491Y-10976912D01*
X24536491Y-10976912D02*
X24536491Y-10805484D01*
X24717444Y-10995960D02*
X24698396Y-11005484D01*
X24698396Y-11005484D02*
X24660301Y-11005484D01*
X24660301Y-11005484D02*
X24641253Y-10995960D01*
X24641253Y-10995960D02*
X24631730Y-10976912D01*
X24631730Y-10976912D02*
X24631730Y-10900722D01*
X24631730Y-10900722D02*
X24641253Y-10881674D01*
X24641253Y-10881674D02*
X24660301Y-10872150D01*
X24660301Y-10872150D02*
X24698396Y-10872150D01*
X24698396Y-10872150D02*
X24717444Y-10881674D01*
X24717444Y-10881674D02*
X24726968Y-10900722D01*
X24726968Y-10900722D02*
X24726968Y-10919770D01*
X24726968Y-10919770D02*
X24631730Y-10938817D01*
X24803158Y-10995960D02*
X24822206Y-11005484D01*
X24822206Y-11005484D02*
X24860301Y-11005484D01*
X24860301Y-11005484D02*
X24879349Y-10995960D01*
X24879349Y-10995960D02*
X24888872Y-10976912D01*
X24888872Y-10976912D02*
X24888872Y-10967389D01*
X24888872Y-10967389D02*
X24879349Y-10948341D01*
X24879349Y-10948341D02*
X24860301Y-10938817D01*
X24860301Y-10938817D02*
X24831730Y-10938817D01*
X24831730Y-10938817D02*
X24812682Y-10929293D01*
X24812682Y-10929293D02*
X24803158Y-10910246D01*
X24803158Y-10910246D02*
X24803158Y-10900722D01*
X24803158Y-10900722D02*
X24812682Y-10881674D01*
X24812682Y-10881674D02*
X24831730Y-10872150D01*
X24831730Y-10872150D02*
X24860301Y-10872150D01*
X24860301Y-10872150D02*
X24879349Y-10881674D01*
X24955539Y-11081674D02*
X24965063Y-11072150D01*
X24965063Y-11072150D02*
X24984111Y-11043579D01*
X24984111Y-11043579D02*
X24993634Y-11024531D01*
X24993634Y-11024531D02*
X25003158Y-10995960D01*
X25003158Y-10995960D02*
X25012682Y-10948341D01*
X25012682Y-10948341D02*
X25012682Y-10910246D01*
X25012682Y-10910246D02*
X25003158Y-10862627D01*
X25003158Y-10862627D02*
X24993634Y-10834055D01*
X24993634Y-10834055D02*
X24984111Y-10815008D01*
X24984111Y-10815008D02*
X24965063Y-10786436D01*
X24965063Y-10786436D02*
X24955539Y-10776912D01*
D12*
X19940000Y-11128000D02*
X19940000Y-11228000D01*
X19890000Y-11178000D02*
X19990000Y-11178000D01*
D10*
X20355539Y-11269484D02*
X20241253Y-11269484D01*
X20298396Y-11269484D02*
X20298396Y-11069484D01*
X20298396Y-11069484D02*
X20279348Y-11098055D01*
X20279348Y-11098055D02*
X20260301Y-11117103D01*
X20260301Y-11117103D02*
X20241253Y-11126627D01*
X20441253Y-11250436D02*
X20450777Y-11259960D01*
X20450777Y-11259960D02*
X20441253Y-11269484D01*
X20441253Y-11269484D02*
X20431729Y-11259960D01*
X20431729Y-11259960D02*
X20441253Y-11250436D01*
X20441253Y-11250436D02*
X20441253Y-11269484D01*
X20574586Y-11069484D02*
X20593634Y-11069484D01*
X20593634Y-11069484D02*
X20612682Y-11079008D01*
X20612682Y-11079008D02*
X20622205Y-11088531D01*
X20622205Y-11088531D02*
X20631729Y-11107579D01*
X20631729Y-11107579D02*
X20641253Y-11145674D01*
X20641253Y-11145674D02*
X20641253Y-11193293D01*
X20641253Y-11193293D02*
X20631729Y-11231388D01*
X20631729Y-11231388D02*
X20622205Y-11250436D01*
X20622205Y-11250436D02*
X20612682Y-11259960D01*
X20612682Y-11259960D02*
X20593634Y-11269484D01*
X20593634Y-11269484D02*
X20574586Y-11269484D01*
X20574586Y-11269484D02*
X20555539Y-11259960D01*
X20555539Y-11259960D02*
X20546015Y-11250436D01*
X20546015Y-11250436D02*
X20536491Y-11231388D01*
X20536491Y-11231388D02*
X20526967Y-11193293D01*
X20526967Y-11193293D02*
X20526967Y-11145674D01*
X20526967Y-11145674D02*
X20536491Y-11107579D01*
X20536491Y-11107579D02*
X20546015Y-11088531D01*
X20546015Y-11088531D02*
X20555539Y-11079008D01*
X20555539Y-11079008D02*
X20574586Y-11069484D01*
X20765063Y-11069484D02*
X20784110Y-11069484D01*
X20784110Y-11069484D02*
X20803158Y-11079008D01*
X20803158Y-11079008D02*
X20812682Y-11088531D01*
X20812682Y-11088531D02*
X20822205Y-11107579D01*
X20822205Y-11107579D02*
X20831729Y-11145674D01*
X20831729Y-11145674D02*
X20831729Y-11193293D01*
X20831729Y-11193293D02*
X20822205Y-11231388D01*
X20822205Y-11231388D02*
X20812682Y-11250436D01*
X20812682Y-11250436D02*
X20803158Y-11259960D01*
X20803158Y-11259960D02*
X20784110Y-11269484D01*
X20784110Y-11269484D02*
X20765063Y-11269484D01*
X20765063Y-11269484D02*
X20746015Y-11259960D01*
X20746015Y-11259960D02*
X20736491Y-11250436D01*
X20736491Y-11250436D02*
X20726967Y-11231388D01*
X20726967Y-11231388D02*
X20717444Y-11193293D01*
X20717444Y-11193293D02*
X20717444Y-11145674D01*
X20717444Y-11145674D02*
X20726967Y-11107579D01*
X20726967Y-11107579D02*
X20736491Y-11088531D01*
X20736491Y-11088531D02*
X20746015Y-11079008D01*
X20746015Y-11079008D02*
X20765063Y-11069484D01*
X20955539Y-11069484D02*
X20974586Y-11069484D01*
X20974586Y-11069484D02*
X20993634Y-11079008D01*
X20993634Y-11079008D02*
X21003158Y-11088531D01*
X21003158Y-11088531D02*
X21012682Y-11107579D01*
X21012682Y-11107579D02*
X21022205Y-11145674D01*
X21022205Y-11145674D02*
X21022205Y-11193293D01*
X21022205Y-11193293D02*
X21012682Y-11231388D01*
X21012682Y-11231388D02*
X21003158Y-11250436D01*
X21003158Y-11250436D02*
X20993634Y-11259960D01*
X20993634Y-11259960D02*
X20974586Y-11269484D01*
X20974586Y-11269484D02*
X20955539Y-11269484D01*
X20955539Y-11269484D02*
X20936491Y-11259960D01*
X20936491Y-11259960D02*
X20926967Y-11250436D01*
X20926967Y-11250436D02*
X20917444Y-11231388D01*
X20917444Y-11231388D02*
X20907920Y-11193293D01*
X20907920Y-11193293D02*
X20907920Y-11145674D01*
X20907920Y-11145674D02*
X20917444Y-11107579D01*
X20917444Y-11107579D02*
X20926967Y-11088531D01*
X20926967Y-11088531D02*
X20936491Y-11079008D01*
X20936491Y-11079008D02*
X20955539Y-11069484D01*
X21107920Y-11269484D02*
X21107920Y-11136150D01*
X21107920Y-11155198D02*
X21117444Y-11145674D01*
X21117444Y-11145674D02*
X21136491Y-11136150D01*
X21136491Y-11136150D02*
X21165063Y-11136150D01*
X21165063Y-11136150D02*
X21184110Y-11145674D01*
X21184110Y-11145674D02*
X21193634Y-11164722D01*
X21193634Y-11164722D02*
X21193634Y-11269484D01*
X21193634Y-11164722D02*
X21203158Y-11145674D01*
X21203158Y-11145674D02*
X21222205Y-11136150D01*
X21222205Y-11136150D02*
X21250777Y-11136150D01*
X21250777Y-11136150D02*
X21269825Y-11145674D01*
X21269825Y-11145674D02*
X21279348Y-11164722D01*
X21279348Y-11164722D02*
X21279348Y-11269484D01*
X21374586Y-11269484D02*
X21374586Y-11136150D01*
X21374586Y-11155198D02*
X21384110Y-11145674D01*
X21384110Y-11145674D02*
X21403158Y-11136150D01*
X21403158Y-11136150D02*
X21431729Y-11136150D01*
X21431729Y-11136150D02*
X21450777Y-11145674D01*
X21450777Y-11145674D02*
X21460301Y-11164722D01*
X21460301Y-11164722D02*
X21460301Y-11269484D01*
X21460301Y-11164722D02*
X21469825Y-11145674D01*
X21469825Y-11145674D02*
X21488872Y-11136150D01*
X21488872Y-11136150D02*
X21517444Y-11136150D01*
X21517444Y-11136150D02*
X21536491Y-11145674D01*
X21536491Y-11145674D02*
X21546015Y-11164722D01*
X21546015Y-11164722D02*
X21546015Y-11269484D01*
X21936491Y-11059960D02*
X21765063Y-11317103D01*
X22193634Y-11069484D02*
X22212682Y-11069484D01*
X22212682Y-11069484D02*
X22231729Y-11079008D01*
X22231729Y-11079008D02*
X22241253Y-11088531D01*
X22241253Y-11088531D02*
X22250777Y-11107579D01*
X22250777Y-11107579D02*
X22260301Y-11145674D01*
X22260301Y-11145674D02*
X22260301Y-11193293D01*
X22260301Y-11193293D02*
X22250777Y-11231388D01*
X22250777Y-11231388D02*
X22241253Y-11250436D01*
X22241253Y-11250436D02*
X22231729Y-11259960D01*
X22231729Y-11259960D02*
X22212682Y-11269484D01*
X22212682Y-11269484D02*
X22193634Y-11269484D01*
X22193634Y-11269484D02*
X22174587Y-11259960D01*
X22174587Y-11259960D02*
X22165063Y-11250436D01*
X22165063Y-11250436D02*
X22155539Y-11231388D01*
X22155539Y-11231388D02*
X22146015Y-11193293D01*
X22146015Y-11193293D02*
X22146015Y-11145674D01*
X22146015Y-11145674D02*
X22155539Y-11107579D01*
X22155539Y-11107579D02*
X22165063Y-11088531D01*
X22165063Y-11088531D02*
X22174587Y-11079008D01*
X22174587Y-11079008D02*
X22193634Y-11069484D01*
X22346015Y-11250436D02*
X22355539Y-11259960D01*
X22355539Y-11259960D02*
X22346015Y-11269484D01*
X22346015Y-11269484D02*
X22336491Y-11259960D01*
X22336491Y-11259960D02*
X22346015Y-11250436D01*
X22346015Y-11250436D02*
X22346015Y-11269484D01*
X22479348Y-11069484D02*
X22498396Y-11069484D01*
X22498396Y-11069484D02*
X22517444Y-11079008D01*
X22517444Y-11079008D02*
X22526967Y-11088531D01*
X22526967Y-11088531D02*
X22536491Y-11107579D01*
X22536491Y-11107579D02*
X22546015Y-11145674D01*
X22546015Y-11145674D02*
X22546015Y-11193293D01*
X22546015Y-11193293D02*
X22536491Y-11231388D01*
X22536491Y-11231388D02*
X22526967Y-11250436D01*
X22526967Y-11250436D02*
X22517444Y-11259960D01*
X22517444Y-11259960D02*
X22498396Y-11269484D01*
X22498396Y-11269484D02*
X22479348Y-11269484D01*
X22479348Y-11269484D02*
X22460301Y-11259960D01*
X22460301Y-11259960D02*
X22450777Y-11250436D01*
X22450777Y-11250436D02*
X22441253Y-11231388D01*
X22441253Y-11231388D02*
X22431729Y-11193293D01*
X22431729Y-11193293D02*
X22431729Y-11145674D01*
X22431729Y-11145674D02*
X22441253Y-11107579D01*
X22441253Y-11107579D02*
X22450777Y-11088531D01*
X22450777Y-11088531D02*
X22460301Y-11079008D01*
X22460301Y-11079008D02*
X22479348Y-11069484D01*
X22612682Y-11069484D02*
X22736491Y-11069484D01*
X22736491Y-11069484D02*
X22669825Y-11145674D01*
X22669825Y-11145674D02*
X22698396Y-11145674D01*
X22698396Y-11145674D02*
X22717444Y-11155198D01*
X22717444Y-11155198D02*
X22726967Y-11164722D01*
X22726967Y-11164722D02*
X22736491Y-11183770D01*
X22736491Y-11183770D02*
X22736491Y-11231388D01*
X22736491Y-11231388D02*
X22726967Y-11250436D01*
X22726967Y-11250436D02*
X22717444Y-11259960D01*
X22717444Y-11259960D02*
X22698396Y-11269484D01*
X22698396Y-11269484D02*
X22641253Y-11269484D01*
X22641253Y-11269484D02*
X22622206Y-11259960D01*
X22622206Y-11259960D02*
X22612682Y-11250436D01*
X22831729Y-11269484D02*
X22869825Y-11269484D01*
X22869825Y-11269484D02*
X22888872Y-11259960D01*
X22888872Y-11259960D02*
X22898396Y-11250436D01*
X22898396Y-11250436D02*
X22917444Y-11221865D01*
X22917444Y-11221865D02*
X22926967Y-11183770D01*
X22926967Y-11183770D02*
X22926967Y-11107579D01*
X22926967Y-11107579D02*
X22917444Y-11088531D01*
X22917444Y-11088531D02*
X22907920Y-11079008D01*
X22907920Y-11079008D02*
X22888872Y-11069484D01*
X22888872Y-11069484D02*
X22850777Y-11069484D01*
X22850777Y-11069484D02*
X22831729Y-11079008D01*
X22831729Y-11079008D02*
X22822206Y-11088531D01*
X22822206Y-11088531D02*
X22812682Y-11107579D01*
X22812682Y-11107579D02*
X22812682Y-11155198D01*
X22812682Y-11155198D02*
X22822206Y-11174246D01*
X22822206Y-11174246D02*
X22831729Y-11183770D01*
X22831729Y-11183770D02*
X22850777Y-11193293D01*
X22850777Y-11193293D02*
X22888872Y-11193293D01*
X22888872Y-11193293D02*
X22907920Y-11183770D01*
X22907920Y-11183770D02*
X22917444Y-11174246D01*
X22917444Y-11174246D02*
X22926967Y-11155198D01*
X23098396Y-11136150D02*
X23098396Y-11269484D01*
X23050777Y-11059960D02*
X23003158Y-11202817D01*
X23003158Y-11202817D02*
X23126967Y-11202817D01*
X23193634Y-11069484D02*
X23193634Y-11107579D01*
X23269825Y-11069484D02*
X23269825Y-11107579D01*
X23565063Y-11345674D02*
X23555539Y-11336150D01*
X23555539Y-11336150D02*
X23536491Y-11307579D01*
X23536491Y-11307579D02*
X23526968Y-11288531D01*
X23526968Y-11288531D02*
X23517444Y-11259960D01*
X23517444Y-11259960D02*
X23507920Y-11212341D01*
X23507920Y-11212341D02*
X23507920Y-11174246D01*
X23507920Y-11174246D02*
X23517444Y-11126627D01*
X23517444Y-11126627D02*
X23526968Y-11098055D01*
X23526968Y-11098055D02*
X23536491Y-11079008D01*
X23536491Y-11079008D02*
X23555539Y-11050436D01*
X23555539Y-11050436D02*
X23565063Y-11040912D01*
X23736491Y-11069484D02*
X23641253Y-11069484D01*
X23641253Y-11069484D02*
X23631729Y-11164722D01*
X23631729Y-11164722D02*
X23641253Y-11155198D01*
X23641253Y-11155198D02*
X23660301Y-11145674D01*
X23660301Y-11145674D02*
X23707920Y-11145674D01*
X23707920Y-11145674D02*
X23726968Y-11155198D01*
X23726968Y-11155198D02*
X23736491Y-11164722D01*
X23736491Y-11164722D02*
X23746015Y-11183770D01*
X23746015Y-11183770D02*
X23746015Y-11231388D01*
X23746015Y-11231388D02*
X23736491Y-11250436D01*
X23736491Y-11250436D02*
X23726968Y-11259960D01*
X23726968Y-11259960D02*
X23707920Y-11269484D01*
X23707920Y-11269484D02*
X23660301Y-11269484D01*
X23660301Y-11269484D02*
X23641253Y-11259960D01*
X23641253Y-11259960D02*
X23631729Y-11250436D01*
X23917444Y-11136150D02*
X23917444Y-11269484D01*
X23869825Y-11059960D02*
X23822206Y-11202817D01*
X23822206Y-11202817D02*
X23946015Y-11202817D01*
X24050777Y-11155198D02*
X24031729Y-11145674D01*
X24031729Y-11145674D02*
X24022206Y-11136150D01*
X24022206Y-11136150D02*
X24012682Y-11117103D01*
X24012682Y-11117103D02*
X24012682Y-11107579D01*
X24012682Y-11107579D02*
X24022206Y-11088531D01*
X24022206Y-11088531D02*
X24031729Y-11079008D01*
X24031729Y-11079008D02*
X24050777Y-11069484D01*
X24050777Y-11069484D02*
X24088872Y-11069484D01*
X24088872Y-11069484D02*
X24107920Y-11079008D01*
X24107920Y-11079008D02*
X24117444Y-11088531D01*
X24117444Y-11088531D02*
X24126968Y-11107579D01*
X24126968Y-11107579D02*
X24126968Y-11117103D01*
X24126968Y-11117103D02*
X24117444Y-11136150D01*
X24117444Y-11136150D02*
X24107920Y-11145674D01*
X24107920Y-11145674D02*
X24088872Y-11155198D01*
X24088872Y-11155198D02*
X24050777Y-11155198D01*
X24050777Y-11155198D02*
X24031729Y-11164722D01*
X24031729Y-11164722D02*
X24022206Y-11174246D01*
X24022206Y-11174246D02*
X24012682Y-11193293D01*
X24012682Y-11193293D02*
X24012682Y-11231388D01*
X24012682Y-11231388D02*
X24022206Y-11250436D01*
X24022206Y-11250436D02*
X24031729Y-11259960D01*
X24031729Y-11259960D02*
X24050777Y-11269484D01*
X24050777Y-11269484D02*
X24088872Y-11269484D01*
X24088872Y-11269484D02*
X24107920Y-11259960D01*
X24107920Y-11259960D02*
X24117444Y-11250436D01*
X24117444Y-11250436D02*
X24126968Y-11231388D01*
X24126968Y-11231388D02*
X24126968Y-11193293D01*
X24126968Y-11193293D02*
X24117444Y-11174246D01*
X24117444Y-11174246D02*
X24107920Y-11164722D01*
X24107920Y-11164722D02*
X24088872Y-11155198D01*
X24365063Y-11269484D02*
X24365063Y-11069484D01*
X24450777Y-11269484D02*
X24450777Y-11164722D01*
X24450777Y-11164722D02*
X24441253Y-11145674D01*
X24441253Y-11145674D02*
X24422206Y-11136150D01*
X24422206Y-11136150D02*
X24393634Y-11136150D01*
X24393634Y-11136150D02*
X24374587Y-11145674D01*
X24374587Y-11145674D02*
X24365063Y-11155198D01*
X24574587Y-11269484D02*
X24555539Y-11259960D01*
X24555539Y-11259960D02*
X24546015Y-11250436D01*
X24546015Y-11250436D02*
X24536491Y-11231388D01*
X24536491Y-11231388D02*
X24536491Y-11174246D01*
X24536491Y-11174246D02*
X24546015Y-11155198D01*
X24546015Y-11155198D02*
X24555539Y-11145674D01*
X24555539Y-11145674D02*
X24574587Y-11136150D01*
X24574587Y-11136150D02*
X24603158Y-11136150D01*
X24603158Y-11136150D02*
X24622206Y-11145674D01*
X24622206Y-11145674D02*
X24631730Y-11155198D01*
X24631730Y-11155198D02*
X24641253Y-11174246D01*
X24641253Y-11174246D02*
X24641253Y-11231388D01*
X24641253Y-11231388D02*
X24631730Y-11250436D01*
X24631730Y-11250436D02*
X24622206Y-11259960D01*
X24622206Y-11259960D02*
X24603158Y-11269484D01*
X24603158Y-11269484D02*
X24574587Y-11269484D01*
X24755539Y-11269484D02*
X24736491Y-11259960D01*
X24736491Y-11259960D02*
X24726968Y-11240912D01*
X24726968Y-11240912D02*
X24726968Y-11069484D01*
X24907920Y-11259960D02*
X24888872Y-11269484D01*
X24888872Y-11269484D02*
X24850777Y-11269484D01*
X24850777Y-11269484D02*
X24831730Y-11259960D01*
X24831730Y-11259960D02*
X24822206Y-11240912D01*
X24822206Y-11240912D02*
X24822206Y-11164722D01*
X24822206Y-11164722D02*
X24831730Y-11145674D01*
X24831730Y-11145674D02*
X24850777Y-11136150D01*
X24850777Y-11136150D02*
X24888872Y-11136150D01*
X24888872Y-11136150D02*
X24907920Y-11145674D01*
X24907920Y-11145674D02*
X24917444Y-11164722D01*
X24917444Y-11164722D02*
X24917444Y-11183770D01*
X24917444Y-11183770D02*
X24822206Y-11202817D01*
X24993634Y-11259960D02*
X25012682Y-11269484D01*
X25012682Y-11269484D02*
X25050777Y-11269484D01*
X25050777Y-11269484D02*
X25069825Y-11259960D01*
X25069825Y-11259960D02*
X25079349Y-11240912D01*
X25079349Y-11240912D02*
X25079349Y-11231388D01*
X25079349Y-11231388D02*
X25069825Y-11212341D01*
X25069825Y-11212341D02*
X25050777Y-11202817D01*
X25050777Y-11202817D02*
X25022206Y-11202817D01*
X25022206Y-11202817D02*
X25003158Y-11193293D01*
X25003158Y-11193293D02*
X24993634Y-11174246D01*
X24993634Y-11174246D02*
X24993634Y-11164722D01*
X24993634Y-11164722D02*
X25003158Y-11145674D01*
X25003158Y-11145674D02*
X25022206Y-11136150D01*
X25022206Y-11136150D02*
X25050777Y-11136150D01*
X25050777Y-11136150D02*
X25069825Y-11145674D01*
X25146015Y-11345674D02*
X25155539Y-11336150D01*
X25155539Y-11336150D02*
X25174587Y-11307579D01*
X25174587Y-11307579D02*
X25184111Y-11288531D01*
X25184111Y-11288531D02*
X25193634Y-11259960D01*
X25193634Y-11259960D02*
X25203158Y-11212341D01*
X25203158Y-11212341D02*
X25203158Y-11174246D01*
X25203158Y-11174246D02*
X25193634Y-11126627D01*
X25193634Y-11126627D02*
X25184111Y-11098055D01*
X25184111Y-11098055D02*
X25174587Y-11079008D01*
X25174587Y-11079008D02*
X25155539Y-11050436D01*
X25155539Y-11050436D02*
X25146015Y-11040912D01*
M02*
