%TF.GenerationSoftware,KiCad,Pcbnew,9.0.1*%
%TF.CreationDate,2025-05-24T15:04:36+02:00*%
%TF.ProjectId,kleingorium,6b6c6569-6e67-46f7-9269-756d2e6b6963,rev?*%
%TF.SameCoordinates,Original*%
%TF.FileFunction,Soldermask,Top*%
%TF.FilePolarity,Negative*%
%FSLAX46Y46*%
G04 Gerber Fmt 4.6, Leading zero omitted, Abs format (unit mm)*
G04 Created by KiCad (PCBNEW 9.0.1) date 2025-05-24 15:04:36*
%MOMM*%
%LPD*%
G01*
G04 APERTURE LIST*
G04 Aperture macros list*
%AMRoundRect*
0 Rectangle with rounded corners*
0 $1 Rounding radius*
0 $2 $3 $4 $5 $6 $7 $8 $9 X,Y pos of 4 corners*
0 Add a 4 corners polygon primitive as box body*
4,1,4,$2,$3,$4,$5,$6,$7,$8,$9,$2,$3,0*
0 Add four circle primitives for the rounded corners*
1,1,$1+$1,$2,$3*
1,1,$1+$1,$4,$5*
1,1,$1+$1,$6,$7*
1,1,$1+$1,$8,$9*
0 Add four rect primitives between the rounded corners*
20,1,$1+$1,$2,$3,$4,$5,0*
20,1,$1+$1,$4,$5,$6,$7,0*
20,1,$1+$1,$6,$7,$8,$9,0*
20,1,$1+$1,$8,$9,$2,$3,0*%
G04 Aperture macros list end*
%ADD10C,1.700000*%
%ADD11R,1.700000X1.700000*%
%ADD12RoundRect,0.250000X-0.550000X0.550000X-0.550000X-0.550000X0.550000X-0.550000X0.550000X0.550000X0*%
%ADD13C,1.600000*%
%ADD14R,1.500000X1.500000*%
%ADD15C,1.500000*%
%ADD16O,1.600000X1.600000*%
%ADD17RoundRect,0.250000X0.550000X-0.550000X0.550000X0.550000X-0.550000X0.550000X-0.550000X-0.550000X0*%
%ADD18RoundRect,0.250000X-0.650000X0.650000X-0.650000X-0.650000X0.650000X-0.650000X0.650000X0.650000X0*%
%ADD19C,1.800000*%
%ADD20R,1.600000X1.600000*%
%ADD21RoundRect,0.250000X0.650000X-0.650000X0.650000X0.650000X-0.650000X0.650000X-0.650000X-0.650000X0*%
%ADD22RoundRect,0.250000X-0.450000X-0.450000X0.450000X-0.450000X0.450000X0.450000X-0.450000X0.450000X0*%
%ADD23C,1.400000*%
%ADD24RoundRect,0.250000X0.450000X0.450000X-0.450000X0.450000X-0.450000X-0.450000X0.450000X-0.450000X0*%
G04 APERTURE END LIST*
D10*
%TO.C,J24*%
X181140000Y-52140000D03*
D11*
X183680000Y-52140000D03*
%TD*%
D10*
%TO.C,J11*%
X92470000Y-142000000D03*
D11*
X89930000Y-142000000D03*
%TD*%
D10*
%TO.C,J10*%
X100970000Y-142000000D03*
D11*
X98430000Y-142000000D03*
%TD*%
D12*
%TO.C,U12*%
X115940000Y-81855000D03*
D13*
X113400000Y-81855000D03*
X110860000Y-81855000D03*
X108320000Y-81855000D03*
X105780000Y-81855000D03*
X103240000Y-81855000D03*
X100700000Y-81855000D03*
X98160000Y-81855000D03*
X98160000Y-89475000D03*
X100700000Y-89475000D03*
X103240000Y-89475000D03*
X105780000Y-89475000D03*
X108320000Y-89475000D03*
X110860000Y-89475000D03*
X113400000Y-89475000D03*
X115940000Y-89475000D03*
%TD*%
D14*
%TO.C,Q2*%
X177130000Y-69805000D03*
D15*
X174590000Y-69805000D03*
X172050000Y-69805000D03*
%TD*%
D13*
%TO.C,R12*%
X104965000Y-118500000D03*
D16*
X115125000Y-118500000D03*
%TD*%
D13*
%TO.C,C20*%
X120780000Y-68025000D03*
X120780000Y-65525000D03*
%TD*%
D17*
%TO.C,U3*%
X129650000Y-119305000D03*
D13*
X132190000Y-119305000D03*
X134730000Y-119305000D03*
X137270000Y-119305000D03*
X139810000Y-119305000D03*
X142350000Y-119305000D03*
X144890000Y-119305000D03*
X147430000Y-119305000D03*
X147430000Y-111685000D03*
X144890000Y-111685000D03*
X142350000Y-111685000D03*
X139810000Y-111685000D03*
X137270000Y-111685000D03*
X134730000Y-111685000D03*
X132190000Y-111685000D03*
X129650000Y-111685000D03*
%TD*%
%TO.C,R1*%
X145080000Y-124000000D03*
D16*
X134920000Y-124000000D03*
%TD*%
D13*
%TO.C,R10*%
X179610000Y-122810000D03*
D16*
X179610000Y-132970000D03*
%TD*%
D13*
%TO.C,R8*%
X161890000Y-134890000D03*
D16*
X151730000Y-134890000D03*
%TD*%
D13*
%TO.C,R26*%
X173510000Y-80665000D03*
D16*
X183670000Y-80665000D03*
%TD*%
D11*
%TO.C,J2*%
X153105000Y-119045000D03*
D10*
X153105000Y-116505000D03*
X155645000Y-119045000D03*
X155645000Y-116505000D03*
X158185000Y-119045000D03*
X158185000Y-116505000D03*
X160725000Y-119045000D03*
X160725000Y-116505000D03*
X163265000Y-119045000D03*
X163265000Y-116505000D03*
X165805000Y-119045000D03*
X165805000Y-116505000D03*
X168345000Y-119045000D03*
X168345000Y-116505000D03*
X170885000Y-119045000D03*
X170885000Y-116505000D03*
X173425000Y-119045000D03*
X173425000Y-116505000D03*
X175965000Y-119045000D03*
X175965000Y-116505000D03*
X178505000Y-119045000D03*
X178505000Y-116505000D03*
X181045000Y-119045000D03*
X181045000Y-116505000D03*
%TD*%
D13*
%TO.C,C2*%
X130290000Y-122500000D03*
X127790000Y-122500000D03*
%TD*%
%TO.C,R7*%
X180805000Y-102425000D03*
D16*
X180805000Y-112585000D03*
%TD*%
D13*
%TO.C,C1*%
X105000000Y-112500000D03*
X110000000Y-112500000D03*
%TD*%
D18*
%TO.C,R6*%
X142540000Y-140500000D03*
D19*
X145040000Y-140500000D03*
X147540000Y-140500000D03*
%TD*%
D20*
%TO.C,SW3*%
X125950000Y-93650000D03*
D13*
X128450000Y-93650000D03*
X130950000Y-93650000D03*
X125950000Y-96850000D03*
X128450000Y-96850000D03*
X130950000Y-96850000D03*
%TD*%
D11*
%TO.C,J5*%
X137000000Y-133500000D03*
D10*
X139540000Y-133500000D03*
%TD*%
D20*
%TO.C,C10*%
X90129900Y-124250000D03*
D13*
X92629900Y-124250000D03*
%TD*%
D17*
%TO.C,U2*%
X156920000Y-131115000D03*
D13*
X159460000Y-131115000D03*
X162000000Y-131115000D03*
X164540000Y-131115000D03*
X167080000Y-131115000D03*
X169620000Y-131115000D03*
X172160000Y-131115000D03*
X174700000Y-131115000D03*
X174700000Y-123495000D03*
X172160000Y-123495000D03*
X169620000Y-123495000D03*
X167080000Y-123495000D03*
X164540000Y-123495000D03*
X162000000Y-123495000D03*
X159460000Y-123495000D03*
X156920000Y-123495000D03*
%TD*%
D17*
%TO.C,U1*%
X95610000Y-108805000D03*
D13*
X98150000Y-108805000D03*
X100690000Y-108805000D03*
X103230000Y-108805000D03*
X105770000Y-108805000D03*
X108310000Y-108805000D03*
X110850000Y-108805000D03*
X113390000Y-108805000D03*
X113390000Y-101185000D03*
X110850000Y-101185000D03*
X108310000Y-101185000D03*
X105770000Y-101185000D03*
X103230000Y-101185000D03*
X100690000Y-101185000D03*
X98150000Y-101185000D03*
X95610000Y-101185000D03*
%TD*%
D11*
%TO.C,J7*%
X97225000Y-133000000D03*
D10*
X99765000Y-133000000D03*
%TD*%
D20*
%TO.C,SW2*%
X115092500Y-128900000D03*
D13*
X117592500Y-128900000D03*
X120092500Y-128900000D03*
X115092500Y-132100000D03*
X117592500Y-132100000D03*
X120092500Y-132100000D03*
%TD*%
D11*
%TO.C,J9*%
X128195000Y-126500000D03*
D10*
X130735000Y-126500000D03*
%TD*%
D13*
%TO.C,C8*%
X168590000Y-81665000D03*
X163590000Y-81665000D03*
%TD*%
%TO.C,R14*%
X183630000Y-77665000D03*
D16*
X173470000Y-77665000D03*
%TD*%
D11*
%TO.C,J3*%
X176580000Y-101005000D03*
D10*
X174040000Y-101005000D03*
%TD*%
D11*
%TO.C,J15*%
X145395000Y-67665000D03*
D10*
X142855000Y-67665000D03*
%TD*%
D21*
%TO.C,R34*%
X131070000Y-53640000D03*
D19*
X128570000Y-53640000D03*
X126070000Y-53640000D03*
%TD*%
D13*
%TO.C,R2*%
X100080000Y-113500000D03*
D16*
X89920000Y-113500000D03*
%TD*%
D13*
%TO.C,C17*%
X182590000Y-90415000D03*
X182590000Y-87915000D03*
%TD*%
D11*
%TO.C,J22*%
X120400000Y-49500000D03*
D10*
X120400000Y-52040000D03*
X117860000Y-49500000D03*
X117860000Y-52040000D03*
X115320000Y-49500000D03*
X115320000Y-52040000D03*
X112780000Y-49500000D03*
X112780000Y-52040000D03*
X110240000Y-49500000D03*
X110240000Y-52040000D03*
X107700000Y-49500000D03*
X107700000Y-52040000D03*
X105160000Y-49500000D03*
X105160000Y-52040000D03*
X102620000Y-49500000D03*
X102620000Y-52040000D03*
X100080000Y-49500000D03*
X100080000Y-52040000D03*
X97540000Y-49500000D03*
X97540000Y-52040000D03*
X95000000Y-49500000D03*
X95000000Y-52040000D03*
X92460000Y-49500000D03*
X92460000Y-52040000D03*
%TD*%
D11*
%TO.C,J13*%
X167110000Y-52100000D03*
D10*
X167110000Y-54640000D03*
%TD*%
D13*
%TO.C,C19*%
X146590000Y-81415000D03*
X146590000Y-78915000D03*
%TD*%
%TO.C,R9*%
X165230000Y-134890000D03*
D16*
X175390000Y-134890000D03*
%TD*%
D13*
%TO.C,R32*%
X152090000Y-82165000D03*
D16*
X152090000Y-72005000D03*
%TD*%
D12*
%TO.C,U14*%
X116670000Y-63050000D03*
D13*
X114130000Y-63050000D03*
X111590000Y-63050000D03*
X109050000Y-63050000D03*
X106510000Y-63050000D03*
X103970000Y-63050000D03*
X101430000Y-63050000D03*
X98890000Y-63050000D03*
X98890000Y-70670000D03*
X101430000Y-70670000D03*
X103970000Y-70670000D03*
X106510000Y-70670000D03*
X109050000Y-70670000D03*
X111590000Y-70670000D03*
X114130000Y-70670000D03*
X116670000Y-70670000D03*
%TD*%
D20*
%TO.C,SW5*%
X158497500Y-65265000D03*
D13*
X155997500Y-65265000D03*
X153497500Y-65265000D03*
X158497500Y-62065000D03*
X155997500Y-62065000D03*
X153497500Y-62065000D03*
%TD*%
D11*
%TO.C,J14*%
X183680000Y-61140000D03*
D10*
X181140000Y-61140000D03*
%TD*%
D13*
%TO.C,C14*%
X127000000Y-112750000D03*
X127000000Y-115250000D03*
%TD*%
%TO.C,R30*%
X155500000Y-92160000D03*
D16*
X155500000Y-82000000D03*
%TD*%
D13*
%TO.C,C15*%
X91000000Y-103750000D03*
X91000000Y-106250000D03*
%TD*%
%TO.C,R28*%
X108360000Y-59275000D03*
D16*
X98200000Y-59275000D03*
%TD*%
D11*
%TO.C,J6*%
X106500000Y-142040000D03*
D10*
X106500000Y-139500000D03*
%TD*%
D22*
%TO.C,SW1*%
X115000000Y-139357500D03*
D23*
X117500000Y-139357500D03*
X120000000Y-139357500D03*
X120000000Y-142657500D03*
X117500000Y-142657500D03*
X115000000Y-142657500D03*
%TD*%
D11*
%TO.C,J21*%
X120485000Y-75120000D03*
D10*
X120485000Y-77660000D03*
X117945000Y-75120000D03*
X117945000Y-77660000D03*
X115405000Y-75120000D03*
X115405000Y-77660000D03*
X112865000Y-75120000D03*
X112865000Y-77660000D03*
X110325000Y-75120000D03*
X110325000Y-77660000D03*
X107785000Y-75120000D03*
X107785000Y-77660000D03*
X105245000Y-75120000D03*
X105245000Y-77660000D03*
X102705000Y-75120000D03*
X102705000Y-77660000D03*
X100165000Y-75120000D03*
X100165000Y-77660000D03*
X97625000Y-75120000D03*
X97625000Y-77660000D03*
X95085000Y-75120000D03*
X95085000Y-77660000D03*
X92545000Y-75120000D03*
X92545000Y-77660000D03*
%TD*%
D18*
%TO.C,R5*%
X126540000Y-140500000D03*
D19*
X129040000Y-140500000D03*
X131540000Y-140500000D03*
%TD*%
D17*
%TO.C,U4*%
X157650000Y-112310000D03*
D13*
X160190000Y-112310000D03*
X162730000Y-112310000D03*
X165270000Y-112310000D03*
X167810000Y-112310000D03*
X170350000Y-112310000D03*
X172890000Y-112310000D03*
X175430000Y-112310000D03*
X175430000Y-104690000D03*
X172890000Y-104690000D03*
X170350000Y-104690000D03*
X167810000Y-104690000D03*
X165270000Y-104690000D03*
X162730000Y-104690000D03*
X160190000Y-104690000D03*
X157650000Y-104690000D03*
%TD*%
%TO.C,C7*%
X143300000Y-71665000D03*
X145800000Y-71665000D03*
%TD*%
%TO.C,R11*%
X89960000Y-116500000D03*
D16*
X100120000Y-116500000D03*
%TD*%
D11*
%TO.C,J12*%
X144500000Y-128500000D03*
D10*
X147040000Y-128500000D03*
%TD*%
D13*
%TO.C,R27*%
X92785000Y-91740000D03*
D16*
X92785000Y-81580000D03*
%TD*%
D21*
%TO.C,R33*%
X147070000Y-53640000D03*
D19*
X144570000Y-53640000D03*
X142070000Y-53640000D03*
%TD*%
D14*
%TO.C,Q1*%
X96460000Y-124360000D03*
D15*
X99000000Y-124360000D03*
X101540000Y-124360000D03*
%TD*%
D11*
%TO.C,J4*%
X129500000Y-133805000D03*
D10*
X132040000Y-133805000D03*
%TD*%
D12*
%TO.C,U15*%
X177980000Y-85360000D03*
D13*
X175440000Y-85360000D03*
X172900000Y-85360000D03*
X170360000Y-85360000D03*
X167820000Y-85360000D03*
X165280000Y-85360000D03*
X162740000Y-85360000D03*
X160200000Y-85360000D03*
X160200000Y-92980000D03*
X162740000Y-92980000D03*
X165280000Y-92980000D03*
X167820000Y-92980000D03*
X170360000Y-92980000D03*
X172900000Y-92980000D03*
X175440000Y-92980000D03*
X177980000Y-92980000D03*
%TD*%
%TO.C,R3*%
X121500000Y-112000000D03*
D16*
X121500000Y-122160000D03*
%TD*%
D13*
%TO.C,R31*%
X111700000Y-59275000D03*
D16*
X121860000Y-59275000D03*
%TD*%
D13*
%TO.C,R29*%
X128510000Y-70165000D03*
D16*
X138670000Y-70165000D03*
%TD*%
D11*
%TO.C,J16*%
X136590000Y-60665000D03*
D10*
X134050000Y-60665000D03*
%TD*%
D13*
%TO.C,C9*%
X129145000Y-57860000D03*
X126645000Y-57860000D03*
%TD*%
%TO.C,C16*%
X120785000Y-87160000D03*
X120785000Y-84660000D03*
%TD*%
D20*
%TO.C,C18*%
X183805113Y-73000000D03*
D13*
X181305113Y-73000000D03*
%TD*%
%TO.C,R25*%
X93980000Y-71355000D03*
D16*
X93980000Y-61195000D03*
%TD*%
D11*
%TO.C,J19*%
X144090000Y-60360000D03*
D10*
X141550000Y-60360000D03*
%TD*%
D13*
%TO.C,C3*%
X144445000Y-136305000D03*
X146945000Y-136305000D03*
%TD*%
%TO.C,C12*%
X152805000Y-107005000D03*
X152805000Y-109505000D03*
%TD*%
D24*
%TO.C,SW4*%
X158590000Y-54807500D03*
D23*
X156090000Y-54807500D03*
X153590000Y-54807500D03*
X153590000Y-51507500D03*
X156090000Y-51507500D03*
X158590000Y-51507500D03*
%TD*%
D17*
%TO.C,U5*%
X132500000Y-108000000D03*
D13*
X135040000Y-108000000D03*
X137580000Y-108000000D03*
X140120000Y-108000000D03*
X142660000Y-108000000D03*
X145200000Y-108000000D03*
X147740000Y-108000000D03*
X147740000Y-100380000D03*
X145200000Y-100380000D03*
X142660000Y-100380000D03*
X140120000Y-100380000D03*
X137580000Y-100380000D03*
X135040000Y-100380000D03*
X132500000Y-100380000D03*
%TD*%
%TO.C,C11*%
X128000000Y-103250000D03*
X128000000Y-105750000D03*
%TD*%
D11*
%TO.C,J17*%
X176385000Y-61140000D03*
D10*
X173845000Y-61140000D03*
%TD*%
D11*
%TO.C,J20*%
X97010000Y-93160000D03*
D10*
X99550000Y-93160000D03*
%TD*%
D13*
%TO.C,R13*%
X168580000Y-75665000D03*
D16*
X158420000Y-75665000D03*
%TD*%
D11*
%TO.C,J18*%
X129090000Y-65665000D03*
D10*
X126550000Y-65665000D03*
%TD*%
D11*
%TO.C,J8*%
X89930000Y-133000000D03*
D10*
X92470000Y-133000000D03*
%TD*%
D11*
%TO.C,J23*%
X175180000Y-52140000D03*
D10*
X172640000Y-52140000D03*
%TD*%
D12*
%TO.C,U13*%
X143940000Y-74860000D03*
D13*
X141400000Y-74860000D03*
X138860000Y-74860000D03*
X136320000Y-74860000D03*
X133780000Y-74860000D03*
X131240000Y-74860000D03*
X128700000Y-74860000D03*
X126160000Y-74860000D03*
X126160000Y-82480000D03*
X128700000Y-82480000D03*
X131240000Y-82480000D03*
X133780000Y-82480000D03*
X136320000Y-82480000D03*
X138860000Y-82480000D03*
X141400000Y-82480000D03*
X143940000Y-82480000D03*
%TD*%
%TO.C,C13*%
X152810000Y-126140000D03*
X152810000Y-128640000D03*
%TD*%
%TO.C,R4*%
X118000000Y-101920000D03*
D16*
X118000000Y-112080000D03*
%TD*%
D11*
%TO.C,J1*%
X153190000Y-144665000D03*
D10*
X153190000Y-142125000D03*
X155730000Y-144665000D03*
X155730000Y-142125000D03*
X158270000Y-144665000D03*
X158270000Y-142125000D03*
X160810000Y-144665000D03*
X160810000Y-142125000D03*
X163350000Y-144665000D03*
X163350000Y-142125000D03*
X165890000Y-144665000D03*
X165890000Y-142125000D03*
X168430000Y-144665000D03*
X168430000Y-142125000D03*
X170970000Y-144665000D03*
X170970000Y-142125000D03*
X173510000Y-144665000D03*
X173510000Y-142125000D03*
X176050000Y-144665000D03*
X176050000Y-142125000D03*
X178590000Y-144665000D03*
X178590000Y-142125000D03*
X181130000Y-144665000D03*
X181130000Y-142125000D03*
%TD*%
M02*
