%TF.GenerationSoftware,KiCad,Pcbnew,10.0.0*%
%TF.CreationDate,2026-04-22T13:07:32+02:00*%
%TF.ProjectId,kleingorium,6b6c6569-6e67-46f7-9269-756d2e6b6963,rev?*%
%TF.SameCoordinates,Original*%
%TF.FileFunction,Drillmap*%
%TF.FilePolarity,Positive*%
%FSLAX45Y45*%
G04 Gerber Fmt 4.5, Leading zero omitted, Abs format (unit mm)*
G04 Created by KiCad (PCBNEW 10.0.0) date 2026-04-22 13:07:32*
%MOMM*%
%LPD*%
G01*
G04 APERTURE LIST*
%ADD10C,0.200000*%
%ADD11C,0.050000*%
%ADD12C,0.100000*%
G04 APERTURE END LIST*
D10*
X-10489Y0D02*
X9989511Y0D01*
X9989511Y-10000000D01*
X-10489Y-10000000D01*
X-10489Y0D01*
D11*
X664511Y-1000000D02*
G75*
G02*
X314511Y-1000000I-175000J0D01*
G01*
X314511Y-1000000D02*
G75*
G02*
X664511Y-1000000I175000J0D01*
G01*
X675000Y-9000000D02*
G75*
G02*
X325000Y-9000000I-175000J0D01*
G01*
X325000Y-9000000D02*
G75*
G02*
X675000Y-9000000I175000J0D01*
G01*
X9675000Y-9000000D02*
G75*
G02*
X9325000Y-9000000I-175000J0D01*
G01*
X9325000Y-9000000D02*
G75*
G02*
X9675000Y-9000000I175000J0D01*
G01*
D10*
D12*
X930000Y-1830000D02*
X970000Y-1870000D01*
X970000Y-1830000D02*
X930000Y-1870000D01*
X3390000Y-8970000D02*
X3430000Y-9010000D01*
X3430000Y-8970000D02*
X3390000Y-9010000D01*
X3490000Y-9090000D02*
X3530000Y-9130000D01*
X3530000Y-9090000D02*
X3490000Y-9130000D01*
X3569511Y-9280000D02*
X3609511Y-9320000D01*
X3609511Y-9280000D02*
X3569511Y-9320000D01*
X3620000Y-730000D02*
X3660000Y-770000D01*
X3660000Y-730000D02*
X3620000Y-770000D01*
X4310000Y-5740000D02*
X4350000Y-5780000D01*
X4350000Y-5740000D02*
X4310000Y-5780000D01*
X4430000Y-9230000D02*
X4470000Y-9270000D01*
X4470000Y-9230000D02*
X4430000Y-9270000D01*
X5500000Y-730000D02*
X5540000Y-770000D01*
X5540000Y-730000D02*
X5500000Y-770000D01*
X5681044Y-2969916D02*
X5721044Y-3009916D01*
X5721044Y-2969916D02*
X5681044Y-3009916D01*
X6090000Y-2310000D02*
X6130000Y-2350000D01*
X6130000Y-2310000D02*
X6090000Y-2350000D01*
X6110000Y-1630000D02*
X6150000Y-1670000D01*
X6150000Y-1630000D02*
X6110000Y-1670000D01*
X6330000Y-9230000D02*
X6370000Y-9270000D01*
X6370000Y-9230000D02*
X6330000Y-9270000D01*
X6380000Y-680000D02*
X6420000Y-720000D01*
X6420000Y-680000D02*
X6380000Y-720000D01*
X6480000Y-1030000D02*
X6520000Y-1070000D01*
X6520000Y-1030000D02*
X6480000Y-1070000D01*
X6610000Y-1400000D02*
X6650000Y-1440000D01*
X6650000Y-1400000D02*
X6610000Y-1440000D01*
X6700000Y-5630000D02*
X6740000Y-5670000D01*
X6740000Y-5630000D02*
X6700000Y-5670000D01*
X6769511Y-1880000D02*
X6809511Y-1920000D01*
X6809511Y-1880000D02*
X6769511Y-1920000D01*
X7319511Y-1380000D02*
X7359511Y-1420000D01*
X7359511Y-1380000D02*
X7319511Y-1420000D01*
X7430000Y-1520000D02*
X7470000Y-1560000D01*
X7470000Y-1520000D02*
X7430000Y-1560000D01*
X8990000Y-8100000D02*
X9030000Y-8140000D01*
X9030000Y-8100000D02*
X8990000Y-8140000D01*
X279511Y-1392000D02*
G75*
G02*
X199511Y-1392000I-40000J0D01*
G01*
X199511Y-1392000D02*
G75*
G02*
X279511Y-1392000I40000J0D01*
G01*
X279511Y-2408000D02*
G75*
G02*
X199511Y-2408000I-40000J0D01*
G01*
X199511Y-2408000D02*
G75*
G02*
X279511Y-2408000I40000J0D01*
G01*
X390000Y-7500000D02*
G75*
G02*
X310000Y-7500000I-40000J0D01*
G01*
X310000Y-7500000D02*
G75*
G02*
X390000Y-7500000I40000J0D01*
G01*
X390000Y-7754000D02*
G75*
G02*
X310000Y-7754000I-40000J0D01*
G01*
X310000Y-7754000D02*
G75*
G02*
X390000Y-7754000I40000J0D01*
G01*
X390000Y-8008000D02*
G75*
G02*
X310000Y-8008000I-40000J0D01*
G01*
X310000Y-8008000D02*
G75*
G02*
X390000Y-8008000I40000J0D01*
G01*
X529511Y-6450000D02*
G75*
G02*
X449511Y-6450000I-40000J0D01*
G01*
X449511Y-6450000D02*
G75*
G02*
X529511Y-6450000I40000J0D01*
G01*
X529511Y-6700000D02*
G75*
G02*
X449511Y-6700000I-40000J0D01*
G01*
X449511Y-6700000D02*
G75*
G02*
X529511Y-6700000I40000J0D01*
G01*
X729511Y-3750000D02*
G75*
G02*
X649511Y-3750000I-40000J0D01*
G01*
X649511Y-3750000D02*
G75*
G02*
X729511Y-3750000I40000J0D01*
G01*
X729511Y-4000000D02*
G75*
G02*
X649511Y-4000000I-40000J0D01*
G01*
X649511Y-4000000D02*
G75*
G02*
X729511Y-4000000I40000J0D01*
G01*
X832000Y-6188000D02*
G75*
G02*
X752000Y-6188000I-40000J0D01*
G01*
X752000Y-6188000D02*
G75*
G02*
X832000Y-6188000I40000J0D01*
G01*
X832000Y-6950000D02*
G75*
G02*
X752000Y-6950000I-40000J0D01*
G01*
X752000Y-6950000D02*
G75*
G02*
X832000Y-6950000I40000J0D01*
G01*
X950023Y-9050000D02*
G75*
G02*
X870023Y-9050000I-40000J0D01*
G01*
X870023Y-9050000D02*
G75*
G02*
X950023Y-9050000I40000J0D01*
G01*
X982000Y-7650000D02*
G75*
G02*
X902000Y-7650000I-40000J0D01*
G01*
X902000Y-7650000D02*
G75*
G02*
X982000Y-7650000I40000J0D01*
G01*
X990511Y-3518500D02*
G75*
G02*
X910511Y-3518500I-40000J0D01*
G01*
X910511Y-3518500D02*
G75*
G02*
X990511Y-3518500I40000J0D01*
G01*
X990511Y-4280500D02*
G75*
G02*
X910511Y-4280500I-40000J0D01*
G01*
X910511Y-4280500D02*
G75*
G02*
X990511Y-4280500I40000J0D01*
G01*
X1021511Y-1050000D02*
G75*
G02*
X941511Y-1050000I-40000J0D01*
G01*
X941511Y-1050000D02*
G75*
G02*
X1021511Y-1050000I40000J0D01*
G01*
X1086000Y-6188000D02*
G75*
G02*
X1006000Y-6188000I-40000J0D01*
G01*
X1006000Y-6188000D02*
G75*
G02*
X1086000Y-6188000I40000J0D01*
G01*
X1086000Y-6950000D02*
G75*
G02*
X1006000Y-6950000I-40000J0D01*
G01*
X1006000Y-6950000D02*
G75*
G02*
X1086000Y-6950000I40000J0D01*
G01*
X1117511Y-1388000D02*
G75*
G02*
X1037511Y-1388000I-40000J0D01*
G01*
X1037511Y-1388000D02*
G75*
G02*
X1117511Y-1388000I40000J0D01*
G01*
X1117511Y-2150000D02*
G75*
G02*
X1037511Y-2150000I-40000J0D01*
G01*
X1037511Y-2150000D02*
G75*
G02*
X1117511Y-2150000I40000J0D01*
G01*
X1140000Y-5450000D02*
G75*
G02*
X1060000Y-5450000I-40000J0D01*
G01*
X1060000Y-5450000D02*
G75*
G02*
X1140000Y-5450000I40000J0D01*
G01*
X1140000Y-5770000D02*
G75*
G02*
X1060000Y-5770000I-40000J0D01*
G01*
X1060000Y-5770000D02*
G75*
G02*
X1140000Y-5770000I40000J0D01*
G01*
X1200023Y-9050000D02*
G75*
G02*
X1120023Y-9050000I-40000J0D01*
G01*
X1120023Y-9050000D02*
G75*
G02*
X1200023Y-9050000I40000J0D01*
G01*
X1240000Y-8050000D02*
G75*
G02*
X1160000Y-8050000I-40000J0D01*
G01*
X1160000Y-8050000D02*
G75*
G02*
X1240000Y-8050000I40000J0D01*
G01*
X1244511Y-3518500D02*
G75*
G02*
X1164511Y-3518500I-40000J0D01*
G01*
X1164511Y-3518500D02*
G75*
G02*
X1244511Y-3518500I40000J0D01*
G01*
X1244511Y-4280500D02*
G75*
G02*
X1164511Y-4280500I-40000J0D01*
G01*
X1164511Y-4280500D02*
G75*
G02*
X1244511Y-4280500I40000J0D01*
G01*
X1340000Y-6188000D02*
G75*
G02*
X1260000Y-6188000I-40000J0D01*
G01*
X1260000Y-6188000D02*
G75*
G02*
X1340000Y-6188000I40000J0D01*
G01*
X1340000Y-6950000D02*
G75*
G02*
X1260000Y-6950000I-40000J0D01*
G01*
X1260000Y-6950000D02*
G75*
G02*
X1340000Y-6950000I40000J0D01*
G01*
X1371511Y-1388000D02*
G75*
G02*
X1291511Y-1388000I-40000J0D01*
G01*
X1291511Y-1388000D02*
G75*
G02*
X1371511Y-1388000I40000J0D01*
G01*
X1371511Y-2150000D02*
G75*
G02*
X1291511Y-2150000I-40000J0D01*
G01*
X1291511Y-2150000D02*
G75*
G02*
X1371511Y-2150000I40000J0D01*
G01*
X1390000Y-5450000D02*
G75*
G02*
X1310000Y-5450000I-40000J0D01*
G01*
X1310000Y-5450000D02*
G75*
G02*
X1390000Y-5450000I40000J0D01*
G01*
X1390000Y-5770000D02*
G75*
G02*
X1310000Y-5770000I-40000J0D01*
G01*
X1310000Y-5770000D02*
G75*
G02*
X1390000Y-5770000I40000J0D01*
G01*
X1498511Y-3518500D02*
G75*
G02*
X1418511Y-3518500I-40000J0D01*
G01*
X1418511Y-3518500D02*
G75*
G02*
X1498511Y-3518500I40000J0D01*
G01*
X1498511Y-4280500D02*
G75*
G02*
X1418511Y-4280500I-40000J0D01*
G01*
X1418511Y-4280500D02*
G75*
G02*
X1498511Y-4280500I40000J0D01*
G01*
X1594000Y-6188000D02*
G75*
G02*
X1514000Y-6188000I-40000J0D01*
G01*
X1514000Y-6188000D02*
G75*
G02*
X1594000Y-6188000I40000J0D01*
G01*
X1594000Y-6950000D02*
G75*
G02*
X1514000Y-6950000I-40000J0D01*
G01*
X1514000Y-6950000D02*
G75*
G02*
X1594000Y-6950000I40000J0D01*
G01*
X1625511Y-1388000D02*
G75*
G02*
X1545511Y-1388000I-40000J0D01*
G01*
X1545511Y-1388000D02*
G75*
G02*
X1625511Y-1388000I40000J0D01*
G01*
X1625511Y-2150000D02*
G75*
G02*
X1545511Y-2150000I-40000J0D01*
G01*
X1545511Y-2150000D02*
G75*
G02*
X1625511Y-2150000I40000J0D01*
G01*
X1640000Y-5450000D02*
G75*
G02*
X1560000Y-5450000I-40000J0D01*
G01*
X1560000Y-5450000D02*
G75*
G02*
X1640000Y-5450000I40000J0D01*
G01*
X1640000Y-5770000D02*
G75*
G02*
X1560000Y-5770000I-40000J0D01*
G01*
X1560000Y-5770000D02*
G75*
G02*
X1640000Y-5770000I40000J0D01*
G01*
X1740000Y-8050000D02*
G75*
G02*
X1660000Y-8050000I-40000J0D01*
G01*
X1660000Y-8050000D02*
G75*
G02*
X1740000Y-8050000I40000J0D01*
G01*
X1752511Y-3518500D02*
G75*
G02*
X1672511Y-3518500I-40000J0D01*
G01*
X1672511Y-3518500D02*
G75*
G02*
X1752511Y-3518500I40000J0D01*
G01*
X1752511Y-4280500D02*
G75*
G02*
X1672511Y-4280500I-40000J0D01*
G01*
X1672511Y-4280500D02*
G75*
G02*
X1752511Y-4280500I40000J0D01*
G01*
X1848000Y-6188000D02*
G75*
G02*
X1768000Y-6188000I-40000J0D01*
G01*
X1768000Y-6188000D02*
G75*
G02*
X1848000Y-6188000I40000J0D01*
G01*
X1848000Y-6950000D02*
G75*
G02*
X1768000Y-6950000I-40000J0D01*
G01*
X1768000Y-6950000D02*
G75*
G02*
X1848000Y-6950000I40000J0D01*
G01*
X1879511Y-1388000D02*
G75*
G02*
X1799511Y-1388000I-40000J0D01*
G01*
X1799511Y-1388000D02*
G75*
G02*
X1879511Y-1388000I40000J0D01*
G01*
X1879511Y-2150000D02*
G75*
G02*
X1799511Y-2150000I-40000J0D01*
G01*
X1799511Y-2150000D02*
G75*
G02*
X1879511Y-2150000I40000J0D01*
G01*
X1886000Y-8586000D02*
G75*
G02*
X1806000Y-8586000I-40000J0D01*
G01*
X1806000Y-8586000D02*
G75*
G02*
X1886000Y-8586000I40000J0D01*
G01*
X1940000Y-7250000D02*
G75*
G02*
X1860000Y-7250000I-40000J0D01*
G01*
X1860000Y-7250000D02*
G75*
G02*
X1940000Y-7250000I40000J0D01*
G01*
X1979511Y-4600000D02*
G75*
G02*
X1899511Y-4600000I-40000J0D01*
G01*
X1899511Y-4600000D02*
G75*
G02*
X1979511Y-4600000I40000J0D01*
G01*
X1998000Y-7650000D02*
G75*
G02*
X1918000Y-7650000I-40000J0D01*
G01*
X1918000Y-7650000D02*
G75*
G02*
X1998000Y-7650000I40000J0D01*
G01*
X2006511Y-3518500D02*
G75*
G02*
X1926511Y-3518500I-40000J0D01*
G01*
X1926511Y-3518500D02*
G75*
G02*
X2006511Y-3518500I40000J0D01*
G01*
X2006511Y-4280500D02*
G75*
G02*
X1926511Y-4280500I-40000J0D01*
G01*
X1926511Y-4280500D02*
G75*
G02*
X2006511Y-4280500I40000J0D01*
G01*
X2037511Y-1050000D02*
G75*
G02*
X1957511Y-1050000I-40000J0D01*
G01*
X1957511Y-1050000D02*
G75*
G02*
X2037511Y-1050000I40000J0D01*
G01*
X2102000Y-6188000D02*
G75*
G02*
X2022000Y-6188000I-40000J0D01*
G01*
X2022000Y-6188000D02*
G75*
G02*
X2102000Y-6188000I40000J0D01*
G01*
X2102000Y-6950000D02*
G75*
G02*
X2022000Y-6950000I-40000J0D01*
G01*
X2022000Y-6950000D02*
G75*
G02*
X2102000Y-6950000I40000J0D01*
G01*
X2133511Y-1388000D02*
G75*
G02*
X2053511Y-1388000I-40000J0D01*
G01*
X2053511Y-1388000D02*
G75*
G02*
X2133511Y-1388000I40000J0D01*
G01*
X2133511Y-2150000D02*
G75*
G02*
X2053511Y-2150000I-40000J0D01*
G01*
X2053511Y-2150000D02*
G75*
G02*
X2133511Y-2150000I40000J0D01*
G01*
X2136000Y-8086000D02*
G75*
G02*
X2056000Y-8086000I-40000J0D01*
G01*
X2056000Y-8086000D02*
G75*
G02*
X2136000Y-8086000I40000J0D01*
G01*
X2140000Y-8586000D02*
G75*
G02*
X2060000Y-8586000I-40000J0D01*
G01*
X2060000Y-8586000D02*
G75*
G02*
X2140000Y-8586000I40000J0D01*
G01*
X2171511Y-2450000D02*
G75*
G02*
X2091511Y-2450000I-40000J0D01*
G01*
X2091511Y-2450000D02*
G75*
G02*
X2171511Y-2450000I40000J0D01*
G01*
X2182000Y-5800000D02*
G75*
G02*
X2102000Y-5800000I-40000J0D01*
G01*
X2102000Y-5800000D02*
G75*
G02*
X2182000Y-5800000I40000J0D01*
G01*
X2260511Y-3518500D02*
G75*
G02*
X2180511Y-3518500I-40000J0D01*
G01*
X2180511Y-3518500D02*
G75*
G02*
X2260511Y-3518500I40000J0D01*
G01*
X2260511Y-4280500D02*
G75*
G02*
X2180511Y-4280500I-40000J0D01*
G01*
X2180511Y-4280500D02*
G75*
G02*
X2260511Y-4280500I40000J0D01*
G01*
X2356000Y-6188000D02*
G75*
G02*
X2276000Y-6188000I-40000J0D01*
G01*
X2276000Y-6188000D02*
G75*
G02*
X2356000Y-6188000I40000J0D01*
G01*
X2356000Y-6950000D02*
G75*
G02*
X2276000Y-6950000I-40000J0D01*
G01*
X2276000Y-6950000D02*
G75*
G02*
X2356000Y-6950000I40000J0D01*
G01*
X2387511Y-1388000D02*
G75*
G02*
X2307511Y-1388000I-40000J0D01*
G01*
X2307511Y-1388000D02*
G75*
G02*
X2387511Y-1388000I40000J0D01*
G01*
X2387511Y-2150000D02*
G75*
G02*
X2307511Y-2150000I-40000J0D01*
G01*
X2307511Y-2150000D02*
G75*
G02*
X2387511Y-2150000I40000J0D01*
G01*
X2390000Y-8086000D02*
G75*
G02*
X2310000Y-8086000I-40000J0D01*
G01*
X2310000Y-8086000D02*
G75*
G02*
X2390000Y-8086000I40000J0D01*
G01*
X2394000Y-8586000D02*
G75*
G02*
X2314000Y-8586000I-40000J0D01*
G01*
X2314000Y-8586000D02*
G75*
G02*
X2394000Y-8586000I40000J0D01*
G01*
X2440000Y-7250000D02*
G75*
G02*
X2360000Y-7250000I-40000J0D01*
G01*
X2360000Y-7250000D02*
G75*
G02*
X2440000Y-7250000I40000J0D01*
G01*
X2514511Y-3518500D02*
G75*
G02*
X2434511Y-3518500I-40000J0D01*
G01*
X2434511Y-3518500D02*
G75*
G02*
X2514511Y-3518500I40000J0D01*
G01*
X2514511Y-4280500D02*
G75*
G02*
X2434511Y-4280500I-40000J0D01*
G01*
X2434511Y-4280500D02*
G75*
G02*
X2514511Y-4280500I40000J0D01*
G01*
X2521511Y-1050000D02*
G75*
G02*
X2441511Y-1050000I-40000J0D01*
G01*
X2441511Y-1050000D02*
G75*
G02*
X2521511Y-1050000I40000J0D01*
G01*
X2532000Y-7550000D02*
G75*
G02*
X2452000Y-7550000I-40000J0D01*
G01*
X2452000Y-7550000D02*
G75*
G02*
X2532000Y-7550000I40000J0D01*
G01*
X2610000Y-6188000D02*
G75*
G02*
X2530000Y-6188000I-40000J0D01*
G01*
X2530000Y-6188000D02*
G75*
G02*
X2610000Y-6188000I40000J0D01*
G01*
X2610000Y-6950000D02*
G75*
G02*
X2530000Y-6950000I-40000J0D01*
G01*
X2530000Y-6950000D02*
G75*
G02*
X2610000Y-6950000I40000J0D01*
G01*
X2641511Y-1388000D02*
G75*
G02*
X2561511Y-1388000I-40000J0D01*
G01*
X2561511Y-1388000D02*
G75*
G02*
X2641511Y-1388000I40000J0D01*
G01*
X2641511Y-2150000D02*
G75*
G02*
X2561511Y-2150000I-40000J0D01*
G01*
X2561511Y-2150000D02*
G75*
G02*
X2641511Y-2150000I40000J0D01*
G01*
X2644000Y-8086000D02*
G75*
G02*
X2564000Y-8086000I-40000J0D01*
G01*
X2564000Y-8086000D02*
G75*
G02*
X2644000Y-8086000I40000J0D01*
G01*
X2768511Y-3518500D02*
G75*
G02*
X2688511Y-3518500I-40000J0D01*
G01*
X2688511Y-3518500D02*
G75*
G02*
X2768511Y-3518500I40000J0D01*
G01*
X2768511Y-4280500D02*
G75*
G02*
X2688511Y-4280500I-40000J0D01*
G01*
X2688511Y-4280500D02*
G75*
G02*
X2768511Y-4280500I40000J0D01*
G01*
X2840000Y-8800000D02*
G75*
G02*
X2760000Y-8800000I-40000J0D01*
G01*
X2760000Y-8800000D02*
G75*
G02*
X2840000Y-8800000I40000J0D01*
G01*
X2840000Y-9120000D02*
G75*
G02*
X2760000Y-9120000I-40000J0D01*
G01*
X2760000Y-9120000D02*
G75*
G02*
X2840000Y-9120000I40000J0D01*
G01*
X2895511Y-1388000D02*
G75*
G02*
X2815511Y-1388000I-40000J0D01*
G01*
X2815511Y-1388000D02*
G75*
G02*
X2895511Y-1388000I40000J0D01*
G01*
X2895511Y-2150000D02*
G75*
G02*
X2815511Y-2150000I-40000J0D01*
G01*
X2815511Y-2150000D02*
G75*
G02*
X2895511Y-2150000I40000J0D01*
G01*
X2995511Y-4600000D02*
G75*
G02*
X2915511Y-4600000I-40000J0D01*
G01*
X2915511Y-4600000D02*
G75*
G02*
X2995511Y-4600000I40000J0D01*
G01*
X3090000Y-8800000D02*
G75*
G02*
X3010000Y-8800000I-40000J0D01*
G01*
X3010000Y-8800000D02*
G75*
G02*
X3090000Y-8800000I40000J0D01*
G01*
X3090000Y-9120000D02*
G75*
G02*
X3010000Y-9120000I-40000J0D01*
G01*
X3010000Y-9120000D02*
G75*
G02*
X3090000Y-9120000I40000J0D01*
G01*
X3179511Y-1625000D02*
G75*
G02*
X3099511Y-1625000I-40000J0D01*
G01*
X3099511Y-1625000D02*
G75*
G02*
X3179511Y-1625000I40000J0D01*
G01*
X3179511Y-1875000D02*
G75*
G02*
X3099511Y-1875000I-40000J0D01*
G01*
X3099511Y-1875000D02*
G75*
G02*
X3179511Y-1875000I40000J0D01*
G01*
X3187511Y-2450000D02*
G75*
G02*
X3107511Y-2450000I-40000J0D01*
G01*
X3107511Y-2450000D02*
G75*
G02*
X3187511Y-2450000I40000J0D01*
G01*
X3198000Y-5800000D02*
G75*
G02*
X3118000Y-5800000I-40000J0D01*
G01*
X3118000Y-5800000D02*
G75*
G02*
X3198000Y-5800000I40000J0D01*
G01*
X3340000Y-8800000D02*
G75*
G02*
X3260000Y-8800000I-40000J0D01*
G01*
X3260000Y-8800000D02*
G75*
G02*
X3340000Y-8800000I40000J0D01*
G01*
X3340000Y-9120000D02*
G75*
G02*
X3260000Y-9120000I-40000J0D01*
G01*
X3260000Y-9120000D02*
G75*
G02*
X3340000Y-9120000I40000J0D01*
G01*
X3432000Y-6930000D02*
G75*
G02*
X3352000Y-6930000I-40000J0D01*
G01*
X3352000Y-6930000D02*
G75*
G02*
X3432000Y-6930000I40000J0D01*
G01*
X3529511Y-1392000D02*
G75*
G02*
X3449511Y-1392000I-40000J0D01*
G01*
X3449511Y-1392000D02*
G75*
G02*
X3529511Y-1392000I40000J0D01*
G01*
X3529511Y-2408000D02*
G75*
G02*
X3449511Y-2408000I-40000J0D01*
G01*
X3449511Y-2408000D02*
G75*
G02*
X3529511Y-2408000I40000J0D01*
G01*
X3529511Y-5534000D02*
G75*
G02*
X3449511Y-5534000I-40000J0D01*
G01*
X3449511Y-5534000D02*
G75*
G02*
X3529511Y-5534000I40000J0D01*
G01*
X3529511Y-6550000D02*
G75*
G02*
X3449511Y-6550000I-40000J0D01*
G01*
X3449511Y-6550000D02*
G75*
G02*
X3529511Y-6550000I40000J0D01*
G01*
X3537511Y-1050000D02*
G75*
G02*
X3457511Y-1050000I-40000J0D01*
G01*
X3457511Y-1050000D02*
G75*
G02*
X3537511Y-1050000I40000J0D01*
G01*
X3548000Y-7550000D02*
G75*
G02*
X3468000Y-7550000I-40000J0D01*
G01*
X3468000Y-7550000D02*
G75*
G02*
X3548000Y-7550000I40000J0D01*
G01*
X3590000Y-4700000D02*
G75*
G02*
X3510000Y-4700000I-40000J0D01*
G01*
X3510000Y-4700000D02*
G75*
G02*
X3590000Y-4700000I40000J0D01*
G01*
X3590000Y-5020000D02*
G75*
G02*
X3510000Y-5020000I-40000J0D01*
G01*
X3510000Y-5020000D02*
G75*
G02*
X3590000Y-5020000I40000J0D01*
G01*
X3821511Y-3900000D02*
G75*
G02*
X3741511Y-3900000I-40000J0D01*
G01*
X3741511Y-3900000D02*
G75*
G02*
X3821511Y-3900000I40000J0D01*
G01*
X3840000Y-4700000D02*
G75*
G02*
X3760000Y-4700000I-40000J0D01*
G01*
X3760000Y-4700000D02*
G75*
G02*
X3840000Y-4700000I40000J0D01*
G01*
X3840000Y-5020000D02*
G75*
G02*
X3760000Y-5020000I-40000J0D01*
G01*
X3760000Y-5020000D02*
G75*
G02*
X3840000Y-5020000I40000J0D01*
G01*
X3879511Y-2292000D02*
G75*
G02*
X3799511Y-2292000I-40000J0D01*
G01*
X3799511Y-2292000D02*
G75*
G02*
X3879511Y-2292000I40000J0D01*
G01*
X3879511Y-3308000D02*
G75*
G02*
X3799511Y-3308000I-40000J0D01*
G01*
X3799511Y-3308000D02*
G75*
G02*
X3879511Y-3308000I40000J0D01*
G01*
X3879511Y-5550000D02*
G75*
G02*
X3799511Y-5550000I-40000J0D01*
G01*
X3799511Y-5550000D02*
G75*
G02*
X3879511Y-5550000I40000J0D01*
G01*
X3879511Y-5800000D02*
G75*
G02*
X3799511Y-5800000I-40000J0D01*
G01*
X3799511Y-5800000D02*
G75*
G02*
X3879511Y-5800000I40000J0D01*
G01*
X4090000Y-4700000D02*
G75*
G02*
X4010000Y-4700000I-40000J0D01*
G01*
X4010000Y-4700000D02*
G75*
G02*
X4090000Y-4700000I40000J0D01*
G01*
X4090000Y-5020000D02*
G75*
G02*
X4010000Y-5020000I-40000J0D01*
G01*
X4010000Y-5020000D02*
G75*
G02*
X4090000Y-5020000I40000J0D01*
G01*
X4151000Y-5288000D02*
G75*
G02*
X4071000Y-5288000I-40000J0D01*
G01*
X4071000Y-5288000D02*
G75*
G02*
X4151000Y-5288000I40000J0D01*
G01*
X4151000Y-6050000D02*
G75*
G02*
X4071000Y-6050000I-40000J0D01*
G01*
X4071000Y-6050000D02*
G75*
G02*
X4151000Y-6050000I40000J0D01*
G01*
X4405000Y-5288000D02*
G75*
G02*
X4325000Y-5288000I-40000J0D01*
G01*
X4325000Y-5288000D02*
G75*
G02*
X4405000Y-5288000I40000J0D01*
G01*
X4405000Y-6050000D02*
G75*
G02*
X4325000Y-6050000I-40000J0D01*
G01*
X4325000Y-6050000D02*
G75*
G02*
X4405000Y-6050000I40000J0D01*
G01*
X4448000Y-6930000D02*
G75*
G02*
X4368000Y-6930000I-40000J0D01*
G01*
X4368000Y-6930000D02*
G75*
G02*
X4448000Y-6930000I40000J0D01*
G01*
X4628000Y-7261000D02*
G75*
G02*
X4548000Y-7261000I-40000J0D01*
G01*
X4548000Y-7261000D02*
G75*
G02*
X4628000Y-7261000I40000J0D01*
G01*
X4628000Y-7515000D02*
G75*
G02*
X4548000Y-7515000I-40000J0D01*
G01*
X4548000Y-7515000D02*
G75*
G02*
X4628000Y-7515000I40000J0D01*
G01*
X4628000Y-7769000D02*
G75*
G02*
X4548000Y-7769000I-40000J0D01*
G01*
X4548000Y-7769000D02*
G75*
G02*
X4628000Y-7769000I40000J0D01*
G01*
X4628000Y-8023000D02*
G75*
G02*
X4548000Y-8023000I-40000J0D01*
G01*
X4548000Y-8023000D02*
G75*
G02*
X4628000Y-8023000I40000J0D01*
G01*
X4628000Y-8277000D02*
G75*
G02*
X4548000Y-8277000I-40000J0D01*
G01*
X4548000Y-8277000D02*
G75*
G02*
X4628000Y-8277000I40000J0D01*
G01*
X4628000Y-8531000D02*
G75*
G02*
X4548000Y-8531000I-40000J0D01*
G01*
X4548000Y-8531000D02*
G75*
G02*
X4628000Y-8531000I40000J0D01*
G01*
X4628000Y-8785000D02*
G75*
G02*
X4548000Y-8785000I-40000J0D01*
G01*
X4548000Y-8785000D02*
G75*
G02*
X4628000Y-8785000I40000J0D01*
G01*
X4628000Y-9039000D02*
G75*
G02*
X4548000Y-9039000I-40000J0D01*
G01*
X4548000Y-9039000D02*
G75*
G02*
X4628000Y-9039000I40000J0D01*
G01*
X4659000Y-5288000D02*
G75*
G02*
X4579000Y-5288000I-40000J0D01*
G01*
X4579000Y-5288000D02*
G75*
G02*
X4659000Y-5288000I40000J0D01*
G01*
X4659000Y-6050000D02*
G75*
G02*
X4579000Y-6050000I-40000J0D01*
G01*
X4579000Y-6050000D02*
G75*
G02*
X4659000Y-6050000I40000J0D01*
G01*
X4679511Y-961000D02*
G75*
G02*
X4599511Y-961000I-40000J0D01*
G01*
X4599511Y-961000D02*
G75*
G02*
X4679511Y-961000I40000J0D01*
G01*
X4679511Y-1215000D02*
G75*
G02*
X4599511Y-1215000I-40000J0D01*
G01*
X4599511Y-1215000D02*
G75*
G02*
X4679511Y-1215000I40000J0D01*
G01*
X4679511Y-1469000D02*
G75*
G02*
X4599511Y-1469000I-40000J0D01*
G01*
X4599511Y-1469000D02*
G75*
G02*
X4679511Y-1469000I40000J0D01*
G01*
X4679511Y-1723000D02*
G75*
G02*
X4599511Y-1723000I-40000J0D01*
G01*
X4599511Y-1723000D02*
G75*
G02*
X4679511Y-1723000I40000J0D01*
G01*
X4679511Y-1977000D02*
G75*
G02*
X4599511Y-1977000I-40000J0D01*
G01*
X4599511Y-1977000D02*
G75*
G02*
X4679511Y-1977000I40000J0D01*
G01*
X4679511Y-2231000D02*
G75*
G02*
X4599511Y-2231000I-40000J0D01*
G01*
X4599511Y-2231000D02*
G75*
G02*
X4679511Y-2231000I40000J0D01*
G01*
X4679511Y-2485000D02*
G75*
G02*
X4599511Y-2485000I-40000J0D01*
G01*
X4599511Y-2485000D02*
G75*
G02*
X4679511Y-2485000I40000J0D01*
G01*
X4679511Y-2739000D02*
G75*
G02*
X4599511Y-2739000I-40000J0D01*
G01*
X4599511Y-2739000D02*
G75*
G02*
X4679511Y-2739000I40000J0D01*
G01*
X4729511Y-4250000D02*
G75*
G02*
X4649511Y-4250000I-40000J0D01*
G01*
X4649511Y-4250000D02*
G75*
G02*
X4729511Y-4250000I40000J0D01*
G01*
X4750000Y-9350000D02*
G75*
G02*
X4670000Y-9350000I-40000J0D01*
G01*
X4670000Y-9350000D02*
G75*
G02*
X4750000Y-9350000I40000J0D01*
G01*
X4820000Y-650000D02*
G75*
G02*
X4740000Y-650000I-40000J0D01*
G01*
X4740000Y-650000D02*
G75*
G02*
X4820000Y-650000I40000J0D01*
G01*
X4837511Y-3900000D02*
G75*
G02*
X4757511Y-3900000I-40000J0D01*
G01*
X4757511Y-3900000D02*
G75*
G02*
X4837511Y-3900000I40000J0D01*
G01*
X4904511Y-7000000D02*
G75*
G02*
X4824511Y-7000000I-40000J0D01*
G01*
X4824511Y-7000000D02*
G75*
G02*
X4904511Y-7000000I40000J0D01*
G01*
X4913000Y-5288000D02*
G75*
G02*
X4833000Y-5288000I-40000J0D01*
G01*
X4833000Y-5288000D02*
G75*
G02*
X4913000Y-5288000I40000J0D01*
G01*
X4913000Y-6050000D02*
G75*
G02*
X4833000Y-6050000I-40000J0D01*
G01*
X4833000Y-6050000D02*
G75*
G02*
X4913000Y-6050000I40000J0D01*
G01*
X4929511Y-3000000D02*
G75*
G02*
X4849511Y-3000000I-40000J0D01*
G01*
X4849511Y-3000000D02*
G75*
G02*
X4929511Y-3000000I40000J0D01*
G01*
X5154511Y-7000000D02*
G75*
G02*
X5074511Y-7000000I-40000J0D01*
G01*
X5074511Y-7000000D02*
G75*
G02*
X5154511Y-7000000I40000J0D01*
G01*
X5167000Y-5288000D02*
G75*
G02*
X5087000Y-5288000I-40000J0D01*
G01*
X5087000Y-5288000D02*
G75*
G02*
X5167000Y-5288000I40000J0D01*
G01*
X5167000Y-6050000D02*
G75*
G02*
X5087000Y-6050000I-40000J0D01*
G01*
X5087000Y-6050000D02*
G75*
G02*
X5167000Y-6050000I40000J0D01*
G01*
X5179511Y-3000000D02*
G75*
G02*
X5099511Y-3000000I-40000J0D01*
G01*
X5099511Y-3000000D02*
G75*
G02*
X5179511Y-3000000I40000J0D01*
G01*
X5250000Y-9350000D02*
G75*
G02*
X5170000Y-9350000I-40000J0D01*
G01*
X5170000Y-9350000D02*
G75*
G02*
X5250000Y-9350000I40000J0D01*
G01*
X5320000Y-650000D02*
G75*
G02*
X5240000Y-650000I-40000J0D01*
G01*
X5240000Y-650000D02*
G75*
G02*
X5320000Y-650000I40000J0D01*
G01*
X5390000Y-7261000D02*
G75*
G02*
X5310000Y-7261000I-40000J0D01*
G01*
X5310000Y-7261000D02*
G75*
G02*
X5390000Y-7261000I40000J0D01*
G01*
X5390000Y-7515000D02*
G75*
G02*
X5310000Y-7515000I-40000J0D01*
G01*
X5310000Y-7515000D02*
G75*
G02*
X5390000Y-7515000I40000J0D01*
G01*
X5390000Y-7769000D02*
G75*
G02*
X5310000Y-7769000I-40000J0D01*
G01*
X5310000Y-7769000D02*
G75*
G02*
X5390000Y-7769000I40000J0D01*
G01*
X5390000Y-8023000D02*
G75*
G02*
X5310000Y-8023000I-40000J0D01*
G01*
X5310000Y-8023000D02*
G75*
G02*
X5390000Y-8023000I40000J0D01*
G01*
X5390000Y-8277000D02*
G75*
G02*
X5310000Y-8277000I-40000J0D01*
G01*
X5310000Y-8277000D02*
G75*
G02*
X5390000Y-8277000I40000J0D01*
G01*
X5390000Y-8531000D02*
G75*
G02*
X5310000Y-8531000I-40000J0D01*
G01*
X5310000Y-8531000D02*
G75*
G02*
X5390000Y-8531000I40000J0D01*
G01*
X5390000Y-8785000D02*
G75*
G02*
X5310000Y-8785000I-40000J0D01*
G01*
X5310000Y-8785000D02*
G75*
G02*
X5390000Y-8785000I40000J0D01*
G01*
X5390000Y-9039000D02*
G75*
G02*
X5310000Y-9039000I-40000J0D01*
G01*
X5310000Y-9039000D02*
G75*
G02*
X5390000Y-9039000I40000J0D01*
G01*
X5421000Y-5288000D02*
G75*
G02*
X5341000Y-5288000I-40000J0D01*
G01*
X5341000Y-5288000D02*
G75*
G02*
X5421000Y-5288000I40000J0D01*
G01*
X5421000Y-6050000D02*
G75*
G02*
X5341000Y-6050000I-40000J0D01*
G01*
X5341000Y-6050000D02*
G75*
G02*
X5421000Y-6050000I40000J0D01*
G01*
X5441511Y-961000D02*
G75*
G02*
X5361511Y-961000I-40000J0D01*
G01*
X5361511Y-961000D02*
G75*
G02*
X5441511Y-961000I40000J0D01*
G01*
X5441511Y-1215000D02*
G75*
G02*
X5361511Y-1215000I-40000J0D01*
G01*
X5361511Y-1215000D02*
G75*
G02*
X5441511Y-1215000I40000J0D01*
G01*
X5441511Y-1469000D02*
G75*
G02*
X5361511Y-1469000I-40000J0D01*
G01*
X5361511Y-1469000D02*
G75*
G02*
X5441511Y-1469000I40000J0D01*
G01*
X5441511Y-1723000D02*
G75*
G02*
X5361511Y-1723000I-40000J0D01*
G01*
X5361511Y-1723000D02*
G75*
G02*
X5441511Y-1723000I40000J0D01*
G01*
X5441511Y-1977000D02*
G75*
G02*
X5361511Y-1977000I-40000J0D01*
G01*
X5361511Y-1977000D02*
G75*
G02*
X5441511Y-1977000I40000J0D01*
G01*
X5441511Y-2231000D02*
G75*
G02*
X5361511Y-2231000I-40000J0D01*
G01*
X5361511Y-2231000D02*
G75*
G02*
X5441511Y-2231000I40000J0D01*
G01*
X5441511Y-2485000D02*
G75*
G02*
X5361511Y-2485000I-40000J0D01*
G01*
X5361511Y-2485000D02*
G75*
G02*
X5441511Y-2485000I40000J0D01*
G01*
X5441511Y-2739000D02*
G75*
G02*
X5361511Y-2739000I-40000J0D01*
G01*
X5361511Y-2739000D02*
G75*
G02*
X5441511Y-2739000I40000J0D01*
G01*
X5675000Y-5288000D02*
G75*
G02*
X5595000Y-5288000I-40000J0D01*
G01*
X5595000Y-5288000D02*
G75*
G02*
X5675000Y-5288000I40000J0D01*
G01*
X5675000Y-6050000D02*
G75*
G02*
X5595000Y-6050000I-40000J0D01*
G01*
X5595000Y-6050000D02*
G75*
G02*
X5675000Y-6050000I40000J0D01*
G01*
X5745511Y-4250000D02*
G75*
G02*
X5665511Y-4250000I-40000J0D01*
G01*
X5665511Y-4250000D02*
G75*
G02*
X5745511Y-4250000I40000J0D01*
G01*
X5929000Y-5288000D02*
G75*
G02*
X5849000Y-5288000I-40000J0D01*
G01*
X5849000Y-5288000D02*
G75*
G02*
X5929000Y-5288000I40000J0D01*
G01*
X5929000Y-6050000D02*
G75*
G02*
X5849000Y-6050000I-40000J0D01*
G01*
X5849000Y-6050000D02*
G75*
G02*
X5929000Y-6050000I40000J0D01*
G01*
X5979511Y-2442000D02*
G75*
G02*
X5899511Y-2442000I-40000J0D01*
G01*
X5899511Y-2442000D02*
G75*
G02*
X5979511Y-2442000I40000J0D01*
G01*
X5979511Y-3458000D02*
G75*
G02*
X5899511Y-3458000I-40000J0D01*
G01*
X5899511Y-3458000D02*
G75*
G02*
X5979511Y-3458000I40000J0D01*
G01*
X6279511Y-5292000D02*
G75*
G02*
X6199511Y-5292000I-40000J0D01*
G01*
X6199511Y-5292000D02*
G75*
G02*
X6279511Y-5292000I40000J0D01*
G01*
X6279511Y-6308000D02*
G75*
G02*
X6199511Y-6308000I-40000J0D01*
G01*
X6199511Y-6308000D02*
G75*
G02*
X6279511Y-6308000I40000J0D01*
G01*
X6471511Y-4950000D02*
G75*
G02*
X6391511Y-4950000I-40000J0D01*
G01*
X6391511Y-4950000D02*
G75*
G02*
X6471511Y-4950000I40000J0D01*
G01*
X6521511Y-2450000D02*
G75*
G02*
X6441511Y-2450000I-40000J0D01*
G01*
X6441511Y-2450000D02*
G75*
G02*
X6521511Y-2450000I40000J0D01*
G01*
X6532000Y-8950000D02*
G75*
G02*
X6452000Y-8950000I-40000J0D01*
G01*
X6452000Y-8950000D02*
G75*
G02*
X6532000Y-8950000I40000J0D01*
G01*
X6540000Y-7592000D02*
G75*
G02*
X6460000Y-7592000I-40000J0D01*
G01*
X6460000Y-7592000D02*
G75*
G02*
X6540000Y-7592000I40000J0D01*
G01*
X6540000Y-8608000D02*
G75*
G02*
X6460000Y-8608000I-40000J0D01*
G01*
X6460000Y-8608000D02*
G75*
G02*
X6540000Y-8608000I40000J0D01*
G01*
X6729511Y-880000D02*
G75*
G02*
X6649511Y-880000I-40000J0D01*
G01*
X6649511Y-880000D02*
G75*
G02*
X6729511Y-880000I40000J0D01*
G01*
X6729511Y-1200000D02*
G75*
G02*
X6649511Y-1200000I-40000J0D01*
G01*
X6649511Y-1200000D02*
G75*
G02*
X6729511Y-1200000I40000J0D01*
G01*
X6871511Y-4200000D02*
G75*
G02*
X6791511Y-4200000I-40000J0D01*
G01*
X6791511Y-4200000D02*
G75*
G02*
X6871511Y-4200000I40000J0D01*
G01*
X6879511Y-8100000D02*
G75*
G02*
X6799511Y-8100000I-40000J0D01*
G01*
X6799511Y-8100000D02*
G75*
G02*
X6879511Y-8100000I40000J0D01*
G01*
X6879511Y-8350000D02*
G75*
G02*
X6799511Y-8350000I-40000J0D01*
G01*
X6799511Y-8350000D02*
G75*
G02*
X6879511Y-8350000I40000J0D01*
G01*
X6882000Y-7550000D02*
G75*
G02*
X6802000Y-7550000I-40000J0D01*
G01*
X6802000Y-7550000D02*
G75*
G02*
X6882000Y-7550000I40000J0D01*
G01*
X6979511Y-880000D02*
G75*
G02*
X6899511Y-880000I-40000J0D01*
G01*
X6899511Y-880000D02*
G75*
G02*
X6979511Y-880000I40000J0D01*
G01*
X6979511Y-1200000D02*
G75*
G02*
X6899511Y-1200000I-40000J0D01*
G01*
X6899511Y-1200000D02*
G75*
G02*
X6979511Y-1200000I40000J0D01*
G01*
X7074000Y-5400000D02*
G75*
G02*
X6994000Y-5400000I-40000J0D01*
G01*
X6994000Y-5400000D02*
G75*
G02*
X7074000Y-5400000I40000J0D01*
G01*
X7174000Y-7850000D02*
G75*
G02*
X7094000Y-7850000I-40000J0D01*
G01*
X7094000Y-7850000D02*
G75*
G02*
X7174000Y-7850000I40000J0D01*
G01*
X7174000Y-8612000D02*
G75*
G02*
X7094000Y-8612000I-40000J0D01*
G01*
X7094000Y-8612000D02*
G75*
G02*
X7174000Y-8612000I40000J0D01*
G01*
X7229511Y-880000D02*
G75*
G02*
X7149511Y-880000I-40000J0D01*
G01*
X7149511Y-880000D02*
G75*
G02*
X7229511Y-880000I40000J0D01*
G01*
X7229511Y-1200000D02*
G75*
G02*
X7149511Y-1200000I-40000J0D01*
G01*
X7149511Y-1200000D02*
G75*
G02*
X7229511Y-1200000I40000J0D01*
G01*
X7301000Y-5719500D02*
G75*
G02*
X7221000Y-5719500I-40000J0D01*
G01*
X7221000Y-5719500D02*
G75*
G02*
X7301000Y-5719500I40000J0D01*
G01*
X7301000Y-6481500D02*
G75*
G02*
X7221000Y-6481500I-40000J0D01*
G01*
X7221000Y-6481500D02*
G75*
G02*
X7301000Y-6481500I40000J0D01*
G01*
X7425511Y-1914000D02*
G75*
G02*
X7345511Y-1914000I-40000J0D01*
G01*
X7345511Y-1914000D02*
G75*
G02*
X7425511Y-1914000I40000J0D01*
G01*
X7428000Y-7850000D02*
G75*
G02*
X7348000Y-7850000I-40000J0D01*
G01*
X7348000Y-7850000D02*
G75*
G02*
X7428000Y-7850000I40000J0D01*
G01*
X7428000Y-8612000D02*
G75*
G02*
X7348000Y-8612000I-40000J0D01*
G01*
X7348000Y-8612000D02*
G75*
G02*
X7428000Y-8612000I40000J0D01*
G01*
X7459511Y-3050000D02*
G75*
G02*
X7379511Y-3050000I-40000J0D01*
G01*
X7379511Y-3050000D02*
G75*
G02*
X7459511Y-3050000I40000J0D01*
G01*
X7459511Y-3812000D02*
G75*
G02*
X7379511Y-3812000I-40000J0D01*
G01*
X7379511Y-3812000D02*
G75*
G02*
X7459511Y-3812000I40000J0D01*
G01*
X7487511Y-4950000D02*
G75*
G02*
X7407511Y-4950000I-40000J0D01*
G01*
X7407511Y-4950000D02*
G75*
G02*
X7487511Y-4950000I40000J0D01*
G01*
X7537511Y-2450000D02*
G75*
G02*
X7457511Y-2450000I-40000J0D01*
G01*
X7457511Y-2450000D02*
G75*
G02*
X7537511Y-2450000I40000J0D01*
G01*
X7548000Y-8950000D02*
G75*
G02*
X7468000Y-8950000I-40000J0D01*
G01*
X7468000Y-8950000D02*
G75*
G02*
X7548000Y-8950000I40000J0D01*
G01*
X7555000Y-5719500D02*
G75*
G02*
X7475000Y-5719500I-40000J0D01*
G01*
X7475000Y-5719500D02*
G75*
G02*
X7555000Y-5719500I40000J0D01*
G01*
X7555000Y-6481500D02*
G75*
G02*
X7475000Y-6481500I-40000J0D01*
G01*
X7475000Y-6481500D02*
G75*
G02*
X7555000Y-6481500I40000J0D01*
G01*
X7629511Y-2750000D02*
G75*
G02*
X7549511Y-2750000I-40000J0D01*
G01*
X7549511Y-2750000D02*
G75*
G02*
X7629511Y-2750000I40000J0D01*
G01*
X7675511Y-1414000D02*
G75*
G02*
X7595511Y-1414000I-40000J0D01*
G01*
X7595511Y-1414000D02*
G75*
G02*
X7675511Y-1414000I40000J0D01*
G01*
X7679511Y-1914000D02*
G75*
G02*
X7599511Y-1914000I-40000J0D01*
G01*
X7599511Y-1914000D02*
G75*
G02*
X7679511Y-1914000I40000J0D01*
G01*
X7682000Y-7850000D02*
G75*
G02*
X7602000Y-7850000I-40000J0D01*
G01*
X7602000Y-7850000D02*
G75*
G02*
X7682000Y-7850000I40000J0D01*
G01*
X7682000Y-8612000D02*
G75*
G02*
X7602000Y-8612000I-40000J0D01*
G01*
X7602000Y-8612000D02*
G75*
G02*
X7682000Y-8612000I40000J0D01*
G01*
X7713511Y-3050000D02*
G75*
G02*
X7633511Y-3050000I-40000J0D01*
G01*
X7633511Y-3050000D02*
G75*
G02*
X7713511Y-3050000I40000J0D01*
G01*
X7713511Y-3812000D02*
G75*
G02*
X7633511Y-3812000I-40000J0D01*
G01*
X7633511Y-3812000D02*
G75*
G02*
X7713511Y-3812000I40000J0D01*
G01*
X7809000Y-5719500D02*
G75*
G02*
X7729000Y-5719500I-40000J0D01*
G01*
X7729000Y-5719500D02*
G75*
G02*
X7809000Y-5719500I40000J0D01*
G01*
X7809000Y-6481500D02*
G75*
G02*
X7729000Y-6481500I-40000J0D01*
G01*
X7729000Y-6481500D02*
G75*
G02*
X7809000Y-6481500I40000J0D01*
G01*
X7887511Y-4200000D02*
G75*
G02*
X7807511Y-4200000I-40000J0D01*
G01*
X7807511Y-4200000D02*
G75*
G02*
X7887511Y-4200000I40000J0D01*
G01*
X7898000Y-7550000D02*
G75*
G02*
X7818000Y-7550000I-40000J0D01*
G01*
X7818000Y-7550000D02*
G75*
G02*
X7898000Y-7550000I40000J0D01*
G01*
X7929511Y-1414000D02*
G75*
G02*
X7849511Y-1414000I-40000J0D01*
G01*
X7849511Y-1414000D02*
G75*
G02*
X7929511Y-1414000I40000J0D01*
G01*
X7933511Y-1914000D02*
G75*
G02*
X7853511Y-1914000I-40000J0D01*
G01*
X7853511Y-1914000D02*
G75*
G02*
X7933511Y-1914000I40000J0D01*
G01*
X7936000Y-7850000D02*
G75*
G02*
X7856000Y-7850000I-40000J0D01*
G01*
X7856000Y-7850000D02*
G75*
G02*
X7936000Y-7850000I40000J0D01*
G01*
X7936000Y-8612000D02*
G75*
G02*
X7856000Y-8612000I-40000J0D01*
G01*
X7856000Y-8612000D02*
G75*
G02*
X7936000Y-8612000I40000J0D01*
G01*
X7967511Y-3050000D02*
G75*
G02*
X7887511Y-3050000I-40000J0D01*
G01*
X7887511Y-3050000D02*
G75*
G02*
X7967511Y-3050000I40000J0D01*
G01*
X7967511Y-3812000D02*
G75*
G02*
X7887511Y-3812000I-40000J0D01*
G01*
X7887511Y-3812000D02*
G75*
G02*
X7967511Y-3812000I40000J0D01*
G01*
X8032000Y-8950000D02*
G75*
G02*
X7952000Y-8950000I-40000J0D01*
G01*
X7952000Y-8950000D02*
G75*
G02*
X8032000Y-8950000I40000J0D01*
G01*
X8063000Y-5719500D02*
G75*
G02*
X7983000Y-5719500I-40000J0D01*
G01*
X7983000Y-5719500D02*
G75*
G02*
X8063000Y-5719500I40000J0D01*
G01*
X8063000Y-6481500D02*
G75*
G02*
X7983000Y-6481500I-40000J0D01*
G01*
X7983000Y-6481500D02*
G75*
G02*
X8063000Y-6481500I40000J0D01*
G01*
X8071511Y-2350000D02*
G75*
G02*
X7991511Y-2350000I-40000J0D01*
G01*
X7991511Y-2350000D02*
G75*
G02*
X8071511Y-2350000I40000J0D01*
G01*
X8090000Y-5400000D02*
G75*
G02*
X8010000Y-5400000I-40000J0D01*
G01*
X8010000Y-5400000D02*
G75*
G02*
X8090000Y-5400000I40000J0D01*
G01*
X8129511Y-2750000D02*
G75*
G02*
X8049511Y-2750000I-40000J0D01*
G01*
X8049511Y-2750000D02*
G75*
G02*
X8129511Y-2750000I40000J0D01*
G01*
X8183511Y-1414000D02*
G75*
G02*
X8103511Y-1414000I-40000J0D01*
G01*
X8103511Y-1414000D02*
G75*
G02*
X8183511Y-1414000I40000J0D01*
G01*
X8190000Y-7850000D02*
G75*
G02*
X8110000Y-7850000I-40000J0D01*
G01*
X8110000Y-7850000D02*
G75*
G02*
X8190000Y-7850000I40000J0D01*
G01*
X8190000Y-8612000D02*
G75*
G02*
X8110000Y-8612000I-40000J0D01*
G01*
X8110000Y-8612000D02*
G75*
G02*
X8190000Y-8612000I40000J0D01*
G01*
X8221511Y-3050000D02*
G75*
G02*
X8141511Y-3050000I-40000J0D01*
G01*
X8141511Y-3050000D02*
G75*
G02*
X8221511Y-3050000I40000J0D01*
G01*
X8221511Y-3812000D02*
G75*
G02*
X8141511Y-3812000I-40000J0D01*
G01*
X8141511Y-3812000D02*
G75*
G02*
X8221511Y-3812000I40000J0D01*
G01*
X8317000Y-5719500D02*
G75*
G02*
X8237000Y-5719500I-40000J0D01*
G01*
X8237000Y-5719500D02*
G75*
G02*
X8317000Y-5719500I40000J0D01*
G01*
X8317000Y-6481500D02*
G75*
G02*
X8237000Y-6481500I-40000J0D01*
G01*
X8237000Y-6481500D02*
G75*
G02*
X8317000Y-6481500I40000J0D01*
G01*
X8329511Y-1950000D02*
G75*
G02*
X8249511Y-1950000I-40000J0D01*
G01*
X8249511Y-1950000D02*
G75*
G02*
X8329511Y-1950000I40000J0D01*
G01*
X8429511Y-4230000D02*
G75*
G02*
X8349511Y-4230000I-40000J0D01*
G01*
X8349511Y-4230000D02*
G75*
G02*
X8429511Y-4230000I40000J0D01*
G01*
X8429511Y-4550000D02*
G75*
G02*
X8349511Y-4550000I-40000J0D01*
G01*
X8349511Y-4550000D02*
G75*
G02*
X8429511Y-4550000I40000J0D01*
G01*
X8444000Y-7850000D02*
G75*
G02*
X8364000Y-7850000I-40000J0D01*
G01*
X8364000Y-7850000D02*
G75*
G02*
X8444000Y-7850000I40000J0D01*
G01*
X8444000Y-8612000D02*
G75*
G02*
X8364000Y-8612000I-40000J0D01*
G01*
X8364000Y-8612000D02*
G75*
G02*
X8444000Y-8612000I40000J0D01*
G01*
X8475511Y-3050000D02*
G75*
G02*
X8395511Y-3050000I-40000J0D01*
G01*
X8395511Y-3050000D02*
G75*
G02*
X8475511Y-3050000I40000J0D01*
G01*
X8475511Y-3812000D02*
G75*
G02*
X8395511Y-3812000I-40000J0D01*
G01*
X8395511Y-3812000D02*
G75*
G02*
X8475511Y-3812000I40000J0D01*
G01*
X8571000Y-5719500D02*
G75*
G02*
X8491000Y-5719500I-40000J0D01*
G01*
X8491000Y-5719500D02*
G75*
G02*
X8571000Y-5719500I40000J0D01*
G01*
X8571000Y-6481500D02*
G75*
G02*
X8491000Y-6481500I-40000J0D01*
G01*
X8491000Y-6481500D02*
G75*
G02*
X8571000Y-6481500I40000J0D01*
G01*
X8679511Y-4230000D02*
G75*
G02*
X8599511Y-4230000I-40000J0D01*
G01*
X8599511Y-4230000D02*
G75*
G02*
X8679511Y-4230000I40000J0D01*
G01*
X8679511Y-4550000D02*
G75*
G02*
X8599511Y-4550000I-40000J0D01*
G01*
X8599511Y-4550000D02*
G75*
G02*
X8679511Y-4550000I40000J0D01*
G01*
X8698000Y-7850000D02*
G75*
G02*
X8618000Y-7850000I-40000J0D01*
G01*
X8618000Y-7850000D02*
G75*
G02*
X8698000Y-7850000I40000J0D01*
G01*
X8698000Y-8612000D02*
G75*
G02*
X8618000Y-8612000I-40000J0D01*
G01*
X8618000Y-8612000D02*
G75*
G02*
X8698000Y-8612000I40000J0D01*
G01*
X8729511Y-3050000D02*
G75*
G02*
X8649511Y-3050000I-40000J0D01*
G01*
X8649511Y-3050000D02*
G75*
G02*
X8729511Y-3050000I40000J0D01*
G01*
X8729511Y-3812000D02*
G75*
G02*
X8649511Y-3812000I-40000J0D01*
G01*
X8649511Y-3812000D02*
G75*
G02*
X8729511Y-3812000I40000J0D01*
G01*
X8825000Y-5719500D02*
G75*
G02*
X8745000Y-5719500I-40000J0D01*
G01*
X8745000Y-5719500D02*
G75*
G02*
X8825000Y-5719500I40000J0D01*
G01*
X8825000Y-6481500D02*
G75*
G02*
X8745000Y-6481500I-40000J0D01*
G01*
X8745000Y-6481500D02*
G75*
G02*
X8825000Y-6481500I40000J0D01*
G01*
X8829511Y-1950000D02*
G75*
G02*
X8749511Y-1950000I-40000J0D01*
G01*
X8749511Y-1950000D02*
G75*
G02*
X8829511Y-1950000I40000J0D01*
G01*
X8859000Y-1050000D02*
G75*
G02*
X8779000Y-1050000I-40000J0D01*
G01*
X8779000Y-1050000D02*
G75*
G02*
X8859000Y-1050000I40000J0D01*
G01*
X8929511Y-4230000D02*
G75*
G02*
X8849511Y-4230000I-40000J0D01*
G01*
X8849511Y-4230000D02*
G75*
G02*
X8929511Y-4230000I40000J0D01*
G01*
X8929511Y-4550000D02*
G75*
G02*
X8849511Y-4550000I-40000J0D01*
G01*
X8849511Y-4550000D02*
G75*
G02*
X8929511Y-4550000I40000J0D01*
G01*
X8952000Y-7850000D02*
G75*
G02*
X8872000Y-7850000I-40000J0D01*
G01*
X8872000Y-7850000D02*
G75*
G02*
X8952000Y-7850000I40000J0D01*
G01*
X8952000Y-8612000D02*
G75*
G02*
X8872000Y-8612000I-40000J0D01*
G01*
X8872000Y-8612000D02*
G75*
G02*
X8952000Y-8612000I40000J0D01*
G01*
X8983511Y-3050000D02*
G75*
G02*
X8903511Y-3050000I-40000J0D01*
G01*
X8903511Y-3050000D02*
G75*
G02*
X8983511Y-3050000I40000J0D01*
G01*
X8983511Y-3812000D02*
G75*
G02*
X8903511Y-3812000I-40000J0D01*
G01*
X8903511Y-3812000D02*
G75*
G02*
X8983511Y-3812000I40000J0D01*
G01*
X9048000Y-8950000D02*
G75*
G02*
X8968000Y-8950000I-40000J0D01*
G01*
X8968000Y-8950000D02*
G75*
G02*
X9048000Y-8950000I40000J0D01*
G01*
X9079000Y-5719500D02*
G75*
G02*
X8999000Y-5719500I-40000J0D01*
G01*
X8999000Y-5719500D02*
G75*
G02*
X9079000Y-5719500I40000J0D01*
G01*
X9079000Y-6481500D02*
G75*
G02*
X8999000Y-6481500I-40000J0D01*
G01*
X8999000Y-6481500D02*
G75*
G02*
X9079000Y-6481500I40000J0D01*
G01*
X9087511Y-2350000D02*
G75*
G02*
X9007511Y-2350000I-40000J0D01*
G01*
X9007511Y-2350000D02*
G75*
G02*
X9087511Y-2350000I40000J0D01*
G01*
X9109000Y-1050000D02*
G75*
G02*
X9029000Y-1050000I-40000J0D01*
G01*
X9029000Y-1050000D02*
G75*
G02*
X9109000Y-1050000I40000J0D01*
G01*
X9237511Y-3050000D02*
G75*
G02*
X9157511Y-3050000I-40000J0D01*
G01*
X9157511Y-3050000D02*
G75*
G02*
X9237511Y-3050000I40000J0D01*
G01*
X9237511Y-3812000D02*
G75*
G02*
X9157511Y-3812000I-40000J0D01*
G01*
X9157511Y-3812000D02*
G75*
G02*
X9237511Y-3812000I40000J0D01*
G01*
X9379511Y-5975000D02*
G75*
G02*
X9299511Y-5975000I-40000J0D01*
G01*
X9299511Y-5975000D02*
G75*
G02*
X9379511Y-5975000I40000J0D01*
G01*
X9379511Y-6225000D02*
G75*
G02*
X9299511Y-6225000I-40000J0D01*
G01*
X9299511Y-6225000D02*
G75*
G02*
X9379511Y-6225000I40000J0D01*
G01*
X9529511Y-3300000D02*
G75*
G02*
X9449511Y-3300000I-40000J0D01*
G01*
X9449511Y-3300000D02*
G75*
G02*
X9529511Y-3300000I40000J0D01*
G01*
X9529511Y-3550000D02*
G75*
G02*
X9449511Y-3550000I-40000J0D01*
G01*
X9449511Y-3550000D02*
G75*
G02*
X9529511Y-3550000I40000J0D01*
G01*
X9679511Y-1992000D02*
G75*
G02*
X9599511Y-1992000I-40000J0D01*
G01*
X9599511Y-1992000D02*
G75*
G02*
X9679511Y-1992000I40000J0D01*
G01*
X9679511Y-2246000D02*
G75*
G02*
X9599511Y-2246000I-40000J0D01*
G01*
X9599511Y-2246000D02*
G75*
G02*
X9679511Y-2246000I40000J0D01*
G01*
X9679511Y-2500000D02*
G75*
G02*
X9599511Y-2500000I-40000J0D01*
G01*
X9599511Y-2500000D02*
G75*
G02*
X9679511Y-2500000I40000J0D01*
G01*
X9790000Y-7592000D02*
G75*
G02*
X9710000Y-7592000I-40000J0D01*
G01*
X9710000Y-7592000D02*
G75*
G02*
X9790000Y-7592000I40000J0D01*
G01*
X9790000Y-8608000D02*
G75*
G02*
X9710000Y-8608000I-40000J0D01*
G01*
X9710000Y-8608000D02*
G75*
G02*
X9790000Y-8608000I40000J0D01*
G01*
X2800000Y-9375000D02*
X2800000Y-9465000D01*
X2755000Y-9420000D02*
X2845000Y-9420000D01*
X2800000Y-9705000D02*
X2800000Y-9795000D01*
X2755000Y-9750000D02*
X2845000Y-9750000D01*
X3050000Y-9375000D02*
X3050000Y-9465000D01*
X3005000Y-9420000D02*
X3095000Y-9420000D01*
X3050000Y-9705000D02*
X3050000Y-9795000D01*
X3005000Y-9750000D02*
X3095000Y-9750000D01*
X3300000Y-9375000D02*
X3300000Y-9465000D01*
X3255000Y-9420000D02*
X3345000Y-9420000D01*
X3300000Y-9705000D02*
X3300000Y-9795000D01*
X3255000Y-9750000D02*
X3345000Y-9750000D01*
X6689511Y-205000D02*
X6689511Y-295000D01*
X6644511Y-250000D02*
X6734511Y-250000D01*
X6689511Y-535000D02*
X6689511Y-625000D01*
X6644511Y-580000D02*
X6734511Y-580000D01*
X6939511Y-205000D02*
X6939511Y-295000D01*
X6894511Y-250000D02*
X6984511Y-250000D01*
X6939511Y-535000D02*
X6939511Y-625000D01*
X6894511Y-580000D02*
X6984511Y-580000D01*
X7189511Y-205000D02*
X7189511Y-295000D01*
X7144511Y-250000D02*
X7234511Y-250000D01*
X7189511Y-535000D02*
X7189511Y-625000D01*
X7144511Y-580000D02*
X7234511Y-580000D01*
X281356Y-4673356D02*
X281356Y-4602644D01*
X210644Y-4602644D01*
X210644Y-4673356D01*
X281356Y-4673356D01*
X281356Y-4927356D02*
X281356Y-4856644D01*
X210644Y-4856644D01*
X210644Y-4927356D01*
X281356Y-4927356D01*
X281356Y-5181356D02*
X281356Y-5110644D01*
X210644Y-5110644D01*
X210644Y-5181356D01*
X281356Y-5181356D01*
X281356Y-5435356D02*
X281356Y-5364644D01*
X210644Y-5364644D01*
X210644Y-5435356D01*
X281356Y-5435356D01*
X535356Y-4673356D02*
X535356Y-4602644D01*
X464644Y-4602644D01*
X464644Y-4673356D01*
X535356Y-4673356D01*
X535356Y-4927356D02*
X535356Y-4856644D01*
X464644Y-4856644D01*
X464644Y-4927356D01*
X535356Y-4927356D01*
X535356Y-5181356D02*
X535356Y-5110644D01*
X464644Y-5110644D01*
X464644Y-5181356D01*
X535356Y-5181356D01*
X535356Y-5435356D02*
X535356Y-5364644D01*
X464644Y-5364644D01*
X464644Y-5435356D01*
X535356Y-5435356D01*
X581356Y-9585356D02*
X581356Y-9514644D01*
X510644Y-9514644D01*
X510644Y-9585356D01*
X581356Y-9585356D01*
X588867Y-2835356D02*
X588867Y-2764644D01*
X518156Y-2764644D01*
X518156Y-2835356D01*
X588867Y-2835356D01*
X588867Y-3089356D02*
X588867Y-3018644D01*
X518156Y-3018644D01*
X518156Y-3089356D01*
X588867Y-3089356D01*
X696867Y-235356D02*
X696867Y-164644D01*
X626156Y-164644D01*
X626156Y-235356D01*
X696867Y-235356D01*
X696867Y-489356D02*
X696867Y-418644D01*
X626156Y-418644D01*
X626156Y-489356D01*
X696867Y-489356D01*
X835356Y-9585356D02*
X835356Y-9514644D01*
X764644Y-9514644D01*
X764644Y-9585356D01*
X835356Y-9585356D01*
X842867Y-2835356D02*
X842867Y-2764644D01*
X772156Y-2764644D01*
X772156Y-2835356D01*
X842867Y-2835356D01*
X842867Y-3089356D02*
X842867Y-3018644D01*
X772156Y-3018644D01*
X772156Y-3089356D01*
X842867Y-3089356D01*
X950867Y-235356D02*
X950867Y-164644D01*
X880156Y-164644D01*
X880156Y-235356D01*
X950867Y-235356D01*
X950867Y-489356D02*
X950867Y-418644D01*
X880156Y-418644D01*
X880156Y-489356D01*
X950867Y-489356D01*
X1096867Y-2835356D02*
X1096867Y-2764644D01*
X1026156Y-2764644D01*
X1026156Y-2835356D01*
X1096867Y-2835356D01*
X1096867Y-3089356D02*
X1096867Y-3018644D01*
X1026156Y-3018644D01*
X1026156Y-3089356D01*
X1096867Y-3089356D01*
X1204867Y-235356D02*
X1204867Y-164644D01*
X1134156Y-164644D01*
X1134156Y-235356D01*
X1204867Y-235356D01*
X1204867Y-489356D02*
X1204867Y-418644D01*
X1134156Y-418644D01*
X1134156Y-489356D01*
X1204867Y-489356D01*
X1331356Y-8435356D02*
X1331356Y-8364644D01*
X1260644Y-8364644D01*
X1260644Y-8435356D01*
X1331356Y-8435356D01*
X1335356Y-9585356D02*
X1335356Y-9514644D01*
X1264644Y-9514644D01*
X1264644Y-9585356D01*
X1335356Y-9585356D01*
X1350867Y-2835356D02*
X1350867Y-2764644D01*
X1280156Y-2764644D01*
X1280156Y-2835356D01*
X1350867Y-2835356D01*
X1350867Y-3089356D02*
X1350867Y-3018644D01*
X1280156Y-3018644D01*
X1280156Y-3089356D01*
X1350867Y-3089356D01*
X1458867Y-235356D02*
X1458867Y-164644D01*
X1388156Y-164644D01*
X1388156Y-235356D01*
X1458867Y-235356D01*
X1458867Y-489356D02*
X1458867Y-418644D01*
X1388156Y-418644D01*
X1388156Y-489356D01*
X1458867Y-489356D01*
X1585356Y-8435356D02*
X1585356Y-8364644D01*
X1514644Y-8364644D01*
X1514644Y-8435356D01*
X1585356Y-8435356D01*
X1589356Y-9585356D02*
X1589356Y-9514644D01*
X1518644Y-9514644D01*
X1518644Y-9585356D01*
X1589356Y-9585356D01*
X1604867Y-2835356D02*
X1604867Y-2764644D01*
X1534156Y-2764644D01*
X1534156Y-2835356D01*
X1604867Y-2835356D01*
X1604867Y-3089356D02*
X1604867Y-3018644D01*
X1534156Y-3018644D01*
X1534156Y-3089356D01*
X1604867Y-3089356D01*
X1712867Y-235356D02*
X1712867Y-164644D01*
X1642156Y-164644D01*
X1642156Y-235356D01*
X1712867Y-235356D01*
X1712867Y-489356D02*
X1712867Y-418644D01*
X1642156Y-418644D01*
X1642156Y-489356D01*
X1712867Y-489356D01*
X1858867Y-2835356D02*
X1858867Y-2764644D01*
X1788156Y-2764644D01*
X1788156Y-2835356D01*
X1858867Y-2835356D01*
X1858867Y-3089356D02*
X1858867Y-3018644D01*
X1788156Y-3018644D01*
X1788156Y-3089356D01*
X1858867Y-3089356D01*
X1966867Y-235356D02*
X1966867Y-164644D01*
X1896156Y-164644D01*
X1896156Y-235356D01*
X1966867Y-235356D01*
X1966867Y-489356D02*
X1966867Y-418644D01*
X1896156Y-418644D01*
X1896156Y-489356D01*
X1966867Y-489356D01*
X1981356Y-9085356D02*
X1981356Y-9014644D01*
X1910644Y-9014644D01*
X1910644Y-9085356D01*
X1981356Y-9085356D01*
X2007856Y-9585356D02*
X2007856Y-9514644D01*
X1937144Y-9514644D01*
X1937144Y-9585356D01*
X2007856Y-9585356D01*
X2112867Y-2835356D02*
X2112867Y-2764644D01*
X2042156Y-2764644D01*
X2042156Y-2835356D01*
X2112867Y-2835356D01*
X2112867Y-3089356D02*
X2112867Y-3018644D01*
X2042156Y-3018644D01*
X2042156Y-3089356D01*
X2112867Y-3089356D01*
X2220867Y-235356D02*
X2220867Y-164644D01*
X2150156Y-164644D01*
X2150156Y-235356D01*
X2220867Y-235356D01*
X2220867Y-489356D02*
X2220867Y-418644D01*
X2150156Y-418644D01*
X2150156Y-489356D01*
X2220867Y-489356D01*
X2235356Y-9085356D02*
X2235356Y-9014644D01*
X2164644Y-9014644D01*
X2164644Y-9085356D01*
X2235356Y-9085356D01*
X2261856Y-9585356D02*
X2261856Y-9514644D01*
X2191144Y-9514644D01*
X2191144Y-9585356D01*
X2261856Y-9585356D01*
X2366867Y-2835356D02*
X2366867Y-2764644D01*
X2296156Y-2764644D01*
X2296156Y-2835356D01*
X2366867Y-2835356D01*
X2366867Y-3089356D02*
X2366867Y-3018644D01*
X2296156Y-3018644D01*
X2296156Y-3089356D01*
X2366867Y-3089356D01*
X2474867Y-235356D02*
X2474867Y-164644D01*
X2404156Y-164644D01*
X2404156Y-235356D01*
X2474867Y-235356D01*
X2474867Y-489356D02*
X2474867Y-418644D01*
X2404156Y-418644D01*
X2404156Y-489356D01*
X2474867Y-489356D01*
X2620867Y-2835356D02*
X2620867Y-2764644D01*
X2550156Y-2764644D01*
X2550156Y-2835356D01*
X2620867Y-2835356D01*
X2620867Y-3089356D02*
X2620867Y-3018644D01*
X2550156Y-3018644D01*
X2550156Y-3089356D01*
X2620867Y-3089356D01*
X2728867Y-235356D02*
X2728867Y-164644D01*
X2658156Y-164644D01*
X2658156Y-235356D01*
X2728867Y-235356D01*
X2728867Y-489356D02*
X2728867Y-418644D01*
X2658156Y-418644D01*
X2658156Y-489356D01*
X2728867Y-489356D01*
X2874867Y-2835356D02*
X2874867Y-2764644D01*
X2804156Y-2764644D01*
X2804156Y-2835356D01*
X2874867Y-2835356D01*
X2874867Y-3089356D02*
X2874867Y-3018644D01*
X2804156Y-3018644D01*
X2804156Y-3089356D01*
X2874867Y-3089356D01*
X2981356Y-8385356D02*
X2981356Y-8314644D01*
X2910644Y-8314644D01*
X2910644Y-8385356D01*
X2981356Y-8385356D01*
X2982867Y-235356D02*
X2982867Y-164644D01*
X2912156Y-164644D01*
X2912156Y-235356D01*
X2982867Y-235356D01*
X2982867Y-489356D02*
X2982867Y-418644D01*
X2912156Y-418644D01*
X2912156Y-489356D01*
X2982867Y-489356D01*
X2985356Y-7985356D02*
X2985356Y-7914644D01*
X2914644Y-7914644D01*
X2914644Y-7985356D01*
X2985356Y-7985356D01*
X3128867Y-2835356D02*
X3128867Y-2764644D01*
X3058156Y-2764644D01*
X3058156Y-2835356D01*
X3128867Y-2835356D01*
X3128867Y-3089356D02*
X3128867Y-3018644D01*
X3058156Y-3018644D01*
X3058156Y-3089356D01*
X3128867Y-3089356D01*
X3235356Y-8385356D02*
X3235356Y-8314644D01*
X3164644Y-8314644D01*
X3164644Y-8385356D01*
X3235356Y-8385356D01*
X3236867Y-235356D02*
X3236867Y-164644D01*
X3166156Y-164644D01*
X3166156Y-235356D01*
X3236867Y-235356D01*
X3236867Y-489356D02*
X3236867Y-418644D01*
X3166156Y-418644D01*
X3166156Y-489356D01*
X3236867Y-489356D01*
X3382867Y-2835356D02*
X3382867Y-2764644D01*
X3312156Y-2764644D01*
X3312156Y-2835356D01*
X3382867Y-2835356D01*
X3382867Y-3089356D02*
X3382867Y-3018644D01*
X3312156Y-3018644D01*
X3312156Y-3089356D01*
X3382867Y-3089356D01*
X3424867Y-3807856D02*
X3424867Y-3737144D01*
X3354156Y-3737144D01*
X3354156Y-3807856D01*
X3424867Y-3807856D01*
X3424867Y-4061856D02*
X3424867Y-3991144D01*
X3354156Y-3991144D01*
X3354156Y-4061856D01*
X3424867Y-4061856D01*
X3901356Y-8775356D02*
X3901356Y-8704644D01*
X3830644Y-8704644D01*
X3830644Y-8775356D01*
X3901356Y-8775356D01*
X3931356Y-9200356D02*
X3931356Y-9129644D01*
X3860644Y-9129644D01*
X3860644Y-9200356D01*
X3931356Y-9200356D01*
X3958856Y-7923856D02*
X3958856Y-7853144D01*
X3888144Y-7853144D01*
X3888144Y-7923856D01*
X3958856Y-7923856D01*
X3958856Y-8177856D02*
X3958856Y-8107144D01*
X3888144Y-8107144D01*
X3888144Y-8177856D01*
X3958856Y-8177856D01*
X3974867Y-235356D02*
X3974867Y-164644D01*
X3904156Y-164644D01*
X3904156Y-235356D01*
X3974867Y-235356D01*
X3985356Y-9835356D02*
X3985356Y-9764644D01*
X3914644Y-9764644D01*
X3914644Y-9835356D01*
X3985356Y-9835356D01*
X4074867Y-985356D02*
X4074867Y-914644D01*
X4004156Y-914644D01*
X4004156Y-985356D01*
X4074867Y-985356D01*
X4074867Y-1485356D02*
X4074867Y-1414644D01*
X4004156Y-1414644D01*
X4004156Y-1485356D01*
X4074867Y-1485356D01*
X4120867Y-2020356D02*
X4120867Y-1949644D01*
X4050156Y-1949644D01*
X4050156Y-2020356D01*
X4120867Y-2020356D01*
X4155356Y-8775356D02*
X4155356Y-8704644D01*
X4084644Y-8704644D01*
X4084644Y-8775356D01*
X4155356Y-8775356D01*
X4185356Y-9200356D02*
X4185356Y-9129644D01*
X4114644Y-9129644D01*
X4114644Y-9200356D01*
X4185356Y-9200356D01*
X4212856Y-7923856D02*
X4212856Y-7853144D01*
X4142144Y-7853144D01*
X4142144Y-7923856D01*
X4212856Y-7923856D01*
X4212856Y-8177856D02*
X4212856Y-8107144D01*
X4142144Y-8107144D01*
X4142144Y-8177856D01*
X4212856Y-8177856D01*
X4224867Y-235356D02*
X4224867Y-164644D01*
X4154156Y-164644D01*
X4154156Y-235356D01*
X4224867Y-235356D01*
X4235356Y-9835356D02*
X4235356Y-9764644D01*
X4164644Y-9764644D01*
X4164644Y-9835356D01*
X4235356Y-9835356D01*
X4328867Y-985356D02*
X4328867Y-914644D01*
X4258156Y-914644D01*
X4258156Y-985356D01*
X4328867Y-985356D01*
X4374867Y-2020356D02*
X4374867Y-1949644D01*
X4304156Y-1949644D01*
X4304156Y-2020356D01*
X4374867Y-2020356D01*
X4474867Y-235356D02*
X4474867Y-164644D01*
X4404156Y-164644D01*
X4404156Y-235356D01*
X4474867Y-235356D01*
X4485356Y-9835356D02*
X4485356Y-9764644D01*
X4414644Y-9764644D01*
X4414644Y-9835356D01*
X4485356Y-9835356D01*
X5574867Y-235356D02*
X5574867Y-164644D01*
X5504156Y-164644D01*
X5504156Y-235356D01*
X5574867Y-235356D01*
X5585356Y-9835356D02*
X5585356Y-9764644D01*
X5514644Y-9764644D01*
X5514644Y-9835356D01*
X5585356Y-9835356D01*
X5685356Y-8050356D02*
X5685356Y-7979644D01*
X5614644Y-7979644D01*
X5614644Y-8050356D01*
X5685356Y-8050356D01*
X5731356Y-9085356D02*
X5731356Y-9014644D01*
X5660644Y-9014644D01*
X5660644Y-9085356D01*
X5731356Y-9085356D01*
X5824867Y-235356D02*
X5824867Y-164644D01*
X5754156Y-164644D01*
X5754156Y-235356D01*
X5824867Y-235356D01*
X5835356Y-9835356D02*
X5835356Y-9764644D01*
X5764644Y-9764644D01*
X5764644Y-9835356D01*
X5835356Y-9835356D01*
X5847367Y-1892856D02*
X5847367Y-1822144D01*
X5776656Y-1822144D01*
X5776656Y-1892856D01*
X5847367Y-1892856D01*
X5847367Y-2146856D02*
X5847367Y-2076144D01*
X5776656Y-2076144D01*
X5776656Y-2146856D01*
X5847367Y-2146856D01*
X5874867Y-870356D02*
X5874867Y-799644D01*
X5804156Y-799644D01*
X5804156Y-870356D01*
X5874867Y-870356D01*
X5924867Y-1370356D02*
X5924867Y-1299644D01*
X5854156Y-1299644D01*
X5854156Y-1370356D01*
X5924867Y-1370356D01*
X5939356Y-8050356D02*
X5939356Y-7979644D01*
X5868644Y-7979644D01*
X5868644Y-8050356D01*
X5939356Y-8050356D01*
X5985356Y-8585356D02*
X5985356Y-8514644D01*
X5914644Y-8514644D01*
X5914644Y-8585356D01*
X5985356Y-8585356D01*
X5985356Y-9085356D02*
X5985356Y-9014644D01*
X5914644Y-9014644D01*
X5914644Y-9085356D01*
X5985356Y-9085356D01*
X6074867Y-235356D02*
X6074867Y-164644D01*
X6004156Y-164644D01*
X6004156Y-235356D01*
X6074867Y-235356D01*
X6085356Y-9835356D02*
X6085356Y-9764644D01*
X6014644Y-9764644D01*
X6014644Y-9835356D01*
X6085356Y-9835356D01*
X6101367Y-1892856D02*
X6101367Y-1822144D01*
X6030656Y-1822144D01*
X6030656Y-1892856D01*
X6101367Y-1892856D01*
X6101367Y-2146856D02*
X6101367Y-2076144D01*
X6030656Y-2076144D01*
X6030656Y-2146856D01*
X6101367Y-2146856D01*
X6128867Y-870356D02*
X6128867Y-799644D01*
X6058156Y-799644D01*
X6058156Y-870356D01*
X6128867Y-870356D01*
X6178867Y-1370356D02*
X6178867Y-1299644D01*
X6108156Y-1299644D01*
X6108156Y-1370356D01*
X6178867Y-1370356D01*
X6635356Y-6008856D02*
X6635356Y-5938144D01*
X6564644Y-5938144D01*
X6564644Y-6008856D01*
X6635356Y-6008856D01*
X6635356Y-6262856D02*
X6635356Y-6192144D01*
X6564644Y-6192144D01*
X6564644Y-6262856D01*
X6635356Y-6262856D01*
X6677356Y-6981356D02*
X6677356Y-6910644D01*
X6606644Y-6910644D01*
X6606644Y-6981356D01*
X6677356Y-6981356D01*
X6677356Y-7235356D02*
X6677356Y-7164644D01*
X6606644Y-7164644D01*
X6606644Y-7235356D01*
X6677356Y-7235356D01*
X6823356Y-9581356D02*
X6823356Y-9510644D01*
X6752644Y-9510644D01*
X6752644Y-9581356D01*
X6823356Y-9581356D01*
X6823356Y-9835356D02*
X6823356Y-9764644D01*
X6752644Y-9764644D01*
X6752644Y-9835356D01*
X6823356Y-9835356D01*
X6824867Y-1685356D02*
X6824867Y-1614644D01*
X6754156Y-1614644D01*
X6754156Y-1685356D01*
X6824867Y-1685356D01*
X6931356Y-6981356D02*
X6931356Y-6910644D01*
X6860644Y-6910644D01*
X6860644Y-6981356D01*
X6931356Y-6981356D01*
X6931356Y-7235356D02*
X6931356Y-7164644D01*
X6860644Y-7164644D01*
X6860644Y-7235356D01*
X6931356Y-7235356D01*
X7074867Y-2085356D02*
X7074867Y-2014644D01*
X7004156Y-2014644D01*
X7004156Y-2085356D01*
X7074867Y-2085356D01*
X7077356Y-9581356D02*
X7077356Y-9510644D01*
X7006644Y-9510644D01*
X7006644Y-9581356D01*
X7077356Y-9581356D01*
X7077356Y-9835356D02*
X7077356Y-9764644D01*
X7006644Y-9764644D01*
X7006644Y-9835356D01*
X7077356Y-9835356D01*
X7078867Y-1685356D02*
X7078867Y-1614644D01*
X7008156Y-1614644D01*
X7008156Y-1685356D01*
X7078867Y-1685356D01*
X7185356Y-6981356D02*
X7185356Y-6910644D01*
X7114644Y-6910644D01*
X7114644Y-6981356D01*
X7185356Y-6981356D01*
X7185356Y-7235356D02*
X7185356Y-7164644D01*
X7114644Y-7164644D01*
X7114644Y-7235356D01*
X7185356Y-7235356D01*
X7331356Y-9581356D02*
X7331356Y-9510644D01*
X7260644Y-9510644D01*
X7260644Y-9581356D01*
X7331356Y-9581356D01*
X7331356Y-9835356D02*
X7331356Y-9764644D01*
X7260644Y-9764644D01*
X7260644Y-9835356D01*
X7331356Y-9835356D01*
X7439356Y-6981356D02*
X7439356Y-6910644D01*
X7368644Y-6910644D01*
X7368644Y-6981356D01*
X7439356Y-6981356D01*
X7439356Y-7235356D02*
X7439356Y-7164644D01*
X7368644Y-7164644D01*
X7368644Y-7235356D01*
X7439356Y-7235356D01*
X7585356Y-9581356D02*
X7585356Y-9510644D01*
X7514644Y-9510644D01*
X7514644Y-9581356D01*
X7585356Y-9581356D01*
X7585356Y-9835356D02*
X7585356Y-9764644D01*
X7514644Y-9764644D01*
X7514644Y-9835356D01*
X7585356Y-9835356D01*
X7693356Y-6981356D02*
X7693356Y-6910644D01*
X7622644Y-6910644D01*
X7622644Y-6981356D01*
X7693356Y-6981356D01*
X7693356Y-7235356D02*
X7693356Y-7164644D01*
X7622644Y-7164644D01*
X7622644Y-7235356D01*
X7693356Y-7235356D01*
X7798367Y-485356D02*
X7798367Y-414644D01*
X7727656Y-414644D01*
X7727656Y-485356D01*
X7798367Y-485356D01*
X7824867Y-985356D02*
X7824867Y-914644D01*
X7754156Y-914644D01*
X7754156Y-985356D01*
X7824867Y-985356D01*
X7839356Y-9581356D02*
X7839356Y-9510644D01*
X7768644Y-9510644D01*
X7768644Y-9581356D01*
X7839356Y-9581356D01*
X7839356Y-9835356D02*
X7839356Y-9764644D01*
X7768644Y-9764644D01*
X7768644Y-9835356D01*
X7839356Y-9835356D01*
X7947356Y-6981356D02*
X7947356Y-6910644D01*
X7876644Y-6910644D01*
X7876644Y-6981356D01*
X7947356Y-6981356D01*
X7947356Y-7235356D02*
X7947356Y-7164644D01*
X7876644Y-7164644D01*
X7876644Y-7235356D01*
X7947356Y-7235356D01*
X8052367Y-485356D02*
X8052367Y-414644D01*
X7981656Y-414644D01*
X7981656Y-485356D01*
X8052367Y-485356D01*
X8078867Y-985356D02*
X8078867Y-914644D01*
X8008156Y-914644D01*
X8008156Y-985356D01*
X8078867Y-985356D01*
X8093356Y-9581356D02*
X8093356Y-9510644D01*
X8022644Y-9510644D01*
X8022644Y-9581356D01*
X8093356Y-9581356D01*
X8093356Y-9835356D02*
X8093356Y-9764644D01*
X8022644Y-9764644D01*
X8022644Y-9835356D01*
X8093356Y-9835356D01*
X8201356Y-6981356D02*
X8201356Y-6910644D01*
X8130644Y-6910644D01*
X8130644Y-6981356D01*
X8201356Y-6981356D01*
X8201356Y-7235356D02*
X8201356Y-7164644D01*
X8130644Y-7164644D01*
X8130644Y-7235356D01*
X8201356Y-7235356D01*
X8347356Y-9581356D02*
X8347356Y-9510644D01*
X8276644Y-9510644D01*
X8276644Y-9581356D01*
X8347356Y-9581356D01*
X8347356Y-9835356D02*
X8347356Y-9764644D01*
X8276644Y-9764644D01*
X8276644Y-9835356D01*
X8347356Y-9835356D01*
X8455356Y-6981356D02*
X8455356Y-6910644D01*
X8384644Y-6910644D01*
X8384644Y-6981356D01*
X8455356Y-6981356D01*
X8455356Y-7235356D02*
X8455356Y-7164644D01*
X8384644Y-7164644D01*
X8384644Y-7235356D01*
X8455356Y-7235356D01*
X8474867Y-1635356D02*
X8474867Y-1564644D01*
X8404156Y-1564644D01*
X8404156Y-1635356D01*
X8474867Y-1635356D01*
X8547367Y-485356D02*
X8547367Y-414644D01*
X8476656Y-414644D01*
X8476656Y-485356D01*
X8547367Y-485356D01*
X8601356Y-9581356D02*
X8601356Y-9510644D01*
X8530644Y-9510644D01*
X8530644Y-9581356D01*
X8601356Y-9581356D01*
X8601356Y-9835356D02*
X8601356Y-9764644D01*
X8530644Y-9764644D01*
X8530644Y-9835356D01*
X8601356Y-9835356D01*
X8709356Y-6981356D02*
X8709356Y-6910644D01*
X8638644Y-6910644D01*
X8638644Y-6981356D01*
X8709356Y-6981356D01*
X8709356Y-7235356D02*
X8709356Y-7164644D01*
X8638644Y-7164644D01*
X8638644Y-7235356D01*
X8709356Y-7235356D01*
X8728867Y-1635356D02*
X8728867Y-1564644D01*
X8658156Y-1564644D01*
X8658156Y-1635356D01*
X8728867Y-1635356D01*
X8801367Y-485356D02*
X8801367Y-414644D01*
X8730656Y-414644D01*
X8730656Y-485356D01*
X8801367Y-485356D01*
X8855356Y-9581356D02*
X8855356Y-9510644D01*
X8784644Y-9510644D01*
X8784644Y-9581356D01*
X8855356Y-9581356D01*
X8855356Y-9835356D02*
X8855356Y-9764644D01*
X8784644Y-9764644D01*
X8784644Y-9835356D01*
X8855356Y-9835356D01*
X8963356Y-6981356D02*
X8963356Y-6910644D01*
X8892644Y-6910644D01*
X8892644Y-6981356D01*
X8963356Y-6981356D01*
X8963356Y-7235356D02*
X8963356Y-7164644D01*
X8892644Y-7164644D01*
X8892644Y-7235356D01*
X8963356Y-7235356D01*
X9109356Y-9581356D02*
X9109356Y-9510644D01*
X9038644Y-9510644D01*
X9038644Y-9581356D01*
X9109356Y-9581356D01*
X9109356Y-9835356D02*
X9109356Y-9764644D01*
X9038644Y-9764644D01*
X9038644Y-9835356D01*
X9109356Y-9835356D01*
X9217356Y-6981356D02*
X9217356Y-6910644D01*
X9146644Y-6910644D01*
X9146644Y-6981356D01*
X9217356Y-6981356D01*
X9217356Y-7235356D02*
X9217356Y-7164644D01*
X9146644Y-7164644D01*
X9146644Y-7235356D01*
X9217356Y-7235356D01*
X9363356Y-9581356D02*
X9363356Y-9510644D01*
X9292644Y-9510644D01*
X9292644Y-9581356D01*
X9363356Y-9581356D01*
X9363356Y-9835356D02*
X9363356Y-9764644D01*
X9292644Y-9764644D01*
X9292644Y-9835356D01*
X9363356Y-9835356D01*
X9374867Y-485356D02*
X9374867Y-414644D01*
X9304156Y-414644D01*
X9304156Y-485356D01*
X9374867Y-485356D01*
X9471356Y-6981356D02*
X9471356Y-6910644D01*
X9400644Y-6910644D01*
X9400644Y-6981356D01*
X9471356Y-6981356D01*
X9471356Y-7235356D02*
X9471356Y-7164644D01*
X9400644Y-7164644D01*
X9400644Y-7235356D01*
X9471356Y-7235356D01*
X9481356Y-4673356D02*
X9481356Y-4602644D01*
X9410644Y-4602644D01*
X9410644Y-4673356D01*
X9481356Y-4673356D01*
X9481356Y-4927356D02*
X9481356Y-4856644D01*
X9410644Y-4856644D01*
X9410644Y-4927356D01*
X9481356Y-4927356D01*
X9481356Y-5181356D02*
X9481356Y-5110644D01*
X9410644Y-5110644D01*
X9410644Y-5181356D01*
X9481356Y-5181356D01*
X9481356Y-5435356D02*
X9481356Y-5364644D01*
X9410644Y-5364644D01*
X9410644Y-5435356D01*
X9481356Y-5435356D01*
X9628867Y-485356D02*
X9628867Y-414644D01*
X9558156Y-414644D01*
X9558156Y-485356D01*
X9628867Y-485356D01*
X9735356Y-4673356D02*
X9735356Y-4602644D01*
X9664644Y-4602644D01*
X9664644Y-4673356D01*
X9735356Y-4673356D01*
X9735356Y-4927356D02*
X9735356Y-4856644D01*
X9664644Y-4856644D01*
X9664644Y-4927356D01*
X9735356Y-4927356D01*
X9735356Y-5181356D02*
X9735356Y-5110644D01*
X9664644Y-5110644D01*
X9664644Y-5181356D01*
X9735356Y-5181356D01*
X9735356Y-5435356D02*
X9735356Y-5364644D01*
X9664644Y-5364644D01*
X9664644Y-5435356D01*
X9735356Y-5435356D01*
D10*
X240288Y-10321484D02*
X240288Y-10121484D01*
X240288Y-10121484D02*
X287907Y-10121484D01*
X287907Y-10121484D02*
X316479Y-10131008D01*
X316479Y-10131008D02*
X335526Y-10150055D01*
X335526Y-10150055D02*
X345050Y-10169103D01*
X345050Y-10169103D02*
X354574Y-10207198D01*
X354574Y-10207198D02*
X354574Y-10235770D01*
X354574Y-10235770D02*
X345050Y-10273865D01*
X345050Y-10273865D02*
X335526Y-10292912D01*
X335526Y-10292912D02*
X316479Y-10311960D01*
X316479Y-10311960D02*
X287907Y-10321484D01*
X287907Y-10321484D02*
X240288Y-10321484D01*
X440288Y-10321484D02*
X440288Y-10188150D01*
X440288Y-10226246D02*
X449812Y-10207198D01*
X449812Y-10207198D02*
X459336Y-10197674D01*
X459336Y-10197674D02*
X478383Y-10188150D01*
X478383Y-10188150D02*
X497431Y-10188150D01*
X564098Y-10321484D02*
X564098Y-10188150D01*
X564098Y-10121484D02*
X554574Y-10131008D01*
X554574Y-10131008D02*
X564098Y-10140531D01*
X564098Y-10140531D02*
X573621Y-10131008D01*
X573621Y-10131008D02*
X564098Y-10121484D01*
X564098Y-10121484D02*
X564098Y-10140531D01*
X687907Y-10321484D02*
X668860Y-10311960D01*
X668860Y-10311960D02*
X659336Y-10292912D01*
X659336Y-10292912D02*
X659336Y-10121484D01*
X792669Y-10321484D02*
X773621Y-10311960D01*
X773621Y-10311960D02*
X764098Y-10292912D01*
X764098Y-10292912D02*
X764098Y-10121484D01*
X1021240Y-10321484D02*
X1021240Y-10121484D01*
X1021240Y-10121484D02*
X1087907Y-10264341D01*
X1087907Y-10264341D02*
X1154574Y-10121484D01*
X1154574Y-10121484D02*
X1154574Y-10321484D01*
X1335526Y-10321484D02*
X1335526Y-10216722D01*
X1335526Y-10216722D02*
X1326002Y-10197674D01*
X1326002Y-10197674D02*
X1306955Y-10188150D01*
X1306955Y-10188150D02*
X1268860Y-10188150D01*
X1268860Y-10188150D02*
X1249812Y-10197674D01*
X1335526Y-10311960D02*
X1316479Y-10321484D01*
X1316479Y-10321484D02*
X1268860Y-10321484D01*
X1268860Y-10321484D02*
X1249812Y-10311960D01*
X1249812Y-10311960D02*
X1240288Y-10292912D01*
X1240288Y-10292912D02*
X1240288Y-10273865D01*
X1240288Y-10273865D02*
X1249812Y-10254817D01*
X1249812Y-10254817D02*
X1268860Y-10245293D01*
X1268860Y-10245293D02*
X1316479Y-10245293D01*
X1316479Y-10245293D02*
X1335526Y-10235770D01*
X1430764Y-10188150D02*
X1430764Y-10388150D01*
X1430764Y-10197674D02*
X1449812Y-10188150D01*
X1449812Y-10188150D02*
X1487907Y-10188150D01*
X1487907Y-10188150D02*
X1506955Y-10197674D01*
X1506955Y-10197674D02*
X1516479Y-10207198D01*
X1516479Y-10207198D02*
X1526002Y-10226246D01*
X1526002Y-10226246D02*
X1526002Y-10283389D01*
X1526002Y-10283389D02*
X1516479Y-10302436D01*
X1516479Y-10302436D02*
X1506955Y-10311960D01*
X1506955Y-10311960D02*
X1487907Y-10321484D01*
X1487907Y-10321484D02*
X1449812Y-10321484D01*
X1449812Y-10321484D02*
X1430764Y-10311960D01*
X1611717Y-10302436D02*
X1621240Y-10311960D01*
X1621240Y-10311960D02*
X1611717Y-10321484D01*
X1611717Y-10321484D02*
X1602193Y-10311960D01*
X1602193Y-10311960D02*
X1611717Y-10302436D01*
X1611717Y-10302436D02*
X1611717Y-10321484D01*
X1611717Y-10197674D02*
X1621240Y-10207198D01*
X1621240Y-10207198D02*
X1611717Y-10216722D01*
X1611717Y-10216722D02*
X1602193Y-10207198D01*
X1602193Y-10207198D02*
X1611717Y-10197674D01*
X1611717Y-10197674D02*
X1611717Y-10216722D01*
D12*
X-60489Y-10630000D02*
X-20489Y-10670000D01*
X-20489Y-10630000D02*
X-60489Y-10670000D01*
D10*
X278383Y-10541484D02*
X297431Y-10541484D01*
X297431Y-10541484D02*
X316479Y-10551008D01*
X316479Y-10551008D02*
X326002Y-10560531D01*
X326002Y-10560531D02*
X335526Y-10579579D01*
X335526Y-10579579D02*
X345050Y-10617674D01*
X345050Y-10617674D02*
X345050Y-10665293D01*
X345050Y-10665293D02*
X335526Y-10703389D01*
X335526Y-10703389D02*
X326002Y-10722436D01*
X326002Y-10722436D02*
X316479Y-10731960D01*
X316479Y-10731960D02*
X297431Y-10741484D01*
X297431Y-10741484D02*
X278383Y-10741484D01*
X278383Y-10741484D02*
X259336Y-10731960D01*
X259336Y-10731960D02*
X249812Y-10722436D01*
X249812Y-10722436D02*
X240288Y-10703389D01*
X240288Y-10703389D02*
X230764Y-10665293D01*
X230764Y-10665293D02*
X230764Y-10617674D01*
X230764Y-10617674D02*
X240288Y-10579579D01*
X240288Y-10579579D02*
X249812Y-10560531D01*
X249812Y-10560531D02*
X259336Y-10551008D01*
X259336Y-10551008D02*
X278383Y-10541484D01*
X430764Y-10722436D02*
X440288Y-10731960D01*
X440288Y-10731960D02*
X430764Y-10741484D01*
X430764Y-10741484D02*
X421240Y-10731960D01*
X421240Y-10731960D02*
X430764Y-10722436D01*
X430764Y-10722436D02*
X430764Y-10741484D01*
X611717Y-10608150D02*
X611717Y-10741484D01*
X564098Y-10531960D02*
X516479Y-10674817D01*
X516479Y-10674817D02*
X640288Y-10674817D01*
X754574Y-10541484D02*
X773621Y-10541484D01*
X773621Y-10541484D02*
X792669Y-10551008D01*
X792669Y-10551008D02*
X802193Y-10560531D01*
X802193Y-10560531D02*
X811717Y-10579579D01*
X811717Y-10579579D02*
X821240Y-10617674D01*
X821240Y-10617674D02*
X821240Y-10665293D01*
X821240Y-10665293D02*
X811717Y-10703389D01*
X811717Y-10703389D02*
X802193Y-10722436D01*
X802193Y-10722436D02*
X792669Y-10731960D01*
X792669Y-10731960D02*
X773621Y-10741484D01*
X773621Y-10741484D02*
X754574Y-10741484D01*
X754574Y-10741484D02*
X735526Y-10731960D01*
X735526Y-10731960D02*
X726002Y-10722436D01*
X726002Y-10722436D02*
X716479Y-10703389D01*
X716479Y-10703389D02*
X706955Y-10665293D01*
X706955Y-10665293D02*
X706955Y-10617674D01*
X706955Y-10617674D02*
X716479Y-10579579D01*
X716479Y-10579579D02*
X726002Y-10560531D01*
X726002Y-10560531D02*
X735526Y-10551008D01*
X735526Y-10551008D02*
X754574Y-10541484D01*
X945050Y-10541484D02*
X964098Y-10541484D01*
X964098Y-10541484D02*
X983145Y-10551008D01*
X983145Y-10551008D02*
X992669Y-10560531D01*
X992669Y-10560531D02*
X1002193Y-10579579D01*
X1002193Y-10579579D02*
X1011717Y-10617674D01*
X1011717Y-10617674D02*
X1011717Y-10665293D01*
X1011717Y-10665293D02*
X1002193Y-10703389D01*
X1002193Y-10703389D02*
X992669Y-10722436D01*
X992669Y-10722436D02*
X983145Y-10731960D01*
X983145Y-10731960D02*
X964098Y-10741484D01*
X964098Y-10741484D02*
X945050Y-10741484D01*
X945050Y-10741484D02*
X926002Y-10731960D01*
X926002Y-10731960D02*
X916479Y-10722436D01*
X916479Y-10722436D02*
X906955Y-10703389D01*
X906955Y-10703389D02*
X897431Y-10665293D01*
X897431Y-10665293D02*
X897431Y-10617674D01*
X897431Y-10617674D02*
X906955Y-10579579D01*
X906955Y-10579579D02*
X916479Y-10560531D01*
X916479Y-10560531D02*
X926002Y-10551008D01*
X926002Y-10551008D02*
X945050Y-10541484D01*
X1097431Y-10741484D02*
X1097431Y-10608150D01*
X1097431Y-10627198D02*
X1106955Y-10617674D01*
X1106955Y-10617674D02*
X1126002Y-10608150D01*
X1126002Y-10608150D02*
X1154574Y-10608150D01*
X1154574Y-10608150D02*
X1173622Y-10617674D01*
X1173622Y-10617674D02*
X1183145Y-10636722D01*
X1183145Y-10636722D02*
X1183145Y-10741484D01*
X1183145Y-10636722D02*
X1192669Y-10617674D01*
X1192669Y-10617674D02*
X1211717Y-10608150D01*
X1211717Y-10608150D02*
X1240288Y-10608150D01*
X1240288Y-10608150D02*
X1259336Y-10617674D01*
X1259336Y-10617674D02*
X1268860Y-10636722D01*
X1268860Y-10636722D02*
X1268860Y-10741484D01*
X1364098Y-10741484D02*
X1364098Y-10608150D01*
X1364098Y-10627198D02*
X1373622Y-10617674D01*
X1373622Y-10617674D02*
X1392669Y-10608150D01*
X1392669Y-10608150D02*
X1421241Y-10608150D01*
X1421241Y-10608150D02*
X1440288Y-10617674D01*
X1440288Y-10617674D02*
X1449812Y-10636722D01*
X1449812Y-10636722D02*
X1449812Y-10741484D01*
X1449812Y-10636722D02*
X1459336Y-10617674D01*
X1459336Y-10617674D02*
X1478383Y-10608150D01*
X1478383Y-10608150D02*
X1506955Y-10608150D01*
X1506955Y-10608150D02*
X1526002Y-10617674D01*
X1526002Y-10617674D02*
X1535526Y-10636722D01*
X1535526Y-10636722D02*
X1535526Y-10741484D01*
X1926002Y-10531960D02*
X1754574Y-10789103D01*
X2183145Y-10541484D02*
X2202193Y-10541484D01*
X2202193Y-10541484D02*
X2221241Y-10551008D01*
X2221241Y-10551008D02*
X2230765Y-10560531D01*
X2230765Y-10560531D02*
X2240288Y-10579579D01*
X2240288Y-10579579D02*
X2249812Y-10617674D01*
X2249812Y-10617674D02*
X2249812Y-10665293D01*
X2249812Y-10665293D02*
X2240288Y-10703389D01*
X2240288Y-10703389D02*
X2230765Y-10722436D01*
X2230765Y-10722436D02*
X2221241Y-10731960D01*
X2221241Y-10731960D02*
X2202193Y-10741484D01*
X2202193Y-10741484D02*
X2183145Y-10741484D01*
X2183145Y-10741484D02*
X2164098Y-10731960D01*
X2164098Y-10731960D02*
X2154574Y-10722436D01*
X2154574Y-10722436D02*
X2145050Y-10703389D01*
X2145050Y-10703389D02*
X2135526Y-10665293D01*
X2135526Y-10665293D02*
X2135526Y-10617674D01*
X2135526Y-10617674D02*
X2145050Y-10579579D01*
X2145050Y-10579579D02*
X2154574Y-10560531D01*
X2154574Y-10560531D02*
X2164098Y-10551008D01*
X2164098Y-10551008D02*
X2183145Y-10541484D01*
X2335526Y-10722436D02*
X2345050Y-10731960D01*
X2345050Y-10731960D02*
X2335526Y-10741484D01*
X2335526Y-10741484D02*
X2326003Y-10731960D01*
X2326003Y-10731960D02*
X2335526Y-10722436D01*
X2335526Y-10722436D02*
X2335526Y-10741484D01*
X2468860Y-10541484D02*
X2487907Y-10541484D01*
X2487907Y-10541484D02*
X2506955Y-10551008D01*
X2506955Y-10551008D02*
X2516479Y-10560531D01*
X2516479Y-10560531D02*
X2526003Y-10579579D01*
X2526003Y-10579579D02*
X2535526Y-10617674D01*
X2535526Y-10617674D02*
X2535526Y-10665293D01*
X2535526Y-10665293D02*
X2526003Y-10703389D01*
X2526003Y-10703389D02*
X2516479Y-10722436D01*
X2516479Y-10722436D02*
X2506955Y-10731960D01*
X2506955Y-10731960D02*
X2487907Y-10741484D01*
X2487907Y-10741484D02*
X2468860Y-10741484D01*
X2468860Y-10741484D02*
X2449812Y-10731960D01*
X2449812Y-10731960D02*
X2440288Y-10722436D01*
X2440288Y-10722436D02*
X2430765Y-10703389D01*
X2430765Y-10703389D02*
X2421241Y-10665293D01*
X2421241Y-10665293D02*
X2421241Y-10617674D01*
X2421241Y-10617674D02*
X2430765Y-10579579D01*
X2430765Y-10579579D02*
X2440288Y-10560531D01*
X2440288Y-10560531D02*
X2449812Y-10551008D01*
X2449812Y-10551008D02*
X2468860Y-10541484D01*
X2726003Y-10741484D02*
X2611717Y-10741484D01*
X2668860Y-10741484D02*
X2668860Y-10541484D01*
X2668860Y-10541484D02*
X2649812Y-10570055D01*
X2649812Y-10570055D02*
X2630765Y-10589103D01*
X2630765Y-10589103D02*
X2611717Y-10598627D01*
X2906955Y-10541484D02*
X2811717Y-10541484D01*
X2811717Y-10541484D02*
X2802193Y-10636722D01*
X2802193Y-10636722D02*
X2811717Y-10627198D01*
X2811717Y-10627198D02*
X2830764Y-10617674D01*
X2830764Y-10617674D02*
X2878384Y-10617674D01*
X2878384Y-10617674D02*
X2897431Y-10627198D01*
X2897431Y-10627198D02*
X2906955Y-10636722D01*
X2906955Y-10636722D02*
X2916479Y-10655770D01*
X2916479Y-10655770D02*
X2916479Y-10703389D01*
X2916479Y-10703389D02*
X2906955Y-10722436D01*
X2906955Y-10722436D02*
X2897431Y-10731960D01*
X2897431Y-10731960D02*
X2878384Y-10741484D01*
X2878384Y-10741484D02*
X2830764Y-10741484D01*
X2830764Y-10741484D02*
X2811717Y-10731960D01*
X2811717Y-10731960D02*
X2802193Y-10722436D01*
X2983145Y-10541484D02*
X3116479Y-10541484D01*
X3116479Y-10541484D02*
X3030764Y-10741484D01*
X3183145Y-10541484D02*
X3183145Y-10579579D01*
X3259336Y-10541484D02*
X3259336Y-10579579D01*
X3554574Y-10817674D02*
X3545050Y-10808150D01*
X3545050Y-10808150D02*
X3526003Y-10779579D01*
X3526003Y-10779579D02*
X3516479Y-10760531D01*
X3516479Y-10760531D02*
X3506955Y-10731960D01*
X3506955Y-10731960D02*
X3497431Y-10684341D01*
X3497431Y-10684341D02*
X3497431Y-10646246D01*
X3497431Y-10646246D02*
X3506955Y-10598627D01*
X3506955Y-10598627D02*
X3516479Y-10570055D01*
X3516479Y-10570055D02*
X3526003Y-10551008D01*
X3526003Y-10551008D02*
X3545050Y-10522436D01*
X3545050Y-10522436D02*
X3554574Y-10512912D01*
X3621241Y-10560531D02*
X3630765Y-10551008D01*
X3630765Y-10551008D02*
X3649812Y-10541484D01*
X3649812Y-10541484D02*
X3697431Y-10541484D01*
X3697431Y-10541484D02*
X3716479Y-10551008D01*
X3716479Y-10551008D02*
X3726003Y-10560531D01*
X3726003Y-10560531D02*
X3735526Y-10579579D01*
X3735526Y-10579579D02*
X3735526Y-10598627D01*
X3735526Y-10598627D02*
X3726003Y-10627198D01*
X3726003Y-10627198D02*
X3611717Y-10741484D01*
X3611717Y-10741484D02*
X3735526Y-10741484D01*
X3859336Y-10541484D02*
X3878384Y-10541484D01*
X3878384Y-10541484D02*
X3897431Y-10551008D01*
X3897431Y-10551008D02*
X3906955Y-10560531D01*
X3906955Y-10560531D02*
X3916479Y-10579579D01*
X3916479Y-10579579D02*
X3926003Y-10617674D01*
X3926003Y-10617674D02*
X3926003Y-10665293D01*
X3926003Y-10665293D02*
X3916479Y-10703389D01*
X3916479Y-10703389D02*
X3906955Y-10722436D01*
X3906955Y-10722436D02*
X3897431Y-10731960D01*
X3897431Y-10731960D02*
X3878384Y-10741484D01*
X3878384Y-10741484D02*
X3859336Y-10741484D01*
X3859336Y-10741484D02*
X3840288Y-10731960D01*
X3840288Y-10731960D02*
X3830765Y-10722436D01*
X3830765Y-10722436D02*
X3821241Y-10703389D01*
X3821241Y-10703389D02*
X3811717Y-10665293D01*
X3811717Y-10665293D02*
X3811717Y-10617674D01*
X3811717Y-10617674D02*
X3821241Y-10579579D01*
X3821241Y-10579579D02*
X3830765Y-10560531D01*
X3830765Y-10560531D02*
X3840288Y-10551008D01*
X3840288Y-10551008D02*
X3859336Y-10541484D01*
X4164098Y-10741484D02*
X4164098Y-10541484D01*
X4249812Y-10741484D02*
X4249812Y-10636722D01*
X4249812Y-10636722D02*
X4240289Y-10617674D01*
X4240289Y-10617674D02*
X4221241Y-10608150D01*
X4221241Y-10608150D02*
X4192669Y-10608150D01*
X4192669Y-10608150D02*
X4173622Y-10617674D01*
X4173622Y-10617674D02*
X4164098Y-10627198D01*
X4373622Y-10741484D02*
X4354574Y-10731960D01*
X4354574Y-10731960D02*
X4345050Y-10722436D01*
X4345050Y-10722436D02*
X4335527Y-10703389D01*
X4335527Y-10703389D02*
X4335527Y-10646246D01*
X4335527Y-10646246D02*
X4345050Y-10627198D01*
X4345050Y-10627198D02*
X4354574Y-10617674D01*
X4354574Y-10617674D02*
X4373622Y-10608150D01*
X4373622Y-10608150D02*
X4402193Y-10608150D01*
X4402193Y-10608150D02*
X4421241Y-10617674D01*
X4421241Y-10617674D02*
X4430765Y-10627198D01*
X4430765Y-10627198D02*
X4440289Y-10646246D01*
X4440289Y-10646246D02*
X4440289Y-10703389D01*
X4440289Y-10703389D02*
X4430765Y-10722436D01*
X4430765Y-10722436D02*
X4421241Y-10731960D01*
X4421241Y-10731960D02*
X4402193Y-10741484D01*
X4402193Y-10741484D02*
X4373622Y-10741484D01*
X4554574Y-10741484D02*
X4535527Y-10731960D01*
X4535527Y-10731960D02*
X4526003Y-10712912D01*
X4526003Y-10712912D02*
X4526003Y-10541484D01*
X4706955Y-10731960D02*
X4687908Y-10741484D01*
X4687908Y-10741484D02*
X4649812Y-10741484D01*
X4649812Y-10741484D02*
X4630765Y-10731960D01*
X4630765Y-10731960D02*
X4621241Y-10712912D01*
X4621241Y-10712912D02*
X4621241Y-10636722D01*
X4621241Y-10636722D02*
X4630765Y-10617674D01*
X4630765Y-10617674D02*
X4649812Y-10608150D01*
X4649812Y-10608150D02*
X4687908Y-10608150D01*
X4687908Y-10608150D02*
X4706955Y-10617674D01*
X4706955Y-10617674D02*
X4716479Y-10636722D01*
X4716479Y-10636722D02*
X4716479Y-10655770D01*
X4716479Y-10655770D02*
X4621241Y-10674817D01*
X4792670Y-10731960D02*
X4811717Y-10741484D01*
X4811717Y-10741484D02*
X4849812Y-10741484D01*
X4849812Y-10741484D02*
X4868860Y-10731960D01*
X4868860Y-10731960D02*
X4878384Y-10712912D01*
X4878384Y-10712912D02*
X4878384Y-10703389D01*
X4878384Y-10703389D02*
X4868860Y-10684341D01*
X4868860Y-10684341D02*
X4849812Y-10674817D01*
X4849812Y-10674817D02*
X4821241Y-10674817D01*
X4821241Y-10674817D02*
X4802193Y-10665293D01*
X4802193Y-10665293D02*
X4792670Y-10646246D01*
X4792670Y-10646246D02*
X4792670Y-10636722D01*
X4792670Y-10636722D02*
X4802193Y-10617674D01*
X4802193Y-10617674D02*
X4821241Y-10608150D01*
X4821241Y-10608150D02*
X4849812Y-10608150D01*
X4849812Y-10608150D02*
X4868860Y-10617674D01*
X4945051Y-10817674D02*
X4954574Y-10808150D01*
X4954574Y-10808150D02*
X4973622Y-10779579D01*
X4973622Y-10779579D02*
X4983146Y-10760531D01*
X4983146Y-10760531D02*
X4992670Y-10731960D01*
X4992670Y-10731960D02*
X5002193Y-10684341D01*
X5002193Y-10684341D02*
X5002193Y-10646246D01*
X5002193Y-10646246D02*
X4992670Y-10598627D01*
X4992670Y-10598627D02*
X4983146Y-10570055D01*
X4983146Y-10570055D02*
X4973622Y-10551008D01*
X4973622Y-10551008D02*
X4954574Y-10522436D01*
X4954574Y-10522436D02*
X4945051Y-10512912D01*
D12*
X-20489Y-10914000D02*
G75*
G02*
X-100489Y-10914000I-40000J0D01*
G01*
X-100489Y-10914000D02*
G75*
G02*
X-20489Y-10914000I40000J0D01*
G01*
D10*
X278383Y-10805484D02*
X297431Y-10805484D01*
X297431Y-10805484D02*
X316479Y-10815008D01*
X316479Y-10815008D02*
X326002Y-10824531D01*
X326002Y-10824531D02*
X335526Y-10843579D01*
X335526Y-10843579D02*
X345050Y-10881674D01*
X345050Y-10881674D02*
X345050Y-10929293D01*
X345050Y-10929293D02*
X335526Y-10967389D01*
X335526Y-10967389D02*
X326002Y-10986436D01*
X326002Y-10986436D02*
X316479Y-10995960D01*
X316479Y-10995960D02*
X297431Y-11005484D01*
X297431Y-11005484D02*
X278383Y-11005484D01*
X278383Y-11005484D02*
X259336Y-10995960D01*
X259336Y-10995960D02*
X249812Y-10986436D01*
X249812Y-10986436D02*
X240288Y-10967389D01*
X240288Y-10967389D02*
X230764Y-10929293D01*
X230764Y-10929293D02*
X230764Y-10881674D01*
X230764Y-10881674D02*
X240288Y-10843579D01*
X240288Y-10843579D02*
X249812Y-10824531D01*
X249812Y-10824531D02*
X259336Y-10815008D01*
X259336Y-10815008D02*
X278383Y-10805484D01*
X430764Y-10986436D02*
X440288Y-10995960D01*
X440288Y-10995960D02*
X430764Y-11005484D01*
X430764Y-11005484D02*
X421240Y-10995960D01*
X421240Y-10995960D02*
X430764Y-10986436D01*
X430764Y-10986436D02*
X430764Y-11005484D01*
X554574Y-10891198D02*
X535526Y-10881674D01*
X535526Y-10881674D02*
X526002Y-10872150D01*
X526002Y-10872150D02*
X516479Y-10853103D01*
X516479Y-10853103D02*
X516479Y-10843579D01*
X516479Y-10843579D02*
X526002Y-10824531D01*
X526002Y-10824531D02*
X535526Y-10815008D01*
X535526Y-10815008D02*
X554574Y-10805484D01*
X554574Y-10805484D02*
X592669Y-10805484D01*
X592669Y-10805484D02*
X611717Y-10815008D01*
X611717Y-10815008D02*
X621241Y-10824531D01*
X621241Y-10824531D02*
X630764Y-10843579D01*
X630764Y-10843579D02*
X630764Y-10853103D01*
X630764Y-10853103D02*
X621241Y-10872150D01*
X621241Y-10872150D02*
X611717Y-10881674D01*
X611717Y-10881674D02*
X592669Y-10891198D01*
X592669Y-10891198D02*
X554574Y-10891198D01*
X554574Y-10891198D02*
X535526Y-10900722D01*
X535526Y-10900722D02*
X526002Y-10910246D01*
X526002Y-10910246D02*
X516479Y-10929293D01*
X516479Y-10929293D02*
X516479Y-10967389D01*
X516479Y-10967389D02*
X526002Y-10986436D01*
X526002Y-10986436D02*
X535526Y-10995960D01*
X535526Y-10995960D02*
X554574Y-11005484D01*
X554574Y-11005484D02*
X592669Y-11005484D01*
X592669Y-11005484D02*
X611717Y-10995960D01*
X611717Y-10995960D02*
X621241Y-10986436D01*
X621241Y-10986436D02*
X630764Y-10967389D01*
X630764Y-10967389D02*
X630764Y-10929293D01*
X630764Y-10929293D02*
X621241Y-10910246D01*
X621241Y-10910246D02*
X611717Y-10900722D01*
X611717Y-10900722D02*
X592669Y-10891198D01*
X754574Y-10805484D02*
X773621Y-10805484D01*
X773621Y-10805484D02*
X792669Y-10815008D01*
X792669Y-10815008D02*
X802193Y-10824531D01*
X802193Y-10824531D02*
X811717Y-10843579D01*
X811717Y-10843579D02*
X821240Y-10881674D01*
X821240Y-10881674D02*
X821240Y-10929293D01*
X821240Y-10929293D02*
X811717Y-10967389D01*
X811717Y-10967389D02*
X802193Y-10986436D01*
X802193Y-10986436D02*
X792669Y-10995960D01*
X792669Y-10995960D02*
X773621Y-11005484D01*
X773621Y-11005484D02*
X754574Y-11005484D01*
X754574Y-11005484D02*
X735526Y-10995960D01*
X735526Y-10995960D02*
X726002Y-10986436D01*
X726002Y-10986436D02*
X716479Y-10967389D01*
X716479Y-10967389D02*
X706955Y-10929293D01*
X706955Y-10929293D02*
X706955Y-10881674D01*
X706955Y-10881674D02*
X716479Y-10843579D01*
X716479Y-10843579D02*
X726002Y-10824531D01*
X726002Y-10824531D02*
X735526Y-10815008D01*
X735526Y-10815008D02*
X754574Y-10805484D01*
X945050Y-10805484D02*
X964098Y-10805484D01*
X964098Y-10805484D02*
X983145Y-10815008D01*
X983145Y-10815008D02*
X992669Y-10824531D01*
X992669Y-10824531D02*
X1002193Y-10843579D01*
X1002193Y-10843579D02*
X1011717Y-10881674D01*
X1011717Y-10881674D02*
X1011717Y-10929293D01*
X1011717Y-10929293D02*
X1002193Y-10967389D01*
X1002193Y-10967389D02*
X992669Y-10986436D01*
X992669Y-10986436D02*
X983145Y-10995960D01*
X983145Y-10995960D02*
X964098Y-11005484D01*
X964098Y-11005484D02*
X945050Y-11005484D01*
X945050Y-11005484D02*
X926002Y-10995960D01*
X926002Y-10995960D02*
X916479Y-10986436D01*
X916479Y-10986436D02*
X906955Y-10967389D01*
X906955Y-10967389D02*
X897431Y-10929293D01*
X897431Y-10929293D02*
X897431Y-10881674D01*
X897431Y-10881674D02*
X906955Y-10843579D01*
X906955Y-10843579D02*
X916479Y-10824531D01*
X916479Y-10824531D02*
X926002Y-10815008D01*
X926002Y-10815008D02*
X945050Y-10805484D01*
X1097431Y-11005484D02*
X1097431Y-10872150D01*
X1097431Y-10891198D02*
X1106955Y-10881674D01*
X1106955Y-10881674D02*
X1126002Y-10872150D01*
X1126002Y-10872150D02*
X1154574Y-10872150D01*
X1154574Y-10872150D02*
X1173622Y-10881674D01*
X1173622Y-10881674D02*
X1183145Y-10900722D01*
X1183145Y-10900722D02*
X1183145Y-11005484D01*
X1183145Y-10900722D02*
X1192669Y-10881674D01*
X1192669Y-10881674D02*
X1211717Y-10872150D01*
X1211717Y-10872150D02*
X1240288Y-10872150D01*
X1240288Y-10872150D02*
X1259336Y-10881674D01*
X1259336Y-10881674D02*
X1268860Y-10900722D01*
X1268860Y-10900722D02*
X1268860Y-11005484D01*
X1364098Y-11005484D02*
X1364098Y-10872150D01*
X1364098Y-10891198D02*
X1373622Y-10881674D01*
X1373622Y-10881674D02*
X1392669Y-10872150D01*
X1392669Y-10872150D02*
X1421241Y-10872150D01*
X1421241Y-10872150D02*
X1440288Y-10881674D01*
X1440288Y-10881674D02*
X1449812Y-10900722D01*
X1449812Y-10900722D02*
X1449812Y-11005484D01*
X1449812Y-10900722D02*
X1459336Y-10881674D01*
X1459336Y-10881674D02*
X1478383Y-10872150D01*
X1478383Y-10872150D02*
X1506955Y-10872150D01*
X1506955Y-10872150D02*
X1526002Y-10881674D01*
X1526002Y-10881674D02*
X1535526Y-10900722D01*
X1535526Y-10900722D02*
X1535526Y-11005484D01*
X1926002Y-10795960D02*
X1754574Y-11053103D01*
X2183145Y-10805484D02*
X2202193Y-10805484D01*
X2202193Y-10805484D02*
X2221241Y-10815008D01*
X2221241Y-10815008D02*
X2230765Y-10824531D01*
X2230765Y-10824531D02*
X2240288Y-10843579D01*
X2240288Y-10843579D02*
X2249812Y-10881674D01*
X2249812Y-10881674D02*
X2249812Y-10929293D01*
X2249812Y-10929293D02*
X2240288Y-10967389D01*
X2240288Y-10967389D02*
X2230765Y-10986436D01*
X2230765Y-10986436D02*
X2221241Y-10995960D01*
X2221241Y-10995960D02*
X2202193Y-11005484D01*
X2202193Y-11005484D02*
X2183145Y-11005484D01*
X2183145Y-11005484D02*
X2164098Y-10995960D01*
X2164098Y-10995960D02*
X2154574Y-10986436D01*
X2154574Y-10986436D02*
X2145050Y-10967389D01*
X2145050Y-10967389D02*
X2135526Y-10929293D01*
X2135526Y-10929293D02*
X2135526Y-10881674D01*
X2135526Y-10881674D02*
X2145050Y-10843579D01*
X2145050Y-10843579D02*
X2154574Y-10824531D01*
X2154574Y-10824531D02*
X2164098Y-10815008D01*
X2164098Y-10815008D02*
X2183145Y-10805484D01*
X2335526Y-10986436D02*
X2345050Y-10995960D01*
X2345050Y-10995960D02*
X2335526Y-11005484D01*
X2335526Y-11005484D02*
X2326003Y-10995960D01*
X2326003Y-10995960D02*
X2335526Y-10986436D01*
X2335526Y-10986436D02*
X2335526Y-11005484D01*
X2468860Y-10805484D02*
X2487907Y-10805484D01*
X2487907Y-10805484D02*
X2506955Y-10815008D01*
X2506955Y-10815008D02*
X2516479Y-10824531D01*
X2516479Y-10824531D02*
X2526003Y-10843579D01*
X2526003Y-10843579D02*
X2535526Y-10881674D01*
X2535526Y-10881674D02*
X2535526Y-10929293D01*
X2535526Y-10929293D02*
X2526003Y-10967389D01*
X2526003Y-10967389D02*
X2516479Y-10986436D01*
X2516479Y-10986436D02*
X2506955Y-10995960D01*
X2506955Y-10995960D02*
X2487907Y-11005484D01*
X2487907Y-11005484D02*
X2468860Y-11005484D01*
X2468860Y-11005484D02*
X2449812Y-10995960D01*
X2449812Y-10995960D02*
X2440288Y-10986436D01*
X2440288Y-10986436D02*
X2430765Y-10967389D01*
X2430765Y-10967389D02*
X2421241Y-10929293D01*
X2421241Y-10929293D02*
X2421241Y-10881674D01*
X2421241Y-10881674D02*
X2430765Y-10843579D01*
X2430765Y-10843579D02*
X2440288Y-10824531D01*
X2440288Y-10824531D02*
X2449812Y-10815008D01*
X2449812Y-10815008D02*
X2468860Y-10805484D01*
X2602193Y-10805484D02*
X2726003Y-10805484D01*
X2726003Y-10805484D02*
X2659336Y-10881674D01*
X2659336Y-10881674D02*
X2687907Y-10881674D01*
X2687907Y-10881674D02*
X2706955Y-10891198D01*
X2706955Y-10891198D02*
X2716479Y-10900722D01*
X2716479Y-10900722D02*
X2726003Y-10919770D01*
X2726003Y-10919770D02*
X2726003Y-10967389D01*
X2726003Y-10967389D02*
X2716479Y-10986436D01*
X2716479Y-10986436D02*
X2706955Y-10995960D01*
X2706955Y-10995960D02*
X2687907Y-11005484D01*
X2687907Y-11005484D02*
X2630765Y-11005484D01*
X2630765Y-11005484D02*
X2611717Y-10995960D01*
X2611717Y-10995960D02*
X2602193Y-10986436D01*
X2916479Y-11005484D02*
X2802193Y-11005484D01*
X2859336Y-11005484D02*
X2859336Y-10805484D01*
X2859336Y-10805484D02*
X2840288Y-10834055D01*
X2840288Y-10834055D02*
X2821241Y-10853103D01*
X2821241Y-10853103D02*
X2802193Y-10862627D01*
X3097431Y-10805484D02*
X3002193Y-10805484D01*
X3002193Y-10805484D02*
X2992669Y-10900722D01*
X2992669Y-10900722D02*
X3002193Y-10891198D01*
X3002193Y-10891198D02*
X3021241Y-10881674D01*
X3021241Y-10881674D02*
X3068860Y-10881674D01*
X3068860Y-10881674D02*
X3087907Y-10891198D01*
X3087907Y-10891198D02*
X3097431Y-10900722D01*
X3097431Y-10900722D02*
X3106955Y-10919770D01*
X3106955Y-10919770D02*
X3106955Y-10967389D01*
X3106955Y-10967389D02*
X3097431Y-10986436D01*
X3097431Y-10986436D02*
X3087907Y-10995960D01*
X3087907Y-10995960D02*
X3068860Y-11005484D01*
X3068860Y-11005484D02*
X3021241Y-11005484D01*
X3021241Y-11005484D02*
X3002193Y-10995960D01*
X3002193Y-10995960D02*
X2992669Y-10986436D01*
X3183145Y-10805484D02*
X3183145Y-10843579D01*
X3259336Y-10805484D02*
X3259336Y-10843579D01*
X3554574Y-11081674D02*
X3545050Y-11072150D01*
X3545050Y-11072150D02*
X3526003Y-11043579D01*
X3526003Y-11043579D02*
X3516479Y-11024531D01*
X3516479Y-11024531D02*
X3506955Y-10995960D01*
X3506955Y-10995960D02*
X3497431Y-10948341D01*
X3497431Y-10948341D02*
X3497431Y-10910246D01*
X3497431Y-10910246D02*
X3506955Y-10862627D01*
X3506955Y-10862627D02*
X3516479Y-10834055D01*
X3516479Y-10834055D02*
X3526003Y-10815008D01*
X3526003Y-10815008D02*
X3545050Y-10786436D01*
X3545050Y-10786436D02*
X3554574Y-10776912D01*
X3621241Y-10824531D02*
X3630765Y-10815008D01*
X3630765Y-10815008D02*
X3649812Y-10805484D01*
X3649812Y-10805484D02*
X3697431Y-10805484D01*
X3697431Y-10805484D02*
X3716479Y-10815008D01*
X3716479Y-10815008D02*
X3726003Y-10824531D01*
X3726003Y-10824531D02*
X3735526Y-10843579D01*
X3735526Y-10843579D02*
X3735526Y-10862627D01*
X3735526Y-10862627D02*
X3726003Y-10891198D01*
X3726003Y-10891198D02*
X3611717Y-11005484D01*
X3611717Y-11005484D02*
X3735526Y-11005484D01*
X3802193Y-10805484D02*
X3935526Y-10805484D01*
X3935526Y-10805484D02*
X3849812Y-11005484D01*
X4040288Y-10891198D02*
X4021241Y-10881674D01*
X4021241Y-10881674D02*
X4011717Y-10872150D01*
X4011717Y-10872150D02*
X4002193Y-10853103D01*
X4002193Y-10853103D02*
X4002193Y-10843579D01*
X4002193Y-10843579D02*
X4011717Y-10824531D01*
X4011717Y-10824531D02*
X4021241Y-10815008D01*
X4021241Y-10815008D02*
X4040288Y-10805484D01*
X4040288Y-10805484D02*
X4078384Y-10805484D01*
X4078384Y-10805484D02*
X4097431Y-10815008D01*
X4097431Y-10815008D02*
X4106955Y-10824531D01*
X4106955Y-10824531D02*
X4116479Y-10843579D01*
X4116479Y-10843579D02*
X4116479Y-10853103D01*
X4116479Y-10853103D02*
X4106955Y-10872150D01*
X4106955Y-10872150D02*
X4097431Y-10881674D01*
X4097431Y-10881674D02*
X4078384Y-10891198D01*
X4078384Y-10891198D02*
X4040288Y-10891198D01*
X4040288Y-10891198D02*
X4021241Y-10900722D01*
X4021241Y-10900722D02*
X4011717Y-10910246D01*
X4011717Y-10910246D02*
X4002193Y-10929293D01*
X4002193Y-10929293D02*
X4002193Y-10967389D01*
X4002193Y-10967389D02*
X4011717Y-10986436D01*
X4011717Y-10986436D02*
X4021241Y-10995960D01*
X4021241Y-10995960D02*
X4040288Y-11005484D01*
X4040288Y-11005484D02*
X4078384Y-11005484D01*
X4078384Y-11005484D02*
X4097431Y-10995960D01*
X4097431Y-10995960D02*
X4106955Y-10986436D01*
X4106955Y-10986436D02*
X4116479Y-10967389D01*
X4116479Y-10967389D02*
X4116479Y-10929293D01*
X4116479Y-10929293D02*
X4106955Y-10910246D01*
X4106955Y-10910246D02*
X4097431Y-10900722D01*
X4097431Y-10900722D02*
X4078384Y-10891198D01*
X4354574Y-11005484D02*
X4354574Y-10805484D01*
X4440289Y-11005484D02*
X4440289Y-10900722D01*
X4440289Y-10900722D02*
X4430765Y-10881674D01*
X4430765Y-10881674D02*
X4411717Y-10872150D01*
X4411717Y-10872150D02*
X4383146Y-10872150D01*
X4383146Y-10872150D02*
X4364098Y-10881674D01*
X4364098Y-10881674D02*
X4354574Y-10891198D01*
X4564098Y-11005484D02*
X4545050Y-10995960D01*
X4545050Y-10995960D02*
X4535527Y-10986436D01*
X4535527Y-10986436D02*
X4526003Y-10967389D01*
X4526003Y-10967389D02*
X4526003Y-10910246D01*
X4526003Y-10910246D02*
X4535527Y-10891198D01*
X4535527Y-10891198D02*
X4545050Y-10881674D01*
X4545050Y-10881674D02*
X4564098Y-10872150D01*
X4564098Y-10872150D02*
X4592670Y-10872150D01*
X4592670Y-10872150D02*
X4611717Y-10881674D01*
X4611717Y-10881674D02*
X4621241Y-10891198D01*
X4621241Y-10891198D02*
X4630765Y-10910246D01*
X4630765Y-10910246D02*
X4630765Y-10967389D01*
X4630765Y-10967389D02*
X4621241Y-10986436D01*
X4621241Y-10986436D02*
X4611717Y-10995960D01*
X4611717Y-10995960D02*
X4592670Y-11005484D01*
X4592670Y-11005484D02*
X4564098Y-11005484D01*
X4745050Y-11005484D02*
X4726003Y-10995960D01*
X4726003Y-10995960D02*
X4716479Y-10976912D01*
X4716479Y-10976912D02*
X4716479Y-10805484D01*
X4897431Y-10995960D02*
X4878384Y-11005484D01*
X4878384Y-11005484D02*
X4840289Y-11005484D01*
X4840289Y-11005484D02*
X4821241Y-10995960D01*
X4821241Y-10995960D02*
X4811717Y-10976912D01*
X4811717Y-10976912D02*
X4811717Y-10900722D01*
X4811717Y-10900722D02*
X4821241Y-10881674D01*
X4821241Y-10881674D02*
X4840289Y-10872150D01*
X4840289Y-10872150D02*
X4878384Y-10872150D01*
X4878384Y-10872150D02*
X4897431Y-10881674D01*
X4897431Y-10881674D02*
X4906955Y-10900722D01*
X4906955Y-10900722D02*
X4906955Y-10919770D01*
X4906955Y-10919770D02*
X4811717Y-10938817D01*
X4983146Y-10995960D02*
X5002193Y-11005484D01*
X5002193Y-11005484D02*
X5040289Y-11005484D01*
X5040289Y-11005484D02*
X5059336Y-10995960D01*
X5059336Y-10995960D02*
X5068860Y-10976912D01*
X5068860Y-10976912D02*
X5068860Y-10967389D01*
X5068860Y-10967389D02*
X5059336Y-10948341D01*
X5059336Y-10948341D02*
X5040289Y-10938817D01*
X5040289Y-10938817D02*
X5011717Y-10938817D01*
X5011717Y-10938817D02*
X4992670Y-10929293D01*
X4992670Y-10929293D02*
X4983146Y-10910246D01*
X4983146Y-10910246D02*
X4983146Y-10900722D01*
X4983146Y-10900722D02*
X4992670Y-10881674D01*
X4992670Y-10881674D02*
X5011717Y-10872150D01*
X5011717Y-10872150D02*
X5040289Y-10872150D01*
X5040289Y-10872150D02*
X5059336Y-10881674D01*
X5135527Y-11081674D02*
X5145051Y-11072150D01*
X5145051Y-11072150D02*
X5164098Y-11043579D01*
X5164098Y-11043579D02*
X5173622Y-11024531D01*
X5173622Y-11024531D02*
X5183146Y-10995960D01*
X5183146Y-10995960D02*
X5192670Y-10948341D01*
X5192670Y-10948341D02*
X5192670Y-10910246D01*
X5192670Y-10910246D02*
X5183146Y-10862627D01*
X5183146Y-10862627D02*
X5173622Y-10834055D01*
X5173622Y-10834055D02*
X5164098Y-10815008D01*
X5164098Y-10815008D02*
X5145051Y-10786436D01*
X5145051Y-10786436D02*
X5135527Y-10776912D01*
D12*
X-65489Y-11133000D02*
X-65489Y-11223000D01*
X-110489Y-11178000D02*
X-20489Y-11178000D01*
D10*
X278383Y-11069484D02*
X297431Y-11069484D01*
X297431Y-11069484D02*
X316479Y-11079008D01*
X316479Y-11079008D02*
X326002Y-11088531D01*
X326002Y-11088531D02*
X335526Y-11107579D01*
X335526Y-11107579D02*
X345050Y-11145674D01*
X345050Y-11145674D02*
X345050Y-11193293D01*
X345050Y-11193293D02*
X335526Y-11231388D01*
X335526Y-11231388D02*
X326002Y-11250436D01*
X326002Y-11250436D02*
X316479Y-11259960D01*
X316479Y-11259960D02*
X297431Y-11269484D01*
X297431Y-11269484D02*
X278383Y-11269484D01*
X278383Y-11269484D02*
X259336Y-11259960D01*
X259336Y-11259960D02*
X249812Y-11250436D01*
X249812Y-11250436D02*
X240288Y-11231388D01*
X240288Y-11231388D02*
X230764Y-11193293D01*
X230764Y-11193293D02*
X230764Y-11145674D01*
X230764Y-11145674D02*
X240288Y-11107579D01*
X240288Y-11107579D02*
X249812Y-11088531D01*
X249812Y-11088531D02*
X259336Y-11079008D01*
X259336Y-11079008D02*
X278383Y-11069484D01*
X430764Y-11250436D02*
X440288Y-11259960D01*
X440288Y-11259960D02*
X430764Y-11269484D01*
X430764Y-11269484D02*
X421240Y-11259960D01*
X421240Y-11259960D02*
X430764Y-11250436D01*
X430764Y-11250436D02*
X430764Y-11269484D01*
X535526Y-11269484D02*
X573621Y-11269484D01*
X573621Y-11269484D02*
X592669Y-11259960D01*
X592669Y-11259960D02*
X602193Y-11250436D01*
X602193Y-11250436D02*
X621241Y-11221865D01*
X621241Y-11221865D02*
X630764Y-11183770D01*
X630764Y-11183770D02*
X630764Y-11107579D01*
X630764Y-11107579D02*
X621241Y-11088531D01*
X621241Y-11088531D02*
X611717Y-11079008D01*
X611717Y-11079008D02*
X592669Y-11069484D01*
X592669Y-11069484D02*
X554574Y-11069484D01*
X554574Y-11069484D02*
X535526Y-11079008D01*
X535526Y-11079008D02*
X526002Y-11088531D01*
X526002Y-11088531D02*
X516479Y-11107579D01*
X516479Y-11107579D02*
X516479Y-11155198D01*
X516479Y-11155198D02*
X526002Y-11174246D01*
X526002Y-11174246D02*
X535526Y-11183770D01*
X535526Y-11183770D02*
X554574Y-11193293D01*
X554574Y-11193293D02*
X592669Y-11193293D01*
X592669Y-11193293D02*
X611717Y-11183770D01*
X611717Y-11183770D02*
X621241Y-11174246D01*
X621241Y-11174246D02*
X630764Y-11155198D01*
X754574Y-11069484D02*
X773621Y-11069484D01*
X773621Y-11069484D02*
X792669Y-11079008D01*
X792669Y-11079008D02*
X802193Y-11088531D01*
X802193Y-11088531D02*
X811717Y-11107579D01*
X811717Y-11107579D02*
X821240Y-11145674D01*
X821240Y-11145674D02*
X821240Y-11193293D01*
X821240Y-11193293D02*
X811717Y-11231388D01*
X811717Y-11231388D02*
X802193Y-11250436D01*
X802193Y-11250436D02*
X792669Y-11259960D01*
X792669Y-11259960D02*
X773621Y-11269484D01*
X773621Y-11269484D02*
X754574Y-11269484D01*
X754574Y-11269484D02*
X735526Y-11259960D01*
X735526Y-11259960D02*
X726002Y-11250436D01*
X726002Y-11250436D02*
X716479Y-11231388D01*
X716479Y-11231388D02*
X706955Y-11193293D01*
X706955Y-11193293D02*
X706955Y-11145674D01*
X706955Y-11145674D02*
X716479Y-11107579D01*
X716479Y-11107579D02*
X726002Y-11088531D01*
X726002Y-11088531D02*
X735526Y-11079008D01*
X735526Y-11079008D02*
X754574Y-11069484D01*
X945050Y-11069484D02*
X964098Y-11069484D01*
X964098Y-11069484D02*
X983145Y-11079008D01*
X983145Y-11079008D02*
X992669Y-11088531D01*
X992669Y-11088531D02*
X1002193Y-11107579D01*
X1002193Y-11107579D02*
X1011717Y-11145674D01*
X1011717Y-11145674D02*
X1011717Y-11193293D01*
X1011717Y-11193293D02*
X1002193Y-11231388D01*
X1002193Y-11231388D02*
X992669Y-11250436D01*
X992669Y-11250436D02*
X983145Y-11259960D01*
X983145Y-11259960D02*
X964098Y-11269484D01*
X964098Y-11269484D02*
X945050Y-11269484D01*
X945050Y-11269484D02*
X926002Y-11259960D01*
X926002Y-11259960D02*
X916479Y-11250436D01*
X916479Y-11250436D02*
X906955Y-11231388D01*
X906955Y-11231388D02*
X897431Y-11193293D01*
X897431Y-11193293D02*
X897431Y-11145674D01*
X897431Y-11145674D02*
X906955Y-11107579D01*
X906955Y-11107579D02*
X916479Y-11088531D01*
X916479Y-11088531D02*
X926002Y-11079008D01*
X926002Y-11079008D02*
X945050Y-11069484D01*
X1097431Y-11269484D02*
X1097431Y-11136150D01*
X1097431Y-11155198D02*
X1106955Y-11145674D01*
X1106955Y-11145674D02*
X1126002Y-11136150D01*
X1126002Y-11136150D02*
X1154574Y-11136150D01*
X1154574Y-11136150D02*
X1173622Y-11145674D01*
X1173622Y-11145674D02*
X1183145Y-11164722D01*
X1183145Y-11164722D02*
X1183145Y-11269484D01*
X1183145Y-11164722D02*
X1192669Y-11145674D01*
X1192669Y-11145674D02*
X1211717Y-11136150D01*
X1211717Y-11136150D02*
X1240288Y-11136150D01*
X1240288Y-11136150D02*
X1259336Y-11145674D01*
X1259336Y-11145674D02*
X1268860Y-11164722D01*
X1268860Y-11164722D02*
X1268860Y-11269484D01*
X1364098Y-11269484D02*
X1364098Y-11136150D01*
X1364098Y-11155198D02*
X1373622Y-11145674D01*
X1373622Y-11145674D02*
X1392669Y-11136150D01*
X1392669Y-11136150D02*
X1421241Y-11136150D01*
X1421241Y-11136150D02*
X1440288Y-11145674D01*
X1440288Y-11145674D02*
X1449812Y-11164722D01*
X1449812Y-11164722D02*
X1449812Y-11269484D01*
X1449812Y-11164722D02*
X1459336Y-11145674D01*
X1459336Y-11145674D02*
X1478383Y-11136150D01*
X1478383Y-11136150D02*
X1506955Y-11136150D01*
X1506955Y-11136150D02*
X1526002Y-11145674D01*
X1526002Y-11145674D02*
X1535526Y-11164722D01*
X1535526Y-11164722D02*
X1535526Y-11269484D01*
X1926002Y-11059960D02*
X1754574Y-11317103D01*
X2183145Y-11069484D02*
X2202193Y-11069484D01*
X2202193Y-11069484D02*
X2221241Y-11079008D01*
X2221241Y-11079008D02*
X2230765Y-11088531D01*
X2230765Y-11088531D02*
X2240288Y-11107579D01*
X2240288Y-11107579D02*
X2249812Y-11145674D01*
X2249812Y-11145674D02*
X2249812Y-11193293D01*
X2249812Y-11193293D02*
X2240288Y-11231388D01*
X2240288Y-11231388D02*
X2230765Y-11250436D01*
X2230765Y-11250436D02*
X2221241Y-11259960D01*
X2221241Y-11259960D02*
X2202193Y-11269484D01*
X2202193Y-11269484D02*
X2183145Y-11269484D01*
X2183145Y-11269484D02*
X2164098Y-11259960D01*
X2164098Y-11259960D02*
X2154574Y-11250436D01*
X2154574Y-11250436D02*
X2145050Y-11231388D01*
X2145050Y-11231388D02*
X2135526Y-11193293D01*
X2135526Y-11193293D02*
X2135526Y-11145674D01*
X2135526Y-11145674D02*
X2145050Y-11107579D01*
X2145050Y-11107579D02*
X2154574Y-11088531D01*
X2154574Y-11088531D02*
X2164098Y-11079008D01*
X2164098Y-11079008D02*
X2183145Y-11069484D01*
X2335526Y-11250436D02*
X2345050Y-11259960D01*
X2345050Y-11259960D02*
X2335526Y-11269484D01*
X2335526Y-11269484D02*
X2326003Y-11259960D01*
X2326003Y-11259960D02*
X2335526Y-11250436D01*
X2335526Y-11250436D02*
X2335526Y-11269484D01*
X2468860Y-11069484D02*
X2487907Y-11069484D01*
X2487907Y-11069484D02*
X2506955Y-11079008D01*
X2506955Y-11079008D02*
X2516479Y-11088531D01*
X2516479Y-11088531D02*
X2526003Y-11107579D01*
X2526003Y-11107579D02*
X2535526Y-11145674D01*
X2535526Y-11145674D02*
X2535526Y-11193293D01*
X2535526Y-11193293D02*
X2526003Y-11231388D01*
X2526003Y-11231388D02*
X2516479Y-11250436D01*
X2516479Y-11250436D02*
X2506955Y-11259960D01*
X2506955Y-11259960D02*
X2487907Y-11269484D01*
X2487907Y-11269484D02*
X2468860Y-11269484D01*
X2468860Y-11269484D02*
X2449812Y-11259960D01*
X2449812Y-11259960D02*
X2440288Y-11250436D01*
X2440288Y-11250436D02*
X2430765Y-11231388D01*
X2430765Y-11231388D02*
X2421241Y-11193293D01*
X2421241Y-11193293D02*
X2421241Y-11145674D01*
X2421241Y-11145674D02*
X2430765Y-11107579D01*
X2430765Y-11107579D02*
X2440288Y-11088531D01*
X2440288Y-11088531D02*
X2449812Y-11079008D01*
X2449812Y-11079008D02*
X2468860Y-11069484D01*
X2602193Y-11069484D02*
X2726003Y-11069484D01*
X2726003Y-11069484D02*
X2659336Y-11145674D01*
X2659336Y-11145674D02*
X2687907Y-11145674D01*
X2687907Y-11145674D02*
X2706955Y-11155198D01*
X2706955Y-11155198D02*
X2716479Y-11164722D01*
X2716479Y-11164722D02*
X2726003Y-11183770D01*
X2726003Y-11183770D02*
X2726003Y-11231388D01*
X2726003Y-11231388D02*
X2716479Y-11250436D01*
X2716479Y-11250436D02*
X2706955Y-11259960D01*
X2706955Y-11259960D02*
X2687907Y-11269484D01*
X2687907Y-11269484D02*
X2630765Y-11269484D01*
X2630765Y-11269484D02*
X2611717Y-11259960D01*
X2611717Y-11259960D02*
X2602193Y-11250436D01*
X2906955Y-11069484D02*
X2811717Y-11069484D01*
X2811717Y-11069484D02*
X2802193Y-11164722D01*
X2802193Y-11164722D02*
X2811717Y-11155198D01*
X2811717Y-11155198D02*
X2830764Y-11145674D01*
X2830764Y-11145674D02*
X2878384Y-11145674D01*
X2878384Y-11145674D02*
X2897431Y-11155198D01*
X2897431Y-11155198D02*
X2906955Y-11164722D01*
X2906955Y-11164722D02*
X2916479Y-11183770D01*
X2916479Y-11183770D02*
X2916479Y-11231388D01*
X2916479Y-11231388D02*
X2906955Y-11250436D01*
X2906955Y-11250436D02*
X2897431Y-11259960D01*
X2897431Y-11259960D02*
X2878384Y-11269484D01*
X2878384Y-11269484D02*
X2830764Y-11269484D01*
X2830764Y-11269484D02*
X2811717Y-11259960D01*
X2811717Y-11259960D02*
X2802193Y-11250436D01*
X3087907Y-11136150D02*
X3087907Y-11269484D01*
X3040288Y-11059960D02*
X2992669Y-11202817D01*
X2992669Y-11202817D02*
X3116479Y-11202817D01*
X3183145Y-11069484D02*
X3183145Y-11107579D01*
X3259336Y-11069484D02*
X3259336Y-11107579D01*
X3554574Y-11345674D02*
X3545050Y-11336150D01*
X3545050Y-11336150D02*
X3526003Y-11307579D01*
X3526003Y-11307579D02*
X3516479Y-11288531D01*
X3516479Y-11288531D02*
X3506955Y-11259960D01*
X3506955Y-11259960D02*
X3497431Y-11212341D01*
X3497431Y-11212341D02*
X3497431Y-11174246D01*
X3497431Y-11174246D02*
X3506955Y-11126627D01*
X3506955Y-11126627D02*
X3516479Y-11098055D01*
X3516479Y-11098055D02*
X3526003Y-11079008D01*
X3526003Y-11079008D02*
X3545050Y-11050436D01*
X3545050Y-11050436D02*
X3554574Y-11040912D01*
X3735526Y-11269484D02*
X3621241Y-11269484D01*
X3678384Y-11269484D02*
X3678384Y-11069484D01*
X3678384Y-11069484D02*
X3659336Y-11098055D01*
X3659336Y-11098055D02*
X3640288Y-11117103D01*
X3640288Y-11117103D02*
X3621241Y-11126627D01*
X3811717Y-11088531D02*
X3821241Y-11079008D01*
X3821241Y-11079008D02*
X3840288Y-11069484D01*
X3840288Y-11069484D02*
X3887907Y-11069484D01*
X3887907Y-11069484D02*
X3906955Y-11079008D01*
X3906955Y-11079008D02*
X3916479Y-11088531D01*
X3916479Y-11088531D02*
X3926003Y-11107579D01*
X3926003Y-11107579D02*
X3926003Y-11126627D01*
X3926003Y-11126627D02*
X3916479Y-11155198D01*
X3916479Y-11155198D02*
X3802193Y-11269484D01*
X3802193Y-11269484D02*
X3926003Y-11269484D01*
X4164098Y-11269484D02*
X4164098Y-11069484D01*
X4249812Y-11269484D02*
X4249812Y-11164722D01*
X4249812Y-11164722D02*
X4240289Y-11145674D01*
X4240289Y-11145674D02*
X4221241Y-11136150D01*
X4221241Y-11136150D02*
X4192669Y-11136150D01*
X4192669Y-11136150D02*
X4173622Y-11145674D01*
X4173622Y-11145674D02*
X4164098Y-11155198D01*
X4373622Y-11269484D02*
X4354574Y-11259960D01*
X4354574Y-11259960D02*
X4345050Y-11250436D01*
X4345050Y-11250436D02*
X4335527Y-11231388D01*
X4335527Y-11231388D02*
X4335527Y-11174246D01*
X4335527Y-11174246D02*
X4345050Y-11155198D01*
X4345050Y-11155198D02*
X4354574Y-11145674D01*
X4354574Y-11145674D02*
X4373622Y-11136150D01*
X4373622Y-11136150D02*
X4402193Y-11136150D01*
X4402193Y-11136150D02*
X4421241Y-11145674D01*
X4421241Y-11145674D02*
X4430765Y-11155198D01*
X4430765Y-11155198D02*
X4440289Y-11174246D01*
X4440289Y-11174246D02*
X4440289Y-11231388D01*
X4440289Y-11231388D02*
X4430765Y-11250436D01*
X4430765Y-11250436D02*
X4421241Y-11259960D01*
X4421241Y-11259960D02*
X4402193Y-11269484D01*
X4402193Y-11269484D02*
X4373622Y-11269484D01*
X4554574Y-11269484D02*
X4535527Y-11259960D01*
X4535527Y-11259960D02*
X4526003Y-11240912D01*
X4526003Y-11240912D02*
X4526003Y-11069484D01*
X4706955Y-11259960D02*
X4687908Y-11269484D01*
X4687908Y-11269484D02*
X4649812Y-11269484D01*
X4649812Y-11269484D02*
X4630765Y-11259960D01*
X4630765Y-11259960D02*
X4621241Y-11240912D01*
X4621241Y-11240912D02*
X4621241Y-11164722D01*
X4621241Y-11164722D02*
X4630765Y-11145674D01*
X4630765Y-11145674D02*
X4649812Y-11136150D01*
X4649812Y-11136150D02*
X4687908Y-11136150D01*
X4687908Y-11136150D02*
X4706955Y-11145674D01*
X4706955Y-11145674D02*
X4716479Y-11164722D01*
X4716479Y-11164722D02*
X4716479Y-11183770D01*
X4716479Y-11183770D02*
X4621241Y-11202817D01*
X4792670Y-11259960D02*
X4811717Y-11269484D01*
X4811717Y-11269484D02*
X4849812Y-11269484D01*
X4849812Y-11269484D02*
X4868860Y-11259960D01*
X4868860Y-11259960D02*
X4878384Y-11240912D01*
X4878384Y-11240912D02*
X4878384Y-11231388D01*
X4878384Y-11231388D02*
X4868860Y-11212341D01*
X4868860Y-11212341D02*
X4849812Y-11202817D01*
X4849812Y-11202817D02*
X4821241Y-11202817D01*
X4821241Y-11202817D02*
X4802193Y-11193293D01*
X4802193Y-11193293D02*
X4792670Y-11174246D01*
X4792670Y-11174246D02*
X4792670Y-11164722D01*
X4792670Y-11164722D02*
X4802193Y-11145674D01*
X4802193Y-11145674D02*
X4821241Y-11136150D01*
X4821241Y-11136150D02*
X4849812Y-11136150D01*
X4849812Y-11136150D02*
X4868860Y-11145674D01*
X4945051Y-11345674D02*
X4954574Y-11336150D01*
X4954574Y-11336150D02*
X4973622Y-11307579D01*
X4973622Y-11307579D02*
X4983146Y-11288531D01*
X4983146Y-11288531D02*
X4992670Y-11259960D01*
X4992670Y-11259960D02*
X5002193Y-11212341D01*
X5002193Y-11212341D02*
X5002193Y-11174246D01*
X5002193Y-11174246D02*
X4992670Y-11126627D01*
X4992670Y-11126627D02*
X4983146Y-11098055D01*
X4983146Y-11098055D02*
X4973622Y-11079008D01*
X4973622Y-11079008D02*
X4954574Y-11050436D01*
X4954574Y-11050436D02*
X4945051Y-11040912D01*
D12*
X-35133Y-11477356D02*
X-35133Y-11406644D01*
X-105844Y-11406644D01*
X-105844Y-11477356D01*
X-35133Y-11477356D01*
D10*
X345050Y-11533484D02*
X230764Y-11533484D01*
X287907Y-11533484D02*
X287907Y-11333484D01*
X287907Y-11333484D02*
X268860Y-11362055D01*
X268860Y-11362055D02*
X249812Y-11381103D01*
X249812Y-11381103D02*
X230764Y-11390627D01*
X430764Y-11514436D02*
X440288Y-11523960D01*
X440288Y-11523960D02*
X430764Y-11533484D01*
X430764Y-11533484D02*
X421240Y-11523960D01*
X421240Y-11523960D02*
X430764Y-11514436D01*
X430764Y-11514436D02*
X430764Y-11533484D01*
X564098Y-11333484D02*
X583145Y-11333484D01*
X583145Y-11333484D02*
X602193Y-11343008D01*
X602193Y-11343008D02*
X611717Y-11352531D01*
X611717Y-11352531D02*
X621241Y-11371579D01*
X621241Y-11371579D02*
X630764Y-11409674D01*
X630764Y-11409674D02*
X630764Y-11457293D01*
X630764Y-11457293D02*
X621241Y-11495388D01*
X621241Y-11495388D02*
X611717Y-11514436D01*
X611717Y-11514436D02*
X602193Y-11523960D01*
X602193Y-11523960D02*
X583145Y-11533484D01*
X583145Y-11533484D02*
X564098Y-11533484D01*
X564098Y-11533484D02*
X545050Y-11523960D01*
X545050Y-11523960D02*
X535526Y-11514436D01*
X535526Y-11514436D02*
X526002Y-11495388D01*
X526002Y-11495388D02*
X516479Y-11457293D01*
X516479Y-11457293D02*
X516479Y-11409674D01*
X516479Y-11409674D02*
X526002Y-11371579D01*
X526002Y-11371579D02*
X535526Y-11352531D01*
X535526Y-11352531D02*
X545050Y-11343008D01*
X545050Y-11343008D02*
X564098Y-11333484D01*
X754574Y-11333484D02*
X773621Y-11333484D01*
X773621Y-11333484D02*
X792669Y-11343008D01*
X792669Y-11343008D02*
X802193Y-11352531D01*
X802193Y-11352531D02*
X811717Y-11371579D01*
X811717Y-11371579D02*
X821240Y-11409674D01*
X821240Y-11409674D02*
X821240Y-11457293D01*
X821240Y-11457293D02*
X811717Y-11495388D01*
X811717Y-11495388D02*
X802193Y-11514436D01*
X802193Y-11514436D02*
X792669Y-11523960D01*
X792669Y-11523960D02*
X773621Y-11533484D01*
X773621Y-11533484D02*
X754574Y-11533484D01*
X754574Y-11533484D02*
X735526Y-11523960D01*
X735526Y-11523960D02*
X726002Y-11514436D01*
X726002Y-11514436D02*
X716479Y-11495388D01*
X716479Y-11495388D02*
X706955Y-11457293D01*
X706955Y-11457293D02*
X706955Y-11409674D01*
X706955Y-11409674D02*
X716479Y-11371579D01*
X716479Y-11371579D02*
X726002Y-11352531D01*
X726002Y-11352531D02*
X735526Y-11343008D01*
X735526Y-11343008D02*
X754574Y-11333484D01*
X945050Y-11333484D02*
X964098Y-11333484D01*
X964098Y-11333484D02*
X983145Y-11343008D01*
X983145Y-11343008D02*
X992669Y-11352531D01*
X992669Y-11352531D02*
X1002193Y-11371579D01*
X1002193Y-11371579D02*
X1011717Y-11409674D01*
X1011717Y-11409674D02*
X1011717Y-11457293D01*
X1011717Y-11457293D02*
X1002193Y-11495388D01*
X1002193Y-11495388D02*
X992669Y-11514436D01*
X992669Y-11514436D02*
X983145Y-11523960D01*
X983145Y-11523960D02*
X964098Y-11533484D01*
X964098Y-11533484D02*
X945050Y-11533484D01*
X945050Y-11533484D02*
X926002Y-11523960D01*
X926002Y-11523960D02*
X916479Y-11514436D01*
X916479Y-11514436D02*
X906955Y-11495388D01*
X906955Y-11495388D02*
X897431Y-11457293D01*
X897431Y-11457293D02*
X897431Y-11409674D01*
X897431Y-11409674D02*
X906955Y-11371579D01*
X906955Y-11371579D02*
X916479Y-11352531D01*
X916479Y-11352531D02*
X926002Y-11343008D01*
X926002Y-11343008D02*
X945050Y-11333484D01*
X1097431Y-11533484D02*
X1097431Y-11400150D01*
X1097431Y-11419198D02*
X1106955Y-11409674D01*
X1106955Y-11409674D02*
X1126002Y-11400150D01*
X1126002Y-11400150D02*
X1154574Y-11400150D01*
X1154574Y-11400150D02*
X1173622Y-11409674D01*
X1173622Y-11409674D02*
X1183145Y-11428722D01*
X1183145Y-11428722D02*
X1183145Y-11533484D01*
X1183145Y-11428722D02*
X1192669Y-11409674D01*
X1192669Y-11409674D02*
X1211717Y-11400150D01*
X1211717Y-11400150D02*
X1240288Y-11400150D01*
X1240288Y-11400150D02*
X1259336Y-11409674D01*
X1259336Y-11409674D02*
X1268860Y-11428722D01*
X1268860Y-11428722D02*
X1268860Y-11533484D01*
X1364098Y-11533484D02*
X1364098Y-11400150D01*
X1364098Y-11419198D02*
X1373622Y-11409674D01*
X1373622Y-11409674D02*
X1392669Y-11400150D01*
X1392669Y-11400150D02*
X1421241Y-11400150D01*
X1421241Y-11400150D02*
X1440288Y-11409674D01*
X1440288Y-11409674D02*
X1449812Y-11428722D01*
X1449812Y-11428722D02*
X1449812Y-11533484D01*
X1449812Y-11428722D02*
X1459336Y-11409674D01*
X1459336Y-11409674D02*
X1478383Y-11400150D01*
X1478383Y-11400150D02*
X1506955Y-11400150D01*
X1506955Y-11400150D02*
X1526002Y-11409674D01*
X1526002Y-11409674D02*
X1535526Y-11428722D01*
X1535526Y-11428722D02*
X1535526Y-11533484D01*
X1926002Y-11323960D02*
X1754574Y-11581103D01*
X2183145Y-11333484D02*
X2202193Y-11333484D01*
X2202193Y-11333484D02*
X2221241Y-11343008D01*
X2221241Y-11343008D02*
X2230765Y-11352531D01*
X2230765Y-11352531D02*
X2240288Y-11371579D01*
X2240288Y-11371579D02*
X2249812Y-11409674D01*
X2249812Y-11409674D02*
X2249812Y-11457293D01*
X2249812Y-11457293D02*
X2240288Y-11495388D01*
X2240288Y-11495388D02*
X2230765Y-11514436D01*
X2230765Y-11514436D02*
X2221241Y-11523960D01*
X2221241Y-11523960D02*
X2202193Y-11533484D01*
X2202193Y-11533484D02*
X2183145Y-11533484D01*
X2183145Y-11533484D02*
X2164098Y-11523960D01*
X2164098Y-11523960D02*
X2154574Y-11514436D01*
X2154574Y-11514436D02*
X2145050Y-11495388D01*
X2145050Y-11495388D02*
X2135526Y-11457293D01*
X2135526Y-11457293D02*
X2135526Y-11409674D01*
X2135526Y-11409674D02*
X2145050Y-11371579D01*
X2145050Y-11371579D02*
X2154574Y-11352531D01*
X2154574Y-11352531D02*
X2164098Y-11343008D01*
X2164098Y-11343008D02*
X2183145Y-11333484D01*
X2335526Y-11514436D02*
X2345050Y-11523960D01*
X2345050Y-11523960D02*
X2335526Y-11533484D01*
X2335526Y-11533484D02*
X2326003Y-11523960D01*
X2326003Y-11523960D02*
X2335526Y-11514436D01*
X2335526Y-11514436D02*
X2335526Y-11533484D01*
X2468860Y-11333484D02*
X2487907Y-11333484D01*
X2487907Y-11333484D02*
X2506955Y-11343008D01*
X2506955Y-11343008D02*
X2516479Y-11352531D01*
X2516479Y-11352531D02*
X2526003Y-11371579D01*
X2526003Y-11371579D02*
X2535526Y-11409674D01*
X2535526Y-11409674D02*
X2535526Y-11457293D01*
X2535526Y-11457293D02*
X2526003Y-11495388D01*
X2526003Y-11495388D02*
X2516479Y-11514436D01*
X2516479Y-11514436D02*
X2506955Y-11523960D01*
X2506955Y-11523960D02*
X2487907Y-11533484D01*
X2487907Y-11533484D02*
X2468860Y-11533484D01*
X2468860Y-11533484D02*
X2449812Y-11523960D01*
X2449812Y-11523960D02*
X2440288Y-11514436D01*
X2440288Y-11514436D02*
X2430765Y-11495388D01*
X2430765Y-11495388D02*
X2421241Y-11457293D01*
X2421241Y-11457293D02*
X2421241Y-11409674D01*
X2421241Y-11409674D02*
X2430765Y-11371579D01*
X2430765Y-11371579D02*
X2440288Y-11352531D01*
X2440288Y-11352531D02*
X2449812Y-11343008D01*
X2449812Y-11343008D02*
X2468860Y-11333484D01*
X2602193Y-11333484D02*
X2726003Y-11333484D01*
X2726003Y-11333484D02*
X2659336Y-11409674D01*
X2659336Y-11409674D02*
X2687907Y-11409674D01*
X2687907Y-11409674D02*
X2706955Y-11419198D01*
X2706955Y-11419198D02*
X2716479Y-11428722D01*
X2716479Y-11428722D02*
X2726003Y-11447769D01*
X2726003Y-11447769D02*
X2726003Y-11495388D01*
X2726003Y-11495388D02*
X2716479Y-11514436D01*
X2716479Y-11514436D02*
X2706955Y-11523960D01*
X2706955Y-11523960D02*
X2687907Y-11533484D01*
X2687907Y-11533484D02*
X2630765Y-11533484D01*
X2630765Y-11533484D02*
X2611717Y-11523960D01*
X2611717Y-11523960D02*
X2602193Y-11514436D01*
X2821241Y-11533484D02*
X2859336Y-11533484D01*
X2859336Y-11533484D02*
X2878384Y-11523960D01*
X2878384Y-11523960D02*
X2887907Y-11514436D01*
X2887907Y-11514436D02*
X2906955Y-11485865D01*
X2906955Y-11485865D02*
X2916479Y-11447769D01*
X2916479Y-11447769D02*
X2916479Y-11371579D01*
X2916479Y-11371579D02*
X2906955Y-11352531D01*
X2906955Y-11352531D02*
X2897431Y-11343008D01*
X2897431Y-11343008D02*
X2878384Y-11333484D01*
X2878384Y-11333484D02*
X2840288Y-11333484D01*
X2840288Y-11333484D02*
X2821241Y-11343008D01*
X2821241Y-11343008D02*
X2811717Y-11352531D01*
X2811717Y-11352531D02*
X2802193Y-11371579D01*
X2802193Y-11371579D02*
X2802193Y-11419198D01*
X2802193Y-11419198D02*
X2811717Y-11438246D01*
X2811717Y-11438246D02*
X2821241Y-11447769D01*
X2821241Y-11447769D02*
X2840288Y-11457293D01*
X2840288Y-11457293D02*
X2878384Y-11457293D01*
X2878384Y-11457293D02*
X2897431Y-11447769D01*
X2897431Y-11447769D02*
X2906955Y-11438246D01*
X2906955Y-11438246D02*
X2916479Y-11419198D01*
X3087907Y-11400150D02*
X3087907Y-11533484D01*
X3040288Y-11323960D02*
X2992669Y-11466817D01*
X2992669Y-11466817D02*
X3116479Y-11466817D01*
X3183145Y-11333484D02*
X3183145Y-11371579D01*
X3259336Y-11333484D02*
X3259336Y-11371579D01*
X3554574Y-11609674D02*
X3545050Y-11600150D01*
X3545050Y-11600150D02*
X3526003Y-11571579D01*
X3526003Y-11571579D02*
X3516479Y-11552531D01*
X3516479Y-11552531D02*
X3506955Y-11523960D01*
X3506955Y-11523960D02*
X3497431Y-11476341D01*
X3497431Y-11476341D02*
X3497431Y-11438246D01*
X3497431Y-11438246D02*
X3506955Y-11390627D01*
X3506955Y-11390627D02*
X3516479Y-11362055D01*
X3516479Y-11362055D02*
X3526003Y-11343008D01*
X3526003Y-11343008D02*
X3545050Y-11314436D01*
X3545050Y-11314436D02*
X3554574Y-11304912D01*
X3735526Y-11533484D02*
X3621241Y-11533484D01*
X3678384Y-11533484D02*
X3678384Y-11333484D01*
X3678384Y-11333484D02*
X3659336Y-11362055D01*
X3659336Y-11362055D02*
X3640288Y-11381103D01*
X3640288Y-11381103D02*
X3621241Y-11390627D01*
X3802193Y-11333484D02*
X3935526Y-11333484D01*
X3935526Y-11333484D02*
X3849812Y-11533484D01*
X4097431Y-11333484D02*
X4059336Y-11333484D01*
X4059336Y-11333484D02*
X4040288Y-11343008D01*
X4040288Y-11343008D02*
X4030765Y-11352531D01*
X4030765Y-11352531D02*
X4011717Y-11381103D01*
X4011717Y-11381103D02*
X4002193Y-11419198D01*
X4002193Y-11419198D02*
X4002193Y-11495388D01*
X4002193Y-11495388D02*
X4011717Y-11514436D01*
X4011717Y-11514436D02*
X4021241Y-11523960D01*
X4021241Y-11523960D02*
X4040288Y-11533484D01*
X4040288Y-11533484D02*
X4078384Y-11533484D01*
X4078384Y-11533484D02*
X4097431Y-11523960D01*
X4097431Y-11523960D02*
X4106955Y-11514436D01*
X4106955Y-11514436D02*
X4116479Y-11495388D01*
X4116479Y-11495388D02*
X4116479Y-11447769D01*
X4116479Y-11447769D02*
X4106955Y-11428722D01*
X4106955Y-11428722D02*
X4097431Y-11419198D01*
X4097431Y-11419198D02*
X4078384Y-11409674D01*
X4078384Y-11409674D02*
X4040288Y-11409674D01*
X4040288Y-11409674D02*
X4021241Y-11419198D01*
X4021241Y-11419198D02*
X4011717Y-11428722D01*
X4011717Y-11428722D02*
X4002193Y-11447769D01*
X4354574Y-11533484D02*
X4354574Y-11333484D01*
X4440289Y-11533484D02*
X4440289Y-11428722D01*
X4440289Y-11428722D02*
X4430765Y-11409674D01*
X4430765Y-11409674D02*
X4411717Y-11400150D01*
X4411717Y-11400150D02*
X4383146Y-11400150D01*
X4383146Y-11400150D02*
X4364098Y-11409674D01*
X4364098Y-11409674D02*
X4354574Y-11419198D01*
X4564098Y-11533484D02*
X4545050Y-11523960D01*
X4545050Y-11523960D02*
X4535527Y-11514436D01*
X4535527Y-11514436D02*
X4526003Y-11495388D01*
X4526003Y-11495388D02*
X4526003Y-11438246D01*
X4526003Y-11438246D02*
X4535527Y-11419198D01*
X4535527Y-11419198D02*
X4545050Y-11409674D01*
X4545050Y-11409674D02*
X4564098Y-11400150D01*
X4564098Y-11400150D02*
X4592670Y-11400150D01*
X4592670Y-11400150D02*
X4611717Y-11409674D01*
X4611717Y-11409674D02*
X4621241Y-11419198D01*
X4621241Y-11419198D02*
X4630765Y-11438246D01*
X4630765Y-11438246D02*
X4630765Y-11495388D01*
X4630765Y-11495388D02*
X4621241Y-11514436D01*
X4621241Y-11514436D02*
X4611717Y-11523960D01*
X4611717Y-11523960D02*
X4592670Y-11533484D01*
X4592670Y-11533484D02*
X4564098Y-11533484D01*
X4745050Y-11533484D02*
X4726003Y-11523960D01*
X4726003Y-11523960D02*
X4716479Y-11504912D01*
X4716479Y-11504912D02*
X4716479Y-11333484D01*
X4897431Y-11523960D02*
X4878384Y-11533484D01*
X4878384Y-11533484D02*
X4840289Y-11533484D01*
X4840289Y-11533484D02*
X4821241Y-11523960D01*
X4821241Y-11523960D02*
X4811717Y-11504912D01*
X4811717Y-11504912D02*
X4811717Y-11428722D01*
X4811717Y-11428722D02*
X4821241Y-11409674D01*
X4821241Y-11409674D02*
X4840289Y-11400150D01*
X4840289Y-11400150D02*
X4878384Y-11400150D01*
X4878384Y-11400150D02*
X4897431Y-11409674D01*
X4897431Y-11409674D02*
X4906955Y-11428722D01*
X4906955Y-11428722D02*
X4906955Y-11447769D01*
X4906955Y-11447769D02*
X4811717Y-11466817D01*
X4983146Y-11523960D02*
X5002193Y-11533484D01*
X5002193Y-11533484D02*
X5040289Y-11533484D01*
X5040289Y-11533484D02*
X5059336Y-11523960D01*
X5059336Y-11523960D02*
X5068860Y-11504912D01*
X5068860Y-11504912D02*
X5068860Y-11495388D01*
X5068860Y-11495388D02*
X5059336Y-11476341D01*
X5059336Y-11476341D02*
X5040289Y-11466817D01*
X5040289Y-11466817D02*
X5011717Y-11466817D01*
X5011717Y-11466817D02*
X4992670Y-11457293D01*
X4992670Y-11457293D02*
X4983146Y-11438246D01*
X4983146Y-11438246D02*
X4983146Y-11428722D01*
X4983146Y-11428722D02*
X4992670Y-11409674D01*
X4992670Y-11409674D02*
X5011717Y-11400150D01*
X5011717Y-11400150D02*
X5040289Y-11400150D01*
X5040289Y-11400150D02*
X5059336Y-11409674D01*
X5135527Y-11609674D02*
X5145051Y-11600150D01*
X5145051Y-11600150D02*
X5164098Y-11571579D01*
X5164098Y-11571579D02*
X5173622Y-11552531D01*
X5173622Y-11552531D02*
X5183146Y-11523960D01*
X5183146Y-11523960D02*
X5192670Y-11476341D01*
X5192670Y-11476341D02*
X5192670Y-11438246D01*
X5192670Y-11438246D02*
X5183146Y-11390627D01*
X5183146Y-11390627D02*
X5173622Y-11362055D01*
X5173622Y-11362055D02*
X5164098Y-11343008D01*
X5164098Y-11343008D02*
X5145051Y-11314436D01*
X5145051Y-11314436D02*
X5135527Y-11304912D01*
M02*
