%TF.GenerationSoftware,KiCad,Pcbnew,10.0.0*%
%TF.CreationDate,2026-04-22T13:07:32+02:00*%
%TF.ProjectId,kleingorium,6b6c6569-6e67-46f7-9269-756d2e6b6963,rev?*%
%TF.SameCoordinates,Original*%
%TF.FileFunction,Drillmap*%
%TF.FilePolarity,Positive*%
%FSLAX45Y45*%
G04 Gerber Fmt 4.5, Leading zero omitted, Abs format (unit mm)*
G04 Created by KiCad (PCBNEW 10.0.0) date 2026-04-22 13:07:32*
%MOMM*%
%LPD*%
G01*
G04 APERTURE LIST*
%ADD10C,0.200000*%
%ADD11C,0.050000*%
G04 APERTURE END LIST*
D10*
X-10489Y0D02*
X9989511Y0D01*
X9989511Y-10000000D01*
X-10489Y-10000000D01*
X-10489Y0D01*
D11*
X664511Y-1000000D02*
G75*
G02*
X314511Y-1000000I-175000J0D01*
G01*
X314511Y-1000000D02*
G75*
G02*
X664511Y-1000000I175000J0D01*
G01*
X675000Y-9000000D02*
G75*
G02*
X325000Y-9000000I-175000J0D01*
G01*
X325000Y-9000000D02*
G75*
G02*
X675000Y-9000000I175000J0D01*
G01*
X9675000Y-9000000D02*
G75*
G02*
X9325000Y-9000000I-175000J0D01*
G01*
X9325000Y-9000000D02*
G75*
G02*
X9675000Y-9000000I175000J0D01*
G01*
D10*
X240288Y-10321484D02*
X240288Y-10121484D01*
X240288Y-10121484D02*
X287907Y-10121484D01*
X287907Y-10121484D02*
X316479Y-10131008D01*
X316479Y-10131008D02*
X335526Y-10150055D01*
X335526Y-10150055D02*
X345050Y-10169103D01*
X345050Y-10169103D02*
X354574Y-10207198D01*
X354574Y-10207198D02*
X354574Y-10235770D01*
X354574Y-10235770D02*
X345050Y-10273865D01*
X345050Y-10273865D02*
X335526Y-10292912D01*
X335526Y-10292912D02*
X316479Y-10311960D01*
X316479Y-10311960D02*
X287907Y-10321484D01*
X287907Y-10321484D02*
X240288Y-10321484D01*
X440288Y-10321484D02*
X440288Y-10188150D01*
X440288Y-10226246D02*
X449812Y-10207198D01*
X449812Y-10207198D02*
X459336Y-10197674D01*
X459336Y-10197674D02*
X478383Y-10188150D01*
X478383Y-10188150D02*
X497431Y-10188150D01*
X564098Y-10321484D02*
X564098Y-10188150D01*
X564098Y-10121484D02*
X554574Y-10131008D01*
X554574Y-10131008D02*
X564098Y-10140531D01*
X564098Y-10140531D02*
X573621Y-10131008D01*
X573621Y-10131008D02*
X564098Y-10121484D01*
X564098Y-10121484D02*
X564098Y-10140531D01*
X687907Y-10321484D02*
X668860Y-10311960D01*
X668860Y-10311960D02*
X659336Y-10292912D01*
X659336Y-10292912D02*
X659336Y-10121484D01*
X792669Y-10321484D02*
X773621Y-10311960D01*
X773621Y-10311960D02*
X764098Y-10292912D01*
X764098Y-10292912D02*
X764098Y-10121484D01*
X1021240Y-10321484D02*
X1021240Y-10121484D01*
X1021240Y-10121484D02*
X1087907Y-10264341D01*
X1087907Y-10264341D02*
X1154574Y-10121484D01*
X1154574Y-10121484D02*
X1154574Y-10321484D01*
X1335526Y-10321484D02*
X1335526Y-10216722D01*
X1335526Y-10216722D02*
X1326002Y-10197674D01*
X1326002Y-10197674D02*
X1306955Y-10188150D01*
X1306955Y-10188150D02*
X1268860Y-10188150D01*
X1268860Y-10188150D02*
X1249812Y-10197674D01*
X1335526Y-10311960D02*
X1316479Y-10321484D01*
X1316479Y-10321484D02*
X1268860Y-10321484D01*
X1268860Y-10321484D02*
X1249812Y-10311960D01*
X1249812Y-10311960D02*
X1240288Y-10292912D01*
X1240288Y-10292912D02*
X1240288Y-10273865D01*
X1240288Y-10273865D02*
X1249812Y-10254817D01*
X1249812Y-10254817D02*
X1268860Y-10245293D01*
X1268860Y-10245293D02*
X1316479Y-10245293D01*
X1316479Y-10245293D02*
X1335526Y-10235770D01*
X1430764Y-10188150D02*
X1430764Y-10388150D01*
X1430764Y-10197674D02*
X1449812Y-10188150D01*
X1449812Y-10188150D02*
X1487907Y-10188150D01*
X1487907Y-10188150D02*
X1506955Y-10197674D01*
X1506955Y-10197674D02*
X1516479Y-10207198D01*
X1516479Y-10207198D02*
X1526002Y-10226246D01*
X1526002Y-10226246D02*
X1526002Y-10283389D01*
X1526002Y-10283389D02*
X1516479Y-10302436D01*
X1516479Y-10302436D02*
X1506955Y-10311960D01*
X1506955Y-10311960D02*
X1487907Y-10321484D01*
X1487907Y-10321484D02*
X1449812Y-10321484D01*
X1449812Y-10321484D02*
X1430764Y-10311960D01*
X1611717Y-10302436D02*
X1621240Y-10311960D01*
X1621240Y-10311960D02*
X1611717Y-10321484D01*
X1611717Y-10321484D02*
X1602193Y-10311960D01*
X1602193Y-10311960D02*
X1611717Y-10302436D01*
X1611717Y-10302436D02*
X1611717Y-10321484D01*
X1611717Y-10197674D02*
X1621240Y-10207198D01*
X1621240Y-10207198D02*
X1611717Y-10216722D01*
X1611717Y-10216722D02*
X1602193Y-10207198D01*
X1602193Y-10207198D02*
X1611717Y-10197674D01*
X1611717Y-10197674D02*
X1611717Y-10216722D01*
M02*
