M48
; DRILL file KiCad 10.0.0 date 2026-04-22T13:07:32
; FORMAT={-:-/ absolute / metric / decimal}
; #@! TF.CreationDate,2026-04-22T13:07:32+02:00
; #@! TF.GenerationSoftware,Kicad,Pcbnew,10.0.0
; #@! TF.FileFunction,Plated,1,2,PTH
FMAT,2
METRIC
; #@! TA.AperFunction,Plated,PTH,ViaDrill
T1C0.400
; #@! TA.AperFunction,Plated,PTH,ComponentDrill
T2C0.800
; #@! TA.AperFunction,Plated,PTH,ComponentDrill
T3C0.900
; #@! TA.AperFunction,Plated,PTH,ComponentDrill
T4C1.000
%
G90
G05
T1
X9.5Y-18.5
X34.1Y-89.9
X35.1Y-91.1
X35.895Y-93.0
X36.4Y-7.5
X43.3Y-57.6
X44.5Y-92.5
X55.2Y-7.5
X57.01Y-29.899
X61.1Y-23.3
X61.3Y-16.5
X63.5Y-92.5
X64.0Y-7.0
X65.0Y-10.5
X66.3Y-14.2
X67.2Y-56.5
X67.895Y-19.0
X73.395Y-14.0
X74.5Y-15.4
X90.1Y-81.2
T2
X2.395Y-13.92
X2.395Y-24.08
X3.5Y-75.0
X3.5Y-77.54
X3.5Y-80.08
X4.895Y-64.5
X4.895Y-67.0
X6.895Y-37.5
X6.895Y-40.0
X7.92Y-61.88
X7.92Y-69.5
X9.1Y-90.5
X9.42Y-76.5
X9.505Y-35.185
X9.505Y-42.805
X9.815Y-10.5
X10.46Y-61.88
X10.46Y-69.5
X10.775Y-13.88
X10.775Y-21.5
X11.0Y-54.5
X11.0Y-57.7
X11.6Y-90.5
X12.0Y-80.5
X12.045Y-35.185
X12.045Y-42.805
X13.0Y-61.88
X13.0Y-69.5
X13.315Y-13.88
X13.315Y-21.5
X13.5Y-54.5
X13.5Y-57.7
X14.585Y-35.185
X14.585Y-42.805
X15.54Y-61.88
X15.54Y-69.5
X15.855Y-13.88
X15.855Y-21.5
X16.0Y-54.5
X16.0Y-57.7
X17.0Y-80.5
X17.125Y-35.185
X17.125Y-42.805
X18.08Y-61.88
X18.08Y-69.5
X18.395Y-13.88
X18.395Y-21.5
X18.46Y-85.86
X19.0Y-72.5
X19.395Y-46.0
X19.58Y-76.5
X19.665Y-35.185
X19.665Y-42.805
X19.975Y-10.5
X20.62Y-61.88
X20.62Y-69.5
X20.935Y-13.88
X20.935Y-21.5
X20.96Y-80.86
X21.0Y-85.86
X21.315Y-24.5
X21.42Y-58.0
X22.205Y-35.185
X22.205Y-42.805
X23.16Y-61.88
X23.16Y-69.5
X23.475Y-13.88
X23.475Y-21.5
X23.5Y-80.86
X23.54Y-85.86
X24.0Y-72.5
X24.745Y-35.185
X24.745Y-42.805
X24.815Y-10.5
X24.92Y-75.5
X25.7Y-61.88
X25.7Y-69.5
X26.015Y-13.88
X26.015Y-21.5
X26.04Y-80.86
X27.285Y-35.185
X27.285Y-42.805
X28.0Y-88.0
X28.0Y-91.2
X28.555Y-13.88
X28.555Y-21.5
X29.555Y-46.0
X30.5Y-88.0
X30.5Y-91.2
X31.395Y-16.25
X31.395Y-18.75
X31.475Y-24.5
X31.58Y-58.0
X33.0Y-88.0
X33.0Y-91.2
X33.92Y-69.3
X34.895Y-13.92
X34.895Y-24.08
X34.895Y-55.34
X34.895Y-65.5
X34.975Y-10.5
X35.08Y-75.5
X35.5Y-47.0
X35.5Y-50.2
X37.815Y-39.0
X38.0Y-47.0
X38.0Y-50.2
X38.395Y-22.92
X38.395Y-33.08
X38.395Y-55.5
X38.395Y-58.0
X40.5Y-47.0
X40.5Y-50.2
X41.11Y-52.88
X41.11Y-60.5
X43.65Y-52.88
X43.65Y-60.5
X44.08Y-69.3
X45.88Y-72.61
X45.88Y-75.15
X45.88Y-77.69
X45.88Y-80.23
X45.88Y-82.77
X45.88Y-85.31
X45.88Y-87.85
X45.88Y-90.39
X46.19Y-52.88
X46.19Y-60.5
X46.395Y-9.61
X46.395Y-12.15
X46.395Y-14.69
X46.395Y-17.23
X46.395Y-19.77
X46.395Y-22.31
X46.395Y-24.85
X46.395Y-27.39
X46.895Y-42.5
X47.1Y-93.5
X47.8Y-6.5
X47.975Y-39.0
X48.645Y-70.0
X48.73Y-52.88
X48.73Y-60.5
X48.895Y-30.0
X51.145Y-70.0
X51.27Y-52.88
X51.27Y-60.5
X51.395Y-30.0
X52.1Y-93.5
X52.8Y-6.5
X53.5Y-72.61
X53.5Y-75.15
X53.5Y-77.69
X53.5Y-80.23
X53.5Y-82.77
X53.5Y-85.31
X53.5Y-87.85
X53.5Y-90.39
X53.81Y-52.88
X53.81Y-60.5
X54.015Y-9.61
X54.015Y-12.15
X54.015Y-14.69
X54.015Y-17.23
X54.015Y-19.77
X54.015Y-22.31
X54.015Y-24.85
X54.015Y-27.39
X56.35Y-52.88
X56.35Y-60.5
X57.055Y-42.5
X58.89Y-52.88
X58.89Y-60.5
X59.395Y-24.42
X59.395Y-34.58
X62.395Y-52.92
X62.395Y-63.08
X64.315Y-49.5
X64.815Y-24.5
X64.92Y-89.5
X65.0Y-75.92
X65.0Y-86.08
X66.895Y-8.8
X66.895Y-12.0
X68.315Y-42.0
X68.395Y-81.0
X68.395Y-83.5
X68.42Y-75.5
X69.395Y-8.8
X69.395Y-12.0
X70.34Y-54.0
X71.34Y-78.5
X71.34Y-86.12
X71.895Y-8.8
X71.895Y-12.0
X72.61Y-57.195
X72.61Y-64.815
X73.855Y-19.14
X73.88Y-78.5
X73.88Y-86.12
X74.195Y-30.5
X74.195Y-38.12
X74.475Y-49.5
X74.975Y-24.5
X75.08Y-89.5
X75.15Y-57.195
X75.15Y-64.815
X75.895Y-27.5
X76.355Y-14.14
X76.395Y-19.14
X76.42Y-78.5
X76.42Y-86.12
X76.735Y-30.5
X76.735Y-38.12
X77.69Y-57.195
X77.69Y-64.815
X78.475Y-42.0
X78.58Y-75.5
X78.895Y-14.14
X78.935Y-19.14
X78.96Y-78.5
X78.96Y-86.12
X79.275Y-30.5
X79.275Y-38.12
X79.92Y-89.5
X80.23Y-57.195
X80.23Y-64.815
X80.315Y-23.5
X80.5Y-54.0
X80.895Y-27.5
X81.435Y-14.14
X81.5Y-78.5
X81.5Y-86.12
X81.815Y-30.5
X81.815Y-38.12
X82.77Y-57.195
X82.77Y-64.815
X82.895Y-19.5
X83.895Y-42.3
X83.895Y-45.5
X84.04Y-78.5
X84.04Y-86.12
X84.355Y-30.5
X84.355Y-38.12
X85.31Y-57.195
X85.31Y-64.815
X86.395Y-42.3
X86.395Y-45.5
X86.58Y-78.5
X86.58Y-86.12
X86.895Y-30.5
X86.895Y-38.12
X87.85Y-57.195
X87.85Y-64.815
X87.895Y-19.5
X88.19Y-10.5
X88.895Y-42.3
X88.895Y-45.5
X89.12Y-78.5
X89.12Y-86.12
X89.435Y-30.5
X89.435Y-38.12
X90.08Y-89.5
X90.39Y-57.195
X90.39Y-64.815
X90.475Y-23.5
X90.69Y-10.5
X91.975Y-30.5
X91.975Y-38.12
X93.395Y-59.75
X93.395Y-62.25
X94.895Y-33.0
X94.895Y-35.5
X96.395Y-19.92
X96.395Y-22.46
X96.395Y-25.0
X97.5Y-75.92
X97.5Y-86.08
T3
X28.0Y-94.2
X28.0Y-97.5
X30.5Y-94.2
X30.5Y-97.5
X33.0Y-94.2
X33.0Y-97.5
X66.895Y-2.5
X66.895Y-5.8
X69.395Y-2.5
X69.395Y-5.8
X71.895Y-2.5
X71.895Y-5.8
T4
X2.46Y-46.38
X2.46Y-48.92
X2.46Y-51.46
X2.46Y-54.0
X5.0Y-46.38
X5.0Y-48.92
X5.0Y-51.46
X5.0Y-54.0
X5.46Y-95.5
X5.535Y-28.0
X5.535Y-30.54
X6.615Y-2.0
X6.615Y-4.54
X8.0Y-95.5
X8.075Y-28.0
X8.075Y-30.54
X9.155Y-2.0
X9.155Y-4.54
X10.615Y-28.0
X10.615Y-30.54
X11.695Y-2.0
X11.695Y-4.54
X12.96Y-84.0
X13.0Y-95.5
X13.155Y-28.0
X13.155Y-30.54
X14.235Y-2.0
X14.235Y-4.54
X15.5Y-84.0
X15.54Y-95.5
X15.695Y-28.0
X15.695Y-30.54
X16.775Y-2.0
X16.775Y-4.54
X18.235Y-28.0
X18.235Y-30.54
X19.315Y-2.0
X19.315Y-4.54
X19.46Y-90.5
X19.725Y-95.5
X20.775Y-28.0
X20.775Y-30.54
X21.855Y-2.0
X21.855Y-4.54
X22.0Y-90.5
X22.265Y-95.5
X23.315Y-28.0
X23.315Y-30.54
X24.395Y-2.0
X24.395Y-4.54
X25.855Y-28.0
X25.855Y-30.54
X26.935Y-2.0
X26.935Y-4.54
X28.395Y-28.0
X28.395Y-30.54
X29.46Y-83.5
X29.475Y-2.0
X29.475Y-4.54
X29.5Y-79.5
X30.935Y-28.0
X30.935Y-30.54
X32.0Y-83.5
X32.015Y-2.0
X32.015Y-4.54
X33.475Y-28.0
X33.475Y-30.54
X33.895Y-37.725
X33.895Y-40.265
X38.66Y-87.4
X38.96Y-91.65
X39.235Y-78.885
X39.235Y-81.425
X39.395Y-2.0
X39.5Y-98.0
X40.395Y-9.5
X40.395Y-14.5
X40.855Y-19.85
X41.2Y-87.4
X41.5Y-91.65
X41.775Y-78.885
X41.775Y-81.425
X41.895Y-2.0
X42.0Y-98.0
X42.935Y-9.5
X43.395Y-19.85
X44.395Y-2.0
X44.5Y-98.0
X55.395Y-2.0
X55.5Y-98.0
X56.5Y-80.15
X56.96Y-90.5
X57.895Y-2.0
X58.0Y-98.0
X58.12Y-18.575
X58.12Y-21.115
X58.395Y-8.35
X58.895Y-13.35
X59.04Y-80.15
X59.5Y-85.5
X59.5Y-90.5
X60.395Y-2.0
X60.5Y-98.0
X60.66Y-18.575
X60.66Y-21.115
X60.935Y-8.35
X61.435Y-13.35
X66.0Y-59.735
X66.0Y-62.275
X66.42Y-69.46
X66.42Y-72.0
X67.88Y-95.46
X67.88Y-98.0
X67.895Y-16.5
X68.96Y-69.46
X68.96Y-72.0
X70.395Y-20.5
X70.42Y-95.46
X70.42Y-98.0
X70.435Y-16.5
X71.5Y-69.46
X71.5Y-72.0
X72.96Y-95.46
X72.96Y-98.0
X74.04Y-69.46
X74.04Y-72.0
X75.5Y-95.46
X75.5Y-98.0
X76.58Y-69.46
X76.58Y-72.0
X77.63Y-4.5
X77.895Y-9.5
X78.04Y-95.46
X78.04Y-98.0
X79.12Y-69.46
X79.12Y-72.0
X80.17Y-4.5
X80.435Y-9.5
X80.58Y-95.46
X80.58Y-98.0
X81.66Y-69.46
X81.66Y-72.0
X83.12Y-95.46
X83.12Y-98.0
X84.2Y-69.46
X84.2Y-72.0
X84.395Y-16.0
X85.12Y-4.5
X85.66Y-95.46
X85.66Y-98.0
X86.74Y-69.46
X86.74Y-72.0
X86.935Y-16.0
X87.66Y-4.5
X88.2Y-95.46
X88.2Y-98.0
X89.28Y-69.46
X89.28Y-72.0
X90.74Y-95.46
X90.74Y-98.0
X91.82Y-69.46
X91.82Y-72.0
X93.28Y-95.46
X93.28Y-98.0
X93.395Y-4.5
X94.36Y-69.46
X94.36Y-72.0
X94.46Y-46.38
X94.46Y-48.92
X94.46Y-51.46
X94.46Y-54.0
X95.935Y-4.5
X97.0Y-46.38
X97.0Y-48.92
X97.0Y-51.46
X97.0Y-54.0
M30
