G04 #@! TF.GenerationSoftware,KiCad,Pcbnew,10.0.0*
G04 #@! TF.CreationDate,2026-04-22T13:07:32+02:00*
G04 #@! TF.ProjectId,kleingorium,6b6c6569-6e67-46f7-9269-756d2e6b6963,rev?*
G04 #@! TF.SameCoordinates,Original*
G04 #@! TF.FileFunction,Soldermask,Bot*
G04 #@! TF.FilePolarity,Negative*
%FSLAX46Y46*%
G04 Gerber Fmt 4.6, Leading zero omitted, Abs format (unit mm)*
G04 Created by KiCad (PCBNEW 10.0.0) date 2026-04-22 13:07:32*
%MOMM*%
%LPD*%
G01*
G04 APERTURE LIST*
G04 Aperture macros list*
%AMRoundRect*
0 Rectangle with rounded corners*
0 $1 Rounding radius*
0 $2 $3 $4 $5 $6 $7 $8 $9 X,Y pos of 4 corners*
0 Add a 4 corners polygon primitive as box body*
4,1,4,$2,$3,$4,$5,$6,$7,$8,$9,$2,$3,0*
0 Add four circle primitives for the rounded corners*
1,1,$1+$1,$2,$3*
1,1,$1+$1,$4,$5*
1,1,$1+$1,$6,$7*
1,1,$1+$1,$8,$9*
0 Add four rect primitives between the rounded corners*
20,1,$1+$1,$2,$3,$4,$5,0*
20,1,$1+$1,$4,$5,$6,$7,0*
20,1,$1+$1,$6,$7,$8,$9,0*
20,1,$1+$1,$8,$9,$2,$3,0*%
G04 Aperture macros list end*
%ADD10C,1.600000*%
%ADD11R,1.700000X1.700000*%
%ADD12C,1.700000*%
%ADD13RoundRect,0.250000X0.550000X-0.550000X0.550000X0.550000X-0.550000X0.550000X-0.550000X-0.550000X0*%
%ADD14R,1.600000X1.600000*%
%ADD15R,1.500000X1.500000*%
%ADD16C,1.500000*%
%ADD17RoundRect,0.250000X-0.650000X0.650000X-0.650000X-0.650000X0.650000X-0.650000X0.650000X0.650000X0*%
%ADD18C,1.800000*%
%ADD19RoundRect,0.250000X0.650000X-0.650000X0.650000X0.650000X-0.650000X0.650000X-0.650000X-0.650000X0*%
%ADD20RoundRect,0.250000X-0.550000X-0.550000X0.550000X-0.550000X0.550000X0.550000X-0.550000X0.550000X0*%
%ADD21RoundRect,0.250000X0.550000X0.550000X-0.550000X0.550000X-0.550000X-0.550000X0.550000X-0.550000X0*%
%ADD22RoundRect,0.250000X-0.550000X0.550000X-0.550000X-0.550000X0.550000X-0.550000X0.550000X0.550000X0*%
%ADD23C,1.440000*%
%ADD24RoundRect,0.250000X0.450000X0.450000X-0.450000X0.450000X-0.450000X-0.450000X0.450000X-0.450000X0*%
%ADD25C,1.400000*%
%ADD26RoundRect,0.250000X-0.450000X-0.450000X0.450000X-0.450000X0.450000X0.450000X-0.450000X0.450000X0*%
G04 APERTURE END LIST*
D10*
G04 #@! TO.C,R15*
X64315113Y-49500000D03*
X74475113Y-49500000D03*
G04 #@! TD*
D11*
G04 #@! TO.C,J29*
X42935113Y-9499999D03*
D12*
X40395113Y-9499999D03*
G04 #@! TD*
D10*
G04 #@! TO.C,R27*
X78475114Y-41999999D03*
X68315114Y-41999999D03*
G04 #@! TD*
D11*
G04 #@! TO.C,J22*
X59500000Y-85500000D03*
G04 #@! TD*
D10*
G04 #@! TO.C,R11*
X68420000Y-75500000D03*
X78580000Y-75500000D03*
G04 #@! TD*
D11*
G04 #@! TO.C,J34*
X67880000Y-95460000D03*
D12*
X67880000Y-98000000D03*
X70420000Y-95460000D03*
X70420000Y-98000000D03*
X72960000Y-95460000D03*
X72960000Y-98000000D03*
X75500000Y-95460000D03*
X75500000Y-98000000D03*
X78040000Y-95460000D03*
X78040000Y-98000000D03*
X80580000Y-95460000D03*
X80580000Y-98000000D03*
X83120000Y-95460000D03*
X83120000Y-98000000D03*
X85660000Y-95460000D03*
X85660000Y-98000000D03*
X88200000Y-95460000D03*
X88200000Y-98000000D03*
X90740000Y-95460000D03*
X90740000Y-98000000D03*
X93280000Y-95460000D03*
X93280000Y-98000000D03*
G04 #@! TD*
D11*
G04 #@! TO.C,J28*
X66420000Y-72000000D03*
D12*
X66420000Y-69460000D03*
X68960000Y-72000000D03*
X68960000Y-69460000D03*
X71500000Y-72000000D03*
X71500000Y-69460000D03*
X74040000Y-72000000D03*
X74040000Y-69460000D03*
X76580000Y-72000000D03*
X76580000Y-69460000D03*
X79120000Y-72000000D03*
X79120000Y-69460000D03*
X81660000Y-72000000D03*
X81660000Y-69460000D03*
X84200000Y-72000000D03*
X84200000Y-69460000D03*
X86740000Y-72000000D03*
X86740000Y-69460000D03*
X89280000Y-72000000D03*
X89280000Y-69460000D03*
X91820000Y-72000000D03*
X91820000Y-69460000D03*
X94360000Y-72000000D03*
X94360000Y-69460000D03*
G04 #@! TD*
D10*
G04 #@! TO.C,C17*
X94895113Y-35500000D03*
X94895113Y-33000000D03*
G04 #@! TD*
D13*
G04 #@! TO.C,U7*
X9505114Y-42805000D03*
D10*
X12045114Y-42805000D03*
X14585114Y-42805000D03*
X17125114Y-42805000D03*
X19665114Y-42805000D03*
X22205114Y-42805000D03*
X24745114Y-42805000D03*
X27285114Y-42805000D03*
X27285114Y-35185000D03*
X24745114Y-35185000D03*
X22205114Y-35185000D03*
X19665114Y-35185000D03*
X17125114Y-35185000D03*
X14585114Y-35185000D03*
X12045114Y-35185000D03*
X9505114Y-35185000D03*
G04 #@! TD*
D14*
G04 #@! TO.C,SW5*
X35500000Y-47000000D03*
D10*
X38000000Y-47000000D03*
X40500000Y-47000000D03*
X35500000Y-50200000D03*
X38000000Y-50200000D03*
X40500000Y-50200000D03*
G04 #@! TD*
G04 #@! TO.C,C16*
X31395113Y-18750000D03*
X31395113Y-16250000D03*
G04 #@! TD*
D14*
G04 #@! TO.C,SW2*
X11000000Y-54500000D03*
D10*
X13500000Y-54500000D03*
X16000000Y-54500000D03*
X11000000Y-57700000D03*
X13500000Y-57700000D03*
X16000000Y-57700000D03*
G04 #@! TD*
G04 #@! TO.C,R1*
X90475113Y-23499999D03*
X80315113Y-23499999D03*
G04 #@! TD*
G04 #@! TO.C,R22*
X59395113Y-24420000D03*
X59395113Y-34580000D03*
G04 #@! TD*
D15*
G04 #@! TO.C,Q1*
X81435113Y-14139999D03*
D16*
X78895113Y-14139999D03*
X76355113Y-14139999D03*
G04 #@! TD*
D11*
G04 #@! TO.C,J19*
X33895113Y-37725000D03*
D12*
X33895113Y-40265000D03*
G04 #@! TD*
D14*
G04 #@! TO.C,SW1*
X71895113Y-11999999D03*
D10*
X69395113Y-11999999D03*
X66895113Y-11999999D03*
X71895113Y-8799999D03*
X69395113Y-8799999D03*
X66895113Y-8799999D03*
G04 #@! TD*
D11*
G04 #@! TO.C,J10*
X38660000Y-87400000D03*
D12*
X41200000Y-87400000D03*
G04 #@! TD*
D10*
G04 #@! TO.C,R23*
X19395114Y-46000000D03*
X29555114Y-46000000D03*
G04 #@! TD*
D17*
G04 #@! TO.C,R9*
X39500000Y-98000000D03*
D18*
X42000000Y-98000000D03*
X44500000Y-98000000D03*
G04 #@! TD*
D19*
G04 #@! TO.C,R30*
X44395113Y-2000000D03*
D18*
X41895113Y-2000000D03*
X39395113Y-2000000D03*
G04 #@! TD*
D10*
G04 #@! TO.C,R4*
X79920000Y-89500000D03*
X90080000Y-89500000D03*
G04 #@! TD*
D11*
G04 #@! TO.C,J5*
X80435113Y-9499999D03*
D12*
X77895113Y-9499999D03*
G04 #@! TD*
D11*
G04 #@! TO.C,J2*
X85120113Y-4500000D03*
D12*
X87660113Y-4500000D03*
G04 #@! TD*
D10*
G04 #@! TO.C,R7*
X21420000Y-58000000D03*
X31580000Y-58000000D03*
G04 #@! TD*
G04 #@! TO.C,R8*
X24920000Y-75500000D03*
X35080000Y-75500000D03*
G04 #@! TD*
G04 #@! TO.C,R20*
X31475114Y-24500000D03*
X21315114Y-24500000D03*
G04 #@! TD*
G04 #@! TO.C,R5*
X80500000Y-54000000D03*
X70340000Y-54000000D03*
G04 #@! TD*
D20*
G04 #@! TO.C,C15*
X88190001Y-10500000D03*
D10*
X90690001Y-10500000D03*
G04 #@! TD*
G04 #@! TO.C,R32*
X65000000Y-86080000D03*
X65000000Y-75920000D03*
G04 #@! TD*
D11*
G04 #@! TO.C,J26*
X41775000Y-81425000D03*
D12*
X39235000Y-81425000D03*
X41775000Y-78885000D03*
X39235000Y-78885000D03*
G04 #@! TD*
D10*
G04 #@! TO.C,R6*
X34895113Y-13920000D03*
X34895113Y-24080000D03*
G04 #@! TD*
D15*
G04 #@! TO.C,Q3*
X78935113Y-19139999D03*
D16*
X76395113Y-19139999D03*
X73855113Y-19139999D03*
G04 #@! TD*
D11*
G04 #@! TO.C,J31*
X5000000Y-54000000D03*
D12*
X2460000Y-54000000D03*
X5000000Y-51460000D03*
X2460000Y-51460000D03*
X5000000Y-48920000D03*
X2460000Y-48920000D03*
X5000000Y-46380000D03*
X2460000Y-46380000D03*
G04 #@! TD*
D10*
G04 #@! TO.C,R21*
X38395113Y-22920000D03*
X38395113Y-33080000D03*
G04 #@! TD*
D11*
G04 #@! TO.C,J21*
X40395113Y-14500000D03*
G04 #@! TD*
D13*
G04 #@! TO.C,U3*
X7920000Y-69500000D03*
D10*
X10460000Y-69500000D03*
X13000000Y-69500000D03*
X15540000Y-69500000D03*
X18080000Y-69500000D03*
X20620000Y-69500000D03*
X23160000Y-69500000D03*
X25700000Y-69500000D03*
X25700000Y-61880000D03*
X23160000Y-61880000D03*
X20620000Y-61880000D03*
X18080000Y-61880000D03*
X15540000Y-61880000D03*
X13000000Y-61880000D03*
X10460000Y-61880000D03*
X7920000Y-61880000D03*
G04 #@! TD*
D11*
G04 #@! TO.C,J24*
X59040000Y-80150000D03*
D12*
X56500000Y-80150000D03*
G04 #@! TD*
D10*
G04 #@! TO.C,R28*
X74975113Y-24500000D03*
X64815113Y-24500000D03*
G04 #@! TD*
D11*
G04 #@! TO.C,J8*
X61435113Y-13349999D03*
D12*
X58895113Y-13349999D03*
G04 #@! TD*
D10*
G04 #@! TO.C,R26*
X19975113Y-10500000D03*
X9815113Y-10500000D03*
G04 #@! TD*
D17*
G04 #@! TO.C,R10*
X55500000Y-98000000D03*
D18*
X58000000Y-98000000D03*
X60500000Y-98000000D03*
G04 #@! TD*
D10*
G04 #@! TO.C,R18*
X57055113Y-42500000D03*
X46895113Y-42500000D03*
G04 #@! TD*
D11*
G04 #@! TO.C,J33*
X32015113Y-4540000D03*
D12*
X32015113Y-2000000D03*
X29475113Y-4540000D03*
X29475113Y-2000000D03*
X26935113Y-4540000D03*
X26935113Y-2000000D03*
X24395113Y-4540000D03*
X24395113Y-2000000D03*
X21855113Y-4540000D03*
X21855113Y-2000000D03*
X19315113Y-4540000D03*
X19315113Y-2000000D03*
X16775113Y-4540000D03*
X16775113Y-2000000D03*
X14235113Y-4540000D03*
X14235113Y-2000000D03*
X11695113Y-4540000D03*
X11695113Y-2000000D03*
X9155113Y-4540000D03*
X9155113Y-2000000D03*
X6615113Y-4540000D03*
X6615113Y-2000000D03*
G04 #@! TD*
D11*
G04 #@! TO.C,J18*
X38960000Y-91650000D03*
D12*
X41500000Y-91650000D03*
G04 #@! TD*
D11*
G04 #@! TO.C,J6*
X19460000Y-90500000D03*
D12*
X22000000Y-90500000D03*
G04 #@! TD*
D10*
G04 #@! TO.C,C3*
X47100000Y-93500000D03*
X52100000Y-93500000D03*
G04 #@! TD*
D11*
G04 #@! TO.C,J15*
X70435113Y-16499999D03*
D12*
X67895113Y-16499999D03*
G04 #@! TD*
D11*
G04 #@! TO.C,J4*
X93395113Y-4500000D03*
D12*
X95935113Y-4500000D03*
G04 #@! TD*
D21*
G04 #@! TO.C,U6*
X54015113Y-27390000D03*
D10*
X54015113Y-24850000D03*
X54015113Y-22310000D03*
X54015113Y-19770000D03*
X54015113Y-17230000D03*
X54015113Y-14690000D03*
X54015113Y-12150000D03*
X54015113Y-9610000D03*
X46395113Y-9610000D03*
X46395113Y-12150000D03*
X46395113Y-14690000D03*
X46395113Y-17230000D03*
X46395113Y-19770000D03*
X46395113Y-22310000D03*
X46395113Y-24850000D03*
X46395113Y-27390000D03*
G04 #@! TD*
G04 #@! TO.C,C10*
X51145113Y-70000000D03*
X48645113Y-70000000D03*
G04 #@! TD*
G04 #@! TO.C,C4*
X87895113Y-19499999D03*
X82895113Y-19499999D03*
G04 #@! TD*
D11*
G04 #@! TO.C,J23*
X40855113Y-19850000D03*
D12*
X43395113Y-19850000D03*
G04 #@! TD*
D10*
G04 #@! TO.C,R16*
X37815113Y-39000000D03*
X47975113Y-39000000D03*
G04 #@! TD*
G04 #@! TO.C,C8*
X4895113Y-64500000D03*
X4895113Y-67000000D03*
G04 #@! TD*
G04 #@! TO.C,C13*
X68395113Y-81000000D03*
X68395113Y-83500000D03*
G04 #@! TD*
G04 #@! TO.C,R2*
X97500000Y-75920000D03*
X97500000Y-86080000D03*
G04 #@! TD*
D21*
G04 #@! TO.C,C7*
X11600226Y-90500000D03*
D10*
X9100226Y-90500000D03*
G04 #@! TD*
D11*
G04 #@! TO.C,J3*
X5460000Y-95500000D03*
D12*
X8000000Y-95500000D03*
G04 #@! TD*
D11*
G04 #@! TO.C,J7*
X86935113Y-15999999D03*
D12*
X84395113Y-15999999D03*
G04 #@! TD*
D19*
G04 #@! TO.C,R29*
X60395113Y-2000000D03*
D18*
X57895113Y-2000000D03*
X55395113Y-2000000D03*
G04 #@! TD*
D22*
G04 #@! TO.C,U9*
X91975113Y-30499999D03*
D10*
X89435113Y-30499999D03*
X86895113Y-30499999D03*
X84355113Y-30499999D03*
X81815113Y-30499999D03*
X79275113Y-30499999D03*
X76735113Y-30499999D03*
X74195113Y-30499999D03*
X74195113Y-38119999D03*
X76735113Y-38119999D03*
X79275113Y-38119999D03*
X81815113Y-38119999D03*
X84355113Y-38119999D03*
X86895113Y-38119999D03*
X89435113Y-38119999D03*
X91975113Y-38119999D03*
G04 #@! TD*
G04 #@! TO.C,C5*
X80895113Y-27500000D03*
X75895113Y-27500000D03*
G04 #@! TD*
D11*
G04 #@! TO.C,J27*
X33475113Y-28000000D03*
D12*
X33475113Y-30540000D03*
X30935113Y-28000000D03*
X30935113Y-30540000D03*
X28395113Y-28000000D03*
X28395113Y-30540000D03*
X25855113Y-28000000D03*
X25855113Y-30540000D03*
X23315113Y-28000000D03*
X23315113Y-30540000D03*
X20775113Y-28000000D03*
X20775113Y-30540000D03*
X18235113Y-28000000D03*
X18235113Y-30540000D03*
X15695113Y-28000000D03*
X15695113Y-30540000D03*
X13155113Y-28000000D03*
X13155113Y-30540000D03*
X10615113Y-28000000D03*
X10615113Y-30540000D03*
X8075113Y-28000000D03*
X8075113Y-30540000D03*
X5535113Y-28000000D03*
X5535113Y-30540000D03*
G04 #@! TD*
D11*
G04 #@! TO.C,J9*
X12960000Y-84000000D03*
D12*
X15500000Y-84000000D03*
G04 #@! TD*
D10*
G04 #@! TO.C,R3*
X64920000Y-89500000D03*
X75080000Y-89500000D03*
G04 #@! TD*
D22*
G04 #@! TO.C,U8*
X28555114Y-13880000D03*
D10*
X26015114Y-13880000D03*
X23475114Y-13880000D03*
X20935114Y-13880000D03*
X18395114Y-13880000D03*
X15855114Y-13880000D03*
X13315114Y-13880000D03*
X10775114Y-13880000D03*
X10775114Y-21500000D03*
X13315114Y-21500000D03*
X15855114Y-21500000D03*
X18395114Y-21500000D03*
X20935114Y-21500000D03*
X23475114Y-21500000D03*
X26015114Y-21500000D03*
X28555114Y-21500000D03*
G04 #@! TD*
G04 #@! TO.C,R31*
X9420000Y-76500000D03*
X19580000Y-76500000D03*
G04 #@! TD*
G04 #@! TO.C,R25*
X34975113Y-10500000D03*
X24815113Y-10500000D03*
G04 #@! TD*
D13*
G04 #@! TO.C,U1*
X71340000Y-86120000D03*
D10*
X73880000Y-86120000D03*
X76420000Y-86120000D03*
X78960000Y-86120000D03*
X81500000Y-86120000D03*
X84040000Y-86120000D03*
X86580000Y-86120000D03*
X89120000Y-86120000D03*
X89120000Y-78500000D03*
X86580000Y-78500000D03*
X84040000Y-78500000D03*
X81500000Y-78500000D03*
X78960000Y-78500000D03*
X76420000Y-78500000D03*
X73880000Y-78500000D03*
X71340000Y-78500000D03*
G04 #@! TD*
D14*
G04 #@! TO.C,SW6*
X88895114Y-45499999D03*
D10*
X86395114Y-45499999D03*
X83895114Y-45499999D03*
X88895114Y-42299999D03*
X86395114Y-42299999D03*
X83895114Y-42299999D03*
G04 #@! TD*
D23*
G04 #@! TO.C,RV2*
X96395112Y-19919999D03*
X96395112Y-22459999D03*
X96395112Y-24999999D03*
G04 #@! TD*
D11*
G04 #@! TO.C,J13*
X70395113Y-20499999D03*
G04 #@! TD*
G04 #@! TO.C,J25*
X58120113Y-18574999D03*
D12*
X60660113Y-18574999D03*
X58120113Y-21114999D03*
X60660113Y-21114999D03*
G04 #@! TD*
D11*
G04 #@! TO.C,J11*
X80170113Y-4500000D03*
D12*
X77630113Y-4500000D03*
G04 #@! TD*
D10*
G04 #@! TO.C,R12*
X62395113Y-63080000D03*
X62395113Y-52920000D03*
G04 #@! TD*
G04 #@! TO.C,R19*
X44080000Y-69300000D03*
X33920000Y-69300000D03*
G04 #@! TD*
G04 #@! TO.C,C1*
X12000000Y-80500000D03*
X17000000Y-80500000D03*
G04 #@! TD*
G04 #@! TO.C,C11*
X48895113Y-30000000D03*
X51395113Y-30000000D03*
G04 #@! TD*
D23*
G04 #@! TO.C,RV1*
X3500000Y-80080000D03*
X3500000Y-77540000D03*
X3500000Y-75000000D03*
G04 #@! TD*
D11*
G04 #@! TO.C,J17*
X60935113Y-8349999D03*
D12*
X58395113Y-8349999D03*
G04 #@! TD*
D11*
G04 #@! TO.C,J12*
X19725000Y-95500000D03*
D12*
X22265000Y-95500000D03*
G04 #@! TD*
D24*
G04 #@! TO.C,SW3*
X71895113Y-5799999D03*
D25*
X69395113Y-5799999D03*
X66895113Y-5799999D03*
X66895113Y-2499999D03*
X69395113Y-2499999D03*
X71895113Y-2499999D03*
G04 #@! TD*
D13*
G04 #@! TO.C,U4*
X41110000Y-60500000D03*
D10*
X43650000Y-60500000D03*
X46190000Y-60500000D03*
X48730000Y-60500000D03*
X51270000Y-60500000D03*
X53810000Y-60500000D03*
X56350000Y-60500000D03*
X58890000Y-60500000D03*
X58890000Y-52880000D03*
X56350000Y-52880000D03*
X53810000Y-52880000D03*
X51270000Y-52880000D03*
X48730000Y-52880000D03*
X46190000Y-52880000D03*
X43650000Y-52880000D03*
X41110000Y-52880000D03*
G04 #@! TD*
D15*
G04 #@! TO.C,Q2*
X18460000Y-85860000D03*
D16*
X21000000Y-85860000D03*
X23540000Y-85860000D03*
G04 #@! TD*
D10*
G04 #@! TO.C,R17*
X34895113Y-55340000D03*
X34895113Y-65500000D03*
G04 #@! TD*
D15*
G04 #@! TO.C,Q4*
X20960000Y-80860000D03*
D16*
X23500000Y-80860000D03*
X26040000Y-80860000D03*
G04 #@! TD*
D10*
G04 #@! TO.C,R24*
X2395113Y-24080000D03*
X2395113Y-13920000D03*
G04 #@! TD*
G04 #@! TO.C,C2*
X19000000Y-72500000D03*
X24000000Y-72500000D03*
G04 #@! TD*
G04 #@! TO.C,C14*
X6895113Y-37500000D03*
X6895113Y-40000000D03*
G04 #@! TD*
D11*
G04 #@! TO.C,J20*
X66000000Y-62275000D03*
D12*
X66000000Y-59735000D03*
G04 #@! TD*
D10*
G04 #@! TO.C,C12*
X93395113Y-62250000D03*
X93395113Y-59750000D03*
G04 #@! TD*
D11*
G04 #@! TO.C,J14*
X29500000Y-79500000D03*
G04 #@! TD*
G04 #@! TO.C,J16*
X29460000Y-83500000D03*
D12*
X32000000Y-83500000D03*
G04 #@! TD*
D14*
G04 #@! TO.C,SW7*
X28000000Y-88000000D03*
D10*
X30500000Y-88000000D03*
X33000000Y-88000000D03*
X28000000Y-91200000D03*
X30500000Y-91200000D03*
X33000000Y-91200000D03*
G04 #@! TD*
D11*
G04 #@! TO.C,J1*
X13000000Y-95500000D03*
D12*
X15540000Y-95500000D03*
G04 #@! TD*
D10*
G04 #@! TO.C,C9*
X38395113Y-55500000D03*
X38395113Y-58000000D03*
G04 #@! TD*
G04 #@! TO.C,C6*
X52800000Y-6500000D03*
X47800000Y-6500000D03*
G04 #@! TD*
D11*
G04 #@! TO.C,J30*
X56960000Y-90500000D03*
D12*
X59500000Y-90500000D03*
G04 #@! TD*
D11*
G04 #@! TO.C,J32*
X97000000Y-54000000D03*
D12*
X94460000Y-54000000D03*
X97000000Y-51460000D03*
X94460000Y-51460000D03*
X97000000Y-48920000D03*
X94460000Y-48920000D03*
X97000000Y-46380000D03*
X94460000Y-46380000D03*
G04 #@! TD*
D20*
G04 #@! TO.C,U5*
X45880000Y-72610000D03*
D10*
X45880000Y-75150000D03*
X45880000Y-77690000D03*
X45880000Y-80230000D03*
X45880000Y-82770000D03*
X45880000Y-85310000D03*
X45880000Y-87850000D03*
X45880000Y-90390000D03*
X53500000Y-90390000D03*
X53500000Y-87850000D03*
X53500000Y-85310000D03*
X53500000Y-82770000D03*
X53500000Y-80230000D03*
X53500000Y-77690000D03*
X53500000Y-75150000D03*
X53500000Y-72610000D03*
G04 #@! TD*
D26*
G04 #@! TO.C,SW4*
X28000000Y-94200000D03*
D25*
X30500000Y-94200000D03*
X33000000Y-94200000D03*
X33000000Y-97500000D03*
X30500000Y-97500000D03*
X28000000Y-97500000D03*
G04 #@! TD*
D22*
G04 #@! TO.C,U2*
X90390000Y-57195000D03*
D10*
X87850000Y-57195000D03*
X85310000Y-57195000D03*
X82770000Y-57195000D03*
X80230000Y-57195000D03*
X77690000Y-57195000D03*
X75150000Y-57195000D03*
X72610000Y-57195000D03*
X72610000Y-64815000D03*
X75150000Y-64815000D03*
X77690000Y-64815000D03*
X80230000Y-64815000D03*
X82770000Y-64815000D03*
X85310000Y-64815000D03*
X87850000Y-64815000D03*
X90390000Y-64815000D03*
G04 #@! TD*
M02*
