G04 #@! TF.GenerationSoftware,KiCad,Pcbnew,10.0.0*
G04 #@! TF.CreationDate,2026-04-22T13:07:56+02:00*
G04 #@! TF.ProjectId,kleingorium,6b6c6569-6e67-46f7-9269-756d2e6b6963,rev?*
G04 #@! TF.SameCoordinates,Original*
G04 #@! TF.FileFunction,Soldermask,Bot*
G04 #@! TF.FilePolarity,Negative*
%FSLAX46Y46*%
G04 Gerber Fmt 4.6, Leading zero omitted, Abs format (unit mm)*
G04 Created by KiCad (PCBNEW 10.0.0) date 2026-04-22 13:07:56*
%MOMM*%
%LPD*%
G01*
G04 APERTURE LIST*
G04 Aperture macros list*
%AMRoundRect*
0 Rectangle with rounded corners*
0 $1 Rounding radius*
0 $2 $3 $4 $5 $6 $7 $8 $9 X,Y pos of 4 corners*
0 Add a 4 corners polygon primitive as box body*
4,1,4,$2,$3,$4,$5,$6,$7,$8,$9,$2,$3,0*
0 Add four circle primitives for the rounded corners*
1,1,$1+$1,$2,$3*
1,1,$1+$1,$4,$5*
1,1,$1+$1,$6,$7*
1,1,$1+$1,$8,$9*
0 Add four rect primitives between the rounded corners*
20,1,$1+$1,$2,$3,$4,$5,0*
20,1,$1+$1,$4,$5,$6,$7,0*
20,1,$1+$1,$6,$7,$8,$9,0*
20,1,$1+$1,$8,$9,$2,$3,0*%
G04 Aperture macros list end*
%ADD10R,1.700000X1.700000*%
%ADD11C,1.700000*%
%ADD12C,1.600000*%
%ADD13C,1.200000*%
%ADD14O,2.200000X1.200000*%
%ADD15O,1.200000X2.200000*%
%ADD16R,1.600000X1.600000*%
%ADD17O,3.240000X2.720000*%
%ADD18R,1.800000X1.800000*%
%ADD19C,1.800000*%
%ADD20RoundRect,0.250000X-0.550000X0.550000X-0.550000X-0.550000X0.550000X-0.550000X0.550000X0.550000X0*%
%ADD21RoundRect,0.250000X-0.550000X-0.550000X0.550000X-0.550000X0.550000X0.550000X-0.550000X0.550000X0*%
G04 APERTURE END LIST*
D10*
G04 #@! TO.C,J59*
X493395113Y-4500000D03*
D11*
X495935113Y-4500000D03*
G04 #@! TD*
D10*
G04 #@! TO.C,J52*
X459050000Y-42465000D03*
D11*
X461590000Y-42465000D03*
X459050000Y-45005000D03*
X461590000Y-45005000D03*
X459050000Y-47545000D03*
X461590000Y-47545000D03*
X459050000Y-50085000D03*
X461590000Y-50085000D03*
X459050000Y-52625000D03*
X461590000Y-52625000D03*
X459050000Y-55165000D03*
X461590000Y-55165000D03*
X459050000Y-57705000D03*
X461590000Y-57705000D03*
X459050000Y-60245000D03*
X461590000Y-60245000D03*
X459050000Y-62785000D03*
X461590000Y-62785000D03*
X459050000Y-65325000D03*
X461590000Y-65325000D03*
X459050000Y-67865000D03*
X461590000Y-67865000D03*
X459050000Y-70405000D03*
X461590000Y-70405000D03*
X459050000Y-72945000D03*
X461590000Y-72945000D03*
X459050000Y-75485000D03*
X461590000Y-75485000D03*
X459050000Y-78025000D03*
X461590000Y-78025000D03*
X459050000Y-80565000D03*
X461590000Y-80565000D03*
X459050000Y-83105000D03*
X461590000Y-83105000D03*
X459050000Y-85645000D03*
X461590000Y-85645000D03*
G04 #@! TD*
D10*
G04 #@! TO.C,J35*
X419460000Y-90500000D03*
D11*
X422000000Y-90500000D03*
G04 #@! TD*
D10*
G04 #@! TO.C,J83*
X405000000Y-54000000D03*
D11*
X402460000Y-54000000D03*
X405000000Y-51460000D03*
X402460000Y-51460000D03*
X405000000Y-48920000D03*
X402460000Y-48920000D03*
X405000000Y-46380000D03*
X402460000Y-46380000D03*
G04 #@! TD*
D10*
G04 #@! TO.C,J58*
X405460000Y-95500000D03*
D11*
X408000000Y-95500000D03*
G04 #@! TD*
D12*
G04 #@! TO.C,C19*
X417400000Y-46100000D03*
X417400000Y-41100000D03*
G04 #@! TD*
D10*
G04 #@! TO.C,J40*
X475290000Y-34330000D03*
D11*
X475290000Y-31790000D03*
X475290000Y-29250000D03*
X475290000Y-26710000D03*
X475290000Y-24170000D03*
X475290000Y-21630000D03*
X475290000Y-19090000D03*
X475290000Y-16550000D03*
G04 #@! TD*
D10*
G04 #@! TO.C,J54*
X469210000Y-42465000D03*
D11*
X471750000Y-42465000D03*
X469210000Y-45005000D03*
X471750000Y-45005000D03*
X469210000Y-47545000D03*
X471750000Y-47545000D03*
X469210000Y-50085000D03*
X471750000Y-50085000D03*
X469210000Y-52625000D03*
X471750000Y-52625000D03*
X469210000Y-55165000D03*
X471750000Y-55165000D03*
X469210000Y-57705000D03*
X471750000Y-57705000D03*
X469210000Y-60245000D03*
X471750000Y-60245000D03*
X469210000Y-62785000D03*
X471750000Y-62785000D03*
X469210000Y-65325000D03*
X471750000Y-65325000D03*
X469210000Y-67865000D03*
X471750000Y-67865000D03*
X469210000Y-70405000D03*
X471750000Y-70405000D03*
X469210000Y-72945000D03*
X471750000Y-72945000D03*
X469210000Y-75485000D03*
X471750000Y-75485000D03*
X469210000Y-78025000D03*
X471750000Y-78025000D03*
X469210000Y-80565000D03*
X471750000Y-80565000D03*
X469210000Y-83105000D03*
X471750000Y-83105000D03*
X469210000Y-85645000D03*
X471750000Y-85645000D03*
G04 #@! TD*
D10*
G04 #@! TO.C,J56*
X413000000Y-95500000D03*
D11*
X415540000Y-95500000D03*
G04 #@! TD*
D10*
G04 #@! TO.C,J57*
X485120113Y-4500000D03*
D11*
X487660113Y-4500000D03*
G04 #@! TD*
D10*
G04 #@! TO.C,J69*
X436190000Y-42565000D03*
D11*
X433650000Y-42565000D03*
X436190000Y-45105000D03*
X433650000Y-45105000D03*
X436190000Y-47645000D03*
X433650000Y-47645000D03*
X436190000Y-50185000D03*
X433650000Y-50185000D03*
X436190000Y-52725000D03*
X433650000Y-52725000D03*
X436190000Y-55265000D03*
X433650000Y-55265000D03*
X436190000Y-57805000D03*
X433650000Y-57805000D03*
X436190000Y-60345000D03*
X433650000Y-60345000D03*
X436190000Y-62885000D03*
X433650000Y-62885000D03*
X436190000Y-65425000D03*
X433650000Y-65425000D03*
X436190000Y-67965000D03*
X433650000Y-67965000D03*
X436190000Y-70505000D03*
X433650000Y-70505000D03*
X436190000Y-73045000D03*
X433650000Y-73045000D03*
X436190000Y-75585000D03*
X433650000Y-75585000D03*
X436190000Y-78125000D03*
X433650000Y-78125000D03*
X436190000Y-80665000D03*
X433650000Y-80665000D03*
X436190000Y-83205000D03*
X433650000Y-83205000D03*
X436190000Y-85745000D03*
X433650000Y-85745000D03*
G04 #@! TD*
D10*
G04 #@! TO.C,J72*
X426200000Y-32225000D03*
D11*
X426200000Y-34765000D03*
G04 #@! TD*
D12*
G04 #@! TO.C,R33*
X471500000Y-9400000D03*
X481660000Y-9400000D03*
G04 #@! TD*
D10*
G04 #@! TO.C,J51*
X453970000Y-42465000D03*
D11*
X456510000Y-42465000D03*
X453970000Y-45005000D03*
X456510000Y-45005000D03*
X453970000Y-47545000D03*
X456510000Y-47545000D03*
X453970000Y-50085000D03*
X456510000Y-50085000D03*
X453970000Y-52625000D03*
X456510000Y-52625000D03*
X453970000Y-55165000D03*
X456510000Y-55165000D03*
X453970000Y-57705000D03*
X456510000Y-57705000D03*
X453970000Y-60245000D03*
X456510000Y-60245000D03*
X453970000Y-62785000D03*
X456510000Y-62785000D03*
X453970000Y-65325000D03*
X456510000Y-65325000D03*
X453970000Y-67865000D03*
X456510000Y-67865000D03*
X453970000Y-70405000D03*
X456510000Y-70405000D03*
X453970000Y-72945000D03*
X456510000Y-72945000D03*
X453970000Y-75485000D03*
X456510000Y-75485000D03*
X453970000Y-78025000D03*
X456510000Y-78025000D03*
X453970000Y-80565000D03*
X456510000Y-80565000D03*
X453970000Y-83105000D03*
X456510000Y-83105000D03*
X453970000Y-85645000D03*
X456510000Y-85645000D03*
G04 #@! TD*
D13*
G04 #@! TO.C,J87*
X495340000Y-82000000D03*
X497840000Y-82000000D03*
X490340000Y-77000000D03*
X495340000Y-72000000D03*
X497840000Y-72000000D03*
D14*
X490340000Y-82000000D03*
D15*
X495340000Y-77000000D03*
D14*
X490340000Y-72000000D03*
G04 #@! TD*
D10*
G04 #@! TO.C,J39*
X437000000Y-12600000D03*
D11*
X437000000Y-15140000D03*
X439540000Y-12600000D03*
X439540000Y-15140000D03*
X442080000Y-12600000D03*
X442080000Y-15140000D03*
X444620000Y-12600000D03*
X444620000Y-15140000D03*
X447160000Y-12600000D03*
X447160000Y-15140000D03*
X449700000Y-12600000D03*
X449700000Y-15140000D03*
X452240000Y-12600000D03*
X452240000Y-15140000D03*
X454780000Y-12600000D03*
X454780000Y-15140000D03*
X457320000Y-12600000D03*
X457320000Y-15140000D03*
X459860000Y-12600000D03*
X459860000Y-15140000D03*
X462400000Y-12600000D03*
X462400000Y-15140000D03*
X464940000Y-12600000D03*
X464940000Y-15140000D03*
G04 #@! TD*
D10*
G04 #@! TO.C,J65*
X474290000Y-42545000D03*
D11*
X476830000Y-42545000D03*
X474290000Y-45085000D03*
X476830000Y-45085000D03*
X474290000Y-47625000D03*
X476830000Y-47625000D03*
X474290000Y-50165000D03*
X476830000Y-50165000D03*
X474290000Y-52705000D03*
X476830000Y-52705000D03*
X474290000Y-55245000D03*
X476830000Y-55245000D03*
X474290000Y-57785000D03*
X476830000Y-57785000D03*
X474290000Y-60325000D03*
X476830000Y-60325000D03*
X474290000Y-62865000D03*
X476830000Y-62865000D03*
X474290000Y-65405000D03*
X476830000Y-65405000D03*
X474290000Y-67945000D03*
X476830000Y-67945000D03*
X474290000Y-70485000D03*
X476830000Y-70485000D03*
X474290000Y-73025000D03*
X476830000Y-73025000D03*
X474290000Y-75565000D03*
X476830000Y-75565000D03*
X474290000Y-78105000D03*
X476830000Y-78105000D03*
X474290000Y-80645000D03*
X476830000Y-80645000D03*
X474290000Y-83185000D03*
X476830000Y-83185000D03*
X474290000Y-85725000D03*
X476830000Y-85725000D03*
G04 #@! TD*
D10*
G04 #@! TO.C,J82*
X479370000Y-42545000D03*
D11*
X481910000Y-42545000D03*
X479370000Y-45085000D03*
X481910000Y-45085000D03*
X479370000Y-47625000D03*
X481910000Y-47625000D03*
X479370000Y-50165000D03*
X481910000Y-50165000D03*
X479370000Y-52705000D03*
X481910000Y-52705000D03*
X479370000Y-55245000D03*
X481910000Y-55245000D03*
X479370000Y-57785000D03*
X481910000Y-57785000D03*
X479370000Y-60325000D03*
X481910000Y-60325000D03*
X479370000Y-62865000D03*
X481910000Y-62865000D03*
X479370000Y-65405000D03*
X481910000Y-65405000D03*
X479370000Y-67945000D03*
X481910000Y-67945000D03*
X479370000Y-70485000D03*
X481910000Y-70485000D03*
X479370000Y-73025000D03*
X481910000Y-73025000D03*
X479370000Y-75565000D03*
X481910000Y-75565000D03*
X479370000Y-78105000D03*
X481910000Y-78105000D03*
X479370000Y-80645000D03*
X481910000Y-80645000D03*
X479370000Y-83185000D03*
X481910000Y-83185000D03*
X479370000Y-85725000D03*
X481910000Y-85725000D03*
G04 #@! TD*
D16*
G04 #@! TO.C,RN2*
X487680000Y-36830000D03*
D12*
X487680000Y-34290000D03*
X487680000Y-31750000D03*
X487680000Y-29210000D03*
X487680000Y-26670000D03*
X487680000Y-24130000D03*
X487680000Y-21590000D03*
X487680000Y-19050000D03*
X487680000Y-16510000D03*
G04 #@! TD*
D10*
G04 #@! TO.C,J84*
X497000000Y-54000000D03*
D11*
X494460000Y-54000000D03*
X497000000Y-51460000D03*
X494460000Y-51460000D03*
X497000000Y-48920000D03*
X494460000Y-48920000D03*
X497000000Y-46380000D03*
X494460000Y-46380000D03*
G04 #@! TD*
D10*
G04 #@! TO.C,J71*
X446350000Y-42565000D03*
D11*
X443810000Y-42565000D03*
X446350000Y-45105000D03*
X443810000Y-45105000D03*
X446350000Y-47645000D03*
X443810000Y-47645000D03*
X446350000Y-50185000D03*
X443810000Y-50185000D03*
X446350000Y-52725000D03*
X443810000Y-52725000D03*
X446350000Y-55265000D03*
X443810000Y-55265000D03*
X446350000Y-57805000D03*
X443810000Y-57805000D03*
X446350000Y-60345000D03*
X443810000Y-60345000D03*
X446350000Y-62885000D03*
X443810000Y-62885000D03*
X446350000Y-65425000D03*
X443810000Y-65425000D03*
X446350000Y-67965000D03*
X443810000Y-67965000D03*
X446350000Y-70505000D03*
X443810000Y-70505000D03*
X446350000Y-73045000D03*
X443810000Y-73045000D03*
X446350000Y-75585000D03*
X443810000Y-75585000D03*
X446350000Y-78125000D03*
X443810000Y-78125000D03*
X446350000Y-80665000D03*
X443810000Y-80665000D03*
X446350000Y-83205000D03*
X443810000Y-83205000D03*
X446350000Y-85745000D03*
X443810000Y-85745000D03*
G04 #@! TD*
D17*
G04 #@! TO.C,RV3*
X419500000Y-1750000D03*
X419500000Y-11350000D03*
D18*
X412000000Y-4050000D03*
D19*
X412000000Y-6550000D03*
X412000000Y-9050000D03*
G04 #@! TD*
D16*
G04 #@! TO.C,SW8*
X429400000Y-4300000D03*
D12*
X431900000Y-4300000D03*
X434400000Y-4300000D03*
X429400000Y-7500000D03*
X431900000Y-7500000D03*
X434400000Y-7500000D03*
G04 #@! TD*
D10*
G04 #@! TO.C,J37*
X437000000Y-22760000D03*
D11*
X437000000Y-25300000D03*
X439540000Y-22760000D03*
X439540000Y-25300000D03*
X442080000Y-22760000D03*
X442080000Y-25300000D03*
X444620000Y-22760000D03*
X444620000Y-25300000D03*
X447160000Y-22760000D03*
X447160000Y-25300000D03*
X449700000Y-22760000D03*
X449700000Y-25300000D03*
X452240000Y-22760000D03*
X452240000Y-25300000D03*
X454780000Y-22760000D03*
X454780000Y-25300000D03*
X457320000Y-22760000D03*
X457320000Y-25300000D03*
X459860000Y-22760000D03*
X459860000Y-25300000D03*
X462400000Y-22760000D03*
X462400000Y-25300000D03*
X464940000Y-22760000D03*
X464940000Y-25300000D03*
G04 #@! TD*
D17*
G04 #@! TO.C,RV6*
X489900000Y-67400000D03*
X489900000Y-57800000D03*
D18*
X497400000Y-65100000D03*
D19*
X497400000Y-62600000D03*
X497400000Y-60100000D03*
G04 #@! TD*
D10*
G04 #@! TO.C,J38*
X437000000Y-17680000D03*
D11*
X437000000Y-20220000D03*
X439540000Y-17680000D03*
X439540000Y-20220000D03*
X442080000Y-17680000D03*
X442080000Y-20220000D03*
X444620000Y-17680000D03*
X444620000Y-20220000D03*
X447160000Y-17680000D03*
X447160000Y-20220000D03*
X449700000Y-17680000D03*
X449700000Y-20220000D03*
X452240000Y-17680000D03*
X452240000Y-20220000D03*
X454780000Y-17680000D03*
X454780000Y-20220000D03*
X457320000Y-17680000D03*
X457320000Y-20220000D03*
X459860000Y-17680000D03*
X459860000Y-20220000D03*
X462400000Y-17680000D03*
X462400000Y-20220000D03*
X464940000Y-17680000D03*
X464940000Y-20220000D03*
G04 #@! TD*
D10*
G04 #@! TO.C,J50*
X448890000Y-42545000D03*
D11*
X451430000Y-42545000D03*
X448890000Y-45085000D03*
X451430000Y-45085000D03*
X448890000Y-47625000D03*
X451430000Y-47625000D03*
X448890000Y-50165000D03*
X451430000Y-50165000D03*
X448890000Y-52705000D03*
X451430000Y-52705000D03*
X448890000Y-55245000D03*
X451430000Y-55245000D03*
X448890000Y-57785000D03*
X451430000Y-57785000D03*
X448890000Y-60325000D03*
X451430000Y-60325000D03*
X448890000Y-62865000D03*
X451430000Y-62865000D03*
X448890000Y-65405000D03*
X451430000Y-65405000D03*
X448890000Y-67945000D03*
X451430000Y-67945000D03*
X448890000Y-70485000D03*
X451430000Y-70485000D03*
X448890000Y-73025000D03*
X451430000Y-73025000D03*
X448890000Y-75565000D03*
X451430000Y-75565000D03*
X448890000Y-78105000D03*
X451430000Y-78105000D03*
X448890000Y-80645000D03*
X451430000Y-80645000D03*
X448890000Y-83185000D03*
X451430000Y-83185000D03*
X448890000Y-85725000D03*
X451430000Y-85725000D03*
G04 #@! TD*
D17*
G04 #@! TO.C,RV5*
X487600000Y-87900000D03*
X487600000Y-97500000D03*
D18*
X480100000Y-90200000D03*
D19*
X480100000Y-92700000D03*
X480100000Y-95200000D03*
G04 #@! TD*
D12*
G04 #@! TO.C,C21*
X438900000Y-7300000D03*
X438900000Y-4800000D03*
G04 #@! TD*
D17*
G04 #@! TO.C,RV4*
X419000000Y-21150000D03*
X419000000Y-30750000D03*
D18*
X411500000Y-23450000D03*
D19*
X411500000Y-25950000D03*
X411500000Y-28450000D03*
G04 #@! TD*
D10*
G04 #@! TO.C,J53*
X464130000Y-42465000D03*
D11*
X466670000Y-42465000D03*
X464130000Y-45005000D03*
X466670000Y-45005000D03*
X464130000Y-47545000D03*
X466670000Y-47545000D03*
X464130000Y-50085000D03*
X466670000Y-50085000D03*
X464130000Y-52625000D03*
X466670000Y-52625000D03*
X464130000Y-55165000D03*
X466670000Y-55165000D03*
X464130000Y-57705000D03*
X466670000Y-57705000D03*
X464130000Y-60245000D03*
X466670000Y-60245000D03*
X464130000Y-62785000D03*
X466670000Y-62785000D03*
X464130000Y-65325000D03*
X466670000Y-65325000D03*
X464130000Y-67865000D03*
X466670000Y-67865000D03*
X464130000Y-70405000D03*
X466670000Y-70405000D03*
X464130000Y-72945000D03*
X466670000Y-72945000D03*
X464130000Y-75485000D03*
X466670000Y-75485000D03*
X464130000Y-78025000D03*
X466670000Y-78025000D03*
X464130000Y-80565000D03*
X466670000Y-80565000D03*
X464130000Y-83105000D03*
X466670000Y-83105000D03*
X464130000Y-85645000D03*
X466670000Y-85645000D03*
G04 #@! TD*
D10*
G04 #@! TO.C,J36*
X437000000Y-27840000D03*
D11*
X437000000Y-30380000D03*
X439540000Y-27840000D03*
X439540000Y-30380000D03*
X442080000Y-27840000D03*
X442080000Y-30380000D03*
X444620000Y-27840000D03*
X444620000Y-30380000D03*
X447160000Y-27840000D03*
X447160000Y-30380000D03*
X449700000Y-27840000D03*
X449700000Y-30380000D03*
X452240000Y-27840000D03*
X452240000Y-30380000D03*
X454780000Y-27840000D03*
X454780000Y-30380000D03*
X457320000Y-27840000D03*
X457320000Y-30380000D03*
X459860000Y-27840000D03*
X459860000Y-30380000D03*
X462400000Y-27840000D03*
X462400000Y-30380000D03*
X464940000Y-27840000D03*
X464940000Y-30380000D03*
G04 #@! TD*
D12*
G04 #@! TO.C,C18*
X405900000Y-23550000D03*
X405900000Y-26050000D03*
G04 #@! TD*
D20*
G04 #@! TO.C,U11*
X460100000Y-2000000D03*
D12*
X457560000Y-2000000D03*
X455020000Y-2000000D03*
X452480000Y-2000000D03*
X449940000Y-2000000D03*
X447400000Y-2000000D03*
X444860000Y-2000000D03*
X442320000Y-2000000D03*
X442320000Y-9620000D03*
X444860000Y-9620000D03*
X447400000Y-9620000D03*
X449940000Y-9620000D03*
X452480000Y-9620000D03*
X455020000Y-9620000D03*
X457560000Y-9620000D03*
X460100000Y-9620000D03*
G04 #@! TD*
D21*
G04 #@! TO.C,U10*
X407680000Y-65600000D03*
D12*
X407680000Y-68140000D03*
X407680000Y-70680000D03*
X407680000Y-73220000D03*
X407680000Y-75760000D03*
X407680000Y-78300000D03*
X407680000Y-80840000D03*
X415300000Y-80840000D03*
X415300000Y-78300000D03*
X415300000Y-75760000D03*
X415300000Y-73220000D03*
X415300000Y-70680000D03*
X415300000Y-68140000D03*
X415300000Y-65600000D03*
G04 #@! TD*
D10*
G04 #@! TO.C,J70*
X441270000Y-42565000D03*
D11*
X438730000Y-42565000D03*
X441270000Y-45105000D03*
X438730000Y-45105000D03*
X441270000Y-47645000D03*
X438730000Y-47645000D03*
X441270000Y-50185000D03*
X438730000Y-50185000D03*
X441270000Y-52725000D03*
X438730000Y-52725000D03*
X441270000Y-55265000D03*
X438730000Y-55265000D03*
X441270000Y-57805000D03*
X438730000Y-57805000D03*
X441270000Y-60345000D03*
X438730000Y-60345000D03*
X441270000Y-62885000D03*
X438730000Y-62885000D03*
X441270000Y-65425000D03*
X438730000Y-65425000D03*
X441270000Y-67965000D03*
X438730000Y-67965000D03*
X441270000Y-70505000D03*
X438730000Y-70505000D03*
X441270000Y-73045000D03*
X438730000Y-73045000D03*
X441270000Y-75585000D03*
X438730000Y-75585000D03*
X441270000Y-78125000D03*
X438730000Y-78125000D03*
X441270000Y-80665000D03*
X438730000Y-80665000D03*
X441270000Y-83205000D03*
X438730000Y-83205000D03*
X441270000Y-85745000D03*
X438730000Y-85745000D03*
G04 #@! TD*
D10*
G04 #@! TO.C,J55*
X426100000Y-48500000D03*
D11*
X426100000Y-51040000D03*
X426100000Y-53580000D03*
X426100000Y-56120000D03*
X426100000Y-58660000D03*
X426100000Y-61200000D03*
X426100000Y-63740000D03*
X426100000Y-66280000D03*
X426100000Y-68820000D03*
X426100000Y-71360000D03*
X426100000Y-73900000D03*
X426100000Y-76440000D03*
X426100000Y-78980000D03*
X426100000Y-81520000D03*
X426100000Y-84060000D03*
X426100000Y-86600000D03*
X426100000Y-89140000D03*
X426100000Y-91680000D03*
G04 #@! TD*
D10*
G04 #@! TO.C,J41*
X492760000Y-34290000D03*
D11*
X492760000Y-31750000D03*
X492760000Y-29210000D03*
X492760000Y-26670000D03*
X492760000Y-24130000D03*
X492760000Y-21590000D03*
X492760000Y-19050000D03*
X492760000Y-16510000D03*
G04 #@! TD*
D16*
G04 #@! TO.C,RN1*
X480060000Y-36830000D03*
D12*
X480060000Y-34290000D03*
X480060000Y-31750000D03*
X480060000Y-29210000D03*
X480060000Y-26670000D03*
X480060000Y-24130000D03*
X480060000Y-21590000D03*
X480060000Y-19050000D03*
X480060000Y-16510000D03*
G04 #@! TD*
M02*
