%TF.GenerationSoftware,KiCad,Pcbnew,10.0.0*%
%TF.CreationDate,2026-04-22T13:07:56+02:00*%
%TF.ProjectId,kleingorium,6b6c6569-6e67-46f7-9269-756d2e6b6963,rev?*%
%TF.SameCoordinates,Original*%
%TF.FileFunction,Drillmap*%
%TF.FilePolarity,Positive*%
%FSLAX45Y45*%
G04 Gerber Fmt 4.5, Leading zero omitted, Abs format (unit mm)*
G04 Created by KiCad (PCBNEW 10.0.0) date 2026-04-22 13:07:56*
%MOMM*%
%LPD*%
G01*
G04 APERTURE LIST*
%ADD10C,0.200000*%
%ADD11C,0.050000*%
%ADD12C,0.120000*%
%ADD13C,0.100000*%
%ADD14C,0.110000*%
G04 APERTURE END LIST*
D10*
X40000000Y0D02*
X50000000Y0D01*
X50000000Y-10000000D01*
X40000000Y-10000000D01*
X40000000Y0D01*
D11*
X40675000Y-1000000D02*
G75*
G02*
X40325000Y-1000000I-175000J0D01*
G01*
X40325000Y-1000000D02*
G75*
G02*
X40675000Y-1000000I175000J0D01*
G01*
X40675000Y-9000000D02*
G75*
G02*
X40325000Y-9000000I-175000J0D01*
G01*
X40325000Y-9000000D02*
G75*
G02*
X40675000Y-9000000I175000J0D01*
G01*
X49675000Y-1000000D02*
G75*
G02*
X49325000Y-1000000I-175000J0D01*
G01*
X49325000Y-1000000D02*
G75*
G02*
X49675000Y-1000000I175000J0D01*
G01*
X49675000Y-9000000D02*
G75*
G02*
X49325000Y-9000000I-175000J0D01*
G01*
X49325000Y-9000000D02*
G75*
G02*
X49675000Y-9000000I175000J0D01*
G01*
D12*
X49844000Y-7520000D02*
X49844000Y-7880000D01*
X49884000Y-7480000D02*
X49984000Y-7480000D01*
X49884000Y-7920000D02*
X49984000Y-7920000D01*
X49984000Y-7480000D02*
X49984000Y-7050000D01*
X49984000Y-7920000D02*
X49984000Y-8350000D01*
X49844000Y-7520000D02*
G75*
G02*
X49884000Y-7480000I40000J0D01*
G01*
X49884000Y-7920000D02*
G75*
G02*
X49844000Y-7880000I0J40000D01*
G01*
D10*
D13*
X40950100Y-7504100D02*
X40990100Y-7544100D01*
X40990100Y-7504100D02*
X40950100Y-7544100D01*
X41890000Y-7092000D02*
X41930000Y-7132000D01*
X41930000Y-7092000D02*
X41890000Y-7132000D01*
X45190000Y-360000D02*
X45230000Y-400000D01*
X45230000Y-360000D02*
X45190000Y-400000D01*
X48510000Y-8340000D02*
X48550000Y-8380000D01*
X48550000Y-8340000D02*
X48510000Y-8380000D01*
X48585000Y-5965000D02*
X48625000Y-6005000D01*
X48625000Y-5965000D02*
X48585000Y-6005000D01*
X48780000Y-8180000D02*
X48820000Y-8220000D01*
X48820000Y-8180000D02*
X48780000Y-8220000D01*
X49054000Y-7200000D02*
G75*
G02*
X49014000Y-7200000I-20000J0D01*
G01*
X49014000Y-7200000D02*
G75*
G02*
X49054000Y-7200000I20000J0D01*
G01*
X49084000Y-7180000D02*
X48984000Y-7180000D01*
X48984000Y-7220000D02*
G75*
G02*
X48984000Y-7180000I0J20000D01*
G01*
X48984000Y-7220000D02*
X49084000Y-7220000D01*
X49084000Y-7220000D02*
G75*
G03*
X49084000Y-7180000I0J20000D01*
G01*
X49054000Y-8200000D02*
G75*
G02*
X49014000Y-8200000I-20000J0D01*
G01*
X49014000Y-8200000D02*
G75*
G02*
X49054000Y-8200000I20000J0D01*
G01*
X48984000Y-8220000D02*
X49084000Y-8220000D01*
X49084000Y-8180000D02*
G75*
G02*
X49084000Y-8220000I0J-20000D01*
G01*
X49084000Y-8180000D02*
X48984000Y-8180000D01*
X48984000Y-8180000D02*
G75*
G03*
X48984000Y-8220000I0J-20000D01*
G01*
X49554000Y-7700000D02*
G75*
G02*
X49514000Y-7700000I-20000J0D01*
G01*
X49514000Y-7700000D02*
G75*
G02*
X49554000Y-7700000I20000J0D01*
G01*
X49554000Y-7750000D02*
X49554000Y-7650000D01*
X49514000Y-7650000D02*
G75*
G02*
X49554000Y-7650000I20000J0D01*
G01*
X49514000Y-7650000D02*
X49514000Y-7750000D01*
X49514000Y-7750000D02*
G75*
G03*
X49554000Y-7750000I20000J0D01*
G01*
X40590000Y-2315000D02*
X40590000Y-2395000D01*
X40550000Y-2355000D02*
X40630000Y-2355000D01*
X40590000Y-2565000D02*
X40590000Y-2645000D01*
X40550000Y-2605000D02*
X40630000Y-2605000D01*
X40768000Y-6520000D02*
X40768000Y-6600000D01*
X40728000Y-6560000D02*
X40808000Y-6560000D01*
X40768000Y-6774000D02*
X40768000Y-6854000D01*
X40728000Y-6814000D02*
X40808000Y-6814000D01*
X40768000Y-7028000D02*
X40768000Y-7108000D01*
X40728000Y-7068000D02*
X40808000Y-7068000D01*
X40768000Y-7282000D02*
X40768000Y-7362000D01*
X40728000Y-7322000D02*
X40808000Y-7322000D01*
X40768000Y-7536000D02*
X40768000Y-7616000D01*
X40728000Y-7576000D02*
X40808000Y-7576000D01*
X40768000Y-7790000D02*
X40768000Y-7870000D01*
X40728000Y-7830000D02*
X40808000Y-7830000D01*
X40768000Y-8044000D02*
X40768000Y-8124000D01*
X40728000Y-8084000D02*
X40808000Y-8084000D01*
X41530000Y-6520000D02*
X41530000Y-6600000D01*
X41490000Y-6560000D02*
X41570000Y-6560000D01*
X41530000Y-6774000D02*
X41530000Y-6854000D01*
X41490000Y-6814000D02*
X41570000Y-6814000D01*
X41530000Y-7028000D02*
X41530000Y-7108000D01*
X41490000Y-7068000D02*
X41570000Y-7068000D01*
X41530000Y-7282000D02*
X41530000Y-7362000D01*
X41490000Y-7322000D02*
X41570000Y-7322000D01*
X41530000Y-7536000D02*
X41530000Y-7616000D01*
X41490000Y-7576000D02*
X41570000Y-7576000D01*
X41530000Y-7790000D02*
X41530000Y-7870000D01*
X41490000Y-7830000D02*
X41570000Y-7830000D01*
X41530000Y-8044000D02*
X41530000Y-8124000D01*
X41490000Y-8084000D02*
X41570000Y-8084000D01*
X41740000Y-4070000D02*
X41740000Y-4150000D01*
X41700000Y-4110000D02*
X41780000Y-4110000D01*
X41740000Y-4570000D02*
X41740000Y-4650000D01*
X41700000Y-4610000D02*
X41780000Y-4610000D01*
X42940000Y-390000D02*
X42940000Y-470000D01*
X42900000Y-430000D02*
X42980000Y-430000D01*
X42940000Y-710000D02*
X42940000Y-790000D01*
X42900000Y-750000D02*
X42980000Y-750000D01*
X43190000Y-390000D02*
X43190000Y-470000D01*
X43150000Y-430000D02*
X43230000Y-430000D01*
X43190000Y-710000D02*
X43190000Y-790000D01*
X43150000Y-750000D02*
X43230000Y-750000D01*
X43440000Y-390000D02*
X43440000Y-470000D01*
X43400000Y-430000D02*
X43480000Y-430000D01*
X43440000Y-710000D02*
X43440000Y-790000D01*
X43400000Y-750000D02*
X43480000Y-750000D01*
X43890000Y-440000D02*
X43890000Y-520000D01*
X43850000Y-480000D02*
X43930000Y-480000D01*
X43890000Y-690000D02*
X43890000Y-770000D01*
X43850000Y-730000D02*
X43930000Y-730000D01*
X44232000Y-160000D02*
X44232000Y-240000D01*
X44192000Y-200000D02*
X44272000Y-200000D01*
X44232000Y-922000D02*
X44232000Y-1002000D01*
X44192000Y-962000D02*
X44272000Y-962000D01*
X44486000Y-160000D02*
X44486000Y-240000D01*
X44446000Y-200000D02*
X44526000Y-200000D01*
X44486000Y-922000D02*
X44486000Y-1002000D01*
X44446000Y-962000D02*
X44526000Y-962000D01*
X44740000Y-160000D02*
X44740000Y-240000D01*
X44700000Y-200000D02*
X44780000Y-200000D01*
X44740000Y-922000D02*
X44740000Y-1002000D01*
X44700000Y-962000D02*
X44780000Y-962000D01*
X44994000Y-160000D02*
X44994000Y-240000D01*
X44954000Y-200000D02*
X45034000Y-200000D01*
X44994000Y-922000D02*
X44994000Y-1002000D01*
X44954000Y-962000D02*
X45034000Y-962000D01*
X45248000Y-160000D02*
X45248000Y-240000D01*
X45208000Y-200000D02*
X45288000Y-200000D01*
X45248000Y-922000D02*
X45248000Y-1002000D01*
X45208000Y-962000D02*
X45288000Y-962000D01*
X45502000Y-160000D02*
X45502000Y-240000D01*
X45462000Y-200000D02*
X45542000Y-200000D01*
X45502000Y-922000D02*
X45502000Y-1002000D01*
X45462000Y-962000D02*
X45542000Y-962000D01*
X45756000Y-160000D02*
X45756000Y-240000D01*
X45716000Y-200000D02*
X45796000Y-200000D01*
X45756000Y-922000D02*
X45756000Y-1002000D01*
X45716000Y-962000D02*
X45796000Y-962000D01*
X46010000Y-160000D02*
X46010000Y-240000D01*
X45970000Y-200000D02*
X46050000Y-200000D01*
X46010000Y-922000D02*
X46010000Y-1002000D01*
X45970000Y-962000D02*
X46050000Y-962000D01*
X47150000Y-900000D02*
X47150000Y-980000D01*
X47110000Y-940000D02*
X47190000Y-940000D01*
X48006000Y-1611000D02*
X48006000Y-1691000D01*
X47966000Y-1651000D02*
X48046000Y-1651000D01*
X48006000Y-1865000D02*
X48006000Y-1945000D01*
X47966000Y-1905000D02*
X48046000Y-1905000D01*
X48006000Y-2119000D02*
X48006000Y-2199000D01*
X47966000Y-2159000D02*
X48046000Y-2159000D01*
X48006000Y-2373000D02*
X48006000Y-2453000D01*
X47966000Y-2413000D02*
X48046000Y-2413000D01*
X48006000Y-2627000D02*
X48006000Y-2707000D01*
X47966000Y-2667000D02*
X48046000Y-2667000D01*
X48006000Y-2881000D02*
X48006000Y-2961000D01*
X47966000Y-2921000D02*
X48046000Y-2921000D01*
X48006000Y-3135000D02*
X48006000Y-3215000D01*
X47966000Y-3175000D02*
X48046000Y-3175000D01*
X48006000Y-3389000D02*
X48006000Y-3469000D01*
X47966000Y-3429000D02*
X48046000Y-3429000D01*
X48006000Y-3643000D02*
X48006000Y-3723000D01*
X47966000Y-3683000D02*
X48046000Y-3683000D01*
X48166000Y-900000D02*
X48166000Y-980000D01*
X48126000Y-940000D02*
X48206000Y-940000D01*
X48768000Y-1611000D02*
X48768000Y-1691000D01*
X48728000Y-1651000D02*
X48808000Y-1651000D01*
X48768000Y-1865000D02*
X48768000Y-1945000D01*
X48728000Y-1905000D02*
X48808000Y-1905000D01*
X48768000Y-2119000D02*
X48768000Y-2199000D01*
X48728000Y-2159000D02*
X48808000Y-2159000D01*
X48768000Y-2373000D02*
X48768000Y-2453000D01*
X48728000Y-2413000D02*
X48808000Y-2413000D01*
X48768000Y-2627000D02*
X48768000Y-2707000D01*
X48728000Y-2667000D02*
X48808000Y-2667000D01*
X48768000Y-2881000D02*
X48768000Y-2961000D01*
X48728000Y-2921000D02*
X48808000Y-2921000D01*
X48768000Y-3135000D02*
X48768000Y-3215000D01*
X48728000Y-3175000D02*
X48808000Y-3175000D01*
X48768000Y-3389000D02*
X48768000Y-3469000D01*
X48728000Y-3429000D02*
X48808000Y-3429000D01*
X48768000Y-3643000D02*
X48768000Y-3723000D01*
X48728000Y-3683000D02*
X48808000Y-3683000D01*
X40281356Y-4673356D02*
X40281356Y-4602644D01*
X40210644Y-4602644D01*
X40210644Y-4673356D01*
X40281356Y-4673356D01*
X40281356Y-4927356D02*
X40281356Y-4856644D01*
X40210644Y-4856644D01*
X40210644Y-4927356D01*
X40281356Y-4927356D01*
X40281356Y-5181356D02*
X40281356Y-5110644D01*
X40210644Y-5110644D01*
X40210644Y-5181356D01*
X40281356Y-5181356D01*
X40281356Y-5435356D02*
X40281356Y-5364644D01*
X40210644Y-5364644D01*
X40210644Y-5435356D01*
X40281356Y-5435356D01*
X40535356Y-4673356D02*
X40535356Y-4602644D01*
X40464644Y-4602644D01*
X40464644Y-4673356D01*
X40535356Y-4673356D01*
X40535356Y-4927356D02*
X40535356Y-4856644D01*
X40464644Y-4856644D01*
X40464644Y-4927356D01*
X40535356Y-4927356D01*
X40535356Y-5181356D02*
X40535356Y-5110644D01*
X40464644Y-5110644D01*
X40464644Y-5181356D01*
X40535356Y-5181356D01*
X40535356Y-5435356D02*
X40535356Y-5364644D01*
X40464644Y-5364644D01*
X40464644Y-5435356D01*
X40535356Y-5435356D01*
X40581356Y-9585356D02*
X40581356Y-9514644D01*
X40510644Y-9514644D01*
X40510644Y-9585356D01*
X40581356Y-9585356D01*
X40835356Y-9585356D02*
X40835356Y-9514644D01*
X40764644Y-9514644D01*
X40764644Y-9585356D01*
X40835356Y-9585356D01*
X41185356Y-2380356D02*
X41185356Y-2309644D01*
X41114644Y-2309644D01*
X41114644Y-2380356D01*
X41185356Y-2380356D01*
X41185356Y-2630356D02*
X41185356Y-2559644D01*
X41114644Y-2559644D01*
X41114644Y-2630356D01*
X41185356Y-2630356D01*
X41185356Y-2880356D02*
X41185356Y-2809644D01*
X41114644Y-2809644D01*
X41114644Y-2880356D01*
X41185356Y-2880356D01*
X41235356Y-440356D02*
X41235356Y-369644D01*
X41164644Y-369644D01*
X41164644Y-440356D01*
X41235356Y-440356D01*
X41235356Y-690356D02*
X41235356Y-619644D01*
X41164644Y-619644D01*
X41164644Y-690356D01*
X41235356Y-690356D01*
X41235356Y-940356D02*
X41235356Y-869644D01*
X41164644Y-869644D01*
X41164644Y-940356D01*
X41235356Y-940356D01*
X41335356Y-9585356D02*
X41335356Y-9514644D01*
X41264644Y-9514644D01*
X41264644Y-9585356D01*
X41335356Y-9585356D01*
X41589356Y-9585356D02*
X41589356Y-9514644D01*
X41518644Y-9514644D01*
X41518644Y-9585356D01*
X41589356Y-9585356D01*
X41981356Y-9085356D02*
X41981356Y-9014644D01*
X41910644Y-9014644D01*
X41910644Y-9085356D01*
X41981356Y-9085356D01*
X42235356Y-9085356D02*
X42235356Y-9014644D01*
X42164644Y-9014644D01*
X42164644Y-9085356D01*
X42235356Y-9085356D01*
X42645356Y-4885356D02*
X42645356Y-4814644D01*
X42574644Y-4814644D01*
X42574644Y-4885356D01*
X42645356Y-4885356D01*
X42645356Y-5139356D02*
X42645356Y-5068644D01*
X42574644Y-5068644D01*
X42574644Y-5139356D01*
X42645356Y-5139356D01*
X42645356Y-5393356D02*
X42645356Y-5322644D01*
X42574644Y-5322644D01*
X42574644Y-5393356D01*
X42645356Y-5393356D01*
X42645356Y-5647356D02*
X42645356Y-5576644D01*
X42574644Y-5576644D01*
X42574644Y-5647356D01*
X42645356Y-5647356D01*
X42645356Y-5901356D02*
X42645356Y-5830644D01*
X42574644Y-5830644D01*
X42574644Y-5901356D01*
X42645356Y-5901356D01*
X42645356Y-6155356D02*
X42645356Y-6084644D01*
X42574644Y-6084644D01*
X42574644Y-6155356D01*
X42645356Y-6155356D01*
X42645356Y-6409356D02*
X42645356Y-6338644D01*
X42574644Y-6338644D01*
X42574644Y-6409356D01*
X42645356Y-6409356D01*
X42645356Y-6663356D02*
X42645356Y-6592644D01*
X42574644Y-6592644D01*
X42574644Y-6663356D01*
X42645356Y-6663356D01*
X42645356Y-6917356D02*
X42645356Y-6846644D01*
X42574644Y-6846644D01*
X42574644Y-6917356D01*
X42645356Y-6917356D01*
X42645356Y-7171356D02*
X42645356Y-7100644D01*
X42574644Y-7100644D01*
X42574644Y-7171356D01*
X42645356Y-7171356D01*
X42645356Y-7425356D02*
X42645356Y-7354644D01*
X42574644Y-7354644D01*
X42574644Y-7425356D01*
X42645356Y-7425356D01*
X42645356Y-7679356D02*
X42645356Y-7608644D01*
X42574644Y-7608644D01*
X42574644Y-7679356D01*
X42645356Y-7679356D01*
X42645356Y-7933356D02*
X42645356Y-7862644D01*
X42574644Y-7862644D01*
X42574644Y-7933356D01*
X42645356Y-7933356D01*
X42645356Y-8187356D02*
X42645356Y-8116644D01*
X42574644Y-8116644D01*
X42574644Y-8187356D01*
X42645356Y-8187356D01*
X42645356Y-8441356D02*
X42645356Y-8370644D01*
X42574644Y-8370644D01*
X42574644Y-8441356D01*
X42645356Y-8441356D01*
X42645356Y-8695356D02*
X42645356Y-8624644D01*
X42574644Y-8624644D01*
X42574644Y-8695356D01*
X42645356Y-8695356D01*
X42645356Y-8949356D02*
X42645356Y-8878644D01*
X42574644Y-8878644D01*
X42574644Y-8949356D01*
X42645356Y-8949356D01*
X42645356Y-9203356D02*
X42645356Y-9132644D01*
X42574644Y-9132644D01*
X42574644Y-9203356D01*
X42645356Y-9203356D01*
X42655356Y-3257856D02*
X42655356Y-3187144D01*
X42584644Y-3187144D01*
X42584644Y-3257856D01*
X42655356Y-3257856D01*
X42655356Y-3511856D02*
X42655356Y-3441144D01*
X42584644Y-3441144D01*
X42584644Y-3511856D01*
X42655356Y-3511856D01*
X43400356Y-4291856D02*
X43400356Y-4221144D01*
X43329644Y-4221144D01*
X43329644Y-4291856D01*
X43400356Y-4291856D01*
X43400356Y-4545856D02*
X43400356Y-4475144D01*
X43329644Y-4475144D01*
X43329644Y-4545856D01*
X43400356Y-4545856D01*
X43400356Y-4799856D02*
X43400356Y-4729144D01*
X43329644Y-4729144D01*
X43329644Y-4799856D01*
X43400356Y-4799856D01*
X43400356Y-5053856D02*
X43400356Y-4983144D01*
X43329644Y-4983144D01*
X43329644Y-5053856D01*
X43400356Y-5053856D01*
X43400356Y-5307856D02*
X43400356Y-5237144D01*
X43329644Y-5237144D01*
X43329644Y-5307856D01*
X43400356Y-5307856D01*
X43400356Y-5561856D02*
X43400356Y-5491144D01*
X43329644Y-5491144D01*
X43329644Y-5561856D01*
X43400356Y-5561856D01*
X43400356Y-5815856D02*
X43400356Y-5745144D01*
X43329644Y-5745144D01*
X43329644Y-5815856D01*
X43400356Y-5815856D01*
X43400356Y-6069856D02*
X43400356Y-5999144D01*
X43329644Y-5999144D01*
X43329644Y-6069856D01*
X43400356Y-6069856D01*
X43400356Y-6323856D02*
X43400356Y-6253144D01*
X43329644Y-6253144D01*
X43329644Y-6323856D01*
X43400356Y-6323856D01*
X43400356Y-6577856D02*
X43400356Y-6507144D01*
X43329644Y-6507144D01*
X43329644Y-6577856D01*
X43400356Y-6577856D01*
X43400356Y-6831856D02*
X43400356Y-6761144D01*
X43329644Y-6761144D01*
X43329644Y-6831856D01*
X43400356Y-6831856D01*
X43400356Y-7085856D02*
X43400356Y-7015144D01*
X43329644Y-7015144D01*
X43329644Y-7085856D01*
X43400356Y-7085856D01*
X43400356Y-7339856D02*
X43400356Y-7269144D01*
X43329644Y-7269144D01*
X43329644Y-7339856D01*
X43400356Y-7339856D01*
X43400356Y-7593856D02*
X43400356Y-7523144D01*
X43329644Y-7523144D01*
X43329644Y-7593856D01*
X43400356Y-7593856D01*
X43400356Y-7847856D02*
X43400356Y-7777144D01*
X43329644Y-7777144D01*
X43329644Y-7847856D01*
X43400356Y-7847856D01*
X43400356Y-8101856D02*
X43400356Y-8031144D01*
X43329644Y-8031144D01*
X43329644Y-8101856D01*
X43400356Y-8101856D01*
X43400356Y-8355856D02*
X43400356Y-8285144D01*
X43329644Y-8285144D01*
X43329644Y-8355856D01*
X43400356Y-8355856D01*
X43400356Y-8609856D02*
X43400356Y-8539144D01*
X43329644Y-8539144D01*
X43329644Y-8609856D01*
X43400356Y-8609856D01*
X43654356Y-4291856D02*
X43654356Y-4221144D01*
X43583644Y-4221144D01*
X43583644Y-4291856D01*
X43654356Y-4291856D01*
X43654356Y-4545856D02*
X43654356Y-4475144D01*
X43583644Y-4475144D01*
X43583644Y-4545856D01*
X43654356Y-4545856D01*
X43654356Y-4799856D02*
X43654356Y-4729144D01*
X43583644Y-4729144D01*
X43583644Y-4799856D01*
X43654356Y-4799856D01*
X43654356Y-5053856D02*
X43654356Y-4983144D01*
X43583644Y-4983144D01*
X43583644Y-5053856D01*
X43654356Y-5053856D01*
X43654356Y-5307856D02*
X43654356Y-5237144D01*
X43583644Y-5237144D01*
X43583644Y-5307856D01*
X43654356Y-5307856D01*
X43654356Y-5561856D02*
X43654356Y-5491144D01*
X43583644Y-5491144D01*
X43583644Y-5561856D01*
X43654356Y-5561856D01*
X43654356Y-5815856D02*
X43654356Y-5745144D01*
X43583644Y-5745144D01*
X43583644Y-5815856D01*
X43654356Y-5815856D01*
X43654356Y-6069856D02*
X43654356Y-5999144D01*
X43583644Y-5999144D01*
X43583644Y-6069856D01*
X43654356Y-6069856D01*
X43654356Y-6323856D02*
X43654356Y-6253144D01*
X43583644Y-6253144D01*
X43583644Y-6323856D01*
X43654356Y-6323856D01*
X43654356Y-6577856D02*
X43654356Y-6507144D01*
X43583644Y-6507144D01*
X43583644Y-6577856D01*
X43654356Y-6577856D01*
X43654356Y-6831856D02*
X43654356Y-6761144D01*
X43583644Y-6761144D01*
X43583644Y-6831856D01*
X43654356Y-6831856D01*
X43654356Y-7085856D02*
X43654356Y-7015144D01*
X43583644Y-7015144D01*
X43583644Y-7085856D01*
X43654356Y-7085856D01*
X43654356Y-7339856D02*
X43654356Y-7269144D01*
X43583644Y-7269144D01*
X43583644Y-7339856D01*
X43654356Y-7339856D01*
X43654356Y-7593856D02*
X43654356Y-7523144D01*
X43583644Y-7523144D01*
X43583644Y-7593856D01*
X43654356Y-7593856D01*
X43654356Y-7847856D02*
X43654356Y-7777144D01*
X43583644Y-7777144D01*
X43583644Y-7847856D01*
X43654356Y-7847856D01*
X43654356Y-8101856D02*
X43654356Y-8031144D01*
X43583644Y-8031144D01*
X43583644Y-8101856D01*
X43654356Y-8101856D01*
X43654356Y-8355856D02*
X43654356Y-8285144D01*
X43583644Y-8285144D01*
X43583644Y-8355856D01*
X43654356Y-8355856D01*
X43654356Y-8609856D02*
X43654356Y-8539144D01*
X43583644Y-8539144D01*
X43583644Y-8609856D01*
X43654356Y-8609856D01*
X43735356Y-1295356D02*
X43735356Y-1224644D01*
X43664644Y-1224644D01*
X43664644Y-1295356D01*
X43735356Y-1295356D01*
X43735356Y-1549356D02*
X43735356Y-1478644D01*
X43664644Y-1478644D01*
X43664644Y-1549356D01*
X43735356Y-1549356D01*
X43735356Y-1803356D02*
X43735356Y-1732644D01*
X43664644Y-1732644D01*
X43664644Y-1803356D01*
X43735356Y-1803356D01*
X43735356Y-2057356D02*
X43735356Y-1986644D01*
X43664644Y-1986644D01*
X43664644Y-2057356D01*
X43735356Y-2057356D01*
X43735356Y-2311356D02*
X43735356Y-2240644D01*
X43664644Y-2240644D01*
X43664644Y-2311356D01*
X43735356Y-2311356D01*
X43735356Y-2565356D02*
X43735356Y-2494644D01*
X43664644Y-2494644D01*
X43664644Y-2565356D01*
X43735356Y-2565356D01*
X43735356Y-2819356D02*
X43735356Y-2748644D01*
X43664644Y-2748644D01*
X43664644Y-2819356D01*
X43735356Y-2819356D01*
X43735356Y-3073356D02*
X43735356Y-3002644D01*
X43664644Y-3002644D01*
X43664644Y-3073356D01*
X43735356Y-3073356D01*
X43908356Y-4291856D02*
X43908356Y-4221144D01*
X43837644Y-4221144D01*
X43837644Y-4291856D01*
X43908356Y-4291856D01*
X43908356Y-4545856D02*
X43908356Y-4475144D01*
X43837644Y-4475144D01*
X43837644Y-4545856D01*
X43908356Y-4545856D01*
X43908356Y-4799856D02*
X43908356Y-4729144D01*
X43837644Y-4729144D01*
X43837644Y-4799856D01*
X43908356Y-4799856D01*
X43908356Y-5053856D02*
X43908356Y-4983144D01*
X43837644Y-4983144D01*
X43837644Y-5053856D01*
X43908356Y-5053856D01*
X43908356Y-5307856D02*
X43908356Y-5237144D01*
X43837644Y-5237144D01*
X43837644Y-5307856D01*
X43908356Y-5307856D01*
X43908356Y-5561856D02*
X43908356Y-5491144D01*
X43837644Y-5491144D01*
X43837644Y-5561856D01*
X43908356Y-5561856D01*
X43908356Y-5815856D02*
X43908356Y-5745144D01*
X43837644Y-5745144D01*
X43837644Y-5815856D01*
X43908356Y-5815856D01*
X43908356Y-6069856D02*
X43908356Y-5999144D01*
X43837644Y-5999144D01*
X43837644Y-6069856D01*
X43908356Y-6069856D01*
X43908356Y-6323856D02*
X43908356Y-6253144D01*
X43837644Y-6253144D01*
X43837644Y-6323856D01*
X43908356Y-6323856D01*
X43908356Y-6577856D02*
X43908356Y-6507144D01*
X43837644Y-6507144D01*
X43837644Y-6577856D01*
X43908356Y-6577856D01*
X43908356Y-6831856D02*
X43908356Y-6761144D01*
X43837644Y-6761144D01*
X43837644Y-6831856D01*
X43908356Y-6831856D01*
X43908356Y-7085856D02*
X43908356Y-7015144D01*
X43837644Y-7015144D01*
X43837644Y-7085856D01*
X43908356Y-7085856D01*
X43908356Y-7339856D02*
X43908356Y-7269144D01*
X43837644Y-7269144D01*
X43837644Y-7339856D01*
X43908356Y-7339856D01*
X43908356Y-7593856D02*
X43908356Y-7523144D01*
X43837644Y-7523144D01*
X43837644Y-7593856D01*
X43908356Y-7593856D01*
X43908356Y-7847856D02*
X43908356Y-7777144D01*
X43837644Y-7777144D01*
X43837644Y-7847856D01*
X43908356Y-7847856D01*
X43908356Y-8101856D02*
X43908356Y-8031144D01*
X43837644Y-8031144D01*
X43837644Y-8101856D01*
X43908356Y-8101856D01*
X43908356Y-8355856D02*
X43908356Y-8285144D01*
X43837644Y-8285144D01*
X43837644Y-8355856D01*
X43908356Y-8355856D01*
X43908356Y-8609856D02*
X43908356Y-8539144D01*
X43837644Y-8539144D01*
X43837644Y-8609856D01*
X43908356Y-8609856D01*
X43989356Y-1295356D02*
X43989356Y-1224644D01*
X43918644Y-1224644D01*
X43918644Y-1295356D01*
X43989356Y-1295356D01*
X43989356Y-1549356D02*
X43989356Y-1478644D01*
X43918644Y-1478644D01*
X43918644Y-1549356D01*
X43989356Y-1549356D01*
X43989356Y-1803356D02*
X43989356Y-1732644D01*
X43918644Y-1732644D01*
X43918644Y-1803356D01*
X43989356Y-1803356D01*
X43989356Y-2057356D02*
X43989356Y-1986644D01*
X43918644Y-1986644D01*
X43918644Y-2057356D01*
X43989356Y-2057356D01*
X43989356Y-2311356D02*
X43989356Y-2240644D01*
X43918644Y-2240644D01*
X43918644Y-2311356D01*
X43989356Y-2311356D01*
X43989356Y-2565356D02*
X43989356Y-2494644D01*
X43918644Y-2494644D01*
X43918644Y-2565356D01*
X43989356Y-2565356D01*
X43989356Y-2819356D02*
X43989356Y-2748644D01*
X43918644Y-2748644D01*
X43918644Y-2819356D01*
X43989356Y-2819356D01*
X43989356Y-3073356D02*
X43989356Y-3002644D01*
X43918644Y-3002644D01*
X43918644Y-3073356D01*
X43989356Y-3073356D01*
X44162356Y-4291856D02*
X44162356Y-4221144D01*
X44091644Y-4221144D01*
X44091644Y-4291856D01*
X44162356Y-4291856D01*
X44162356Y-4545856D02*
X44162356Y-4475144D01*
X44091644Y-4475144D01*
X44091644Y-4545856D01*
X44162356Y-4545856D01*
X44162356Y-4799856D02*
X44162356Y-4729144D01*
X44091644Y-4729144D01*
X44091644Y-4799856D01*
X44162356Y-4799856D01*
X44162356Y-5053856D02*
X44162356Y-4983144D01*
X44091644Y-4983144D01*
X44091644Y-5053856D01*
X44162356Y-5053856D01*
X44162356Y-5307856D02*
X44162356Y-5237144D01*
X44091644Y-5237144D01*
X44091644Y-5307856D01*
X44162356Y-5307856D01*
X44162356Y-5561856D02*
X44162356Y-5491144D01*
X44091644Y-5491144D01*
X44091644Y-5561856D01*
X44162356Y-5561856D01*
X44162356Y-5815856D02*
X44162356Y-5745144D01*
X44091644Y-5745144D01*
X44091644Y-5815856D01*
X44162356Y-5815856D01*
X44162356Y-6069856D02*
X44162356Y-5999144D01*
X44091644Y-5999144D01*
X44091644Y-6069856D01*
X44162356Y-6069856D01*
X44162356Y-6323856D02*
X44162356Y-6253144D01*
X44091644Y-6253144D01*
X44091644Y-6323856D01*
X44162356Y-6323856D01*
X44162356Y-6577856D02*
X44162356Y-6507144D01*
X44091644Y-6507144D01*
X44091644Y-6577856D01*
X44162356Y-6577856D01*
X44162356Y-6831856D02*
X44162356Y-6761144D01*
X44091644Y-6761144D01*
X44091644Y-6831856D01*
X44162356Y-6831856D01*
X44162356Y-7085856D02*
X44162356Y-7015144D01*
X44091644Y-7015144D01*
X44091644Y-7085856D01*
X44162356Y-7085856D01*
X44162356Y-7339856D02*
X44162356Y-7269144D01*
X44091644Y-7269144D01*
X44091644Y-7339856D01*
X44162356Y-7339856D01*
X44162356Y-7593856D02*
X44162356Y-7523144D01*
X44091644Y-7523144D01*
X44091644Y-7593856D01*
X44162356Y-7593856D01*
X44162356Y-7847856D02*
X44162356Y-7777144D01*
X44091644Y-7777144D01*
X44091644Y-7847856D01*
X44162356Y-7847856D01*
X44162356Y-8101856D02*
X44162356Y-8031144D01*
X44091644Y-8031144D01*
X44091644Y-8101856D01*
X44162356Y-8101856D01*
X44162356Y-8355856D02*
X44162356Y-8285144D01*
X44091644Y-8285144D01*
X44091644Y-8355856D01*
X44162356Y-8355856D01*
X44162356Y-8609856D02*
X44162356Y-8539144D01*
X44091644Y-8539144D01*
X44091644Y-8609856D01*
X44162356Y-8609856D01*
X44243356Y-1295356D02*
X44243356Y-1224644D01*
X44172644Y-1224644D01*
X44172644Y-1295356D01*
X44243356Y-1295356D01*
X44243356Y-1549356D02*
X44243356Y-1478644D01*
X44172644Y-1478644D01*
X44172644Y-1549356D01*
X44243356Y-1549356D01*
X44243356Y-1803356D02*
X44243356Y-1732644D01*
X44172644Y-1732644D01*
X44172644Y-1803356D01*
X44243356Y-1803356D01*
X44243356Y-2057356D02*
X44243356Y-1986644D01*
X44172644Y-1986644D01*
X44172644Y-2057356D01*
X44243356Y-2057356D01*
X44243356Y-2311356D02*
X44243356Y-2240644D01*
X44172644Y-2240644D01*
X44172644Y-2311356D01*
X44243356Y-2311356D01*
X44243356Y-2565356D02*
X44243356Y-2494644D01*
X44172644Y-2494644D01*
X44172644Y-2565356D01*
X44243356Y-2565356D01*
X44243356Y-2819356D02*
X44243356Y-2748644D01*
X44172644Y-2748644D01*
X44172644Y-2819356D01*
X44243356Y-2819356D01*
X44243356Y-3073356D02*
X44243356Y-3002644D01*
X44172644Y-3002644D01*
X44172644Y-3073356D01*
X44243356Y-3073356D01*
X44416356Y-4291856D02*
X44416356Y-4221144D01*
X44345644Y-4221144D01*
X44345644Y-4291856D01*
X44416356Y-4291856D01*
X44416356Y-4545856D02*
X44416356Y-4475144D01*
X44345644Y-4475144D01*
X44345644Y-4545856D01*
X44416356Y-4545856D01*
X44416356Y-4799856D02*
X44416356Y-4729144D01*
X44345644Y-4729144D01*
X44345644Y-4799856D01*
X44416356Y-4799856D01*
X44416356Y-5053856D02*
X44416356Y-4983144D01*
X44345644Y-4983144D01*
X44345644Y-5053856D01*
X44416356Y-5053856D01*
X44416356Y-5307856D02*
X44416356Y-5237144D01*
X44345644Y-5237144D01*
X44345644Y-5307856D01*
X44416356Y-5307856D01*
X44416356Y-5561856D02*
X44416356Y-5491144D01*
X44345644Y-5491144D01*
X44345644Y-5561856D01*
X44416356Y-5561856D01*
X44416356Y-5815856D02*
X44416356Y-5745144D01*
X44345644Y-5745144D01*
X44345644Y-5815856D01*
X44416356Y-5815856D01*
X44416356Y-6069856D02*
X44416356Y-5999144D01*
X44345644Y-5999144D01*
X44345644Y-6069856D01*
X44416356Y-6069856D01*
X44416356Y-6323856D02*
X44416356Y-6253144D01*
X44345644Y-6253144D01*
X44345644Y-6323856D01*
X44416356Y-6323856D01*
X44416356Y-6577856D02*
X44416356Y-6507144D01*
X44345644Y-6507144D01*
X44345644Y-6577856D01*
X44416356Y-6577856D01*
X44416356Y-6831856D02*
X44416356Y-6761144D01*
X44345644Y-6761144D01*
X44345644Y-6831856D01*
X44416356Y-6831856D01*
X44416356Y-7085856D02*
X44416356Y-7015144D01*
X44345644Y-7015144D01*
X44345644Y-7085856D01*
X44416356Y-7085856D01*
X44416356Y-7339856D02*
X44416356Y-7269144D01*
X44345644Y-7269144D01*
X44345644Y-7339856D01*
X44416356Y-7339856D01*
X44416356Y-7593856D02*
X44416356Y-7523144D01*
X44345644Y-7523144D01*
X44345644Y-7593856D01*
X44416356Y-7593856D01*
X44416356Y-7847856D02*
X44416356Y-7777144D01*
X44345644Y-7777144D01*
X44345644Y-7847856D01*
X44416356Y-7847856D01*
X44416356Y-8101856D02*
X44416356Y-8031144D01*
X44345644Y-8031144D01*
X44345644Y-8101856D01*
X44416356Y-8101856D01*
X44416356Y-8355856D02*
X44416356Y-8285144D01*
X44345644Y-8285144D01*
X44345644Y-8355856D01*
X44416356Y-8355856D01*
X44416356Y-8609856D02*
X44416356Y-8539144D01*
X44345644Y-8539144D01*
X44345644Y-8609856D01*
X44416356Y-8609856D01*
X44497356Y-1295356D02*
X44497356Y-1224644D01*
X44426644Y-1224644D01*
X44426644Y-1295356D01*
X44497356Y-1295356D01*
X44497356Y-1549356D02*
X44497356Y-1478644D01*
X44426644Y-1478644D01*
X44426644Y-1549356D01*
X44497356Y-1549356D01*
X44497356Y-1803356D02*
X44497356Y-1732644D01*
X44426644Y-1732644D01*
X44426644Y-1803356D01*
X44497356Y-1803356D01*
X44497356Y-2057356D02*
X44497356Y-1986644D01*
X44426644Y-1986644D01*
X44426644Y-2057356D01*
X44497356Y-2057356D01*
X44497356Y-2311356D02*
X44497356Y-2240644D01*
X44426644Y-2240644D01*
X44426644Y-2311356D01*
X44497356Y-2311356D01*
X44497356Y-2565356D02*
X44497356Y-2494644D01*
X44426644Y-2494644D01*
X44426644Y-2565356D01*
X44497356Y-2565356D01*
X44497356Y-2819356D02*
X44497356Y-2748644D01*
X44426644Y-2748644D01*
X44426644Y-2819356D01*
X44497356Y-2819356D01*
X44497356Y-3073356D02*
X44497356Y-3002644D01*
X44426644Y-3002644D01*
X44426644Y-3073356D01*
X44497356Y-3073356D01*
X44670356Y-4291856D02*
X44670356Y-4221144D01*
X44599644Y-4221144D01*
X44599644Y-4291856D01*
X44670356Y-4291856D01*
X44670356Y-4545856D02*
X44670356Y-4475144D01*
X44599644Y-4475144D01*
X44599644Y-4545856D01*
X44670356Y-4545856D01*
X44670356Y-4799856D02*
X44670356Y-4729144D01*
X44599644Y-4729144D01*
X44599644Y-4799856D01*
X44670356Y-4799856D01*
X44670356Y-5053856D02*
X44670356Y-4983144D01*
X44599644Y-4983144D01*
X44599644Y-5053856D01*
X44670356Y-5053856D01*
X44670356Y-5307856D02*
X44670356Y-5237144D01*
X44599644Y-5237144D01*
X44599644Y-5307856D01*
X44670356Y-5307856D01*
X44670356Y-5561856D02*
X44670356Y-5491144D01*
X44599644Y-5491144D01*
X44599644Y-5561856D01*
X44670356Y-5561856D01*
X44670356Y-5815856D02*
X44670356Y-5745144D01*
X44599644Y-5745144D01*
X44599644Y-5815856D01*
X44670356Y-5815856D01*
X44670356Y-6069856D02*
X44670356Y-5999144D01*
X44599644Y-5999144D01*
X44599644Y-6069856D01*
X44670356Y-6069856D01*
X44670356Y-6323856D02*
X44670356Y-6253144D01*
X44599644Y-6253144D01*
X44599644Y-6323856D01*
X44670356Y-6323856D01*
X44670356Y-6577856D02*
X44670356Y-6507144D01*
X44599644Y-6507144D01*
X44599644Y-6577856D01*
X44670356Y-6577856D01*
X44670356Y-6831856D02*
X44670356Y-6761144D01*
X44599644Y-6761144D01*
X44599644Y-6831856D01*
X44670356Y-6831856D01*
X44670356Y-7085856D02*
X44670356Y-7015144D01*
X44599644Y-7015144D01*
X44599644Y-7085856D01*
X44670356Y-7085856D01*
X44670356Y-7339856D02*
X44670356Y-7269144D01*
X44599644Y-7269144D01*
X44599644Y-7339856D01*
X44670356Y-7339856D01*
X44670356Y-7593856D02*
X44670356Y-7523144D01*
X44599644Y-7523144D01*
X44599644Y-7593856D01*
X44670356Y-7593856D01*
X44670356Y-7847856D02*
X44670356Y-7777144D01*
X44599644Y-7777144D01*
X44599644Y-7847856D01*
X44670356Y-7847856D01*
X44670356Y-8101856D02*
X44670356Y-8031144D01*
X44599644Y-8031144D01*
X44599644Y-8101856D01*
X44670356Y-8101856D01*
X44670356Y-8355856D02*
X44670356Y-8285144D01*
X44599644Y-8285144D01*
X44599644Y-8355856D01*
X44670356Y-8355856D01*
X44670356Y-8609856D02*
X44670356Y-8539144D01*
X44599644Y-8539144D01*
X44599644Y-8609856D01*
X44670356Y-8609856D01*
X44751356Y-1295356D02*
X44751356Y-1224644D01*
X44680644Y-1224644D01*
X44680644Y-1295356D01*
X44751356Y-1295356D01*
X44751356Y-1549356D02*
X44751356Y-1478644D01*
X44680644Y-1478644D01*
X44680644Y-1549356D01*
X44751356Y-1549356D01*
X44751356Y-1803356D02*
X44751356Y-1732644D01*
X44680644Y-1732644D01*
X44680644Y-1803356D01*
X44751356Y-1803356D01*
X44751356Y-2057356D02*
X44751356Y-1986644D01*
X44680644Y-1986644D01*
X44680644Y-2057356D01*
X44751356Y-2057356D01*
X44751356Y-2311356D02*
X44751356Y-2240644D01*
X44680644Y-2240644D01*
X44680644Y-2311356D01*
X44751356Y-2311356D01*
X44751356Y-2565356D02*
X44751356Y-2494644D01*
X44680644Y-2494644D01*
X44680644Y-2565356D01*
X44751356Y-2565356D01*
X44751356Y-2819356D02*
X44751356Y-2748644D01*
X44680644Y-2748644D01*
X44680644Y-2819356D01*
X44751356Y-2819356D01*
X44751356Y-3073356D02*
X44751356Y-3002644D01*
X44680644Y-3002644D01*
X44680644Y-3073356D01*
X44751356Y-3073356D01*
X44924356Y-4289856D02*
X44924356Y-4219144D01*
X44853644Y-4219144D01*
X44853644Y-4289856D01*
X44924356Y-4289856D01*
X44924356Y-4543856D02*
X44924356Y-4473144D01*
X44853644Y-4473144D01*
X44853644Y-4543856D01*
X44924356Y-4543856D01*
X44924356Y-4797856D02*
X44924356Y-4727144D01*
X44853644Y-4727144D01*
X44853644Y-4797856D01*
X44924356Y-4797856D01*
X44924356Y-5051856D02*
X44924356Y-4981144D01*
X44853644Y-4981144D01*
X44853644Y-5051856D01*
X44924356Y-5051856D01*
X44924356Y-5305856D02*
X44924356Y-5235144D01*
X44853644Y-5235144D01*
X44853644Y-5305856D01*
X44924356Y-5305856D01*
X44924356Y-5559856D02*
X44924356Y-5489144D01*
X44853644Y-5489144D01*
X44853644Y-5559856D01*
X44924356Y-5559856D01*
X44924356Y-5813856D02*
X44924356Y-5743144D01*
X44853644Y-5743144D01*
X44853644Y-5813856D01*
X44924356Y-5813856D01*
X44924356Y-6067856D02*
X44924356Y-5997144D01*
X44853644Y-5997144D01*
X44853644Y-6067856D01*
X44924356Y-6067856D01*
X44924356Y-6321856D02*
X44924356Y-6251144D01*
X44853644Y-6251144D01*
X44853644Y-6321856D01*
X44924356Y-6321856D01*
X44924356Y-6575856D02*
X44924356Y-6505144D01*
X44853644Y-6505144D01*
X44853644Y-6575856D01*
X44924356Y-6575856D01*
X44924356Y-6829856D02*
X44924356Y-6759144D01*
X44853644Y-6759144D01*
X44853644Y-6829856D01*
X44924356Y-6829856D01*
X44924356Y-7083856D02*
X44924356Y-7013144D01*
X44853644Y-7013144D01*
X44853644Y-7083856D01*
X44924356Y-7083856D01*
X44924356Y-7337856D02*
X44924356Y-7267144D01*
X44853644Y-7267144D01*
X44853644Y-7337856D01*
X44924356Y-7337856D01*
X44924356Y-7591856D02*
X44924356Y-7521144D01*
X44853644Y-7521144D01*
X44853644Y-7591856D01*
X44924356Y-7591856D01*
X44924356Y-7845856D02*
X44924356Y-7775144D01*
X44853644Y-7775144D01*
X44853644Y-7845856D01*
X44924356Y-7845856D01*
X44924356Y-8099856D02*
X44924356Y-8029144D01*
X44853644Y-8029144D01*
X44853644Y-8099856D01*
X44924356Y-8099856D01*
X44924356Y-8353856D02*
X44924356Y-8283144D01*
X44853644Y-8283144D01*
X44853644Y-8353856D01*
X44924356Y-8353856D01*
X44924356Y-8607856D02*
X44924356Y-8537144D01*
X44853644Y-8537144D01*
X44853644Y-8607856D01*
X44924356Y-8607856D01*
X45005356Y-1295356D02*
X45005356Y-1224644D01*
X44934644Y-1224644D01*
X44934644Y-1295356D01*
X45005356Y-1295356D01*
X45005356Y-1549356D02*
X45005356Y-1478644D01*
X44934644Y-1478644D01*
X44934644Y-1549356D01*
X45005356Y-1549356D01*
X45005356Y-1803356D02*
X45005356Y-1732644D01*
X44934644Y-1732644D01*
X44934644Y-1803356D01*
X45005356Y-1803356D01*
X45005356Y-2057356D02*
X45005356Y-1986644D01*
X44934644Y-1986644D01*
X44934644Y-2057356D01*
X45005356Y-2057356D01*
X45005356Y-2311356D02*
X45005356Y-2240644D01*
X44934644Y-2240644D01*
X44934644Y-2311356D01*
X45005356Y-2311356D01*
X45005356Y-2565356D02*
X45005356Y-2494644D01*
X44934644Y-2494644D01*
X44934644Y-2565356D01*
X45005356Y-2565356D01*
X45005356Y-2819356D02*
X45005356Y-2748644D01*
X44934644Y-2748644D01*
X44934644Y-2819356D01*
X45005356Y-2819356D01*
X45005356Y-3073356D02*
X45005356Y-3002644D01*
X44934644Y-3002644D01*
X44934644Y-3073356D01*
X45005356Y-3073356D01*
X45178356Y-4289856D02*
X45178356Y-4219144D01*
X45107644Y-4219144D01*
X45107644Y-4289856D01*
X45178356Y-4289856D01*
X45178356Y-4543856D02*
X45178356Y-4473144D01*
X45107644Y-4473144D01*
X45107644Y-4543856D01*
X45178356Y-4543856D01*
X45178356Y-4797856D02*
X45178356Y-4727144D01*
X45107644Y-4727144D01*
X45107644Y-4797856D01*
X45178356Y-4797856D01*
X45178356Y-5051856D02*
X45178356Y-4981144D01*
X45107644Y-4981144D01*
X45107644Y-5051856D01*
X45178356Y-5051856D01*
X45178356Y-5305856D02*
X45178356Y-5235144D01*
X45107644Y-5235144D01*
X45107644Y-5305856D01*
X45178356Y-5305856D01*
X45178356Y-5559856D02*
X45178356Y-5489144D01*
X45107644Y-5489144D01*
X45107644Y-5559856D01*
X45178356Y-5559856D01*
X45178356Y-5813856D02*
X45178356Y-5743144D01*
X45107644Y-5743144D01*
X45107644Y-5813856D01*
X45178356Y-5813856D01*
X45178356Y-6067856D02*
X45178356Y-5997144D01*
X45107644Y-5997144D01*
X45107644Y-6067856D01*
X45178356Y-6067856D01*
X45178356Y-6321856D02*
X45178356Y-6251144D01*
X45107644Y-6251144D01*
X45107644Y-6321856D01*
X45178356Y-6321856D01*
X45178356Y-6575856D02*
X45178356Y-6505144D01*
X45107644Y-6505144D01*
X45107644Y-6575856D01*
X45178356Y-6575856D01*
X45178356Y-6829856D02*
X45178356Y-6759144D01*
X45107644Y-6759144D01*
X45107644Y-6829856D01*
X45178356Y-6829856D01*
X45178356Y-7083856D02*
X45178356Y-7013144D01*
X45107644Y-7013144D01*
X45107644Y-7083856D01*
X45178356Y-7083856D01*
X45178356Y-7337856D02*
X45178356Y-7267144D01*
X45107644Y-7267144D01*
X45107644Y-7337856D01*
X45178356Y-7337856D01*
X45178356Y-7591856D02*
X45178356Y-7521144D01*
X45107644Y-7521144D01*
X45107644Y-7591856D01*
X45178356Y-7591856D01*
X45178356Y-7845856D02*
X45178356Y-7775144D01*
X45107644Y-7775144D01*
X45107644Y-7845856D01*
X45178356Y-7845856D01*
X45178356Y-8099856D02*
X45178356Y-8029144D01*
X45107644Y-8029144D01*
X45107644Y-8099856D01*
X45178356Y-8099856D01*
X45178356Y-8353856D02*
X45178356Y-8283144D01*
X45107644Y-8283144D01*
X45107644Y-8353856D01*
X45178356Y-8353856D01*
X45178356Y-8607856D02*
X45178356Y-8537144D01*
X45107644Y-8537144D01*
X45107644Y-8607856D01*
X45178356Y-8607856D01*
X45259356Y-1295356D02*
X45259356Y-1224644D01*
X45188644Y-1224644D01*
X45188644Y-1295356D01*
X45259356Y-1295356D01*
X45259356Y-1549356D02*
X45259356Y-1478644D01*
X45188644Y-1478644D01*
X45188644Y-1549356D01*
X45259356Y-1549356D01*
X45259356Y-1803356D02*
X45259356Y-1732644D01*
X45188644Y-1732644D01*
X45188644Y-1803356D01*
X45259356Y-1803356D01*
X45259356Y-2057356D02*
X45259356Y-1986644D01*
X45188644Y-1986644D01*
X45188644Y-2057356D01*
X45259356Y-2057356D01*
X45259356Y-2311356D02*
X45259356Y-2240644D01*
X45188644Y-2240644D01*
X45188644Y-2311356D01*
X45259356Y-2311356D01*
X45259356Y-2565356D02*
X45259356Y-2494644D01*
X45188644Y-2494644D01*
X45188644Y-2565356D01*
X45259356Y-2565356D01*
X45259356Y-2819356D02*
X45259356Y-2748644D01*
X45188644Y-2748644D01*
X45188644Y-2819356D01*
X45259356Y-2819356D01*
X45259356Y-3073356D02*
X45259356Y-3002644D01*
X45188644Y-3002644D01*
X45188644Y-3073356D01*
X45259356Y-3073356D01*
X45432356Y-4281856D02*
X45432356Y-4211144D01*
X45361644Y-4211144D01*
X45361644Y-4281856D01*
X45432356Y-4281856D01*
X45432356Y-4535856D02*
X45432356Y-4465144D01*
X45361644Y-4465144D01*
X45361644Y-4535856D01*
X45432356Y-4535856D01*
X45432356Y-4789856D02*
X45432356Y-4719144D01*
X45361644Y-4719144D01*
X45361644Y-4789856D01*
X45432356Y-4789856D01*
X45432356Y-5043856D02*
X45432356Y-4973144D01*
X45361644Y-4973144D01*
X45361644Y-5043856D01*
X45432356Y-5043856D01*
X45432356Y-5297856D02*
X45432356Y-5227144D01*
X45361644Y-5227144D01*
X45361644Y-5297856D01*
X45432356Y-5297856D01*
X45432356Y-5551856D02*
X45432356Y-5481144D01*
X45361644Y-5481144D01*
X45361644Y-5551856D01*
X45432356Y-5551856D01*
X45432356Y-5805856D02*
X45432356Y-5735144D01*
X45361644Y-5735144D01*
X45361644Y-5805856D01*
X45432356Y-5805856D01*
X45432356Y-6059856D02*
X45432356Y-5989144D01*
X45361644Y-5989144D01*
X45361644Y-6059856D01*
X45432356Y-6059856D01*
X45432356Y-6313856D02*
X45432356Y-6243144D01*
X45361644Y-6243144D01*
X45361644Y-6313856D01*
X45432356Y-6313856D01*
X45432356Y-6567856D02*
X45432356Y-6497144D01*
X45361644Y-6497144D01*
X45361644Y-6567856D01*
X45432356Y-6567856D01*
X45432356Y-6821856D02*
X45432356Y-6751144D01*
X45361644Y-6751144D01*
X45361644Y-6821856D01*
X45432356Y-6821856D01*
X45432356Y-7075856D02*
X45432356Y-7005144D01*
X45361644Y-7005144D01*
X45361644Y-7075856D01*
X45432356Y-7075856D01*
X45432356Y-7329856D02*
X45432356Y-7259144D01*
X45361644Y-7259144D01*
X45361644Y-7329856D01*
X45432356Y-7329856D01*
X45432356Y-7583856D02*
X45432356Y-7513144D01*
X45361644Y-7513144D01*
X45361644Y-7583856D01*
X45432356Y-7583856D01*
X45432356Y-7837856D02*
X45432356Y-7767144D01*
X45361644Y-7767144D01*
X45361644Y-7837856D01*
X45432356Y-7837856D01*
X45432356Y-8091856D02*
X45432356Y-8021144D01*
X45361644Y-8021144D01*
X45361644Y-8091856D01*
X45432356Y-8091856D01*
X45432356Y-8345856D02*
X45432356Y-8275144D01*
X45361644Y-8275144D01*
X45361644Y-8345856D01*
X45432356Y-8345856D01*
X45432356Y-8599856D02*
X45432356Y-8529144D01*
X45361644Y-8529144D01*
X45361644Y-8599856D01*
X45432356Y-8599856D01*
X45513356Y-1295356D02*
X45513356Y-1224644D01*
X45442644Y-1224644D01*
X45442644Y-1295356D01*
X45513356Y-1295356D01*
X45513356Y-1549356D02*
X45513356Y-1478644D01*
X45442644Y-1478644D01*
X45442644Y-1549356D01*
X45513356Y-1549356D01*
X45513356Y-1803356D02*
X45513356Y-1732644D01*
X45442644Y-1732644D01*
X45442644Y-1803356D01*
X45513356Y-1803356D01*
X45513356Y-2057356D02*
X45513356Y-1986644D01*
X45442644Y-1986644D01*
X45442644Y-2057356D01*
X45513356Y-2057356D01*
X45513356Y-2311356D02*
X45513356Y-2240644D01*
X45442644Y-2240644D01*
X45442644Y-2311356D01*
X45513356Y-2311356D01*
X45513356Y-2565356D02*
X45513356Y-2494644D01*
X45442644Y-2494644D01*
X45442644Y-2565356D01*
X45513356Y-2565356D01*
X45513356Y-2819356D02*
X45513356Y-2748644D01*
X45442644Y-2748644D01*
X45442644Y-2819356D01*
X45513356Y-2819356D01*
X45513356Y-3073356D02*
X45513356Y-3002644D01*
X45442644Y-3002644D01*
X45442644Y-3073356D01*
X45513356Y-3073356D01*
X45686356Y-4281856D02*
X45686356Y-4211144D01*
X45615644Y-4211144D01*
X45615644Y-4281856D01*
X45686356Y-4281856D01*
X45686356Y-4535856D02*
X45686356Y-4465144D01*
X45615644Y-4465144D01*
X45615644Y-4535856D01*
X45686356Y-4535856D01*
X45686356Y-4789856D02*
X45686356Y-4719144D01*
X45615644Y-4719144D01*
X45615644Y-4789856D01*
X45686356Y-4789856D01*
X45686356Y-5043856D02*
X45686356Y-4973144D01*
X45615644Y-4973144D01*
X45615644Y-5043856D01*
X45686356Y-5043856D01*
X45686356Y-5297856D02*
X45686356Y-5227144D01*
X45615644Y-5227144D01*
X45615644Y-5297856D01*
X45686356Y-5297856D01*
X45686356Y-5551856D02*
X45686356Y-5481144D01*
X45615644Y-5481144D01*
X45615644Y-5551856D01*
X45686356Y-5551856D01*
X45686356Y-5805856D02*
X45686356Y-5735144D01*
X45615644Y-5735144D01*
X45615644Y-5805856D01*
X45686356Y-5805856D01*
X45686356Y-6059856D02*
X45686356Y-5989144D01*
X45615644Y-5989144D01*
X45615644Y-6059856D01*
X45686356Y-6059856D01*
X45686356Y-6313856D02*
X45686356Y-6243144D01*
X45615644Y-6243144D01*
X45615644Y-6313856D01*
X45686356Y-6313856D01*
X45686356Y-6567856D02*
X45686356Y-6497144D01*
X45615644Y-6497144D01*
X45615644Y-6567856D01*
X45686356Y-6567856D01*
X45686356Y-6821856D02*
X45686356Y-6751144D01*
X45615644Y-6751144D01*
X45615644Y-6821856D01*
X45686356Y-6821856D01*
X45686356Y-7075856D02*
X45686356Y-7005144D01*
X45615644Y-7005144D01*
X45615644Y-7075856D01*
X45686356Y-7075856D01*
X45686356Y-7329856D02*
X45686356Y-7259144D01*
X45615644Y-7259144D01*
X45615644Y-7329856D01*
X45686356Y-7329856D01*
X45686356Y-7583856D02*
X45686356Y-7513144D01*
X45615644Y-7513144D01*
X45615644Y-7583856D01*
X45686356Y-7583856D01*
X45686356Y-7837856D02*
X45686356Y-7767144D01*
X45615644Y-7767144D01*
X45615644Y-7837856D01*
X45686356Y-7837856D01*
X45686356Y-8091856D02*
X45686356Y-8021144D01*
X45615644Y-8021144D01*
X45615644Y-8091856D01*
X45686356Y-8091856D01*
X45686356Y-8345856D02*
X45686356Y-8275144D01*
X45615644Y-8275144D01*
X45615644Y-8345856D01*
X45686356Y-8345856D01*
X45686356Y-8599856D02*
X45686356Y-8529144D01*
X45615644Y-8529144D01*
X45615644Y-8599856D01*
X45686356Y-8599856D01*
X45767356Y-1295356D02*
X45767356Y-1224644D01*
X45696644Y-1224644D01*
X45696644Y-1295356D01*
X45767356Y-1295356D01*
X45767356Y-1549356D02*
X45767356Y-1478644D01*
X45696644Y-1478644D01*
X45696644Y-1549356D01*
X45767356Y-1549356D01*
X45767356Y-1803356D02*
X45767356Y-1732644D01*
X45696644Y-1732644D01*
X45696644Y-1803356D01*
X45767356Y-1803356D01*
X45767356Y-2057356D02*
X45767356Y-1986644D01*
X45696644Y-1986644D01*
X45696644Y-2057356D01*
X45767356Y-2057356D01*
X45767356Y-2311356D02*
X45767356Y-2240644D01*
X45696644Y-2240644D01*
X45696644Y-2311356D01*
X45767356Y-2311356D01*
X45767356Y-2565356D02*
X45767356Y-2494644D01*
X45696644Y-2494644D01*
X45696644Y-2565356D01*
X45767356Y-2565356D01*
X45767356Y-2819356D02*
X45767356Y-2748644D01*
X45696644Y-2748644D01*
X45696644Y-2819356D01*
X45767356Y-2819356D01*
X45767356Y-3073356D02*
X45767356Y-3002644D01*
X45696644Y-3002644D01*
X45696644Y-3073356D01*
X45767356Y-3073356D01*
X45940356Y-4281856D02*
X45940356Y-4211144D01*
X45869644Y-4211144D01*
X45869644Y-4281856D01*
X45940356Y-4281856D01*
X45940356Y-4535856D02*
X45940356Y-4465144D01*
X45869644Y-4465144D01*
X45869644Y-4535856D01*
X45940356Y-4535856D01*
X45940356Y-4789856D02*
X45940356Y-4719144D01*
X45869644Y-4719144D01*
X45869644Y-4789856D01*
X45940356Y-4789856D01*
X45940356Y-5043856D02*
X45940356Y-4973144D01*
X45869644Y-4973144D01*
X45869644Y-5043856D01*
X45940356Y-5043856D01*
X45940356Y-5297856D02*
X45940356Y-5227144D01*
X45869644Y-5227144D01*
X45869644Y-5297856D01*
X45940356Y-5297856D01*
X45940356Y-5551856D02*
X45940356Y-5481144D01*
X45869644Y-5481144D01*
X45869644Y-5551856D01*
X45940356Y-5551856D01*
X45940356Y-5805856D02*
X45940356Y-5735144D01*
X45869644Y-5735144D01*
X45869644Y-5805856D01*
X45940356Y-5805856D01*
X45940356Y-6059856D02*
X45940356Y-5989144D01*
X45869644Y-5989144D01*
X45869644Y-6059856D01*
X45940356Y-6059856D01*
X45940356Y-6313856D02*
X45940356Y-6243144D01*
X45869644Y-6243144D01*
X45869644Y-6313856D01*
X45940356Y-6313856D01*
X45940356Y-6567856D02*
X45940356Y-6497144D01*
X45869644Y-6497144D01*
X45869644Y-6567856D01*
X45940356Y-6567856D01*
X45940356Y-6821856D02*
X45940356Y-6751144D01*
X45869644Y-6751144D01*
X45869644Y-6821856D01*
X45940356Y-6821856D01*
X45940356Y-7075856D02*
X45940356Y-7005144D01*
X45869644Y-7005144D01*
X45869644Y-7075856D01*
X45940356Y-7075856D01*
X45940356Y-7329856D02*
X45940356Y-7259144D01*
X45869644Y-7259144D01*
X45869644Y-7329856D01*
X45940356Y-7329856D01*
X45940356Y-7583856D02*
X45940356Y-7513144D01*
X45869644Y-7513144D01*
X45869644Y-7583856D01*
X45940356Y-7583856D01*
X45940356Y-7837856D02*
X45940356Y-7767144D01*
X45869644Y-7767144D01*
X45869644Y-7837856D01*
X45940356Y-7837856D01*
X45940356Y-8091856D02*
X45940356Y-8021144D01*
X45869644Y-8021144D01*
X45869644Y-8091856D01*
X45940356Y-8091856D01*
X45940356Y-8345856D02*
X45940356Y-8275144D01*
X45869644Y-8275144D01*
X45869644Y-8345856D01*
X45940356Y-8345856D01*
X45940356Y-8599856D02*
X45940356Y-8529144D01*
X45869644Y-8529144D01*
X45869644Y-8599856D01*
X45940356Y-8599856D01*
X46021356Y-1295356D02*
X46021356Y-1224644D01*
X45950644Y-1224644D01*
X45950644Y-1295356D01*
X46021356Y-1295356D01*
X46021356Y-1549356D02*
X46021356Y-1478644D01*
X45950644Y-1478644D01*
X45950644Y-1549356D01*
X46021356Y-1549356D01*
X46021356Y-1803356D02*
X46021356Y-1732644D01*
X45950644Y-1732644D01*
X45950644Y-1803356D01*
X46021356Y-1803356D01*
X46021356Y-2057356D02*
X46021356Y-1986644D01*
X45950644Y-1986644D01*
X45950644Y-2057356D01*
X46021356Y-2057356D01*
X46021356Y-2311356D02*
X46021356Y-2240644D01*
X45950644Y-2240644D01*
X45950644Y-2311356D01*
X46021356Y-2311356D01*
X46021356Y-2565356D02*
X46021356Y-2494644D01*
X45950644Y-2494644D01*
X45950644Y-2565356D01*
X46021356Y-2565356D01*
X46021356Y-2819356D02*
X46021356Y-2748644D01*
X45950644Y-2748644D01*
X45950644Y-2819356D01*
X46021356Y-2819356D01*
X46021356Y-3073356D02*
X46021356Y-3002644D01*
X45950644Y-3002644D01*
X45950644Y-3073356D01*
X46021356Y-3073356D01*
X46194356Y-4281856D02*
X46194356Y-4211144D01*
X46123644Y-4211144D01*
X46123644Y-4281856D01*
X46194356Y-4281856D01*
X46194356Y-4535856D02*
X46194356Y-4465144D01*
X46123644Y-4465144D01*
X46123644Y-4535856D01*
X46194356Y-4535856D01*
X46194356Y-4789856D02*
X46194356Y-4719144D01*
X46123644Y-4719144D01*
X46123644Y-4789856D01*
X46194356Y-4789856D01*
X46194356Y-5043856D02*
X46194356Y-4973144D01*
X46123644Y-4973144D01*
X46123644Y-5043856D01*
X46194356Y-5043856D01*
X46194356Y-5297856D02*
X46194356Y-5227144D01*
X46123644Y-5227144D01*
X46123644Y-5297856D01*
X46194356Y-5297856D01*
X46194356Y-5551856D02*
X46194356Y-5481144D01*
X46123644Y-5481144D01*
X46123644Y-5551856D01*
X46194356Y-5551856D01*
X46194356Y-5805856D02*
X46194356Y-5735144D01*
X46123644Y-5735144D01*
X46123644Y-5805856D01*
X46194356Y-5805856D01*
X46194356Y-6059856D02*
X46194356Y-5989144D01*
X46123644Y-5989144D01*
X46123644Y-6059856D01*
X46194356Y-6059856D01*
X46194356Y-6313856D02*
X46194356Y-6243144D01*
X46123644Y-6243144D01*
X46123644Y-6313856D01*
X46194356Y-6313856D01*
X46194356Y-6567856D02*
X46194356Y-6497144D01*
X46123644Y-6497144D01*
X46123644Y-6567856D01*
X46194356Y-6567856D01*
X46194356Y-6821856D02*
X46194356Y-6751144D01*
X46123644Y-6751144D01*
X46123644Y-6821856D01*
X46194356Y-6821856D01*
X46194356Y-7075856D02*
X46194356Y-7005144D01*
X46123644Y-7005144D01*
X46123644Y-7075856D01*
X46194356Y-7075856D01*
X46194356Y-7329856D02*
X46194356Y-7259144D01*
X46123644Y-7259144D01*
X46123644Y-7329856D01*
X46194356Y-7329856D01*
X46194356Y-7583856D02*
X46194356Y-7513144D01*
X46123644Y-7513144D01*
X46123644Y-7583856D01*
X46194356Y-7583856D01*
X46194356Y-7837856D02*
X46194356Y-7767144D01*
X46123644Y-7767144D01*
X46123644Y-7837856D01*
X46194356Y-7837856D01*
X46194356Y-8091856D02*
X46194356Y-8021144D01*
X46123644Y-8021144D01*
X46123644Y-8091856D01*
X46194356Y-8091856D01*
X46194356Y-8345856D02*
X46194356Y-8275144D01*
X46123644Y-8275144D01*
X46123644Y-8345856D01*
X46194356Y-8345856D01*
X46194356Y-8599856D02*
X46194356Y-8529144D01*
X46123644Y-8529144D01*
X46123644Y-8599856D01*
X46194356Y-8599856D01*
X46275356Y-1295356D02*
X46275356Y-1224644D01*
X46204644Y-1224644D01*
X46204644Y-1295356D01*
X46275356Y-1295356D01*
X46275356Y-1549356D02*
X46275356Y-1478644D01*
X46204644Y-1478644D01*
X46204644Y-1549356D01*
X46275356Y-1549356D01*
X46275356Y-1803356D02*
X46275356Y-1732644D01*
X46204644Y-1732644D01*
X46204644Y-1803356D01*
X46275356Y-1803356D01*
X46275356Y-2057356D02*
X46275356Y-1986644D01*
X46204644Y-1986644D01*
X46204644Y-2057356D01*
X46275356Y-2057356D01*
X46275356Y-2311356D02*
X46275356Y-2240644D01*
X46204644Y-2240644D01*
X46204644Y-2311356D01*
X46275356Y-2311356D01*
X46275356Y-2565356D02*
X46275356Y-2494644D01*
X46204644Y-2494644D01*
X46204644Y-2565356D01*
X46275356Y-2565356D01*
X46275356Y-2819356D02*
X46275356Y-2748644D01*
X46204644Y-2748644D01*
X46204644Y-2819356D01*
X46275356Y-2819356D01*
X46275356Y-3073356D02*
X46275356Y-3002644D01*
X46204644Y-3002644D01*
X46204644Y-3073356D01*
X46275356Y-3073356D01*
X46448356Y-4281856D02*
X46448356Y-4211144D01*
X46377644Y-4211144D01*
X46377644Y-4281856D01*
X46448356Y-4281856D01*
X46448356Y-4535856D02*
X46448356Y-4465144D01*
X46377644Y-4465144D01*
X46377644Y-4535856D01*
X46448356Y-4535856D01*
X46448356Y-4789856D02*
X46448356Y-4719144D01*
X46377644Y-4719144D01*
X46377644Y-4789856D01*
X46448356Y-4789856D01*
X46448356Y-5043856D02*
X46448356Y-4973144D01*
X46377644Y-4973144D01*
X46377644Y-5043856D01*
X46448356Y-5043856D01*
X46448356Y-5297856D02*
X46448356Y-5227144D01*
X46377644Y-5227144D01*
X46377644Y-5297856D01*
X46448356Y-5297856D01*
X46448356Y-5551856D02*
X46448356Y-5481144D01*
X46377644Y-5481144D01*
X46377644Y-5551856D01*
X46448356Y-5551856D01*
X46448356Y-5805856D02*
X46448356Y-5735144D01*
X46377644Y-5735144D01*
X46377644Y-5805856D01*
X46448356Y-5805856D01*
X46448356Y-6059856D02*
X46448356Y-5989144D01*
X46377644Y-5989144D01*
X46377644Y-6059856D01*
X46448356Y-6059856D01*
X46448356Y-6313856D02*
X46448356Y-6243144D01*
X46377644Y-6243144D01*
X46377644Y-6313856D01*
X46448356Y-6313856D01*
X46448356Y-6567856D02*
X46448356Y-6497144D01*
X46377644Y-6497144D01*
X46377644Y-6567856D01*
X46448356Y-6567856D01*
X46448356Y-6821856D02*
X46448356Y-6751144D01*
X46377644Y-6751144D01*
X46377644Y-6821856D01*
X46448356Y-6821856D01*
X46448356Y-7075856D02*
X46448356Y-7005144D01*
X46377644Y-7005144D01*
X46377644Y-7075856D01*
X46448356Y-7075856D01*
X46448356Y-7329856D02*
X46448356Y-7259144D01*
X46377644Y-7259144D01*
X46377644Y-7329856D01*
X46448356Y-7329856D01*
X46448356Y-7583856D02*
X46448356Y-7513144D01*
X46377644Y-7513144D01*
X46377644Y-7583856D01*
X46448356Y-7583856D01*
X46448356Y-7837856D02*
X46448356Y-7767144D01*
X46377644Y-7767144D01*
X46377644Y-7837856D01*
X46448356Y-7837856D01*
X46448356Y-8091856D02*
X46448356Y-8021144D01*
X46377644Y-8021144D01*
X46377644Y-8091856D01*
X46448356Y-8091856D01*
X46448356Y-8345856D02*
X46448356Y-8275144D01*
X46377644Y-8275144D01*
X46377644Y-8345856D01*
X46448356Y-8345856D01*
X46448356Y-8599856D02*
X46448356Y-8529144D01*
X46377644Y-8529144D01*
X46377644Y-8599856D01*
X46448356Y-8599856D01*
X46529356Y-1295356D02*
X46529356Y-1224644D01*
X46458644Y-1224644D01*
X46458644Y-1295356D01*
X46529356Y-1295356D01*
X46529356Y-1549356D02*
X46529356Y-1478644D01*
X46458644Y-1478644D01*
X46458644Y-1549356D01*
X46529356Y-1549356D01*
X46529356Y-1803356D02*
X46529356Y-1732644D01*
X46458644Y-1732644D01*
X46458644Y-1803356D01*
X46529356Y-1803356D01*
X46529356Y-2057356D02*
X46529356Y-1986644D01*
X46458644Y-1986644D01*
X46458644Y-2057356D01*
X46529356Y-2057356D01*
X46529356Y-2311356D02*
X46529356Y-2240644D01*
X46458644Y-2240644D01*
X46458644Y-2311356D01*
X46529356Y-2311356D01*
X46529356Y-2565356D02*
X46529356Y-2494644D01*
X46458644Y-2494644D01*
X46458644Y-2565356D01*
X46529356Y-2565356D01*
X46529356Y-2819356D02*
X46529356Y-2748644D01*
X46458644Y-2748644D01*
X46458644Y-2819356D01*
X46529356Y-2819356D01*
X46529356Y-3073356D02*
X46529356Y-3002644D01*
X46458644Y-3002644D01*
X46458644Y-3073356D01*
X46529356Y-3073356D01*
X46702356Y-4281856D02*
X46702356Y-4211144D01*
X46631644Y-4211144D01*
X46631644Y-4281856D01*
X46702356Y-4281856D01*
X46702356Y-4535856D02*
X46702356Y-4465144D01*
X46631644Y-4465144D01*
X46631644Y-4535856D01*
X46702356Y-4535856D01*
X46702356Y-4789856D02*
X46702356Y-4719144D01*
X46631644Y-4719144D01*
X46631644Y-4789856D01*
X46702356Y-4789856D01*
X46702356Y-5043856D02*
X46702356Y-4973144D01*
X46631644Y-4973144D01*
X46631644Y-5043856D01*
X46702356Y-5043856D01*
X46702356Y-5297856D02*
X46702356Y-5227144D01*
X46631644Y-5227144D01*
X46631644Y-5297856D01*
X46702356Y-5297856D01*
X46702356Y-5551856D02*
X46702356Y-5481144D01*
X46631644Y-5481144D01*
X46631644Y-5551856D01*
X46702356Y-5551856D01*
X46702356Y-5805856D02*
X46702356Y-5735144D01*
X46631644Y-5735144D01*
X46631644Y-5805856D01*
X46702356Y-5805856D01*
X46702356Y-6059856D02*
X46702356Y-5989144D01*
X46631644Y-5989144D01*
X46631644Y-6059856D01*
X46702356Y-6059856D01*
X46702356Y-6313856D02*
X46702356Y-6243144D01*
X46631644Y-6243144D01*
X46631644Y-6313856D01*
X46702356Y-6313856D01*
X46702356Y-6567856D02*
X46702356Y-6497144D01*
X46631644Y-6497144D01*
X46631644Y-6567856D01*
X46702356Y-6567856D01*
X46702356Y-6821856D02*
X46702356Y-6751144D01*
X46631644Y-6751144D01*
X46631644Y-6821856D01*
X46702356Y-6821856D01*
X46702356Y-7075856D02*
X46702356Y-7005144D01*
X46631644Y-7005144D01*
X46631644Y-7075856D01*
X46702356Y-7075856D01*
X46702356Y-7329856D02*
X46702356Y-7259144D01*
X46631644Y-7259144D01*
X46631644Y-7329856D01*
X46702356Y-7329856D01*
X46702356Y-7583856D02*
X46702356Y-7513144D01*
X46631644Y-7513144D01*
X46631644Y-7583856D01*
X46702356Y-7583856D01*
X46702356Y-7837856D02*
X46702356Y-7767144D01*
X46631644Y-7767144D01*
X46631644Y-7837856D01*
X46702356Y-7837856D01*
X46702356Y-8091856D02*
X46702356Y-8021144D01*
X46631644Y-8021144D01*
X46631644Y-8091856D01*
X46702356Y-8091856D01*
X46702356Y-8345856D02*
X46702356Y-8275144D01*
X46631644Y-8275144D01*
X46631644Y-8345856D01*
X46702356Y-8345856D01*
X46702356Y-8599856D02*
X46702356Y-8529144D01*
X46631644Y-8529144D01*
X46631644Y-8599856D01*
X46702356Y-8599856D01*
X46956356Y-4281856D02*
X46956356Y-4211144D01*
X46885644Y-4211144D01*
X46885644Y-4281856D01*
X46956356Y-4281856D01*
X46956356Y-4535856D02*
X46956356Y-4465144D01*
X46885644Y-4465144D01*
X46885644Y-4535856D01*
X46956356Y-4535856D01*
X46956356Y-4789856D02*
X46956356Y-4719144D01*
X46885644Y-4719144D01*
X46885644Y-4789856D01*
X46956356Y-4789856D01*
X46956356Y-5043856D02*
X46956356Y-4973144D01*
X46885644Y-4973144D01*
X46885644Y-5043856D01*
X46956356Y-5043856D01*
X46956356Y-5297856D02*
X46956356Y-5227144D01*
X46885644Y-5227144D01*
X46885644Y-5297856D01*
X46956356Y-5297856D01*
X46956356Y-5551856D02*
X46956356Y-5481144D01*
X46885644Y-5481144D01*
X46885644Y-5551856D01*
X46956356Y-5551856D01*
X46956356Y-5805856D02*
X46956356Y-5735144D01*
X46885644Y-5735144D01*
X46885644Y-5805856D01*
X46956356Y-5805856D01*
X46956356Y-6059856D02*
X46956356Y-5989144D01*
X46885644Y-5989144D01*
X46885644Y-6059856D01*
X46956356Y-6059856D01*
X46956356Y-6313856D02*
X46956356Y-6243144D01*
X46885644Y-6243144D01*
X46885644Y-6313856D01*
X46956356Y-6313856D01*
X46956356Y-6567856D02*
X46956356Y-6497144D01*
X46885644Y-6497144D01*
X46885644Y-6567856D01*
X46956356Y-6567856D01*
X46956356Y-6821856D02*
X46956356Y-6751144D01*
X46885644Y-6751144D01*
X46885644Y-6821856D01*
X46956356Y-6821856D01*
X46956356Y-7075856D02*
X46956356Y-7005144D01*
X46885644Y-7005144D01*
X46885644Y-7075856D01*
X46956356Y-7075856D01*
X46956356Y-7329856D02*
X46956356Y-7259144D01*
X46885644Y-7259144D01*
X46885644Y-7329856D01*
X46956356Y-7329856D01*
X46956356Y-7583856D02*
X46956356Y-7513144D01*
X46885644Y-7513144D01*
X46885644Y-7583856D01*
X46956356Y-7583856D01*
X46956356Y-7837856D02*
X46956356Y-7767144D01*
X46885644Y-7767144D01*
X46885644Y-7837856D01*
X46956356Y-7837856D01*
X46956356Y-8091856D02*
X46956356Y-8021144D01*
X46885644Y-8021144D01*
X46885644Y-8091856D01*
X46956356Y-8091856D01*
X46956356Y-8345856D02*
X46956356Y-8275144D01*
X46885644Y-8275144D01*
X46885644Y-8345856D01*
X46956356Y-8345856D01*
X46956356Y-8599856D02*
X46956356Y-8529144D01*
X46885644Y-8529144D01*
X46885644Y-8599856D01*
X46956356Y-8599856D01*
X47210356Y-4281856D02*
X47210356Y-4211144D01*
X47139644Y-4211144D01*
X47139644Y-4281856D01*
X47210356Y-4281856D01*
X47210356Y-4535856D02*
X47210356Y-4465144D01*
X47139644Y-4465144D01*
X47139644Y-4535856D01*
X47210356Y-4535856D01*
X47210356Y-4789856D02*
X47210356Y-4719144D01*
X47139644Y-4719144D01*
X47139644Y-4789856D01*
X47210356Y-4789856D01*
X47210356Y-5043856D02*
X47210356Y-4973144D01*
X47139644Y-4973144D01*
X47139644Y-5043856D01*
X47210356Y-5043856D01*
X47210356Y-5297856D02*
X47210356Y-5227144D01*
X47139644Y-5227144D01*
X47139644Y-5297856D01*
X47210356Y-5297856D01*
X47210356Y-5551856D02*
X47210356Y-5481144D01*
X47139644Y-5481144D01*
X47139644Y-5551856D01*
X47210356Y-5551856D01*
X47210356Y-5805856D02*
X47210356Y-5735144D01*
X47139644Y-5735144D01*
X47139644Y-5805856D01*
X47210356Y-5805856D01*
X47210356Y-6059856D02*
X47210356Y-5989144D01*
X47139644Y-5989144D01*
X47139644Y-6059856D01*
X47210356Y-6059856D01*
X47210356Y-6313856D02*
X47210356Y-6243144D01*
X47139644Y-6243144D01*
X47139644Y-6313856D01*
X47210356Y-6313856D01*
X47210356Y-6567856D02*
X47210356Y-6497144D01*
X47139644Y-6497144D01*
X47139644Y-6567856D01*
X47210356Y-6567856D01*
X47210356Y-6821856D02*
X47210356Y-6751144D01*
X47139644Y-6751144D01*
X47139644Y-6821856D01*
X47210356Y-6821856D01*
X47210356Y-7075856D02*
X47210356Y-7005144D01*
X47139644Y-7005144D01*
X47139644Y-7075856D01*
X47210356Y-7075856D01*
X47210356Y-7329856D02*
X47210356Y-7259144D01*
X47139644Y-7259144D01*
X47139644Y-7329856D01*
X47210356Y-7329856D01*
X47210356Y-7583856D02*
X47210356Y-7513144D01*
X47139644Y-7513144D01*
X47139644Y-7583856D01*
X47210356Y-7583856D01*
X47210356Y-7837856D02*
X47210356Y-7767144D01*
X47139644Y-7767144D01*
X47139644Y-7837856D01*
X47210356Y-7837856D01*
X47210356Y-8091856D02*
X47210356Y-8021144D01*
X47139644Y-8021144D01*
X47139644Y-8091856D01*
X47210356Y-8091856D01*
X47210356Y-8345856D02*
X47210356Y-8275144D01*
X47139644Y-8275144D01*
X47139644Y-8345856D01*
X47210356Y-8345856D01*
X47210356Y-8599856D02*
X47210356Y-8529144D01*
X47139644Y-8529144D01*
X47139644Y-8599856D01*
X47210356Y-8599856D01*
X47464356Y-4289856D02*
X47464356Y-4219144D01*
X47393644Y-4219144D01*
X47393644Y-4289856D01*
X47464356Y-4289856D01*
X47464356Y-4543856D02*
X47464356Y-4473144D01*
X47393644Y-4473144D01*
X47393644Y-4543856D01*
X47464356Y-4543856D01*
X47464356Y-4797856D02*
X47464356Y-4727144D01*
X47393644Y-4727144D01*
X47393644Y-4797856D01*
X47464356Y-4797856D01*
X47464356Y-5051856D02*
X47464356Y-4981144D01*
X47393644Y-4981144D01*
X47393644Y-5051856D01*
X47464356Y-5051856D01*
X47464356Y-5305856D02*
X47464356Y-5235144D01*
X47393644Y-5235144D01*
X47393644Y-5305856D01*
X47464356Y-5305856D01*
X47464356Y-5559856D02*
X47464356Y-5489144D01*
X47393644Y-5489144D01*
X47393644Y-5559856D01*
X47464356Y-5559856D01*
X47464356Y-5813856D02*
X47464356Y-5743144D01*
X47393644Y-5743144D01*
X47393644Y-5813856D01*
X47464356Y-5813856D01*
X47464356Y-6067856D02*
X47464356Y-5997144D01*
X47393644Y-5997144D01*
X47393644Y-6067856D01*
X47464356Y-6067856D01*
X47464356Y-6321856D02*
X47464356Y-6251144D01*
X47393644Y-6251144D01*
X47393644Y-6321856D01*
X47464356Y-6321856D01*
X47464356Y-6575856D02*
X47464356Y-6505144D01*
X47393644Y-6505144D01*
X47393644Y-6575856D01*
X47464356Y-6575856D01*
X47464356Y-6829856D02*
X47464356Y-6759144D01*
X47393644Y-6759144D01*
X47393644Y-6829856D01*
X47464356Y-6829856D01*
X47464356Y-7083856D02*
X47464356Y-7013144D01*
X47393644Y-7013144D01*
X47393644Y-7083856D01*
X47464356Y-7083856D01*
X47464356Y-7337856D02*
X47464356Y-7267144D01*
X47393644Y-7267144D01*
X47393644Y-7337856D01*
X47464356Y-7337856D01*
X47464356Y-7591856D02*
X47464356Y-7521144D01*
X47393644Y-7521144D01*
X47393644Y-7591856D01*
X47464356Y-7591856D01*
X47464356Y-7845856D02*
X47464356Y-7775144D01*
X47393644Y-7775144D01*
X47393644Y-7845856D01*
X47464356Y-7845856D01*
X47464356Y-8099856D02*
X47464356Y-8029144D01*
X47393644Y-8029144D01*
X47393644Y-8099856D01*
X47464356Y-8099856D01*
X47464356Y-8353856D02*
X47464356Y-8283144D01*
X47393644Y-8283144D01*
X47393644Y-8353856D01*
X47464356Y-8353856D01*
X47464356Y-8607856D02*
X47464356Y-8537144D01*
X47393644Y-8537144D01*
X47393644Y-8607856D01*
X47464356Y-8607856D01*
X47564356Y-1690356D02*
X47564356Y-1619644D01*
X47493644Y-1619644D01*
X47493644Y-1690356D01*
X47564356Y-1690356D01*
X47564356Y-1944356D02*
X47564356Y-1873644D01*
X47493644Y-1873644D01*
X47493644Y-1944356D01*
X47564356Y-1944356D01*
X47564356Y-2198356D02*
X47564356Y-2127644D01*
X47493644Y-2127644D01*
X47493644Y-2198356D01*
X47564356Y-2198356D01*
X47564356Y-2452356D02*
X47564356Y-2381644D01*
X47493644Y-2381644D01*
X47493644Y-2452356D01*
X47564356Y-2452356D01*
X47564356Y-2706356D02*
X47564356Y-2635644D01*
X47493644Y-2635644D01*
X47493644Y-2706356D01*
X47564356Y-2706356D01*
X47564356Y-2960356D02*
X47564356Y-2889644D01*
X47493644Y-2889644D01*
X47493644Y-2960356D01*
X47564356Y-2960356D01*
X47564356Y-3214356D02*
X47564356Y-3143644D01*
X47493644Y-3143644D01*
X47493644Y-3214356D01*
X47564356Y-3214356D01*
X47564356Y-3468356D02*
X47564356Y-3397644D01*
X47493644Y-3397644D01*
X47493644Y-3468356D01*
X47564356Y-3468356D01*
X47718356Y-4289856D02*
X47718356Y-4219144D01*
X47647644Y-4219144D01*
X47647644Y-4289856D01*
X47718356Y-4289856D01*
X47718356Y-4543856D02*
X47718356Y-4473144D01*
X47647644Y-4473144D01*
X47647644Y-4543856D01*
X47718356Y-4543856D01*
X47718356Y-4797856D02*
X47718356Y-4727144D01*
X47647644Y-4727144D01*
X47647644Y-4797856D01*
X47718356Y-4797856D01*
X47718356Y-5051856D02*
X47718356Y-4981144D01*
X47647644Y-4981144D01*
X47647644Y-5051856D01*
X47718356Y-5051856D01*
X47718356Y-5305856D02*
X47718356Y-5235144D01*
X47647644Y-5235144D01*
X47647644Y-5305856D01*
X47718356Y-5305856D01*
X47718356Y-5559856D02*
X47718356Y-5489144D01*
X47647644Y-5489144D01*
X47647644Y-5559856D01*
X47718356Y-5559856D01*
X47718356Y-5813856D02*
X47718356Y-5743144D01*
X47647644Y-5743144D01*
X47647644Y-5813856D01*
X47718356Y-5813856D01*
X47718356Y-6067856D02*
X47718356Y-5997144D01*
X47647644Y-5997144D01*
X47647644Y-6067856D01*
X47718356Y-6067856D01*
X47718356Y-6321856D02*
X47718356Y-6251144D01*
X47647644Y-6251144D01*
X47647644Y-6321856D01*
X47718356Y-6321856D01*
X47718356Y-6575856D02*
X47718356Y-6505144D01*
X47647644Y-6505144D01*
X47647644Y-6575856D01*
X47718356Y-6575856D01*
X47718356Y-6829856D02*
X47718356Y-6759144D01*
X47647644Y-6759144D01*
X47647644Y-6829856D01*
X47718356Y-6829856D01*
X47718356Y-7083856D02*
X47718356Y-7013144D01*
X47647644Y-7013144D01*
X47647644Y-7083856D01*
X47718356Y-7083856D01*
X47718356Y-7337856D02*
X47718356Y-7267144D01*
X47647644Y-7267144D01*
X47647644Y-7337856D01*
X47718356Y-7337856D01*
X47718356Y-7591856D02*
X47718356Y-7521144D01*
X47647644Y-7521144D01*
X47647644Y-7591856D01*
X47718356Y-7591856D01*
X47718356Y-7845856D02*
X47718356Y-7775144D01*
X47647644Y-7775144D01*
X47647644Y-7845856D01*
X47718356Y-7845856D01*
X47718356Y-8099856D02*
X47718356Y-8029144D01*
X47647644Y-8029144D01*
X47647644Y-8099856D01*
X47718356Y-8099856D01*
X47718356Y-8353856D02*
X47718356Y-8283144D01*
X47647644Y-8283144D01*
X47647644Y-8353856D01*
X47718356Y-8353856D01*
X47718356Y-8607856D02*
X47718356Y-8537144D01*
X47647644Y-8537144D01*
X47647644Y-8607856D01*
X47718356Y-8607856D01*
X47972356Y-4289856D02*
X47972356Y-4219144D01*
X47901644Y-4219144D01*
X47901644Y-4289856D01*
X47972356Y-4289856D01*
X47972356Y-4543856D02*
X47972356Y-4473144D01*
X47901644Y-4473144D01*
X47901644Y-4543856D01*
X47972356Y-4543856D01*
X47972356Y-4797856D02*
X47972356Y-4727144D01*
X47901644Y-4727144D01*
X47901644Y-4797856D01*
X47972356Y-4797856D01*
X47972356Y-5051856D02*
X47972356Y-4981144D01*
X47901644Y-4981144D01*
X47901644Y-5051856D01*
X47972356Y-5051856D01*
X47972356Y-5305856D02*
X47972356Y-5235144D01*
X47901644Y-5235144D01*
X47901644Y-5305856D01*
X47972356Y-5305856D01*
X47972356Y-5559856D02*
X47972356Y-5489144D01*
X47901644Y-5489144D01*
X47901644Y-5559856D01*
X47972356Y-5559856D01*
X47972356Y-5813856D02*
X47972356Y-5743144D01*
X47901644Y-5743144D01*
X47901644Y-5813856D01*
X47972356Y-5813856D01*
X47972356Y-6067856D02*
X47972356Y-5997144D01*
X47901644Y-5997144D01*
X47901644Y-6067856D01*
X47972356Y-6067856D01*
X47972356Y-6321856D02*
X47972356Y-6251144D01*
X47901644Y-6251144D01*
X47901644Y-6321856D01*
X47972356Y-6321856D01*
X47972356Y-6575856D02*
X47972356Y-6505144D01*
X47901644Y-6505144D01*
X47901644Y-6575856D01*
X47972356Y-6575856D01*
X47972356Y-6829856D02*
X47972356Y-6759144D01*
X47901644Y-6759144D01*
X47901644Y-6829856D01*
X47972356Y-6829856D01*
X47972356Y-7083856D02*
X47972356Y-7013144D01*
X47901644Y-7013144D01*
X47901644Y-7083856D01*
X47972356Y-7083856D01*
X47972356Y-7337856D02*
X47972356Y-7267144D01*
X47901644Y-7267144D01*
X47901644Y-7337856D01*
X47972356Y-7337856D01*
X47972356Y-7591856D02*
X47972356Y-7521144D01*
X47901644Y-7521144D01*
X47901644Y-7591856D01*
X47972356Y-7591856D01*
X47972356Y-7845856D02*
X47972356Y-7775144D01*
X47901644Y-7775144D01*
X47901644Y-7845856D01*
X47972356Y-7845856D01*
X47972356Y-8099856D02*
X47972356Y-8029144D01*
X47901644Y-8029144D01*
X47901644Y-8099856D01*
X47972356Y-8099856D01*
X47972356Y-8353856D02*
X47972356Y-8283144D01*
X47901644Y-8283144D01*
X47901644Y-8353856D01*
X47972356Y-8353856D01*
X47972356Y-8607856D02*
X47972356Y-8537144D01*
X47901644Y-8537144D01*
X47901644Y-8607856D01*
X47972356Y-8607856D01*
X48045356Y-9055356D02*
X48045356Y-8984644D01*
X47974644Y-8984644D01*
X47974644Y-9055356D01*
X48045356Y-9055356D01*
X48045356Y-9305356D02*
X48045356Y-9234644D01*
X47974644Y-9234644D01*
X47974644Y-9305356D01*
X48045356Y-9305356D01*
X48045356Y-9555356D02*
X48045356Y-9484644D01*
X47974644Y-9484644D01*
X47974644Y-9555356D01*
X48045356Y-9555356D01*
X48226356Y-4289856D02*
X48226356Y-4219144D01*
X48155644Y-4219144D01*
X48155644Y-4289856D01*
X48226356Y-4289856D01*
X48226356Y-4543856D02*
X48226356Y-4473144D01*
X48155644Y-4473144D01*
X48155644Y-4543856D01*
X48226356Y-4543856D01*
X48226356Y-4797856D02*
X48226356Y-4727144D01*
X48155644Y-4727144D01*
X48155644Y-4797856D01*
X48226356Y-4797856D01*
X48226356Y-5051856D02*
X48226356Y-4981144D01*
X48155644Y-4981144D01*
X48155644Y-5051856D01*
X48226356Y-5051856D01*
X48226356Y-5305856D02*
X48226356Y-5235144D01*
X48155644Y-5235144D01*
X48155644Y-5305856D01*
X48226356Y-5305856D01*
X48226356Y-5559856D02*
X48226356Y-5489144D01*
X48155644Y-5489144D01*
X48155644Y-5559856D01*
X48226356Y-5559856D01*
X48226356Y-5813856D02*
X48226356Y-5743144D01*
X48155644Y-5743144D01*
X48155644Y-5813856D01*
X48226356Y-5813856D01*
X48226356Y-6067856D02*
X48226356Y-5997144D01*
X48155644Y-5997144D01*
X48155644Y-6067856D01*
X48226356Y-6067856D01*
X48226356Y-6321856D02*
X48226356Y-6251144D01*
X48155644Y-6251144D01*
X48155644Y-6321856D01*
X48226356Y-6321856D01*
X48226356Y-6575856D02*
X48226356Y-6505144D01*
X48155644Y-6505144D01*
X48155644Y-6575856D01*
X48226356Y-6575856D01*
X48226356Y-6829856D02*
X48226356Y-6759144D01*
X48155644Y-6759144D01*
X48155644Y-6829856D01*
X48226356Y-6829856D01*
X48226356Y-7083856D02*
X48226356Y-7013144D01*
X48155644Y-7013144D01*
X48155644Y-7083856D01*
X48226356Y-7083856D01*
X48226356Y-7337856D02*
X48226356Y-7267144D01*
X48155644Y-7267144D01*
X48155644Y-7337856D01*
X48226356Y-7337856D01*
X48226356Y-7591856D02*
X48226356Y-7521144D01*
X48155644Y-7521144D01*
X48155644Y-7591856D01*
X48226356Y-7591856D01*
X48226356Y-7845856D02*
X48226356Y-7775144D01*
X48155644Y-7775144D01*
X48155644Y-7845856D01*
X48226356Y-7845856D01*
X48226356Y-8099856D02*
X48226356Y-8029144D01*
X48155644Y-8029144D01*
X48155644Y-8099856D01*
X48226356Y-8099856D01*
X48226356Y-8353856D02*
X48226356Y-8283144D01*
X48155644Y-8283144D01*
X48155644Y-8353856D01*
X48226356Y-8353856D01*
X48226356Y-8607856D02*
X48226356Y-8537144D01*
X48155644Y-8537144D01*
X48155644Y-8607856D01*
X48226356Y-8607856D01*
X48547367Y-485356D02*
X48547367Y-414644D01*
X48476656Y-414644D01*
X48476656Y-485356D01*
X48547367Y-485356D01*
X48801367Y-485356D02*
X48801367Y-414644D01*
X48730656Y-414644D01*
X48730656Y-485356D01*
X48801367Y-485356D01*
X49311356Y-1686356D02*
X49311356Y-1615644D01*
X49240644Y-1615644D01*
X49240644Y-1686356D01*
X49311356Y-1686356D01*
X49311356Y-1940356D02*
X49311356Y-1869644D01*
X49240644Y-1869644D01*
X49240644Y-1940356D01*
X49311356Y-1940356D01*
X49311356Y-2194356D02*
X49311356Y-2123644D01*
X49240644Y-2123644D01*
X49240644Y-2194356D01*
X49311356Y-2194356D01*
X49311356Y-2448356D02*
X49311356Y-2377644D01*
X49240644Y-2377644D01*
X49240644Y-2448356D01*
X49311356Y-2448356D01*
X49311356Y-2702356D02*
X49311356Y-2631644D01*
X49240644Y-2631644D01*
X49240644Y-2702356D01*
X49311356Y-2702356D01*
X49311356Y-2956356D02*
X49311356Y-2885644D01*
X49240644Y-2885644D01*
X49240644Y-2956356D01*
X49311356Y-2956356D01*
X49311356Y-3210356D02*
X49311356Y-3139644D01*
X49240644Y-3139644D01*
X49240644Y-3210356D01*
X49311356Y-3210356D01*
X49311356Y-3464356D02*
X49311356Y-3393644D01*
X49240644Y-3393644D01*
X49240644Y-3464356D01*
X49311356Y-3464356D01*
X49374867Y-485356D02*
X49374867Y-414644D01*
X49304156Y-414644D01*
X49304156Y-485356D01*
X49374867Y-485356D01*
X49481356Y-4673356D02*
X49481356Y-4602644D01*
X49410644Y-4602644D01*
X49410644Y-4673356D01*
X49481356Y-4673356D01*
X49481356Y-4927356D02*
X49481356Y-4856644D01*
X49410644Y-4856644D01*
X49410644Y-4927356D01*
X49481356Y-4927356D01*
X49481356Y-5181356D02*
X49481356Y-5110644D01*
X49410644Y-5110644D01*
X49410644Y-5181356D01*
X49481356Y-5181356D01*
X49481356Y-5435356D02*
X49481356Y-5364644D01*
X49410644Y-5364644D01*
X49410644Y-5435356D01*
X49481356Y-5435356D01*
X49628867Y-485356D02*
X49628867Y-414644D01*
X49558156Y-414644D01*
X49558156Y-485356D01*
X49628867Y-485356D01*
X49735356Y-4673356D02*
X49735356Y-4602644D01*
X49664644Y-4602644D01*
X49664644Y-4673356D01*
X49735356Y-4673356D01*
X49735356Y-4927356D02*
X49735356Y-4856644D01*
X49664644Y-4856644D01*
X49664644Y-4927356D01*
X49735356Y-4927356D01*
X49735356Y-5181356D02*
X49735356Y-5110644D01*
X49664644Y-5110644D01*
X49664644Y-5181356D01*
X49735356Y-5181356D01*
X49735356Y-5435356D02*
X49735356Y-5364644D01*
X49664644Y-5364644D01*
X49664644Y-5435356D01*
X49735356Y-5435356D01*
X49775356Y-6045356D02*
X49775356Y-5974644D01*
X49704644Y-5974644D01*
X49704644Y-6045356D01*
X49775356Y-6045356D01*
X49775356Y-6295356D02*
X49775356Y-6224644D01*
X49704644Y-6224644D01*
X49704644Y-6295356D01*
X49775356Y-6295356D01*
X49775356Y-6545356D02*
X49775356Y-6474644D01*
X49704644Y-6474644D01*
X49704644Y-6545356D01*
X49775356Y-6545356D01*
D14*
X41900000Y-2170000D02*
X41955000Y-2115000D01*
X41900000Y-2060000D01*
X41845000Y-2115000D01*
X41900000Y-2170000D01*
D13*
X41865000Y-2170000D02*
X41935000Y-2170000D01*
X41935000Y-2060000D02*
G75*
G02*
X41935000Y-2170000I0J-55000D01*
G01*
X41935000Y-2060000D02*
X41865000Y-2060000D01*
X41865000Y-2060000D02*
G75*
G03*
X41865000Y-2170000I0J-55000D01*
G01*
D14*
X41900000Y-3130000D02*
X41955000Y-3075000D01*
X41900000Y-3020000D01*
X41845000Y-3075000D01*
X41900000Y-3130000D01*
D13*
X41865000Y-3130000D02*
X41935000Y-3130000D01*
X41935000Y-3020000D02*
G75*
G02*
X41935000Y-3130000I0J-55000D01*
G01*
X41935000Y-3020000D02*
X41865000Y-3020000D01*
X41865000Y-3020000D02*
G75*
G03*
X41865000Y-3130000I0J-55000D01*
G01*
D14*
X41950000Y-230000D02*
X42005000Y-175000D01*
X41950000Y-120000D01*
X41895000Y-175000D01*
X41950000Y-230000D01*
D13*
X41915000Y-230000D02*
X41985000Y-230000D01*
X41985000Y-120000D02*
G75*
G02*
X41985000Y-230000I0J-55000D01*
G01*
X41985000Y-120000D02*
X41915000Y-120000D01*
X41915000Y-120000D02*
G75*
G03*
X41915000Y-230000I0J-55000D01*
G01*
D14*
X41950000Y-1190000D02*
X42005000Y-1135000D01*
X41950000Y-1080000D01*
X41895000Y-1135000D01*
X41950000Y-1190000D01*
D13*
X41915000Y-1190000D02*
X41985000Y-1190000D01*
X41985000Y-1080000D02*
G75*
G02*
X41985000Y-1190000I0J-55000D01*
G01*
X41985000Y-1080000D02*
X41915000Y-1080000D01*
X41915000Y-1080000D02*
G75*
G03*
X41915000Y-1190000I0J-55000D01*
G01*
D14*
X48760000Y-8845000D02*
X48815000Y-8790000D01*
X48760000Y-8735000D01*
X48705000Y-8790000D01*
X48760000Y-8845000D01*
D13*
X48725000Y-8845000D02*
X48795000Y-8845000D01*
X48795000Y-8735000D02*
G75*
G02*
X48795000Y-8845000I0J-55000D01*
G01*
X48795000Y-8735000D02*
X48725000Y-8735000D01*
X48725000Y-8735000D02*
G75*
G03*
X48725000Y-8845000I0J-55000D01*
G01*
D14*
X48760000Y-9805000D02*
X48815000Y-9750000D01*
X48760000Y-9695000D01*
X48705000Y-9750000D01*
X48760000Y-9805000D01*
D13*
X48725000Y-9805000D02*
X48795000Y-9805000D01*
X48795000Y-9695000D02*
G75*
G02*
X48795000Y-9805000I0J-55000D01*
G01*
X48795000Y-9695000D02*
X48725000Y-9695000D01*
X48725000Y-9695000D02*
G75*
G03*
X48725000Y-9805000I0J-55000D01*
G01*
D14*
X48990000Y-5835000D02*
X49045000Y-5780000D01*
X48990000Y-5725000D01*
X48935000Y-5780000D01*
X48990000Y-5835000D01*
D13*
X49025000Y-5725000D02*
X48955000Y-5725000D01*
X48955000Y-5835000D02*
G75*
G02*
X48955000Y-5725000I0J55000D01*
G01*
X48955000Y-5835000D02*
X49025000Y-5835000D01*
X49025000Y-5835000D02*
G75*
G03*
X49025000Y-5725000I0J55000D01*
G01*
D14*
X48990000Y-6795000D02*
X49045000Y-6740000D01*
X48990000Y-6685000D01*
X48935000Y-6740000D01*
X48990000Y-6795000D01*
D13*
X49025000Y-6685000D02*
X48955000Y-6685000D01*
X48955000Y-6795000D02*
G75*
G02*
X48955000Y-6685000I0J55000D01*
G01*
X48955000Y-6795000D02*
X49025000Y-6795000D01*
X49025000Y-6795000D02*
G75*
G03*
X49025000Y-6685000I0J55000D01*
G01*
D10*
X40250777Y-10321484D02*
X40250777Y-10121484D01*
X40250777Y-10121484D02*
X40298396Y-10121484D01*
X40298396Y-10121484D02*
X40326967Y-10131008D01*
X40326967Y-10131008D02*
X40346015Y-10150055D01*
X40346015Y-10150055D02*
X40355539Y-10169103D01*
X40355539Y-10169103D02*
X40365063Y-10207198D01*
X40365063Y-10207198D02*
X40365063Y-10235770D01*
X40365063Y-10235770D02*
X40355539Y-10273865D01*
X40355539Y-10273865D02*
X40346015Y-10292912D01*
X40346015Y-10292912D02*
X40326967Y-10311960D01*
X40326967Y-10311960D02*
X40298396Y-10321484D01*
X40298396Y-10321484D02*
X40250777Y-10321484D01*
X40450777Y-10321484D02*
X40450777Y-10188150D01*
X40450777Y-10226246D02*
X40460301Y-10207198D01*
X40460301Y-10207198D02*
X40469824Y-10197674D01*
X40469824Y-10197674D02*
X40488872Y-10188150D01*
X40488872Y-10188150D02*
X40507920Y-10188150D01*
X40574586Y-10321484D02*
X40574586Y-10188150D01*
X40574586Y-10121484D02*
X40565063Y-10131008D01*
X40565063Y-10131008D02*
X40574586Y-10140531D01*
X40574586Y-10140531D02*
X40584110Y-10131008D01*
X40584110Y-10131008D02*
X40574586Y-10121484D01*
X40574586Y-10121484D02*
X40574586Y-10140531D01*
X40698396Y-10321484D02*
X40679348Y-10311960D01*
X40679348Y-10311960D02*
X40669824Y-10292912D01*
X40669824Y-10292912D02*
X40669824Y-10121484D01*
X40803158Y-10321484D02*
X40784110Y-10311960D01*
X40784110Y-10311960D02*
X40774586Y-10292912D01*
X40774586Y-10292912D02*
X40774586Y-10121484D01*
X41031729Y-10321484D02*
X41031729Y-10121484D01*
X41031729Y-10121484D02*
X41098396Y-10264341D01*
X41098396Y-10264341D02*
X41165063Y-10121484D01*
X41165063Y-10121484D02*
X41165063Y-10321484D01*
X41346015Y-10321484D02*
X41346015Y-10216722D01*
X41346015Y-10216722D02*
X41336491Y-10197674D01*
X41336491Y-10197674D02*
X41317444Y-10188150D01*
X41317444Y-10188150D02*
X41279348Y-10188150D01*
X41279348Y-10188150D02*
X41260301Y-10197674D01*
X41346015Y-10311960D02*
X41326967Y-10321484D01*
X41326967Y-10321484D02*
X41279348Y-10321484D01*
X41279348Y-10321484D02*
X41260301Y-10311960D01*
X41260301Y-10311960D02*
X41250777Y-10292912D01*
X41250777Y-10292912D02*
X41250777Y-10273865D01*
X41250777Y-10273865D02*
X41260301Y-10254817D01*
X41260301Y-10254817D02*
X41279348Y-10245293D01*
X41279348Y-10245293D02*
X41326967Y-10245293D01*
X41326967Y-10245293D02*
X41346015Y-10235770D01*
X41441253Y-10188150D02*
X41441253Y-10388150D01*
X41441253Y-10197674D02*
X41460301Y-10188150D01*
X41460301Y-10188150D02*
X41498396Y-10188150D01*
X41498396Y-10188150D02*
X41517444Y-10197674D01*
X41517444Y-10197674D02*
X41526967Y-10207198D01*
X41526967Y-10207198D02*
X41536491Y-10226246D01*
X41536491Y-10226246D02*
X41536491Y-10283389D01*
X41536491Y-10283389D02*
X41526967Y-10302436D01*
X41526967Y-10302436D02*
X41517444Y-10311960D01*
X41517444Y-10311960D02*
X41498396Y-10321484D01*
X41498396Y-10321484D02*
X41460301Y-10321484D01*
X41460301Y-10321484D02*
X41441253Y-10311960D01*
X41622205Y-10302436D02*
X41631729Y-10311960D01*
X41631729Y-10311960D02*
X41622205Y-10321484D01*
X41622205Y-10321484D02*
X41612682Y-10311960D01*
X41612682Y-10311960D02*
X41622205Y-10302436D01*
X41622205Y-10302436D02*
X41622205Y-10321484D01*
X41622205Y-10197674D02*
X41631729Y-10207198D01*
X41631729Y-10207198D02*
X41622205Y-10216722D01*
X41622205Y-10216722D02*
X41612682Y-10207198D01*
X41612682Y-10207198D02*
X41622205Y-10197674D01*
X41622205Y-10197674D02*
X41622205Y-10216722D01*
D13*
X39950000Y-10630000D02*
X39990000Y-10670000D01*
X39990000Y-10630000D02*
X39950000Y-10670000D01*
D10*
X40288872Y-10541484D02*
X40307920Y-10541484D01*
X40307920Y-10541484D02*
X40326967Y-10551008D01*
X40326967Y-10551008D02*
X40336491Y-10560531D01*
X40336491Y-10560531D02*
X40346015Y-10579579D01*
X40346015Y-10579579D02*
X40355539Y-10617674D01*
X40355539Y-10617674D02*
X40355539Y-10665293D01*
X40355539Y-10665293D02*
X40346015Y-10703389D01*
X40346015Y-10703389D02*
X40336491Y-10722436D01*
X40336491Y-10722436D02*
X40326967Y-10731960D01*
X40326967Y-10731960D02*
X40307920Y-10741484D01*
X40307920Y-10741484D02*
X40288872Y-10741484D01*
X40288872Y-10741484D02*
X40269824Y-10731960D01*
X40269824Y-10731960D02*
X40260301Y-10722436D01*
X40260301Y-10722436D02*
X40250777Y-10703389D01*
X40250777Y-10703389D02*
X40241253Y-10665293D01*
X40241253Y-10665293D02*
X40241253Y-10617674D01*
X40241253Y-10617674D02*
X40250777Y-10579579D01*
X40250777Y-10579579D02*
X40260301Y-10560531D01*
X40260301Y-10560531D02*
X40269824Y-10551008D01*
X40269824Y-10551008D02*
X40288872Y-10541484D01*
X40441253Y-10722436D02*
X40450777Y-10731960D01*
X40450777Y-10731960D02*
X40441253Y-10741484D01*
X40441253Y-10741484D02*
X40431729Y-10731960D01*
X40431729Y-10731960D02*
X40441253Y-10722436D01*
X40441253Y-10722436D02*
X40441253Y-10741484D01*
X40622205Y-10608150D02*
X40622205Y-10741484D01*
X40574586Y-10531960D02*
X40526967Y-10674817D01*
X40526967Y-10674817D02*
X40650777Y-10674817D01*
X40765063Y-10541484D02*
X40784110Y-10541484D01*
X40784110Y-10541484D02*
X40803158Y-10551008D01*
X40803158Y-10551008D02*
X40812682Y-10560531D01*
X40812682Y-10560531D02*
X40822205Y-10579579D01*
X40822205Y-10579579D02*
X40831729Y-10617674D01*
X40831729Y-10617674D02*
X40831729Y-10665293D01*
X40831729Y-10665293D02*
X40822205Y-10703389D01*
X40822205Y-10703389D02*
X40812682Y-10722436D01*
X40812682Y-10722436D02*
X40803158Y-10731960D01*
X40803158Y-10731960D02*
X40784110Y-10741484D01*
X40784110Y-10741484D02*
X40765063Y-10741484D01*
X40765063Y-10741484D02*
X40746015Y-10731960D01*
X40746015Y-10731960D02*
X40736491Y-10722436D01*
X40736491Y-10722436D02*
X40726967Y-10703389D01*
X40726967Y-10703389D02*
X40717444Y-10665293D01*
X40717444Y-10665293D02*
X40717444Y-10617674D01*
X40717444Y-10617674D02*
X40726967Y-10579579D01*
X40726967Y-10579579D02*
X40736491Y-10560531D01*
X40736491Y-10560531D02*
X40746015Y-10551008D01*
X40746015Y-10551008D02*
X40765063Y-10541484D01*
X40955539Y-10541484D02*
X40974586Y-10541484D01*
X40974586Y-10541484D02*
X40993634Y-10551008D01*
X40993634Y-10551008D02*
X41003158Y-10560531D01*
X41003158Y-10560531D02*
X41012682Y-10579579D01*
X41012682Y-10579579D02*
X41022205Y-10617674D01*
X41022205Y-10617674D02*
X41022205Y-10665293D01*
X41022205Y-10665293D02*
X41012682Y-10703389D01*
X41012682Y-10703389D02*
X41003158Y-10722436D01*
X41003158Y-10722436D02*
X40993634Y-10731960D01*
X40993634Y-10731960D02*
X40974586Y-10741484D01*
X40974586Y-10741484D02*
X40955539Y-10741484D01*
X40955539Y-10741484D02*
X40936491Y-10731960D01*
X40936491Y-10731960D02*
X40926967Y-10722436D01*
X40926967Y-10722436D02*
X40917444Y-10703389D01*
X40917444Y-10703389D02*
X40907920Y-10665293D01*
X40907920Y-10665293D02*
X40907920Y-10617674D01*
X40907920Y-10617674D02*
X40917444Y-10579579D01*
X40917444Y-10579579D02*
X40926967Y-10560531D01*
X40926967Y-10560531D02*
X40936491Y-10551008D01*
X40936491Y-10551008D02*
X40955539Y-10541484D01*
X41107920Y-10741484D02*
X41107920Y-10608150D01*
X41107920Y-10627198D02*
X41117444Y-10617674D01*
X41117444Y-10617674D02*
X41136491Y-10608150D01*
X41136491Y-10608150D02*
X41165063Y-10608150D01*
X41165063Y-10608150D02*
X41184110Y-10617674D01*
X41184110Y-10617674D02*
X41193634Y-10636722D01*
X41193634Y-10636722D02*
X41193634Y-10741484D01*
X41193634Y-10636722D02*
X41203158Y-10617674D01*
X41203158Y-10617674D02*
X41222205Y-10608150D01*
X41222205Y-10608150D02*
X41250777Y-10608150D01*
X41250777Y-10608150D02*
X41269825Y-10617674D01*
X41269825Y-10617674D02*
X41279348Y-10636722D01*
X41279348Y-10636722D02*
X41279348Y-10741484D01*
X41374586Y-10741484D02*
X41374586Y-10608150D01*
X41374586Y-10627198D02*
X41384110Y-10617674D01*
X41384110Y-10617674D02*
X41403158Y-10608150D01*
X41403158Y-10608150D02*
X41431729Y-10608150D01*
X41431729Y-10608150D02*
X41450777Y-10617674D01*
X41450777Y-10617674D02*
X41460301Y-10636722D01*
X41460301Y-10636722D02*
X41460301Y-10741484D01*
X41460301Y-10636722D02*
X41469825Y-10617674D01*
X41469825Y-10617674D02*
X41488872Y-10608150D01*
X41488872Y-10608150D02*
X41517444Y-10608150D01*
X41517444Y-10608150D02*
X41536491Y-10617674D01*
X41536491Y-10617674D02*
X41546015Y-10636722D01*
X41546015Y-10636722D02*
X41546015Y-10741484D01*
X41936491Y-10531960D02*
X41765063Y-10789103D01*
X42193634Y-10541484D02*
X42212682Y-10541484D01*
X42212682Y-10541484D02*
X42231729Y-10551008D01*
X42231729Y-10551008D02*
X42241253Y-10560531D01*
X42241253Y-10560531D02*
X42250777Y-10579579D01*
X42250777Y-10579579D02*
X42260301Y-10617674D01*
X42260301Y-10617674D02*
X42260301Y-10665293D01*
X42260301Y-10665293D02*
X42250777Y-10703389D01*
X42250777Y-10703389D02*
X42241253Y-10722436D01*
X42241253Y-10722436D02*
X42231729Y-10731960D01*
X42231729Y-10731960D02*
X42212682Y-10741484D01*
X42212682Y-10741484D02*
X42193634Y-10741484D01*
X42193634Y-10741484D02*
X42174587Y-10731960D01*
X42174587Y-10731960D02*
X42165063Y-10722436D01*
X42165063Y-10722436D02*
X42155539Y-10703389D01*
X42155539Y-10703389D02*
X42146015Y-10665293D01*
X42146015Y-10665293D02*
X42146015Y-10617674D01*
X42146015Y-10617674D02*
X42155539Y-10579579D01*
X42155539Y-10579579D02*
X42165063Y-10560531D01*
X42165063Y-10560531D02*
X42174587Y-10551008D01*
X42174587Y-10551008D02*
X42193634Y-10541484D01*
X42346015Y-10722436D02*
X42355539Y-10731960D01*
X42355539Y-10731960D02*
X42346015Y-10741484D01*
X42346015Y-10741484D02*
X42336491Y-10731960D01*
X42336491Y-10731960D02*
X42346015Y-10722436D01*
X42346015Y-10722436D02*
X42346015Y-10741484D01*
X42479348Y-10541484D02*
X42498396Y-10541484D01*
X42498396Y-10541484D02*
X42517444Y-10551008D01*
X42517444Y-10551008D02*
X42526968Y-10560531D01*
X42526968Y-10560531D02*
X42536491Y-10579579D01*
X42536491Y-10579579D02*
X42546015Y-10617674D01*
X42546015Y-10617674D02*
X42546015Y-10665293D01*
X42546015Y-10665293D02*
X42536491Y-10703389D01*
X42536491Y-10703389D02*
X42526968Y-10722436D01*
X42526968Y-10722436D02*
X42517444Y-10731960D01*
X42517444Y-10731960D02*
X42498396Y-10741484D01*
X42498396Y-10741484D02*
X42479348Y-10741484D01*
X42479348Y-10741484D02*
X42460301Y-10731960D01*
X42460301Y-10731960D02*
X42450777Y-10722436D01*
X42450777Y-10722436D02*
X42441253Y-10703389D01*
X42441253Y-10703389D02*
X42431729Y-10665293D01*
X42431729Y-10665293D02*
X42431729Y-10617674D01*
X42431729Y-10617674D02*
X42441253Y-10579579D01*
X42441253Y-10579579D02*
X42450777Y-10560531D01*
X42450777Y-10560531D02*
X42460301Y-10551008D01*
X42460301Y-10551008D02*
X42479348Y-10541484D01*
X42736491Y-10741484D02*
X42622206Y-10741484D01*
X42679348Y-10741484D02*
X42679348Y-10541484D01*
X42679348Y-10541484D02*
X42660301Y-10570055D01*
X42660301Y-10570055D02*
X42641253Y-10589103D01*
X42641253Y-10589103D02*
X42622206Y-10598627D01*
X42917444Y-10541484D02*
X42822206Y-10541484D01*
X42822206Y-10541484D02*
X42812682Y-10636722D01*
X42812682Y-10636722D02*
X42822206Y-10627198D01*
X42822206Y-10627198D02*
X42841253Y-10617674D01*
X42841253Y-10617674D02*
X42888872Y-10617674D01*
X42888872Y-10617674D02*
X42907920Y-10627198D01*
X42907920Y-10627198D02*
X42917444Y-10636722D01*
X42917444Y-10636722D02*
X42926968Y-10655770D01*
X42926968Y-10655770D02*
X42926968Y-10703389D01*
X42926968Y-10703389D02*
X42917444Y-10722436D01*
X42917444Y-10722436D02*
X42907920Y-10731960D01*
X42907920Y-10731960D02*
X42888872Y-10741484D01*
X42888872Y-10741484D02*
X42841253Y-10741484D01*
X42841253Y-10741484D02*
X42822206Y-10731960D01*
X42822206Y-10731960D02*
X42812682Y-10722436D01*
X42993634Y-10541484D02*
X43126968Y-10541484D01*
X43126968Y-10541484D02*
X43041253Y-10741484D01*
X43193634Y-10541484D02*
X43193634Y-10579579D01*
X43269825Y-10541484D02*
X43269825Y-10579579D01*
X43565063Y-10817674D02*
X43555539Y-10808150D01*
X43555539Y-10808150D02*
X43536491Y-10779579D01*
X43536491Y-10779579D02*
X43526968Y-10760531D01*
X43526968Y-10760531D02*
X43517444Y-10731960D01*
X43517444Y-10731960D02*
X43507920Y-10684341D01*
X43507920Y-10684341D02*
X43507920Y-10646246D01*
X43507920Y-10646246D02*
X43517444Y-10598627D01*
X43517444Y-10598627D02*
X43526968Y-10570055D01*
X43526968Y-10570055D02*
X43536491Y-10551008D01*
X43536491Y-10551008D02*
X43555539Y-10522436D01*
X43555539Y-10522436D02*
X43565063Y-10512912D01*
X43726968Y-10541484D02*
X43688872Y-10541484D01*
X43688872Y-10541484D02*
X43669825Y-10551008D01*
X43669825Y-10551008D02*
X43660301Y-10560531D01*
X43660301Y-10560531D02*
X43641253Y-10589103D01*
X43641253Y-10589103D02*
X43631730Y-10627198D01*
X43631730Y-10627198D02*
X43631730Y-10703389D01*
X43631730Y-10703389D02*
X43641253Y-10722436D01*
X43641253Y-10722436D02*
X43650777Y-10731960D01*
X43650777Y-10731960D02*
X43669825Y-10741484D01*
X43669825Y-10741484D02*
X43707920Y-10741484D01*
X43707920Y-10741484D02*
X43726968Y-10731960D01*
X43726968Y-10731960D02*
X43736491Y-10722436D01*
X43736491Y-10722436D02*
X43746015Y-10703389D01*
X43746015Y-10703389D02*
X43746015Y-10655770D01*
X43746015Y-10655770D02*
X43736491Y-10636722D01*
X43736491Y-10636722D02*
X43726968Y-10627198D01*
X43726968Y-10627198D02*
X43707920Y-10617674D01*
X43707920Y-10617674D02*
X43669825Y-10617674D01*
X43669825Y-10617674D02*
X43650777Y-10627198D01*
X43650777Y-10627198D02*
X43641253Y-10636722D01*
X43641253Y-10636722D02*
X43631730Y-10655770D01*
X43984111Y-10741484D02*
X43984111Y-10541484D01*
X44069825Y-10741484D02*
X44069825Y-10636722D01*
X44069825Y-10636722D02*
X44060301Y-10617674D01*
X44060301Y-10617674D02*
X44041253Y-10608150D01*
X44041253Y-10608150D02*
X44012682Y-10608150D01*
X44012682Y-10608150D02*
X43993634Y-10617674D01*
X43993634Y-10617674D02*
X43984111Y-10627198D01*
X44193634Y-10741484D02*
X44174587Y-10731960D01*
X44174587Y-10731960D02*
X44165063Y-10722436D01*
X44165063Y-10722436D02*
X44155539Y-10703389D01*
X44155539Y-10703389D02*
X44155539Y-10646246D01*
X44155539Y-10646246D02*
X44165063Y-10627198D01*
X44165063Y-10627198D02*
X44174587Y-10617674D01*
X44174587Y-10617674D02*
X44193634Y-10608150D01*
X44193634Y-10608150D02*
X44222206Y-10608150D01*
X44222206Y-10608150D02*
X44241253Y-10617674D01*
X44241253Y-10617674D02*
X44250777Y-10627198D01*
X44250777Y-10627198D02*
X44260301Y-10646246D01*
X44260301Y-10646246D02*
X44260301Y-10703389D01*
X44260301Y-10703389D02*
X44250777Y-10722436D01*
X44250777Y-10722436D02*
X44241253Y-10731960D01*
X44241253Y-10731960D02*
X44222206Y-10741484D01*
X44222206Y-10741484D02*
X44193634Y-10741484D01*
X44374587Y-10741484D02*
X44355539Y-10731960D01*
X44355539Y-10731960D02*
X44346015Y-10712912D01*
X44346015Y-10712912D02*
X44346015Y-10541484D01*
X44526968Y-10731960D02*
X44507920Y-10741484D01*
X44507920Y-10741484D02*
X44469825Y-10741484D01*
X44469825Y-10741484D02*
X44450777Y-10731960D01*
X44450777Y-10731960D02*
X44441253Y-10712912D01*
X44441253Y-10712912D02*
X44441253Y-10636722D01*
X44441253Y-10636722D02*
X44450777Y-10617674D01*
X44450777Y-10617674D02*
X44469825Y-10608150D01*
X44469825Y-10608150D02*
X44507920Y-10608150D01*
X44507920Y-10608150D02*
X44526968Y-10617674D01*
X44526968Y-10617674D02*
X44536492Y-10636722D01*
X44536492Y-10636722D02*
X44536492Y-10655770D01*
X44536492Y-10655770D02*
X44441253Y-10674817D01*
X44612682Y-10731960D02*
X44631730Y-10741484D01*
X44631730Y-10741484D02*
X44669825Y-10741484D01*
X44669825Y-10741484D02*
X44688873Y-10731960D01*
X44688873Y-10731960D02*
X44698396Y-10712912D01*
X44698396Y-10712912D02*
X44698396Y-10703389D01*
X44698396Y-10703389D02*
X44688873Y-10684341D01*
X44688873Y-10684341D02*
X44669825Y-10674817D01*
X44669825Y-10674817D02*
X44641253Y-10674817D01*
X44641253Y-10674817D02*
X44622206Y-10665293D01*
X44622206Y-10665293D02*
X44612682Y-10646246D01*
X44612682Y-10646246D02*
X44612682Y-10636722D01*
X44612682Y-10636722D02*
X44622206Y-10617674D01*
X44622206Y-10617674D02*
X44641253Y-10608150D01*
X44641253Y-10608150D02*
X44669825Y-10608150D01*
X44669825Y-10608150D02*
X44688873Y-10617674D01*
X44765063Y-10817674D02*
X44774587Y-10808150D01*
X44774587Y-10808150D02*
X44793634Y-10779579D01*
X44793634Y-10779579D02*
X44803158Y-10760531D01*
X44803158Y-10760531D02*
X44812682Y-10731960D01*
X44812682Y-10731960D02*
X44822206Y-10684341D01*
X44822206Y-10684341D02*
X44822206Y-10646246D01*
X44822206Y-10646246D02*
X44812682Y-10598627D01*
X44812682Y-10598627D02*
X44803158Y-10570055D01*
X44803158Y-10570055D02*
X44793634Y-10551008D01*
X44793634Y-10551008D02*
X44774587Y-10522436D01*
X44774587Y-10522436D02*
X44765063Y-10512912D01*
D13*
X39990000Y-10914000D02*
G75*
G02*
X39950000Y-10914000I-20000J0D01*
G01*
X39950000Y-10914000D02*
G75*
G02*
X39990000Y-10914000I20000J0D01*
G01*
D10*
X40288872Y-10805484D02*
X40307920Y-10805484D01*
X40307920Y-10805484D02*
X40326967Y-10815008D01*
X40326967Y-10815008D02*
X40336491Y-10824531D01*
X40336491Y-10824531D02*
X40346015Y-10843579D01*
X40346015Y-10843579D02*
X40355539Y-10881674D01*
X40355539Y-10881674D02*
X40355539Y-10929293D01*
X40355539Y-10929293D02*
X40346015Y-10967389D01*
X40346015Y-10967389D02*
X40336491Y-10986436D01*
X40336491Y-10986436D02*
X40326967Y-10995960D01*
X40326967Y-10995960D02*
X40307920Y-11005484D01*
X40307920Y-11005484D02*
X40288872Y-11005484D01*
X40288872Y-11005484D02*
X40269824Y-10995960D01*
X40269824Y-10995960D02*
X40260301Y-10986436D01*
X40260301Y-10986436D02*
X40250777Y-10967389D01*
X40250777Y-10967389D02*
X40241253Y-10929293D01*
X40241253Y-10929293D02*
X40241253Y-10881674D01*
X40241253Y-10881674D02*
X40250777Y-10843579D01*
X40250777Y-10843579D02*
X40260301Y-10824531D01*
X40260301Y-10824531D02*
X40269824Y-10815008D01*
X40269824Y-10815008D02*
X40288872Y-10805484D01*
X40441253Y-10986436D02*
X40450777Y-10995960D01*
X40450777Y-10995960D02*
X40441253Y-11005484D01*
X40441253Y-11005484D02*
X40431729Y-10995960D01*
X40431729Y-10995960D02*
X40441253Y-10986436D01*
X40441253Y-10986436D02*
X40441253Y-11005484D01*
X40622205Y-10872150D02*
X40622205Y-11005484D01*
X40574586Y-10795960D02*
X40526967Y-10938817D01*
X40526967Y-10938817D02*
X40650777Y-10938817D01*
X40765063Y-10805484D02*
X40784110Y-10805484D01*
X40784110Y-10805484D02*
X40803158Y-10815008D01*
X40803158Y-10815008D02*
X40812682Y-10824531D01*
X40812682Y-10824531D02*
X40822205Y-10843579D01*
X40822205Y-10843579D02*
X40831729Y-10881674D01*
X40831729Y-10881674D02*
X40831729Y-10929293D01*
X40831729Y-10929293D02*
X40822205Y-10967389D01*
X40822205Y-10967389D02*
X40812682Y-10986436D01*
X40812682Y-10986436D02*
X40803158Y-10995960D01*
X40803158Y-10995960D02*
X40784110Y-11005484D01*
X40784110Y-11005484D02*
X40765063Y-11005484D01*
X40765063Y-11005484D02*
X40746015Y-10995960D01*
X40746015Y-10995960D02*
X40736491Y-10986436D01*
X40736491Y-10986436D02*
X40726967Y-10967389D01*
X40726967Y-10967389D02*
X40717444Y-10929293D01*
X40717444Y-10929293D02*
X40717444Y-10881674D01*
X40717444Y-10881674D02*
X40726967Y-10843579D01*
X40726967Y-10843579D02*
X40736491Y-10824531D01*
X40736491Y-10824531D02*
X40746015Y-10815008D01*
X40746015Y-10815008D02*
X40765063Y-10805484D01*
X40955539Y-10805484D02*
X40974586Y-10805484D01*
X40974586Y-10805484D02*
X40993634Y-10815008D01*
X40993634Y-10815008D02*
X41003158Y-10824531D01*
X41003158Y-10824531D02*
X41012682Y-10843579D01*
X41012682Y-10843579D02*
X41022205Y-10881674D01*
X41022205Y-10881674D02*
X41022205Y-10929293D01*
X41022205Y-10929293D02*
X41012682Y-10967389D01*
X41012682Y-10967389D02*
X41003158Y-10986436D01*
X41003158Y-10986436D02*
X40993634Y-10995960D01*
X40993634Y-10995960D02*
X40974586Y-11005484D01*
X40974586Y-11005484D02*
X40955539Y-11005484D01*
X40955539Y-11005484D02*
X40936491Y-10995960D01*
X40936491Y-10995960D02*
X40926967Y-10986436D01*
X40926967Y-10986436D02*
X40917444Y-10967389D01*
X40917444Y-10967389D02*
X40907920Y-10929293D01*
X40907920Y-10929293D02*
X40907920Y-10881674D01*
X40907920Y-10881674D02*
X40917444Y-10843579D01*
X40917444Y-10843579D02*
X40926967Y-10824531D01*
X40926967Y-10824531D02*
X40936491Y-10815008D01*
X40936491Y-10815008D02*
X40955539Y-10805484D01*
X41107920Y-11005484D02*
X41107920Y-10872150D01*
X41107920Y-10891198D02*
X41117444Y-10881674D01*
X41117444Y-10881674D02*
X41136491Y-10872150D01*
X41136491Y-10872150D02*
X41165063Y-10872150D01*
X41165063Y-10872150D02*
X41184110Y-10881674D01*
X41184110Y-10881674D02*
X41193634Y-10900722D01*
X41193634Y-10900722D02*
X41193634Y-11005484D01*
X41193634Y-10900722D02*
X41203158Y-10881674D01*
X41203158Y-10881674D02*
X41222205Y-10872150D01*
X41222205Y-10872150D02*
X41250777Y-10872150D01*
X41250777Y-10872150D02*
X41269825Y-10881674D01*
X41269825Y-10881674D02*
X41279348Y-10900722D01*
X41279348Y-10900722D02*
X41279348Y-11005484D01*
X41374586Y-11005484D02*
X41374586Y-10872150D01*
X41374586Y-10891198D02*
X41384110Y-10881674D01*
X41384110Y-10881674D02*
X41403158Y-10872150D01*
X41403158Y-10872150D02*
X41431729Y-10872150D01*
X41431729Y-10872150D02*
X41450777Y-10881674D01*
X41450777Y-10881674D02*
X41460301Y-10900722D01*
X41460301Y-10900722D02*
X41460301Y-11005484D01*
X41460301Y-10900722D02*
X41469825Y-10881674D01*
X41469825Y-10881674D02*
X41488872Y-10872150D01*
X41488872Y-10872150D02*
X41517444Y-10872150D01*
X41517444Y-10872150D02*
X41536491Y-10881674D01*
X41536491Y-10881674D02*
X41546015Y-10900722D01*
X41546015Y-10900722D02*
X41546015Y-11005484D01*
X41936491Y-10795960D02*
X41765063Y-11053103D01*
X42193634Y-10805484D02*
X42212682Y-10805484D01*
X42212682Y-10805484D02*
X42231729Y-10815008D01*
X42231729Y-10815008D02*
X42241253Y-10824531D01*
X42241253Y-10824531D02*
X42250777Y-10843579D01*
X42250777Y-10843579D02*
X42260301Y-10881674D01*
X42260301Y-10881674D02*
X42260301Y-10929293D01*
X42260301Y-10929293D02*
X42250777Y-10967389D01*
X42250777Y-10967389D02*
X42241253Y-10986436D01*
X42241253Y-10986436D02*
X42231729Y-10995960D01*
X42231729Y-10995960D02*
X42212682Y-11005484D01*
X42212682Y-11005484D02*
X42193634Y-11005484D01*
X42193634Y-11005484D02*
X42174587Y-10995960D01*
X42174587Y-10995960D02*
X42165063Y-10986436D01*
X42165063Y-10986436D02*
X42155539Y-10967389D01*
X42155539Y-10967389D02*
X42146015Y-10929293D01*
X42146015Y-10929293D02*
X42146015Y-10881674D01*
X42146015Y-10881674D02*
X42155539Y-10843579D01*
X42155539Y-10843579D02*
X42165063Y-10824531D01*
X42165063Y-10824531D02*
X42174587Y-10815008D01*
X42174587Y-10815008D02*
X42193634Y-10805484D01*
X42346015Y-10986436D02*
X42355539Y-10995960D01*
X42355539Y-10995960D02*
X42346015Y-11005484D01*
X42346015Y-11005484D02*
X42336491Y-10995960D01*
X42336491Y-10995960D02*
X42346015Y-10986436D01*
X42346015Y-10986436D02*
X42346015Y-11005484D01*
X42479348Y-10805484D02*
X42498396Y-10805484D01*
X42498396Y-10805484D02*
X42517444Y-10815008D01*
X42517444Y-10815008D02*
X42526968Y-10824531D01*
X42526968Y-10824531D02*
X42536491Y-10843579D01*
X42536491Y-10843579D02*
X42546015Y-10881674D01*
X42546015Y-10881674D02*
X42546015Y-10929293D01*
X42546015Y-10929293D02*
X42536491Y-10967389D01*
X42536491Y-10967389D02*
X42526968Y-10986436D01*
X42526968Y-10986436D02*
X42517444Y-10995960D01*
X42517444Y-10995960D02*
X42498396Y-11005484D01*
X42498396Y-11005484D02*
X42479348Y-11005484D01*
X42479348Y-11005484D02*
X42460301Y-10995960D01*
X42460301Y-10995960D02*
X42450777Y-10986436D01*
X42450777Y-10986436D02*
X42441253Y-10967389D01*
X42441253Y-10967389D02*
X42431729Y-10929293D01*
X42431729Y-10929293D02*
X42431729Y-10881674D01*
X42431729Y-10881674D02*
X42441253Y-10843579D01*
X42441253Y-10843579D02*
X42450777Y-10824531D01*
X42450777Y-10824531D02*
X42460301Y-10815008D01*
X42460301Y-10815008D02*
X42479348Y-10805484D01*
X42736491Y-11005484D02*
X42622206Y-11005484D01*
X42679348Y-11005484D02*
X42679348Y-10805484D01*
X42679348Y-10805484D02*
X42660301Y-10834055D01*
X42660301Y-10834055D02*
X42641253Y-10853103D01*
X42641253Y-10853103D02*
X42622206Y-10862627D01*
X42917444Y-10805484D02*
X42822206Y-10805484D01*
X42822206Y-10805484D02*
X42812682Y-10900722D01*
X42812682Y-10900722D02*
X42822206Y-10891198D01*
X42822206Y-10891198D02*
X42841253Y-10881674D01*
X42841253Y-10881674D02*
X42888872Y-10881674D01*
X42888872Y-10881674D02*
X42907920Y-10891198D01*
X42907920Y-10891198D02*
X42917444Y-10900722D01*
X42917444Y-10900722D02*
X42926968Y-10919770D01*
X42926968Y-10919770D02*
X42926968Y-10967389D01*
X42926968Y-10967389D02*
X42917444Y-10986436D01*
X42917444Y-10986436D02*
X42907920Y-10995960D01*
X42907920Y-10995960D02*
X42888872Y-11005484D01*
X42888872Y-11005484D02*
X42841253Y-11005484D01*
X42841253Y-11005484D02*
X42822206Y-10995960D01*
X42822206Y-10995960D02*
X42812682Y-10986436D01*
X42993634Y-10805484D02*
X43126968Y-10805484D01*
X43126968Y-10805484D02*
X43041253Y-11005484D01*
X43193634Y-10805484D02*
X43193634Y-10843579D01*
X43269825Y-10805484D02*
X43269825Y-10843579D01*
X43565063Y-11081674D02*
X43555539Y-11072150D01*
X43555539Y-11072150D02*
X43536491Y-11043579D01*
X43536491Y-11043579D02*
X43526968Y-11024531D01*
X43526968Y-11024531D02*
X43517444Y-10995960D01*
X43517444Y-10995960D02*
X43507920Y-10948341D01*
X43507920Y-10948341D02*
X43507920Y-10910246D01*
X43507920Y-10910246D02*
X43517444Y-10862627D01*
X43517444Y-10862627D02*
X43526968Y-10834055D01*
X43526968Y-10834055D02*
X43536491Y-10815008D01*
X43536491Y-10815008D02*
X43555539Y-10786436D01*
X43555539Y-10786436D02*
X43565063Y-10776912D01*
X43679349Y-10805484D02*
X43698396Y-10805484D01*
X43698396Y-10805484D02*
X43717444Y-10815008D01*
X43717444Y-10815008D02*
X43726968Y-10824531D01*
X43726968Y-10824531D02*
X43736491Y-10843579D01*
X43736491Y-10843579D02*
X43746015Y-10881674D01*
X43746015Y-10881674D02*
X43746015Y-10929293D01*
X43746015Y-10929293D02*
X43736491Y-10967389D01*
X43736491Y-10967389D02*
X43726968Y-10986436D01*
X43726968Y-10986436D02*
X43717444Y-10995960D01*
X43717444Y-10995960D02*
X43698396Y-11005484D01*
X43698396Y-11005484D02*
X43679349Y-11005484D01*
X43679349Y-11005484D02*
X43660301Y-10995960D01*
X43660301Y-10995960D02*
X43650777Y-10986436D01*
X43650777Y-10986436D02*
X43641253Y-10967389D01*
X43641253Y-10967389D02*
X43631730Y-10929293D01*
X43631730Y-10929293D02*
X43631730Y-10881674D01*
X43631730Y-10881674D02*
X43641253Y-10843579D01*
X43641253Y-10843579D02*
X43650777Y-10824531D01*
X43650777Y-10824531D02*
X43660301Y-10815008D01*
X43660301Y-10815008D02*
X43679349Y-10805484D01*
X43984111Y-11005484D02*
X43984111Y-10805484D01*
X44069825Y-11005484D02*
X44069825Y-10900722D01*
X44069825Y-10900722D02*
X44060301Y-10881674D01*
X44060301Y-10881674D02*
X44041253Y-10872150D01*
X44041253Y-10872150D02*
X44012682Y-10872150D01*
X44012682Y-10872150D02*
X43993634Y-10881674D01*
X43993634Y-10881674D02*
X43984111Y-10891198D01*
X44193634Y-11005484D02*
X44174587Y-10995960D01*
X44174587Y-10995960D02*
X44165063Y-10986436D01*
X44165063Y-10986436D02*
X44155539Y-10967389D01*
X44155539Y-10967389D02*
X44155539Y-10910246D01*
X44155539Y-10910246D02*
X44165063Y-10891198D01*
X44165063Y-10891198D02*
X44174587Y-10881674D01*
X44174587Y-10881674D02*
X44193634Y-10872150D01*
X44193634Y-10872150D02*
X44222206Y-10872150D01*
X44222206Y-10872150D02*
X44241253Y-10881674D01*
X44241253Y-10881674D02*
X44250777Y-10891198D01*
X44250777Y-10891198D02*
X44260301Y-10910246D01*
X44260301Y-10910246D02*
X44260301Y-10967389D01*
X44260301Y-10967389D02*
X44250777Y-10986436D01*
X44250777Y-10986436D02*
X44241253Y-10995960D01*
X44241253Y-10995960D02*
X44222206Y-11005484D01*
X44222206Y-11005484D02*
X44193634Y-11005484D01*
X44374587Y-11005484D02*
X44355539Y-10995960D01*
X44355539Y-10995960D02*
X44346015Y-10976912D01*
X44346015Y-10976912D02*
X44346015Y-10805484D01*
X44526968Y-10995960D02*
X44507920Y-11005484D01*
X44507920Y-11005484D02*
X44469825Y-11005484D01*
X44469825Y-11005484D02*
X44450777Y-10995960D01*
X44450777Y-10995960D02*
X44441253Y-10976912D01*
X44441253Y-10976912D02*
X44441253Y-10900722D01*
X44441253Y-10900722D02*
X44450777Y-10881674D01*
X44450777Y-10881674D02*
X44469825Y-10872150D01*
X44469825Y-10872150D02*
X44507920Y-10872150D01*
X44507920Y-10872150D02*
X44526968Y-10881674D01*
X44526968Y-10881674D02*
X44536492Y-10900722D01*
X44536492Y-10900722D02*
X44536492Y-10919770D01*
X44536492Y-10919770D02*
X44441253Y-10938817D01*
X44612682Y-10995960D02*
X44631730Y-11005484D01*
X44631730Y-11005484D02*
X44669825Y-11005484D01*
X44669825Y-11005484D02*
X44688873Y-10995960D01*
X44688873Y-10995960D02*
X44698396Y-10976912D01*
X44698396Y-10976912D02*
X44698396Y-10967389D01*
X44698396Y-10967389D02*
X44688873Y-10948341D01*
X44688873Y-10948341D02*
X44669825Y-10938817D01*
X44669825Y-10938817D02*
X44641253Y-10938817D01*
X44641253Y-10938817D02*
X44622206Y-10929293D01*
X44622206Y-10929293D02*
X44612682Y-10910246D01*
X44612682Y-10910246D02*
X44612682Y-10900722D01*
X44612682Y-10900722D02*
X44622206Y-10881674D01*
X44622206Y-10881674D02*
X44641253Y-10872150D01*
X44641253Y-10872150D02*
X44669825Y-10872150D01*
X44669825Y-10872150D02*
X44688873Y-10881674D01*
X44936492Y-10929293D02*
X45088873Y-10929293D01*
X45012682Y-11005484D02*
X45012682Y-10853103D01*
X45317444Y-10805484D02*
X45441253Y-10805484D01*
X45441253Y-10805484D02*
X45374587Y-10881674D01*
X45374587Y-10881674D02*
X45403158Y-10881674D01*
X45403158Y-10881674D02*
X45422206Y-10891198D01*
X45422206Y-10891198D02*
X45431730Y-10900722D01*
X45431730Y-10900722D02*
X45441253Y-10919770D01*
X45441253Y-10919770D02*
X45441253Y-10967389D01*
X45441253Y-10967389D02*
X45431730Y-10986436D01*
X45431730Y-10986436D02*
X45422206Y-10995960D01*
X45422206Y-10995960D02*
X45403158Y-11005484D01*
X45403158Y-11005484D02*
X45346015Y-11005484D01*
X45346015Y-11005484D02*
X45326968Y-10995960D01*
X45326968Y-10995960D02*
X45317444Y-10986436D01*
X45669825Y-10995960D02*
X45688873Y-11005484D01*
X45688873Y-11005484D02*
X45726968Y-11005484D01*
X45726968Y-11005484D02*
X45746015Y-10995960D01*
X45746015Y-10995960D02*
X45755539Y-10976912D01*
X45755539Y-10976912D02*
X45755539Y-10967389D01*
X45755539Y-10967389D02*
X45746015Y-10948341D01*
X45746015Y-10948341D02*
X45726968Y-10938817D01*
X45726968Y-10938817D02*
X45698396Y-10938817D01*
X45698396Y-10938817D02*
X45679349Y-10929293D01*
X45679349Y-10929293D02*
X45669825Y-10910246D01*
X45669825Y-10910246D02*
X45669825Y-10900722D01*
X45669825Y-10900722D02*
X45679349Y-10881674D01*
X45679349Y-10881674D02*
X45698396Y-10872150D01*
X45698396Y-10872150D02*
X45726968Y-10872150D01*
X45726968Y-10872150D02*
X45746015Y-10881674D01*
X45869825Y-11005484D02*
X45850777Y-10995960D01*
X45850777Y-10995960D02*
X45841254Y-10976912D01*
X45841254Y-10976912D02*
X45841254Y-10805484D01*
X45974587Y-11005484D02*
X45955539Y-10995960D01*
X45955539Y-10995960D02*
X45946015Y-10986436D01*
X45946015Y-10986436D02*
X45936492Y-10967389D01*
X45936492Y-10967389D02*
X45936492Y-10910246D01*
X45936492Y-10910246D02*
X45946015Y-10891198D01*
X45946015Y-10891198D02*
X45955539Y-10881674D01*
X45955539Y-10881674D02*
X45974587Y-10872150D01*
X45974587Y-10872150D02*
X46003158Y-10872150D01*
X46003158Y-10872150D02*
X46022206Y-10881674D01*
X46022206Y-10881674D02*
X46031730Y-10891198D01*
X46031730Y-10891198D02*
X46041254Y-10910246D01*
X46041254Y-10910246D02*
X46041254Y-10967389D01*
X46041254Y-10967389D02*
X46031730Y-10986436D01*
X46031730Y-10986436D02*
X46022206Y-10995960D01*
X46022206Y-10995960D02*
X46003158Y-11005484D01*
X46003158Y-11005484D02*
X45974587Y-11005484D01*
X46098396Y-10872150D02*
X46174587Y-10872150D01*
X46126968Y-10805484D02*
X46126968Y-10976912D01*
X46126968Y-10976912D02*
X46136492Y-10995960D01*
X46136492Y-10995960D02*
X46155539Y-11005484D01*
X46155539Y-11005484D02*
X46174587Y-11005484D01*
X46231730Y-10995960D02*
X46250777Y-11005484D01*
X46250777Y-11005484D02*
X46288873Y-11005484D01*
X46288873Y-11005484D02*
X46307920Y-10995960D01*
X46307920Y-10995960D02*
X46317444Y-10976912D01*
X46317444Y-10976912D02*
X46317444Y-10967389D01*
X46317444Y-10967389D02*
X46307920Y-10948341D01*
X46307920Y-10948341D02*
X46288873Y-10938817D01*
X46288873Y-10938817D02*
X46260301Y-10938817D01*
X46260301Y-10938817D02*
X46241254Y-10929293D01*
X46241254Y-10929293D02*
X46231730Y-10910246D01*
X46231730Y-10910246D02*
X46231730Y-10900722D01*
X46231730Y-10900722D02*
X46241254Y-10881674D01*
X46241254Y-10881674D02*
X46260301Y-10872150D01*
X46260301Y-10872150D02*
X46288873Y-10872150D01*
X46288873Y-10872150D02*
X46307920Y-10881674D01*
X46384111Y-11081674D02*
X46393635Y-11072150D01*
X46393635Y-11072150D02*
X46412682Y-11043579D01*
X46412682Y-11043579D02*
X46422206Y-11024531D01*
X46422206Y-11024531D02*
X46431730Y-10995960D01*
X46431730Y-10995960D02*
X46441254Y-10948341D01*
X46441254Y-10948341D02*
X46441254Y-10910246D01*
X46441254Y-10910246D02*
X46431730Y-10862627D01*
X46431730Y-10862627D02*
X46422206Y-10834055D01*
X46422206Y-10834055D02*
X46412682Y-10815008D01*
X46412682Y-10815008D02*
X46393635Y-10786436D01*
X46393635Y-10786436D02*
X46384111Y-10776912D01*
D13*
X39950000Y-11138000D02*
X39950000Y-11218000D01*
X39910000Y-11178000D02*
X39990000Y-11178000D01*
D10*
X40288872Y-11069484D02*
X40307920Y-11069484D01*
X40307920Y-11069484D02*
X40326967Y-11079008D01*
X40326967Y-11079008D02*
X40336491Y-11088531D01*
X40336491Y-11088531D02*
X40346015Y-11107579D01*
X40346015Y-11107579D02*
X40355539Y-11145674D01*
X40355539Y-11145674D02*
X40355539Y-11193293D01*
X40355539Y-11193293D02*
X40346015Y-11231388D01*
X40346015Y-11231388D02*
X40336491Y-11250436D01*
X40336491Y-11250436D02*
X40326967Y-11259960D01*
X40326967Y-11259960D02*
X40307920Y-11269484D01*
X40307920Y-11269484D02*
X40288872Y-11269484D01*
X40288872Y-11269484D02*
X40269824Y-11259960D01*
X40269824Y-11259960D02*
X40260301Y-11250436D01*
X40260301Y-11250436D02*
X40250777Y-11231388D01*
X40250777Y-11231388D02*
X40241253Y-11193293D01*
X40241253Y-11193293D02*
X40241253Y-11145674D01*
X40241253Y-11145674D02*
X40250777Y-11107579D01*
X40250777Y-11107579D02*
X40260301Y-11088531D01*
X40260301Y-11088531D02*
X40269824Y-11079008D01*
X40269824Y-11079008D02*
X40288872Y-11069484D01*
X40441253Y-11250436D02*
X40450777Y-11259960D01*
X40450777Y-11259960D02*
X40441253Y-11269484D01*
X40441253Y-11269484D02*
X40431729Y-11259960D01*
X40431729Y-11259960D02*
X40441253Y-11250436D01*
X40441253Y-11250436D02*
X40441253Y-11269484D01*
X40565063Y-11155198D02*
X40546015Y-11145674D01*
X40546015Y-11145674D02*
X40536491Y-11136150D01*
X40536491Y-11136150D02*
X40526967Y-11117103D01*
X40526967Y-11117103D02*
X40526967Y-11107579D01*
X40526967Y-11107579D02*
X40536491Y-11088531D01*
X40536491Y-11088531D02*
X40546015Y-11079008D01*
X40546015Y-11079008D02*
X40565063Y-11069484D01*
X40565063Y-11069484D02*
X40603158Y-11069484D01*
X40603158Y-11069484D02*
X40622205Y-11079008D01*
X40622205Y-11079008D02*
X40631729Y-11088531D01*
X40631729Y-11088531D02*
X40641253Y-11107579D01*
X40641253Y-11107579D02*
X40641253Y-11117103D01*
X40641253Y-11117103D02*
X40631729Y-11136150D01*
X40631729Y-11136150D02*
X40622205Y-11145674D01*
X40622205Y-11145674D02*
X40603158Y-11155198D01*
X40603158Y-11155198D02*
X40565063Y-11155198D01*
X40565063Y-11155198D02*
X40546015Y-11164722D01*
X40546015Y-11164722D02*
X40536491Y-11174246D01*
X40536491Y-11174246D02*
X40526967Y-11193293D01*
X40526967Y-11193293D02*
X40526967Y-11231388D01*
X40526967Y-11231388D02*
X40536491Y-11250436D01*
X40536491Y-11250436D02*
X40546015Y-11259960D01*
X40546015Y-11259960D02*
X40565063Y-11269484D01*
X40565063Y-11269484D02*
X40603158Y-11269484D01*
X40603158Y-11269484D02*
X40622205Y-11259960D01*
X40622205Y-11259960D02*
X40631729Y-11250436D01*
X40631729Y-11250436D02*
X40641253Y-11231388D01*
X40641253Y-11231388D02*
X40641253Y-11193293D01*
X40641253Y-11193293D02*
X40631729Y-11174246D01*
X40631729Y-11174246D02*
X40622205Y-11164722D01*
X40622205Y-11164722D02*
X40603158Y-11155198D01*
X40765063Y-11069484D02*
X40784110Y-11069484D01*
X40784110Y-11069484D02*
X40803158Y-11079008D01*
X40803158Y-11079008D02*
X40812682Y-11088531D01*
X40812682Y-11088531D02*
X40822205Y-11107579D01*
X40822205Y-11107579D02*
X40831729Y-11145674D01*
X40831729Y-11145674D02*
X40831729Y-11193293D01*
X40831729Y-11193293D02*
X40822205Y-11231388D01*
X40822205Y-11231388D02*
X40812682Y-11250436D01*
X40812682Y-11250436D02*
X40803158Y-11259960D01*
X40803158Y-11259960D02*
X40784110Y-11269484D01*
X40784110Y-11269484D02*
X40765063Y-11269484D01*
X40765063Y-11269484D02*
X40746015Y-11259960D01*
X40746015Y-11259960D02*
X40736491Y-11250436D01*
X40736491Y-11250436D02*
X40726967Y-11231388D01*
X40726967Y-11231388D02*
X40717444Y-11193293D01*
X40717444Y-11193293D02*
X40717444Y-11145674D01*
X40717444Y-11145674D02*
X40726967Y-11107579D01*
X40726967Y-11107579D02*
X40736491Y-11088531D01*
X40736491Y-11088531D02*
X40746015Y-11079008D01*
X40746015Y-11079008D02*
X40765063Y-11069484D01*
X40955539Y-11069484D02*
X40974586Y-11069484D01*
X40974586Y-11069484D02*
X40993634Y-11079008D01*
X40993634Y-11079008D02*
X41003158Y-11088531D01*
X41003158Y-11088531D02*
X41012682Y-11107579D01*
X41012682Y-11107579D02*
X41022205Y-11145674D01*
X41022205Y-11145674D02*
X41022205Y-11193293D01*
X41022205Y-11193293D02*
X41012682Y-11231388D01*
X41012682Y-11231388D02*
X41003158Y-11250436D01*
X41003158Y-11250436D02*
X40993634Y-11259960D01*
X40993634Y-11259960D02*
X40974586Y-11269484D01*
X40974586Y-11269484D02*
X40955539Y-11269484D01*
X40955539Y-11269484D02*
X40936491Y-11259960D01*
X40936491Y-11259960D02*
X40926967Y-11250436D01*
X40926967Y-11250436D02*
X40917444Y-11231388D01*
X40917444Y-11231388D02*
X40907920Y-11193293D01*
X40907920Y-11193293D02*
X40907920Y-11145674D01*
X40907920Y-11145674D02*
X40917444Y-11107579D01*
X40917444Y-11107579D02*
X40926967Y-11088531D01*
X40926967Y-11088531D02*
X40936491Y-11079008D01*
X40936491Y-11079008D02*
X40955539Y-11069484D01*
X41107920Y-11269484D02*
X41107920Y-11136150D01*
X41107920Y-11155198D02*
X41117444Y-11145674D01*
X41117444Y-11145674D02*
X41136491Y-11136150D01*
X41136491Y-11136150D02*
X41165063Y-11136150D01*
X41165063Y-11136150D02*
X41184110Y-11145674D01*
X41184110Y-11145674D02*
X41193634Y-11164722D01*
X41193634Y-11164722D02*
X41193634Y-11269484D01*
X41193634Y-11164722D02*
X41203158Y-11145674D01*
X41203158Y-11145674D02*
X41222205Y-11136150D01*
X41222205Y-11136150D02*
X41250777Y-11136150D01*
X41250777Y-11136150D02*
X41269825Y-11145674D01*
X41269825Y-11145674D02*
X41279348Y-11164722D01*
X41279348Y-11164722D02*
X41279348Y-11269484D01*
X41374586Y-11269484D02*
X41374586Y-11136150D01*
X41374586Y-11155198D02*
X41384110Y-11145674D01*
X41384110Y-11145674D02*
X41403158Y-11136150D01*
X41403158Y-11136150D02*
X41431729Y-11136150D01*
X41431729Y-11136150D02*
X41450777Y-11145674D01*
X41450777Y-11145674D02*
X41460301Y-11164722D01*
X41460301Y-11164722D02*
X41460301Y-11269484D01*
X41460301Y-11164722D02*
X41469825Y-11145674D01*
X41469825Y-11145674D02*
X41488872Y-11136150D01*
X41488872Y-11136150D02*
X41517444Y-11136150D01*
X41517444Y-11136150D02*
X41536491Y-11145674D01*
X41536491Y-11145674D02*
X41546015Y-11164722D01*
X41546015Y-11164722D02*
X41546015Y-11269484D01*
X41936491Y-11059960D02*
X41765063Y-11317103D01*
X42193634Y-11069484D02*
X42212682Y-11069484D01*
X42212682Y-11069484D02*
X42231729Y-11079008D01*
X42231729Y-11079008D02*
X42241253Y-11088531D01*
X42241253Y-11088531D02*
X42250777Y-11107579D01*
X42250777Y-11107579D02*
X42260301Y-11145674D01*
X42260301Y-11145674D02*
X42260301Y-11193293D01*
X42260301Y-11193293D02*
X42250777Y-11231388D01*
X42250777Y-11231388D02*
X42241253Y-11250436D01*
X42241253Y-11250436D02*
X42231729Y-11259960D01*
X42231729Y-11259960D02*
X42212682Y-11269484D01*
X42212682Y-11269484D02*
X42193634Y-11269484D01*
X42193634Y-11269484D02*
X42174587Y-11259960D01*
X42174587Y-11259960D02*
X42165063Y-11250436D01*
X42165063Y-11250436D02*
X42155539Y-11231388D01*
X42155539Y-11231388D02*
X42146015Y-11193293D01*
X42146015Y-11193293D02*
X42146015Y-11145674D01*
X42146015Y-11145674D02*
X42155539Y-11107579D01*
X42155539Y-11107579D02*
X42165063Y-11088531D01*
X42165063Y-11088531D02*
X42174587Y-11079008D01*
X42174587Y-11079008D02*
X42193634Y-11069484D01*
X42346015Y-11250436D02*
X42355539Y-11259960D01*
X42355539Y-11259960D02*
X42346015Y-11269484D01*
X42346015Y-11269484D02*
X42336491Y-11259960D01*
X42336491Y-11259960D02*
X42346015Y-11250436D01*
X42346015Y-11250436D02*
X42346015Y-11269484D01*
X42479348Y-11069484D02*
X42498396Y-11069484D01*
X42498396Y-11069484D02*
X42517444Y-11079008D01*
X42517444Y-11079008D02*
X42526968Y-11088531D01*
X42526968Y-11088531D02*
X42536491Y-11107579D01*
X42536491Y-11107579D02*
X42546015Y-11145674D01*
X42546015Y-11145674D02*
X42546015Y-11193293D01*
X42546015Y-11193293D02*
X42536491Y-11231388D01*
X42536491Y-11231388D02*
X42526968Y-11250436D01*
X42526968Y-11250436D02*
X42517444Y-11259960D01*
X42517444Y-11259960D02*
X42498396Y-11269484D01*
X42498396Y-11269484D02*
X42479348Y-11269484D01*
X42479348Y-11269484D02*
X42460301Y-11259960D01*
X42460301Y-11259960D02*
X42450777Y-11250436D01*
X42450777Y-11250436D02*
X42441253Y-11231388D01*
X42441253Y-11231388D02*
X42431729Y-11193293D01*
X42431729Y-11193293D02*
X42431729Y-11145674D01*
X42431729Y-11145674D02*
X42441253Y-11107579D01*
X42441253Y-11107579D02*
X42450777Y-11088531D01*
X42450777Y-11088531D02*
X42460301Y-11079008D01*
X42460301Y-11079008D02*
X42479348Y-11069484D01*
X42612682Y-11069484D02*
X42736491Y-11069484D01*
X42736491Y-11069484D02*
X42669825Y-11145674D01*
X42669825Y-11145674D02*
X42698396Y-11145674D01*
X42698396Y-11145674D02*
X42717444Y-11155198D01*
X42717444Y-11155198D02*
X42726968Y-11164722D01*
X42726968Y-11164722D02*
X42736491Y-11183770D01*
X42736491Y-11183770D02*
X42736491Y-11231388D01*
X42736491Y-11231388D02*
X42726968Y-11250436D01*
X42726968Y-11250436D02*
X42717444Y-11259960D01*
X42717444Y-11259960D02*
X42698396Y-11269484D01*
X42698396Y-11269484D02*
X42641253Y-11269484D01*
X42641253Y-11269484D02*
X42622206Y-11259960D01*
X42622206Y-11259960D02*
X42612682Y-11250436D01*
X42926968Y-11269484D02*
X42812682Y-11269484D01*
X42869825Y-11269484D02*
X42869825Y-11069484D01*
X42869825Y-11069484D02*
X42850777Y-11098055D01*
X42850777Y-11098055D02*
X42831729Y-11117103D01*
X42831729Y-11117103D02*
X42812682Y-11126627D01*
X43107920Y-11069484D02*
X43012682Y-11069484D01*
X43012682Y-11069484D02*
X43003158Y-11164722D01*
X43003158Y-11164722D02*
X43012682Y-11155198D01*
X43012682Y-11155198D02*
X43031729Y-11145674D01*
X43031729Y-11145674D02*
X43079349Y-11145674D01*
X43079349Y-11145674D02*
X43098396Y-11155198D01*
X43098396Y-11155198D02*
X43107920Y-11164722D01*
X43107920Y-11164722D02*
X43117444Y-11183770D01*
X43117444Y-11183770D02*
X43117444Y-11231388D01*
X43117444Y-11231388D02*
X43107920Y-11250436D01*
X43107920Y-11250436D02*
X43098396Y-11259960D01*
X43098396Y-11259960D02*
X43079349Y-11269484D01*
X43079349Y-11269484D02*
X43031729Y-11269484D01*
X43031729Y-11269484D02*
X43012682Y-11259960D01*
X43012682Y-11259960D02*
X43003158Y-11250436D01*
X43193634Y-11069484D02*
X43193634Y-11107579D01*
X43269825Y-11069484D02*
X43269825Y-11107579D01*
X43565063Y-11345674D02*
X43555539Y-11336150D01*
X43555539Y-11336150D02*
X43536491Y-11307579D01*
X43536491Y-11307579D02*
X43526968Y-11288531D01*
X43526968Y-11288531D02*
X43517444Y-11259960D01*
X43517444Y-11259960D02*
X43507920Y-11212341D01*
X43507920Y-11212341D02*
X43507920Y-11174246D01*
X43507920Y-11174246D02*
X43517444Y-11126627D01*
X43517444Y-11126627D02*
X43526968Y-11098055D01*
X43526968Y-11098055D02*
X43536491Y-11079008D01*
X43536491Y-11079008D02*
X43555539Y-11050436D01*
X43555539Y-11050436D02*
X43565063Y-11040912D01*
X43726968Y-11069484D02*
X43688872Y-11069484D01*
X43688872Y-11069484D02*
X43669825Y-11079008D01*
X43669825Y-11079008D02*
X43660301Y-11088531D01*
X43660301Y-11088531D02*
X43641253Y-11117103D01*
X43641253Y-11117103D02*
X43631730Y-11155198D01*
X43631730Y-11155198D02*
X43631730Y-11231388D01*
X43631730Y-11231388D02*
X43641253Y-11250436D01*
X43641253Y-11250436D02*
X43650777Y-11259960D01*
X43650777Y-11259960D02*
X43669825Y-11269484D01*
X43669825Y-11269484D02*
X43707920Y-11269484D01*
X43707920Y-11269484D02*
X43726968Y-11259960D01*
X43726968Y-11259960D02*
X43736491Y-11250436D01*
X43736491Y-11250436D02*
X43746015Y-11231388D01*
X43746015Y-11231388D02*
X43746015Y-11183770D01*
X43746015Y-11183770D02*
X43736491Y-11164722D01*
X43736491Y-11164722D02*
X43726968Y-11155198D01*
X43726968Y-11155198D02*
X43707920Y-11145674D01*
X43707920Y-11145674D02*
X43669825Y-11145674D01*
X43669825Y-11145674D02*
X43650777Y-11155198D01*
X43650777Y-11155198D02*
X43641253Y-11164722D01*
X43641253Y-11164722D02*
X43631730Y-11183770D01*
X43822206Y-11088531D02*
X43831730Y-11079008D01*
X43831730Y-11079008D02*
X43850777Y-11069484D01*
X43850777Y-11069484D02*
X43898396Y-11069484D01*
X43898396Y-11069484D02*
X43917444Y-11079008D01*
X43917444Y-11079008D02*
X43926968Y-11088531D01*
X43926968Y-11088531D02*
X43936491Y-11107579D01*
X43936491Y-11107579D02*
X43936491Y-11126627D01*
X43936491Y-11126627D02*
X43926968Y-11155198D01*
X43926968Y-11155198D02*
X43812682Y-11269484D01*
X43812682Y-11269484D02*
X43936491Y-11269484D01*
X44174587Y-11269484D02*
X44174587Y-11069484D01*
X44260301Y-11269484D02*
X44260301Y-11164722D01*
X44260301Y-11164722D02*
X44250777Y-11145674D01*
X44250777Y-11145674D02*
X44231730Y-11136150D01*
X44231730Y-11136150D02*
X44203158Y-11136150D01*
X44203158Y-11136150D02*
X44184111Y-11145674D01*
X44184111Y-11145674D02*
X44174587Y-11155198D01*
X44384111Y-11269484D02*
X44365063Y-11259960D01*
X44365063Y-11259960D02*
X44355539Y-11250436D01*
X44355539Y-11250436D02*
X44346015Y-11231388D01*
X44346015Y-11231388D02*
X44346015Y-11174246D01*
X44346015Y-11174246D02*
X44355539Y-11155198D01*
X44355539Y-11155198D02*
X44365063Y-11145674D01*
X44365063Y-11145674D02*
X44384111Y-11136150D01*
X44384111Y-11136150D02*
X44412682Y-11136150D01*
X44412682Y-11136150D02*
X44431730Y-11145674D01*
X44431730Y-11145674D02*
X44441253Y-11155198D01*
X44441253Y-11155198D02*
X44450777Y-11174246D01*
X44450777Y-11174246D02*
X44450777Y-11231388D01*
X44450777Y-11231388D02*
X44441253Y-11250436D01*
X44441253Y-11250436D02*
X44431730Y-11259960D01*
X44431730Y-11259960D02*
X44412682Y-11269484D01*
X44412682Y-11269484D02*
X44384111Y-11269484D01*
X44565063Y-11269484D02*
X44546015Y-11259960D01*
X44546015Y-11259960D02*
X44536492Y-11240912D01*
X44536492Y-11240912D02*
X44536492Y-11069484D01*
X44717444Y-11259960D02*
X44698396Y-11269484D01*
X44698396Y-11269484D02*
X44660301Y-11269484D01*
X44660301Y-11269484D02*
X44641253Y-11259960D01*
X44641253Y-11259960D02*
X44631730Y-11240912D01*
X44631730Y-11240912D02*
X44631730Y-11164722D01*
X44631730Y-11164722D02*
X44641253Y-11145674D01*
X44641253Y-11145674D02*
X44660301Y-11136150D01*
X44660301Y-11136150D02*
X44698396Y-11136150D01*
X44698396Y-11136150D02*
X44717444Y-11145674D01*
X44717444Y-11145674D02*
X44726968Y-11164722D01*
X44726968Y-11164722D02*
X44726968Y-11183770D01*
X44726968Y-11183770D02*
X44631730Y-11202817D01*
X44803158Y-11259960D02*
X44822206Y-11269484D01*
X44822206Y-11269484D02*
X44860301Y-11269484D01*
X44860301Y-11269484D02*
X44879349Y-11259960D01*
X44879349Y-11259960D02*
X44888872Y-11240912D01*
X44888872Y-11240912D02*
X44888872Y-11231388D01*
X44888872Y-11231388D02*
X44879349Y-11212341D01*
X44879349Y-11212341D02*
X44860301Y-11202817D01*
X44860301Y-11202817D02*
X44831730Y-11202817D01*
X44831730Y-11202817D02*
X44812682Y-11193293D01*
X44812682Y-11193293D02*
X44803158Y-11174246D01*
X44803158Y-11174246D02*
X44803158Y-11164722D01*
X44803158Y-11164722D02*
X44812682Y-11145674D01*
X44812682Y-11145674D02*
X44831730Y-11136150D01*
X44831730Y-11136150D02*
X44860301Y-11136150D01*
X44860301Y-11136150D02*
X44879349Y-11145674D01*
X44955539Y-11345674D02*
X44965063Y-11336150D01*
X44965063Y-11336150D02*
X44984111Y-11307579D01*
X44984111Y-11307579D02*
X44993634Y-11288531D01*
X44993634Y-11288531D02*
X45003158Y-11259960D01*
X45003158Y-11259960D02*
X45012682Y-11212341D01*
X45012682Y-11212341D02*
X45012682Y-11174246D01*
X45012682Y-11174246D02*
X45003158Y-11126627D01*
X45003158Y-11126627D02*
X44993634Y-11098055D01*
X44993634Y-11098055D02*
X44984111Y-11079008D01*
X44984111Y-11079008D02*
X44965063Y-11050436D01*
X44965063Y-11050436D02*
X44955539Y-11040912D01*
D13*
X39975356Y-11477356D02*
X39975356Y-11406644D01*
X39904644Y-11406644D01*
X39904644Y-11477356D01*
X39975356Y-11477356D01*
D10*
X40355539Y-11533484D02*
X40241253Y-11533484D01*
X40298396Y-11533484D02*
X40298396Y-11333484D01*
X40298396Y-11333484D02*
X40279348Y-11362055D01*
X40279348Y-11362055D02*
X40260301Y-11381103D01*
X40260301Y-11381103D02*
X40241253Y-11390627D01*
X40441253Y-11514436D02*
X40450777Y-11523960D01*
X40450777Y-11523960D02*
X40441253Y-11533484D01*
X40441253Y-11533484D02*
X40431729Y-11523960D01*
X40431729Y-11523960D02*
X40441253Y-11514436D01*
X40441253Y-11514436D02*
X40441253Y-11533484D01*
X40574586Y-11333484D02*
X40593634Y-11333484D01*
X40593634Y-11333484D02*
X40612682Y-11343008D01*
X40612682Y-11343008D02*
X40622205Y-11352531D01*
X40622205Y-11352531D02*
X40631729Y-11371579D01*
X40631729Y-11371579D02*
X40641253Y-11409674D01*
X40641253Y-11409674D02*
X40641253Y-11457293D01*
X40641253Y-11457293D02*
X40631729Y-11495388D01*
X40631729Y-11495388D02*
X40622205Y-11514436D01*
X40622205Y-11514436D02*
X40612682Y-11523960D01*
X40612682Y-11523960D02*
X40593634Y-11533484D01*
X40593634Y-11533484D02*
X40574586Y-11533484D01*
X40574586Y-11533484D02*
X40555539Y-11523960D01*
X40555539Y-11523960D02*
X40546015Y-11514436D01*
X40546015Y-11514436D02*
X40536491Y-11495388D01*
X40536491Y-11495388D02*
X40526967Y-11457293D01*
X40526967Y-11457293D02*
X40526967Y-11409674D01*
X40526967Y-11409674D02*
X40536491Y-11371579D01*
X40536491Y-11371579D02*
X40546015Y-11352531D01*
X40546015Y-11352531D02*
X40555539Y-11343008D01*
X40555539Y-11343008D02*
X40574586Y-11333484D01*
X40765063Y-11333484D02*
X40784110Y-11333484D01*
X40784110Y-11333484D02*
X40803158Y-11343008D01*
X40803158Y-11343008D02*
X40812682Y-11352531D01*
X40812682Y-11352531D02*
X40822205Y-11371579D01*
X40822205Y-11371579D02*
X40831729Y-11409674D01*
X40831729Y-11409674D02*
X40831729Y-11457293D01*
X40831729Y-11457293D02*
X40822205Y-11495388D01*
X40822205Y-11495388D02*
X40812682Y-11514436D01*
X40812682Y-11514436D02*
X40803158Y-11523960D01*
X40803158Y-11523960D02*
X40784110Y-11533484D01*
X40784110Y-11533484D02*
X40765063Y-11533484D01*
X40765063Y-11533484D02*
X40746015Y-11523960D01*
X40746015Y-11523960D02*
X40736491Y-11514436D01*
X40736491Y-11514436D02*
X40726967Y-11495388D01*
X40726967Y-11495388D02*
X40717444Y-11457293D01*
X40717444Y-11457293D02*
X40717444Y-11409674D01*
X40717444Y-11409674D02*
X40726967Y-11371579D01*
X40726967Y-11371579D02*
X40736491Y-11352531D01*
X40736491Y-11352531D02*
X40746015Y-11343008D01*
X40746015Y-11343008D02*
X40765063Y-11333484D01*
X40955539Y-11333484D02*
X40974586Y-11333484D01*
X40974586Y-11333484D02*
X40993634Y-11343008D01*
X40993634Y-11343008D02*
X41003158Y-11352531D01*
X41003158Y-11352531D02*
X41012682Y-11371579D01*
X41012682Y-11371579D02*
X41022205Y-11409674D01*
X41022205Y-11409674D02*
X41022205Y-11457293D01*
X41022205Y-11457293D02*
X41012682Y-11495388D01*
X41012682Y-11495388D02*
X41003158Y-11514436D01*
X41003158Y-11514436D02*
X40993634Y-11523960D01*
X40993634Y-11523960D02*
X40974586Y-11533484D01*
X40974586Y-11533484D02*
X40955539Y-11533484D01*
X40955539Y-11533484D02*
X40936491Y-11523960D01*
X40936491Y-11523960D02*
X40926967Y-11514436D01*
X40926967Y-11514436D02*
X40917444Y-11495388D01*
X40917444Y-11495388D02*
X40907920Y-11457293D01*
X40907920Y-11457293D02*
X40907920Y-11409674D01*
X40907920Y-11409674D02*
X40917444Y-11371579D01*
X40917444Y-11371579D02*
X40926967Y-11352531D01*
X40926967Y-11352531D02*
X40936491Y-11343008D01*
X40936491Y-11343008D02*
X40955539Y-11333484D01*
X41107920Y-11533484D02*
X41107920Y-11400150D01*
X41107920Y-11419198D02*
X41117444Y-11409674D01*
X41117444Y-11409674D02*
X41136491Y-11400150D01*
X41136491Y-11400150D02*
X41165063Y-11400150D01*
X41165063Y-11400150D02*
X41184110Y-11409674D01*
X41184110Y-11409674D02*
X41193634Y-11428722D01*
X41193634Y-11428722D02*
X41193634Y-11533484D01*
X41193634Y-11428722D02*
X41203158Y-11409674D01*
X41203158Y-11409674D02*
X41222205Y-11400150D01*
X41222205Y-11400150D02*
X41250777Y-11400150D01*
X41250777Y-11400150D02*
X41269825Y-11409674D01*
X41269825Y-11409674D02*
X41279348Y-11428722D01*
X41279348Y-11428722D02*
X41279348Y-11533484D01*
X41374586Y-11533484D02*
X41374586Y-11400150D01*
X41374586Y-11419198D02*
X41384110Y-11409674D01*
X41384110Y-11409674D02*
X41403158Y-11400150D01*
X41403158Y-11400150D02*
X41431729Y-11400150D01*
X41431729Y-11400150D02*
X41450777Y-11409674D01*
X41450777Y-11409674D02*
X41460301Y-11428722D01*
X41460301Y-11428722D02*
X41460301Y-11533484D01*
X41460301Y-11428722D02*
X41469825Y-11409674D01*
X41469825Y-11409674D02*
X41488872Y-11400150D01*
X41488872Y-11400150D02*
X41517444Y-11400150D01*
X41517444Y-11400150D02*
X41536491Y-11409674D01*
X41536491Y-11409674D02*
X41546015Y-11428722D01*
X41546015Y-11428722D02*
X41546015Y-11533484D01*
X41936491Y-11323960D02*
X41765063Y-11581103D01*
X42193634Y-11333484D02*
X42212682Y-11333484D01*
X42212682Y-11333484D02*
X42231729Y-11343008D01*
X42231729Y-11343008D02*
X42241253Y-11352531D01*
X42241253Y-11352531D02*
X42250777Y-11371579D01*
X42250777Y-11371579D02*
X42260301Y-11409674D01*
X42260301Y-11409674D02*
X42260301Y-11457293D01*
X42260301Y-11457293D02*
X42250777Y-11495388D01*
X42250777Y-11495388D02*
X42241253Y-11514436D01*
X42241253Y-11514436D02*
X42231729Y-11523960D01*
X42231729Y-11523960D02*
X42212682Y-11533484D01*
X42212682Y-11533484D02*
X42193634Y-11533484D01*
X42193634Y-11533484D02*
X42174587Y-11523960D01*
X42174587Y-11523960D02*
X42165063Y-11514436D01*
X42165063Y-11514436D02*
X42155539Y-11495388D01*
X42155539Y-11495388D02*
X42146015Y-11457293D01*
X42146015Y-11457293D02*
X42146015Y-11409674D01*
X42146015Y-11409674D02*
X42155539Y-11371579D01*
X42155539Y-11371579D02*
X42165063Y-11352531D01*
X42165063Y-11352531D02*
X42174587Y-11343008D01*
X42174587Y-11343008D02*
X42193634Y-11333484D01*
X42346015Y-11514436D02*
X42355539Y-11523960D01*
X42355539Y-11523960D02*
X42346015Y-11533484D01*
X42346015Y-11533484D02*
X42336491Y-11523960D01*
X42336491Y-11523960D02*
X42346015Y-11514436D01*
X42346015Y-11514436D02*
X42346015Y-11533484D01*
X42479348Y-11333484D02*
X42498396Y-11333484D01*
X42498396Y-11333484D02*
X42517444Y-11343008D01*
X42517444Y-11343008D02*
X42526968Y-11352531D01*
X42526968Y-11352531D02*
X42536491Y-11371579D01*
X42536491Y-11371579D02*
X42546015Y-11409674D01*
X42546015Y-11409674D02*
X42546015Y-11457293D01*
X42546015Y-11457293D02*
X42536491Y-11495388D01*
X42536491Y-11495388D02*
X42526968Y-11514436D01*
X42526968Y-11514436D02*
X42517444Y-11523960D01*
X42517444Y-11523960D02*
X42498396Y-11533484D01*
X42498396Y-11533484D02*
X42479348Y-11533484D01*
X42479348Y-11533484D02*
X42460301Y-11523960D01*
X42460301Y-11523960D02*
X42450777Y-11514436D01*
X42450777Y-11514436D02*
X42441253Y-11495388D01*
X42441253Y-11495388D02*
X42431729Y-11457293D01*
X42431729Y-11457293D02*
X42431729Y-11409674D01*
X42431729Y-11409674D02*
X42441253Y-11371579D01*
X42441253Y-11371579D02*
X42450777Y-11352531D01*
X42450777Y-11352531D02*
X42460301Y-11343008D01*
X42460301Y-11343008D02*
X42479348Y-11333484D01*
X42612682Y-11333484D02*
X42736491Y-11333484D01*
X42736491Y-11333484D02*
X42669825Y-11409674D01*
X42669825Y-11409674D02*
X42698396Y-11409674D01*
X42698396Y-11409674D02*
X42717444Y-11419198D01*
X42717444Y-11419198D02*
X42726968Y-11428722D01*
X42726968Y-11428722D02*
X42736491Y-11447769D01*
X42736491Y-11447769D02*
X42736491Y-11495388D01*
X42736491Y-11495388D02*
X42726968Y-11514436D01*
X42726968Y-11514436D02*
X42717444Y-11523960D01*
X42717444Y-11523960D02*
X42698396Y-11533484D01*
X42698396Y-11533484D02*
X42641253Y-11533484D01*
X42641253Y-11533484D02*
X42622206Y-11523960D01*
X42622206Y-11523960D02*
X42612682Y-11514436D01*
X42831729Y-11533484D02*
X42869825Y-11533484D01*
X42869825Y-11533484D02*
X42888872Y-11523960D01*
X42888872Y-11523960D02*
X42898396Y-11514436D01*
X42898396Y-11514436D02*
X42917444Y-11485865D01*
X42917444Y-11485865D02*
X42926968Y-11447769D01*
X42926968Y-11447769D02*
X42926968Y-11371579D01*
X42926968Y-11371579D02*
X42917444Y-11352531D01*
X42917444Y-11352531D02*
X42907920Y-11343008D01*
X42907920Y-11343008D02*
X42888872Y-11333484D01*
X42888872Y-11333484D02*
X42850777Y-11333484D01*
X42850777Y-11333484D02*
X42831729Y-11343008D01*
X42831729Y-11343008D02*
X42822206Y-11352531D01*
X42822206Y-11352531D02*
X42812682Y-11371579D01*
X42812682Y-11371579D02*
X42812682Y-11419198D01*
X42812682Y-11419198D02*
X42822206Y-11438246D01*
X42822206Y-11438246D02*
X42831729Y-11447769D01*
X42831729Y-11447769D02*
X42850777Y-11457293D01*
X42850777Y-11457293D02*
X42888872Y-11457293D01*
X42888872Y-11457293D02*
X42907920Y-11447769D01*
X42907920Y-11447769D02*
X42917444Y-11438246D01*
X42917444Y-11438246D02*
X42926968Y-11419198D01*
X43098396Y-11400150D02*
X43098396Y-11533484D01*
X43050777Y-11323960D02*
X43003158Y-11466817D01*
X43003158Y-11466817D02*
X43126968Y-11466817D01*
X43193634Y-11333484D02*
X43193634Y-11371579D01*
X43269825Y-11333484D02*
X43269825Y-11371579D01*
X43565063Y-11609674D02*
X43555539Y-11600150D01*
X43555539Y-11600150D02*
X43536491Y-11571579D01*
X43536491Y-11571579D02*
X43526968Y-11552531D01*
X43526968Y-11552531D02*
X43517444Y-11523960D01*
X43517444Y-11523960D02*
X43507920Y-11476341D01*
X43507920Y-11476341D02*
X43507920Y-11438246D01*
X43507920Y-11438246D02*
X43517444Y-11390627D01*
X43517444Y-11390627D02*
X43526968Y-11362055D01*
X43526968Y-11362055D02*
X43536491Y-11343008D01*
X43536491Y-11343008D02*
X43555539Y-11314436D01*
X43555539Y-11314436D02*
X43565063Y-11304912D01*
X43736491Y-11333484D02*
X43641253Y-11333484D01*
X43641253Y-11333484D02*
X43631730Y-11428722D01*
X43631730Y-11428722D02*
X43641253Y-11419198D01*
X43641253Y-11419198D02*
X43660301Y-11409674D01*
X43660301Y-11409674D02*
X43707920Y-11409674D01*
X43707920Y-11409674D02*
X43726968Y-11419198D01*
X43726968Y-11419198D02*
X43736491Y-11428722D01*
X43736491Y-11428722D02*
X43746015Y-11447769D01*
X43746015Y-11447769D02*
X43746015Y-11495388D01*
X43746015Y-11495388D02*
X43736491Y-11514436D01*
X43736491Y-11514436D02*
X43726968Y-11523960D01*
X43726968Y-11523960D02*
X43707920Y-11533484D01*
X43707920Y-11533484D02*
X43660301Y-11533484D01*
X43660301Y-11533484D02*
X43641253Y-11523960D01*
X43641253Y-11523960D02*
X43631730Y-11514436D01*
X43812682Y-11333484D02*
X43936491Y-11333484D01*
X43936491Y-11333484D02*
X43869825Y-11409674D01*
X43869825Y-11409674D02*
X43898396Y-11409674D01*
X43898396Y-11409674D02*
X43917444Y-11419198D01*
X43917444Y-11419198D02*
X43926968Y-11428722D01*
X43926968Y-11428722D02*
X43936491Y-11447769D01*
X43936491Y-11447769D02*
X43936491Y-11495388D01*
X43936491Y-11495388D02*
X43926968Y-11514436D01*
X43926968Y-11514436D02*
X43917444Y-11523960D01*
X43917444Y-11523960D02*
X43898396Y-11533484D01*
X43898396Y-11533484D02*
X43841253Y-11533484D01*
X43841253Y-11533484D02*
X43822206Y-11523960D01*
X43822206Y-11523960D02*
X43812682Y-11514436D01*
X44060301Y-11333484D02*
X44079349Y-11333484D01*
X44079349Y-11333484D02*
X44098396Y-11343008D01*
X44098396Y-11343008D02*
X44107920Y-11352531D01*
X44107920Y-11352531D02*
X44117444Y-11371579D01*
X44117444Y-11371579D02*
X44126968Y-11409674D01*
X44126968Y-11409674D02*
X44126968Y-11457293D01*
X44126968Y-11457293D02*
X44117444Y-11495388D01*
X44117444Y-11495388D02*
X44107920Y-11514436D01*
X44107920Y-11514436D02*
X44098396Y-11523960D01*
X44098396Y-11523960D02*
X44079349Y-11533484D01*
X44079349Y-11533484D02*
X44060301Y-11533484D01*
X44060301Y-11533484D02*
X44041253Y-11523960D01*
X44041253Y-11523960D02*
X44031730Y-11514436D01*
X44031730Y-11514436D02*
X44022206Y-11495388D01*
X44022206Y-11495388D02*
X44012682Y-11457293D01*
X44012682Y-11457293D02*
X44012682Y-11409674D01*
X44012682Y-11409674D02*
X44022206Y-11371579D01*
X44022206Y-11371579D02*
X44031730Y-11352531D01*
X44031730Y-11352531D02*
X44041253Y-11343008D01*
X44041253Y-11343008D02*
X44060301Y-11333484D01*
X44365063Y-11533484D02*
X44365063Y-11333484D01*
X44450777Y-11533484D02*
X44450777Y-11428722D01*
X44450777Y-11428722D02*
X44441253Y-11409674D01*
X44441253Y-11409674D02*
X44422206Y-11400150D01*
X44422206Y-11400150D02*
X44393634Y-11400150D01*
X44393634Y-11400150D02*
X44374587Y-11409674D01*
X44374587Y-11409674D02*
X44365063Y-11419198D01*
X44574587Y-11533484D02*
X44555539Y-11523960D01*
X44555539Y-11523960D02*
X44546015Y-11514436D01*
X44546015Y-11514436D02*
X44536492Y-11495388D01*
X44536492Y-11495388D02*
X44536492Y-11438246D01*
X44536492Y-11438246D02*
X44546015Y-11419198D01*
X44546015Y-11419198D02*
X44555539Y-11409674D01*
X44555539Y-11409674D02*
X44574587Y-11400150D01*
X44574587Y-11400150D02*
X44603158Y-11400150D01*
X44603158Y-11400150D02*
X44622206Y-11409674D01*
X44622206Y-11409674D02*
X44631730Y-11419198D01*
X44631730Y-11419198D02*
X44641253Y-11438246D01*
X44641253Y-11438246D02*
X44641253Y-11495388D01*
X44641253Y-11495388D02*
X44631730Y-11514436D01*
X44631730Y-11514436D02*
X44622206Y-11523960D01*
X44622206Y-11523960D02*
X44603158Y-11533484D01*
X44603158Y-11533484D02*
X44574587Y-11533484D01*
X44755539Y-11533484D02*
X44736492Y-11523960D01*
X44736492Y-11523960D02*
X44726968Y-11504912D01*
X44726968Y-11504912D02*
X44726968Y-11333484D01*
X44907920Y-11523960D02*
X44888872Y-11533484D01*
X44888872Y-11533484D02*
X44850777Y-11533484D01*
X44850777Y-11533484D02*
X44831730Y-11523960D01*
X44831730Y-11523960D02*
X44822206Y-11504912D01*
X44822206Y-11504912D02*
X44822206Y-11428722D01*
X44822206Y-11428722D02*
X44831730Y-11409674D01*
X44831730Y-11409674D02*
X44850777Y-11400150D01*
X44850777Y-11400150D02*
X44888872Y-11400150D01*
X44888872Y-11400150D02*
X44907920Y-11409674D01*
X44907920Y-11409674D02*
X44917444Y-11428722D01*
X44917444Y-11428722D02*
X44917444Y-11447769D01*
X44917444Y-11447769D02*
X44822206Y-11466817D01*
X44993634Y-11523960D02*
X45012682Y-11533484D01*
X45012682Y-11533484D02*
X45050777Y-11533484D01*
X45050777Y-11533484D02*
X45069825Y-11523960D01*
X45069825Y-11523960D02*
X45079349Y-11504912D01*
X45079349Y-11504912D02*
X45079349Y-11495388D01*
X45079349Y-11495388D02*
X45069825Y-11476341D01*
X45069825Y-11476341D02*
X45050777Y-11466817D01*
X45050777Y-11466817D02*
X45022206Y-11466817D01*
X45022206Y-11466817D02*
X45003158Y-11457293D01*
X45003158Y-11457293D02*
X44993634Y-11438246D01*
X44993634Y-11438246D02*
X44993634Y-11428722D01*
X44993634Y-11428722D02*
X45003158Y-11409674D01*
X45003158Y-11409674D02*
X45022206Y-11400150D01*
X45022206Y-11400150D02*
X45050777Y-11400150D01*
X45050777Y-11400150D02*
X45069825Y-11409674D01*
X45146015Y-11609674D02*
X45155539Y-11600150D01*
X45155539Y-11600150D02*
X45174587Y-11571579D01*
X45174587Y-11571579D02*
X45184111Y-11552531D01*
X45184111Y-11552531D02*
X45193634Y-11523960D01*
X45193634Y-11523960D02*
X45203158Y-11476341D01*
X45203158Y-11476341D02*
X45203158Y-11438246D01*
X45203158Y-11438246D02*
X45193634Y-11390627D01*
X45193634Y-11390627D02*
X45184111Y-11362055D01*
X45184111Y-11362055D02*
X45174587Y-11343008D01*
X45174587Y-11343008D02*
X45155539Y-11314436D01*
X45155539Y-11314436D02*
X45146015Y-11304912D01*
D14*
X39935000Y-11761000D02*
X39990000Y-11706000D01*
X39935000Y-11651000D01*
X39880000Y-11706000D01*
X39935000Y-11761000D01*
D10*
X40355539Y-11797484D02*
X40241253Y-11797484D01*
X40298396Y-11797484D02*
X40298396Y-11597484D01*
X40298396Y-11597484D02*
X40279348Y-11626055D01*
X40279348Y-11626055D02*
X40260301Y-11645103D01*
X40260301Y-11645103D02*
X40241253Y-11654627D01*
X40441253Y-11778436D02*
X40450777Y-11787960D01*
X40450777Y-11787960D02*
X40441253Y-11797484D01*
X40441253Y-11797484D02*
X40431729Y-11787960D01*
X40431729Y-11787960D02*
X40441253Y-11778436D01*
X40441253Y-11778436D02*
X40441253Y-11797484D01*
X40641253Y-11797484D02*
X40526967Y-11797484D01*
X40584110Y-11797484D02*
X40584110Y-11597484D01*
X40584110Y-11597484D02*
X40565063Y-11626055D01*
X40565063Y-11626055D02*
X40546015Y-11645103D01*
X40546015Y-11645103D02*
X40526967Y-11654627D01*
X40765063Y-11597484D02*
X40784110Y-11597484D01*
X40784110Y-11597484D02*
X40803158Y-11607008D01*
X40803158Y-11607008D02*
X40812682Y-11616531D01*
X40812682Y-11616531D02*
X40822205Y-11635579D01*
X40822205Y-11635579D02*
X40831729Y-11673674D01*
X40831729Y-11673674D02*
X40831729Y-11721293D01*
X40831729Y-11721293D02*
X40822205Y-11759388D01*
X40822205Y-11759388D02*
X40812682Y-11778436D01*
X40812682Y-11778436D02*
X40803158Y-11787960D01*
X40803158Y-11787960D02*
X40784110Y-11797484D01*
X40784110Y-11797484D02*
X40765063Y-11797484D01*
X40765063Y-11797484D02*
X40746015Y-11787960D01*
X40746015Y-11787960D02*
X40736491Y-11778436D01*
X40736491Y-11778436D02*
X40726967Y-11759388D01*
X40726967Y-11759388D02*
X40717444Y-11721293D01*
X40717444Y-11721293D02*
X40717444Y-11673674D01*
X40717444Y-11673674D02*
X40726967Y-11635579D01*
X40726967Y-11635579D02*
X40736491Y-11616531D01*
X40736491Y-11616531D02*
X40746015Y-11607008D01*
X40746015Y-11607008D02*
X40765063Y-11597484D01*
X40955539Y-11597484D02*
X40974586Y-11597484D01*
X40974586Y-11597484D02*
X40993634Y-11607008D01*
X40993634Y-11607008D02*
X41003158Y-11616531D01*
X41003158Y-11616531D02*
X41012682Y-11635579D01*
X41012682Y-11635579D02*
X41022205Y-11673674D01*
X41022205Y-11673674D02*
X41022205Y-11721293D01*
X41022205Y-11721293D02*
X41012682Y-11759388D01*
X41012682Y-11759388D02*
X41003158Y-11778436D01*
X41003158Y-11778436D02*
X40993634Y-11787960D01*
X40993634Y-11787960D02*
X40974586Y-11797484D01*
X40974586Y-11797484D02*
X40955539Y-11797484D01*
X40955539Y-11797484D02*
X40936491Y-11787960D01*
X40936491Y-11787960D02*
X40926967Y-11778436D01*
X40926967Y-11778436D02*
X40917444Y-11759388D01*
X40917444Y-11759388D02*
X40907920Y-11721293D01*
X40907920Y-11721293D02*
X40907920Y-11673674D01*
X40907920Y-11673674D02*
X40917444Y-11635579D01*
X40917444Y-11635579D02*
X40926967Y-11616531D01*
X40926967Y-11616531D02*
X40936491Y-11607008D01*
X40936491Y-11607008D02*
X40955539Y-11597484D01*
X41107920Y-11797484D02*
X41107920Y-11664150D01*
X41107920Y-11683198D02*
X41117444Y-11673674D01*
X41117444Y-11673674D02*
X41136491Y-11664150D01*
X41136491Y-11664150D02*
X41165063Y-11664150D01*
X41165063Y-11664150D02*
X41184110Y-11673674D01*
X41184110Y-11673674D02*
X41193634Y-11692722D01*
X41193634Y-11692722D02*
X41193634Y-11797484D01*
X41193634Y-11692722D02*
X41203158Y-11673674D01*
X41203158Y-11673674D02*
X41222205Y-11664150D01*
X41222205Y-11664150D02*
X41250777Y-11664150D01*
X41250777Y-11664150D02*
X41269825Y-11673674D01*
X41269825Y-11673674D02*
X41279348Y-11692722D01*
X41279348Y-11692722D02*
X41279348Y-11797484D01*
X41374586Y-11797484D02*
X41374586Y-11664150D01*
X41374586Y-11683198D02*
X41384110Y-11673674D01*
X41384110Y-11673674D02*
X41403158Y-11664150D01*
X41403158Y-11664150D02*
X41431729Y-11664150D01*
X41431729Y-11664150D02*
X41450777Y-11673674D01*
X41450777Y-11673674D02*
X41460301Y-11692722D01*
X41460301Y-11692722D02*
X41460301Y-11797484D01*
X41460301Y-11692722D02*
X41469825Y-11673674D01*
X41469825Y-11673674D02*
X41488872Y-11664150D01*
X41488872Y-11664150D02*
X41517444Y-11664150D01*
X41517444Y-11664150D02*
X41536491Y-11673674D01*
X41536491Y-11673674D02*
X41546015Y-11692722D01*
X41546015Y-11692722D02*
X41546015Y-11797484D01*
X41936491Y-11587960D02*
X41765063Y-11845103D01*
X42193634Y-11597484D02*
X42212682Y-11597484D01*
X42212682Y-11597484D02*
X42231729Y-11607008D01*
X42231729Y-11607008D02*
X42241253Y-11616531D01*
X42241253Y-11616531D02*
X42250777Y-11635579D01*
X42250777Y-11635579D02*
X42260301Y-11673674D01*
X42260301Y-11673674D02*
X42260301Y-11721293D01*
X42260301Y-11721293D02*
X42250777Y-11759388D01*
X42250777Y-11759388D02*
X42241253Y-11778436D01*
X42241253Y-11778436D02*
X42231729Y-11787960D01*
X42231729Y-11787960D02*
X42212682Y-11797484D01*
X42212682Y-11797484D02*
X42193634Y-11797484D01*
X42193634Y-11797484D02*
X42174587Y-11787960D01*
X42174587Y-11787960D02*
X42165063Y-11778436D01*
X42165063Y-11778436D02*
X42155539Y-11759388D01*
X42155539Y-11759388D02*
X42146015Y-11721293D01*
X42146015Y-11721293D02*
X42146015Y-11673674D01*
X42146015Y-11673674D02*
X42155539Y-11635579D01*
X42155539Y-11635579D02*
X42165063Y-11616531D01*
X42165063Y-11616531D02*
X42174587Y-11607008D01*
X42174587Y-11607008D02*
X42193634Y-11597484D01*
X42346015Y-11778436D02*
X42355539Y-11787960D01*
X42355539Y-11787960D02*
X42346015Y-11797484D01*
X42346015Y-11797484D02*
X42336491Y-11787960D01*
X42336491Y-11787960D02*
X42346015Y-11778436D01*
X42346015Y-11778436D02*
X42346015Y-11797484D01*
X42479348Y-11597484D02*
X42498396Y-11597484D01*
X42498396Y-11597484D02*
X42517444Y-11607008D01*
X42517444Y-11607008D02*
X42526968Y-11616531D01*
X42526968Y-11616531D02*
X42536491Y-11635579D01*
X42536491Y-11635579D02*
X42546015Y-11673674D01*
X42546015Y-11673674D02*
X42546015Y-11721293D01*
X42546015Y-11721293D02*
X42536491Y-11759388D01*
X42536491Y-11759388D02*
X42526968Y-11778436D01*
X42526968Y-11778436D02*
X42517444Y-11787960D01*
X42517444Y-11787960D02*
X42498396Y-11797484D01*
X42498396Y-11797484D02*
X42479348Y-11797484D01*
X42479348Y-11797484D02*
X42460301Y-11787960D01*
X42460301Y-11787960D02*
X42450777Y-11778436D01*
X42450777Y-11778436D02*
X42441253Y-11759388D01*
X42441253Y-11759388D02*
X42431729Y-11721293D01*
X42431729Y-11721293D02*
X42431729Y-11673674D01*
X42431729Y-11673674D02*
X42441253Y-11635579D01*
X42441253Y-11635579D02*
X42450777Y-11616531D01*
X42450777Y-11616531D02*
X42460301Y-11607008D01*
X42460301Y-11607008D02*
X42479348Y-11597484D01*
X42717444Y-11664150D02*
X42717444Y-11797484D01*
X42669825Y-11587960D02*
X42622206Y-11730817D01*
X42622206Y-11730817D02*
X42746015Y-11730817D01*
X42803158Y-11597484D02*
X42926968Y-11597484D01*
X42926968Y-11597484D02*
X42860301Y-11673674D01*
X42860301Y-11673674D02*
X42888872Y-11673674D01*
X42888872Y-11673674D02*
X42907920Y-11683198D01*
X42907920Y-11683198D02*
X42917444Y-11692722D01*
X42917444Y-11692722D02*
X42926968Y-11711769D01*
X42926968Y-11711769D02*
X42926968Y-11759388D01*
X42926968Y-11759388D02*
X42917444Y-11778436D01*
X42917444Y-11778436D02*
X42907920Y-11787960D01*
X42907920Y-11787960D02*
X42888872Y-11797484D01*
X42888872Y-11797484D02*
X42831729Y-11797484D01*
X42831729Y-11797484D02*
X42812682Y-11787960D01*
X42812682Y-11787960D02*
X42803158Y-11778436D01*
X42993634Y-11597484D02*
X43117444Y-11597484D01*
X43117444Y-11597484D02*
X43050777Y-11673674D01*
X43050777Y-11673674D02*
X43079349Y-11673674D01*
X43079349Y-11673674D02*
X43098396Y-11683198D01*
X43098396Y-11683198D02*
X43107920Y-11692722D01*
X43107920Y-11692722D02*
X43117444Y-11711769D01*
X43117444Y-11711769D02*
X43117444Y-11759388D01*
X43117444Y-11759388D02*
X43107920Y-11778436D01*
X43107920Y-11778436D02*
X43098396Y-11787960D01*
X43098396Y-11787960D02*
X43079349Y-11797484D01*
X43079349Y-11797484D02*
X43022206Y-11797484D01*
X43022206Y-11797484D02*
X43003158Y-11787960D01*
X43003158Y-11787960D02*
X42993634Y-11778436D01*
X43193634Y-11597484D02*
X43193634Y-11635579D01*
X43269825Y-11597484D02*
X43269825Y-11635579D01*
X43565063Y-11873674D02*
X43555539Y-11864150D01*
X43555539Y-11864150D02*
X43536491Y-11835579D01*
X43536491Y-11835579D02*
X43526968Y-11816531D01*
X43526968Y-11816531D02*
X43517444Y-11787960D01*
X43517444Y-11787960D02*
X43507920Y-11740341D01*
X43507920Y-11740341D02*
X43507920Y-11702246D01*
X43507920Y-11702246D02*
X43517444Y-11654627D01*
X43517444Y-11654627D02*
X43526968Y-11626055D01*
X43526968Y-11626055D02*
X43536491Y-11607008D01*
X43536491Y-11607008D02*
X43555539Y-11578436D01*
X43555539Y-11578436D02*
X43565063Y-11568912D01*
X43679349Y-11597484D02*
X43698396Y-11597484D01*
X43698396Y-11597484D02*
X43717444Y-11607008D01*
X43717444Y-11607008D02*
X43726968Y-11616531D01*
X43726968Y-11616531D02*
X43736491Y-11635579D01*
X43736491Y-11635579D02*
X43746015Y-11673674D01*
X43746015Y-11673674D02*
X43746015Y-11721293D01*
X43746015Y-11721293D02*
X43736491Y-11759388D01*
X43736491Y-11759388D02*
X43726968Y-11778436D01*
X43726968Y-11778436D02*
X43717444Y-11787960D01*
X43717444Y-11787960D02*
X43698396Y-11797484D01*
X43698396Y-11797484D02*
X43679349Y-11797484D01*
X43679349Y-11797484D02*
X43660301Y-11787960D01*
X43660301Y-11787960D02*
X43650777Y-11778436D01*
X43650777Y-11778436D02*
X43641253Y-11759388D01*
X43641253Y-11759388D02*
X43631730Y-11721293D01*
X43631730Y-11721293D02*
X43631730Y-11673674D01*
X43631730Y-11673674D02*
X43641253Y-11635579D01*
X43641253Y-11635579D02*
X43650777Y-11616531D01*
X43650777Y-11616531D02*
X43660301Y-11607008D01*
X43660301Y-11607008D02*
X43679349Y-11597484D01*
X43984111Y-11797484D02*
X43984111Y-11597484D01*
X44069825Y-11797484D02*
X44069825Y-11692722D01*
X44069825Y-11692722D02*
X44060301Y-11673674D01*
X44060301Y-11673674D02*
X44041253Y-11664150D01*
X44041253Y-11664150D02*
X44012682Y-11664150D01*
X44012682Y-11664150D02*
X43993634Y-11673674D01*
X43993634Y-11673674D02*
X43984111Y-11683198D01*
X44193634Y-11797484D02*
X44174587Y-11787960D01*
X44174587Y-11787960D02*
X44165063Y-11778436D01*
X44165063Y-11778436D02*
X44155539Y-11759388D01*
X44155539Y-11759388D02*
X44155539Y-11702246D01*
X44155539Y-11702246D02*
X44165063Y-11683198D01*
X44165063Y-11683198D02*
X44174587Y-11673674D01*
X44174587Y-11673674D02*
X44193634Y-11664150D01*
X44193634Y-11664150D02*
X44222206Y-11664150D01*
X44222206Y-11664150D02*
X44241253Y-11673674D01*
X44241253Y-11673674D02*
X44250777Y-11683198D01*
X44250777Y-11683198D02*
X44260301Y-11702246D01*
X44260301Y-11702246D02*
X44260301Y-11759388D01*
X44260301Y-11759388D02*
X44250777Y-11778436D01*
X44250777Y-11778436D02*
X44241253Y-11787960D01*
X44241253Y-11787960D02*
X44222206Y-11797484D01*
X44222206Y-11797484D02*
X44193634Y-11797484D01*
X44374587Y-11797484D02*
X44355539Y-11787960D01*
X44355539Y-11787960D02*
X44346015Y-11768912D01*
X44346015Y-11768912D02*
X44346015Y-11597484D01*
X44526968Y-11787960D02*
X44507920Y-11797484D01*
X44507920Y-11797484D02*
X44469825Y-11797484D01*
X44469825Y-11797484D02*
X44450777Y-11787960D01*
X44450777Y-11787960D02*
X44441253Y-11768912D01*
X44441253Y-11768912D02*
X44441253Y-11692722D01*
X44441253Y-11692722D02*
X44450777Y-11673674D01*
X44450777Y-11673674D02*
X44469825Y-11664150D01*
X44469825Y-11664150D02*
X44507920Y-11664150D01*
X44507920Y-11664150D02*
X44526968Y-11673674D01*
X44526968Y-11673674D02*
X44536492Y-11692722D01*
X44536492Y-11692722D02*
X44536492Y-11711769D01*
X44536492Y-11711769D02*
X44441253Y-11730817D01*
X44612682Y-11787960D02*
X44631730Y-11797484D01*
X44631730Y-11797484D02*
X44669825Y-11797484D01*
X44669825Y-11797484D02*
X44688873Y-11787960D01*
X44688873Y-11787960D02*
X44698396Y-11768912D01*
X44698396Y-11768912D02*
X44698396Y-11759388D01*
X44698396Y-11759388D02*
X44688873Y-11740341D01*
X44688873Y-11740341D02*
X44669825Y-11730817D01*
X44669825Y-11730817D02*
X44641253Y-11730817D01*
X44641253Y-11730817D02*
X44622206Y-11721293D01*
X44622206Y-11721293D02*
X44612682Y-11702246D01*
X44612682Y-11702246D02*
X44612682Y-11692722D01*
X44612682Y-11692722D02*
X44622206Y-11673674D01*
X44622206Y-11673674D02*
X44641253Y-11664150D01*
X44641253Y-11664150D02*
X44669825Y-11664150D01*
X44669825Y-11664150D02*
X44688873Y-11673674D01*
X44936492Y-11721293D02*
X45088873Y-11721293D01*
X45012682Y-11797484D02*
X45012682Y-11645103D01*
X45365063Y-11683198D02*
X45346015Y-11673674D01*
X45346015Y-11673674D02*
X45336492Y-11664150D01*
X45336492Y-11664150D02*
X45326968Y-11645103D01*
X45326968Y-11645103D02*
X45326968Y-11635579D01*
X45326968Y-11635579D02*
X45336492Y-11616531D01*
X45336492Y-11616531D02*
X45346015Y-11607008D01*
X45346015Y-11607008D02*
X45365063Y-11597484D01*
X45365063Y-11597484D02*
X45403158Y-11597484D01*
X45403158Y-11597484D02*
X45422206Y-11607008D01*
X45422206Y-11607008D02*
X45431730Y-11616531D01*
X45431730Y-11616531D02*
X45441253Y-11635579D01*
X45441253Y-11635579D02*
X45441253Y-11645103D01*
X45441253Y-11645103D02*
X45431730Y-11664150D01*
X45431730Y-11664150D02*
X45422206Y-11673674D01*
X45422206Y-11673674D02*
X45403158Y-11683198D01*
X45403158Y-11683198D02*
X45365063Y-11683198D01*
X45365063Y-11683198D02*
X45346015Y-11692722D01*
X45346015Y-11692722D02*
X45336492Y-11702246D01*
X45336492Y-11702246D02*
X45326968Y-11721293D01*
X45326968Y-11721293D02*
X45326968Y-11759388D01*
X45326968Y-11759388D02*
X45336492Y-11778436D01*
X45336492Y-11778436D02*
X45346015Y-11787960D01*
X45346015Y-11787960D02*
X45365063Y-11797484D01*
X45365063Y-11797484D02*
X45403158Y-11797484D01*
X45403158Y-11797484D02*
X45422206Y-11787960D01*
X45422206Y-11787960D02*
X45431730Y-11778436D01*
X45431730Y-11778436D02*
X45441253Y-11759388D01*
X45441253Y-11759388D02*
X45441253Y-11721293D01*
X45441253Y-11721293D02*
X45431730Y-11702246D01*
X45431730Y-11702246D02*
X45422206Y-11692722D01*
X45422206Y-11692722D02*
X45403158Y-11683198D01*
X45669825Y-11787960D02*
X45688873Y-11797484D01*
X45688873Y-11797484D02*
X45726968Y-11797484D01*
X45726968Y-11797484D02*
X45746015Y-11787960D01*
X45746015Y-11787960D02*
X45755539Y-11768912D01*
X45755539Y-11768912D02*
X45755539Y-11759388D01*
X45755539Y-11759388D02*
X45746015Y-11740341D01*
X45746015Y-11740341D02*
X45726968Y-11730817D01*
X45726968Y-11730817D02*
X45698396Y-11730817D01*
X45698396Y-11730817D02*
X45679349Y-11721293D01*
X45679349Y-11721293D02*
X45669825Y-11702246D01*
X45669825Y-11702246D02*
X45669825Y-11692722D01*
X45669825Y-11692722D02*
X45679349Y-11673674D01*
X45679349Y-11673674D02*
X45698396Y-11664150D01*
X45698396Y-11664150D02*
X45726968Y-11664150D01*
X45726968Y-11664150D02*
X45746015Y-11673674D01*
X45869825Y-11797484D02*
X45850777Y-11787960D01*
X45850777Y-11787960D02*
X45841254Y-11768912D01*
X45841254Y-11768912D02*
X45841254Y-11597484D01*
X45974587Y-11797484D02*
X45955539Y-11787960D01*
X45955539Y-11787960D02*
X45946015Y-11778436D01*
X45946015Y-11778436D02*
X45936492Y-11759388D01*
X45936492Y-11759388D02*
X45936492Y-11702246D01*
X45936492Y-11702246D02*
X45946015Y-11683198D01*
X45946015Y-11683198D02*
X45955539Y-11673674D01*
X45955539Y-11673674D02*
X45974587Y-11664150D01*
X45974587Y-11664150D02*
X46003158Y-11664150D01*
X46003158Y-11664150D02*
X46022206Y-11673674D01*
X46022206Y-11673674D02*
X46031730Y-11683198D01*
X46031730Y-11683198D02*
X46041254Y-11702246D01*
X46041254Y-11702246D02*
X46041254Y-11759388D01*
X46041254Y-11759388D02*
X46031730Y-11778436D01*
X46031730Y-11778436D02*
X46022206Y-11787960D01*
X46022206Y-11787960D02*
X46003158Y-11797484D01*
X46003158Y-11797484D02*
X45974587Y-11797484D01*
X46098396Y-11664150D02*
X46174587Y-11664150D01*
X46126968Y-11597484D02*
X46126968Y-11768912D01*
X46126968Y-11768912D02*
X46136492Y-11787960D01*
X46136492Y-11787960D02*
X46155539Y-11797484D01*
X46155539Y-11797484D02*
X46174587Y-11797484D01*
X46231730Y-11787960D02*
X46250777Y-11797484D01*
X46250777Y-11797484D02*
X46288873Y-11797484D01*
X46288873Y-11797484D02*
X46307920Y-11787960D01*
X46307920Y-11787960D02*
X46317444Y-11768912D01*
X46317444Y-11768912D02*
X46317444Y-11759388D01*
X46317444Y-11759388D02*
X46307920Y-11740341D01*
X46307920Y-11740341D02*
X46288873Y-11730817D01*
X46288873Y-11730817D02*
X46260301Y-11730817D01*
X46260301Y-11730817D02*
X46241254Y-11721293D01*
X46241254Y-11721293D02*
X46231730Y-11702246D01*
X46231730Y-11702246D02*
X46231730Y-11692722D01*
X46231730Y-11692722D02*
X46241254Y-11673674D01*
X46241254Y-11673674D02*
X46260301Y-11664150D01*
X46260301Y-11664150D02*
X46288873Y-11664150D01*
X46288873Y-11664150D02*
X46307920Y-11673674D01*
X46384111Y-11873674D02*
X46393635Y-11864150D01*
X46393635Y-11864150D02*
X46412682Y-11835579D01*
X46412682Y-11835579D02*
X46422206Y-11816531D01*
X46422206Y-11816531D02*
X46431730Y-11787960D01*
X46431730Y-11787960D02*
X46441254Y-11740341D01*
X46441254Y-11740341D02*
X46441254Y-11702246D01*
X46441254Y-11702246D02*
X46431730Y-11654627D01*
X46431730Y-11654627D02*
X46422206Y-11626055D01*
X46422206Y-11626055D02*
X46412682Y-11607008D01*
X46412682Y-11607008D02*
X46393635Y-11578436D01*
X46393635Y-11578436D02*
X46384111Y-11568912D01*
M02*
