M48
; DRILL file KiCad 10.0.0 date 2026-04-22T13:07:56
; FORMAT={-:-/ absolute / metric / decimal}
; #@! TF.CreationDate,2026-04-22T13:07:56+02:00
; #@! TF.GenerationSoftware,Kicad,Pcbnew,10.0.0
; #@! TF.FileFunction,Plated,1,2,PTH
FMAT,2
METRIC
; #@! TA.AperFunction,Plated,PTH,ViaDrill
T1C0.400
; #@! TA.AperFunction,Plated,PTH,ComponentDrill
T2C0.400
; #@! TA.AperFunction,Plated,PTH,ComponentDrill
T3C0.800
; #@! TA.AperFunction,Plated,PTH,ComponentDrill
T4C1.000
; #@! TA.AperFunction,Plated,PTH,ComponentDrill
T5C1.100
%
G90
G05
T1
X409.701Y-75.241
X419.1Y-71.12
X452.1Y-3.8
X485.3Y-83.6
X486.05Y-59.85
X488.0Y-82.0
T3
X405.9Y-23.55
X405.9Y-26.05
X407.68Y-65.6
X407.68Y-68.14
X407.68Y-70.68
X407.68Y-73.22
X407.68Y-75.76
X407.68Y-78.3
X407.68Y-80.84
X415.3Y-65.6
X415.3Y-68.14
X415.3Y-70.68
X415.3Y-73.22
X415.3Y-75.76
X415.3Y-78.3
X415.3Y-80.84
X417.4Y-41.1
X417.4Y-46.1
X429.4Y-4.3
X429.4Y-7.5
X431.9Y-4.3
X431.9Y-7.5
X434.4Y-4.3
X434.4Y-7.5
X438.9Y-4.8
X438.9Y-7.3
X442.32Y-2.0
X442.32Y-9.62
X444.86Y-2.0
X444.86Y-9.62
X447.4Y-2.0
X447.4Y-9.62
X449.94Y-2.0
X449.94Y-9.62
X452.48Y-2.0
X452.48Y-9.62
X455.02Y-2.0
X455.02Y-9.62
X457.56Y-2.0
X457.56Y-9.62
X460.1Y-2.0
X460.1Y-9.62
X471.5Y-9.4
X480.06Y-16.51
X480.06Y-19.05
X480.06Y-21.59
X480.06Y-24.13
X480.06Y-26.67
X480.06Y-29.21
X480.06Y-31.75
X480.06Y-34.29
X480.06Y-36.83
X481.66Y-9.4
X487.68Y-16.51
X487.68Y-19.05
X487.68Y-21.59
X487.68Y-24.13
X487.68Y-26.67
X487.68Y-29.21
X487.68Y-31.75
X487.68Y-34.29
X487.68Y-36.83
T4
X402.46Y-46.38
X402.46Y-48.92
X402.46Y-51.46
X402.46Y-54.0
X405.0Y-46.38
X405.0Y-48.92
X405.0Y-51.46
X405.0Y-54.0
X405.46Y-95.5
X408.0Y-95.5
X411.5Y-23.45
X411.5Y-25.95
X411.5Y-28.45
X412.0Y-4.05
X412.0Y-6.55
X412.0Y-9.05
X413.0Y-95.5
X415.54Y-95.5
X419.46Y-90.5
X422.0Y-90.5
X426.1Y-48.5
X426.1Y-51.04
X426.1Y-53.58
X426.1Y-56.12
X426.1Y-58.66
X426.1Y-61.2
X426.1Y-63.74
X426.1Y-66.28
X426.1Y-68.82
X426.1Y-71.36
X426.1Y-73.9
X426.1Y-76.44
X426.1Y-78.98
X426.1Y-81.52
X426.1Y-84.06
X426.1Y-86.6
X426.1Y-89.14
X426.1Y-91.68
X426.2Y-32.225
X426.2Y-34.765
X433.65Y-42.565
X433.65Y-45.105
X433.65Y-47.645
X433.65Y-50.185
X433.65Y-52.725
X433.65Y-55.265
X433.65Y-57.805
X433.65Y-60.345
X433.65Y-62.885
X433.65Y-65.425
X433.65Y-67.965
X433.65Y-70.505
X433.65Y-73.045
X433.65Y-75.585
X433.65Y-78.125
X433.65Y-80.665
X433.65Y-83.205
X433.65Y-85.745
X436.19Y-42.565
X436.19Y-45.105
X436.19Y-47.645
X436.19Y-50.185
X436.19Y-52.725
X436.19Y-55.265
X436.19Y-57.805
X436.19Y-60.345
X436.19Y-62.885
X436.19Y-65.425
X436.19Y-67.965
X436.19Y-70.505
X436.19Y-73.045
X436.19Y-75.585
X436.19Y-78.125
X436.19Y-80.665
X436.19Y-83.205
X436.19Y-85.745
X437.0Y-12.6
X437.0Y-15.14
X437.0Y-17.68
X437.0Y-20.22
X437.0Y-22.76
X437.0Y-25.3
X437.0Y-27.84
X437.0Y-30.38
X438.73Y-42.565
X438.73Y-45.105
X438.73Y-47.645
X438.73Y-50.185
X438.73Y-52.725
X438.73Y-55.265
X438.73Y-57.805
X438.73Y-60.345
X438.73Y-62.885
X438.73Y-65.425
X438.73Y-67.965
X438.73Y-70.505
X438.73Y-73.045
X438.73Y-75.585
X438.73Y-78.125
X438.73Y-80.665
X438.73Y-83.205
X438.73Y-85.745
X439.54Y-12.6
X439.54Y-15.14
X439.54Y-17.68
X439.54Y-20.22
X439.54Y-22.76
X439.54Y-25.3
X439.54Y-27.84
X439.54Y-30.38
X441.27Y-42.565
X441.27Y-45.105
X441.27Y-47.645
X441.27Y-50.185
X441.27Y-52.725
X441.27Y-55.265
X441.27Y-57.805
X441.27Y-60.345
X441.27Y-62.885
X441.27Y-65.425
X441.27Y-67.965
X441.27Y-70.505
X441.27Y-73.045
X441.27Y-75.585
X441.27Y-78.125
X441.27Y-80.665
X441.27Y-83.205
X441.27Y-85.745
X442.08Y-12.6
X442.08Y-15.14
X442.08Y-17.68
X442.08Y-20.22
X442.08Y-22.76
X442.08Y-25.3
X442.08Y-27.84
X442.08Y-30.38
X443.81Y-42.565
X443.81Y-45.105
X443.81Y-47.645
X443.81Y-50.185
X443.81Y-52.725
X443.81Y-55.265
X443.81Y-57.805
X443.81Y-60.345
X443.81Y-62.885
X443.81Y-65.425
X443.81Y-67.965
X443.81Y-70.505
X443.81Y-73.045
X443.81Y-75.585
X443.81Y-78.125
X443.81Y-80.665
X443.81Y-83.205
X443.81Y-85.745
X444.62Y-12.6
X444.62Y-15.14
X444.62Y-17.68
X444.62Y-20.22
X444.62Y-22.76
X444.62Y-25.3
X444.62Y-27.84
X444.62Y-30.38
X446.35Y-42.565
X446.35Y-45.105
X446.35Y-47.645
X446.35Y-50.185
X446.35Y-52.725
X446.35Y-55.265
X446.35Y-57.805
X446.35Y-60.345
X446.35Y-62.885
X446.35Y-65.425
X446.35Y-67.965
X446.35Y-70.505
X446.35Y-73.045
X446.35Y-75.585
X446.35Y-78.125
X446.35Y-80.665
X446.35Y-83.205
X446.35Y-85.745
X447.16Y-12.6
X447.16Y-15.14
X447.16Y-17.68
X447.16Y-20.22
X447.16Y-22.76
X447.16Y-25.3
X447.16Y-27.84
X447.16Y-30.38
X448.89Y-42.545
X448.89Y-45.085
X448.89Y-47.625
X448.89Y-50.165
X448.89Y-52.705
X448.89Y-55.245
X448.89Y-57.785
X448.89Y-60.325
X448.89Y-62.865
X448.89Y-65.405
X448.89Y-67.945
X448.89Y-70.485
X448.89Y-73.025
X448.89Y-75.565
X448.89Y-78.105
X448.89Y-80.645
X448.89Y-83.185
X448.89Y-85.725
X449.7Y-12.6
X449.7Y-15.14
X449.7Y-17.68
X449.7Y-20.22
X449.7Y-22.76
X449.7Y-25.3
X449.7Y-27.84
X449.7Y-30.38
X451.43Y-42.545
X451.43Y-45.085
X451.43Y-47.625
X451.43Y-50.165
X451.43Y-52.705
X451.43Y-55.245
X451.43Y-57.785
X451.43Y-60.325
X451.43Y-62.865
X451.43Y-65.405
X451.43Y-67.945
X451.43Y-70.485
X451.43Y-73.025
X451.43Y-75.565
X451.43Y-78.105
X451.43Y-80.645
X451.43Y-83.185
X451.43Y-85.725
X452.24Y-12.6
X452.24Y-15.14
X452.24Y-17.68
X452.24Y-20.22
X452.24Y-22.76
X452.24Y-25.3
X452.24Y-27.84
X452.24Y-30.38
X453.97Y-42.465
X453.97Y-45.005
X453.97Y-47.545
X453.97Y-50.085
X453.97Y-52.625
X453.97Y-55.165
X453.97Y-57.705
X453.97Y-60.245
X453.97Y-62.785
X453.97Y-65.325
X453.97Y-67.865
X453.97Y-70.405
X453.97Y-72.945
X453.97Y-75.485
X453.97Y-78.025
X453.97Y-80.565
X453.97Y-83.105
X453.97Y-85.645
X454.78Y-12.6
X454.78Y-15.14
X454.78Y-17.68
X454.78Y-20.22
X454.78Y-22.76
X454.78Y-25.3
X454.78Y-27.84
X454.78Y-30.38
X456.51Y-42.465
X456.51Y-45.005
X456.51Y-47.545
X456.51Y-50.085
X456.51Y-52.625
X456.51Y-55.165
X456.51Y-57.705
X456.51Y-60.245
X456.51Y-62.785
X456.51Y-65.325
X456.51Y-67.865
X456.51Y-70.405
X456.51Y-72.945
X456.51Y-75.485
X456.51Y-78.025
X456.51Y-80.565
X456.51Y-83.105
X456.51Y-85.645
X457.32Y-12.6
X457.32Y-15.14
X457.32Y-17.68
X457.32Y-20.22
X457.32Y-22.76
X457.32Y-25.3
X457.32Y-27.84
X457.32Y-30.38
X459.05Y-42.465
X459.05Y-45.005
X459.05Y-47.545
X459.05Y-50.085
X459.05Y-52.625
X459.05Y-55.165
X459.05Y-57.705
X459.05Y-60.245
X459.05Y-62.785
X459.05Y-65.325
X459.05Y-67.865
X459.05Y-70.405
X459.05Y-72.945
X459.05Y-75.485
X459.05Y-78.025
X459.05Y-80.565
X459.05Y-83.105
X459.05Y-85.645
X459.86Y-12.6
X459.86Y-15.14
X459.86Y-17.68
X459.86Y-20.22
X459.86Y-22.76
X459.86Y-25.3
X459.86Y-27.84
X459.86Y-30.38
X461.59Y-42.465
X461.59Y-45.005
X461.59Y-47.545
X461.59Y-50.085
X461.59Y-52.625
X461.59Y-55.165
X461.59Y-57.705
X461.59Y-60.245
X461.59Y-62.785
X461.59Y-65.325
X461.59Y-67.865
X461.59Y-70.405
X461.59Y-72.945
X461.59Y-75.485
X461.59Y-78.025
X461.59Y-80.565
X461.59Y-83.105
X461.59Y-85.645
X462.4Y-12.6
X462.4Y-15.14
X462.4Y-17.68
X462.4Y-20.22
X462.4Y-22.76
X462.4Y-25.3
X462.4Y-27.84
X462.4Y-30.38
X464.13Y-42.465
X464.13Y-45.005
X464.13Y-47.545
X464.13Y-50.085
X464.13Y-52.625
X464.13Y-55.165
X464.13Y-57.705
X464.13Y-60.245
X464.13Y-62.785
X464.13Y-65.325
X464.13Y-67.865
X464.13Y-70.405
X464.13Y-72.945
X464.13Y-75.485
X464.13Y-78.025
X464.13Y-80.565
X464.13Y-83.105
X464.13Y-85.645
X464.94Y-12.6
X464.94Y-15.14
X464.94Y-17.68
X464.94Y-20.22
X464.94Y-22.76
X464.94Y-25.3
X464.94Y-27.84
X464.94Y-30.38
X466.67Y-42.465
X466.67Y-45.005
X466.67Y-47.545
X466.67Y-50.085
X466.67Y-52.625
X466.67Y-55.165
X466.67Y-57.705
X466.67Y-60.245
X466.67Y-62.785
X466.67Y-65.325
X466.67Y-67.865
X466.67Y-70.405
X466.67Y-72.945
X466.67Y-75.485
X466.67Y-78.025
X466.67Y-80.565
X466.67Y-83.105
X466.67Y-85.645
X469.21Y-42.465
X469.21Y-45.005
X469.21Y-47.545
X469.21Y-50.085
X469.21Y-52.625
X469.21Y-55.165
X469.21Y-57.705
X469.21Y-60.245
X469.21Y-62.785
X469.21Y-65.325
X469.21Y-67.865
X469.21Y-70.405
X469.21Y-72.945
X469.21Y-75.485
X469.21Y-78.025
X469.21Y-80.565
X469.21Y-83.105
X469.21Y-85.645
X471.75Y-42.465
X471.75Y-45.005
X471.75Y-47.545
X471.75Y-50.085
X471.75Y-52.625
X471.75Y-55.165
X471.75Y-57.705
X471.75Y-60.245
X471.75Y-62.785
X471.75Y-65.325
X471.75Y-67.865
X471.75Y-70.405
X471.75Y-72.945
X471.75Y-75.485
X471.75Y-78.025
X471.75Y-80.565
X471.75Y-83.105
X471.75Y-85.645
X474.29Y-42.545
X474.29Y-45.085
X474.29Y-47.625
X474.29Y-50.165
X474.29Y-52.705
X474.29Y-55.245
X474.29Y-57.785
X474.29Y-60.325
X474.29Y-62.865
X474.29Y-65.405
X474.29Y-67.945
X474.29Y-70.485
X474.29Y-73.025
X474.29Y-75.565
X474.29Y-78.105
X474.29Y-80.645
X474.29Y-83.185
X474.29Y-85.725
X475.29Y-16.55
X475.29Y-19.09
X475.29Y-21.63
X475.29Y-24.17
X475.29Y-26.71
X475.29Y-29.25
X475.29Y-31.79
X475.29Y-34.33
X476.83Y-42.545
X476.83Y-45.085
X476.83Y-47.625
X476.83Y-50.165
X476.83Y-52.705
X476.83Y-55.245
X476.83Y-57.785
X476.83Y-60.325
X476.83Y-62.865
X476.83Y-65.405
X476.83Y-67.945
X476.83Y-70.485
X476.83Y-73.025
X476.83Y-75.565
X476.83Y-78.105
X476.83Y-80.645
X476.83Y-83.185
X476.83Y-85.725
X479.37Y-42.545
X479.37Y-45.085
X479.37Y-47.625
X479.37Y-50.165
X479.37Y-52.705
X479.37Y-55.245
X479.37Y-57.785
X479.37Y-60.325
X479.37Y-62.865
X479.37Y-65.405
X479.37Y-67.945
X479.37Y-70.485
X479.37Y-73.025
X479.37Y-75.565
X479.37Y-78.105
X479.37Y-80.645
X479.37Y-83.185
X479.37Y-85.725
X480.1Y-90.2
X480.1Y-92.7
X480.1Y-95.2
X481.91Y-42.545
X481.91Y-45.085
X481.91Y-47.625
X481.91Y-50.165
X481.91Y-52.705
X481.91Y-55.245
X481.91Y-57.785
X481.91Y-60.325
X481.91Y-62.865
X481.91Y-65.405
X481.91Y-67.945
X481.91Y-70.485
X481.91Y-73.025
X481.91Y-75.565
X481.91Y-78.105
X481.91Y-80.645
X481.91Y-83.185
X481.91Y-85.725
X485.12Y-4.5
X487.66Y-4.5
X492.76Y-16.51
X492.76Y-19.05
X492.76Y-21.59
X492.76Y-24.13
X492.76Y-26.67
X492.76Y-29.21
X492.76Y-31.75
X492.76Y-34.29
X493.395Y-4.5
X494.46Y-46.38
X494.46Y-48.92
X494.46Y-51.46
X494.46Y-54.0
X495.935Y-4.5
X497.0Y-46.38
X497.0Y-48.92
X497.0Y-51.46
X497.0Y-54.0
X497.4Y-60.1
X497.4Y-62.6
X497.4Y-65.1
T2
X490.84Y-72.0G85X489.84Y-72.0
G05
X489.84Y-82.0G85X490.84Y-82.0
G05
X495.34Y-77.5G85X495.34Y-76.5
G05
T5
X418.65Y-21.15G85X419.35Y-21.15
G05
X418.65Y-30.75G85X419.35Y-30.75
G05
X419.15Y-1.75G85X419.85Y-1.75
G05
X419.15Y-11.35G85X419.85Y-11.35
G05
X487.25Y-87.9G85X487.95Y-87.9
G05
X487.25Y-97.5G85X487.95Y-97.5
G05
X490.25Y-57.8G85X489.55Y-57.8
G05
X490.25Y-67.4G85X489.55Y-67.4
G05
M30
