M48
; DRILL file {KiCad 9.0.2} date 2025-06-14T15:50:34+0200
; FORMAT={-:-/ absolute / metric / decimal}
; #@! TF.CreationDate,2025-06-14T15:50:34+02:00
; #@! TF.GenerationSoftware,Kicad,Pcbnew,9.0.2
; #@! TF.FileFunction,Plated,1,2,PTH
FMAT,2
METRIC
; #@! TA.AperFunction,Plated,PTH,ViaDrill
T1C0.300
; #@! TA.AperFunction,Plated,PTH,ComponentDrill
T2C0.800
; #@! TA.AperFunction,Plated,PTH,ComponentDrill
T3C0.900
; #@! TA.AperFunction,Plated,PTH,ComponentDrill
T4C1.000
%
G90
G05
T1
X94.4Y-120.0
X103.036Y-85.123
X105.4Y-64.6
X105.536Y-87.623
X105.8Y-116.6
X108.536Y-65.623
X111.5Y-126.5
X112.5Y-112.0
X114.036Y-66.123
X117.0Y-135.5
X121.036Y-71.305
X121.5Y-115.55
X125.0Y-110.5
X125.05Y-115.25
X126.54Y-131.54
X127.5Y-131.0
X131.536Y-58.123
X133.416Y-86.123
X134.536Y-56.623
X135.85Y-89.55
X135.956Y-86.123
X139.0Y-137.5
X142.0Y-136.0
X144.3Y-91.05
X145.55Y-93.9
X146.036Y-63.123
X146.996Y-62.583
X147.2Y-87.4
X148.536Y-83.623
X148.8Y-81.6
X152.5Y-122.818
X156.536Y-58.623
X159.5Y-128.0
X161.036Y-82.123
X162.036Y-67.623
X165.0Y-128.5
X168.0Y-106.5
X170.5Y-109.0
T2
X89.92Y-113.5
X89.96Y-116.5
X90.13Y-124.25
X91.0Y-103.75
X91.0Y-106.25
X92.63Y-124.25
X92.785Y-80.52
X92.785Y-90.68
X93.98Y-61.195
X93.98Y-71.355
X95.61Y-101.185
X95.61Y-108.805
X96.46Y-124.36
X98.15Y-101.185
X98.15Y-108.805
X98.16Y-81.855
X98.16Y-89.475
X98.2Y-59.275
X98.89Y-63.05
X98.89Y-70.67
X99.0Y-124.36
X99.92Y-128.2
X100.08Y-113.5
X100.12Y-116.5
X100.69Y-101.185
X100.69Y-108.805
X100.7Y-81.855
X100.7Y-89.475
X101.43Y-63.05
X101.43Y-70.67
X101.54Y-124.36
X103.23Y-101.185
X103.23Y-108.805
X103.24Y-81.855
X103.24Y-89.475
X103.97Y-63.05
X103.97Y-70.67
X104.965Y-118.5
X105.0Y-112.5
X105.77Y-101.185
X105.77Y-108.805
X105.78Y-81.855
X105.78Y-89.475
X106.51Y-63.05
X106.51Y-70.67
X108.31Y-101.185
X108.31Y-108.805
X108.32Y-81.855
X108.32Y-89.475
X108.36Y-59.275
X109.05Y-63.05
X109.05Y-70.67
X110.0Y-112.5
X110.08Y-128.2
X110.85Y-101.185
X110.85Y-108.805
X110.86Y-81.855
X110.86Y-89.475
X111.59Y-63.05
X111.59Y-70.67
X111.7Y-59.275
X113.39Y-101.185
X113.39Y-108.805
X113.4Y-81.855
X113.4Y-89.475
X114.13Y-63.05
X114.13Y-70.67
X115.093Y-128.9
X115.093Y-132.1
X115.125Y-118.5
X115.94Y-81.855
X115.94Y-89.475
X116.67Y-63.05
X116.67Y-70.67
X117.593Y-128.9
X117.593Y-132.1
X118.0Y-101.92
X118.0Y-112.08
X120.093Y-128.9
X120.093Y-132.1
X120.78Y-65.525
X120.78Y-68.025
X120.785Y-84.66
X120.785Y-87.16
X121.5Y-112.0
X121.5Y-122.16
X121.86Y-59.275
X124.7Y-57.86
X125.29Y-122.5
X125.95Y-93.65
X125.95Y-96.85
X126.16Y-74.86
X126.16Y-82.48
X127.0Y-112.75
X127.0Y-115.25
X128.0Y-103.25
X128.0Y-105.75
X128.45Y-93.65
X128.45Y-96.85
X128.51Y-70.165
X128.7Y-74.86
X128.7Y-82.48
X129.65Y-111.685
X129.65Y-119.305
X129.7Y-57.86
X130.29Y-122.5
X130.95Y-93.65
X130.95Y-96.85
X131.24Y-74.86
X131.24Y-82.48
X132.19Y-111.685
X132.19Y-119.305
X132.5Y-100.38
X132.5Y-108.0
X133.78Y-74.86
X133.78Y-82.48
X134.73Y-111.685
X134.73Y-119.305
X134.92Y-124.0
X135.04Y-100.38
X135.04Y-108.0
X136.32Y-74.86
X136.32Y-82.48
X137.27Y-111.685
X137.27Y-119.305
X137.58Y-100.38
X137.58Y-108.0
X138.67Y-70.165
X138.86Y-74.86
X138.86Y-82.48
X139.81Y-111.685
X139.81Y-119.305
X140.12Y-100.38
X140.12Y-108.0
X141.4Y-74.86
X141.4Y-82.48
X142.35Y-111.685
X142.35Y-119.305
X142.66Y-100.38
X142.66Y-108.0
X143.3Y-71.665
X143.94Y-74.86
X143.94Y-82.48
X144.445Y-136.305
X144.89Y-111.685
X144.89Y-119.305
X145.08Y-124.0
X145.2Y-100.38
X145.2Y-108.0
X146.59Y-78.915
X146.59Y-81.415
X147.43Y-111.685
X147.43Y-119.305
X147.74Y-100.38
X147.74Y-108.0
X148.3Y-71.665
X149.445Y-136.305
X151.73Y-134.89
X152.09Y-72.005
X152.09Y-82.165
X152.805Y-107.005
X152.805Y-109.505
X152.81Y-126.14
X152.81Y-128.64
X153.498Y-62.065
X153.498Y-65.265
X155.5Y-82.0
X155.5Y-92.16
X155.998Y-62.065
X155.998Y-65.265
X156.92Y-123.495
X156.92Y-131.115
X157.65Y-104.69
X157.65Y-112.31
X158.42Y-75.665
X158.498Y-62.065
X158.498Y-65.265
X159.46Y-123.495
X159.46Y-131.115
X160.19Y-104.69
X160.19Y-112.31
X160.2Y-85.36
X160.2Y-92.98
X161.89Y-134.89
X162.0Y-123.495
X162.0Y-131.115
X162.73Y-104.69
X162.73Y-112.31
X162.74Y-85.36
X162.74Y-92.98
X163.59Y-81.665
X164.12Y-64.6
X164.54Y-123.495
X164.54Y-131.115
X165.23Y-134.89
X165.27Y-104.69
X165.27Y-112.31
X165.28Y-85.36
X165.28Y-92.98
X167.08Y-123.495
X167.08Y-131.115
X167.81Y-104.69
X167.81Y-112.31
X167.82Y-85.36
X167.82Y-92.98
X168.58Y-75.665
X168.59Y-81.665
X169.62Y-123.495
X169.62Y-131.115
X170.35Y-104.69
X170.35Y-112.31
X170.36Y-85.36
X170.36Y-92.98
X172.05Y-69.805
X172.16Y-123.495
X172.16Y-131.115
X172.89Y-104.69
X172.89Y-112.31
X172.9Y-85.36
X172.9Y-92.98
X173.47Y-77.665
X173.51Y-80.665
X174.28Y-64.6
X174.59Y-69.805
X174.7Y-123.495
X174.7Y-131.115
X175.39Y-134.89
X175.43Y-104.69
X175.43Y-112.31
X175.44Y-85.36
X175.44Y-92.98
X177.13Y-69.805
X177.98Y-85.36
X177.98Y-92.98
X179.61Y-122.81
X179.61Y-132.97
X180.805Y-102.425
X180.805Y-112.585
X181.305Y-73.0
X182.59Y-87.915
X182.59Y-90.415
X183.63Y-77.665
X183.67Y-80.665
X183.805Y-73.0
T3
X115.0Y-139.357
X115.0Y-142.657
X117.5Y-139.357
X117.5Y-142.657
X120.0Y-139.357
X120.0Y-142.657
X153.59Y-51.508
X153.59Y-54.807
X156.09Y-51.508
X156.09Y-54.807
X158.59Y-51.508
X158.59Y-54.807
T4
X89.93Y-142.0
X92.46Y-49.5
X92.46Y-52.04
X92.47Y-142.0
X92.545Y-75.12
X92.545Y-77.66
X95.0Y-49.5
X95.0Y-52.04
X95.085Y-75.12
X95.085Y-77.66
X97.01Y-93.16
X97.225Y-133.0
X97.54Y-49.5
X97.54Y-52.04
X97.625Y-75.12
X97.625Y-77.66
X98.43Y-142.0
X99.55Y-93.16
X99.765Y-133.0
X100.08Y-49.5
X100.08Y-52.04
X100.165Y-75.12
X100.165Y-77.66
X100.97Y-142.0
X102.62Y-49.5
X102.62Y-52.04
X102.705Y-75.12
X102.705Y-77.66
X105.16Y-49.5
X105.16Y-52.04
X105.2Y-133.2
X105.245Y-75.12
X105.245Y-77.66
X106.5Y-139.5
X106.5Y-142.04
X107.7Y-49.5
X107.7Y-52.04
X107.74Y-133.2
X107.785Y-75.12
X107.785Y-77.66
X110.24Y-49.5
X110.24Y-52.04
X110.325Y-75.12
X110.325Y-77.66
X112.78Y-49.5
X112.78Y-52.04
X112.865Y-75.12
X112.865Y-77.66
X115.32Y-49.5
X115.32Y-52.04
X115.405Y-75.12
X115.405Y-77.66
X117.86Y-49.5
X117.86Y-52.04
X117.945Y-75.12
X117.945Y-77.66
X120.4Y-49.5
X120.4Y-52.04
X120.485Y-75.12
X120.485Y-77.66
X126.07Y-53.64
X126.54Y-140.5
X126.55Y-65.665
X128.195Y-126.5
X128.57Y-53.64
X129.04Y-140.5
X129.09Y-65.665
X129.5Y-133.805
X130.735Y-126.5
X131.07Y-53.64
X131.54Y-140.5
X132.04Y-133.805
X134.05Y-60.665
X136.59Y-60.665
X137.0Y-133.5
X139.54Y-133.5
X141.55Y-60.36
X142.07Y-53.64
X142.54Y-140.5
X142.855Y-67.665
X144.09Y-60.36
X144.5Y-128.5
X144.57Y-53.64
X145.04Y-140.5
X145.395Y-67.665
X147.04Y-128.5
X147.07Y-53.64
X147.54Y-140.5
X153.105Y-116.505
X153.105Y-119.045
X153.19Y-142.125
X153.19Y-144.665
X155.645Y-116.505
X155.645Y-119.045
X155.73Y-142.125
X155.73Y-144.665
X158.185Y-116.505
X158.185Y-119.045
X158.27Y-142.125
X158.27Y-144.665
X160.725Y-116.505
X160.725Y-119.045
X160.81Y-142.125
X160.81Y-144.665
X163.265Y-116.505
X163.265Y-119.045
X163.35Y-142.125
X163.35Y-144.665
X165.805Y-116.505
X165.805Y-119.045
X165.89Y-142.125
X165.89Y-144.665
X167.11Y-52.1
X167.11Y-54.64
X168.345Y-116.505
X168.345Y-119.045
X168.43Y-142.125
X168.43Y-144.665
X170.885Y-116.505
X170.885Y-119.045
X170.97Y-142.125
X170.97Y-144.665
X172.64Y-52.14
X173.425Y-116.505
X173.425Y-119.045
X173.51Y-142.125
X173.51Y-144.665
X173.845Y-61.14
X174.04Y-101.005
X175.18Y-52.14
X175.965Y-116.505
X175.965Y-119.045
X176.05Y-142.125
X176.05Y-144.665
X176.385Y-61.14
X176.58Y-101.005
X178.505Y-116.505
X178.505Y-119.045
X178.59Y-142.125
X178.59Y-144.665
X181.045Y-116.505
X181.045Y-119.045
X181.13Y-142.125
X181.13Y-144.665
X181.14Y-52.14
X181.14Y-61.14
X183.68Y-52.14
X183.68Y-61.14
M30
