%TF.GenerationSoftware,KiCad,Pcbnew,9.0.2*%
%TF.CreationDate,2025-06-14T15:39:43+02:00*%
%TF.ProjectId,kleingorium,6b6c6569-6e67-46f7-9269-756d2e6b6963,rev?*%
%TF.SameCoordinates,Original*%
%TF.FileFunction,Drillmap*%
%TF.FilePolarity,Positive*%
%FSLAX45Y45*%
G04 Gerber Fmt 4.5, Leading zero omitted, Abs format (unit mm)*
G04 Created by KiCad (PCBNEW 9.0.2) date 2025-06-14 15:39:43*
%MOMM*%
%LPD*%
G01*
G04 APERTURE LIST*
%ADD10C,0.050000*%
%ADD11C,0.200000*%
%ADD12C,0.100000*%
G04 APERTURE END LIST*
D10*
X18560000Y-13140000D02*
G75*
G02*
X18160000Y-13140000I-200000J0D01*
G01*
X18160000Y-13140000D02*
G75*
G02*
X18560000Y-13140000I200000J0D01*
G01*
X8700000Y-4700000D02*
X18700000Y-4700000D01*
X18700000Y-14700000D01*
X8700000Y-14700000D01*
X8700000Y-4700000D01*
X9240000Y-6700000D02*
G75*
G02*
X8840000Y-6700000I-200000J0D01*
G01*
X8840000Y-6700000D02*
G75*
G02*
X9240000Y-6700000I200000J0D01*
G01*
X9240000Y-13140000D02*
G75*
G02*
X8840000Y-13140000I-200000J0D01*
G01*
X8840000Y-13140000D02*
G75*
G02*
X9240000Y-13140000I200000J0D01*
G01*
X18535000Y-6695000D02*
G75*
G02*
X18185000Y-6695000I-175000J0D01*
G01*
X18185000Y-6695000D02*
G75*
G02*
X18535000Y-6695000I175000J0D01*
G01*
D11*
D12*
X9425000Y-11985000D02*
X9455000Y-12015000D01*
X9455000Y-11985000D02*
X9425000Y-12015000D01*
X10288643Y-8497257D02*
X10318643Y-8527257D01*
X10318643Y-8497257D02*
X10288643Y-8527257D01*
X10525000Y-6445000D02*
X10555000Y-6475000D01*
X10555000Y-6445000D02*
X10525000Y-6475000D01*
X10538643Y-8747257D02*
X10568643Y-8777257D01*
X10568643Y-8747257D02*
X10538643Y-8777257D01*
X10565000Y-11645000D02*
X10595000Y-11675000D01*
X10595000Y-11645000D02*
X10565000Y-11675000D01*
X10838643Y-6547257D02*
X10868643Y-6577257D01*
X10868643Y-6547257D02*
X10838643Y-6577257D01*
X11135000Y-12635000D02*
X11165000Y-12665000D01*
X11165000Y-12635000D02*
X11135000Y-12665000D01*
X11235000Y-11185000D02*
X11265000Y-11215000D01*
X11265000Y-11185000D02*
X11235000Y-11215000D01*
X11388643Y-6597257D02*
X11418643Y-6627257D01*
X11418643Y-6597257D02*
X11388643Y-6627257D01*
X11685000Y-13535000D02*
X11715000Y-13565000D01*
X11715000Y-13535000D02*
X11685000Y-13565000D01*
X12088643Y-7115462D02*
X12118643Y-7145462D01*
X12118643Y-7115462D02*
X12088643Y-7145462D01*
X12135000Y-11540000D02*
X12165000Y-11570000D01*
X12165000Y-11540000D02*
X12135000Y-11570000D01*
X12485000Y-11035000D02*
X12515000Y-11065000D01*
X12515000Y-11035000D02*
X12485000Y-11065000D01*
X12490000Y-11510000D02*
X12520000Y-11540000D01*
X12520000Y-11510000D02*
X12490000Y-11540000D01*
X12639000Y-13139000D02*
X12669000Y-13169000D01*
X12669000Y-13139000D02*
X12639000Y-13169000D01*
X12735000Y-13085000D02*
X12765000Y-13115000D01*
X12765000Y-13085000D02*
X12735000Y-13115000D01*
X13138643Y-5797257D02*
X13168643Y-5827257D01*
X13168643Y-5797257D02*
X13138643Y-5827257D01*
X13326643Y-8597257D02*
X13356643Y-8627257D01*
X13356643Y-8597257D02*
X13326643Y-8627257D01*
X13438643Y-5647257D02*
X13468643Y-5677257D01*
X13468643Y-5647257D02*
X13438643Y-5677257D01*
X13570000Y-8940000D02*
X13600000Y-8970000D01*
X13600000Y-8940000D02*
X13570000Y-8970000D01*
X13580643Y-8597257D02*
X13610643Y-8627257D01*
X13610643Y-8597257D02*
X13580643Y-8627257D01*
X13885000Y-13735000D02*
X13915000Y-13765000D01*
X13915000Y-13735000D02*
X13885000Y-13765000D01*
X14185000Y-13585000D02*
X14215000Y-13615000D01*
X14215000Y-13585000D02*
X14185000Y-13615000D01*
X14415000Y-9090000D02*
X14445000Y-9120000D01*
X14445000Y-9090000D02*
X14415000Y-9120000D01*
X14540000Y-9375000D02*
X14570000Y-9405000D01*
X14570000Y-9375000D02*
X14540000Y-9405000D01*
X14588643Y-6297257D02*
X14618643Y-6327257D01*
X14618643Y-6297257D02*
X14588643Y-6327257D01*
X14684643Y-6243257D02*
X14714643Y-6273257D01*
X14714643Y-6243257D02*
X14684643Y-6273257D01*
X14705000Y-8725000D02*
X14735000Y-8755000D01*
X14735000Y-8725000D02*
X14705000Y-8755000D01*
X14838643Y-8347257D02*
X14868643Y-8377257D01*
X14868643Y-8347257D02*
X14838643Y-8377257D01*
X14865000Y-8145000D02*
X14895000Y-8175000D01*
X14895000Y-8145000D02*
X14865000Y-8175000D01*
X15235000Y-12266795D02*
X15265000Y-12296795D01*
X15265000Y-12266795D02*
X15235000Y-12296795D01*
X15638643Y-5847257D02*
X15668643Y-5877257D01*
X15668643Y-5847257D02*
X15638643Y-5877257D01*
X15935000Y-12785000D02*
X15965000Y-12815000D01*
X15965000Y-12785000D02*
X15935000Y-12815000D01*
X16088643Y-8197257D02*
X16118643Y-8227257D01*
X16118643Y-8197257D02*
X16088643Y-8227257D01*
X16188643Y-6747257D02*
X16218643Y-6777257D01*
X16218643Y-6747257D02*
X16188643Y-6777257D01*
X16485000Y-12835000D02*
X16515000Y-12865000D01*
X16515000Y-12835000D02*
X16485000Y-12865000D01*
X16785000Y-10635000D02*
X16815000Y-10665000D01*
X16815000Y-10635000D02*
X16785000Y-10665000D01*
X17035000Y-10885000D02*
X17065000Y-10915000D01*
X17065000Y-10885000D02*
X17035000Y-10915000D01*
X9032000Y-11350000D02*
G75*
G02*
X8952000Y-11350000I-40000J0D01*
G01*
X8952000Y-11350000D02*
G75*
G02*
X9032000Y-11350000I40000J0D01*
G01*
X9036000Y-11650000D02*
G75*
G02*
X8956000Y-11650000I-40000J0D01*
G01*
X8956000Y-11650000D02*
G75*
G02*
X9036000Y-11650000I40000J0D01*
G01*
X9052990Y-12425000D02*
G75*
G02*
X8972990Y-12425000I-40000J0D01*
G01*
X8972990Y-12425000D02*
G75*
G02*
X9052990Y-12425000I40000J0D01*
G01*
X9140000Y-10375000D02*
G75*
G02*
X9060000Y-10375000I-40000J0D01*
G01*
X9060000Y-10375000D02*
G75*
G02*
X9140000Y-10375000I40000J0D01*
G01*
X9140000Y-10625000D02*
G75*
G02*
X9060000Y-10625000I-40000J0D01*
G01*
X9060000Y-10625000D02*
G75*
G02*
X9140000Y-10625000I40000J0D01*
G01*
X9302990Y-12425000D02*
G75*
G02*
X9222990Y-12425000I-40000J0D01*
G01*
X9222990Y-12425000D02*
G75*
G02*
X9302990Y-12425000I40000J0D01*
G01*
X9318500Y-8052000D02*
G75*
G02*
X9238500Y-8052000I-40000J0D01*
G01*
X9238500Y-8052000D02*
G75*
G02*
X9318500Y-8052000I40000J0D01*
G01*
X9318500Y-9068000D02*
G75*
G02*
X9238500Y-9068000I-40000J0D01*
G01*
X9238500Y-9068000D02*
G75*
G02*
X9318500Y-9068000I40000J0D01*
G01*
X9438000Y-6119500D02*
G75*
G02*
X9358000Y-6119500I-40000J0D01*
G01*
X9358000Y-6119500D02*
G75*
G02*
X9438000Y-6119500I40000J0D01*
G01*
X9438000Y-7135500D02*
G75*
G02*
X9358000Y-7135500I-40000J0D01*
G01*
X9358000Y-7135500D02*
G75*
G02*
X9438000Y-7135500I40000J0D01*
G01*
X9601000Y-10118500D02*
G75*
G02*
X9521000Y-10118500I-40000J0D01*
G01*
X9521000Y-10118500D02*
G75*
G02*
X9601000Y-10118500I40000J0D01*
G01*
X9601000Y-10880500D02*
G75*
G02*
X9521000Y-10880500I-40000J0D01*
G01*
X9521000Y-10880500D02*
G75*
G02*
X9601000Y-10880500I40000J0D01*
G01*
X9686000Y-12436000D02*
G75*
G02*
X9606000Y-12436000I-40000J0D01*
G01*
X9606000Y-12436000D02*
G75*
G02*
X9686000Y-12436000I40000J0D01*
G01*
X9855000Y-10118500D02*
G75*
G02*
X9775000Y-10118500I-40000J0D01*
G01*
X9775000Y-10118500D02*
G75*
G02*
X9855000Y-10118500I40000J0D01*
G01*
X9855000Y-10880500D02*
G75*
G02*
X9775000Y-10880500I-40000J0D01*
G01*
X9775000Y-10880500D02*
G75*
G02*
X9855000Y-10880500I40000J0D01*
G01*
X9856000Y-8185500D02*
G75*
G02*
X9776000Y-8185500I-40000J0D01*
G01*
X9776000Y-8185500D02*
G75*
G02*
X9856000Y-8185500I40000J0D01*
G01*
X9856000Y-8947500D02*
G75*
G02*
X9776000Y-8947500I-40000J0D01*
G01*
X9776000Y-8947500D02*
G75*
G02*
X9856000Y-8947500I40000J0D01*
G01*
X9860000Y-5927500D02*
G75*
G02*
X9780000Y-5927500I-40000J0D01*
G01*
X9780000Y-5927500D02*
G75*
G02*
X9860000Y-5927500I40000J0D01*
G01*
X9929000Y-6305000D02*
G75*
G02*
X9849000Y-6305000I-40000J0D01*
G01*
X9849000Y-6305000D02*
G75*
G02*
X9929000Y-6305000I40000J0D01*
G01*
X9929000Y-7067000D02*
G75*
G02*
X9849000Y-7067000I-40000J0D01*
G01*
X9849000Y-7067000D02*
G75*
G02*
X9929000Y-7067000I40000J0D01*
G01*
X9940000Y-12436000D02*
G75*
G02*
X9860000Y-12436000I-40000J0D01*
G01*
X9860000Y-12436000D02*
G75*
G02*
X9940000Y-12436000I40000J0D01*
G01*
X10032000Y-12820000D02*
G75*
G02*
X9952000Y-12820000I-40000J0D01*
G01*
X9952000Y-12820000D02*
G75*
G02*
X10032000Y-12820000I40000J0D01*
G01*
X10048000Y-11350000D02*
G75*
G02*
X9968000Y-11350000I-40000J0D01*
G01*
X9968000Y-11350000D02*
G75*
G02*
X10048000Y-11350000I40000J0D01*
G01*
X10052000Y-11650000D02*
G75*
G02*
X9972000Y-11650000I-40000J0D01*
G01*
X9972000Y-11650000D02*
G75*
G02*
X10052000Y-11650000I40000J0D01*
G01*
X10109000Y-10118500D02*
G75*
G02*
X10029000Y-10118500I-40000J0D01*
G01*
X10029000Y-10118500D02*
G75*
G02*
X10109000Y-10118500I40000J0D01*
G01*
X10109000Y-10880500D02*
G75*
G02*
X10029000Y-10880500I-40000J0D01*
G01*
X10029000Y-10880500D02*
G75*
G02*
X10109000Y-10880500I40000J0D01*
G01*
X10110000Y-8185500D02*
G75*
G02*
X10030000Y-8185500I-40000J0D01*
G01*
X10030000Y-8185500D02*
G75*
G02*
X10110000Y-8185500I40000J0D01*
G01*
X10110000Y-8947500D02*
G75*
G02*
X10030000Y-8947500I-40000J0D01*
G01*
X10030000Y-8947500D02*
G75*
G02*
X10110000Y-8947500I40000J0D01*
G01*
X10183000Y-6305000D02*
G75*
G02*
X10103000Y-6305000I-40000J0D01*
G01*
X10103000Y-6305000D02*
G75*
G02*
X10183000Y-6305000I40000J0D01*
G01*
X10183000Y-7067000D02*
G75*
G02*
X10103000Y-7067000I-40000J0D01*
G01*
X10103000Y-7067000D02*
G75*
G02*
X10183000Y-7067000I40000J0D01*
G01*
X10194000Y-12436000D02*
G75*
G02*
X10114000Y-12436000I-40000J0D01*
G01*
X10114000Y-12436000D02*
G75*
G02*
X10194000Y-12436000I40000J0D01*
G01*
X10363000Y-10118500D02*
G75*
G02*
X10283000Y-10118500I-40000J0D01*
G01*
X10283000Y-10118500D02*
G75*
G02*
X10363000Y-10118500I40000J0D01*
G01*
X10363000Y-10880500D02*
G75*
G02*
X10283000Y-10880500I-40000J0D01*
G01*
X10283000Y-10880500D02*
G75*
G02*
X10363000Y-10880500I40000J0D01*
G01*
X10364000Y-8185500D02*
G75*
G02*
X10284000Y-8185500I-40000J0D01*
G01*
X10284000Y-8185500D02*
G75*
G02*
X10364000Y-8185500I40000J0D01*
G01*
X10364000Y-8947500D02*
G75*
G02*
X10284000Y-8947500I-40000J0D01*
G01*
X10284000Y-8947500D02*
G75*
G02*
X10364000Y-8947500I40000J0D01*
G01*
X10437000Y-6305000D02*
G75*
G02*
X10357000Y-6305000I-40000J0D01*
G01*
X10357000Y-6305000D02*
G75*
G02*
X10437000Y-6305000I40000J0D01*
G01*
X10437000Y-7067000D02*
G75*
G02*
X10357000Y-7067000I-40000J0D01*
G01*
X10357000Y-7067000D02*
G75*
G02*
X10437000Y-7067000I40000J0D01*
G01*
X10536500Y-11850000D02*
G75*
G02*
X10456500Y-11850000I-40000J0D01*
G01*
X10456500Y-11850000D02*
G75*
G02*
X10536500Y-11850000I40000J0D01*
G01*
X10540000Y-11250000D02*
G75*
G02*
X10460000Y-11250000I-40000J0D01*
G01*
X10460000Y-11250000D02*
G75*
G02*
X10540000Y-11250000I40000J0D01*
G01*
X10617000Y-10118500D02*
G75*
G02*
X10537000Y-10118500I-40000J0D01*
G01*
X10537000Y-10118500D02*
G75*
G02*
X10617000Y-10118500I40000J0D01*
G01*
X10617000Y-10880500D02*
G75*
G02*
X10537000Y-10880500I-40000J0D01*
G01*
X10537000Y-10880500D02*
G75*
G02*
X10617000Y-10880500I40000J0D01*
G01*
X10618000Y-8185500D02*
G75*
G02*
X10538000Y-8185500I-40000J0D01*
G01*
X10538000Y-8185500D02*
G75*
G02*
X10618000Y-8185500I40000J0D01*
G01*
X10618000Y-8947500D02*
G75*
G02*
X10538000Y-8947500I-40000J0D01*
G01*
X10538000Y-8947500D02*
G75*
G02*
X10618000Y-8947500I40000J0D01*
G01*
X10691000Y-6305000D02*
G75*
G02*
X10611000Y-6305000I-40000J0D01*
G01*
X10611000Y-6305000D02*
G75*
G02*
X10691000Y-6305000I40000J0D01*
G01*
X10691000Y-7067000D02*
G75*
G02*
X10611000Y-7067000I-40000J0D01*
G01*
X10611000Y-7067000D02*
G75*
G02*
X10691000Y-7067000I40000J0D01*
G01*
X10871000Y-10118500D02*
G75*
G02*
X10791000Y-10118500I-40000J0D01*
G01*
X10791000Y-10118500D02*
G75*
G02*
X10871000Y-10118500I40000J0D01*
G01*
X10871000Y-10880500D02*
G75*
G02*
X10791000Y-10880500I-40000J0D01*
G01*
X10791000Y-10880500D02*
G75*
G02*
X10871000Y-10880500I40000J0D01*
G01*
X10872000Y-8185500D02*
G75*
G02*
X10792000Y-8185500I-40000J0D01*
G01*
X10792000Y-8185500D02*
G75*
G02*
X10872000Y-8185500I40000J0D01*
G01*
X10872000Y-8947500D02*
G75*
G02*
X10792000Y-8947500I-40000J0D01*
G01*
X10792000Y-8947500D02*
G75*
G02*
X10872000Y-8947500I40000J0D01*
G01*
X10876000Y-5927500D02*
G75*
G02*
X10796000Y-5927500I-40000J0D01*
G01*
X10796000Y-5927500D02*
G75*
G02*
X10876000Y-5927500I40000J0D01*
G01*
X10945000Y-6305000D02*
G75*
G02*
X10865000Y-6305000I-40000J0D01*
G01*
X10865000Y-6305000D02*
G75*
G02*
X10945000Y-6305000I40000J0D01*
G01*
X10945000Y-7067000D02*
G75*
G02*
X10865000Y-7067000I-40000J0D01*
G01*
X10865000Y-7067000D02*
G75*
G02*
X10945000Y-7067000I40000J0D01*
G01*
X11040000Y-11250000D02*
G75*
G02*
X10960000Y-11250000I-40000J0D01*
G01*
X10960000Y-11250000D02*
G75*
G02*
X11040000Y-11250000I40000J0D01*
G01*
X11048000Y-12820000D02*
G75*
G02*
X10968000Y-12820000I-40000J0D01*
G01*
X10968000Y-12820000D02*
G75*
G02*
X11048000Y-12820000I40000J0D01*
G01*
X11125000Y-10118500D02*
G75*
G02*
X11045000Y-10118500I-40000J0D01*
G01*
X11045000Y-10118500D02*
G75*
G02*
X11125000Y-10118500I40000J0D01*
G01*
X11125000Y-10880500D02*
G75*
G02*
X11045000Y-10880500I-40000J0D01*
G01*
X11045000Y-10880500D02*
G75*
G02*
X11125000Y-10880500I40000J0D01*
G01*
X11126000Y-8185500D02*
G75*
G02*
X11046000Y-8185500I-40000J0D01*
G01*
X11046000Y-8185500D02*
G75*
G02*
X11126000Y-8185500I40000J0D01*
G01*
X11126000Y-8947500D02*
G75*
G02*
X11046000Y-8947500I-40000J0D01*
G01*
X11046000Y-8947500D02*
G75*
G02*
X11126000Y-8947500I40000J0D01*
G01*
X11199000Y-6305000D02*
G75*
G02*
X11119000Y-6305000I-40000J0D01*
G01*
X11119000Y-6305000D02*
G75*
G02*
X11199000Y-6305000I40000J0D01*
G01*
X11199000Y-7067000D02*
G75*
G02*
X11119000Y-7067000I-40000J0D01*
G01*
X11119000Y-7067000D02*
G75*
G02*
X11199000Y-7067000I40000J0D01*
G01*
X11210000Y-5927500D02*
G75*
G02*
X11130000Y-5927500I-40000J0D01*
G01*
X11130000Y-5927500D02*
G75*
G02*
X11210000Y-5927500I40000J0D01*
G01*
X11379000Y-10118500D02*
G75*
G02*
X11299000Y-10118500I-40000J0D01*
G01*
X11299000Y-10118500D02*
G75*
G02*
X11379000Y-10118500I40000J0D01*
G01*
X11379000Y-10880500D02*
G75*
G02*
X11299000Y-10880500I-40000J0D01*
G01*
X11299000Y-10880500D02*
G75*
G02*
X11379000Y-10880500I40000J0D01*
G01*
X11380000Y-8185500D02*
G75*
G02*
X11300000Y-8185500I-40000J0D01*
G01*
X11300000Y-8185500D02*
G75*
G02*
X11380000Y-8185500I40000J0D01*
G01*
X11380000Y-8947500D02*
G75*
G02*
X11300000Y-8947500I-40000J0D01*
G01*
X11300000Y-8947500D02*
G75*
G02*
X11380000Y-8947500I40000J0D01*
G01*
X11453000Y-6305000D02*
G75*
G02*
X11373000Y-6305000I-40000J0D01*
G01*
X11373000Y-6305000D02*
G75*
G02*
X11453000Y-6305000I40000J0D01*
G01*
X11453000Y-7067000D02*
G75*
G02*
X11373000Y-7067000I-40000J0D01*
G01*
X11373000Y-7067000D02*
G75*
G02*
X11453000Y-7067000I40000J0D01*
G01*
X11549250Y-12890000D02*
G75*
G02*
X11469250Y-12890000I-40000J0D01*
G01*
X11469250Y-12890000D02*
G75*
G02*
X11549250Y-12890000I40000J0D01*
G01*
X11549250Y-13210000D02*
G75*
G02*
X11469250Y-13210000I-40000J0D01*
G01*
X11469250Y-13210000D02*
G75*
G02*
X11549250Y-13210000I40000J0D01*
G01*
X11552500Y-11850000D02*
G75*
G02*
X11472500Y-11850000I-40000J0D01*
G01*
X11472500Y-11850000D02*
G75*
G02*
X11552500Y-11850000I40000J0D01*
G01*
X11634000Y-8185500D02*
G75*
G02*
X11554000Y-8185500I-40000J0D01*
G01*
X11554000Y-8185500D02*
G75*
G02*
X11634000Y-8185500I40000J0D01*
G01*
X11634000Y-8947500D02*
G75*
G02*
X11554000Y-8947500I-40000J0D01*
G01*
X11554000Y-8947500D02*
G75*
G02*
X11634000Y-8947500I40000J0D01*
G01*
X11707000Y-6305000D02*
G75*
G02*
X11627000Y-6305000I-40000J0D01*
G01*
X11627000Y-6305000D02*
G75*
G02*
X11707000Y-6305000I40000J0D01*
G01*
X11707000Y-7067000D02*
G75*
G02*
X11627000Y-7067000I-40000J0D01*
G01*
X11627000Y-7067000D02*
G75*
G02*
X11707000Y-7067000I40000J0D01*
G01*
X11799250Y-12890000D02*
G75*
G02*
X11719250Y-12890000I-40000J0D01*
G01*
X11719250Y-12890000D02*
G75*
G02*
X11799250Y-12890000I40000J0D01*
G01*
X11799250Y-13210000D02*
G75*
G02*
X11719250Y-13210000I-40000J0D01*
G01*
X11719250Y-13210000D02*
G75*
G02*
X11799250Y-13210000I40000J0D01*
G01*
X11840000Y-10192000D02*
G75*
G02*
X11760000Y-10192000I-40000J0D01*
G01*
X11760000Y-10192000D02*
G75*
G02*
X11840000Y-10192000I40000J0D01*
G01*
X11840000Y-11208000D02*
G75*
G02*
X11760000Y-11208000I-40000J0D01*
G01*
X11760000Y-11208000D02*
G75*
G02*
X11840000Y-11208000I40000J0D01*
G01*
X12049250Y-12890000D02*
G75*
G02*
X11969250Y-12890000I-40000J0D01*
G01*
X11969250Y-12890000D02*
G75*
G02*
X12049250Y-12890000I40000J0D01*
G01*
X12049250Y-13210000D02*
G75*
G02*
X11969250Y-13210000I-40000J0D01*
G01*
X11969250Y-13210000D02*
G75*
G02*
X12049250Y-13210000I40000J0D01*
G01*
X12118000Y-6552500D02*
G75*
G02*
X12038000Y-6552500I-40000J0D01*
G01*
X12038000Y-6552500D02*
G75*
G02*
X12118000Y-6552500I40000J0D01*
G01*
X12118000Y-6802500D02*
G75*
G02*
X12038000Y-6802500I-40000J0D01*
G01*
X12038000Y-6802500D02*
G75*
G02*
X12118000Y-6802500I40000J0D01*
G01*
X12118500Y-8466000D02*
G75*
G02*
X12038500Y-8466000I-40000J0D01*
G01*
X12038500Y-8466000D02*
G75*
G02*
X12118500Y-8466000I40000J0D01*
G01*
X12118500Y-8716000D02*
G75*
G02*
X12038500Y-8716000I-40000J0D01*
G01*
X12038500Y-8716000D02*
G75*
G02*
X12118500Y-8716000I40000J0D01*
G01*
X12190000Y-11200000D02*
G75*
G02*
X12110000Y-11200000I-40000J0D01*
G01*
X12110000Y-11200000D02*
G75*
G02*
X12190000Y-11200000I40000J0D01*
G01*
X12190000Y-12216000D02*
G75*
G02*
X12110000Y-12216000I-40000J0D01*
G01*
X12110000Y-12216000D02*
G75*
G02*
X12190000Y-12216000I40000J0D01*
G01*
X12226000Y-5927500D02*
G75*
G02*
X12146000Y-5927500I-40000J0D01*
G01*
X12146000Y-5927500D02*
G75*
G02*
X12226000Y-5927500I40000J0D01*
G01*
X12510000Y-5786000D02*
G75*
G02*
X12430000Y-5786000I-40000J0D01*
G01*
X12430000Y-5786000D02*
G75*
G02*
X12510000Y-5786000I40000J0D01*
G01*
X12569000Y-12250000D02*
G75*
G02*
X12489000Y-12250000I-40000J0D01*
G01*
X12489000Y-12250000D02*
G75*
G02*
X12569000Y-12250000I40000J0D01*
G01*
X12635000Y-9365000D02*
G75*
G02*
X12555000Y-9365000I-40000J0D01*
G01*
X12555000Y-9365000D02*
G75*
G02*
X12635000Y-9365000I40000J0D01*
G01*
X12635000Y-9685000D02*
G75*
G02*
X12555000Y-9685000I-40000J0D01*
G01*
X12555000Y-9685000D02*
G75*
G02*
X12635000Y-9685000I40000J0D01*
G01*
X12656000Y-7486000D02*
G75*
G02*
X12576000Y-7486000I-40000J0D01*
G01*
X12576000Y-7486000D02*
G75*
G02*
X12656000Y-7486000I40000J0D01*
G01*
X12656000Y-8248000D02*
G75*
G02*
X12576000Y-8248000I-40000J0D01*
G01*
X12576000Y-8248000D02*
G75*
G02*
X12656000Y-8248000I40000J0D01*
G01*
X12740000Y-11275000D02*
G75*
G02*
X12660000Y-11275000I-40000J0D01*
G01*
X12660000Y-11275000D02*
G75*
G02*
X12740000Y-11275000I40000J0D01*
G01*
X12740000Y-11525000D02*
G75*
G02*
X12660000Y-11525000I-40000J0D01*
G01*
X12660000Y-11525000D02*
G75*
G02*
X12740000Y-11525000I40000J0D01*
G01*
X12840000Y-10325000D02*
G75*
G02*
X12760000Y-10325000I-40000J0D01*
G01*
X12760000Y-10325000D02*
G75*
G02*
X12840000Y-10325000I40000J0D01*
G01*
X12840000Y-10575000D02*
G75*
G02*
X12760000Y-10575000I-40000J0D01*
G01*
X12760000Y-10575000D02*
G75*
G02*
X12840000Y-10575000I40000J0D01*
G01*
X12885000Y-9365000D02*
G75*
G02*
X12805000Y-9365000I-40000J0D01*
G01*
X12805000Y-9365000D02*
G75*
G02*
X12885000Y-9365000I40000J0D01*
G01*
X12885000Y-9685000D02*
G75*
G02*
X12805000Y-9685000I-40000J0D01*
G01*
X12805000Y-9685000D02*
G75*
G02*
X12885000Y-9685000I40000J0D01*
G01*
X12891000Y-7016500D02*
G75*
G02*
X12811000Y-7016500I-40000J0D01*
G01*
X12811000Y-7016500D02*
G75*
G02*
X12891000Y-7016500I40000J0D01*
G01*
X12910000Y-7486000D02*
G75*
G02*
X12830000Y-7486000I-40000J0D01*
G01*
X12830000Y-7486000D02*
G75*
G02*
X12910000Y-7486000I40000J0D01*
G01*
X12910000Y-8248000D02*
G75*
G02*
X12830000Y-8248000I-40000J0D01*
G01*
X12830000Y-8248000D02*
G75*
G02*
X12910000Y-8248000I40000J0D01*
G01*
X13005000Y-11168500D02*
G75*
G02*
X12925000Y-11168500I-40000J0D01*
G01*
X12925000Y-11168500D02*
G75*
G02*
X13005000Y-11168500I40000J0D01*
G01*
X13005000Y-11930500D02*
G75*
G02*
X12925000Y-11930500I-40000J0D01*
G01*
X12925000Y-11930500D02*
G75*
G02*
X13005000Y-11930500I40000J0D01*
G01*
X13010000Y-5786000D02*
G75*
G02*
X12930000Y-5786000I-40000J0D01*
G01*
X12930000Y-5786000D02*
G75*
G02*
X13010000Y-5786000I40000J0D01*
G01*
X13069000Y-12250000D02*
G75*
G02*
X12989000Y-12250000I-40000J0D01*
G01*
X12989000Y-12250000D02*
G75*
G02*
X13069000Y-12250000I40000J0D01*
G01*
X13135000Y-9365000D02*
G75*
G02*
X13055000Y-9365000I-40000J0D01*
G01*
X13055000Y-9365000D02*
G75*
G02*
X13135000Y-9365000I40000J0D01*
G01*
X13135000Y-9685000D02*
G75*
G02*
X13055000Y-9685000I-40000J0D01*
G01*
X13055000Y-9685000D02*
G75*
G02*
X13135000Y-9685000I40000J0D01*
G01*
X13164000Y-7486000D02*
G75*
G02*
X13084000Y-7486000I-40000J0D01*
G01*
X13084000Y-7486000D02*
G75*
G02*
X13164000Y-7486000I40000J0D01*
G01*
X13164000Y-8248000D02*
G75*
G02*
X13084000Y-8248000I-40000J0D01*
G01*
X13084000Y-8248000D02*
G75*
G02*
X13164000Y-8248000I40000J0D01*
G01*
X13259000Y-11168500D02*
G75*
G02*
X13179000Y-11168500I-40000J0D01*
G01*
X13179000Y-11168500D02*
G75*
G02*
X13259000Y-11168500I40000J0D01*
G01*
X13259000Y-11930500D02*
G75*
G02*
X13179000Y-11930500I-40000J0D01*
G01*
X13179000Y-11930500D02*
G75*
G02*
X13259000Y-11930500I40000J0D01*
G01*
X13290000Y-10038000D02*
G75*
G02*
X13210000Y-10038000I-40000J0D01*
G01*
X13210000Y-10038000D02*
G75*
G02*
X13290000Y-10038000I40000J0D01*
G01*
X13290000Y-10800000D02*
G75*
G02*
X13210000Y-10800000I-40000J0D01*
G01*
X13210000Y-10800000D02*
G75*
G02*
X13290000Y-10800000I40000J0D01*
G01*
X13418000Y-7486000D02*
G75*
G02*
X13338000Y-7486000I-40000J0D01*
G01*
X13338000Y-7486000D02*
G75*
G02*
X13418000Y-7486000I40000J0D01*
G01*
X13418000Y-8248000D02*
G75*
G02*
X13338000Y-8248000I-40000J0D01*
G01*
X13338000Y-8248000D02*
G75*
G02*
X13418000Y-8248000I40000J0D01*
G01*
X13513000Y-11168500D02*
G75*
G02*
X13433000Y-11168500I-40000J0D01*
G01*
X13433000Y-11168500D02*
G75*
G02*
X13513000Y-11168500I40000J0D01*
G01*
X13513000Y-11930500D02*
G75*
G02*
X13433000Y-11930500I-40000J0D01*
G01*
X13433000Y-11930500D02*
G75*
G02*
X13513000Y-11930500I40000J0D01*
G01*
X13532000Y-12400000D02*
G75*
G02*
X13452000Y-12400000I-40000J0D01*
G01*
X13452000Y-12400000D02*
G75*
G02*
X13532000Y-12400000I40000J0D01*
G01*
X13544000Y-10038000D02*
G75*
G02*
X13464000Y-10038000I-40000J0D01*
G01*
X13464000Y-10038000D02*
G75*
G02*
X13544000Y-10038000I40000J0D01*
G01*
X13544000Y-10800000D02*
G75*
G02*
X13464000Y-10800000I-40000J0D01*
G01*
X13464000Y-10800000D02*
G75*
G02*
X13544000Y-10800000I40000J0D01*
G01*
X13672000Y-7486000D02*
G75*
G02*
X13592000Y-7486000I-40000J0D01*
G01*
X13592000Y-7486000D02*
G75*
G02*
X13672000Y-7486000I40000J0D01*
G01*
X13672000Y-8248000D02*
G75*
G02*
X13592000Y-8248000I-40000J0D01*
G01*
X13592000Y-8248000D02*
G75*
G02*
X13672000Y-8248000I40000J0D01*
G01*
X13767000Y-11168500D02*
G75*
G02*
X13687000Y-11168500I-40000J0D01*
G01*
X13687000Y-11168500D02*
G75*
G02*
X13767000Y-11168500I40000J0D01*
G01*
X13767000Y-11930500D02*
G75*
G02*
X13687000Y-11930500I-40000J0D01*
G01*
X13687000Y-11930500D02*
G75*
G02*
X13767000Y-11930500I40000J0D01*
G01*
X13798000Y-10038000D02*
G75*
G02*
X13718000Y-10038000I-40000J0D01*
G01*
X13718000Y-10038000D02*
G75*
G02*
X13798000Y-10038000I40000J0D01*
G01*
X13798000Y-10800000D02*
G75*
G02*
X13718000Y-10800000I-40000J0D01*
G01*
X13718000Y-10800000D02*
G75*
G02*
X13798000Y-10800000I40000J0D01*
G01*
X13907000Y-7016500D02*
G75*
G02*
X13827000Y-7016500I-40000J0D01*
G01*
X13827000Y-7016500D02*
G75*
G02*
X13907000Y-7016500I40000J0D01*
G01*
X13926000Y-7486000D02*
G75*
G02*
X13846000Y-7486000I-40000J0D01*
G01*
X13846000Y-7486000D02*
G75*
G02*
X13926000Y-7486000I40000J0D01*
G01*
X13926000Y-8248000D02*
G75*
G02*
X13846000Y-8248000I-40000J0D01*
G01*
X13846000Y-8248000D02*
G75*
G02*
X13926000Y-8248000I40000J0D01*
G01*
X14021000Y-11168500D02*
G75*
G02*
X13941000Y-11168500I-40000J0D01*
G01*
X13941000Y-11168500D02*
G75*
G02*
X14021000Y-11168500I40000J0D01*
G01*
X14021000Y-11930500D02*
G75*
G02*
X13941000Y-11930500I-40000J0D01*
G01*
X13941000Y-11930500D02*
G75*
G02*
X14021000Y-11930500I40000J0D01*
G01*
X14052000Y-10038000D02*
G75*
G02*
X13972000Y-10038000I-40000J0D01*
G01*
X13972000Y-10038000D02*
G75*
G02*
X14052000Y-10038000I40000J0D01*
G01*
X14052000Y-10800000D02*
G75*
G02*
X13972000Y-10800000I-40000J0D01*
G01*
X13972000Y-10800000D02*
G75*
G02*
X14052000Y-10800000I40000J0D01*
G01*
X14180000Y-7486000D02*
G75*
G02*
X14100000Y-7486000I-40000J0D01*
G01*
X14100000Y-7486000D02*
G75*
G02*
X14180000Y-7486000I40000J0D01*
G01*
X14180000Y-8248000D02*
G75*
G02*
X14100000Y-8248000I-40000J0D01*
G01*
X14100000Y-8248000D02*
G75*
G02*
X14180000Y-8248000I40000J0D01*
G01*
X14275000Y-11168500D02*
G75*
G02*
X14195000Y-11168500I-40000J0D01*
G01*
X14195000Y-11168500D02*
G75*
G02*
X14275000Y-11168500I40000J0D01*
G01*
X14275000Y-11930500D02*
G75*
G02*
X14195000Y-11930500I-40000J0D01*
G01*
X14195000Y-11930500D02*
G75*
G02*
X14275000Y-11930500I40000J0D01*
G01*
X14306000Y-10038000D02*
G75*
G02*
X14226000Y-10038000I-40000J0D01*
G01*
X14226000Y-10038000D02*
G75*
G02*
X14306000Y-10038000I40000J0D01*
G01*
X14306000Y-10800000D02*
G75*
G02*
X14226000Y-10800000I-40000J0D01*
G01*
X14226000Y-10800000D02*
G75*
G02*
X14306000Y-10800000I40000J0D01*
G01*
X14370000Y-7166500D02*
G75*
G02*
X14290000Y-7166500I-40000J0D01*
G01*
X14290000Y-7166500D02*
G75*
G02*
X14370000Y-7166500I40000J0D01*
G01*
X14434000Y-7486000D02*
G75*
G02*
X14354000Y-7486000I-40000J0D01*
G01*
X14354000Y-7486000D02*
G75*
G02*
X14434000Y-7486000I40000J0D01*
G01*
X14434000Y-8248000D02*
G75*
G02*
X14354000Y-8248000I-40000J0D01*
G01*
X14354000Y-8248000D02*
G75*
G02*
X14434000Y-8248000I40000J0D01*
G01*
X14484500Y-13630500D02*
G75*
G02*
X14404500Y-13630500I-40000J0D01*
G01*
X14404500Y-13630500D02*
G75*
G02*
X14484500Y-13630500I40000J0D01*
G01*
X14529000Y-11168500D02*
G75*
G02*
X14449000Y-11168500I-40000J0D01*
G01*
X14449000Y-11168500D02*
G75*
G02*
X14529000Y-11168500I40000J0D01*
G01*
X14529000Y-11930500D02*
G75*
G02*
X14449000Y-11930500I-40000J0D01*
G01*
X14449000Y-11930500D02*
G75*
G02*
X14529000Y-11930500I40000J0D01*
G01*
X14548000Y-12400000D02*
G75*
G02*
X14468000Y-12400000I-40000J0D01*
G01*
X14468000Y-12400000D02*
G75*
G02*
X14548000Y-12400000I40000J0D01*
G01*
X14560000Y-10038000D02*
G75*
G02*
X14480000Y-10038000I-40000J0D01*
G01*
X14480000Y-10038000D02*
G75*
G02*
X14560000Y-10038000I40000J0D01*
G01*
X14560000Y-10800000D02*
G75*
G02*
X14480000Y-10800000I-40000J0D01*
G01*
X14480000Y-10800000D02*
G75*
G02*
X14560000Y-10800000I40000J0D01*
G01*
X14699000Y-7891500D02*
G75*
G02*
X14619000Y-7891500I-40000J0D01*
G01*
X14619000Y-7891500D02*
G75*
G02*
X14699000Y-7891500I40000J0D01*
G01*
X14699000Y-8141500D02*
G75*
G02*
X14619000Y-8141500I-40000J0D01*
G01*
X14619000Y-8141500D02*
G75*
G02*
X14699000Y-8141500I40000J0D01*
G01*
X14783000Y-11168500D02*
G75*
G02*
X14703000Y-11168500I-40000J0D01*
G01*
X14703000Y-11168500D02*
G75*
G02*
X14783000Y-11168500I40000J0D01*
G01*
X14783000Y-11930500D02*
G75*
G02*
X14703000Y-11930500I-40000J0D01*
G01*
X14703000Y-11930500D02*
G75*
G02*
X14783000Y-11930500I40000J0D01*
G01*
X14814000Y-10038000D02*
G75*
G02*
X14734000Y-10038000I-40000J0D01*
G01*
X14734000Y-10038000D02*
G75*
G02*
X14814000Y-10038000I40000J0D01*
G01*
X14814000Y-10800000D02*
G75*
G02*
X14734000Y-10800000I-40000J0D01*
G01*
X14734000Y-10800000D02*
G75*
G02*
X14814000Y-10800000I40000J0D01*
G01*
X14870000Y-7166500D02*
G75*
G02*
X14790000Y-7166500I-40000J0D01*
G01*
X14790000Y-7166500D02*
G75*
G02*
X14870000Y-7166500I40000J0D01*
G01*
X14984500Y-13630500D02*
G75*
G02*
X14904500Y-13630500I-40000J0D01*
G01*
X14904500Y-13630500D02*
G75*
G02*
X14984500Y-13630500I40000J0D01*
G01*
X15213000Y-13489000D02*
G75*
G02*
X15133000Y-13489000I-40000J0D01*
G01*
X15133000Y-13489000D02*
G75*
G02*
X15213000Y-13489000I40000J0D01*
G01*
X15249000Y-7200500D02*
G75*
G02*
X15169000Y-7200500I-40000J0D01*
G01*
X15169000Y-7200500D02*
G75*
G02*
X15249000Y-7200500I40000J0D01*
G01*
X15249000Y-8216500D02*
G75*
G02*
X15169000Y-8216500I-40000J0D01*
G01*
X15169000Y-8216500D02*
G75*
G02*
X15249000Y-8216500I40000J0D01*
G01*
X15320500Y-10700500D02*
G75*
G02*
X15240500Y-10700500I-40000J0D01*
G01*
X15240500Y-10700500D02*
G75*
G02*
X15320500Y-10700500I40000J0D01*
G01*
X15320500Y-10950500D02*
G75*
G02*
X15240500Y-10950500I-40000J0D01*
G01*
X15240500Y-10950500D02*
G75*
G02*
X15320500Y-10950500I40000J0D01*
G01*
X15321000Y-12614000D02*
G75*
G02*
X15241000Y-12614000I-40000J0D01*
G01*
X15241000Y-12614000D02*
G75*
G02*
X15321000Y-12614000I40000J0D01*
G01*
X15321000Y-12864000D02*
G75*
G02*
X15241000Y-12864000I-40000J0D01*
G01*
X15241000Y-12864000D02*
G75*
G02*
X15321000Y-12864000I40000J0D01*
G01*
X15389750Y-6206500D02*
G75*
G02*
X15309750Y-6206500I-40000J0D01*
G01*
X15309750Y-6206500D02*
G75*
G02*
X15389750Y-6206500I40000J0D01*
G01*
X15389750Y-6526500D02*
G75*
G02*
X15309750Y-6526500I-40000J0D01*
G01*
X15309750Y-6526500D02*
G75*
G02*
X15389750Y-6526500I40000J0D01*
G01*
X15590000Y-8200000D02*
G75*
G02*
X15510000Y-8200000I-40000J0D01*
G01*
X15510000Y-8200000D02*
G75*
G02*
X15590000Y-8200000I40000J0D01*
G01*
X15590000Y-9216000D02*
G75*
G02*
X15510000Y-9216000I-40000J0D01*
G01*
X15510000Y-9216000D02*
G75*
G02*
X15590000Y-9216000I40000J0D01*
G01*
X15639750Y-6206500D02*
G75*
G02*
X15559750Y-6206500I-40000J0D01*
G01*
X15559750Y-6206500D02*
G75*
G02*
X15639750Y-6206500I40000J0D01*
G01*
X15639750Y-6526500D02*
G75*
G02*
X15559750Y-6526500I-40000J0D01*
G01*
X15559750Y-6526500D02*
G75*
G02*
X15639750Y-6526500I40000J0D01*
G01*
X15732000Y-12349500D02*
G75*
G02*
X15652000Y-12349500I-40000J0D01*
G01*
X15652000Y-12349500D02*
G75*
G02*
X15732000Y-12349500I40000J0D01*
G01*
X15732000Y-13111500D02*
G75*
G02*
X15652000Y-13111500I-40000J0D01*
G01*
X15652000Y-13111500D02*
G75*
G02*
X15732000Y-13111500I40000J0D01*
G01*
X15805000Y-10469000D02*
G75*
G02*
X15725000Y-10469000I-40000J0D01*
G01*
X15725000Y-10469000D02*
G75*
G02*
X15805000Y-10469000I40000J0D01*
G01*
X15805000Y-11231000D02*
G75*
G02*
X15725000Y-11231000I-40000J0D01*
G01*
X15725000Y-11231000D02*
G75*
G02*
X15805000Y-11231000I40000J0D01*
G01*
X15882000Y-7566500D02*
G75*
G02*
X15802000Y-7566500I-40000J0D01*
G01*
X15802000Y-7566500D02*
G75*
G02*
X15882000Y-7566500I40000J0D01*
G01*
X15889750Y-6206500D02*
G75*
G02*
X15809750Y-6206500I-40000J0D01*
G01*
X15809750Y-6206500D02*
G75*
G02*
X15889750Y-6206500I40000J0D01*
G01*
X15889750Y-6526500D02*
G75*
G02*
X15809750Y-6526500I-40000J0D01*
G01*
X15809750Y-6526500D02*
G75*
G02*
X15889750Y-6526500I40000J0D01*
G01*
X15986000Y-12349500D02*
G75*
G02*
X15906000Y-12349500I-40000J0D01*
G01*
X15906000Y-12349500D02*
G75*
G02*
X15986000Y-12349500I40000J0D01*
G01*
X15986000Y-13111500D02*
G75*
G02*
X15906000Y-13111500I-40000J0D01*
G01*
X15906000Y-13111500D02*
G75*
G02*
X15986000Y-13111500I40000J0D01*
G01*
X16059000Y-10469000D02*
G75*
G02*
X15979000Y-10469000I-40000J0D01*
G01*
X15979000Y-10469000D02*
G75*
G02*
X16059000Y-10469000I40000J0D01*
G01*
X16059000Y-11231000D02*
G75*
G02*
X15979000Y-11231000I-40000J0D01*
G01*
X15979000Y-11231000D02*
G75*
G02*
X16059000Y-11231000I40000J0D01*
G01*
X16060000Y-8536000D02*
G75*
G02*
X15980000Y-8536000I-40000J0D01*
G01*
X15980000Y-8536000D02*
G75*
G02*
X16060000Y-8536000I40000J0D01*
G01*
X16060000Y-9298000D02*
G75*
G02*
X15980000Y-9298000I-40000J0D01*
G01*
X15980000Y-9298000D02*
G75*
G02*
X16060000Y-9298000I40000J0D01*
G01*
X16229000Y-13489000D02*
G75*
G02*
X16149000Y-13489000I-40000J0D01*
G01*
X16149000Y-13489000D02*
G75*
G02*
X16229000Y-13489000I40000J0D01*
G01*
X16240000Y-12349500D02*
G75*
G02*
X16160000Y-12349500I-40000J0D01*
G01*
X16160000Y-12349500D02*
G75*
G02*
X16240000Y-12349500I40000J0D01*
G01*
X16240000Y-13111500D02*
G75*
G02*
X16160000Y-13111500I-40000J0D01*
G01*
X16160000Y-13111500D02*
G75*
G02*
X16240000Y-13111500I40000J0D01*
G01*
X16313000Y-10469000D02*
G75*
G02*
X16233000Y-10469000I-40000J0D01*
G01*
X16233000Y-10469000D02*
G75*
G02*
X16313000Y-10469000I40000J0D01*
G01*
X16313000Y-11231000D02*
G75*
G02*
X16233000Y-11231000I-40000J0D01*
G01*
X16233000Y-11231000D02*
G75*
G02*
X16313000Y-11231000I40000J0D01*
G01*
X16314000Y-8536000D02*
G75*
G02*
X16234000Y-8536000I-40000J0D01*
G01*
X16234000Y-8536000D02*
G75*
G02*
X16314000Y-8536000I40000J0D01*
G01*
X16314000Y-9298000D02*
G75*
G02*
X16234000Y-9298000I-40000J0D01*
G01*
X16234000Y-9298000D02*
G75*
G02*
X16314000Y-9298000I40000J0D01*
G01*
X16399000Y-8166500D02*
G75*
G02*
X16319000Y-8166500I-40000J0D01*
G01*
X16319000Y-8166500D02*
G75*
G02*
X16399000Y-8166500I40000J0D01*
G01*
X16452000Y-6460000D02*
G75*
G02*
X16372000Y-6460000I-40000J0D01*
G01*
X16372000Y-6460000D02*
G75*
G02*
X16452000Y-6460000I40000J0D01*
G01*
X16494000Y-12349500D02*
G75*
G02*
X16414000Y-12349500I-40000J0D01*
G01*
X16414000Y-12349500D02*
G75*
G02*
X16494000Y-12349500I40000J0D01*
G01*
X16494000Y-13111500D02*
G75*
G02*
X16414000Y-13111500I-40000J0D01*
G01*
X16414000Y-13111500D02*
G75*
G02*
X16494000Y-13111500I40000J0D01*
G01*
X16563000Y-13489000D02*
G75*
G02*
X16483000Y-13489000I-40000J0D01*
G01*
X16483000Y-13489000D02*
G75*
G02*
X16563000Y-13489000I40000J0D01*
G01*
X16567000Y-10469000D02*
G75*
G02*
X16487000Y-10469000I-40000J0D01*
G01*
X16487000Y-10469000D02*
G75*
G02*
X16567000Y-10469000I40000J0D01*
G01*
X16567000Y-11231000D02*
G75*
G02*
X16487000Y-11231000I-40000J0D01*
G01*
X16487000Y-11231000D02*
G75*
G02*
X16567000Y-11231000I40000J0D01*
G01*
X16568000Y-8536000D02*
G75*
G02*
X16488000Y-8536000I-40000J0D01*
G01*
X16488000Y-8536000D02*
G75*
G02*
X16568000Y-8536000I40000J0D01*
G01*
X16568000Y-9298000D02*
G75*
G02*
X16488000Y-9298000I-40000J0D01*
G01*
X16488000Y-9298000D02*
G75*
G02*
X16568000Y-9298000I40000J0D01*
G01*
X16748000Y-12349500D02*
G75*
G02*
X16668000Y-12349500I-40000J0D01*
G01*
X16668000Y-12349500D02*
G75*
G02*
X16748000Y-12349500I40000J0D01*
G01*
X16748000Y-13111500D02*
G75*
G02*
X16668000Y-13111500I-40000J0D01*
G01*
X16668000Y-13111500D02*
G75*
G02*
X16748000Y-13111500I40000J0D01*
G01*
X16821000Y-10469000D02*
G75*
G02*
X16741000Y-10469000I-40000J0D01*
G01*
X16741000Y-10469000D02*
G75*
G02*
X16821000Y-10469000I40000J0D01*
G01*
X16821000Y-11231000D02*
G75*
G02*
X16741000Y-11231000I-40000J0D01*
G01*
X16741000Y-11231000D02*
G75*
G02*
X16821000Y-11231000I40000J0D01*
G01*
X16822000Y-8536000D02*
G75*
G02*
X16742000Y-8536000I-40000J0D01*
G01*
X16742000Y-8536000D02*
G75*
G02*
X16822000Y-8536000I40000J0D01*
G01*
X16822000Y-9298000D02*
G75*
G02*
X16742000Y-9298000I-40000J0D01*
G01*
X16742000Y-9298000D02*
G75*
G02*
X16822000Y-9298000I40000J0D01*
G01*
X16898000Y-7566500D02*
G75*
G02*
X16818000Y-7566500I-40000J0D01*
G01*
X16818000Y-7566500D02*
G75*
G02*
X16898000Y-7566500I40000J0D01*
G01*
X16899000Y-8166500D02*
G75*
G02*
X16819000Y-8166500I-40000J0D01*
G01*
X16819000Y-8166500D02*
G75*
G02*
X16899000Y-8166500I40000J0D01*
G01*
X17002000Y-12349500D02*
G75*
G02*
X16922000Y-12349500I-40000J0D01*
G01*
X16922000Y-12349500D02*
G75*
G02*
X17002000Y-12349500I40000J0D01*
G01*
X17002000Y-13111500D02*
G75*
G02*
X16922000Y-13111500I-40000J0D01*
G01*
X16922000Y-13111500D02*
G75*
G02*
X17002000Y-13111500I40000J0D01*
G01*
X17075000Y-10469000D02*
G75*
G02*
X16995000Y-10469000I-40000J0D01*
G01*
X16995000Y-10469000D02*
G75*
G02*
X17075000Y-10469000I40000J0D01*
G01*
X17075000Y-11231000D02*
G75*
G02*
X16995000Y-11231000I-40000J0D01*
G01*
X16995000Y-11231000D02*
G75*
G02*
X17075000Y-11231000I40000J0D01*
G01*
X17076000Y-8536000D02*
G75*
G02*
X16996000Y-8536000I-40000J0D01*
G01*
X16996000Y-8536000D02*
G75*
G02*
X17076000Y-8536000I40000J0D01*
G01*
X17076000Y-9298000D02*
G75*
G02*
X16996000Y-9298000I-40000J0D01*
G01*
X16996000Y-9298000D02*
G75*
G02*
X17076000Y-9298000I40000J0D01*
G01*
X17245000Y-6980500D02*
G75*
G02*
X17165000Y-6980500I-40000J0D01*
G01*
X17165000Y-6980500D02*
G75*
G02*
X17245000Y-6980500I40000J0D01*
G01*
X17256000Y-12349500D02*
G75*
G02*
X17176000Y-12349500I-40000J0D01*
G01*
X17176000Y-12349500D02*
G75*
G02*
X17256000Y-12349500I40000J0D01*
G01*
X17256000Y-13111500D02*
G75*
G02*
X17176000Y-13111500I-40000J0D01*
G01*
X17176000Y-13111500D02*
G75*
G02*
X17256000Y-13111500I40000J0D01*
G01*
X17329000Y-10469000D02*
G75*
G02*
X17249000Y-10469000I-40000J0D01*
G01*
X17249000Y-10469000D02*
G75*
G02*
X17329000Y-10469000I40000J0D01*
G01*
X17329000Y-11231000D02*
G75*
G02*
X17249000Y-11231000I-40000J0D01*
G01*
X17249000Y-11231000D02*
G75*
G02*
X17329000Y-11231000I40000J0D01*
G01*
X17330000Y-8536000D02*
G75*
G02*
X17250000Y-8536000I-40000J0D01*
G01*
X17250000Y-8536000D02*
G75*
G02*
X17330000Y-8536000I40000J0D01*
G01*
X17330000Y-9298000D02*
G75*
G02*
X17250000Y-9298000I-40000J0D01*
G01*
X17250000Y-9298000D02*
G75*
G02*
X17330000Y-9298000I40000J0D01*
G01*
X17387000Y-7766500D02*
G75*
G02*
X17307000Y-7766500I-40000J0D01*
G01*
X17307000Y-7766500D02*
G75*
G02*
X17387000Y-7766500I40000J0D01*
G01*
X17391000Y-8066500D02*
G75*
G02*
X17311000Y-8066500I-40000J0D01*
G01*
X17311000Y-8066500D02*
G75*
G02*
X17391000Y-8066500I40000J0D01*
G01*
X17468000Y-6460000D02*
G75*
G02*
X17388000Y-6460000I-40000J0D01*
G01*
X17388000Y-6460000D02*
G75*
G02*
X17468000Y-6460000I40000J0D01*
G01*
X17499000Y-6980500D02*
G75*
G02*
X17419000Y-6980500I-40000J0D01*
G01*
X17419000Y-6980500D02*
G75*
G02*
X17499000Y-6980500I40000J0D01*
G01*
X17510000Y-12349500D02*
G75*
G02*
X17430000Y-12349500I-40000J0D01*
G01*
X17430000Y-12349500D02*
G75*
G02*
X17510000Y-12349500I40000J0D01*
G01*
X17510000Y-13111500D02*
G75*
G02*
X17430000Y-13111500I-40000J0D01*
G01*
X17430000Y-13111500D02*
G75*
G02*
X17510000Y-13111500I40000J0D01*
G01*
X17579000Y-13489000D02*
G75*
G02*
X17499000Y-13489000I-40000J0D01*
G01*
X17499000Y-13489000D02*
G75*
G02*
X17579000Y-13489000I40000J0D01*
G01*
X17583000Y-10469000D02*
G75*
G02*
X17503000Y-10469000I-40000J0D01*
G01*
X17503000Y-10469000D02*
G75*
G02*
X17583000Y-10469000I40000J0D01*
G01*
X17583000Y-11231000D02*
G75*
G02*
X17503000Y-11231000I-40000J0D01*
G01*
X17503000Y-11231000D02*
G75*
G02*
X17583000Y-11231000I40000J0D01*
G01*
X17584000Y-8536000D02*
G75*
G02*
X17504000Y-8536000I-40000J0D01*
G01*
X17504000Y-8536000D02*
G75*
G02*
X17584000Y-8536000I40000J0D01*
G01*
X17584000Y-9298000D02*
G75*
G02*
X17504000Y-9298000I-40000J0D01*
G01*
X17504000Y-9298000D02*
G75*
G02*
X17584000Y-9298000I40000J0D01*
G01*
X17753000Y-6980500D02*
G75*
G02*
X17673000Y-6980500I-40000J0D01*
G01*
X17673000Y-6980500D02*
G75*
G02*
X17753000Y-6980500I40000J0D01*
G01*
X17838000Y-8536000D02*
G75*
G02*
X17758000Y-8536000I-40000J0D01*
G01*
X17758000Y-8536000D02*
G75*
G02*
X17838000Y-8536000I40000J0D01*
G01*
X17838000Y-9298000D02*
G75*
G02*
X17758000Y-9298000I-40000J0D01*
G01*
X17758000Y-9298000D02*
G75*
G02*
X17838000Y-9298000I40000J0D01*
G01*
X18001000Y-12281000D02*
G75*
G02*
X17921000Y-12281000I-40000J0D01*
G01*
X17921000Y-12281000D02*
G75*
G02*
X18001000Y-12281000I40000J0D01*
G01*
X18001000Y-13297000D02*
G75*
G02*
X17921000Y-13297000I-40000J0D01*
G01*
X17921000Y-13297000D02*
G75*
G02*
X18001000Y-13297000I40000J0D01*
G01*
X18120500Y-10242500D02*
G75*
G02*
X18040500Y-10242500I-40000J0D01*
G01*
X18040500Y-10242500D02*
G75*
G02*
X18120500Y-10242500I40000J0D01*
G01*
X18120500Y-11258500D02*
G75*
G02*
X18040500Y-11258500I-40000J0D01*
G01*
X18040500Y-11258500D02*
G75*
G02*
X18120500Y-11258500I40000J0D01*
G01*
X18170511Y-7300000D02*
G75*
G02*
X18090511Y-7300000I-40000J0D01*
G01*
X18090511Y-7300000D02*
G75*
G02*
X18170511Y-7300000I40000J0D01*
G01*
X18299000Y-8791500D02*
G75*
G02*
X18219000Y-8791500I-40000J0D01*
G01*
X18219000Y-8791500D02*
G75*
G02*
X18299000Y-8791500I40000J0D01*
G01*
X18299000Y-9041500D02*
G75*
G02*
X18219000Y-9041500I-40000J0D01*
G01*
X18219000Y-9041500D02*
G75*
G02*
X18299000Y-9041500I40000J0D01*
G01*
X18403000Y-7766500D02*
G75*
G02*
X18323000Y-7766500I-40000J0D01*
G01*
X18323000Y-7766500D02*
G75*
G02*
X18403000Y-7766500I40000J0D01*
G01*
X18407000Y-8066500D02*
G75*
G02*
X18327000Y-8066500I-40000J0D01*
G01*
X18327000Y-8066500D02*
G75*
G02*
X18407000Y-8066500I40000J0D01*
G01*
X18420511Y-7300000D02*
G75*
G02*
X18340511Y-7300000I-40000J0D01*
G01*
X18340511Y-7300000D02*
G75*
G02*
X18420511Y-7300000I40000J0D01*
G01*
X11500000Y-13890750D02*
X11500000Y-13980750D01*
X11455000Y-13935750D02*
X11545000Y-13935750D01*
X11500000Y-14220750D02*
X11500000Y-14310750D01*
X11455000Y-14265750D02*
X11545000Y-14265750D01*
X11750000Y-13890750D02*
X11750000Y-13980750D01*
X11705000Y-13935750D02*
X11795000Y-13935750D01*
X11750000Y-14220750D02*
X11750000Y-14310750D01*
X11705000Y-14265750D02*
X11795000Y-14265750D01*
X12000000Y-13890750D02*
X12000000Y-13980750D01*
X11955000Y-13935750D02*
X12045000Y-13935750D01*
X12000000Y-14220750D02*
X12000000Y-14310750D01*
X11955000Y-14265750D02*
X12045000Y-14265750D01*
X15359000Y-5105750D02*
X15359000Y-5195750D01*
X15314000Y-5150750D02*
X15404000Y-5150750D01*
X15359000Y-5435750D02*
X15359000Y-5525750D01*
X15314000Y-5480750D02*
X15404000Y-5480750D01*
X15609000Y-5105750D02*
X15609000Y-5195750D01*
X15564000Y-5150750D02*
X15654000Y-5150750D01*
X15609000Y-5435750D02*
X15609000Y-5525750D01*
X15564000Y-5480750D02*
X15654000Y-5480750D01*
X15859000Y-5105750D02*
X15859000Y-5195750D01*
X15814000Y-5150750D02*
X15904000Y-5150750D01*
X15859000Y-5435750D02*
X15859000Y-5525750D01*
X15814000Y-5480750D02*
X15904000Y-5480750D01*
X9028356Y-14235356D02*
X9028356Y-14164644D01*
X8957644Y-14164644D01*
X8957644Y-14235356D01*
X9028356Y-14235356D01*
X9281356Y-4985356D02*
X9281356Y-4914644D01*
X9210644Y-4914644D01*
X9210644Y-4985356D01*
X9281356Y-4985356D01*
X9281356Y-5239356D02*
X9281356Y-5168644D01*
X9210644Y-5168644D01*
X9210644Y-5239356D01*
X9281356Y-5239356D01*
X9282356Y-14235356D02*
X9282356Y-14164644D01*
X9211644Y-14164644D01*
X9211644Y-14235356D01*
X9282356Y-14235356D01*
X9289856Y-7547356D02*
X9289856Y-7476644D01*
X9219144Y-7476644D01*
X9219144Y-7547356D01*
X9289856Y-7547356D01*
X9289856Y-7801356D02*
X9289856Y-7730644D01*
X9219144Y-7730644D01*
X9219144Y-7801356D01*
X9289856Y-7801356D01*
X9535356Y-4985356D02*
X9535356Y-4914644D01*
X9464644Y-4914644D01*
X9464644Y-4985356D01*
X9535356Y-4985356D01*
X9535356Y-5239356D02*
X9535356Y-5168644D01*
X9464644Y-5168644D01*
X9464644Y-5239356D01*
X9535356Y-5239356D01*
X9543856Y-7547356D02*
X9543856Y-7476644D01*
X9473144Y-7476644D01*
X9473144Y-7547356D01*
X9543856Y-7547356D01*
X9543856Y-7801356D02*
X9543856Y-7730644D01*
X9473144Y-7730644D01*
X9473144Y-7801356D01*
X9543856Y-7801356D01*
X9736356Y-9351356D02*
X9736356Y-9280644D01*
X9665644Y-9280644D01*
X9665644Y-9351356D01*
X9736356Y-9351356D01*
X9757856Y-13335356D02*
X9757856Y-13264644D01*
X9687144Y-13264644D01*
X9687144Y-13335356D01*
X9757856Y-13335356D01*
X9789356Y-4985356D02*
X9789356Y-4914644D01*
X9718644Y-4914644D01*
X9718644Y-4985356D01*
X9789356Y-4985356D01*
X9789356Y-5239356D02*
X9789356Y-5168644D01*
X9718644Y-5168644D01*
X9718644Y-5239356D01*
X9789356Y-5239356D01*
X9797856Y-7547356D02*
X9797856Y-7476644D01*
X9727144Y-7476644D01*
X9727144Y-7547356D01*
X9797856Y-7547356D01*
X9797856Y-7801356D02*
X9797856Y-7730644D01*
X9727144Y-7730644D01*
X9727144Y-7801356D01*
X9797856Y-7801356D01*
X9878356Y-14235356D02*
X9878356Y-14164644D01*
X9807644Y-14164644D01*
X9807644Y-14235356D01*
X9878356Y-14235356D01*
X9990356Y-9351356D02*
X9990356Y-9280644D01*
X9919644Y-9280644D01*
X9919644Y-9351356D01*
X9990356Y-9351356D01*
X10011856Y-13335356D02*
X10011856Y-13264644D01*
X9941144Y-13264644D01*
X9941144Y-13335356D01*
X10011856Y-13335356D01*
X10043356Y-4985356D02*
X10043356Y-4914644D01*
X9972644Y-4914644D01*
X9972644Y-4985356D01*
X10043356Y-4985356D01*
X10043356Y-5239356D02*
X10043356Y-5168644D01*
X9972644Y-5168644D01*
X9972644Y-5239356D01*
X10043356Y-5239356D01*
X10051856Y-7547356D02*
X10051856Y-7476644D01*
X9981144Y-7476644D01*
X9981144Y-7547356D01*
X10051856Y-7547356D01*
X10051856Y-7801356D02*
X10051856Y-7730644D01*
X9981144Y-7730644D01*
X9981144Y-7801356D01*
X10051856Y-7801356D01*
X10132356Y-14235356D02*
X10132356Y-14164644D01*
X10061644Y-14164644D01*
X10061644Y-14235356D01*
X10132356Y-14235356D01*
X10297356Y-4985356D02*
X10297356Y-4914644D01*
X10226644Y-4914644D01*
X10226644Y-4985356D01*
X10297356Y-4985356D01*
X10297356Y-5239356D02*
X10297356Y-5168644D01*
X10226644Y-5168644D01*
X10226644Y-5239356D01*
X10297356Y-5239356D01*
X10305856Y-7547356D02*
X10305856Y-7476644D01*
X10235144Y-7476644D01*
X10235144Y-7547356D01*
X10305856Y-7547356D01*
X10305856Y-7801356D02*
X10305856Y-7730644D01*
X10235144Y-7730644D01*
X10235144Y-7801356D01*
X10305856Y-7801356D01*
X10551356Y-4985356D02*
X10551356Y-4914644D01*
X10480644Y-4914644D01*
X10480644Y-4985356D01*
X10551356Y-4985356D01*
X10551356Y-5239356D02*
X10551356Y-5168644D01*
X10480644Y-5168644D01*
X10480644Y-5239356D01*
X10551356Y-5239356D01*
X10555356Y-13355356D02*
X10555356Y-13284644D01*
X10484644Y-13284644D01*
X10484644Y-13355356D01*
X10555356Y-13355356D01*
X10559856Y-7547356D02*
X10559856Y-7476644D01*
X10489144Y-7476644D01*
X10489144Y-7547356D01*
X10559856Y-7547356D01*
X10559856Y-7801356D02*
X10559856Y-7730644D01*
X10489144Y-7730644D01*
X10489144Y-7801356D01*
X10559856Y-7801356D01*
X10685356Y-13985356D02*
X10685356Y-13914644D01*
X10614644Y-13914644D01*
X10614644Y-13985356D01*
X10685356Y-13985356D01*
X10685356Y-14239356D02*
X10685356Y-14168644D01*
X10614644Y-14168644D01*
X10614644Y-14239356D01*
X10685356Y-14239356D01*
X10805356Y-4985356D02*
X10805356Y-4914644D01*
X10734644Y-4914644D01*
X10734644Y-4985356D01*
X10805356Y-4985356D01*
X10805356Y-5239356D02*
X10805356Y-5168644D01*
X10734644Y-5168644D01*
X10734644Y-5239356D01*
X10805356Y-5239356D01*
X10809356Y-13355356D02*
X10809356Y-13284644D01*
X10738644Y-13284644D01*
X10738644Y-13355356D01*
X10809356Y-13355356D01*
X10813856Y-7547356D02*
X10813856Y-7476644D01*
X10743144Y-7476644D01*
X10743144Y-7547356D01*
X10813856Y-7547356D01*
X10813856Y-7801356D02*
X10813856Y-7730644D01*
X10743144Y-7730644D01*
X10743144Y-7801356D01*
X10813856Y-7801356D01*
X11059356Y-4985356D02*
X11059356Y-4914644D01*
X10988644Y-4914644D01*
X10988644Y-4985356D01*
X11059356Y-4985356D01*
X11059356Y-5239356D02*
X11059356Y-5168644D01*
X10988644Y-5168644D01*
X10988644Y-5239356D01*
X11059356Y-5239356D01*
X11067856Y-7547356D02*
X11067856Y-7476644D01*
X10997144Y-7476644D01*
X10997144Y-7547356D01*
X11067856Y-7547356D01*
X11067856Y-7801356D02*
X11067856Y-7730644D01*
X10997144Y-7730644D01*
X10997144Y-7801356D01*
X11067856Y-7801356D01*
X11313356Y-4985356D02*
X11313356Y-4914644D01*
X11242644Y-4914644D01*
X11242644Y-4985356D01*
X11313356Y-4985356D01*
X11313356Y-5239356D02*
X11313356Y-5168644D01*
X11242644Y-5168644D01*
X11242644Y-5239356D01*
X11313356Y-5239356D01*
X11321856Y-7547356D02*
X11321856Y-7476644D01*
X11251144Y-7476644D01*
X11251144Y-7547356D01*
X11321856Y-7547356D01*
X11321856Y-7801356D02*
X11321856Y-7730644D01*
X11251144Y-7730644D01*
X11251144Y-7801356D01*
X11321856Y-7801356D01*
X11567356Y-4985356D02*
X11567356Y-4914644D01*
X11496644Y-4914644D01*
X11496644Y-4985356D01*
X11567356Y-4985356D01*
X11567356Y-5239356D02*
X11567356Y-5168644D01*
X11496644Y-5168644D01*
X11496644Y-5239356D01*
X11567356Y-5239356D01*
X11575856Y-7547356D02*
X11575856Y-7476644D01*
X11505144Y-7476644D01*
X11505144Y-7547356D01*
X11575856Y-7547356D01*
X11575856Y-7801356D02*
X11575856Y-7730644D01*
X11505144Y-7730644D01*
X11505144Y-7801356D01*
X11575856Y-7801356D01*
X11821356Y-4985356D02*
X11821356Y-4914644D01*
X11750644Y-4914644D01*
X11750644Y-4985356D01*
X11821356Y-4985356D01*
X11821356Y-5239356D02*
X11821356Y-5168644D01*
X11750644Y-5168644D01*
X11750644Y-5239356D01*
X11821356Y-5239356D01*
X11829856Y-7547356D02*
X11829856Y-7476644D01*
X11759144Y-7476644D01*
X11759144Y-7547356D01*
X11829856Y-7547356D01*
X11829856Y-7801356D02*
X11829856Y-7730644D01*
X11759144Y-7730644D01*
X11759144Y-7801356D01*
X11829856Y-7801356D01*
X12075356Y-4985356D02*
X12075356Y-4914644D01*
X12004644Y-4914644D01*
X12004644Y-4985356D01*
X12075356Y-4985356D01*
X12075356Y-5239356D02*
X12075356Y-5168644D01*
X12004644Y-5168644D01*
X12004644Y-5239356D01*
X12075356Y-5239356D01*
X12083856Y-7547356D02*
X12083856Y-7476644D01*
X12013144Y-7476644D01*
X12013144Y-7547356D01*
X12083856Y-7547356D01*
X12083856Y-7801356D02*
X12083856Y-7730644D01*
X12013144Y-7730644D01*
X12013144Y-7801356D01*
X12083856Y-7801356D01*
X12642356Y-5399356D02*
X12642356Y-5328644D01*
X12571644Y-5328644D01*
X12571644Y-5399356D01*
X12642356Y-5399356D01*
X12689356Y-14085356D02*
X12689356Y-14014644D01*
X12618644Y-14014644D01*
X12618644Y-14085356D01*
X12689356Y-14085356D01*
X12690356Y-6601856D02*
X12690356Y-6531144D01*
X12619644Y-6531144D01*
X12619644Y-6601856D01*
X12690356Y-6601856D01*
X12854856Y-12685356D02*
X12854856Y-12614644D01*
X12784144Y-12614644D01*
X12784144Y-12685356D01*
X12854856Y-12685356D01*
X12892356Y-5399356D02*
X12892356Y-5328644D01*
X12821644Y-5328644D01*
X12821644Y-5399356D01*
X12892356Y-5399356D01*
X12939356Y-14085356D02*
X12939356Y-14014644D01*
X12868644Y-14014644D01*
X12868644Y-14085356D01*
X12939356Y-14085356D01*
X12944356Y-6601856D02*
X12944356Y-6531144D01*
X12873644Y-6531144D01*
X12873644Y-6601856D01*
X12944356Y-6601856D01*
X12985356Y-13415856D02*
X12985356Y-13345144D01*
X12914644Y-13345144D01*
X12914644Y-13415856D01*
X12985356Y-13415856D01*
X13108856Y-12685356D02*
X13108856Y-12614644D01*
X13038144Y-12614644D01*
X13038144Y-12685356D01*
X13108856Y-12685356D01*
X13142356Y-5399356D02*
X13142356Y-5328644D01*
X13071644Y-5328644D01*
X13071644Y-5399356D01*
X13142356Y-5399356D01*
X13189356Y-14085356D02*
X13189356Y-14014644D01*
X13118644Y-14014644D01*
X13118644Y-14085356D01*
X13189356Y-14085356D01*
X13239356Y-13415856D02*
X13239356Y-13345144D01*
X13168644Y-13345144D01*
X13168644Y-13415856D01*
X13239356Y-13415856D01*
X13440356Y-6101856D02*
X13440356Y-6031144D01*
X13369644Y-6031144D01*
X13369644Y-6101856D01*
X13440356Y-6101856D01*
X13694356Y-6101856D02*
X13694356Y-6031144D01*
X13623644Y-6031144D01*
X13623644Y-6101856D01*
X13694356Y-6101856D01*
X13735356Y-13385356D02*
X13735356Y-13314644D01*
X13664644Y-13314644D01*
X13664644Y-13385356D01*
X13735356Y-13385356D01*
X13989356Y-13385356D02*
X13989356Y-13314644D01*
X13918644Y-13314644D01*
X13918644Y-13385356D01*
X13989356Y-13385356D01*
X14190356Y-6071356D02*
X14190356Y-6000644D01*
X14119644Y-6000644D01*
X14119644Y-6071356D01*
X14190356Y-6071356D01*
X14242356Y-5399356D02*
X14242356Y-5328644D01*
X14171644Y-5328644D01*
X14171644Y-5399356D01*
X14242356Y-5399356D01*
X14289356Y-14085356D02*
X14289356Y-14014644D01*
X14218644Y-14014644D01*
X14218644Y-14085356D01*
X14289356Y-14085356D01*
X14320856Y-6801856D02*
X14320856Y-6731144D01*
X14250144Y-6731144D01*
X14250144Y-6801856D01*
X14320856Y-6801856D01*
X14444356Y-6071356D02*
X14444356Y-6000644D01*
X14373644Y-6000644D01*
X14373644Y-6071356D01*
X14444356Y-6071356D01*
X14485356Y-12885356D02*
X14485356Y-12814644D01*
X14414644Y-12814644D01*
X14414644Y-12885356D01*
X14485356Y-12885356D01*
X14492356Y-5399356D02*
X14492356Y-5328644D01*
X14421644Y-5328644D01*
X14421644Y-5399356D01*
X14492356Y-5399356D01*
X14539356Y-14085356D02*
X14539356Y-14014644D01*
X14468644Y-14014644D01*
X14468644Y-14085356D01*
X14539356Y-14085356D01*
X14574856Y-6801856D02*
X14574856Y-6731144D01*
X14504144Y-6731144D01*
X14504144Y-6801856D01*
X14574856Y-6801856D01*
X14739356Y-12885356D02*
X14739356Y-12814644D01*
X14668644Y-12814644D01*
X14668644Y-12885356D01*
X14739356Y-12885356D01*
X14742356Y-5399356D02*
X14742356Y-5328644D01*
X14671644Y-5328644D01*
X14671644Y-5399356D01*
X14742356Y-5399356D01*
X14789356Y-14085356D02*
X14789356Y-14014644D01*
X14718644Y-14014644D01*
X14718644Y-14085356D01*
X14789356Y-14085356D01*
X15345856Y-11685856D02*
X15345856Y-11615144D01*
X15275144Y-11615144D01*
X15275144Y-11685856D01*
X15345856Y-11685856D01*
X15345856Y-11939856D02*
X15345856Y-11869144D01*
X15275144Y-11869144D01*
X15275144Y-11939856D01*
X15345856Y-11939856D01*
X15354356Y-14247856D02*
X15354356Y-14177144D01*
X15283644Y-14177144D01*
X15283644Y-14247856D01*
X15354356Y-14247856D01*
X15354356Y-14501856D02*
X15354356Y-14431144D01*
X15283644Y-14431144D01*
X15283644Y-14501856D01*
X15354356Y-14501856D01*
X15599856Y-11685856D02*
X15599856Y-11615144D01*
X15529144Y-11615144D01*
X15529144Y-11685856D01*
X15599856Y-11685856D01*
X15599856Y-11939856D02*
X15599856Y-11869144D01*
X15529144Y-11869144D01*
X15529144Y-11939856D01*
X15599856Y-11939856D01*
X15608356Y-14247856D02*
X15608356Y-14177144D01*
X15537644Y-14177144D01*
X15537644Y-14247856D01*
X15608356Y-14247856D01*
X15608356Y-14501856D02*
X15608356Y-14431144D01*
X15537644Y-14431144D01*
X15537644Y-14501856D01*
X15608356Y-14501856D01*
X15853856Y-11685856D02*
X15853856Y-11615144D01*
X15783144Y-11615144D01*
X15783144Y-11685856D01*
X15853856Y-11685856D01*
X15853856Y-11939856D02*
X15853856Y-11869144D01*
X15783144Y-11869144D01*
X15783144Y-11939856D01*
X15853856Y-11939856D01*
X15862356Y-14247856D02*
X15862356Y-14177144D01*
X15791644Y-14177144D01*
X15791644Y-14247856D01*
X15862356Y-14247856D01*
X15862356Y-14501856D02*
X15862356Y-14431144D01*
X15791644Y-14431144D01*
X15791644Y-14501856D01*
X15862356Y-14501856D01*
X16107856Y-11685856D02*
X16107856Y-11615144D01*
X16037144Y-11615144D01*
X16037144Y-11685856D01*
X16107856Y-11685856D01*
X16107856Y-11939856D02*
X16107856Y-11869144D01*
X16037144Y-11869144D01*
X16037144Y-11939856D01*
X16107856Y-11939856D01*
X16116356Y-14247856D02*
X16116356Y-14177144D01*
X16045644Y-14177144D01*
X16045644Y-14247856D01*
X16116356Y-14247856D01*
X16116356Y-14501856D02*
X16116356Y-14431144D01*
X16045644Y-14431144D01*
X16045644Y-14501856D01*
X16116356Y-14501856D01*
X16361856Y-11685856D02*
X16361856Y-11615144D01*
X16291144Y-11615144D01*
X16291144Y-11685856D01*
X16361856Y-11685856D01*
X16361856Y-11939856D02*
X16361856Y-11869144D01*
X16291144Y-11869144D01*
X16291144Y-11939856D01*
X16361856Y-11939856D01*
X16370356Y-14247856D02*
X16370356Y-14177144D01*
X16299644Y-14177144D01*
X16299644Y-14247856D01*
X16370356Y-14247856D01*
X16370356Y-14501856D02*
X16370356Y-14431144D01*
X16299644Y-14431144D01*
X16299644Y-14501856D01*
X16370356Y-14501856D01*
X16615856Y-11685856D02*
X16615856Y-11615144D01*
X16545144Y-11615144D01*
X16545144Y-11685856D01*
X16615856Y-11685856D01*
X16615856Y-11939856D02*
X16615856Y-11869144D01*
X16545144Y-11869144D01*
X16545144Y-11939856D01*
X16615856Y-11939856D01*
X16624356Y-14247856D02*
X16624356Y-14177144D01*
X16553644Y-14177144D01*
X16553644Y-14247856D01*
X16624356Y-14247856D01*
X16624356Y-14501856D02*
X16624356Y-14431144D01*
X16553644Y-14431144D01*
X16553644Y-14501856D01*
X16624356Y-14501856D01*
X16746356Y-5245356D02*
X16746356Y-5174644D01*
X16675644Y-5174644D01*
X16675644Y-5245356D01*
X16746356Y-5245356D01*
X16746356Y-5499356D02*
X16746356Y-5428644D01*
X16675644Y-5428644D01*
X16675644Y-5499356D01*
X16746356Y-5499356D01*
X16869856Y-11685856D02*
X16869856Y-11615144D01*
X16799144Y-11615144D01*
X16799144Y-11685856D01*
X16869856Y-11685856D01*
X16869856Y-11939856D02*
X16869856Y-11869144D01*
X16799144Y-11869144D01*
X16799144Y-11939856D01*
X16869856Y-11939856D01*
X16878356Y-14247856D02*
X16878356Y-14177144D01*
X16807644Y-14177144D01*
X16807644Y-14247856D01*
X16878356Y-14247856D01*
X16878356Y-14501856D02*
X16878356Y-14431144D01*
X16807644Y-14431144D01*
X16807644Y-14501856D01*
X16878356Y-14501856D01*
X17123856Y-11685856D02*
X17123856Y-11615144D01*
X17053144Y-11615144D01*
X17053144Y-11685856D01*
X17123856Y-11685856D01*
X17123856Y-11939856D02*
X17123856Y-11869144D01*
X17053144Y-11869144D01*
X17053144Y-11939856D01*
X17123856Y-11939856D01*
X17132356Y-14247856D02*
X17132356Y-14177144D01*
X17061644Y-14177144D01*
X17061644Y-14247856D01*
X17132356Y-14247856D01*
X17132356Y-14501856D02*
X17132356Y-14431144D01*
X17061644Y-14431144D01*
X17061644Y-14501856D01*
X17132356Y-14501856D01*
X17299356Y-5249356D02*
X17299356Y-5178644D01*
X17228644Y-5178644D01*
X17228644Y-5249356D01*
X17299356Y-5249356D01*
X17377856Y-11685856D02*
X17377856Y-11615144D01*
X17307144Y-11615144D01*
X17307144Y-11685856D01*
X17377856Y-11685856D01*
X17377856Y-11939856D02*
X17377856Y-11869144D01*
X17307144Y-11869144D01*
X17307144Y-11939856D01*
X17377856Y-11939856D01*
X17386356Y-14247856D02*
X17386356Y-14177144D01*
X17315644Y-14177144D01*
X17315644Y-14247856D01*
X17386356Y-14247856D01*
X17386356Y-14501856D02*
X17386356Y-14431144D01*
X17315644Y-14431144D01*
X17315644Y-14501856D01*
X17386356Y-14501856D01*
X17419856Y-6149356D02*
X17419856Y-6078644D01*
X17349144Y-6078644D01*
X17349144Y-6149356D01*
X17419856Y-6149356D01*
X17439356Y-10135856D02*
X17439356Y-10065144D01*
X17368644Y-10065144D01*
X17368644Y-10135856D01*
X17439356Y-10135856D01*
X17553356Y-5249356D02*
X17553356Y-5178644D01*
X17482644Y-5178644D01*
X17482644Y-5249356D01*
X17553356Y-5249356D01*
X17631856Y-11685856D02*
X17631856Y-11615144D01*
X17561144Y-11615144D01*
X17561144Y-11685856D01*
X17631856Y-11685856D01*
X17631856Y-11939856D02*
X17631856Y-11869144D01*
X17561144Y-11869144D01*
X17561144Y-11939856D01*
X17631856Y-11939856D01*
X17640356Y-14247856D02*
X17640356Y-14177144D01*
X17569644Y-14177144D01*
X17569644Y-14247856D01*
X17640356Y-14247856D01*
X17640356Y-14501856D02*
X17640356Y-14431144D01*
X17569644Y-14431144D01*
X17569644Y-14501856D01*
X17640356Y-14501856D01*
X17673856Y-6149356D02*
X17673856Y-6078644D01*
X17603144Y-6078644D01*
X17603144Y-6149356D01*
X17673856Y-6149356D01*
X17693356Y-10135856D02*
X17693356Y-10065144D01*
X17622644Y-10065144D01*
X17622644Y-10135856D01*
X17693356Y-10135856D01*
X17885856Y-11685856D02*
X17885856Y-11615144D01*
X17815144Y-11615144D01*
X17815144Y-11685856D01*
X17885856Y-11685856D01*
X17885856Y-11939856D02*
X17885856Y-11869144D01*
X17815144Y-11869144D01*
X17815144Y-11939856D01*
X17885856Y-11939856D01*
X17894356Y-14247856D02*
X17894356Y-14177144D01*
X17823644Y-14177144D01*
X17823644Y-14247856D01*
X17894356Y-14247856D01*
X17894356Y-14501856D02*
X17894356Y-14431144D01*
X17823644Y-14431144D01*
X17823644Y-14501856D01*
X17894356Y-14501856D01*
X18139856Y-11685856D02*
X18139856Y-11615144D01*
X18069144Y-11615144D01*
X18069144Y-11685856D01*
X18139856Y-11685856D01*
X18139856Y-11939856D02*
X18139856Y-11869144D01*
X18069144Y-11869144D01*
X18069144Y-11939856D01*
X18139856Y-11939856D01*
X18148356Y-14247856D02*
X18148356Y-14177144D01*
X18077644Y-14177144D01*
X18077644Y-14247856D01*
X18148356Y-14247856D01*
X18148356Y-14501856D02*
X18148356Y-14431144D01*
X18077644Y-14431144D01*
X18077644Y-14501856D01*
X18148356Y-14501856D01*
X18149356Y-5249356D02*
X18149356Y-5178644D01*
X18078644Y-5178644D01*
X18078644Y-5249356D01*
X18149356Y-5249356D01*
X18149356Y-6149356D02*
X18149356Y-6078644D01*
X18078644Y-6078644D01*
X18078644Y-6149356D01*
X18149356Y-6149356D01*
X18403356Y-5249356D02*
X18403356Y-5178644D01*
X18332644Y-5178644D01*
X18332644Y-5249356D01*
X18403356Y-5249356D01*
X18403356Y-6149356D02*
X18403356Y-6078644D01*
X18332644Y-6078644D01*
X18332644Y-6149356D01*
X18403356Y-6149356D01*
D11*
X8958277Y-15013984D02*
X8958277Y-14813984D01*
X8958277Y-14813984D02*
X9005896Y-14813984D01*
X9005896Y-14813984D02*
X9034467Y-14823508D01*
X9034467Y-14823508D02*
X9053515Y-14842555D01*
X9053515Y-14842555D02*
X9063039Y-14861603D01*
X9063039Y-14861603D02*
X9072563Y-14899698D01*
X9072563Y-14899698D02*
X9072563Y-14928269D01*
X9072563Y-14928269D02*
X9063039Y-14966365D01*
X9063039Y-14966365D02*
X9053515Y-14985412D01*
X9053515Y-14985412D02*
X9034467Y-15004460D01*
X9034467Y-15004460D02*
X9005896Y-15013984D01*
X9005896Y-15013984D02*
X8958277Y-15013984D01*
X9158277Y-15013984D02*
X9158277Y-14880650D01*
X9158277Y-14918746D02*
X9167801Y-14899698D01*
X9167801Y-14899698D02*
X9177324Y-14890174D01*
X9177324Y-14890174D02*
X9196372Y-14880650D01*
X9196372Y-14880650D02*
X9215420Y-14880650D01*
X9282086Y-15013984D02*
X9282086Y-14880650D01*
X9282086Y-14813984D02*
X9272563Y-14823508D01*
X9272563Y-14823508D02*
X9282086Y-14833031D01*
X9282086Y-14833031D02*
X9291610Y-14823508D01*
X9291610Y-14823508D02*
X9282086Y-14813984D01*
X9282086Y-14813984D02*
X9282086Y-14833031D01*
X9405896Y-15013984D02*
X9386848Y-15004460D01*
X9386848Y-15004460D02*
X9377324Y-14985412D01*
X9377324Y-14985412D02*
X9377324Y-14813984D01*
X9510658Y-15013984D02*
X9491610Y-15004460D01*
X9491610Y-15004460D02*
X9482086Y-14985412D01*
X9482086Y-14985412D02*
X9482086Y-14813984D01*
X9739229Y-15013984D02*
X9739229Y-14813984D01*
X9739229Y-14813984D02*
X9805896Y-14956841D01*
X9805896Y-14956841D02*
X9872563Y-14813984D01*
X9872563Y-14813984D02*
X9872563Y-15013984D01*
X10053515Y-15013984D02*
X10053515Y-14909222D01*
X10053515Y-14909222D02*
X10043991Y-14890174D01*
X10043991Y-14890174D02*
X10024944Y-14880650D01*
X10024944Y-14880650D02*
X9986848Y-14880650D01*
X9986848Y-14880650D02*
X9967801Y-14890174D01*
X10053515Y-15004460D02*
X10034467Y-15013984D01*
X10034467Y-15013984D02*
X9986848Y-15013984D01*
X9986848Y-15013984D02*
X9967801Y-15004460D01*
X9967801Y-15004460D02*
X9958277Y-14985412D01*
X9958277Y-14985412D02*
X9958277Y-14966365D01*
X9958277Y-14966365D02*
X9967801Y-14947317D01*
X9967801Y-14947317D02*
X9986848Y-14937793D01*
X9986848Y-14937793D02*
X10034467Y-14937793D01*
X10034467Y-14937793D02*
X10053515Y-14928269D01*
X10148753Y-14880650D02*
X10148753Y-15080650D01*
X10148753Y-14890174D02*
X10167801Y-14880650D01*
X10167801Y-14880650D02*
X10205896Y-14880650D01*
X10205896Y-14880650D02*
X10224944Y-14890174D01*
X10224944Y-14890174D02*
X10234467Y-14899698D01*
X10234467Y-14899698D02*
X10243991Y-14918746D01*
X10243991Y-14918746D02*
X10243991Y-14975888D01*
X10243991Y-14975888D02*
X10234467Y-14994936D01*
X10234467Y-14994936D02*
X10224944Y-15004460D01*
X10224944Y-15004460D02*
X10205896Y-15013984D01*
X10205896Y-15013984D02*
X10167801Y-15013984D01*
X10167801Y-15013984D02*
X10148753Y-15004460D01*
X10329705Y-14994936D02*
X10339229Y-15004460D01*
X10339229Y-15004460D02*
X10329705Y-15013984D01*
X10329705Y-15013984D02*
X10320182Y-15004460D01*
X10320182Y-15004460D02*
X10329705Y-14994936D01*
X10329705Y-14994936D02*
X10329705Y-15013984D01*
X10329705Y-14890174D02*
X10339229Y-14899698D01*
X10339229Y-14899698D02*
X10329705Y-14909222D01*
X10329705Y-14909222D02*
X10320182Y-14899698D01*
X10320182Y-14899698D02*
X10329705Y-14890174D01*
X10329705Y-14890174D02*
X10329705Y-14909222D01*
D12*
X8667500Y-15327500D02*
X8697500Y-15357500D01*
X8697500Y-15327500D02*
X8667500Y-15357500D01*
D11*
X8996372Y-15233984D02*
X9015420Y-15233984D01*
X9015420Y-15233984D02*
X9034467Y-15243508D01*
X9034467Y-15243508D02*
X9043991Y-15253031D01*
X9043991Y-15253031D02*
X9053515Y-15272079D01*
X9053515Y-15272079D02*
X9063039Y-15310174D01*
X9063039Y-15310174D02*
X9063039Y-15357793D01*
X9063039Y-15357793D02*
X9053515Y-15395888D01*
X9053515Y-15395888D02*
X9043991Y-15414936D01*
X9043991Y-15414936D02*
X9034467Y-15424460D01*
X9034467Y-15424460D02*
X9015420Y-15433984D01*
X9015420Y-15433984D02*
X8996372Y-15433984D01*
X8996372Y-15433984D02*
X8977324Y-15424460D01*
X8977324Y-15424460D02*
X8967801Y-15414936D01*
X8967801Y-15414936D02*
X8958277Y-15395888D01*
X8958277Y-15395888D02*
X8948753Y-15357793D01*
X8948753Y-15357793D02*
X8948753Y-15310174D01*
X8948753Y-15310174D02*
X8958277Y-15272079D01*
X8958277Y-15272079D02*
X8967801Y-15253031D01*
X8967801Y-15253031D02*
X8977324Y-15243508D01*
X8977324Y-15243508D02*
X8996372Y-15233984D01*
X9148753Y-15414936D02*
X9158277Y-15424460D01*
X9158277Y-15424460D02*
X9148753Y-15433984D01*
X9148753Y-15433984D02*
X9139229Y-15424460D01*
X9139229Y-15424460D02*
X9148753Y-15414936D01*
X9148753Y-15414936D02*
X9148753Y-15433984D01*
X9224944Y-15233984D02*
X9348753Y-15233984D01*
X9348753Y-15233984D02*
X9282086Y-15310174D01*
X9282086Y-15310174D02*
X9310658Y-15310174D01*
X9310658Y-15310174D02*
X9329705Y-15319698D01*
X9329705Y-15319698D02*
X9339229Y-15329222D01*
X9339229Y-15329222D02*
X9348753Y-15348269D01*
X9348753Y-15348269D02*
X9348753Y-15395888D01*
X9348753Y-15395888D02*
X9339229Y-15414936D01*
X9339229Y-15414936D02*
X9329705Y-15424460D01*
X9329705Y-15424460D02*
X9310658Y-15433984D01*
X9310658Y-15433984D02*
X9253515Y-15433984D01*
X9253515Y-15433984D02*
X9234467Y-15424460D01*
X9234467Y-15424460D02*
X9224944Y-15414936D01*
X9472563Y-15233984D02*
X9491610Y-15233984D01*
X9491610Y-15233984D02*
X9510658Y-15243508D01*
X9510658Y-15243508D02*
X9520182Y-15253031D01*
X9520182Y-15253031D02*
X9529705Y-15272079D01*
X9529705Y-15272079D02*
X9539229Y-15310174D01*
X9539229Y-15310174D02*
X9539229Y-15357793D01*
X9539229Y-15357793D02*
X9529705Y-15395888D01*
X9529705Y-15395888D02*
X9520182Y-15414936D01*
X9520182Y-15414936D02*
X9510658Y-15424460D01*
X9510658Y-15424460D02*
X9491610Y-15433984D01*
X9491610Y-15433984D02*
X9472563Y-15433984D01*
X9472563Y-15433984D02*
X9453515Y-15424460D01*
X9453515Y-15424460D02*
X9443991Y-15414936D01*
X9443991Y-15414936D02*
X9434467Y-15395888D01*
X9434467Y-15395888D02*
X9424944Y-15357793D01*
X9424944Y-15357793D02*
X9424944Y-15310174D01*
X9424944Y-15310174D02*
X9434467Y-15272079D01*
X9434467Y-15272079D02*
X9443991Y-15253031D01*
X9443991Y-15253031D02*
X9453515Y-15243508D01*
X9453515Y-15243508D02*
X9472563Y-15233984D01*
X9663039Y-15233984D02*
X9682086Y-15233984D01*
X9682086Y-15233984D02*
X9701134Y-15243508D01*
X9701134Y-15243508D02*
X9710658Y-15253031D01*
X9710658Y-15253031D02*
X9720182Y-15272079D01*
X9720182Y-15272079D02*
X9729705Y-15310174D01*
X9729705Y-15310174D02*
X9729705Y-15357793D01*
X9729705Y-15357793D02*
X9720182Y-15395888D01*
X9720182Y-15395888D02*
X9710658Y-15414936D01*
X9710658Y-15414936D02*
X9701134Y-15424460D01*
X9701134Y-15424460D02*
X9682086Y-15433984D01*
X9682086Y-15433984D02*
X9663039Y-15433984D01*
X9663039Y-15433984D02*
X9643991Y-15424460D01*
X9643991Y-15424460D02*
X9634467Y-15414936D01*
X9634467Y-15414936D02*
X9624944Y-15395888D01*
X9624944Y-15395888D02*
X9615420Y-15357793D01*
X9615420Y-15357793D02*
X9615420Y-15310174D01*
X9615420Y-15310174D02*
X9624944Y-15272079D01*
X9624944Y-15272079D02*
X9634467Y-15253031D01*
X9634467Y-15253031D02*
X9643991Y-15243508D01*
X9643991Y-15243508D02*
X9663039Y-15233984D01*
X9815420Y-15433984D02*
X9815420Y-15300650D01*
X9815420Y-15319698D02*
X9824944Y-15310174D01*
X9824944Y-15310174D02*
X9843991Y-15300650D01*
X9843991Y-15300650D02*
X9872563Y-15300650D01*
X9872563Y-15300650D02*
X9891610Y-15310174D01*
X9891610Y-15310174D02*
X9901134Y-15329222D01*
X9901134Y-15329222D02*
X9901134Y-15433984D01*
X9901134Y-15329222D02*
X9910658Y-15310174D01*
X9910658Y-15310174D02*
X9929705Y-15300650D01*
X9929705Y-15300650D02*
X9958277Y-15300650D01*
X9958277Y-15300650D02*
X9977325Y-15310174D01*
X9977325Y-15310174D02*
X9986848Y-15329222D01*
X9986848Y-15329222D02*
X9986848Y-15433984D01*
X10082086Y-15433984D02*
X10082086Y-15300650D01*
X10082086Y-15319698D02*
X10091610Y-15310174D01*
X10091610Y-15310174D02*
X10110658Y-15300650D01*
X10110658Y-15300650D02*
X10139229Y-15300650D01*
X10139229Y-15300650D02*
X10158277Y-15310174D01*
X10158277Y-15310174D02*
X10167801Y-15329222D01*
X10167801Y-15329222D02*
X10167801Y-15433984D01*
X10167801Y-15329222D02*
X10177325Y-15310174D01*
X10177325Y-15310174D02*
X10196372Y-15300650D01*
X10196372Y-15300650D02*
X10224944Y-15300650D01*
X10224944Y-15300650D02*
X10243991Y-15310174D01*
X10243991Y-15310174D02*
X10253515Y-15329222D01*
X10253515Y-15329222D02*
X10253515Y-15433984D01*
X10643991Y-15224460D02*
X10472563Y-15481603D01*
X10901134Y-15233984D02*
X10920182Y-15233984D01*
X10920182Y-15233984D02*
X10939229Y-15243508D01*
X10939229Y-15243508D02*
X10948753Y-15253031D01*
X10948753Y-15253031D02*
X10958277Y-15272079D01*
X10958277Y-15272079D02*
X10967801Y-15310174D01*
X10967801Y-15310174D02*
X10967801Y-15357793D01*
X10967801Y-15357793D02*
X10958277Y-15395888D01*
X10958277Y-15395888D02*
X10948753Y-15414936D01*
X10948753Y-15414936D02*
X10939229Y-15424460D01*
X10939229Y-15424460D02*
X10920182Y-15433984D01*
X10920182Y-15433984D02*
X10901134Y-15433984D01*
X10901134Y-15433984D02*
X10882087Y-15424460D01*
X10882087Y-15424460D02*
X10872563Y-15414936D01*
X10872563Y-15414936D02*
X10863039Y-15395888D01*
X10863039Y-15395888D02*
X10853515Y-15357793D01*
X10853515Y-15357793D02*
X10853515Y-15310174D01*
X10853515Y-15310174D02*
X10863039Y-15272079D01*
X10863039Y-15272079D02*
X10872563Y-15253031D01*
X10872563Y-15253031D02*
X10882087Y-15243508D01*
X10882087Y-15243508D02*
X10901134Y-15233984D01*
X11053515Y-15414936D02*
X11063039Y-15424460D01*
X11063039Y-15424460D02*
X11053515Y-15433984D01*
X11053515Y-15433984D02*
X11043991Y-15424460D01*
X11043991Y-15424460D02*
X11053515Y-15414936D01*
X11053515Y-15414936D02*
X11053515Y-15433984D01*
X11186848Y-15233984D02*
X11205896Y-15233984D01*
X11205896Y-15233984D02*
X11224944Y-15243508D01*
X11224944Y-15243508D02*
X11234467Y-15253031D01*
X11234467Y-15253031D02*
X11243991Y-15272079D01*
X11243991Y-15272079D02*
X11253515Y-15310174D01*
X11253515Y-15310174D02*
X11253515Y-15357793D01*
X11253515Y-15357793D02*
X11243991Y-15395888D01*
X11243991Y-15395888D02*
X11234467Y-15414936D01*
X11234467Y-15414936D02*
X11224944Y-15424460D01*
X11224944Y-15424460D02*
X11205896Y-15433984D01*
X11205896Y-15433984D02*
X11186848Y-15433984D01*
X11186848Y-15433984D02*
X11167801Y-15424460D01*
X11167801Y-15424460D02*
X11158277Y-15414936D01*
X11158277Y-15414936D02*
X11148753Y-15395888D01*
X11148753Y-15395888D02*
X11139229Y-15357793D01*
X11139229Y-15357793D02*
X11139229Y-15310174D01*
X11139229Y-15310174D02*
X11148753Y-15272079D01*
X11148753Y-15272079D02*
X11158277Y-15253031D01*
X11158277Y-15253031D02*
X11167801Y-15243508D01*
X11167801Y-15243508D02*
X11186848Y-15233984D01*
X11443991Y-15433984D02*
X11329706Y-15433984D01*
X11386848Y-15433984D02*
X11386848Y-15233984D01*
X11386848Y-15233984D02*
X11367801Y-15262555D01*
X11367801Y-15262555D02*
X11348753Y-15281603D01*
X11348753Y-15281603D02*
X11329706Y-15291127D01*
X11634467Y-15433984D02*
X11520182Y-15433984D01*
X11577325Y-15433984D02*
X11577325Y-15233984D01*
X11577325Y-15233984D02*
X11558277Y-15262555D01*
X11558277Y-15262555D02*
X11539229Y-15281603D01*
X11539229Y-15281603D02*
X11520182Y-15291127D01*
X11748753Y-15319698D02*
X11729706Y-15310174D01*
X11729706Y-15310174D02*
X11720182Y-15300650D01*
X11720182Y-15300650D02*
X11710658Y-15281603D01*
X11710658Y-15281603D02*
X11710658Y-15272079D01*
X11710658Y-15272079D02*
X11720182Y-15253031D01*
X11720182Y-15253031D02*
X11729706Y-15243508D01*
X11729706Y-15243508D02*
X11748753Y-15233984D01*
X11748753Y-15233984D02*
X11786848Y-15233984D01*
X11786848Y-15233984D02*
X11805896Y-15243508D01*
X11805896Y-15243508D02*
X11815420Y-15253031D01*
X11815420Y-15253031D02*
X11824944Y-15272079D01*
X11824944Y-15272079D02*
X11824944Y-15281603D01*
X11824944Y-15281603D02*
X11815420Y-15300650D01*
X11815420Y-15300650D02*
X11805896Y-15310174D01*
X11805896Y-15310174D02*
X11786848Y-15319698D01*
X11786848Y-15319698D02*
X11748753Y-15319698D01*
X11748753Y-15319698D02*
X11729706Y-15329222D01*
X11729706Y-15329222D02*
X11720182Y-15338746D01*
X11720182Y-15338746D02*
X11710658Y-15357793D01*
X11710658Y-15357793D02*
X11710658Y-15395888D01*
X11710658Y-15395888D02*
X11720182Y-15414936D01*
X11720182Y-15414936D02*
X11729706Y-15424460D01*
X11729706Y-15424460D02*
X11748753Y-15433984D01*
X11748753Y-15433984D02*
X11786848Y-15433984D01*
X11786848Y-15433984D02*
X11805896Y-15424460D01*
X11805896Y-15424460D02*
X11815420Y-15414936D01*
X11815420Y-15414936D02*
X11824944Y-15395888D01*
X11824944Y-15395888D02*
X11824944Y-15357793D01*
X11824944Y-15357793D02*
X11815420Y-15338746D01*
X11815420Y-15338746D02*
X11805896Y-15329222D01*
X11805896Y-15329222D02*
X11786848Y-15319698D01*
X11901134Y-15233984D02*
X11901134Y-15272079D01*
X11977325Y-15233984D02*
X11977325Y-15272079D01*
X12272563Y-15510174D02*
X12263039Y-15500650D01*
X12263039Y-15500650D02*
X12243991Y-15472079D01*
X12243991Y-15472079D02*
X12234468Y-15453031D01*
X12234468Y-15453031D02*
X12224944Y-15424460D01*
X12224944Y-15424460D02*
X12215420Y-15376841D01*
X12215420Y-15376841D02*
X12215420Y-15338746D01*
X12215420Y-15338746D02*
X12224944Y-15291127D01*
X12224944Y-15291127D02*
X12234468Y-15262555D01*
X12234468Y-15262555D02*
X12243991Y-15243508D01*
X12243991Y-15243508D02*
X12263039Y-15214936D01*
X12263039Y-15214936D02*
X12272563Y-15205412D01*
X12329706Y-15233984D02*
X12453515Y-15233984D01*
X12453515Y-15233984D02*
X12386848Y-15310174D01*
X12386848Y-15310174D02*
X12415420Y-15310174D01*
X12415420Y-15310174D02*
X12434468Y-15319698D01*
X12434468Y-15319698D02*
X12443991Y-15329222D01*
X12443991Y-15329222D02*
X12453515Y-15348269D01*
X12453515Y-15348269D02*
X12453515Y-15395888D01*
X12453515Y-15395888D02*
X12443991Y-15414936D01*
X12443991Y-15414936D02*
X12434468Y-15424460D01*
X12434468Y-15424460D02*
X12415420Y-15433984D01*
X12415420Y-15433984D02*
X12358277Y-15433984D01*
X12358277Y-15433984D02*
X12339229Y-15424460D01*
X12339229Y-15424460D02*
X12329706Y-15414936D01*
X12567801Y-15319698D02*
X12548753Y-15310174D01*
X12548753Y-15310174D02*
X12539229Y-15300650D01*
X12539229Y-15300650D02*
X12529706Y-15281603D01*
X12529706Y-15281603D02*
X12529706Y-15272079D01*
X12529706Y-15272079D02*
X12539229Y-15253031D01*
X12539229Y-15253031D02*
X12548753Y-15243508D01*
X12548753Y-15243508D02*
X12567801Y-15233984D01*
X12567801Y-15233984D02*
X12605896Y-15233984D01*
X12605896Y-15233984D02*
X12624944Y-15243508D01*
X12624944Y-15243508D02*
X12634468Y-15253031D01*
X12634468Y-15253031D02*
X12643991Y-15272079D01*
X12643991Y-15272079D02*
X12643991Y-15281603D01*
X12643991Y-15281603D02*
X12634468Y-15300650D01*
X12634468Y-15300650D02*
X12624944Y-15310174D01*
X12624944Y-15310174D02*
X12605896Y-15319698D01*
X12605896Y-15319698D02*
X12567801Y-15319698D01*
X12567801Y-15319698D02*
X12548753Y-15329222D01*
X12548753Y-15329222D02*
X12539229Y-15338746D01*
X12539229Y-15338746D02*
X12529706Y-15357793D01*
X12529706Y-15357793D02*
X12529706Y-15395888D01*
X12529706Y-15395888D02*
X12539229Y-15414936D01*
X12539229Y-15414936D02*
X12548753Y-15424460D01*
X12548753Y-15424460D02*
X12567801Y-15433984D01*
X12567801Y-15433984D02*
X12605896Y-15433984D01*
X12605896Y-15433984D02*
X12624944Y-15424460D01*
X12624944Y-15424460D02*
X12634468Y-15414936D01*
X12634468Y-15414936D02*
X12643991Y-15395888D01*
X12643991Y-15395888D02*
X12643991Y-15357793D01*
X12643991Y-15357793D02*
X12634468Y-15338746D01*
X12634468Y-15338746D02*
X12624944Y-15329222D01*
X12624944Y-15329222D02*
X12605896Y-15319698D01*
X12882087Y-15433984D02*
X12882087Y-15233984D01*
X12967801Y-15433984D02*
X12967801Y-15329222D01*
X12967801Y-15329222D02*
X12958277Y-15310174D01*
X12958277Y-15310174D02*
X12939230Y-15300650D01*
X12939230Y-15300650D02*
X12910658Y-15300650D01*
X12910658Y-15300650D02*
X12891610Y-15310174D01*
X12891610Y-15310174D02*
X12882087Y-15319698D01*
X13091610Y-15433984D02*
X13072563Y-15424460D01*
X13072563Y-15424460D02*
X13063039Y-15414936D01*
X13063039Y-15414936D02*
X13053515Y-15395888D01*
X13053515Y-15395888D02*
X13053515Y-15338746D01*
X13053515Y-15338746D02*
X13063039Y-15319698D01*
X13063039Y-15319698D02*
X13072563Y-15310174D01*
X13072563Y-15310174D02*
X13091610Y-15300650D01*
X13091610Y-15300650D02*
X13120182Y-15300650D01*
X13120182Y-15300650D02*
X13139230Y-15310174D01*
X13139230Y-15310174D02*
X13148753Y-15319698D01*
X13148753Y-15319698D02*
X13158277Y-15338746D01*
X13158277Y-15338746D02*
X13158277Y-15395888D01*
X13158277Y-15395888D02*
X13148753Y-15414936D01*
X13148753Y-15414936D02*
X13139230Y-15424460D01*
X13139230Y-15424460D02*
X13120182Y-15433984D01*
X13120182Y-15433984D02*
X13091610Y-15433984D01*
X13272563Y-15433984D02*
X13253515Y-15424460D01*
X13253515Y-15424460D02*
X13243991Y-15405412D01*
X13243991Y-15405412D02*
X13243991Y-15233984D01*
X13424944Y-15424460D02*
X13405896Y-15433984D01*
X13405896Y-15433984D02*
X13367801Y-15433984D01*
X13367801Y-15433984D02*
X13348753Y-15424460D01*
X13348753Y-15424460D02*
X13339230Y-15405412D01*
X13339230Y-15405412D02*
X13339230Y-15329222D01*
X13339230Y-15329222D02*
X13348753Y-15310174D01*
X13348753Y-15310174D02*
X13367801Y-15300650D01*
X13367801Y-15300650D02*
X13405896Y-15300650D01*
X13405896Y-15300650D02*
X13424944Y-15310174D01*
X13424944Y-15310174D02*
X13434468Y-15329222D01*
X13434468Y-15329222D02*
X13434468Y-15348269D01*
X13434468Y-15348269D02*
X13339230Y-15367317D01*
X13510658Y-15424460D02*
X13529706Y-15433984D01*
X13529706Y-15433984D02*
X13567801Y-15433984D01*
X13567801Y-15433984D02*
X13586849Y-15424460D01*
X13586849Y-15424460D02*
X13596372Y-15405412D01*
X13596372Y-15405412D02*
X13596372Y-15395888D01*
X13596372Y-15395888D02*
X13586849Y-15376841D01*
X13586849Y-15376841D02*
X13567801Y-15367317D01*
X13567801Y-15367317D02*
X13539230Y-15367317D01*
X13539230Y-15367317D02*
X13520182Y-15357793D01*
X13520182Y-15357793D02*
X13510658Y-15338746D01*
X13510658Y-15338746D02*
X13510658Y-15329222D01*
X13510658Y-15329222D02*
X13520182Y-15310174D01*
X13520182Y-15310174D02*
X13539230Y-15300650D01*
X13539230Y-15300650D02*
X13567801Y-15300650D01*
X13567801Y-15300650D02*
X13586849Y-15310174D01*
X13663039Y-15510174D02*
X13672563Y-15500650D01*
X13672563Y-15500650D02*
X13691611Y-15472079D01*
X13691611Y-15472079D02*
X13701134Y-15453031D01*
X13701134Y-15453031D02*
X13710658Y-15424460D01*
X13710658Y-15424460D02*
X13720182Y-15376841D01*
X13720182Y-15376841D02*
X13720182Y-15338746D01*
X13720182Y-15338746D02*
X13710658Y-15291127D01*
X13710658Y-15291127D02*
X13701134Y-15262555D01*
X13701134Y-15262555D02*
X13691611Y-15243508D01*
X13691611Y-15243508D02*
X13672563Y-15214936D01*
X13672563Y-15214936D02*
X13663039Y-15205412D01*
D12*
X8697500Y-15606500D02*
G75*
G02*
X8617500Y-15606500I-40000J0D01*
G01*
X8617500Y-15606500D02*
G75*
G02*
X8697500Y-15606500I40000J0D01*
G01*
D11*
X8996372Y-15497984D02*
X9015420Y-15497984D01*
X9015420Y-15497984D02*
X9034467Y-15507508D01*
X9034467Y-15507508D02*
X9043991Y-15517031D01*
X9043991Y-15517031D02*
X9053515Y-15536079D01*
X9053515Y-15536079D02*
X9063039Y-15574174D01*
X9063039Y-15574174D02*
X9063039Y-15621793D01*
X9063039Y-15621793D02*
X9053515Y-15659888D01*
X9053515Y-15659888D02*
X9043991Y-15678936D01*
X9043991Y-15678936D02*
X9034467Y-15688460D01*
X9034467Y-15688460D02*
X9015420Y-15697984D01*
X9015420Y-15697984D02*
X8996372Y-15697984D01*
X8996372Y-15697984D02*
X8977324Y-15688460D01*
X8977324Y-15688460D02*
X8967801Y-15678936D01*
X8967801Y-15678936D02*
X8958277Y-15659888D01*
X8958277Y-15659888D02*
X8948753Y-15621793D01*
X8948753Y-15621793D02*
X8948753Y-15574174D01*
X8948753Y-15574174D02*
X8958277Y-15536079D01*
X8958277Y-15536079D02*
X8967801Y-15517031D01*
X8967801Y-15517031D02*
X8977324Y-15507508D01*
X8977324Y-15507508D02*
X8996372Y-15497984D01*
X9148753Y-15678936D02*
X9158277Y-15688460D01*
X9158277Y-15688460D02*
X9148753Y-15697984D01*
X9148753Y-15697984D02*
X9139229Y-15688460D01*
X9139229Y-15688460D02*
X9148753Y-15678936D01*
X9148753Y-15678936D02*
X9148753Y-15697984D01*
X9272563Y-15583698D02*
X9253515Y-15574174D01*
X9253515Y-15574174D02*
X9243991Y-15564650D01*
X9243991Y-15564650D02*
X9234467Y-15545603D01*
X9234467Y-15545603D02*
X9234467Y-15536079D01*
X9234467Y-15536079D02*
X9243991Y-15517031D01*
X9243991Y-15517031D02*
X9253515Y-15507508D01*
X9253515Y-15507508D02*
X9272563Y-15497984D01*
X9272563Y-15497984D02*
X9310658Y-15497984D01*
X9310658Y-15497984D02*
X9329705Y-15507508D01*
X9329705Y-15507508D02*
X9339229Y-15517031D01*
X9339229Y-15517031D02*
X9348753Y-15536079D01*
X9348753Y-15536079D02*
X9348753Y-15545603D01*
X9348753Y-15545603D02*
X9339229Y-15564650D01*
X9339229Y-15564650D02*
X9329705Y-15574174D01*
X9329705Y-15574174D02*
X9310658Y-15583698D01*
X9310658Y-15583698D02*
X9272563Y-15583698D01*
X9272563Y-15583698D02*
X9253515Y-15593222D01*
X9253515Y-15593222D02*
X9243991Y-15602746D01*
X9243991Y-15602746D02*
X9234467Y-15621793D01*
X9234467Y-15621793D02*
X9234467Y-15659888D01*
X9234467Y-15659888D02*
X9243991Y-15678936D01*
X9243991Y-15678936D02*
X9253515Y-15688460D01*
X9253515Y-15688460D02*
X9272563Y-15697984D01*
X9272563Y-15697984D02*
X9310658Y-15697984D01*
X9310658Y-15697984D02*
X9329705Y-15688460D01*
X9329705Y-15688460D02*
X9339229Y-15678936D01*
X9339229Y-15678936D02*
X9348753Y-15659888D01*
X9348753Y-15659888D02*
X9348753Y-15621793D01*
X9348753Y-15621793D02*
X9339229Y-15602746D01*
X9339229Y-15602746D02*
X9329705Y-15593222D01*
X9329705Y-15593222D02*
X9310658Y-15583698D01*
X9472563Y-15497984D02*
X9491610Y-15497984D01*
X9491610Y-15497984D02*
X9510658Y-15507508D01*
X9510658Y-15507508D02*
X9520182Y-15517031D01*
X9520182Y-15517031D02*
X9529705Y-15536079D01*
X9529705Y-15536079D02*
X9539229Y-15574174D01*
X9539229Y-15574174D02*
X9539229Y-15621793D01*
X9539229Y-15621793D02*
X9529705Y-15659888D01*
X9529705Y-15659888D02*
X9520182Y-15678936D01*
X9520182Y-15678936D02*
X9510658Y-15688460D01*
X9510658Y-15688460D02*
X9491610Y-15697984D01*
X9491610Y-15697984D02*
X9472563Y-15697984D01*
X9472563Y-15697984D02*
X9453515Y-15688460D01*
X9453515Y-15688460D02*
X9443991Y-15678936D01*
X9443991Y-15678936D02*
X9434467Y-15659888D01*
X9434467Y-15659888D02*
X9424944Y-15621793D01*
X9424944Y-15621793D02*
X9424944Y-15574174D01*
X9424944Y-15574174D02*
X9434467Y-15536079D01*
X9434467Y-15536079D02*
X9443991Y-15517031D01*
X9443991Y-15517031D02*
X9453515Y-15507508D01*
X9453515Y-15507508D02*
X9472563Y-15497984D01*
X9663039Y-15497984D02*
X9682086Y-15497984D01*
X9682086Y-15497984D02*
X9701134Y-15507508D01*
X9701134Y-15507508D02*
X9710658Y-15517031D01*
X9710658Y-15517031D02*
X9720182Y-15536079D01*
X9720182Y-15536079D02*
X9729705Y-15574174D01*
X9729705Y-15574174D02*
X9729705Y-15621793D01*
X9729705Y-15621793D02*
X9720182Y-15659888D01*
X9720182Y-15659888D02*
X9710658Y-15678936D01*
X9710658Y-15678936D02*
X9701134Y-15688460D01*
X9701134Y-15688460D02*
X9682086Y-15697984D01*
X9682086Y-15697984D02*
X9663039Y-15697984D01*
X9663039Y-15697984D02*
X9643991Y-15688460D01*
X9643991Y-15688460D02*
X9634467Y-15678936D01*
X9634467Y-15678936D02*
X9624944Y-15659888D01*
X9624944Y-15659888D02*
X9615420Y-15621793D01*
X9615420Y-15621793D02*
X9615420Y-15574174D01*
X9615420Y-15574174D02*
X9624944Y-15536079D01*
X9624944Y-15536079D02*
X9634467Y-15517031D01*
X9634467Y-15517031D02*
X9643991Y-15507508D01*
X9643991Y-15507508D02*
X9663039Y-15497984D01*
X9815420Y-15697984D02*
X9815420Y-15564650D01*
X9815420Y-15583698D02*
X9824944Y-15574174D01*
X9824944Y-15574174D02*
X9843991Y-15564650D01*
X9843991Y-15564650D02*
X9872563Y-15564650D01*
X9872563Y-15564650D02*
X9891610Y-15574174D01*
X9891610Y-15574174D02*
X9901134Y-15593222D01*
X9901134Y-15593222D02*
X9901134Y-15697984D01*
X9901134Y-15593222D02*
X9910658Y-15574174D01*
X9910658Y-15574174D02*
X9929705Y-15564650D01*
X9929705Y-15564650D02*
X9958277Y-15564650D01*
X9958277Y-15564650D02*
X9977325Y-15574174D01*
X9977325Y-15574174D02*
X9986848Y-15593222D01*
X9986848Y-15593222D02*
X9986848Y-15697984D01*
X10082086Y-15697984D02*
X10082086Y-15564650D01*
X10082086Y-15583698D02*
X10091610Y-15574174D01*
X10091610Y-15574174D02*
X10110658Y-15564650D01*
X10110658Y-15564650D02*
X10139229Y-15564650D01*
X10139229Y-15564650D02*
X10158277Y-15574174D01*
X10158277Y-15574174D02*
X10167801Y-15593222D01*
X10167801Y-15593222D02*
X10167801Y-15697984D01*
X10167801Y-15593222D02*
X10177325Y-15574174D01*
X10177325Y-15574174D02*
X10196372Y-15564650D01*
X10196372Y-15564650D02*
X10224944Y-15564650D01*
X10224944Y-15564650D02*
X10243991Y-15574174D01*
X10243991Y-15574174D02*
X10253515Y-15593222D01*
X10253515Y-15593222D02*
X10253515Y-15697984D01*
X10643991Y-15488460D02*
X10472563Y-15745603D01*
X10901134Y-15497984D02*
X10920182Y-15497984D01*
X10920182Y-15497984D02*
X10939229Y-15507508D01*
X10939229Y-15507508D02*
X10948753Y-15517031D01*
X10948753Y-15517031D02*
X10958277Y-15536079D01*
X10958277Y-15536079D02*
X10967801Y-15574174D01*
X10967801Y-15574174D02*
X10967801Y-15621793D01*
X10967801Y-15621793D02*
X10958277Y-15659888D01*
X10958277Y-15659888D02*
X10948753Y-15678936D01*
X10948753Y-15678936D02*
X10939229Y-15688460D01*
X10939229Y-15688460D02*
X10920182Y-15697984D01*
X10920182Y-15697984D02*
X10901134Y-15697984D01*
X10901134Y-15697984D02*
X10882087Y-15688460D01*
X10882087Y-15688460D02*
X10872563Y-15678936D01*
X10872563Y-15678936D02*
X10863039Y-15659888D01*
X10863039Y-15659888D02*
X10853515Y-15621793D01*
X10853515Y-15621793D02*
X10853515Y-15574174D01*
X10853515Y-15574174D02*
X10863039Y-15536079D01*
X10863039Y-15536079D02*
X10872563Y-15517031D01*
X10872563Y-15517031D02*
X10882087Y-15507508D01*
X10882087Y-15507508D02*
X10901134Y-15497984D01*
X11053515Y-15678936D02*
X11063039Y-15688460D01*
X11063039Y-15688460D02*
X11053515Y-15697984D01*
X11053515Y-15697984D02*
X11043991Y-15688460D01*
X11043991Y-15688460D02*
X11053515Y-15678936D01*
X11053515Y-15678936D02*
X11053515Y-15697984D01*
X11186848Y-15497984D02*
X11205896Y-15497984D01*
X11205896Y-15497984D02*
X11224944Y-15507508D01*
X11224944Y-15507508D02*
X11234467Y-15517031D01*
X11234467Y-15517031D02*
X11243991Y-15536079D01*
X11243991Y-15536079D02*
X11253515Y-15574174D01*
X11253515Y-15574174D02*
X11253515Y-15621793D01*
X11253515Y-15621793D02*
X11243991Y-15659888D01*
X11243991Y-15659888D02*
X11234467Y-15678936D01*
X11234467Y-15678936D02*
X11224944Y-15688460D01*
X11224944Y-15688460D02*
X11205896Y-15697984D01*
X11205896Y-15697984D02*
X11186848Y-15697984D01*
X11186848Y-15697984D02*
X11167801Y-15688460D01*
X11167801Y-15688460D02*
X11158277Y-15678936D01*
X11158277Y-15678936D02*
X11148753Y-15659888D01*
X11148753Y-15659888D02*
X11139229Y-15621793D01*
X11139229Y-15621793D02*
X11139229Y-15574174D01*
X11139229Y-15574174D02*
X11148753Y-15536079D01*
X11148753Y-15536079D02*
X11158277Y-15517031D01*
X11158277Y-15517031D02*
X11167801Y-15507508D01*
X11167801Y-15507508D02*
X11186848Y-15497984D01*
X11320182Y-15497984D02*
X11443991Y-15497984D01*
X11443991Y-15497984D02*
X11377325Y-15574174D01*
X11377325Y-15574174D02*
X11405896Y-15574174D01*
X11405896Y-15574174D02*
X11424944Y-15583698D01*
X11424944Y-15583698D02*
X11434467Y-15593222D01*
X11434467Y-15593222D02*
X11443991Y-15612269D01*
X11443991Y-15612269D02*
X11443991Y-15659888D01*
X11443991Y-15659888D02*
X11434467Y-15678936D01*
X11434467Y-15678936D02*
X11424944Y-15688460D01*
X11424944Y-15688460D02*
X11405896Y-15697984D01*
X11405896Y-15697984D02*
X11348753Y-15697984D01*
X11348753Y-15697984D02*
X11329706Y-15688460D01*
X11329706Y-15688460D02*
X11320182Y-15678936D01*
X11634467Y-15697984D02*
X11520182Y-15697984D01*
X11577325Y-15697984D02*
X11577325Y-15497984D01*
X11577325Y-15497984D02*
X11558277Y-15526555D01*
X11558277Y-15526555D02*
X11539229Y-15545603D01*
X11539229Y-15545603D02*
X11520182Y-15555127D01*
X11815420Y-15497984D02*
X11720182Y-15497984D01*
X11720182Y-15497984D02*
X11710658Y-15593222D01*
X11710658Y-15593222D02*
X11720182Y-15583698D01*
X11720182Y-15583698D02*
X11739229Y-15574174D01*
X11739229Y-15574174D02*
X11786848Y-15574174D01*
X11786848Y-15574174D02*
X11805896Y-15583698D01*
X11805896Y-15583698D02*
X11815420Y-15593222D01*
X11815420Y-15593222D02*
X11824944Y-15612269D01*
X11824944Y-15612269D02*
X11824944Y-15659888D01*
X11824944Y-15659888D02*
X11815420Y-15678936D01*
X11815420Y-15678936D02*
X11805896Y-15688460D01*
X11805896Y-15688460D02*
X11786848Y-15697984D01*
X11786848Y-15697984D02*
X11739229Y-15697984D01*
X11739229Y-15697984D02*
X11720182Y-15688460D01*
X11720182Y-15688460D02*
X11710658Y-15678936D01*
X11901134Y-15497984D02*
X11901134Y-15536079D01*
X11977325Y-15497984D02*
X11977325Y-15536079D01*
X12272563Y-15774174D02*
X12263039Y-15764650D01*
X12263039Y-15764650D02*
X12243991Y-15736079D01*
X12243991Y-15736079D02*
X12234468Y-15717031D01*
X12234468Y-15717031D02*
X12224944Y-15688460D01*
X12224944Y-15688460D02*
X12215420Y-15640841D01*
X12215420Y-15640841D02*
X12215420Y-15602746D01*
X12215420Y-15602746D02*
X12224944Y-15555127D01*
X12224944Y-15555127D02*
X12234468Y-15526555D01*
X12234468Y-15526555D02*
X12243991Y-15507508D01*
X12243991Y-15507508D02*
X12263039Y-15478936D01*
X12263039Y-15478936D02*
X12272563Y-15469412D01*
X12339229Y-15517031D02*
X12348753Y-15507508D01*
X12348753Y-15507508D02*
X12367801Y-15497984D01*
X12367801Y-15497984D02*
X12415420Y-15497984D01*
X12415420Y-15497984D02*
X12434468Y-15507508D01*
X12434468Y-15507508D02*
X12443991Y-15517031D01*
X12443991Y-15517031D02*
X12453515Y-15536079D01*
X12453515Y-15536079D02*
X12453515Y-15555127D01*
X12453515Y-15555127D02*
X12443991Y-15583698D01*
X12443991Y-15583698D02*
X12329706Y-15697984D01*
X12329706Y-15697984D02*
X12453515Y-15697984D01*
X12624944Y-15564650D02*
X12624944Y-15697984D01*
X12577325Y-15488460D02*
X12529706Y-15631317D01*
X12529706Y-15631317D02*
X12653515Y-15631317D01*
X12815420Y-15564650D02*
X12815420Y-15697984D01*
X12767801Y-15488460D02*
X12720182Y-15631317D01*
X12720182Y-15631317D02*
X12843991Y-15631317D01*
X13072563Y-15697984D02*
X13072563Y-15497984D01*
X13158277Y-15697984D02*
X13158277Y-15593222D01*
X13158277Y-15593222D02*
X13148753Y-15574174D01*
X13148753Y-15574174D02*
X13129706Y-15564650D01*
X13129706Y-15564650D02*
X13101134Y-15564650D01*
X13101134Y-15564650D02*
X13082087Y-15574174D01*
X13082087Y-15574174D02*
X13072563Y-15583698D01*
X13282087Y-15697984D02*
X13263039Y-15688460D01*
X13263039Y-15688460D02*
X13253515Y-15678936D01*
X13253515Y-15678936D02*
X13243991Y-15659888D01*
X13243991Y-15659888D02*
X13243991Y-15602746D01*
X13243991Y-15602746D02*
X13253515Y-15583698D01*
X13253515Y-15583698D02*
X13263039Y-15574174D01*
X13263039Y-15574174D02*
X13282087Y-15564650D01*
X13282087Y-15564650D02*
X13310658Y-15564650D01*
X13310658Y-15564650D02*
X13329706Y-15574174D01*
X13329706Y-15574174D02*
X13339230Y-15583698D01*
X13339230Y-15583698D02*
X13348753Y-15602746D01*
X13348753Y-15602746D02*
X13348753Y-15659888D01*
X13348753Y-15659888D02*
X13339230Y-15678936D01*
X13339230Y-15678936D02*
X13329706Y-15688460D01*
X13329706Y-15688460D02*
X13310658Y-15697984D01*
X13310658Y-15697984D02*
X13282087Y-15697984D01*
X13463039Y-15697984D02*
X13443991Y-15688460D01*
X13443991Y-15688460D02*
X13434468Y-15669412D01*
X13434468Y-15669412D02*
X13434468Y-15497984D01*
X13615420Y-15688460D02*
X13596372Y-15697984D01*
X13596372Y-15697984D02*
X13558277Y-15697984D01*
X13558277Y-15697984D02*
X13539230Y-15688460D01*
X13539230Y-15688460D02*
X13529706Y-15669412D01*
X13529706Y-15669412D02*
X13529706Y-15593222D01*
X13529706Y-15593222D02*
X13539230Y-15574174D01*
X13539230Y-15574174D02*
X13558277Y-15564650D01*
X13558277Y-15564650D02*
X13596372Y-15564650D01*
X13596372Y-15564650D02*
X13615420Y-15574174D01*
X13615420Y-15574174D02*
X13624944Y-15593222D01*
X13624944Y-15593222D02*
X13624944Y-15612269D01*
X13624944Y-15612269D02*
X13529706Y-15631317D01*
X13701134Y-15688460D02*
X13720182Y-15697984D01*
X13720182Y-15697984D02*
X13758277Y-15697984D01*
X13758277Y-15697984D02*
X13777325Y-15688460D01*
X13777325Y-15688460D02*
X13786849Y-15669412D01*
X13786849Y-15669412D02*
X13786849Y-15659888D01*
X13786849Y-15659888D02*
X13777325Y-15640841D01*
X13777325Y-15640841D02*
X13758277Y-15631317D01*
X13758277Y-15631317D02*
X13729706Y-15631317D01*
X13729706Y-15631317D02*
X13710658Y-15621793D01*
X13710658Y-15621793D02*
X13701134Y-15602746D01*
X13701134Y-15602746D02*
X13701134Y-15593222D01*
X13701134Y-15593222D02*
X13710658Y-15574174D01*
X13710658Y-15574174D02*
X13729706Y-15564650D01*
X13729706Y-15564650D02*
X13758277Y-15564650D01*
X13758277Y-15564650D02*
X13777325Y-15574174D01*
X13853515Y-15774174D02*
X13863039Y-15764650D01*
X13863039Y-15764650D02*
X13882087Y-15736079D01*
X13882087Y-15736079D02*
X13891611Y-15717031D01*
X13891611Y-15717031D02*
X13901134Y-15688460D01*
X13901134Y-15688460D02*
X13910658Y-15640841D01*
X13910658Y-15640841D02*
X13910658Y-15602746D01*
X13910658Y-15602746D02*
X13901134Y-15555127D01*
X13901134Y-15555127D02*
X13891611Y-15526555D01*
X13891611Y-15526555D02*
X13882087Y-15507508D01*
X13882087Y-15507508D02*
X13863039Y-15478936D01*
X13863039Y-15478936D02*
X13853515Y-15469412D01*
D12*
X8652500Y-15825500D02*
X8652500Y-15915500D01*
X8607500Y-15870500D02*
X8697500Y-15870500D01*
D11*
X8996372Y-15761984D02*
X9015420Y-15761984D01*
X9015420Y-15761984D02*
X9034467Y-15771508D01*
X9034467Y-15771508D02*
X9043991Y-15781031D01*
X9043991Y-15781031D02*
X9053515Y-15800079D01*
X9053515Y-15800079D02*
X9063039Y-15838174D01*
X9063039Y-15838174D02*
X9063039Y-15885793D01*
X9063039Y-15885793D02*
X9053515Y-15923888D01*
X9053515Y-15923888D02*
X9043991Y-15942936D01*
X9043991Y-15942936D02*
X9034467Y-15952460D01*
X9034467Y-15952460D02*
X9015420Y-15961984D01*
X9015420Y-15961984D02*
X8996372Y-15961984D01*
X8996372Y-15961984D02*
X8977324Y-15952460D01*
X8977324Y-15952460D02*
X8967801Y-15942936D01*
X8967801Y-15942936D02*
X8958277Y-15923888D01*
X8958277Y-15923888D02*
X8948753Y-15885793D01*
X8948753Y-15885793D02*
X8948753Y-15838174D01*
X8948753Y-15838174D02*
X8958277Y-15800079D01*
X8958277Y-15800079D02*
X8967801Y-15781031D01*
X8967801Y-15781031D02*
X8977324Y-15771508D01*
X8977324Y-15771508D02*
X8996372Y-15761984D01*
X9148753Y-15942936D02*
X9158277Y-15952460D01*
X9158277Y-15952460D02*
X9148753Y-15961984D01*
X9148753Y-15961984D02*
X9139229Y-15952460D01*
X9139229Y-15952460D02*
X9148753Y-15942936D01*
X9148753Y-15942936D02*
X9148753Y-15961984D01*
X9253515Y-15961984D02*
X9291610Y-15961984D01*
X9291610Y-15961984D02*
X9310658Y-15952460D01*
X9310658Y-15952460D02*
X9320182Y-15942936D01*
X9320182Y-15942936D02*
X9339229Y-15914365D01*
X9339229Y-15914365D02*
X9348753Y-15876269D01*
X9348753Y-15876269D02*
X9348753Y-15800079D01*
X9348753Y-15800079D02*
X9339229Y-15781031D01*
X9339229Y-15781031D02*
X9329705Y-15771508D01*
X9329705Y-15771508D02*
X9310658Y-15761984D01*
X9310658Y-15761984D02*
X9272563Y-15761984D01*
X9272563Y-15761984D02*
X9253515Y-15771508D01*
X9253515Y-15771508D02*
X9243991Y-15781031D01*
X9243991Y-15781031D02*
X9234467Y-15800079D01*
X9234467Y-15800079D02*
X9234467Y-15847698D01*
X9234467Y-15847698D02*
X9243991Y-15866746D01*
X9243991Y-15866746D02*
X9253515Y-15876269D01*
X9253515Y-15876269D02*
X9272563Y-15885793D01*
X9272563Y-15885793D02*
X9310658Y-15885793D01*
X9310658Y-15885793D02*
X9329705Y-15876269D01*
X9329705Y-15876269D02*
X9339229Y-15866746D01*
X9339229Y-15866746D02*
X9348753Y-15847698D01*
X9472563Y-15761984D02*
X9491610Y-15761984D01*
X9491610Y-15761984D02*
X9510658Y-15771508D01*
X9510658Y-15771508D02*
X9520182Y-15781031D01*
X9520182Y-15781031D02*
X9529705Y-15800079D01*
X9529705Y-15800079D02*
X9539229Y-15838174D01*
X9539229Y-15838174D02*
X9539229Y-15885793D01*
X9539229Y-15885793D02*
X9529705Y-15923888D01*
X9529705Y-15923888D02*
X9520182Y-15942936D01*
X9520182Y-15942936D02*
X9510658Y-15952460D01*
X9510658Y-15952460D02*
X9491610Y-15961984D01*
X9491610Y-15961984D02*
X9472563Y-15961984D01*
X9472563Y-15961984D02*
X9453515Y-15952460D01*
X9453515Y-15952460D02*
X9443991Y-15942936D01*
X9443991Y-15942936D02*
X9434467Y-15923888D01*
X9434467Y-15923888D02*
X9424944Y-15885793D01*
X9424944Y-15885793D02*
X9424944Y-15838174D01*
X9424944Y-15838174D02*
X9434467Y-15800079D01*
X9434467Y-15800079D02*
X9443991Y-15781031D01*
X9443991Y-15781031D02*
X9453515Y-15771508D01*
X9453515Y-15771508D02*
X9472563Y-15761984D01*
X9663039Y-15761984D02*
X9682086Y-15761984D01*
X9682086Y-15761984D02*
X9701134Y-15771508D01*
X9701134Y-15771508D02*
X9710658Y-15781031D01*
X9710658Y-15781031D02*
X9720182Y-15800079D01*
X9720182Y-15800079D02*
X9729705Y-15838174D01*
X9729705Y-15838174D02*
X9729705Y-15885793D01*
X9729705Y-15885793D02*
X9720182Y-15923888D01*
X9720182Y-15923888D02*
X9710658Y-15942936D01*
X9710658Y-15942936D02*
X9701134Y-15952460D01*
X9701134Y-15952460D02*
X9682086Y-15961984D01*
X9682086Y-15961984D02*
X9663039Y-15961984D01*
X9663039Y-15961984D02*
X9643991Y-15952460D01*
X9643991Y-15952460D02*
X9634467Y-15942936D01*
X9634467Y-15942936D02*
X9624944Y-15923888D01*
X9624944Y-15923888D02*
X9615420Y-15885793D01*
X9615420Y-15885793D02*
X9615420Y-15838174D01*
X9615420Y-15838174D02*
X9624944Y-15800079D01*
X9624944Y-15800079D02*
X9634467Y-15781031D01*
X9634467Y-15781031D02*
X9643991Y-15771508D01*
X9643991Y-15771508D02*
X9663039Y-15761984D01*
X9815420Y-15961984D02*
X9815420Y-15828650D01*
X9815420Y-15847698D02*
X9824944Y-15838174D01*
X9824944Y-15838174D02*
X9843991Y-15828650D01*
X9843991Y-15828650D02*
X9872563Y-15828650D01*
X9872563Y-15828650D02*
X9891610Y-15838174D01*
X9891610Y-15838174D02*
X9901134Y-15857222D01*
X9901134Y-15857222D02*
X9901134Y-15961984D01*
X9901134Y-15857222D02*
X9910658Y-15838174D01*
X9910658Y-15838174D02*
X9929705Y-15828650D01*
X9929705Y-15828650D02*
X9958277Y-15828650D01*
X9958277Y-15828650D02*
X9977325Y-15838174D01*
X9977325Y-15838174D02*
X9986848Y-15857222D01*
X9986848Y-15857222D02*
X9986848Y-15961984D01*
X10082086Y-15961984D02*
X10082086Y-15828650D01*
X10082086Y-15847698D02*
X10091610Y-15838174D01*
X10091610Y-15838174D02*
X10110658Y-15828650D01*
X10110658Y-15828650D02*
X10139229Y-15828650D01*
X10139229Y-15828650D02*
X10158277Y-15838174D01*
X10158277Y-15838174D02*
X10167801Y-15857222D01*
X10167801Y-15857222D02*
X10167801Y-15961984D01*
X10167801Y-15857222D02*
X10177325Y-15838174D01*
X10177325Y-15838174D02*
X10196372Y-15828650D01*
X10196372Y-15828650D02*
X10224944Y-15828650D01*
X10224944Y-15828650D02*
X10243991Y-15838174D01*
X10243991Y-15838174D02*
X10253515Y-15857222D01*
X10253515Y-15857222D02*
X10253515Y-15961984D01*
X10643991Y-15752460D02*
X10472563Y-16009603D01*
X10901134Y-15761984D02*
X10920182Y-15761984D01*
X10920182Y-15761984D02*
X10939229Y-15771508D01*
X10939229Y-15771508D02*
X10948753Y-15781031D01*
X10948753Y-15781031D02*
X10958277Y-15800079D01*
X10958277Y-15800079D02*
X10967801Y-15838174D01*
X10967801Y-15838174D02*
X10967801Y-15885793D01*
X10967801Y-15885793D02*
X10958277Y-15923888D01*
X10958277Y-15923888D02*
X10948753Y-15942936D01*
X10948753Y-15942936D02*
X10939229Y-15952460D01*
X10939229Y-15952460D02*
X10920182Y-15961984D01*
X10920182Y-15961984D02*
X10901134Y-15961984D01*
X10901134Y-15961984D02*
X10882087Y-15952460D01*
X10882087Y-15952460D02*
X10872563Y-15942936D01*
X10872563Y-15942936D02*
X10863039Y-15923888D01*
X10863039Y-15923888D02*
X10853515Y-15885793D01*
X10853515Y-15885793D02*
X10853515Y-15838174D01*
X10853515Y-15838174D02*
X10863039Y-15800079D01*
X10863039Y-15800079D02*
X10872563Y-15781031D01*
X10872563Y-15781031D02*
X10882087Y-15771508D01*
X10882087Y-15771508D02*
X10901134Y-15761984D01*
X11053515Y-15942936D02*
X11063039Y-15952460D01*
X11063039Y-15952460D02*
X11053515Y-15961984D01*
X11053515Y-15961984D02*
X11043991Y-15952460D01*
X11043991Y-15952460D02*
X11053515Y-15942936D01*
X11053515Y-15942936D02*
X11053515Y-15961984D01*
X11186848Y-15761984D02*
X11205896Y-15761984D01*
X11205896Y-15761984D02*
X11224944Y-15771508D01*
X11224944Y-15771508D02*
X11234467Y-15781031D01*
X11234467Y-15781031D02*
X11243991Y-15800079D01*
X11243991Y-15800079D02*
X11253515Y-15838174D01*
X11253515Y-15838174D02*
X11253515Y-15885793D01*
X11253515Y-15885793D02*
X11243991Y-15923888D01*
X11243991Y-15923888D02*
X11234467Y-15942936D01*
X11234467Y-15942936D02*
X11224944Y-15952460D01*
X11224944Y-15952460D02*
X11205896Y-15961984D01*
X11205896Y-15961984D02*
X11186848Y-15961984D01*
X11186848Y-15961984D02*
X11167801Y-15952460D01*
X11167801Y-15952460D02*
X11158277Y-15942936D01*
X11158277Y-15942936D02*
X11148753Y-15923888D01*
X11148753Y-15923888D02*
X11139229Y-15885793D01*
X11139229Y-15885793D02*
X11139229Y-15838174D01*
X11139229Y-15838174D02*
X11148753Y-15800079D01*
X11148753Y-15800079D02*
X11158277Y-15781031D01*
X11158277Y-15781031D02*
X11167801Y-15771508D01*
X11167801Y-15771508D02*
X11186848Y-15761984D01*
X11320182Y-15761984D02*
X11443991Y-15761984D01*
X11443991Y-15761984D02*
X11377325Y-15838174D01*
X11377325Y-15838174D02*
X11405896Y-15838174D01*
X11405896Y-15838174D02*
X11424944Y-15847698D01*
X11424944Y-15847698D02*
X11434467Y-15857222D01*
X11434467Y-15857222D02*
X11443991Y-15876269D01*
X11443991Y-15876269D02*
X11443991Y-15923888D01*
X11443991Y-15923888D02*
X11434467Y-15942936D01*
X11434467Y-15942936D02*
X11424944Y-15952460D01*
X11424944Y-15952460D02*
X11405896Y-15961984D01*
X11405896Y-15961984D02*
X11348753Y-15961984D01*
X11348753Y-15961984D02*
X11329706Y-15952460D01*
X11329706Y-15952460D02*
X11320182Y-15942936D01*
X11624944Y-15761984D02*
X11529706Y-15761984D01*
X11529706Y-15761984D02*
X11520182Y-15857222D01*
X11520182Y-15857222D02*
X11529706Y-15847698D01*
X11529706Y-15847698D02*
X11548753Y-15838174D01*
X11548753Y-15838174D02*
X11596372Y-15838174D01*
X11596372Y-15838174D02*
X11615420Y-15847698D01*
X11615420Y-15847698D02*
X11624944Y-15857222D01*
X11624944Y-15857222D02*
X11634467Y-15876269D01*
X11634467Y-15876269D02*
X11634467Y-15923888D01*
X11634467Y-15923888D02*
X11624944Y-15942936D01*
X11624944Y-15942936D02*
X11615420Y-15952460D01*
X11615420Y-15952460D02*
X11596372Y-15961984D01*
X11596372Y-15961984D02*
X11548753Y-15961984D01*
X11548753Y-15961984D02*
X11529706Y-15952460D01*
X11529706Y-15952460D02*
X11520182Y-15942936D01*
X11805896Y-15828650D02*
X11805896Y-15961984D01*
X11758277Y-15752460D02*
X11710658Y-15895317D01*
X11710658Y-15895317D02*
X11834467Y-15895317D01*
X11901134Y-15761984D02*
X11901134Y-15800079D01*
X11977325Y-15761984D02*
X11977325Y-15800079D01*
X12272563Y-16038174D02*
X12263039Y-16028650D01*
X12263039Y-16028650D02*
X12243991Y-16000079D01*
X12243991Y-16000079D02*
X12234468Y-15981031D01*
X12234468Y-15981031D02*
X12224944Y-15952460D01*
X12224944Y-15952460D02*
X12215420Y-15904841D01*
X12215420Y-15904841D02*
X12215420Y-15866746D01*
X12215420Y-15866746D02*
X12224944Y-15819127D01*
X12224944Y-15819127D02*
X12234468Y-15790555D01*
X12234468Y-15790555D02*
X12243991Y-15771508D01*
X12243991Y-15771508D02*
X12263039Y-15742936D01*
X12263039Y-15742936D02*
X12272563Y-15733412D01*
X12453515Y-15961984D02*
X12339229Y-15961984D01*
X12396372Y-15961984D02*
X12396372Y-15761984D01*
X12396372Y-15761984D02*
X12377325Y-15790555D01*
X12377325Y-15790555D02*
X12358277Y-15809603D01*
X12358277Y-15809603D02*
X12339229Y-15819127D01*
X12529706Y-15781031D02*
X12539229Y-15771508D01*
X12539229Y-15771508D02*
X12558277Y-15761984D01*
X12558277Y-15761984D02*
X12605896Y-15761984D01*
X12605896Y-15761984D02*
X12624944Y-15771508D01*
X12624944Y-15771508D02*
X12634468Y-15781031D01*
X12634468Y-15781031D02*
X12643991Y-15800079D01*
X12643991Y-15800079D02*
X12643991Y-15819127D01*
X12643991Y-15819127D02*
X12634468Y-15847698D01*
X12634468Y-15847698D02*
X12520182Y-15961984D01*
X12520182Y-15961984D02*
X12643991Y-15961984D01*
X12882087Y-15961984D02*
X12882087Y-15761984D01*
X12967801Y-15961984D02*
X12967801Y-15857222D01*
X12967801Y-15857222D02*
X12958277Y-15838174D01*
X12958277Y-15838174D02*
X12939230Y-15828650D01*
X12939230Y-15828650D02*
X12910658Y-15828650D01*
X12910658Y-15828650D02*
X12891610Y-15838174D01*
X12891610Y-15838174D02*
X12882087Y-15847698D01*
X13091610Y-15961984D02*
X13072563Y-15952460D01*
X13072563Y-15952460D02*
X13063039Y-15942936D01*
X13063039Y-15942936D02*
X13053515Y-15923888D01*
X13053515Y-15923888D02*
X13053515Y-15866746D01*
X13053515Y-15866746D02*
X13063039Y-15847698D01*
X13063039Y-15847698D02*
X13072563Y-15838174D01*
X13072563Y-15838174D02*
X13091610Y-15828650D01*
X13091610Y-15828650D02*
X13120182Y-15828650D01*
X13120182Y-15828650D02*
X13139230Y-15838174D01*
X13139230Y-15838174D02*
X13148753Y-15847698D01*
X13148753Y-15847698D02*
X13158277Y-15866746D01*
X13158277Y-15866746D02*
X13158277Y-15923888D01*
X13158277Y-15923888D02*
X13148753Y-15942936D01*
X13148753Y-15942936D02*
X13139230Y-15952460D01*
X13139230Y-15952460D02*
X13120182Y-15961984D01*
X13120182Y-15961984D02*
X13091610Y-15961984D01*
X13272563Y-15961984D02*
X13253515Y-15952460D01*
X13253515Y-15952460D02*
X13243991Y-15933412D01*
X13243991Y-15933412D02*
X13243991Y-15761984D01*
X13424944Y-15952460D02*
X13405896Y-15961984D01*
X13405896Y-15961984D02*
X13367801Y-15961984D01*
X13367801Y-15961984D02*
X13348753Y-15952460D01*
X13348753Y-15952460D02*
X13339230Y-15933412D01*
X13339230Y-15933412D02*
X13339230Y-15857222D01*
X13339230Y-15857222D02*
X13348753Y-15838174D01*
X13348753Y-15838174D02*
X13367801Y-15828650D01*
X13367801Y-15828650D02*
X13405896Y-15828650D01*
X13405896Y-15828650D02*
X13424944Y-15838174D01*
X13424944Y-15838174D02*
X13434468Y-15857222D01*
X13434468Y-15857222D02*
X13434468Y-15876269D01*
X13434468Y-15876269D02*
X13339230Y-15895317D01*
X13510658Y-15952460D02*
X13529706Y-15961984D01*
X13529706Y-15961984D02*
X13567801Y-15961984D01*
X13567801Y-15961984D02*
X13586849Y-15952460D01*
X13586849Y-15952460D02*
X13596372Y-15933412D01*
X13596372Y-15933412D02*
X13596372Y-15923888D01*
X13596372Y-15923888D02*
X13586849Y-15904841D01*
X13586849Y-15904841D02*
X13567801Y-15895317D01*
X13567801Y-15895317D02*
X13539230Y-15895317D01*
X13539230Y-15895317D02*
X13520182Y-15885793D01*
X13520182Y-15885793D02*
X13510658Y-15866746D01*
X13510658Y-15866746D02*
X13510658Y-15857222D01*
X13510658Y-15857222D02*
X13520182Y-15838174D01*
X13520182Y-15838174D02*
X13539230Y-15828650D01*
X13539230Y-15828650D02*
X13567801Y-15828650D01*
X13567801Y-15828650D02*
X13586849Y-15838174D01*
X13663039Y-16038174D02*
X13672563Y-16028650D01*
X13672563Y-16028650D02*
X13691611Y-16000079D01*
X13691611Y-16000079D02*
X13701134Y-15981031D01*
X13701134Y-15981031D02*
X13710658Y-15952460D01*
X13710658Y-15952460D02*
X13720182Y-15904841D01*
X13720182Y-15904841D02*
X13720182Y-15866746D01*
X13720182Y-15866746D02*
X13710658Y-15819127D01*
X13710658Y-15819127D02*
X13701134Y-15790555D01*
X13701134Y-15790555D02*
X13691611Y-15771508D01*
X13691611Y-15771508D02*
X13672563Y-15742936D01*
X13672563Y-15742936D02*
X13663039Y-15733412D01*
D12*
X8682856Y-16169856D02*
X8682856Y-16099144D01*
X8612144Y-16099144D01*
X8612144Y-16169856D01*
X8682856Y-16169856D01*
D11*
X9063039Y-16225984D02*
X8948753Y-16225984D01*
X9005896Y-16225984D02*
X9005896Y-16025984D01*
X9005896Y-16025984D02*
X8986848Y-16054555D01*
X8986848Y-16054555D02*
X8967801Y-16073603D01*
X8967801Y-16073603D02*
X8948753Y-16083127D01*
X9148753Y-16206936D02*
X9158277Y-16216460D01*
X9158277Y-16216460D02*
X9148753Y-16225984D01*
X9148753Y-16225984D02*
X9139229Y-16216460D01*
X9139229Y-16216460D02*
X9148753Y-16206936D01*
X9148753Y-16206936D02*
X9148753Y-16225984D01*
X9282086Y-16025984D02*
X9301134Y-16025984D01*
X9301134Y-16025984D02*
X9320182Y-16035508D01*
X9320182Y-16035508D02*
X9329705Y-16045031D01*
X9329705Y-16045031D02*
X9339229Y-16064079D01*
X9339229Y-16064079D02*
X9348753Y-16102174D01*
X9348753Y-16102174D02*
X9348753Y-16149793D01*
X9348753Y-16149793D02*
X9339229Y-16187888D01*
X9339229Y-16187888D02*
X9329705Y-16206936D01*
X9329705Y-16206936D02*
X9320182Y-16216460D01*
X9320182Y-16216460D02*
X9301134Y-16225984D01*
X9301134Y-16225984D02*
X9282086Y-16225984D01*
X9282086Y-16225984D02*
X9263039Y-16216460D01*
X9263039Y-16216460D02*
X9253515Y-16206936D01*
X9253515Y-16206936D02*
X9243991Y-16187888D01*
X9243991Y-16187888D02*
X9234467Y-16149793D01*
X9234467Y-16149793D02*
X9234467Y-16102174D01*
X9234467Y-16102174D02*
X9243991Y-16064079D01*
X9243991Y-16064079D02*
X9253515Y-16045031D01*
X9253515Y-16045031D02*
X9263039Y-16035508D01*
X9263039Y-16035508D02*
X9282086Y-16025984D01*
X9472563Y-16025984D02*
X9491610Y-16025984D01*
X9491610Y-16025984D02*
X9510658Y-16035508D01*
X9510658Y-16035508D02*
X9520182Y-16045031D01*
X9520182Y-16045031D02*
X9529705Y-16064079D01*
X9529705Y-16064079D02*
X9539229Y-16102174D01*
X9539229Y-16102174D02*
X9539229Y-16149793D01*
X9539229Y-16149793D02*
X9529705Y-16187888D01*
X9529705Y-16187888D02*
X9520182Y-16206936D01*
X9520182Y-16206936D02*
X9510658Y-16216460D01*
X9510658Y-16216460D02*
X9491610Y-16225984D01*
X9491610Y-16225984D02*
X9472563Y-16225984D01*
X9472563Y-16225984D02*
X9453515Y-16216460D01*
X9453515Y-16216460D02*
X9443991Y-16206936D01*
X9443991Y-16206936D02*
X9434467Y-16187888D01*
X9434467Y-16187888D02*
X9424944Y-16149793D01*
X9424944Y-16149793D02*
X9424944Y-16102174D01*
X9424944Y-16102174D02*
X9434467Y-16064079D01*
X9434467Y-16064079D02*
X9443991Y-16045031D01*
X9443991Y-16045031D02*
X9453515Y-16035508D01*
X9453515Y-16035508D02*
X9472563Y-16025984D01*
X9663039Y-16025984D02*
X9682086Y-16025984D01*
X9682086Y-16025984D02*
X9701134Y-16035508D01*
X9701134Y-16035508D02*
X9710658Y-16045031D01*
X9710658Y-16045031D02*
X9720182Y-16064079D01*
X9720182Y-16064079D02*
X9729705Y-16102174D01*
X9729705Y-16102174D02*
X9729705Y-16149793D01*
X9729705Y-16149793D02*
X9720182Y-16187888D01*
X9720182Y-16187888D02*
X9710658Y-16206936D01*
X9710658Y-16206936D02*
X9701134Y-16216460D01*
X9701134Y-16216460D02*
X9682086Y-16225984D01*
X9682086Y-16225984D02*
X9663039Y-16225984D01*
X9663039Y-16225984D02*
X9643991Y-16216460D01*
X9643991Y-16216460D02*
X9634467Y-16206936D01*
X9634467Y-16206936D02*
X9624944Y-16187888D01*
X9624944Y-16187888D02*
X9615420Y-16149793D01*
X9615420Y-16149793D02*
X9615420Y-16102174D01*
X9615420Y-16102174D02*
X9624944Y-16064079D01*
X9624944Y-16064079D02*
X9634467Y-16045031D01*
X9634467Y-16045031D02*
X9643991Y-16035508D01*
X9643991Y-16035508D02*
X9663039Y-16025984D01*
X9815420Y-16225984D02*
X9815420Y-16092650D01*
X9815420Y-16111698D02*
X9824944Y-16102174D01*
X9824944Y-16102174D02*
X9843991Y-16092650D01*
X9843991Y-16092650D02*
X9872563Y-16092650D01*
X9872563Y-16092650D02*
X9891610Y-16102174D01*
X9891610Y-16102174D02*
X9901134Y-16121222D01*
X9901134Y-16121222D02*
X9901134Y-16225984D01*
X9901134Y-16121222D02*
X9910658Y-16102174D01*
X9910658Y-16102174D02*
X9929705Y-16092650D01*
X9929705Y-16092650D02*
X9958277Y-16092650D01*
X9958277Y-16092650D02*
X9977325Y-16102174D01*
X9977325Y-16102174D02*
X9986848Y-16121222D01*
X9986848Y-16121222D02*
X9986848Y-16225984D01*
X10082086Y-16225984D02*
X10082086Y-16092650D01*
X10082086Y-16111698D02*
X10091610Y-16102174D01*
X10091610Y-16102174D02*
X10110658Y-16092650D01*
X10110658Y-16092650D02*
X10139229Y-16092650D01*
X10139229Y-16092650D02*
X10158277Y-16102174D01*
X10158277Y-16102174D02*
X10167801Y-16121222D01*
X10167801Y-16121222D02*
X10167801Y-16225984D01*
X10167801Y-16121222D02*
X10177325Y-16102174D01*
X10177325Y-16102174D02*
X10196372Y-16092650D01*
X10196372Y-16092650D02*
X10224944Y-16092650D01*
X10224944Y-16092650D02*
X10243991Y-16102174D01*
X10243991Y-16102174D02*
X10253515Y-16121222D01*
X10253515Y-16121222D02*
X10253515Y-16225984D01*
X10643991Y-16016460D02*
X10472563Y-16273603D01*
X10901134Y-16025984D02*
X10920182Y-16025984D01*
X10920182Y-16025984D02*
X10939229Y-16035508D01*
X10939229Y-16035508D02*
X10948753Y-16045031D01*
X10948753Y-16045031D02*
X10958277Y-16064079D01*
X10958277Y-16064079D02*
X10967801Y-16102174D01*
X10967801Y-16102174D02*
X10967801Y-16149793D01*
X10967801Y-16149793D02*
X10958277Y-16187888D01*
X10958277Y-16187888D02*
X10948753Y-16206936D01*
X10948753Y-16206936D02*
X10939229Y-16216460D01*
X10939229Y-16216460D02*
X10920182Y-16225984D01*
X10920182Y-16225984D02*
X10901134Y-16225984D01*
X10901134Y-16225984D02*
X10882087Y-16216460D01*
X10882087Y-16216460D02*
X10872563Y-16206936D01*
X10872563Y-16206936D02*
X10863039Y-16187888D01*
X10863039Y-16187888D02*
X10853515Y-16149793D01*
X10853515Y-16149793D02*
X10853515Y-16102174D01*
X10853515Y-16102174D02*
X10863039Y-16064079D01*
X10863039Y-16064079D02*
X10872563Y-16045031D01*
X10872563Y-16045031D02*
X10882087Y-16035508D01*
X10882087Y-16035508D02*
X10901134Y-16025984D01*
X11053515Y-16206936D02*
X11063039Y-16216460D01*
X11063039Y-16216460D02*
X11053515Y-16225984D01*
X11053515Y-16225984D02*
X11043991Y-16216460D01*
X11043991Y-16216460D02*
X11053515Y-16206936D01*
X11053515Y-16206936D02*
X11053515Y-16225984D01*
X11186848Y-16025984D02*
X11205896Y-16025984D01*
X11205896Y-16025984D02*
X11224944Y-16035508D01*
X11224944Y-16035508D02*
X11234467Y-16045031D01*
X11234467Y-16045031D02*
X11243991Y-16064079D01*
X11243991Y-16064079D02*
X11253515Y-16102174D01*
X11253515Y-16102174D02*
X11253515Y-16149793D01*
X11253515Y-16149793D02*
X11243991Y-16187888D01*
X11243991Y-16187888D02*
X11234467Y-16206936D01*
X11234467Y-16206936D02*
X11224944Y-16216460D01*
X11224944Y-16216460D02*
X11205896Y-16225984D01*
X11205896Y-16225984D02*
X11186848Y-16225984D01*
X11186848Y-16225984D02*
X11167801Y-16216460D01*
X11167801Y-16216460D02*
X11158277Y-16206936D01*
X11158277Y-16206936D02*
X11148753Y-16187888D01*
X11148753Y-16187888D02*
X11139229Y-16149793D01*
X11139229Y-16149793D02*
X11139229Y-16102174D01*
X11139229Y-16102174D02*
X11148753Y-16064079D01*
X11148753Y-16064079D02*
X11158277Y-16045031D01*
X11158277Y-16045031D02*
X11167801Y-16035508D01*
X11167801Y-16035508D02*
X11186848Y-16025984D01*
X11320182Y-16025984D02*
X11443991Y-16025984D01*
X11443991Y-16025984D02*
X11377325Y-16102174D01*
X11377325Y-16102174D02*
X11405896Y-16102174D01*
X11405896Y-16102174D02*
X11424944Y-16111698D01*
X11424944Y-16111698D02*
X11434467Y-16121222D01*
X11434467Y-16121222D02*
X11443991Y-16140269D01*
X11443991Y-16140269D02*
X11443991Y-16187888D01*
X11443991Y-16187888D02*
X11434467Y-16206936D01*
X11434467Y-16206936D02*
X11424944Y-16216460D01*
X11424944Y-16216460D02*
X11405896Y-16225984D01*
X11405896Y-16225984D02*
X11348753Y-16225984D01*
X11348753Y-16225984D02*
X11329706Y-16216460D01*
X11329706Y-16216460D02*
X11320182Y-16206936D01*
X11539229Y-16225984D02*
X11577325Y-16225984D01*
X11577325Y-16225984D02*
X11596372Y-16216460D01*
X11596372Y-16216460D02*
X11605896Y-16206936D01*
X11605896Y-16206936D02*
X11624944Y-16178365D01*
X11624944Y-16178365D02*
X11634467Y-16140269D01*
X11634467Y-16140269D02*
X11634467Y-16064079D01*
X11634467Y-16064079D02*
X11624944Y-16045031D01*
X11624944Y-16045031D02*
X11615420Y-16035508D01*
X11615420Y-16035508D02*
X11596372Y-16025984D01*
X11596372Y-16025984D02*
X11558277Y-16025984D01*
X11558277Y-16025984D02*
X11539229Y-16035508D01*
X11539229Y-16035508D02*
X11529706Y-16045031D01*
X11529706Y-16045031D02*
X11520182Y-16064079D01*
X11520182Y-16064079D02*
X11520182Y-16111698D01*
X11520182Y-16111698D02*
X11529706Y-16130746D01*
X11529706Y-16130746D02*
X11539229Y-16140269D01*
X11539229Y-16140269D02*
X11558277Y-16149793D01*
X11558277Y-16149793D02*
X11596372Y-16149793D01*
X11596372Y-16149793D02*
X11615420Y-16140269D01*
X11615420Y-16140269D02*
X11624944Y-16130746D01*
X11624944Y-16130746D02*
X11634467Y-16111698D01*
X11805896Y-16092650D02*
X11805896Y-16225984D01*
X11758277Y-16016460D02*
X11710658Y-16159317D01*
X11710658Y-16159317D02*
X11834467Y-16159317D01*
X11901134Y-16025984D02*
X11901134Y-16064079D01*
X11977325Y-16025984D02*
X11977325Y-16064079D01*
X12272563Y-16302174D02*
X12263039Y-16292650D01*
X12263039Y-16292650D02*
X12243991Y-16264079D01*
X12243991Y-16264079D02*
X12234468Y-16245031D01*
X12234468Y-16245031D02*
X12224944Y-16216460D01*
X12224944Y-16216460D02*
X12215420Y-16168841D01*
X12215420Y-16168841D02*
X12215420Y-16130746D01*
X12215420Y-16130746D02*
X12224944Y-16083127D01*
X12224944Y-16083127D02*
X12234468Y-16054555D01*
X12234468Y-16054555D02*
X12243991Y-16035508D01*
X12243991Y-16035508D02*
X12263039Y-16006936D01*
X12263039Y-16006936D02*
X12272563Y-15997412D01*
X12453515Y-16225984D02*
X12339229Y-16225984D01*
X12396372Y-16225984D02*
X12396372Y-16025984D01*
X12396372Y-16025984D02*
X12377325Y-16054555D01*
X12377325Y-16054555D02*
X12358277Y-16073603D01*
X12358277Y-16073603D02*
X12339229Y-16083127D01*
X12624944Y-16092650D02*
X12624944Y-16225984D01*
X12577325Y-16016460D02*
X12529706Y-16159317D01*
X12529706Y-16159317D02*
X12653515Y-16159317D01*
X12758277Y-16111698D02*
X12739229Y-16102174D01*
X12739229Y-16102174D02*
X12729706Y-16092650D01*
X12729706Y-16092650D02*
X12720182Y-16073603D01*
X12720182Y-16073603D02*
X12720182Y-16064079D01*
X12720182Y-16064079D02*
X12729706Y-16045031D01*
X12729706Y-16045031D02*
X12739229Y-16035508D01*
X12739229Y-16035508D02*
X12758277Y-16025984D01*
X12758277Y-16025984D02*
X12796372Y-16025984D01*
X12796372Y-16025984D02*
X12815420Y-16035508D01*
X12815420Y-16035508D02*
X12824944Y-16045031D01*
X12824944Y-16045031D02*
X12834468Y-16064079D01*
X12834468Y-16064079D02*
X12834468Y-16073603D01*
X12834468Y-16073603D02*
X12824944Y-16092650D01*
X12824944Y-16092650D02*
X12815420Y-16102174D01*
X12815420Y-16102174D02*
X12796372Y-16111698D01*
X12796372Y-16111698D02*
X12758277Y-16111698D01*
X12758277Y-16111698D02*
X12739229Y-16121222D01*
X12739229Y-16121222D02*
X12729706Y-16130746D01*
X12729706Y-16130746D02*
X12720182Y-16149793D01*
X12720182Y-16149793D02*
X12720182Y-16187888D01*
X12720182Y-16187888D02*
X12729706Y-16206936D01*
X12729706Y-16206936D02*
X12739229Y-16216460D01*
X12739229Y-16216460D02*
X12758277Y-16225984D01*
X12758277Y-16225984D02*
X12796372Y-16225984D01*
X12796372Y-16225984D02*
X12815420Y-16216460D01*
X12815420Y-16216460D02*
X12824944Y-16206936D01*
X12824944Y-16206936D02*
X12834468Y-16187888D01*
X12834468Y-16187888D02*
X12834468Y-16149793D01*
X12834468Y-16149793D02*
X12824944Y-16130746D01*
X12824944Y-16130746D02*
X12815420Y-16121222D01*
X12815420Y-16121222D02*
X12796372Y-16111698D01*
X13072563Y-16225984D02*
X13072563Y-16025984D01*
X13158277Y-16225984D02*
X13158277Y-16121222D01*
X13158277Y-16121222D02*
X13148753Y-16102174D01*
X13148753Y-16102174D02*
X13129706Y-16092650D01*
X13129706Y-16092650D02*
X13101134Y-16092650D01*
X13101134Y-16092650D02*
X13082087Y-16102174D01*
X13082087Y-16102174D02*
X13072563Y-16111698D01*
X13282087Y-16225984D02*
X13263039Y-16216460D01*
X13263039Y-16216460D02*
X13253515Y-16206936D01*
X13253515Y-16206936D02*
X13243991Y-16187888D01*
X13243991Y-16187888D02*
X13243991Y-16130746D01*
X13243991Y-16130746D02*
X13253515Y-16111698D01*
X13253515Y-16111698D02*
X13263039Y-16102174D01*
X13263039Y-16102174D02*
X13282087Y-16092650D01*
X13282087Y-16092650D02*
X13310658Y-16092650D01*
X13310658Y-16092650D02*
X13329706Y-16102174D01*
X13329706Y-16102174D02*
X13339230Y-16111698D01*
X13339230Y-16111698D02*
X13348753Y-16130746D01*
X13348753Y-16130746D02*
X13348753Y-16187888D01*
X13348753Y-16187888D02*
X13339230Y-16206936D01*
X13339230Y-16206936D02*
X13329706Y-16216460D01*
X13329706Y-16216460D02*
X13310658Y-16225984D01*
X13310658Y-16225984D02*
X13282087Y-16225984D01*
X13463039Y-16225984D02*
X13443991Y-16216460D01*
X13443991Y-16216460D02*
X13434468Y-16197412D01*
X13434468Y-16197412D02*
X13434468Y-16025984D01*
X13615420Y-16216460D02*
X13596372Y-16225984D01*
X13596372Y-16225984D02*
X13558277Y-16225984D01*
X13558277Y-16225984D02*
X13539230Y-16216460D01*
X13539230Y-16216460D02*
X13529706Y-16197412D01*
X13529706Y-16197412D02*
X13529706Y-16121222D01*
X13529706Y-16121222D02*
X13539230Y-16102174D01*
X13539230Y-16102174D02*
X13558277Y-16092650D01*
X13558277Y-16092650D02*
X13596372Y-16092650D01*
X13596372Y-16092650D02*
X13615420Y-16102174D01*
X13615420Y-16102174D02*
X13624944Y-16121222D01*
X13624944Y-16121222D02*
X13624944Y-16140269D01*
X13624944Y-16140269D02*
X13529706Y-16159317D01*
X13701134Y-16216460D02*
X13720182Y-16225984D01*
X13720182Y-16225984D02*
X13758277Y-16225984D01*
X13758277Y-16225984D02*
X13777325Y-16216460D01*
X13777325Y-16216460D02*
X13786849Y-16197412D01*
X13786849Y-16197412D02*
X13786849Y-16187888D01*
X13786849Y-16187888D02*
X13777325Y-16168841D01*
X13777325Y-16168841D02*
X13758277Y-16159317D01*
X13758277Y-16159317D02*
X13729706Y-16159317D01*
X13729706Y-16159317D02*
X13710658Y-16149793D01*
X13710658Y-16149793D02*
X13701134Y-16130746D01*
X13701134Y-16130746D02*
X13701134Y-16121222D01*
X13701134Y-16121222D02*
X13710658Y-16102174D01*
X13710658Y-16102174D02*
X13729706Y-16092650D01*
X13729706Y-16092650D02*
X13758277Y-16092650D01*
X13758277Y-16092650D02*
X13777325Y-16102174D01*
X13853515Y-16302174D02*
X13863039Y-16292650D01*
X13863039Y-16292650D02*
X13882087Y-16264079D01*
X13882087Y-16264079D02*
X13891611Y-16245031D01*
X13891611Y-16245031D02*
X13901134Y-16216460D01*
X13901134Y-16216460D02*
X13910658Y-16168841D01*
X13910658Y-16168841D02*
X13910658Y-16130746D01*
X13910658Y-16130746D02*
X13901134Y-16083127D01*
X13901134Y-16083127D02*
X13891611Y-16054555D01*
X13891611Y-16054555D02*
X13882087Y-16035508D01*
X13882087Y-16035508D02*
X13863039Y-16006936D01*
X13863039Y-16006936D02*
X13853515Y-15997412D01*
M02*
