%TF.GenerationSoftware,KiCad,Pcbnew,9.0.1*%
%TF.CreationDate,2025-05-24T15:07:51+02:00*%
%TF.ProjectId,kleingorium,6b6c6569-6e67-46f7-9269-756d2e6b6963,rev?*%
%TF.SameCoordinates,Original*%
%TF.FileFunction,Drillmap*%
%TF.FilePolarity,Positive*%
%FSLAX45Y45*%
G04 Gerber Fmt 4.5, Leading zero omitted, Abs format (unit mm)*
G04 Created by KiCad (PCBNEW 9.0.1) date 2025-05-24 15:07:51*
%MOMM*%
%LPD*%
G01*
G04 APERTURE LIST*
%ADD10C,0.050000*%
%ADD11C,0.200000*%
G04 APERTURE END LIST*
D10*
X18560000Y-13140000D02*
G75*
G02*
X18160000Y-13140000I-200000J0D01*
G01*
X18160000Y-13140000D02*
G75*
G02*
X18560000Y-13140000I200000J0D01*
G01*
X8700000Y-4700000D02*
X18700000Y-4700000D01*
X18700000Y-14700000D01*
X8700000Y-14700000D01*
X8700000Y-4700000D01*
X9240000Y-6700000D02*
G75*
G02*
X8840000Y-6700000I-200000J0D01*
G01*
X8840000Y-6700000D02*
G75*
G02*
X9240000Y-6700000I200000J0D01*
G01*
X10800000Y-13240000D02*
G75*
G02*
X10400000Y-13240000I-200000J0D01*
G01*
X10400000Y-13240000D02*
G75*
G02*
X10800000Y-13240000I200000J0D01*
G01*
X18535000Y-6695000D02*
G75*
G02*
X18185000Y-6695000I-175000J0D01*
G01*
X18185000Y-6695000D02*
G75*
G02*
X18535000Y-6695000I175000J0D01*
G01*
D11*
X8958277Y-15013984D02*
X8958277Y-14813984D01*
X8958277Y-14813984D02*
X9005896Y-14813984D01*
X9005896Y-14813984D02*
X9034467Y-14823508D01*
X9034467Y-14823508D02*
X9053515Y-14842555D01*
X9053515Y-14842555D02*
X9063039Y-14861603D01*
X9063039Y-14861603D02*
X9072563Y-14899698D01*
X9072563Y-14899698D02*
X9072563Y-14928269D01*
X9072563Y-14928269D02*
X9063039Y-14966365D01*
X9063039Y-14966365D02*
X9053515Y-14985412D01*
X9053515Y-14985412D02*
X9034467Y-15004460D01*
X9034467Y-15004460D02*
X9005896Y-15013984D01*
X9005896Y-15013984D02*
X8958277Y-15013984D01*
X9158277Y-15013984D02*
X9158277Y-14880650D01*
X9158277Y-14918746D02*
X9167801Y-14899698D01*
X9167801Y-14899698D02*
X9177324Y-14890174D01*
X9177324Y-14890174D02*
X9196372Y-14880650D01*
X9196372Y-14880650D02*
X9215420Y-14880650D01*
X9282086Y-15013984D02*
X9282086Y-14880650D01*
X9282086Y-14813984D02*
X9272563Y-14823508D01*
X9272563Y-14823508D02*
X9282086Y-14833031D01*
X9282086Y-14833031D02*
X9291610Y-14823508D01*
X9291610Y-14823508D02*
X9282086Y-14813984D01*
X9282086Y-14813984D02*
X9282086Y-14833031D01*
X9405896Y-15013984D02*
X9386848Y-15004460D01*
X9386848Y-15004460D02*
X9377324Y-14985412D01*
X9377324Y-14985412D02*
X9377324Y-14813984D01*
X9510658Y-15013984D02*
X9491610Y-15004460D01*
X9491610Y-15004460D02*
X9482086Y-14985412D01*
X9482086Y-14985412D02*
X9482086Y-14813984D01*
X9739229Y-15013984D02*
X9739229Y-14813984D01*
X9739229Y-14813984D02*
X9805896Y-14956841D01*
X9805896Y-14956841D02*
X9872563Y-14813984D01*
X9872563Y-14813984D02*
X9872563Y-15013984D01*
X10053515Y-15013984D02*
X10053515Y-14909222D01*
X10053515Y-14909222D02*
X10043991Y-14890174D01*
X10043991Y-14890174D02*
X10024944Y-14880650D01*
X10024944Y-14880650D02*
X9986848Y-14880650D01*
X9986848Y-14880650D02*
X9967801Y-14890174D01*
X10053515Y-15004460D02*
X10034467Y-15013984D01*
X10034467Y-15013984D02*
X9986848Y-15013984D01*
X9986848Y-15013984D02*
X9967801Y-15004460D01*
X9967801Y-15004460D02*
X9958277Y-14985412D01*
X9958277Y-14985412D02*
X9958277Y-14966365D01*
X9958277Y-14966365D02*
X9967801Y-14947317D01*
X9967801Y-14947317D02*
X9986848Y-14937793D01*
X9986848Y-14937793D02*
X10034467Y-14937793D01*
X10034467Y-14937793D02*
X10053515Y-14928269D01*
X10148753Y-14880650D02*
X10148753Y-15080650D01*
X10148753Y-14890174D02*
X10167801Y-14880650D01*
X10167801Y-14880650D02*
X10205896Y-14880650D01*
X10205896Y-14880650D02*
X10224944Y-14890174D01*
X10224944Y-14890174D02*
X10234467Y-14899698D01*
X10234467Y-14899698D02*
X10243991Y-14918746D01*
X10243991Y-14918746D02*
X10243991Y-14975888D01*
X10243991Y-14975888D02*
X10234467Y-14994936D01*
X10234467Y-14994936D02*
X10224944Y-15004460D01*
X10224944Y-15004460D02*
X10205896Y-15013984D01*
X10205896Y-15013984D02*
X10167801Y-15013984D01*
X10167801Y-15013984D02*
X10148753Y-15004460D01*
X10329705Y-14994936D02*
X10339229Y-15004460D01*
X10339229Y-15004460D02*
X10329705Y-15013984D01*
X10329705Y-15013984D02*
X10320182Y-15004460D01*
X10320182Y-15004460D02*
X10329705Y-14994936D01*
X10329705Y-14994936D02*
X10329705Y-15013984D01*
X10329705Y-14890174D02*
X10339229Y-14899698D01*
X10339229Y-14899698D02*
X10329705Y-14909222D01*
X10329705Y-14909222D02*
X10320182Y-14899698D01*
X10320182Y-14899698D02*
X10329705Y-14890174D01*
X10329705Y-14890174D02*
X10329705Y-14909222D01*
M02*
